<svg id="Слой_1" data-name="Слой 1" xmlns="http://www.w3.org/2000/svg" viewBox="0 0 126.95 376.6">
  <defs>
    <style>
      .cls-1 {
        fill: #6e260e;
      }

      .cls-1, .cls-10, .cls-11, .cls-12, .cls-13, .cls-14, .cls-15, .cls-16, .cls-2, .cls-3, .cls-4, .cls-5, .cls-6, .cls-7, .cls-8, .cls-9 {
        fill-rule: evenodd;
      }

      .cls-2 {
        fill: #fdbf9d;
      }

      .cls-11, .cls-3 {
        fill: #fc9e8a;
      }

      .cls-4 {
        fill: #5a6777;
      }

      .cls-5 {
        fill: #425160;
      }

      .cls-6 {
        fill: #363958;
      }

      .cls-7 {
        fill: #152132;
      }

      .cls-8 {
        fill: #f1f6ff;
      }

      .cls-9 {
        fill: #647995;
      }

      .cls-10 {
        fill: #92a1b2;
      }

      .cls-11 {
        fill-opacity: 0.72;
      }

      .cls-12 {
        fill: #fff;
      }

      .cls-13 {
        fill: #904341;
      }

      .cls-14 {
        fill: #c47f75;
      }

      .cls-15 {
        fill: #b98051;
      }
    </style>
  </defs>
  <title>lifecycleSecondQuaterWoman</title>
  <g>
    <path class="cls-1" d="M10.58,33.54a19.63,19.63,0,0,0-2.13,7c-.58,5.47,1.9,10.58,1.35,16-.64,6.23-6.15,9.57-6.28,16.16a14.32,14.32,0,0,0,.12,2.06,53.11,53.11,0,0,0,1.28,5.41c.38,1.59,1.31,3,1.72,4.56a24.33,24.33,0,0,1-.08,11c-1.1,5.17-3.14,10-3.78,15.32a28.64,28.64,0,0,0-.12,5.71,34.28,34.28,0,0,0,3.4,11.56c1.71,3.77,1.82,7.26,1.19,11.46-1,7.1-2.72,14.56-1,21.7,1.85,7.62,7.75,13.16,14.48,13,4.34-.07,8.62-2.47,12.88-1.27,6.85,1.94,10.46,12.19,17.32,14.06,3.91,1.06,7.86-.94,11.2-3.39s6.5-5.42,10.32-6.61c4.07-1.26,8.44-.36,12.58.91s8.26,2.89,12.51,3.08S106.3,180,108.8,176c1.86-2.93,2.38-6.71,2.94-10.26.51-3.21.92-6.78,2.49-9.54,2.7-4.77,7.1-7.84,9.79-12.78,3.44-6.34,4.15-14.33.53-20.8-1.21-2.17-2.84-4.07-3.65-6.48-1.38-4.09-.1-8.6,1.28-12.57s2.92-8.25,2-12.5c-1.08-5.09-5.4-8.73-6.25-13.87a13.89,13.89,0,0,1,.15-4.94c.61-3.08,2-5.85,2.55-8.92.55-2.89,1-5.72,0-8.6-1-2.69-2.68-5-3.69-7.66-2.15-5.68-1-12.46-3.39-18-2.11-5-6.56-8-10.93-10.1s-9-3.63-12.79-7C86.53,9,84.09,4.76,80.49,2.41,70.61-4,59.62,4.47,49.49,4.5c-8.69,0-18.29-1.38-23.31,9-1.42,2.92-2.18,6.39-4,9-2.15,3.09-5.44,4.28-8.1,6.58A15.55,15.55,0,0,0,10.58,33.54Z"/>
    <g>
      <path class="cls-2" d="M96.27,227.52a11.61,11.61,0,0,0-.78,5.63c.53,4.26,2.15,8.28,2.15,12.27,0,2.6,3.15,3.18,3.79.69,0,0,0-.07,0-.09.89-3.62-1.72-11.28.17-11.1s4.1,6.18,4.3,10a9.72,9.72,0,0,1-1.18,5.12c-.82,1.73.81,3.64,2.24,2.67a12.88,12.88,0,0,0,4.35-6.23c.89-3,4.22-6.27,5.13-8.6s-.91-5.33-5.19-14.28c-.54-3.27-1.23-7.89-1.93-12.38-1.14-7.5-2.19-14.67-2.19-14.67l-14.38,3.18s2,8,3.94,15.2l0,.12A20.52,20.52,0,0,1,96.27,227.52Z"/>
      <path class="cls-3" d="M92.79,199.77s2,8,3.94,15.2l12.63-3.71c-1.14-7.5-2.19-14.67-2.19-14.67Z"/>
      <path class="cls-4" d="M82.78,150.26c.73,8.49,3.65,36.22,5.2,50.93.6,5.63,1,9.37,1,9.37l22.24-6.12s-1.14-5.21-2.77-12.31c-2-8.93-4.85-20.83-7.06-28.86-4-14.41-9.2-24.77-11.21-25.58C86.05,136,81.73,138.55,82.78,150.26Z"/>
      <path class="cls-5" d="M88,201.19c.6,5.63,1,9.37,1,9.37l22.24-6.12s-1.14-5.21-2.77-12.31Z"/>
    </g>
    <g>
      <path class="cls-2" d="M20.43,227.91a11.63,11.63,0,0,1,.78,5.63c-.53,4.27-2.15,8.28-2.15,12.27,0,2.61-3.15,3.18-3.79.69,0,0,0-.07,0-.09-.89-3.62,1.72-11.28-.17-11.09s-4.1,6.18-4.3,10a9.7,9.7,0,0,0,1.18,5.12c.81,1.73-.81,3.64-2.24,2.68a12.88,12.88,0,0,1-4.35-6.23c-.89-3-4.22-6.28-5.13-8.61S1.13,233,5.4,224c.55-3.28,1.24-7.89,1.94-12.39C8.48,204.16,9.52,197,9.52,197l14.39,3.18s-2,8-3.94,15.2c0,0,0,.07,0,.12A20.52,20.52,0,0,0,20.43,227.91Z"/>
      <path class="cls-3" d="M23.91,200.16s-2,8-3.94,15.2L7.34,211.65C8.48,204.16,9.52,197,9.52,197Z"/>
      <path class="cls-4" d="M34,151.11c-.74,8.49-3.66,36.21-5.21,50.93-.6,5.63-1,9.36-1,9.36L5.5,205.29S6.64,200.08,8.26,193c2.05-8.92,4.86-20.82,7.06-28.85,4-14.42,9.21-24.77,11.22-25.58C30.68,136.86,35,139.39,34,151.11Z"/>
      <path class="cls-5" d="M28.74,202c-.6,5.63-1,9.36-1,9.36L5.5,205.29S6.64,200.08,8.26,193Z"/>
    </g>
    <g>
      <path class="cls-6" d="M25,237.28S31,335,31.69,340.4h20.9l3.48-88.25h4.79l3,88.51H83.27l8.29-103.38L57.37,220.74Z"/>
      <path class="cls-7" d="M27.8,328.7H55.14L53,373.43l-15.54.32s-20.8,6.41-31.52,0c8.58-8,21.27-15.32,23.72-18.85C28.88,338,27.8,328.7,27.8,328.7Z"/>
      <path class="cls-7" d="M88.59,328.7H61.26l2.15,44.73,15.54.32s20.8,6.41,31.51,0c-8.57-8-21.27-15.32-23.71-18.85C87.52,338,88.59,328.7,88.59,328.7Z"/>
      <path class="cls-7" d="M45.61,252.8H75.82S59.27,242.31,45.61,252.8Z"/>
    </g>
    <g>
      <g>
        <path class="cls-4" d="M40.14,132.48a34.18,34.18,0,0,0,19.17,4.62c11.52-.51,17.12-6,17.12-6s-6-10-18.41-9.76S40.14,132.48,40.14,132.48Z"/>
        <path class="cls-8" d="M91.56,237.28H25l.83-10.19,1-12.92.83-10.26.52-6.3s0-2.54-.06-6.62c0-2.79-.05-6.32-.09-10.24s-.06-8.44-.1-12.92c0-3.43,0-6.89-.06-10.26,0-4.66-.06-9.11-.06-12.92,0-2.12,0-4.06,0-5.72,1.56-3.23,21.09-9,21.48-9.09l9,.3,8.95-.3c.39.14,19.94,5.86,21.49,9.09,0,1.66,0,3.6,0,5.72,0,3.81,0,8.26-.06,12.92,0,3.37,0,6.83-.06,10.26,0,4.48-.08,8.91-.12,12.92s0,7.45-.07,10.24c0,4.08-.06,6.62-.06,6.62l.52,6.3.83,10.26,1.07,12.92Z"/>
        <polygon class="cls-9" points="90.73 227.09 25.78 227.09 26.83 214.17 89.66 214.17 90.73 227.09"/>
        <path class="cls-9" d="M27.66,203.91l.52-6.3s0-2.54-.06-6.62H88.37c0,4.08-.06,6.62-.06,6.62l.52,6.3Z"/>
        <path class="cls-9" d="M88.56,167.83c0,4.48-.08,8.91-.12,12.92H28c0-4-.06-8.44-.1-12.92Z"/>
        <path class="cls-9" d="M88.68,145.88c0,3.45,0,7.47-.06,11.69H27.87c0-4.22-.06-8.24-.06-11.69Z"/>
        <path class="cls-10" d="M50.16,146.73s4.45,5,4.45,15.78v79.27H22L28.12,191s-2.85-47.92-1.58-52.46,15.75-9.29,15.75-9.29-.18,9.29,1.64,12.53S50.16,146.73,50.16,146.73Z"/>
        <path class="cls-4" d="M44.73,126.81a21.64,21.64,0,0,0,.17,9c1.19,4.15,5.26,10.92,5.26,10.92l-9.67,9.61s-3.48-9.61-3.56-15.67c0-2.24,0-4.06.12-5.47A7.41,7.41,0,0,1,40,129.61,25.09,25.09,0,0,1,44.73,126.81Z"/>
        <path class="cls-10" d="M67.09,146.73s-4.46,5-4.46,15.78v79.27H95.24L89.12,191s2.86-47.92,1.59-52.46S75,129.24,75,129.24s.18,9.29-1.63,12.53S67.09,146.73,67.09,146.73Z"/>
        <path class="cls-4" d="M72.52,126.81a21.83,21.83,0,0,1-.17,9c-1.19,4.15-5.26,10.92-5.26,10.92l9.66,9.61s3.48-9.61,3.57-15.67c0-2.24,0-4.06-.12-5.47a7.41,7.41,0,0,0-2.93-5.59A25.41,25.41,0,0,0,72.52,126.81Z"/>
      </g>
      <path class="cls-4" d="M48.75,172.06H34.85s-1.61,16.43,6.43,16.58C52.05,188.85,48.75,172.06,48.75,172.06Z"/>
      <path class="cls-4" d="M83.5,172.06H69.6S68,188.49,76,188.64C86.8,188.85,83.5,172.06,83.5,172.06Z"/>
    </g>
    <g>
      <g>
        <g>
          <path class="cls-2" d="M10.47,81c-11.14,3.07-5.78,33.07,18.34,30.39C29.1,88.58,21.46,78,10.47,81Z"/>
          <path class="cls-3" d="M9.76,92.31A13.4,13.4,0,0,0,12,97.69c.45.7,1.47-.09,1.09-.85A9.3,9.3,0,0,1,12,90.48c.42-1.7,1.51-2.68,3-2.57,2.76.21,5.31,2.56,6.85,5.16.12.21.22.43.33.65-.15-.07-.26-.14-.28-.14a3.25,3.25,0,0,0-4.19.15c-2.62,2.34-1.86,6.48.1,9s5.67,4.47,8.39,2.47c.83-.61.24-2.12-.65-2a6.38,6.38,0,0,1-5.31-1.42c-1.06-.94-2.45-2.79-1.92-4.52.18-.6.7-1.32,1.27-1.37s1.09.62,1.54.95c1.46,1.06,3.74,1,4.43-1.2.56-1.8-.72-3.89-1.58-5.25a14.61,14.61,0,0,0-3.56-3.89c-2.79-2.08-6.91-3.47-9.36,0A8,8,0,0,0,9.76,92.31Z"/>
        </g>
        <path class="cls-3" d="M47.85,124.1a141.26,141.26,0,0,0,.36,14.68c.38,3.25,5.86,6,10,6s9.32-2.57,10.28-5.56.84-15.54.84-15.54Z"/>
        <g>
          <path class="cls-2" d="M92.3,99.56a9.17,9.17,0,0,1,1.62,7.07v0a29.74,29.74,0,0,1-2.75,9.16C87,123.5,76.94,127.21,69.86,129.2a38.68,38.68,0,0,1-27.12-2.42c-4.52-2.1-9.59-3.88-13.26-7.85-3.46-3.71-4.66-9.61-5.42-14.87a288.73,288.73,0,0,1-2.78-30.45c-.09-2-.24-4.23-.36-6.46a16.74,16.74,0,0,1,4.36-12.6,53.11,53.11,0,0,0,5.24-6.29C35.16,41.87,39.23,34.65,45.14,30s14.49-6,19.73-.37c3.71,4,4.83,10.38,7.72,15.23s7.52,8.05,11.56,11.74,7.85,8.69,8,14.76c.13,4-1.36,7.79-2.52,11.58s-2,8.07-.52,11.71A21.74,21.74,0,0,0,92.3,99.56Z"/>
          <g>
            <g>
              <path class="cls-11" d="M73.7,95.62a8.87,8.87,0,0,1,13.92,0A13,13,0,0,1,90.45,104a12.39,12.39,0,0,1-2.83,8.25,8.71,8.71,0,0,1-13.92,0A12.2,12.2,0,0,1,70.79,104,12.81,12.81,0,0,1,73.7,95.62Z"/>
              <path class="cls-12" d="M81.72,98.62a3.52,3.52,0,0,1,.55-2A2.6,2.6,0,0,1,83.92,96a2.13,2.13,0,0,1,1.58.65,3,3,0,0,1,.7,2,2.44,2.44,0,0,1-.7,1.88,1.91,1.91,0,0,1-1.58.84,2.29,2.29,0,0,1-1.65-.84A2.83,2.83,0,0,1,81.72,98.62Z"/>
            </g>
            <g>
              <path class="cls-11" d="M48.48,105.32a12.22,12.22,0,0,1-2.91,8.26,8.71,8.71,0,0,1-13.92,0,12.42,12.42,0,0,1-2.83-8.26A13,13,0,0,1,31.65,97a8.86,8.86,0,0,1,13.92,0A12.77,12.77,0,0,1,48.48,105.32Z"/>
              <path class="cls-12" d="M37,101.85a2.27,2.27,0,0,1-1.65.85,1.89,1.89,0,0,1-1.58-.85,2.42,2.42,0,0,1-.71-1.87,3,3,0,0,1,.71-2,2.1,2.1,0,0,1,1.58-.66A2.56,2.56,0,0,1,37,98a3.58,3.58,0,0,1,.55,2A2.86,2.86,0,0,1,37,101.85Z"/>
            </g>
            <path class="cls-13" d="M53,104.7a9,9,0,0,0,8.67,4.23c5.26-.37,7-6.64,7-6.64S63.26,106.41,53,104.7Z"/>
            <path class="cls-14" d="M56.13,98.68s1.46-4.2,4.21-3.79S64,98.27,64,98.27s.23-6.25-3.78-6.15C56,92.22,56.13,98.68,56.13,98.68Z"/>
            <g>
              <path class="cls-15" d="M54.2,89.5a1.09,1.09,0,0,0-2.06-.45c-.73,1.31,1.34,2.72,2,1.15A1.37,1.37,0,0,0,54.2,89.5Z"/>
              <path class="cls-15" d="M67.33,84.8a1.09,1.09,0,0,0-2.06-.45c-.74,1.32,1.34,2.73,2,1.16A1.42,1.42,0,0,0,67.33,84.8Z"/>
              <path class="cls-15" d="M55.58,83.63a.78.78,0,0,0-1.48-.32c-.53.94,1,2,1.4.83A1.23,1.23,0,0,0,55.58,83.63Z"/>
              <path class="cls-15" d="M64.33,89.37a.78.78,0,0,0-1.48-.32c-.53.94,1,2,1.4.83A1,1,0,0,0,64.33,89.37Z"/>
              <path class="cls-15" d="M62.08,83.55a.78.78,0,0,0-1.48-.32c-.53,1,1,2,1.4.83A1,1,0,0,0,62.08,83.55Z"/>
              <path class="cls-15" d="M68.64,89.37a.78.78,0,0,0-1.47-.32c-.53.94,1,2,1.4.83A1.05,1.05,0,0,0,68.64,89.37Z"/>
              <path class="cls-15" d="M59.45,87.88A.78.78,0,0,0,58,87.56c-.53.94,1,2,1.4.83A1.06,1.06,0,0,0,59.45,87.88Z"/>
            </g>
            <g>
              <path class="cls-16" d="M48.4,84.75a10.82,10.82,0,0,1-1,4.88c-.67,1.36-1.49,2-2.47,2s-1.94-.68-2.69-2a10.82,10.82,0,0,1-1-4.88,10.43,10.43,0,0,1,1-4.89c.75-1.36,1.64-2,2.69-2s1.8.68,2.47,2A10.43,10.43,0,0,1,48.4,84.75Z"/>
              <path class="cls-1" d="M45,65.45c4.38-.85,8.25,3.36,7.34,3.7C49,70.39,40.36,70.76,37.75,70.33,36.74,70.16,39.73,66.46,45,65.45Z"/>
            </g>
            <g>
              <path class="cls-16" d="M78.36,83.78a11.07,11.07,0,0,1-1,5c-.74,1.29-1.57,1.93-2.47,1.93a3.19,3.19,0,0,1-2.69-1.93,11.2,11.2,0,0,1-1-5,11.71,11.71,0,0,1,1-5,3.19,3.19,0,0,1,2.69-1.93c.9,0,1.73.64,2.47,1.93A11.57,11.57,0,0,1,78.36,83.78Z"/>
              <path class="cls-1" d="M72.85,64.72c-4.38-.85-8.24,3.36-7.34,3.7C68.8,69.66,77.44,70,80.05,69.6,81.07,69.43,78.07,65.73,72.85,64.72Z"/>
            </g>
          </g>
        </g>
      </g>
      <path class="cls-1" d="M109.25,111.81c.37,6.59,4.55,12.31,4.55,18.89,0,5.63-3.08,10.58-6.38,14.57S100.32,153,98.17,158s-1.18,13.17,2.61,16.56a11,11,0,0,1-10-4.2,16.18,16.18,0,0,1-3.18-12c.53-3.87,2.36-7.26,3.72-10.84s2.28-7.77.92-11.35-4.66-5.76-5.37-9.52c-1-5.54,4-10.06,4.74-15.64a15.28,15.28,0,0,0-.87-6.66,56.73,56.73,0,0,0-2.31-5.49,20.45,20.45,0,0,1-1.77-4.57,9.78,9.78,0,0,1,.19-3.53A33.26,33.26,0,0,1,88,85.88c1-3,2.5-5.77,3.23-8.9a11.7,11.7,0,0,0-.08-6.16,12.85,12.85,0,0,0-3-5.07,23.61,23.61,0,0,0-7.49-4.88A35.27,35.27,0,0,1,73,56.53c-3-2.47-5.23-6.05-7.65-9.31S60,40.85,56.48,39.84s-7.22.21-10.53,2-6.41,4.05-9.85,5.4l-.36.13a13.49,13.49,0,0,1-5.42.89,9.37,9.37,0,0,1-2.65-.52,12.05,12.05,0,0,1-3.24-2c4.94-1.32,9.08-5.35,12.49-9.83s6.28-9.53,9.89-13.78c5-5.89,11.51-10.19,18.51-10.93a20,20,0,0,1,18.75,9c2.27,3.45,3.69,7.74,6.46,10.63s6.35,3.95,9.77,5.31A23.93,23.93,0,0,1,105,38.54a14.32,14.32,0,0,1,3.78,4c.16.24.37.42.54.65a4.53,4.53,0,0,1,.5,1.14,20.74,20.74,0,0,1,.73,2.84,33.5,33.5,0,0,1,.54,6c.06,4.56-.37,9.2.48,13.67,1.15,5.89,4.47,11.1,4.7,17.12C116.64,93.77,108.71,102,109.25,111.81Z"/>
    </g>
  </g>
</svg>
