<svg id="Layer_1" data-name="Layer 1" xmlns="http://www.w3.org/2000/svg" xmlns:xlink="http://www.w3.org/1999/xlink" viewBox="0 0 291.72 480.53"><defs><style>.cls-1{mask:url(#mask);filter:url(#luminosity-noclip-8);}.cls-10,.cls-12,.cls-14,.cls-2,.cls-4,.cls-6,.cls-8{mix-blend-mode:multiply;}.cls-2{fill:url(#linear-gradient);}.cls-3{mask:url(#mask-2);filter:url(#luminosity-noclip-13);}.cls-4{fill:url(#linear-gradient-2);}.cls-5{mask:url(#mask-3);filter:url(#luminosity-noclip-14);}.cls-6{fill:url(#linear-gradient-3);}.cls-7{mask:url(#mask-4);filter:url(#luminosity-noclip-9);}.cls-8{fill:url(#linear-gradient-4);}.cls-9{mask:url(#mask-5);filter:url(#luminosity-noclip-10);}.cls-10{fill:url(#linear-gradient-5);}.cls-11{mask:url(#mask-6);filter:url(#luminosity-noclip-11);}.cls-12{fill:url(#linear-gradient-6);}.cls-13{mask:url(#mask-7);filter:url(#luminosity-noclip-12);}.cls-14{fill:url(#linear-gradient-7);}.cls-15{fill:#ffcfcd;}.cls-16{fill:url(#linear-gradient-8);}.cls-17{mask:url(#mask-8);}.cls-18{fill:url(#linear-gradient-9);}.cls-19{fill:#733639;}.cls-20{fill:#a14c50;}.cls-21{fill:#4d1725;}.cls-22{fill:url(#New_Gradient_Swatch_copy_40);}.cls-23{fill:#f05e1f;}.cls-24{fill:url(#linear-gradient-10);}.cls-25{fill:#2a769c;}.cls-26{mask:url(#mask-9);}.cls-27{fill:url(#linear-gradient-11);}.cls-28{mask:url(#mask-10);}.cls-29{fill:url(#linear-gradient-12);}.cls-30{fill:url(#New_Gradient_Swatch_copy_15);}.cls-31{fill:url(#New_Gradient_Swatch_copy_15-2);}.cls-32{mask:url(#mask-11);}.cls-33{fill:url(#linear-gradient-13);}.cls-34{mask:url(#mask-12);}.cls-35{fill:url(#linear-gradient-14);}.cls-36{fill:url(#linear-gradient-15);}.cls-37{fill:url(#linear-gradient-16);}.cls-38{fill:url(#linear-gradient-17);}.cls-39{fill:url(#linear-gradient-18);}.cls-40{fill:url(#New_Gradient_Swatch_copy_40-2);}.cls-41{fill:#ffa721;}.cls-42{fill:url(#linear-gradient-19);}.cls-43{fill:url(#New_Gradient_Swatch_copy_21);}.cls-44{fill:url(#New_Gradient_Swatch_copy_11);}.cls-45{mask:url(#mask-13);}.cls-46{fill:url(#linear-gradient-20);}.cls-47{fill:url(#New_Gradient_Swatch_copy_11-2);}.cls-48{fill:url(#New_Gradient_Swatch_copy_21-2);}.cls-49{fill:url(#linear-gradient-21);}.cls-50{fill:url(#linear-gradient-22);}.cls-51{mask:url(#mask-14);}.cls-52{fill:url(#linear-gradient-23);}.cls-53{filter:url(#luminosity-noclip-7);}.cls-54{filter:url(#luminosity-noclip-6);}.cls-55{filter:url(#luminosity-noclip-5);}.cls-56{filter:url(#luminosity-noclip-4);}.cls-57{filter:url(#luminosity-noclip-3);}.cls-58{filter:url(#luminosity-noclip-2);}.cls-59{filter:url(#luminosity-noclip);}</style><filter id="luminosity-noclip" x="87.53" y="-7873.67" width="21.92" height="32766" filterUnits="userSpaceOnUse" color-interpolation-filters="sRGB"><feFlood flood-color="#fff" result="bg"/><feBlend in="SourceGraphic" in2="bg"/></filter><mask id="mask" x="87.53" y="-7873.67" width="21.92" height="32766" maskUnits="userSpaceOnUse"><g class="cls-59"/></mask><linearGradient id="linear-gradient" x1="-6287.67" y1="118.83" x2="-6265.75" y2="118.83" gradientTransform="matrix(-1, 0, 0, 1, -6178.22, 0)" gradientUnits="userSpaceOnUse"><stop offset="0" stop-color="#fafafa"/><stop offset="0.77" stop-color="#fefefe"/><stop offset="1" stop-color="#fff"/></linearGradient><filter id="luminosity-noclip-2" x="130.54" y="-7873.67" width="36.6" height="32766" filterUnits="userSpaceOnUse" color-interpolation-filters="sRGB"><feFlood flood-color="#fff" result="bg"/><feBlend in="SourceGraphic" in2="bg"/></filter><mask id="mask-2" x="130.54" y="-7873.67" width="36.6" height="32766" maskUnits="userSpaceOnUse"><g class="cls-58"/></mask><linearGradient id="linear-gradient-2" x1="-6325.59" y1="90.1" x2="-6332.38" y2="105.08" gradientTransform="matrix(-1, 0, 0, 1, -6178.22, 0)" gradientUnits="userSpaceOnUse"><stop offset="0" stop-color="#fff"/><stop offset="0.77" stop-color="#fefefe"/><stop offset="1" stop-color="#fff"/></linearGradient><filter id="luminosity-noclip-3" x="158.65" y="-7873.67" width="42.4" height="32766" filterUnits="userSpaceOnUse" color-interpolation-filters="sRGB"><feFlood flood-color="#fff" result="bg"/><feBlend in="SourceGraphic" in2="bg"/></filter><mask id="mask-3" x="158.65" y="-7873.67" width="42.4" height="32766" maskUnits="userSpaceOnUse"><g class="cls-57"/></mask><linearGradient id="linear-gradient-3" x1="-6336.44" y1="252.46" x2="-6352.31" y2="176" xlink:href="#linear-gradient"/><filter id="luminosity-noclip-4" x="187.98" y="-7873.67" width="36.98" height="32766" filterUnits="userSpaceOnUse" color-interpolation-filters="sRGB"><feFlood flood-color="#fff" result="bg"/><feBlend in="SourceGraphic" in2="bg"/></filter><mask id="mask-4" x="187.98" y="-7873.67" width="36.98" height="32766" maskUnits="userSpaceOnUse"><g class="cls-56"/></mask><linearGradient id="linear-gradient-4" x1="-6386.14" y1="461.02" x2="-6407.06" y2="546.25" xlink:href="#linear-gradient-2"/><filter id="luminosity-noclip-5" x="191.51" y="-7873.67" width="27.88" height="32766" filterUnits="userSpaceOnUse" color-interpolation-filters="sRGB"><feFlood flood-color="#fff" result="bg"/><feBlend in="SourceGraphic" in2="bg"/></filter><mask id="mask-5" x="191.51" y="-7873.67" width="27.88" height="32766" maskUnits="userSpaceOnUse"><g class="cls-55"/></mask><linearGradient id="linear-gradient-5" x1="-6317.04" y1="564.06" x2="-6408.19" y2="416.1" xlink:href="#linear-gradient-2"/><filter id="luminosity-noclip-6" x="80.75" y="-7873.67" width="60.33" height="32766" filterUnits="userSpaceOnUse" color-interpolation-filters="sRGB"><feFlood flood-color="#fff" result="bg"/><feBlend in="SourceGraphic" in2="bg"/></filter><mask id="mask-6" x="80.75" y="-7873.67" width="60.33" height="32766" maskUnits="userSpaceOnUse"><g class="cls-54"/></mask><linearGradient id="linear-gradient-6" x1="-6305.87" y1="480.72" x2="-6326.78" y2="565.95" xlink:href="#linear-gradient-2"/><filter id="luminosity-noclip-7" x="84.35" y="-7873.67" width="23.4" height="32766" filterUnits="userSpaceOnUse" color-interpolation-filters="sRGB"><feFlood flood-color="#fff" result="bg"/><feBlend in="SourceGraphic" in2="bg"/></filter><mask id="mask-7" x="84.35" y="-7873.67" width="23.4" height="32766" maskUnits="userSpaceOnUse"><g class="cls-53"/></mask><linearGradient id="linear-gradient-7" x1="-6219.11" y1="503.73" x2="-6310.25" y2="355.77" xlink:href="#linear-gradient-2"/><linearGradient id="linear-gradient-8" x1="-6290.59" y1="114.42" x2="-6252.59" y2="179.82" gradientTransform="matrix(-1, 0, 0, 1, -6178.22, 0)" gradientUnits="userSpaceOnUse"><stop offset="0" stop-color="#ed7d88"/><stop offset="1" stop-color="#ffcfcd"/></linearGradient><filter id="luminosity-noclip-8" x="87.53" y="94.69" width="21.92" height="48.29" filterUnits="userSpaceOnUse" color-interpolation-filters="sRGB"><feFlood flood-color="#fff" result="bg"/><feBlend in="SourceGraphic" in2="bg"/></filter><mask id="mask-8" x="87.53" y="94.69" width="21.92" height="48.29" maskUnits="userSpaceOnUse"><g class="cls-1"><path class="cls-2" d="M98.74,94.69c-5.75,9.81-6,14.36-9.3,23.57-1.64,4.62-1.89,4.81-1.91,6.14-.07,4.75,3.18,8.39,6.24,11.81,3.61,4,6.56,5.33,7.7,5.77,2,.79,3,1.18,3.88.92C111.15,141.15,112.29,112.9,98.74,94.69Z"/></g></mask><linearGradient id="linear-gradient-9" x1="-6287.67" y1="118.83" x2="-6265.75" y2="118.83" gradientTransform="matrix(-1, 0, 0, 1, -6178.22, 0)" gradientUnits="userSpaceOnUse"><stop offset="0" stop-color="#c1e3f4"/><stop offset="0.77" stop-color="#e0f1f9"/><stop offset="1" stop-color="#e9f5fb"/></linearGradient><linearGradient id="New_Gradient_Swatch_copy_40" x1="-6194.14" y1="269.25" x2="-6232.29" y2="261.24" gradientTransform="matrix(-1, 0, 0, 1, -6178.22, 0)" gradientUnits="userSpaceOnUse"><stop offset="0" stop-color="#fad260"/><stop offset="1" stop-color="#fa9826"/></linearGradient><linearGradient id="linear-gradient-10" x1="-6242.75" y1="196.75" x2="-6216.14" y2="196.75" xlink:href="#linear-gradient-8"/><filter id="luminosity-noclip-9" x="187.98" y="436.83" width="36.98" height="42.46" filterUnits="userSpaceOnUse" color-interpolation-filters="sRGB"><feFlood flood-color="#fff" result="bg"/><feBlend in="SourceGraphic" in2="bg"/></filter><mask id="mask-9" x="187.98" y="436.83" width="36.98" height="42.46" maskUnits="userSpaceOnUse"><g class="cls-7"><path class="cls-8" d="M188.3,474.63c1.79,4.94,13.95,5.4,19,3.92,7.08-2.05,14.32-8.56,15.07-16,0,0,2.08-20.65,2.57-25.71l-25.65,2.3c-1.06,7.73-7,20.39-9.69,27.07h0a29.75,29.75,0,0,0-1.09,3.13s-.19.7-.21.8A8.29,8.29,0,0,0,188.3,474.63Z"/></g></mask><linearGradient id="linear-gradient-11" x1="-6386.14" y1="461.02" x2="-6407.06" y2="546.25" xlink:href="#linear-gradient-9"/><filter id="luminosity-noclip-10" x="191.51" y="443.86" width="27.88" height="20.66" filterUnits="userSpaceOnUse" color-interpolation-filters="sRGB"><feFlood flood-color="#fff" result="bg"/><feBlend in="SourceGraphic" in2="bg"/></filter><mask id="mask-10" x="191.51" y="443.86" width="27.88" height="20.66" maskUnits="userSpaceOnUse"><g class="cls-9"><path class="cls-10" d="M213.53,464.27c-3.55,1.24-5.43-2.54-11.62-3.56-5.3-.91-8.61,1.11-10.4.86,2.87-6.82,4.87-10.92,6.65-17.71,1.82,4,4.49,5.2,8.1,6,4.24.93,7.68.92,12.92.44C220.32,456.94,216.5,463.22,213.53,464.27Z"/></g></mask><linearGradient id="linear-gradient-12" x1="-6317.04" y1="564.06" x2="-6408.19" y2="416.1" xlink:href="#linear-gradient-9"/><linearGradient id="New_Gradient_Swatch_copy_15" x1="-6428.24" y1="415.88" x2="-6300.64" y2="564.96" gradientTransform="matrix(-1, 0, 0, 1, -6178.22, 0)" gradientUnits="userSpaceOnUse"><stop offset="0" stop-color="#005995"/><stop offset="1" stop-color="#068be5"/></linearGradient><linearGradient id="New_Gradient_Swatch_copy_15-2" x1="-6349.46" y1="348.49" x2="-6221.93" y2="497.49" xlink:href="#New_Gradient_Swatch_copy_15"/><filter id="luminosity-noclip-11" x="80.75" y="394.17" width="60.33" height="33.08" filterUnits="userSpaceOnUse" color-interpolation-filters="sRGB"><feFlood flood-color="#fff" result="bg"/><feBlend in="SourceGraphic" in2="bg"/></filter><mask id="mask-11" x="80.75" y="394.17" width="60.33" height="33.08" maskUnits="userSpaceOnUse"><g class="cls-11"><path class="cls-12" d="M80.75,422.77a0,0,0,0,0,0,0c2,4.77,14,5,20.91,4,4.15-.59,12.26-2.47,21-9.74A67.5,67.5,0,0,0,134,417c6.84-.46,6.41-3.78,6.87-9,0-.21.32-3,.25-3.17a.34.34,0,0,0,0-.13,1.51,1.51,0,0,0,0-.6,9.52,9.52,0,0,0-.14-1.56c0-.07-.27-2-.28-2.11s0-.06,0-.09c-10.38,2.18-18.92-.08-26.76-6.12-.18.48-.39.93-.6,1.41v.06a42.57,42.57,0,0,1-2.2,4.3v0a25.79,25.79,0,0,1-3.57,4.67v0c-5,4.24-21.4,13.09-24.72,14.64a13.21,13.21,0,0,0-1.88,3.17C80.8,422.58,80.79,422.68,80.75,422.77Z"/></g></mask><linearGradient id="linear-gradient-13" x1="-6305.87" y1="480.72" x2="-6326.78" y2="565.95" xlink:href="#linear-gradient-9"/><filter id="luminosity-noclip-12" x="84.35" y="404.57" width="23.4" height="17.32" filterUnits="userSpaceOnUse" color-interpolation-filters="sRGB"><feFlood flood-color="#fff" result="bg"/><feBlend in="SourceGraphic" in2="bg"/></filter><mask id="mask-12" x="84.35" y="404.57" width="23.4" height="17.32" maskUnits="userSpaceOnUse"><g class="cls-13"><path class="cls-14" d="M84.35,418.48c4.49,3.54,10.4,4.42,15.12,2.17,6.23-3,9.31-17.33,8-16C104.06,408,89.29,415.9,84.35,418.48Z"/></g></mask><linearGradient id="linear-gradient-14" x1="-6219.11" y1="503.73" x2="-6310.25" y2="355.77" xlink:href="#linear-gradient-9"/><linearGradient id="linear-gradient-15" x1="-6294.54" y1="103.5" x2="-6328.53" y2="485.68" xlink:href="#New_Gradient_Swatch_copy_15"/><linearGradient id="linear-gradient-16" x1="-6295.12" y1="68.6" x2="-6320.77" y2="419.35" gradientTransform="matrix(-1, 0, 0, 1, -6178.22, 0)" gradientUnits="userSpaceOnUse"><stop offset="0" stop-color="#001440"/><stop offset="1" stop-color="#005995"/></linearGradient><linearGradient id="linear-gradient-17" x1="-6333.87" y1="100" x2="-6367.86" y2="482.18" xlink:href="#New_Gradient_Swatch_copy_15"/><linearGradient id="linear-gradient-18" x1="-6350.69" y1="64.53" x2="-6376.34" y2="415.29" xlink:href="#linear-gradient-16"/><linearGradient id="New_Gradient_Swatch_copy_40-2" x1="-6333.6" y1="172.17" x2="-6224.92" y2="-15.87" xlink:href="#New_Gradient_Swatch_copy_40"/><linearGradient id="linear-gradient-19" x1="-6309.15" y1="88.83" x2="-6290.08" y2="88.83" gradientTransform="matrix(-1, 0, 0, 1, -6178.22, 0)" gradientUnits="userSpaceOnUse"><stop offset="0" stop-color="#c1e3f4"/><stop offset="1" stop-color="#e9f5fb"/></linearGradient><linearGradient id="New_Gradient_Swatch_copy_21" x1="-6306.78" y1="92.85" x2="-6300.65" y2="91.48" gradientTransform="matrix(-1, 0, 0, 1, -6178.22, 0)" gradientUnits="userSpaceOnUse"><stop offset="0" stop-color="#70bfe6"/><stop offset="1" stop-color="#aad9f0"/></linearGradient><linearGradient id="New_Gradient_Swatch_copy_11" x1="-6312.78" y1="53.05" x2="-6325.96" y2="115.3" xlink:href="#linear-gradient-8"/><filter id="luminosity-noclip-13" x="130.54" y="78.54" width="36.6" height="32.23" filterUnits="userSpaceOnUse" color-interpolation-filters="sRGB"><feFlood flood-color="#fff" result="bg"/><feBlend in="SourceGraphic" in2="bg"/></filter><mask id="mask-13" x="130.54" y="78.54" width="36.6" height="32.23" maskUnits="userSpaceOnUse"><g class="cls-3"><path class="cls-4" d="M130.54,100c1.18,1.49,5.26,6.94,7.87,10.75a56.68,56.68,0,0,1,8.7-6.6c7.26-4.46,14.5-5.33,20-15.78-.34-5.22-4.42-9.8-9.92-9.84,1.1,3.07,2.84,1.85,2.11,3.7C157,88.41,149,88.41,130.79,99.81A2.43,2.43,0,0,1,130.54,100Z"/></g></mask><linearGradient id="linear-gradient-20" x1="-6325.59" y1="90.1" x2="-6332.38" y2="105.08" xlink:href="#linear-gradient-9"/><linearGradient id="New_Gradient_Swatch_copy_11-2" x1="-6286.75" y1="22.65" x2="-6328.55" y2="74.9" xlink:href="#linear-gradient-8"/><linearGradient id="New_Gradient_Swatch_copy_21-2" x1="-6348.76" y1="195.2" x2="-6352.61" y2="168.11" xlink:href="#New_Gradient_Swatch_copy_21"/><linearGradient id="linear-gradient-21" x1="-6346.65" y1="214.05" x2="-6271.7" y2="214.05" xlink:href="#linear-gradient-8"/><linearGradient id="linear-gradient-22" x1="-6361.82" y1="134.01" x2="-6335.85" y2="220.09" xlink:href="#linear-gradient-8"/><filter id="luminosity-noclip-14" x="158.65" y="111.39" width="42.4" height="63.96" filterUnits="userSpaceOnUse" color-interpolation-filters="sRGB"><feFlood flood-color="#fff" result="bg"/><feBlend in="SourceGraphic" in2="bg"/></filter><mask id="mask-14" x="158.65" y="111.39" width="42.4" height="63.96" maskUnits="userSpaceOnUse"><g class="cls-5"><path class="cls-6" d="M158.65,162.4c5.89-2.68,11.77-2.82,21.07,2.87,5.23,3.2,8.87,8.19,10.23,10.07,3.72-9.84,15.38-44.62,9.45-54.48-4.24-7.25-13-10.71-18.59-9.08-6.66,1.16-10.67,6.35-11.49,7.47C163,127.35,166.84,135.57,158.65,162.4Z"/></g></mask><linearGradient id="linear-gradient-23" x1="-6336.44" y1="252.46" x2="-6352.31" y2="176" xlink:href="#linear-gradient-9"/></defs><title>manPhase3</title><path class="cls-15" d="M44.84,180.2c6.07,6.28,15.46,8.69,19.68,1.3,19.61-12.36,27.42-13.15,41.27-24.4-3.37-12.69-8.22-24.38-12.93-40.91-4.22,8.43-5.5,16.52-9.38,24A186.71,186.71,0,0,0,44.84,180.2Z"/><path class="cls-16" d="M61,180.75c0,1.15,1.23,1.51,3.11,1.4a4.58,4.58,0,0,0,.43-.65c19.61-12.36,27.42-13.15,41.27-24.4-3.36-12.64-8.92-26.58-12.46-39.32a5.67,5.67,0,0,0-1.62.83c-3.11,6.93-4.73,14.84-8.23,21.59,0,0,9.53,4,10.9,11.66s-18.81,14.59-21.09,17.3S61.06,176.38,61,180.75Z"/><g class="cls-17"><path class="cls-18" d="M98.74,94.69c-5.75,9.81-6,14.36-9.3,23.57-1.64,4.62-1.89,4.81-1.91,6.14-.07,4.75,3.18,8.39,6.24,11.81,3.61,4,6.56,5.33,7.7,5.77,2,.79,3,1.18,3.88.92C111.15,141.15,112.29,112.9,98.74,94.69Z"/></g><path class="cls-19" d="M74.66,302.2c-20.6-13.08-42.25-27.95-63.78-44.1,1.61-38.26,1.23-29.42,1.67-39.74,0,0,2-4.76,9.87-2.77C33.71,218.45,35,224.65,59,230.8c5.91,1.5,10.68-.41,14.71,2.18s1.44,10.41.59,14.48-.29,4.84.12,16.61C74.71,271.49,74.91,283.21,74.66,302.2Z"/><path class="cls-20" d="M74.27,302.07c16.32-7.75,14.89-8.48,15.68-11.15h0l3-54.46c-7.57-14-21-1.75-20.63,9.84C72.5,254.14,74.27,302.07,74.27,302.07Z"/><path class="cls-21" d="M92.57,236c-.23.35-2.16-1.65-5.37-2.12-4.19-.6-8.94,1.87-11.3,5.55-1.86,2.79-2.69,4.62-4.78,31l-25-2.29c-.24,1.87-.5,3.73-.74,5.58l-3.33.88-8.83-6.34c-.33-3.88-.09-2.15-1.3-8.16q-10-13.26-20-26.53l.31-7.44,7.91-.33c2.53.77,35.81,9.44,48.56,8,11.68-1.29,12.58-6.49,20.37-1.44C91.15,233.74,92.79,235.65,92.57,236Z"/><path class="cls-22" d="M34,256.4S32.42,267.1,32.7,268,40,273.25,40,273.25l1.22-13.5Z"/><polygon class="cls-23" points="44.83 259.42 43.79 272.59 40.03 273.25 41.14 258.7 44.83 259.42"/><path class="cls-20" d="M69.64,268.08c-1.08-21.72,2-30.31,9.94-33.91,7.26-3.56,12.59.5,13.29,3,2.33-5-12.53-9.11-24.08-19C29,191.3,27.73,188.38,21.84,190.51c-8.1,2.92-11.92,26.3-12.27,35C37.92,263.54,28,253.59,38.75,264,48.55,264.92,44.75,264.52,69.64,268.08Z"/><path class="cls-19" d="M42.28,196.37c-3.89.67-7.13,3.2-8,7.22a3.89,3.89,0,0,0,6,3.13c0-1.34.08-2.68.11-4C44.17,202.62,45,198.44,42.28,196.37Z"/><path class="cls-15" d="M37.92,204c.66,3.63,2.73,3.23,5.51,5.53,1.58,1.3,1.37,1.5,2.31,2.1,1.78,1.15,2.81-.06,5.15.93,1.66.69,1.47,1.47,3.39,2.12a8.89,8.89,0,0,0,3.15.4c1.15,0,2.8-2.82,3.34-3.83a77.1,77.1,0,0,0,2.64-9.37c-.11-12.64.32-15.49-.27-17.21-2.13-4.57-7-4.55-11.86-5.65-4-.88-5.41,1.57-5.41,1.57-.9.86-.81-.77-1.71.09C41.29,185.58,36.78,197.21,37.92,204Z"/><path class="cls-24" d="M37.92,204c.66,3.63,2.73,3.23,5.51,5.53,1.58,1.3,1.37,1.5,2.31,2.1,1.78,1.15,2.81-.06,5.15.93,1.66.69,1.47,1.47,3.39,2.12a8.89,8.89,0,0,0,3.15.4c1.15,0,2.8-2.82,3.34-3.83a22.38,22.38,0,0,1,3-7.74c.92-6,1.29-13.09-.64-18.84a.81.81,0,0,0-.14-.33c-1.55-3.66-8.68-4.63-11.72-5.32-4-.88-4.71-.63-4.71-.63l-2.89,3.23a18.47,18.47,0,0,0,3.78,5c5.28,4.89,12.38,5.45,12.26,7.52A8,8,0,0,1,58,196.6c-2.17,2.43-2.5,4.2-3.28,5.36C51.7,206.28,41.09,203,37.92,204Z"/><path class="cls-19" d="M60.8,202.27c2.42.09,5.1,5.52,5.1,5.52A49.54,49.54,0,0,1,70,221.24c-2.22,3.19-6,2.65-8.37-.07s0-5-2.16-10.42c-1-2.59-2.2-3.75-1.69-5.6C58.12,203.75,59.45,202.22,60.8,202.27Z"/><path class="cls-25" d="M60.22,173.51a17,17,0,0,0-13.68-.14,6.74,6.74,0,0,0-2.86,8.28c6.5-2.73,10.79-1.25,14.4.18,2.64,1.06,4.48,2,6.06,4.92.89-.67,3.48-2.82,3.46-5.72C67.56,176.9,62.23,174.44,60.22,173.51Z"/><g class="cls-26"><path class="cls-27" d="M188.3,474.63c1.79,4.94,13.95,5.4,19,3.92,7.08-2.05,14.32-8.56,15.07-16,0,0,2.08-20.65,2.57-25.71l-25.65,2.3c-1.06,7.73-7,20.39-9.69,27.07h0a29.75,29.75,0,0,0-1.09,3.13s-.19.7-.21.8A8.29,8.29,0,0,0,188.3,474.63Z"/></g><g class="cls-28"><path class="cls-29" d="M213.53,464.27c-3.55,1.24-5.43-2.54-11.62-3.56-5.3-.91-8.61,1.11-10.4.86,2.87-6.82,4.87-10.92,6.65-17.71,1.82,4,4.49,5.2,8.1,6,4.24.93,7.68.92,12.92.44C220.32,456.94,216.5,463.22,213.53,464.27Z"/></g><path class="cls-30" d="M222.39,462.53c-.74,7.47-8,14-15.08,16-5.06,1.46-17.22,1-19-3.94-.64-1.75-.14-4.14.21-5.36.27,7.14,14.61,7,19.3,5.6,6.48-1.86,13.14-7.5,14.75-14.17C222.53,461.28,222.44,461.9,222.39,462.53Z"/><path class="cls-31" d="M101.73,430.13a41.92,41.92,0,0,0,21-9.71,66.91,66.91,0,0,0,11.26-.07c7.25-.47,6.34-4.19,7-10a32.29,32.29,0,0,0,.09-5.58.34.34,0,0,0,0-.13,41.76,41.76,0,0,0-.44-4.27s0-.06,0-.09c-10.38,2.18-18.92-.08-26.76-6.12a32.44,32.44,0,0,1-6.38,10.47v0c-5,4.24-21.4,13.09-24.72,14.64C74.82,429.67,89.54,431.89,101.73,430.13Z"/><g class="cls-32"><path class="cls-33" d="M80.75,422.77a0,0,0,0,0,0,0c2,4.77,14,5,20.91,4,4.15-.59,12.26-2.47,21-9.74A67.5,67.5,0,0,0,134,417c6.84-.46,6.41-3.78,6.87-9,0-.21.32-3,.25-3.17a.34.34,0,0,0,0-.13,1.51,1.51,0,0,0,0-.6,9.52,9.52,0,0,0-.14-1.56c0-.07-.27-2-.28-2.11s0-.06,0-.09c-10.38,2.18-18.92-.08-26.76-6.12-.18.48-.39.93-.6,1.41v.06a42.57,42.57,0,0,1-2.2,4.3v0a25.79,25.79,0,0,1-3.57,4.67v0c-5,4.24-21.4,13.09-24.72,14.64a13.21,13.21,0,0,0-1.88,3.17C80.8,422.58,80.79,422.68,80.75,422.77Z"/></g><g class="cls-34"><path class="cls-35" d="M84.35,418.48c4.49,3.54,10.4,4.42,15.12,2.17,6.23-3,9.31-17.33,8-16C104.06,408,89.29,415.9,84.35,418.48Z"/></g><path class="cls-36" d="M105.89,283.49c12.92,35.93,13.09,77,6.35,114,7,10.93,21,13.21,29.52,3.22-2.26-35,6.61-45.78,6.37-63.76-.2-11.42-2.81-13.37-3.69-25.25-1.09-14.9,1.86-24.37,5.29-40.58a.24.24,0,0,1,0-.16c8-37.58,10.29-56.79,1.72-67.89-11.78-15.29-43.1-17.38-43.1-17.38A200.57,200.57,0,0,0,105.89,283.49Z"/><path class="cls-37" d="M132.61,276.73c-.07,2.46-.91,4.12-1.23,11.43a152,152,0,0,0,.41,17.32c1.69,19.21,5.54,18.78,6.1,41.74.52,21-5.68,21.25-6,38.91-.26,17.43-14.55,10.25-18.77,6.3-.07,0-.1-.1-.17-.14-.42,2.18-.53,3-.89,5.15,6.65,10.48,20.65,13.55,29.52,3.22-2.25-34.78,6.62-46.16,6.34-63.76-.17-11.42-2.78-13.37-3.7-25.25-1.08-14.89,2-24.48,4.85-38.67.64-1.75.72-2.06.72-2.06,7.4-34.62,9.7-53,3.93-64.36-21.2-7.45-40.38-5.09-50.5,3.36,1.25,19.72,7.57,29.21,13.26,34.23,2.79,2.47,5.46,3.88,8.56,7.74C131.48,260,132.64,269.73,132.61,276.73Z"/><path class="cls-38" d="M126.17,234.28c1,4.93,4.18,8.88,6.65,10.11a5.52,5.52,0,0,1,3.1,3.69c2.52,12,5.74,21.58,9.69,32.78,6.93,19.73,9.68,22.28,16.29,36.38,4.93,10.6,9,20.47,11.22,24.22,1.56,2.6,4,8.63,6.5,15.26,15.46,40.87,18,76.61,19.15,81.48a.18.18,0,0,0,.06.1,5.37,5.37,0,0,0,3.17,3.5,28.35,28.35,0,0,0,22.53-.72,5.19,5.19,0,0,0,2.67-6.27,135,135,0,0,1-5.07-25.62c-1.68-17.94,1.87-20.72-1.59-34.48-8.52-33.85-13.73-24.16-16.36-51.6-2.47-25.87-.57-13.7-4.68-32.45-1.12-4.87-4.48-16.27-4.93-17.56-.85-3-2.89-8.71-2.94-8.88-1.16-4.06-.48-7.31-.33-10.8v0c1.27-16.75,2.42-23.46-8.78-40.59a60.68,60.68,0,0,0-4.86-6.73,155.61,155.61,0,0,1-30.84,1.12c-12,2.47-14.13,1.31-17.47,3.77C123.36,215.49,124.6,226.89,126.17,234.28Z"/><path class="cls-39" d="M179.1,235.61c9.75,14.91,4.33,25.74,9.45,47.77,6,25.87,6.56,25.2,6.34,29.35-.41,7.61-.12,24.18,3.39,30.88,2.7,5.15,7,6,12.81,25.66,7.19,24.31,2.35,20.18,4.88,36s11,27.37,3.3,31.33c-7,3.62-16.47,1.48-20.94-1.48.1.77.2,1.54.3,2.34s.2.81.2.81a5.38,5.38,0,0,0,3.17,3.5,28.35,28.35,0,0,0,22.53-.72,5.19,5.19,0,0,0,2.67-6.27,135,135,0,0,1-5.07-25.62c-1.68-17.94,1.87-20.72-1.59-34.48-8.52-33.85-13.73-24.16-16.36-51.6-2.47-25.87-.57-13.7-4.68-32.45-1.81-7.85-6.71-23.52-7.69-25.93a12.07,12.07,0,0,1-.62-2.59c-.61-3.31.11-8.75.11-8.75,1.27-16.75,2.42-23.46-8.78-40.59a60.68,60.68,0,0,0-4.86-6.73C159.17,216.78,155.6,221,156.3,222.8c.82,2.07,7.09.13,14.18,4.13A24.68,24.68,0,0,1,179.1,235.61Z"/><path class="cls-40" d="M96.69,137.06c6.46,28.41,4.55,35.56,6.57,53.87,1.91,17.33,0,18.52,1.77,22.2,5.63,11.41,20.07,14.91,28,16.86a60,60,0,0,0,37.44-3.07c6-2.63,11.62-5.09,14.33-10.83,3.87-8.62-2.85-17.1-2.85-25.52-.62-7.8,18.45-54.49,18.63-57.16.43-6.28,1.12-10.68-5.82-20.9-8.59-12.73-21.23-21.71-35.31-27.84-9.49-4.15-30.32-12.24-40.87-8.52C104.81,81,98.35,94.53,97.27,97.27,92.72,108.47,94,125.36,96.69,137.06Z"/><path class="cls-41" d="M200.59,133.41c-.65,10.47-19.82,49.7-18.5,58.39,1.14,9.87,6.28,16.41,2.72,24.31-4.19,9-20.88,13.6-30.67,15.16-15.38-35.73-9-75.72,19.29-103.23C182.48,129.84,191.54,131.61,200.59,133.41Z"/><path class="cls-41" d="M127.63,104.83s-6.51-4.2-7.12-4.18-8.65.83-8.65.83L127.45,87Z"/><path class="cls-42" d="M130.92,76.17c-12.51,2.56-18.67,14.52-19.06,25.31,2,.11,6.84-4.81,8.88-4.7a21.42,21.42,0,0,1,8.1-12.21c1-.78.87-2.4,1.19-3.59A32.22,32.22,0,0,0,130.92,76.17Z"/><path class="cls-43" d="M120.74,96.78c2.11,2.26,5.11,5.87,6.89,8,2.28-7.55,3.78-16.1,2.4-23.85C125,84.39,120.82,90.54,120.74,96.78Z"/><path class="cls-41" d="M127.64,104.87a20.06,20.06,0,0,1,3.17-1.44c2.63,3.31,5.12,6.72,7.51,10.27,14.65-14.47,25.16-11.07,29.57-24.8a66.1,66.1,0,0,0-8.42-4.23c-.07.17-.14.38-.21.55-2.28,6-28.17,15.49-28.72,14.8Z"/><path class="cls-44" d="M159.26,85.21c-5.51-10.21-18.8-3.42-31.94-14.61.49,1,1.55,19.34,1.64,20.43.26,3.06-1.33,13.8-1.33,13.8l2.92-4.81A61.19,61.19,0,0,0,159.26,85.21Z"/><g class="cls-45"><path class="cls-46" d="M130.54,100c1.18,1.49,5.26,6.94,7.87,10.75a56.68,56.68,0,0,1,8.7-6.6c7.26-4.46,14.5-5.33,20-15.78-.34-5.22-4.42-9.8-9.92-9.84,1.1,3.07,2.84,1.85,2.11,3.7C157,88.41,149,88.41,130.79,99.81A2.43,2.43,0,0,1,130.54,100Z"/></g><path class="cls-15" d="M159.56,83.37c-7.83,8.87-24.31,2.14-32.35-10.44a14.34,14.34,0,0,1-7.43-5.41c-2.83-4.32-4-9,1.12-9.57-1-3.14-4.35-14.17-2.84-17.1a10,10,0,0,1,4.55-4.27c9.45-5,6.44-10.27,20.75-6.08,3.08.89,10.32,2.91,15.43,9.54C168.77,53.11,165.76,76.45,159.56,83.37Z"/><path class="cls-47" d="M133.94,53.42c-4,4.82-4.31,5.6-2.88,12.91,1.27,6.58,6.81,14.91,9.91,18.85a33,33,0,0,1-13.76-12.25,14.34,14.34,0,0,1-7.43-5.41c-2.83-4.32-4-9,1.12-9.57-.09-.27-.78-2.38-1.5-5.07,3.63-2.45,6.76-4.26,9-5.48,11.64-6.38,16.52-6.76,21-4.55C141.31,44.14,138.13,48.35,133.94,53.42Z"/><path class="cls-20" d="M166.69,39.52c-5.37,9-10.84-1.29-13.32.2-1.14.71-.14,2.85-1.49,5.14-1.19,2-3.49,3-5.35,3.39,1.77-2.08,2.53-4,1.91-4.83-1-1.45-8.43-.88-15.68,9.62a5.2,5.2,0,0,0-.36.52,10.31,10.31,0,0,1-2.69,2.67c-1.31.76-1.84.25-2.3.83-.73.86.12,2.45,1,4.93,1.17,3.13,2,6.8,1.55,7s-2.17-2.37-3.21-4.31c-.94-1.71-2.2-4.23-4-5.12-1.29-.64-3.25-.84-4.13.16a2.36,2.36,0,0,0-.46,1.7,12.56,12.56,0,0,0,9,11.49l.51.85c.12.8.23,1.6.35,2.4-8.57-4-13-11.39-15.81-19.69-11.42-34.2,33.89-51.9,47-22.28A8,8,0,0,0,166.69,39.52Z"/><path class="cls-19" d="M151.25,24c-4.15-1.44-11.31-2.22-21.45,2.73-17,8.3-.09,29.53-.09,29.53-1.31.76-1.84.25-2.3.83-.73.86.12,2.45,1,4.93,1.17,3.13,2,6.8,1.55,7s-2.17-2.37-3.21-4.31c-.94-1.71-2.2-4.23-4-5.12-1.29-.64-3.25-.84-4.13.16a2.36,2.36,0,0,0-.46,1.7,12.56,12.56,0,0,0,9,11.49l.51.85c.12.8.23,1.6.35,2.4-8.57-4-13-11.39-15.81-19.69C102.83,28.27,132.48,10,151.25,24Z"/><path class="cls-15" d="M86.46,217.09c.2.39-2.63,1.67-5.87,5.31-.93,1.06-4.7,5.33-3.62,7a2.61,2.61,0,0,0,2.59.75,4.31,4.31,0,0,0,2.36-1.79c1.75-2.05,5.2-6.34,8.89-7.42-1.63,1.92-3.21,4.14-4.16,5.47-1.65,2.34-2.15,3.35-1.87,4.34a2.44,2.44,0,0,0,1.88,1.68c.25.05.81,0,1.91-1a11.39,11.39,0,0,0,2-2.76,5.94,5.94,0,0,1,.48-.59V228c4.77-6.15,11.06-1.23,20-7.12,2-1.47,4.39-2.71,4.92-5.17.71-3.1-2.68-4.37-1.9-7.79.37-1.66,2-4.22.47-4.93-.55-.38-5.55-.68-6.28-.66a1,1,0,0,1-.24,0,11.12,11.12,0,0,1-3.91-.63.14.14,0,0,0-.07,0c-.81-.25-1.55-.54-2.58-.81-4.84-1.25-10.75-.6-15.7-2.09-3.3-1-4.74-2.34-5.7-1.64-.77.59-.68,2.08-.47,2.81.59,2.25,3.31,3.31,5.61,3.76.9.21,1.37.23,1.39.35s-2.67.43-4.83.78a28.83,28.83,0,0,0-11.14,3.79c-1.59,1.05-5.24,3.32-4.91,5.8a2.12,2.12,0,0,0,.81,1.55c1.67,1.15,4.45-2.06,9.93-3.7,3.35-1,7.08-1.3,7.26-.79s-2.3,1.32-6,3.57a25.52,25.52,0,0,0-6.57,5.44c-1.87,2.22-1.79,3-1.61,3.43.4.92,1.92,1.14,2.7,1.13a5.79,5.79,0,0,0,3.48-1.66c.24-.2,2.31-2.18,2.62-2.4C81.9,218.43,86.23,216.68,86.46,217.09Z"/><path class="cls-48" d="M189.94,175.36s-1,6.74-16.34,1.54-15-14.5-15-14.5,9.81-4.26,20-1.25S189.94,175.36,189.94,175.36Z"/><path class="cls-15" d="M149.46,215.52c17.5-3.16,26-4.51,31.47-21.61,0,0,7.66-21,7.4-22.5s-16.14-19.88-27.07-12.63c-7.6,20.13-4.11,8.17-10.56,31.89-31.76,5.35-26.12,9.09-43.88,11.58a46.53,46.53,0,0,1,2,18.84C147.57,216.21,149.46,215.52,149.46,215.52Z"/><path class="cls-49" d="M93.48,225.84c4.51-2.64,10.07,0,17.54-4.91.4-.29,4.34-.72,6.47-.94,8.72-.79,42.23-5.06,50.94-9.35-15.6,3.44-24.26,3.69-29.9,4.35,0,0-21.55,2.53-24.26-.67,0,0-3.6-6-7.44-12.06,3.43,11.25,2.3,15.18.44,16.57-1.13.85-2.65.86-7.76,3.15-.69.3-1.89,1-3.51,1.91A10.68,10.68,0,0,0,93.48,225.84Z"/><path class="cls-50" d="M188.34,171.4c.26,1.48-7.42,22.5-7.42,22.5,1.6-9.27-.9-17.82-5.86-20.27-6.27-3.09-18.87,2.43-24.38,17,5.77-20.95,2.91-12.16,10.6-31.89C172.21,151.53,188,169.93,188.34,171.4Z"/><g class="cls-51"><path class="cls-52" d="M158.65,162.4c5.89-2.68,11.77-2.82,21.07,2.87,5.23,3.2,8.87,8.19,10.23,10.07,3.72-9.84,15.38-44.62,9.45-54.48-4.24-7.25-13-10.71-18.59-9.08-6.66,1.16-10.67,6.35-11.49,7.47C163,127.35,166.84,135.57,158.65,162.4Z"/></g></svg>