<svg id="Layer_1" data-name="Layer 1" xmlns="http://www.w3.org/2000/svg" xmlns:xlink="http://www.w3.org/1999/xlink" viewBox="0 0 291.72 480.53"><defs><style>.cls-1{mask:url(#mask);filter:url(#luminosity-noclip-4);}.cls-2,.cls-4,.cls-6{mix-blend-mode:multiply;}.cls-2{fill:url(#linear-gradient);}.cls-3{mask:url(#mask-2);filter:url(#luminosity-noclip-5);}.cls-4{fill:url(#linear-gradient-2);}.cls-5{mask:url(#mask-3);filter:url(#luminosity-noclip-6);}.cls-6{fill:url(#linear-gradient-3);}.cls-7{fill:#003f75;}.cls-8{fill:url(#linear-gradient-4);}.cls-9{mask:url(#mask-4);}.cls-10{fill:url(#linear-gradient-5);}.cls-11{fill:#aad9f0;}.cls-12{fill:url(#linear-gradient-6);}.cls-13{mask:url(#mask-5);}.cls-14{fill:url(#linear-gradient-7);}.cls-15{fill:#ffcfcd;}.cls-16{fill:url(#New_Gradient_Swatch_copy_11);}.cls-17{fill:#f9b3b5;}.cls-18{fill:url(#linear-gradient-8);}.cls-19{fill:url(#New_Gradient_Swatch_copy_9);}.cls-20{fill:url(#New_Gradient_Swatch_copy_9-2);}.cls-21{fill:#fff;}.cls-22{fill:url(#linear-gradient-9);}.cls-23{fill:url(#New_Gradient_Swatch_copy_9-3);}.cls-24{fill:url(#New_Gradient_Swatch_copy_11-2);}.cls-25{fill:url(#New_Gradient_Swatch_copy_11-3);}.cls-26{fill:url(#New_Gradient_Swatch_copy_11-4);}.cls-27{fill:url(#linear-gradient-10);}.cls-28{fill:#95115a;}.cls-29{fill:url(#linear-gradient-11);}.cls-30{fill:url(#New_Gradient_Swatch_copy_21);}.cls-31{fill:url(#New_Gradient_Swatch_copy_21-2);}.cls-32{mask:url(#mask-6);}.cls-33{fill:url(#linear-gradient-12);}.cls-34{fill:#850f53;}.cls-35{fill:url(#New_Gradient_Swatch_copy_11-5);}.cls-36{fill:url(#New_Gradient_Swatch_copy_11-6);}.cls-37{fill:url(#linear-gradient-13);}.cls-38{fill:url(#New_Gradient_Swatch_copy_9-4);}.cls-39{filter:url(#luminosity-noclip-3);}.cls-40{filter:url(#luminosity-noclip-2);}.cls-41{filter:url(#luminosity-noclip);}</style><filter id="luminosity-noclip" x="85.23" y="-7873.67" width="53.12" height="32766" filterUnits="userSpaceOnUse" color-interpolation-filters="sRGB"><feFlood flood-color="#fff" result="bg"/><feBlend in="SourceGraphic" in2="bg"/></filter><mask id="mask" x="85.23" y="-7873.67" width="53.12" height="32766" maskUnits="userSpaceOnUse"><g class="cls-41"/></mask><linearGradient id="linear-gradient" x1="101.43" y1="409.23" x2="128.47" y2="87.26" gradientUnits="userSpaceOnUse"><stop offset="0" stop-color="#fff"/><stop offset="0.77" stop-color="#fefefe"/><stop offset="1" stop-color="#fff"/></linearGradient><filter id="luminosity-noclip-2" x="94.56" y="-7873.67" width="88.72" height="32766" filterUnits="userSpaceOnUse" color-interpolation-filters="sRGB"><feFlood flood-color="#fff" result="bg"/><feBlend in="SourceGraphic" in2="bg"/></filter><mask id="mask-2" x="94.56" y="-7873.67" width="88.72" height="32766" maskUnits="userSpaceOnUse"><g class="cls-40"/></mask><linearGradient id="linear-gradient-2" x1="130.67" y1="411.69" x2="157.71" y2="89.72" xlink:href="#linear-gradient"/><filter id="luminosity-noclip-3" x="123.87" y="-7873.67" width="25.29" height="32766" filterUnits="userSpaceOnUse" color-interpolation-filters="sRGB"><feFlood flood-color="#fff" result="bg"/><feBlend in="SourceGraphic" in2="bg"/></filter><mask id="mask-3" x="123.87" y="-7873.67" width="25.29" height="32766" maskUnits="userSpaceOnUse"><g class="cls-39"/></mask><linearGradient id="linear-gradient-3" x1="-12438.4" y1="938.09" x2="-12446.06" y2="954.98" gradientTransform="matrix(-0.99, 0.14, 0.14, 0.99, -12314.96, 841.55)" xlink:href="#linear-gradient"/><linearGradient id="linear-gradient-4" x1="73.62" y1="435.12" x2="131.35" y2="435.12" gradientUnits="userSpaceOnUse"><stop offset="0" stop-color="#068be5"/><stop offset="1" stop-color="#005995"/></linearGradient><filter id="luminosity-noclip-4" x="85.23" y="192.52" width="53.12" height="237.08" filterUnits="userSpaceOnUse" color-interpolation-filters="sRGB"><feFlood flood-color="#fff" result="bg"/><feBlend in="SourceGraphic" in2="bg"/></filter><mask id="mask-4" x="85.23" y="192.52" width="53.12" height="237.08" maskUnits="userSpaceOnUse"><g class="cls-1"><path class="cls-2" d="M135.26,271.9C131,303.37,127,314,130.91,335.51c0,.05.05.16.05.21,1,5.19,4.13,13.33,3.73,23.18-.36,15.7-7,30.22-3.58,63.35-8.08,11.2-21.77,8.87-28.77-2,.52-2.61,1.26-30.2-.93-56.88A406.47,406.47,0,0,0,91.3,300.57c-12.76-51.22-1.66-103.95-.37-108a103.92,103.92,0,0,1,26.86,9.7C138.11,213.42,142.11,224.51,135.26,271.9Z"/></g></mask><linearGradient id="linear-gradient-5" x1="101.43" y1="409.23" x2="128.47" y2="87.26" gradientUnits="userSpaceOnUse"><stop offset="0" stop-color="#c1e3f4"/><stop offset="0.77" stop-color="#e0f1f9"/><stop offset="1" stop-color="#e9f5fb"/></linearGradient><linearGradient id="linear-gradient-6" x1="150.66" y1="455.48" x2="181.88" y2="455.48" xlink:href="#linear-gradient-4"/><filter id="luminosity-noclip-5" x="94.56" y="191.25" width="88.72" height="251.5" filterUnits="userSpaceOnUse" color-interpolation-filters="sRGB"><feFlood flood-color="#fff" result="bg"/><feBlend in="SourceGraphic" in2="bg"/></filter><mask id="mask-5" x="94.56" y="191.25" width="88.72" height="251.5" maskUnits="userSpaceOnUse"><g class="cls-3"><path class="cls-4" d="M174,442.37c-5.58.89-12.43.35-17.06-3-.44-.29-2.17-1.93-2.17-2.33h-.06a6.21,6.21,0,0,1-1-3.42c0-81.3-21.36-154.76-31.06-193.7-9.59.68-23.59-10-27.42-38.57q-.39-2.71-.63-5.75c23.39-5,56.51-9.75,72.17,9.9.52.34,3,3.92,4.51,8.24,8.61,22.5.71,78.26,5.29,117.17V331c.94,10.37,2.34,10.94,3.84,24.63,2.9,28.51-1.92,36,2.8,73.26C184.05,435.37,179.9,441.43,174,442.37Z"/></g></mask><linearGradient id="linear-gradient-7" x1="130.67" y1="411.69" x2="157.71" y2="89.72" xlink:href="#linear-gradient-5"/><linearGradient id="New_Gradient_Swatch_copy_11" x1="24.35" y1="107.66" x2="8.8" y2="51.71" gradientUnits="userSpaceOnUse"><stop offset="0" stop-color="#ed7d88"/><stop offset="1" stop-color="#ffcfcd"/></linearGradient><linearGradient id="linear-gradient-8" x1="127.3" y1="115.61" x2="17.56" y2="115.18" gradientUnits="userSpaceOnUse"><stop offset="0" stop-color="#95115a"/><stop offset="1" stop-color="#e50670"/></linearGradient><linearGradient id="New_Gradient_Swatch_copy_9" x1="81.08" y1="127.64" x2="131.14" y2="138.48" gradientUnits="userSpaceOnUse"><stop offset="0" stop-color="#95115a"/><stop offset="1" stop-color="#380832"/></linearGradient><linearGradient id="New_Gradient_Swatch_copy_9-2" x1="48.54" y1="130.4" x2="59.88" y2="172.2" xlink:href="#New_Gradient_Swatch_copy_9"/><linearGradient id="linear-gradient-9" x1="123.46" y1="232.42" x2="137.72" y2="30.23" xlink:href="#linear-gradient-8"/><linearGradient id="New_Gradient_Swatch_copy_9-3" x1="120.46" y1="150.04" x2="235.9" y2="264.11" xlink:href="#New_Gradient_Swatch_copy_9"/><linearGradient id="New_Gradient_Swatch_copy_11-2" x1="139.72" y1="53.67" x2="101.34" y2="105.33" xlink:href="#New_Gradient_Swatch_copy_11"/><linearGradient id="New_Gradient_Swatch_copy_11-3" x1="158.75" y1="69.79" x2="251.69" y2="62.12" xlink:href="#New_Gradient_Swatch_copy_11"/><linearGradient id="New_Gradient_Swatch_copy_11-4" x1="401.28" y1="-1560.65" x2="392.98" y2="-1512.53" gradientTransform="matrix(0.97, 0.24, -0.24, 0.97, -622.3, 1440.19)" xlink:href="#New_Gradient_Swatch_copy_11"/><linearGradient id="linear-gradient-10" x1="378.11" y1="-1562.14" x2="435.8" y2="-1487.38" gradientTransform="matrix(0.97, 0.24, -0.24, 0.97, -622.3, 1440.19)" gradientUnits="userSpaceOnUse"><stop offset="0" stop-color="#a14c50"/><stop offset="1" stop-color="#c29ea9"/></linearGradient><linearGradient id="linear-gradient-11" x1="-12035.77" y1="1656.8" x2="-12019.28" y2="1656.8" gradientTransform="matrix(-0.97, 0.26, 0.26, 0.97, -11943.88, 1550.3)" gradientUnits="userSpaceOnUse"><stop offset="0" stop-color="#c1e3f4"/><stop offset="1" stop-color="#e9f5fb"/></linearGradient><linearGradient id="New_Gradient_Swatch_copy_21" x1="-12042.83" y1="1662.16" x2="-12073.83" y2="1667.67" gradientTransform="matrix(-0.97, 0.26, 0.26, 0.97, -11943.88, 1550.3)" gradientUnits="userSpaceOnUse"><stop offset="0" stop-color="#70bfe6"/><stop offset="1" stop-color="#aad9f0"/></linearGradient><linearGradient id="New_Gradient_Swatch_copy_21-2" x1="123.91" y1="90.84" x2="122.37" y2="94.24" gradientTransform="matrix(1, 0, 0, 1, 0, 0)" xlink:href="#New_Gradient_Swatch_copy_21"/><filter id="luminosity-noclip-6" x="123.87" y="66.71" width="25.29" height="33.23" filterUnits="userSpaceOnUse" color-interpolation-filters="sRGB"><feFlood flood-color="#fff" result="bg"/><feBlend in="SourceGraphic" in2="bg"/></filter><mask id="mask-6" x="123.87" y="66.71" width="25.29" height="33.23" maskUnits="userSpaceOnUse"><g class="cls-5"><path class="cls-6" d="M123.87,89.23c3.6,3.62,6.77,6.8,10.69,10.71,8.76-13.43,13.71-15.29,14.6-25.67-.79-4-3.6-6.32-7.53-7.56a9.75,9.75,0,0,1-1,6.59C139.36,75.59,133.15,81.78,123.87,89.23Z"/></g></mask><linearGradient id="linear-gradient-12" x1="-12438.4" y1="938.09" x2="-12446.06" y2="954.98" gradientTransform="matrix(-0.99, 0.14, 0.14, 0.99, -12314.96, 841.55)" xlink:href="#linear-gradient-5"/><linearGradient id="New_Gradient_Swatch_copy_11-5" x1="245.35" y1="94.25" x2="296.76" y2="45.87" xlink:href="#New_Gradient_Swatch_copy_11"/><linearGradient id="New_Gradient_Swatch_copy_11-6" x1="245.71" y1="94.64" x2="297.12" y2="46.25" xlink:href="#New_Gradient_Swatch_copy_11"/><linearGradient id="linear-gradient-13" x1="196.02" y1="237.16" x2="210.24" y2="35.43" xlink:href="#linear-gradient-8"/><linearGradient id="New_Gradient_Swatch_copy_9-4" x1="215.53" y1="113.5" x2="160.88" y2="47.83" xlink:href="#New_Gradient_Swatch_copy_9"/></defs><title>manPhase5</title><path class="cls-7" d="M94.27,455.65c4-.81,11.78-3.16,19.92-11.18a58.75,58.75,0,0,0,10.91-.59c7-.83,6-4.7,6.38-10.84a35.68,35.68,0,0,0-.15-5.88c.06-.87-.75-5.16-.65-4.7-10,2.77-18.34.78-26.2-5.22-1.25,3.9-3.26,8.37-5.75,11.32v0c-4.66,4.7-20.19,14.77-23.35,16.55C68.16,456.4,82.51,458.06,94.27,455.65Z"/><path class="cls-8" d="M73.64,448.9c2.19,4.92,13.82,4.59,20.44,3.2,4-.8,11.79-3.15,20-11.21a60.49,60.49,0,0,0,10.92-.55c6.61-.79,6.06-4.27,6.28-9.83a29.1,29.1,0,0,0,.08-3.49,16,16,0,0,0-.24-2.26c0-.1-.39-2.3-.39-2.3-10,2.77-18.34.78-26.2-5.22,0,.12-.53,1.55-.53,1.58a48.31,48.31,0,0,1-2,4.62v0a27.14,27.14,0,0,1-3.26,5.08v0a55,55,0,0,1-10.83,6.89c-4,1.89-8.38,3.4-10.69,6.48a27.39,27.39,0,0,0-3,5.2C73.45,449.08,73.64,448.9,73.64,448.9Z"/><path class="cls-7" d="M102,423.44v0c6.51,11.67,20.63,13.87,29.34,3.68a41.44,41.44,0,0,0-.65-4.7c-10,2.77-18.34.78-26.2-5.22A45.79,45.79,0,0,1,102,423.44Z"/><g class="cls-9"><path class="cls-10" d="M135.26,271.9C131,303.37,127,314,130.91,335.51c0,.05.05.16.05.21,1,5.19,4.13,13.33,3.73,23.18-.36,15.7-7,30.22-3.58,63.35-8.08,11.2-21.77,8.87-28.77-2,.52-2.61,1.26-30.2-.93-56.88A406.47,406.47,0,0,0,91.3,300.57c-12.76-51.22-1.66-103.95-.37-108a103.92,103.92,0,0,1,26.86,9.7C138.11,213.42,142.11,224.51,135.26,271.9Z"/></g><path class="cls-11" d="M134.69,358.9c-.36,15.7-7,30.22-3.58,63.35-8.08,11.2-21.77,8.87-28.77-2a7.13,7.13,0,0,0,.1-1.4h.06v.05c10.57,4.82,18.76,1.3,18.56-11.46-.37-18.61,5.6-19.08,4.2-41.21-1.77-28.47-8.77-29.92-8.77-61.91,0-33.85-9-34.42-8.24-58.63.42-13.74,3-21.36-2.28-26.6-4.62-4.61-11.87-7-17.73-6.22,0,0,.21-7.42.26-7.42,5.38-35,46.21,9.88,41.37,47.6,1.76,6.22,3.63,12.6,5.39,18.87C131,303.37,127,314,130.91,335.51c0,.05.05.16.05.21C132,340.9,134.69,347.22,134.69,358.9Z"/><path class="cls-7" d="M151.65,475.78c1.58,3.73,30.23,13.63,30.23-14.65V435.38s-24.09-.2-24.46,6.16C156.81,455.3,146.45,465.42,151.65,475.78Z"/><path class="cls-12" d="M151.65,470.83c1.58,3.73,30.23,13.63,30.23-14.65v-20.8s-24.09-.2-24.46,6.16C156.29,456.38,147.81,463.53,151.65,470.83Z"/><path class="cls-7" d="M157,445.18c7.64,4.14,16.81,4,24.93-1.62v-8.18a34.26,34.26,0,0,1-25.27,1.7A15.43,15.43,0,0,1,157,445.18Z"/><g class="cls-13"><path class="cls-14" d="M174,442.37c-5.58.89-12.43.35-17.06-3-.44-.29-2.17-1.93-2.17-2.33h-.06a6.21,6.21,0,0,1-1-3.42c0-81.3-21.36-154.76-31.06-193.7-9.59.68-23.59-10-27.42-38.57q-.39-2.71-.63-5.75c23.39-5,56.51-9.75,72.17,9.9.52.34,3,3.92,4.51,8.24,8.61,22.5.71,78.26,5.29,117.17V331c.94,10.37,2.34,10.94,3.84,24.63,2.9,28.51-1.92,36,2.8,73.26C184.05,435.37,179.9,441.43,174,442.37Z"/></g><path class="cls-11" d="M174,442.37c-6.47,1-15.44.1-19.18-5.14-.05-.05-.05-.1-.11-.15h.06c2.22.52,16.22,3.11,17.67-14,1.66-19.39-7.51-57.7-10.83-76.47-5.65-31.83-4.67-63.46-4.67-63.46.57-16.8,2.39-28-4.3-39.92-7.1-12.6-19.81-18.92-29.4-22.29,16.54,3.83,33,.62,48-7.16,0-.05.16-.05.21-.1,8.71,26.89-.61,97,6.53,127.48.44,1.9,1.07,4.71,1.35,6.64,4.72,26.27-1.1,42.12,3.84,81.09C184.05,435.37,179.9,441.43,174,442.37Z"/><path class="cls-15" d="M29.58,94.55,13.93,98.42A30.52,30.52,0,0,0,8.6,88.17c-1.51-1.72-2.3-2-3.58-3.49a5.27,5.27,0,0,0-1.28-1.16c-.64-.4-1-.4-1.42-.65s-1.1-.62-1.49-2.34C-.25,75.79-.17,74.72.47,72c.51-2.29.82-3.43,1.63-4.15s1.29-.26,2.3-1.1,1.44-2.41,2.11-3,1.78-.77,4.7.46c-1.74-4.59-6.65-16-4.74-19.06.57-.94.63-1.29,2.15-.69s2,2.87,3.32,6c1.69,4.13,6.68,11.91,9.25,16.63.47,0,1,.29,1.4.12,1-.43,1.52-2.12,1.78-2.93.51-1.6.43-3.75,1.17-4.91s2-3.55,3.66-2.42.86,5.41.69,6.38c-.82,4.66.17,9.46-.06,14.18C29.63,81.49,29.45,87.29,29.58,94.55Z"/><path class="cls-16" d="M29.89,77.59c0,.4.17,12.92,0,13.41-.9,2.47-3.77,3.64-5.8,4.22-3.57,1.94-7.87,2.11-10.81-.74a5.9,5.9,0,0,1-.94,0c-1.52-3.36-3.1-5.73-8.59-11,1.77.5,3.16.91,4.3,1.3,1.35.4,2.23.1,3-1.47a2.16,2.16,0,0,0,3-2.42,2.87,2.87,0,0,0,3.55-2.72c.15-.08-.72-2.22-2.71-3.75-2.42-2.84-4.61-6.83-3.32-10.42.59,5,3.28,7.13,5.38,10,.18-1.36,4.22-4.54,3.48-2.78a20,20,0,0,0-1.27,10.94C19.81,87.35,26,84,29.89,77.59Z"/><path class="cls-17" d="M4.4,66.73c.2,1.54.88,4,1.27,5.85a4.37,4.37,0,0,0,1.24,2.25c3.63,3.52,13.41,12-.43.19A4.42,4.42,0,0,1,5,72.11Z"/><path class="cls-17" d="M.47,72C1.34,75.42,1.6,78,4.65,79.84l6.07,3.62C1.7,77.14,2.9,78.72.47,72Z"/><path class="cls-18" d="M109.27,77.05c-.39,1.32-23.43,54.55-24,56.36a245,245,0,0,1-32.18,18c-7.22,3.34-10.85,4.48-14.94,3.56C29.74,153,25.8,142.73,21.48,133c-8-18.43-11.2-40.18-11.2-40.18a19.51,19.51,0,0,0,20.38-6.65c4,11.58,5.18,17.4,15,38.29,19.8-11.59,21.83-22.86,37.76-39.18C86.83,81.75,94.36,71.7,109.27,77.05Z"/><path class="cls-19" d="M86.74,132.64C79,137.31,69,144.06,53.06,151.41c-15.23,7.06-20.68,6.14-31.57-18.38-5.37-12.34-9-26.63-11.17-40,4.17,13,10.32,15.68,14.62,23.15,6.19,10.66,5.26,19.2,6.58,23.25A8.35,8.35,0,0,0,32.73,142c.52.78,5.31,3.9,10.52,4,12,.34,26.54-15.21,32.66-21.77,3.27-3.5,4.9-5.24,6.16-7.45,6.22-10.91,2.24-21.34,6.8-23.33C95.08,90.76,122,108.58,86.74,132.64Z"/><path class="cls-20" d="M45.63,124.5c1.55,5.8,2.43,7.42,3,7.35s1.39-2.92.08-5.12A5.09,5.09,0,0,0,45.63,124.5Z"/><path class="cls-21" d="M30.06,88c-5.22,8.55-22.24,8.6-19.51,3.24,7.61,3.82,16.1-1.76,19.49-6.4C31,85.83,30.75,86.91,30.06,88Z"/><path class="cls-22" d="M180.83,102s-3.88,10.29-3.94,10.94c-12.44,36.29-9.24,42-9.6,47.11-.16,19.34,4,39.94,3.8,59.23-43.19,12-71,3-85.46-6.41,0-.05,4.16-14.38,4.32-19.62.36-12.55,0-26.34.21-26.39a346.64,346.64,0,0,1-6-56.67c-.51-31.57,6.47-33.4,19.76-36.91,14.77-4,31.3-1.58,45.88,1.92,14.46,3.73,26.23,9,29.5,11.4C181.35,88.16,182.18,98.63,180.83,102Z"/><path class="cls-23" d="M173.7,218.68c-.19.33-1.31.73-1.57.88h0c-17.94,9.14-61.35,9.74-83.48-4.69a.11.11,0,0,0-.08-.05c-1.07-.82-3-1.81-2.9-1.95.31-.64,7.16,2.61,13.42,3.52a48.27,48.27,0,0,0,10.09,0c6-.62,25.31-2.64,35.57-15.2,10.79-13.2,6.14-31.41,10.59-51,5.44-23.91,0-24.37,11.83-51.29a38.39,38.39,0,0,1,5.24,9.24c1.47,3.9,2.85,7.64,3,10.13C164.61,163.63,177.12,163.16,173.7,218.68Z"/><path class="cls-24" d="M141.59,65.76c.1,5,1.55,5.55.67,8.92-1.32,5.49-15.75,15.65-20.22,19.08-6.17-7.57-9.64-13.39-8.76-21.36.24-2.13,1.11-5.68.1-7.57a.82.82,0,0,1-.2-.73c.2-.31,1.14-.26,3.37-.51a49.46,49.46,0,0,0,10.68-2.7c7.33-3,8.45-10.3,21.36-13.79C144.44,52.2,141.48,58.93,141.59,65.76Z"/><path class="cls-25" d="M141.59,65.76c.1,5,1.55,5.55.67,8.92-1.32,5.49-15.75,15.65-20.22,19.08-11.89-14.6-8.63-19.52-8.19-25.87.16.88.41,2,.73,3.32,2,8.71,3,13.06,5.18,14.15,4.1,2.07,11-3.06,14.15-6.69a23.14,23.14,0,0,0,2.8-4.2c3.63-7,2.35-19.59,9.91-24.62A28.11,28.11,0,0,0,141.59,65.76Z"/><path class="cls-15" d="M154.43,32.36a25.26,25.26,0,0,1-2.28,4.92c0,1.78-.41,5.56-1.17,7.12-1.29,2.63-2,2.59-4.21,3.21-2.8.79-9.13,2.87-7.6,5.37.82,1.36-3.8,8-13.58,9.76,3.25-.51,3.12-.26.39.56-5.61,2.27-8,2.94-9,3l-1.92.15c-5.39-1.12-6.55.19-10.62-1.77-2.92-8-3.55-17-3.06-25.58.2-3.46,1.93-20,3.39-23.23,8-18,34.39-15.38,43-2.68C153.39,21.46,154.93,30.88,154.43,32.36Z"/><path class="cls-26" d="M150.91,36.56c.46,5.34-1,9.76-3,11.82A9.26,9.26,0,0,1,144,50.84c-1.21.3-1.53,0-2.3.42-1.46.8-1.28,2.45-2.55,4.53-.67,1.1-1.54,1.59-2.89,3-1.54,1.59-5,3.39-8.83,4.85-1.43.74-8.79,1.79-10.6,2,1-2,3.58-6.9,3.55-9.11,10.33-2.31,13.24-5.56,13.9-8.19.58-2.32-.58-4.16.17-9.32.82-5.66,4.94-8.46-4.49-20.18a33.27,33.27,0,0,0-11.24-8.93s1.3-2.73,6-5.82,12.82.83,18,10.53A79.92,79.92,0,0,1,150.91,36.56Z"/><path class="cls-27" d="M155,33.83c.58-8.08-1.58-18.9-6.77-25.08-9.77-11.62-34.9-13.88-44.61,7C100,23.55,101,32.7,101.88,32.71c.27,0,.37-1.44.7-3,1.71-8.29,7.59-14.44,13.26-15.25,3.06-.44,5.29,2.41,9.28,2.34,8.14-.15,4.56-.23,12.17,9.73a14.41,14.41,0,0,1,1.88,2.78c1.08,2.52-.18,4.77-1.13,8.16-2,7.17.65,8.64-1.77,12.73-1.6,2.69-4,4.1-6.07,5.35-2.46,1.46-4.68,2.77-7.23,2.13a7.29,7.29,0,0,1-4.15-3.2,9.61,9.61,0,0,0-11.8-5c-1.19.39-1.67.83-2.54.7-1.62-.24-2.7-2.15-3.39-3.84-.08,7.26.47,4.94,1,10.12.49,4.89-.19,7.35,4.39,9.67s9.42,1.71,12,1.33c4.57-.64,7.75-2.32,14.16-5.68,6.44-3.91,7.13-6.22,7.47-10.78.19-2.55,1.61-11.61,3.76-13a4.11,4.11,0,0,1,4.53.31c2.45,1.94,1,6.48.91,6.88-.65,2-1.56,2.56-3,4.74A25.05,25.05,0,0,0,143,57.34a9.18,9.18,0,0,0,10.41-9.22,8.51,8.51,0,0,0,5-7.56A8.75,8.75,0,0,0,155,33.83Z"/><path class="cls-15" d="M105.53,53.4c.6-1.88,3.12-2.35,4.47-2.31,2.35.07,6.59,2.76,6.12,5.13a3.33,3.33,0,0,1-3.64,2.41c-1.21-.37-1.15-2-2.41-2.29s-1.9,1.11-3,.79S105.07,54.87,105.53,53.4Z"/><path class="cls-28" d="M122,93.75s-11.14-2.18-11.64-2-7,2.61-7,2.61l9.85-15.55Z"/><path class="cls-29" d="M113.69,68.94c-10.93,5.17-10.37,15.58-10.35,25.39a15.14,15.14,0,0,1,6.39-5.9A31.56,31.56,0,0,1,114,73.16,27.07,27.07,0,0,1,113.69,68.94Z"/><path class="cls-30" d="M109.73,88.43c2.26,1.43,10.33,3.89,12.3,5.32a65.3,65.3,0,0,1-8-20.59C110.53,77.13,108.42,83.2,109.73,88.43Z"/><path class="cls-28" d="M149.78,75.2c.06,12.8-7.28,12.17-14.89,27.12-3.5-3.34-7-6.75-10.36-10.17a14.45,14.45,0,0,0-2.5,1.6l1.83-4.5c.51.47,15.19-10.11,17.88-15.81C144.49,74,147.19,74.58,149.78,75.2Z"/><polygon class="cls-31" points="123.87 89.23 122.03 93.75 125.16 89.8 123.87 89.23"/><g class="cls-32"><path class="cls-33" d="M123.87,89.23c3.6,3.62,6.77,6.8,10.69,10.71,8.76-13.43,13.71-15.29,14.6-25.67-.79-4-3.6-6.32-7.53-7.56a9.75,9.75,0,0,1-1,6.59C139.36,75.59,133.15,81.78,123.87,89.23Z"/></g><path class="cls-34" d="M245.09,78.66c8.41-5.89,16.46,7.15,16.37,13.36a7.62,7.62,0,0,1-3.14,6.34c-7.23-5.25-10.66,2.62-13.11-2.9C243.24,91,240.19,85.55,245.09,78.66Z"/><path class="cls-15" d="M291.11,71.2a7.37,7.37,0,0,1-2.26,2.66,33.61,33.61,0,0,1-5.17,3.94c-4.47,2.51-8.75,2.23-8.74,2.46s3.74,1.12,7.76-.37C287,78.31,289.08,75,290,75.58c.53.37.17,1.9-.24,3-1.42,3.61-4.84,5.3-9.73,7.63a48.8,48.8,0,0,1-16.75,4.68,51.88,51.88,0,0,1-6.42,7.65c-5.22,4.6-8.36.58-11.1-3.16h0c-3.42-4.88-4.08-10-.69-14.45,3.83-5,1.74-6.06,4.43-10.34,1.43-2.28,2.91-4.62,5.79-6.41,2.65-1.64,3.61-1,6.28-3,2.94-2.12,3.71-4.27,5-3.93s2.37,3.27,1.84,4.92c-.91,3.31-7.38,4.72-7.38,5.06s9.6-1.29,15.64-5.79a35.92,35.92,0,0,0,4.8-4.32c1.88-2.1,2.56-3.51,3.81-3.44A2.22,2.22,0,0,1,287.13,55c.23.61-.38,3.08-1.85,4.55-4,4.49-3.57,4.64-5.79,6.53a32.07,32.07,0,0,1-7.5,4.8c4.82-.93,8.65-2.73,15.14-10.41.91-1.07,2.21-2.7,3.32-2.4.77.21,1.09,1.22,1.11,1.29.44,1.46-.73,3-2.21,4.8-3.25,4-4.88,6.07-5.36,6.47-4.59,3.79-9.51,4.27-9.42,4.61s3.69.39,7.39-1.47c5.5-2.75,7.59-8,9-7.33C291.57,66.77,292.23,68.9,291.11,71.2Z"/><path class="cls-35" d="M263.24,90.85a51.88,51.88,0,0,1-6.42,7.65c-3.37.14-7.74-1.31-11.1-3.16h0c-6.69-9.54-.32-14,1.27-17.67h.08a22.4,22.4,0,0,0-.19,5c.2,2.89,1.17,6,1.84,5.91.41,0,.29-1.2,1.29-2.59s2.81-2.35,3.14-2c.53.5-2.94,3.26-2.21,5.73C251.77,92.53,258.35,94.49,263.24,90.85Z"/><path class="cls-21" d="M245.58,80.08c-1.34,1.52-1.12,3.32-.61,5.29.81,3.14,1.83,7.49,6.64,9.23,2.9,1.05,7.33,1.23,8.13.62a8.33,8.33,0,0,0,1.54-1.79l-1.66,3.08s-9.17,4.31-12.19-.31-6.16-4.18-6.16-7.75.8-5.36,1.36-5.79S244.23,80,245.58,80.08Z"/><path class="cls-36" d="M266.88,76a7.17,7.17,0,0,0-4,0c1.81-3.48,2.42-4.36,2.67-6.68a7,7,0,0,1,1.1-3.13c-3.3,1-5.6,1.24-5.66,1,0,0-.12,8.12-3,11.56-.12.15-.92,1.3-.71,1.52S259,79,261.2,78.24a8.83,8.83,0,0,1,6,.42,11.24,11.24,0,0,1,4.58,4.43C271.68,82.6,270.27,76.94,266.88,76Z"/><path class="cls-37" d="M157.68,77.8c32.61,8,33.09,23.67,63.74,34.62a356.12,356.12,0,0,0,23.67-33.76c-6.82,10.62,3.88,22.45,15.26,17.52-16.74,31.74-19.43,40.86-29.05,44.19-12.84,4.44-40.87-11.34-52.5-18.13-2.16-1.26-6.65-4-11.84-3-8,1.55-12.62,11-14.9,16.85A109,109,0,0,1,157.68,77.8Z"/><path class="cls-38" d="M219,123.29c.13,3.49-3.29-2.3-3.8-8-4.83-3.83-14-12.34-19.14-17.06a79.84,79.84,0,0,0,25.36,14.15S218.81,118.67,219,123.29Z"/></svg>