<?xml version="1.0" encoding="utf-8"?>
<!-- Generator: Adobe Illustrator 23.0.3, SVG Export Plug-In . SVG Version: 6.00 Build 0)  -->
<svg version="1.1" id="Layer_1" xmlns="http://www.w3.org/2000/svg" xmlns:xlink="http://www.w3.org/1999/xlink" x="0px" y="0px"
	 viewBox="0 0 711.6 711.6" style="enable-background:new 0 0 711.6 711.6;" xml:space="preserve">
<style type="text/css">
	.st0{fill:url(#SVGID_1_);}
	.st1{fill:url(#SVGID_2_);}
	.st2{fill:url(#SVGID_3_);}
	.st3{fill:url(#SVGID_4_);}
	.st4{fill:#7B6CE6;}
	.st5{fill:#00A8F0;}
	.st6{fill:#2DD687;}
	.st7{fill:none;stroke:#FCC200;stroke-miterlimit:10;}
	.st8{fill:none;stroke:#00A8F0;stroke-miterlimit:10;}
	.st9{fill:none;stroke:#2DD687;stroke-miterlimit:10;}
	.st10{fill:#FFFFFF;}
	.st11{fill:none;stroke:#7B6CE6;stroke-miterlimit:10;}
	.st12{fill:none;stroke:#FCC200;stroke-width:0.25;stroke-miterlimit:10;}
	.st13{fill:none;stroke:#40BEF4;stroke-width:0.25;stroke-miterlimit:10;}
	.st14{fill:none;stroke:#2DD687;stroke-width:0.25;stroke-miterlimit:10;}
	.st15{fill:none;stroke:#7B6CE6;stroke-width:0.25;stroke-miterlimit:10;}
	.st16{fill:#FCC200;}
	.st17{fill:#FCDA00;}
	.st18{fill:#FFFBF7;}
	.st19{fill-rule:evenodd;clip-rule:evenodd;fill:#FCC200;}
	.st20{fill-rule:evenodd;clip-rule:evenodd;fill:#FCDA00;}
	.st21{fill-rule:evenodd;clip-rule:evenodd;fill:#7B6CE6;}
	.st22{fill-rule:evenodd;clip-rule:evenodd;fill:#00A8F0;}
	.st23{fill-rule:evenodd;clip-rule:evenodd;fill:#2DD687;}
</style>
<g>
	
		<radialGradient id="SVGID_1_" cx="436.2928" cy="500.7866" r="266.273" gradientTransform="matrix(6.123234e-17 -1 -0.823 -5.039422e-17 767.455 791.9485)" gradientUnits="userSpaceOnUse">
		<stop  offset="0" style="stop-color:#FCDA00"/>
		<stop  offset="0.414" style="stop-color:#FDE75C"/>
		<stop  offset="1" style="stop-color:#FFFBE5"/>
	</radialGradient>
	<path class="st0" d="M355.8,89.8C224.7,106.5,130,221.7,137,355.8h218.8V89.8z"/>
	
		<radialGradient id="SVGID_2_" cx="477.6748" cy="271.8807" r="331.425" gradientTransform="matrix(1.431182e-03 1 0.972 -1.391109e-03 89.9546 -121.6375)" gradientUnits="userSpaceOnUse">
		<stop  offset="0" style="stop-color:#00A8F0"/>
		<stop  offset="0.414" style="stop-color:#5CC7F5"/>
		<stop  offset="1" style="stop-color:#E5F6FD"/>
	</radialGradient>
	<path class="st1" d="M355.8,687.4c6.3,0,15.8-0.1,22.1-0.5c173.6-9.2,307-157.4,297.8-331c0,0,0-0.1,0-0.1H355.8V687.4z"/>
	
		<radialGradient id="SVGID_3_" cx="557.8757" cy="398.7248" r="345.589" gradientTransform="matrix(-1 0 0 0.96 911.7526 -26.9851)" gradientUnits="userSpaceOnUse">
		<stop  offset="0" style="stop-color:#00D9B5"/>
		<stop  offset="0.414" style="stop-color:#5CE7D0"/>
		<stop  offset="1" style="stop-color:#E5FBF8"/>
	</radialGradient>
	<path class="st2" d="M9.9,355.8C19.8,542.5,171,687.3,355.8,687.4V355.8H9.9z"/>
	
		<radialGradient id="SVGID_4_" cx="355.2928" cy="351.9288" r="320.352" gradientTransform="matrix(1 0 0 -0.827 7.000000e-02 646.1878)" gradientUnits="userSpaceOnUse">
		<stop  offset="0" style="stop-color:#7B6CE6"/>
		<stop  offset="0.698" style="stop-color:#CDC7F5"/>
		<stop  offset="1" style="stop-color:#F2F0FC"/>
	</radialGradient>
	<path class="st3" d="M675.7,355.8C667.4,199.7,534.1,79.8,378,88c-6.4,0.3-15.9,1-22.2,1.8v266H675.7z"/>
	<path class="st4" d="M462.4,350.2c-3-56.7-49.8-101.1-106.6-101.1v106.8h106.8C462.6,353.9,462.5,352.1,462.4,350.2z"/>
	<path class="st5" d="M355.8,462.6c1.9,0,3.7,0,5.6-0.1c56.7-3,101.1-49.8,101.1-106.6H355.8V462.6z"/>
	<path class="st6" d="M249,355.8c0,1.9,0,3.7,0.1,5.6c3,56.7,49.8,101.1,106.6,101.1V355.8H249z"/>
	<path class="st7" d="M355.8,200.3C278.5,210.2,222,278,226,355.8"/>
	<path class="st8" d="M355.8,549.6c3.7,0,7.4-0.1,11.1-0.3c101.5-5.4,179.5-92,174.1-193.5c0,0,0,0,0,0c0,0,0,0,0-0.1"/>
	<path class="st9" d="M151.7,355.8c5.8,109.2,96,193.8,204.1,193.8"/>
	<circle class="st10" cx="355.8" cy="355.8" r="81.1"/>
	<path class="st11" d="M541,355.8c-4.8-91.3-82.8-161.4-174.1-156.6c-3.7,0.2-7.4,0.6-11.1,1"/>
	<path class="st12" d="M355.8,107.7c-122.3,15.6-210.7,123.1-204.1,248.1"/>
	<path class="st13" d="M355.8,665.1c5.8,0,14.7-0.1,20.6-0.4c162-8.5,286.3-146.8,277.8-308.7c0,0,0-0.1,0-0.1"/>
	<path class="st14" d="M33.2,355.8C42.4,530,183.5,665,355.8,665.1"/>
	<path class="st15" d="M654.2,355.8c-7.7-145.6-132-257.5-277.7-249.8c-6,0.3-14.8,0.9-20.7,1.7"/>
	<path class="st16" d="M355.8,274.7V249c-1.9,0-3.7,0-5.6,0.1C293.5,252.2,249,299,249,355.8h25.7C274.7,311,311,274.7,355.8,274.7z
		"/>
</g>
<g>
	<path class="st5" d="M560.4,486.9c-1.4-0.8-1.9-2.5-1.1-3.9c0,0,0,0,0,0c0.3-0.6,0.9-1.1,1.6-1.3l-2.9-1.7l0.5-0.8l7.3,4.1
		l-0.5,0.8l-0.5-0.3c0.2,0.7,0,1.4-0.3,2.1C563.6,487.2,561.8,487.7,560.4,486.9C560.4,486.9,560.4,486.9,560.4,486.9z M560.9,486.1
		c1,0.6,2.3,0.3,2.9-0.7c0,0,0,0,0,0c0.4-0.6,0.4-1.4,0.1-2.1l-2-1.1c-0.7,0-1.4,0.5-1.8,1.1C559.5,484.2,559.8,485.5,560.9,486.1
		C560.9,486.1,560.9,486.1,560.9,486.1L560.9,486.1z"/>
	<path class="st5" d="M556.6,493.1c-1.4-0.8-1.9-2.7-1-4.1c0.8-1.4,2.7-1.9,4.1-1c1.4,0.8,1.9,2.7,1,4.1c0,0,0,0,0,0
		C559.9,493.5,558.1,493.9,556.6,493.1C556.7,493.1,556.7,493.1,556.6,493.1z M557.1,492.3c1,0.6,2.2,0.2,2.8-0.7
		c0.6-1,0.2-2.2-0.7-2.8c-1-0.6-2.2-0.2-2.8,0.7C555.8,490.4,556.1,491.7,557.1,492.3C557.1,492.3,557.1,492.3,557.1,492.3
		L557.1,492.3z"/>
	<path class="st5" d="M552.7,495.1c-0.5,0.7-0.5,1.4,0,1.7c0.4,0.3,0.8,0.1,1.2-0.3l0.9-0.9c0.6-0.7,1.4-1.1,2.2-0.6
		c0.9,0.6,0.9,1.7,0.2,2.8c-0.6,1-1.6,1.7-2.8,1.1l0.5-0.7c0.6,0.3,1.2,0,1.7-0.8c0.5-0.7,0.5-1.3,0-1.6c-0.3-0.2-0.7-0.2-1.3,0.4
		l-0.8,0.8c-0.5,0.6-1.3,1.1-2.2,0.5c-0.9-0.6-0.9-1.8-0.1-2.9c0.8-1.2,1.8-1.7,3-1.1l-0.5,0.7C554,494,553.3,494.2,552.7,495.1z"/>
	<path class="st5" d="M554.1,502.1l-4.6-3.1l0.5-0.8l4.6,3.1L554.1,502.1z M556.4,502.3c0.3,0.2,0.4,0.6,0.2,0.8c0,0,0,0,0,0
		c-0.2,0.3-0.5,0.4-0.8,0.2c-0.3-0.2-0.4-0.5-0.2-0.8c0,0,0,0,0-0.1C555.7,502.2,556.1,502.1,556.4,502.3
		C556.4,502.3,556.4,502.3,556.4,502.3L556.4,502.3z"/>
	<path class="st5" d="M554.7,506.2l-7-4.9l0.5-0.7l7,4.9L554.7,506.2z"/>
	<path class="st5" d="M545.6,509.1c-1.3-1-1.6-2.8-0.7-4.1c1-1.3,2.8-1.6,4.1-0.7c1.3,1,1.6,2.8,0.7,4.1c0,0,0,0,0,0
		C548.8,509.7,547,510.1,545.6,509.1C545.7,509.1,545.6,509.1,545.6,509.1z M546.2,508.3c0.9,0.6,2.2,0.4,2.8-0.5
		c0.6-0.9,0.4-2.2-0.5-2.8c-0.9-0.6-2.2-0.4-2.8,0.5C545,506.4,545.2,507.6,546.2,508.3C546.1,508.3,546.1,508.3,546.2,508.3
		L546.2,508.3z"/>
	<path class="st5" d="M543.7,516.1l-2.8-5.5l0.5-0.7l6,1.3l-0.6,0.8l-4.8-1.1l2.2,4.3L543.7,516.1z"/>
	<path class="st5" d="M539.6,521.1l-4.3-3.5l0.6-0.7l0.4,0.4c0-0.7,0.2-1.4,0.7-2c1-1.2,2.9-1.4,4.1-0.4c1.2,1,1.4,2.8,0.4,4.1
		c-0.4,0.6-1.1,0.9-1.8,1.1l0.4,0.4L539.6,521.1z M537.2,517.9l1.8,1.4c0.7,0.1,1.5-0.2,1.9-0.8c0.7-0.9,0.6-2.2-0.3-2.9
		c-0.9-0.7-2.2-0.6-2.9,0.3C537.1,516.4,537,517.2,537.2,517.9L537.2,517.9z M541.9,520l0.5-0.7l0.7,1.8l-0.6,0.8L541.9,520z"/>
	<path class="st5" d="M533,525.1l-2.4-2.1l0.6-0.7l2.4,2.1c0.6,0.6,1.6,0.7,2.2,0.1c0.1-0.1,0.1-0.1,0.2-0.2c0.5-0.6,0.6-1.3,0.5-2
		l-2.9-2.6l0.6-0.7l4.2,3.7l-0.6,0.7l-0.5-0.4c0,0.7-0.2,1.5-0.7,2c-0.8,1-2.2,1.2-3.2,0.4C533.2,525.2,533.1,525.2,533,525.1z"/>
	<path class="st5" d="M532.8,528.8l-4.1-3.8l0.6-0.7l4.1,3.8L532.8,528.8z M534.2,531.4l-0.5-2l0.6-0.6l0.6,1.9L534.2,531.4z"/>
	<path class="st5" d="M524,530.9c-0.6,0.6-0.8,1.3-0.4,1.7c0.3,0.3,0.8,0.3,1.2-0.1l1-0.8c0.8-0.5,1.6-0.8,2.2-0.1
		c0.7,0.7,0.5,1.8-0.4,2.8c-0.8,0.8-1.9,1.3-3,0.5l0.6-0.6c0.6,0.4,1.2,0.2,1.8-0.4c0.6-0.6,0.7-1.2,0.3-1.5
		c-0.3-0.3-0.7-0.3-1.3,0.2l-0.9,0.7c-0.6,0.6-1.6,0.7-2.3,0.1c-0.8-0.8-0.5-1.9,0.4-2.9c1-1,2.1-1.3,3.2-0.5l-0.6,0.6
		C525.4,530.1,524.7,530.2,524,530.9z"/>
	<path class="st5" d="M518.2,535.9c0.2-0.4,0.4-0.7,0.7-1c1-1,2-0.9,3,0.2l1.9,2l1-1l0.5,0.6l-1,1l1.4,1.5l-0.7,0.6l-1.4-1.5
		l-1.5,1.5l-0.5-0.6l1.5-1.5l-1.9-2c-0.7-0.7-1.2-0.7-1.8-0.1c-0.2,0.2-0.4,0.5-0.6,0.8L518.2,535.9z"/>
	<path class="st5" d="M517.2,544.4l-3.8-4.1l0.7-0.6l0.4,0.4c0.1-0.7,0.4-1.4,0.9-1.9c1.2-1.1,3.1-1,4.1,0.3c1,1.2,1,2.9-0.1,4
		c-0.5,0.5-1.2,0.8-1.9,0.8l0.4,0.4L517.2,544.4z M515.2,540.9l1.6,1.7c0.7,0.2,1.5,0,2-0.6c0.8-0.8,0.9-2.1,0.1-2.9
		s-2.1-0.9-2.9-0.1C515.3,539.4,515,540.2,515.2,540.9L515.2,540.9z"/>
	<path class="st5" d="M513.4,547.9l-0.6-0.6c0.7-0.6,1-1.5,0.8-2.3l-2.4-2.7l0.7-0.6l3.7,4.2l-0.7,0.6l-0.6-0.7
		C514.4,546.5,514.1,547.3,513.4,547.9z"/>
	<path class="st5" d="M505.9,546.9c0.2-0.3,0.5-0.7,0.8-0.9c1-0.9,2-0.7,3,0.4l1.8,2.1l1.1-0.9l0.5,0.6l-1.1,0.9l1.3,1.6l-0.7,0.6
		l-1.3-1.6l-1.6,1.4l-0.5-0.6l1.6-1.4l-1.8-2.1c-0.6-0.7-1.2-0.8-1.8-0.3c-0.2,0.2-0.4,0.5-0.6,0.8L505.9,546.9z"/>
	<path class="st5" d="M504.3,555.3l-3.5-4.3l0.7-0.6l0.4,0.5c0.1-0.7,0.5-1.4,1.1-1.9c1-0.8,2.4-0.7,3.3,0.2
		c0.1,0.1,0.1,0.2,0.2,0.2l2,2.5l-0.7,0.6l-2-2.4c-0.5-0.7-1.4-1-2.2-0.5c-0.1,0-0.2,0.1-0.2,0.2c-0.6,0.5-0.8,1.2-0.8,1.9l2.4,3
		L504.3,555.3z"/>
	<path class="st5" d="M496.4,557.8c-1-1.3-0.8-3.1,0.5-4c0,0,0,0,0,0c0.6-0.4,1.3-0.7,2-0.6l-2-2.7l0.7-0.5l5,6.7l-0.7,0.5l-0.4-0.5
		c-0.1,0.7-0.5,1.3-1.1,1.8C499.1,559.4,497.3,559.1,496.4,557.8C496.4,557.8,496.4,557.8,496.4,557.8z M497.1,557.3
		c0.7,0.9,2,1.1,2.9,0.4c0,0,0,0,0,0c0.6-0.4,0.9-1.1,0.9-1.9l-1.4-1.8c-0.7-0.3-1.5-0.1-2.1,0.3C496.6,555,496.4,556.3,497.1,557.3
		C497.1,557.3,497.1,557.3,497.1,557.3L497.1,557.3z"/>
	<path class="st5" d="M492.5,564l-3.2-4.5l0.7-0.5l0.4,0.5c0.1-0.7,0.6-1.4,1.2-1.8c1-0.8,2.5-0.6,3.2,0.4c0.1,0.1,0.1,0.2,0.2,0.3
		l1.8,2.6l-0.7,0.5l-1.8-2.5c-0.4-0.8-1.4-1-2.1-0.6c-0.1,0-0.2,0.1-0.2,0.2c-0.6,0.4-0.9,1.1-0.9,1.9l2.2,3.2L492.5,564z
		 M496.8,563.5c0.4,0.5,0.3,1.3-0.2,1.7c-0.5,0.4-1.3,0.3-1.7-0.2c-0.4-0.5-0.3-1.3,0.2-1.7c0,0,0,0,0,0
		C495.6,562.9,496.4,563,496.8,563.5C496.8,563.5,496.8,563.5,496.8,563.5z M496.4,563.9c-0.2-0.3-0.6-0.4-0.9-0.2c0,0,0,0,0,0
		c-0.3,0.2-0.4,0.6-0.1,0.9c0.2,0.3,0.6,0.4,0.9,0.2C496.5,564.6,496.6,564.2,496.4,563.9C496.4,563.9,496.4,563.9,496.4,563.9
		L496.4,563.9z"/>
</g>
<g>
	<path class="st6" d="M219.2,579.5l0.4-0.8c0.8,0.4,1.7,0.4,2.5,0l1.8-3.2l0.8,0.5l-2.8,4.8l-0.8-0.5l0.5-0.8
		C220.8,580,220,579.9,219.2,579.5z"/>
	<path class="st6" d="M214.9,573.5c0.8-1.4,2.6-1.9,4-1.1c1.4,0.8,1.9,2.6,1.1,4c-0.8,1.4-2.6,1.9-4,1.1c0,0,0,0,0,0
		C214.5,576.8,214,575,214.9,573.5C214.8,573.6,214.9,573.6,214.9,573.5z M215.7,574c-0.6,1-0.2,2.2,0.8,2.8c1,0.6,2.2,0.2,2.8-0.8
		c0.5-1,0.2-2.2-0.7-2.8C217.5,572.7,216.3,573,215.7,574C215.7,574,215.7,574,215.7,574L215.7,574z"/>
	<path class="st6" d="M208.7,572.3l5.2-1.8l-2.9-1.8l0.4-0.7l4.1,2.6l-0.2,0.4l-5.3,1.8l2.9,1.8l-0.4,0.7l-4-2.5L208.7,572.3z"/>
	<path class="st6" d="M202.5,568.8l5.3-3.2l0.7,0.5l-0.9,6.1l-0.8-0.5l0.7-4.8l-4.2,2.5L202.5,568.8z"/>
	<path class="st6" d="M198.7,562.8c0.9-1.3,2.8-1.7,4.1-0.8c1.3,0.9,1.7,2.8,0.8,4.1c-0.9,1.3-2.8,1.7-4.1,0.8c0,0,0,0,0,0
		C198.1,566,197.8,564.2,198.7,562.8C198.7,562.8,198.7,562.8,198.7,562.8z M199.5,563.3c-0.6,0.9-0.4,2.2,0.6,2.8s2.2,0.4,2.8-0.6
		c0.6-0.9,0.4-2.2-0.5-2.8C201.4,562.1,200.1,562.3,199.5,563.3C199.5,563.3,199.5,563.3,199.5,563.3z"/>
	<path class="st6" d="M194.6,565.8c-0.2,0.3-0.6,0.3-0.9,0.1c0,0,0,0,0,0c-0.3-0.2-0.3-0.6-0.1-0.9c0.2-0.3,0.6-0.3,0.9-0.1
		C194.7,565.2,194.8,565.5,194.6,565.8z M198.6,558.5c0.9-1.3,1.8-1.6,3.1-0.6l-0.4,0.7c-0.8-0.5-1.3-0.4-1.9,0.4l-3.7,5l-0.7-0.5
		L198.6,558.5z"/>
	<path class="st6" d="M189.3,561.8c-0.2,0.3-0.6,0.3-0.8,0.1c0,0,0,0,0,0c-0.3-0.2-0.3-0.6-0.1-0.8s0.6-0.3,0.8-0.1c0,0,0,0,0,0
		C189.4,561.2,189.5,561.6,189.3,561.8C189.3,561.8,189.3,561.8,189.3,561.8z M189.7,559.5l3.4-4.4l0.7,0.6l-3.4,4.4L189.7,559.5z"
		/>
	<path class="st6" d="M185.3,553l2-2.5l0.7,0.6l-2,2.5c-0.6,0.6-0.6,1.6,0,2.2c0.1,0.1,0.1,0.1,0.2,0.2c0.6,0.4,1.3,0.6,2,0.4
		l2.4-3.1l0.7,0.6l-3.5,4.3l-0.7-0.6l0.4-0.5c-0.7,0.1-1.5-0.2-2-0.6c-1-0.8-1.2-2.2-0.5-3.2C185.2,553.2,185.3,553.1,185.3,553z"/>
	<path class="st6" d="M180,548c1-1.3,2.9-1.4,4.2-0.4c1.3,1,1.4,2.9,0.4,4.2c-1,1.3-2.9,1.4-4.2,0.4c0,0,0,0,0,0
		C179.1,551.1,178.9,549.3,180,548C179.9,548,179.9,548,180,548z M180.7,548.6c-0.7,0.9-0.6,2.2,0.3,2.9c0.9,0.7,2.2,0.6,2.9-0.3
		c0.7-0.9,0.6-2.1-0.3-2.8C182.7,547.5,181.4,547.7,180.7,548.6C180.7,548.5,180.7,548.5,180.7,548.6L180.7,548.6z"/>
	<path class="st6" d="M173.1,545.6l5.7-2.4l0.6,0.6l-1.7,5.9l-0.7-0.6l1.4-4.7l-4.5,1.9L173.1,545.6z"/>
	<path class="st6" d="M168.4,541.2l3.8-4.1l0.7,0.6l-0.4,0.4c0.7,0,1.4,0.3,1.9,0.8c1.2,1.1,1.2,3,0,4.1c-1.1,1.1-2.9,1.2-4,0.1
		c-0.5-0.5-0.9-1.1-0.9-1.9l-0.4,0.4L168.4,541.2z M171.8,539l-1.6,1.7c-0.1,0.7,0.1,1.5,0.7,1.9c0.8,0.8,2.2,0.7,3-0.1
		c0.8-0.8,0.7-2.2-0.1-3l0,0C173.2,539,172.5,538.8,171.8,539L171.8,539z"/>
	<path class="st6" d="M164.8,539l-0.2,2.3l-0.6-0.6l0.1-1.6l-1.6,0.1l-0.6-0.6l2.3-0.2L164.8,539z M166.5,534.2l-0.7-0.7
		c1-0.7,2.5-0.5,3.3,0.4c1.1,1.1,1.2,3,0,4.1c-1.1,1.1-3,1.2-4.1,0c-0.9-0.8-1.1-2.3-0.4-3.3l0.7,0.7c-0.4,0.7-0.3,1.5,0.3,2
		c0.9,0.8,2.2,0.7,3-0.1c0.7-0.8,0.7-2,0-2.8C168,533.9,167.2,533.8,166.5,534.2L166.5,534.2z"/>
	<path class="st6" d="M160.1,529.5l2.3-2.2l0.6,0.7l-2.3,2.2c-0.7,0.5-0.8,1.5-0.3,2.2c0.1,0.1,0.1,0.1,0.2,0.2
		c0.5,0.5,1.2,0.7,2,0.7l2.8-2.7l0.6,0.7l-4,3.9l-0.6-0.7l0.5-0.4c-0.7,0-1.4-0.4-1.9-0.9c-0.9-0.9-1-2.3-0.1-3.3
		C160,529.6,160.1,529.6,160.1,529.5z"/>
	<path class="st6" d="M153.7,530.1l2-0.3l0.6,0.6l-1.9,0.5L153.7,530.1z M156.5,529l4.1-3.8l0.6,0.7l-4.1,3.8L156.5,529z"/>
	<path class="st6" d="M153.2,521.9l2.4-2.1l0.6,0.7l-2.4,2.1c-0.7,0.5-0.9,1.5-0.4,2.2c0.1,0.1,0.1,0.2,0.2,0.2
		c0.5,0.5,1.2,0.8,1.9,0.7l2.9-2.6l0.6,0.7l-6.4,5.7l-0.6-0.7l2.7-2.4c-0.7-0.1-1.4-0.4-1.9-1c-0.9-0.9-0.9-2.4,0.1-3.3
		C153.1,522,153.2,521.9,153.2,521.9z"/>
	<path class="st6" d="M148.8,516c1.2-1.1,3.1-0.9,4.2,0.3c1.1,1.2,0.9,3.1-0.3,4.2c-1.2,1.1-3.1,0.9-4.2-0.3c0,0,0,0,0,0
		C147.4,518.9,147.5,517.1,148.8,516C148.8,516,148.8,516,148.8,516z M149.4,516.7c-0.8,0.7-0.9,2-0.2,2.9c0.7,0.8,2,0.9,2.9,0.2
		c0.8-0.7,0.9-2,0.2-2.8C151.6,516,150.3,515.9,149.4,516.7C149.4,516.7,149.4,516.7,149.4,516.7L149.4,516.7z"/>
	<path class="st6" d="M142.2,507.6c1.2-1,3-0.8,4,0.5c0,0,0,0,0,0c0.5,0.6,0.7,1.3,0.6,2l2.7-2.1l0.6,0.7l-6.6,5.1l-0.6-0.7l0.5-0.4
		c-0.7-0.1-1.3-0.5-1.8-1.1C140.7,510.4,140.9,508.6,142.2,507.6C142.2,507.6,142.2,507.6,142.2,507.6z M142.8,508.3
		c-0.9,0.7-1.1,2-0.4,2.9c0,0,0,0,0,0c0.4,0.6,1.2,0.9,1.9,0.9l1.8-1.4c0.2-0.7,0.1-1.5-0.4-2C145,507.8,143.7,507.6,142.8,508.3
		C142.8,508.3,142.8,508.3,142.8,508.3L142.8,508.3z"/>
	<path class="st6" d="M137.9,501.8c1.3-1,3.2-0.7,4.1,0.6c1,1.3,0.7,3.2-0.6,4.1c-1.3,1-3.2,0.7-4.1-0.6c0,0,0,0,0,0
		C136.3,504.6,136.6,502.8,137.9,501.8C137.9,501.8,137.9,501.8,137.9,501.8z M138.5,502.5c-0.9,0.7-1.1,2-0.4,2.9s2,1.1,2.9,0.4
		c0.9-0.7,1.1-1.9,0.4-2.8C140.7,502,139.4,501.8,138.5,502.5C138.5,502.5,138.5,502.5,138.5,502.5L138.5,502.5z"/>
	<path class="st6" d="M129.2,499.2l7-4.8l0.5,0.8l-0.5,0.3c0.7,0.2,1.3,0.6,1.7,1.2c0.9,1.3,0.6,3.2-0.7,4.1
		c-1.3,0.9-3.2,0.6-4.1-0.7l0,0c-0.4-0.6-0.6-1.3-0.5-2l-2.9,2L129.2,499.2z M135.4,496.1l-1.9,1.3c-0.3,0.7-0.2,1.5,0.3,2
		c0.7,0.9,2,1.2,2.9,0.5c0.9-0.7,1.2-2,0.5-2.9C136.8,496.4,136.1,496.1,135.4,496.1z"/>
	<path class="st6" d="M129.6,490.1l2.7-1.7l0.5,0.8l-2.6,1.7c-0.8,0.4-1.1,1.3-0.7,2.1c0,0.1,0.1,0.2,0.1,0.2c0.4,0.6,1.1,1,1.8,1
		l3.3-2.1l0.5,0.8l-4.7,3l-0.5-0.8l0.5-0.3c-0.7-0.2-1.3-0.6-1.7-1.3c-0.7-1-0.5-2.5,0.5-3.2C129.4,490.2,129.5,490.2,129.6,490.1z"
		/>
	<path class="st6" d="M124.9,491c-0.3,0.2-0.6,0.1-0.8-0.2c0,0,0,0,0,0c-0.2-0.3-0.1-0.7,0.2-0.8c0.3-0.2,0.7-0.1,0.8,0.2
		c0,0,0,0,0,0C125.2,490.4,125.2,490.8,124.9,491C124.9,491,124.9,491,124.9,491z M126.1,489l4.7-2.9l0.5,0.8l-4.7,2.9L126.1,489z"
		/>
	<path class="st6" d="M126.4,483.8l1.5,0.4l1.3-0.8l0.5,0.8l-7.3,4.4l-0.5-0.8l5-3l-4-1.1l-0.6-1l3.2,0.9l1.3-4.1l0.6,1L126.4,483.8
		z"/>
	<path class="st6" d="M119.2,479.3l0.4,0.7l-2,0l-0.5-0.9L119.2,479.3z M119,476.8l4.9-2.7l0.4,0.8l-0.5,0.3
		c0.7,0.2,1.2,0.7,1.6,1.4c0.8,1.4,0.2,3.2-1.2,4c-1.4,0.8-3.1,0.3-3.9-1.1c-0.4-0.6-0.5-1.4-0.3-2.1l-0.5,0.3L119,476.8z
		 M122.9,475.7l-2,1.1c-0.3,0.7-0.3,1.4,0.1,2.1c0.6,1,1.9,1.3,2.9,0.7c1-0.6,1.3-1.8,0.8-2.8C124.3,476.2,123.6,475.8,122.9,475.7z
		"/>
	<path class="st6" d="M117.7,469.3l2.8-1.5l0.4,0.8l-2.8,1.5c-0.8,0.3-1.2,1.2-0.9,2c0,0.1,0.1,0.2,0.1,0.3c0.4,0.6,1,1.1,1.7,1.2
		l3.5-1.8l0.4,0.8L118,475l-0.4-0.8l0.6-0.3c-0.7-0.2-1.3-0.7-1.6-1.4c-0.6-1.1-0.3-2.5,0.8-3.1
		C117.5,469.3,117.6,469.3,117.7,469.3z"/>
	<path class="st6" d="M111.3,468.1l2,0.2l0.4,0.8l-2-0.1L111.3,468.1z M114.3,467.8l5-2.5l0.4,0.8l-5,2.5L114.3,467.8z"/>
</g>
<g>
	<path class="st16" d="M187.9,329.9c1.6,0.1,2.8,1.5,2.6,3.1c0,0,0,0,0,0c-0.1,0.7-0.4,1.4-0.9,1.9l3.4,0.3l-0.1,0.9l-8.3-0.8
		l0.1-0.9l0.6,0.1c-0.4-0.6-0.6-1.3-0.5-2C184.9,330.9,186.3,329.7,187.9,329.9C187.9,329.9,187.9,329.9,187.9,329.9z M187.9,330.8
		c-1.1-0.1-2.2,0.7-2.3,1.8c0,0,0,0,0,0c-0.1,0.7,0.2,1.5,0.8,1.9l2.3,0.2c0.7-0.3,1.1-1,1.1-1.7C189.9,331.9,189,330.9,187.9,330.8
		C187.9,330.8,187.9,330.8,187.9,330.8z"/>
	<path class="st16" d="M188.9,322.7c1.6,0.2,2.8,1.7,2.6,3.3c-0.2,1.6-1.7,2.8-3.3,2.6s-2.8-1.7-2.6-3.3c0,0,0,0,0,0
		c0.2-1.6,1.6-2.7,3.2-2.5C188.8,322.7,188.9,322.7,188.9,322.7z M188.8,323.6c-1.1-0.1-2.1,0.7-2.3,1.8s0.7,2.1,1.8,2.3
		c1.1,0.1,2.1-0.7,2.3-1.8C190.7,324.8,190,323.8,188.8,323.6C188.8,323.6,188.8,323.6,188.8,323.6z"/>
	<path class="st16" d="M183.7,319.3l8.4,1.4l-0.1,0.9l-8.4-1.4L183.7,319.3z"/>
	<path class="st16" d="M188,312.1l7.5,5.3l-0.2,1l-2.3-1.6l-6.2,1.7l0.2-1l5.1-1.4l-4.3-3L188,312.1z"/>
	<path class="st16" d="M194.5,308.3c0,0.4,0,0.8-0.1,1.2c-0.3,1.3-1.2,1.8-2.6,1.5l-2.7-0.6l-0.3,1.4l-0.8-0.2l0.3-1.4l-2-0.5
		l0.2-0.9l2,0.5l0.5-2l0.8,0.2l-0.5,2l2.7,0.6c0.9,0.2,1.4-0.1,1.6-0.9c0.1-0.3,0.1-0.7,0-1L194.5,308.3z"/>
	<path class="st16" d="M193.7,301.5L193.7,301.5L193.7,301.5l-1.2,4.5c1,0.2,2-0.4,2.3-1.5c0.2-0.6,0.1-1.2-0.3-1.6l0.3-1
		c0.9,0.7,1.2,1.8,0.9,2.8c-0.4,1.6-2,2.5-3.6,2.1c-1.6-0.4-2.5-2-2.1-3.5c0.3-1.5,1.8-2.4,3.2-2c0.1,0,0.1,0,0.2,0.1
		C193.5,301.5,193.6,301.5,193.7,301.5z M191.9,305.9l0.9-3.6c-0.9-0.2-1.9,0.3-2.1,1.3c0,0,0,0.1,0,0.1
		C190.4,304.6,190.9,305.6,191.9,305.9L191.9,305.9z"/>
	<path class="st16" d="M195.9,296l0.3-0.9c1.1,0.6,1.6,1.9,1.2,3.1c-0.5,1.6-2.1,2.4-3.6,2c-1.6-0.5-2.4-2.1-2-3.6
		c0.3-1.2,1.5-2.1,2.7-1.9l-0.3,0.9c-0.8,0-1.5,0.5-1.6,1.3c-0.3,1.1,0.4,2.2,1.6,2.5c1,0.2,2.1-0.3,2.4-1.3
		C196.9,297.3,196.6,296.4,195.9,296z"/>
	<path class="st16" d="M197.2,288.2l3,1l-0.3,0.9l-3-1c-0.8-0.4-1.7,0-2.1,0.7c0,0.1-0.1,0.2-0.1,0.3c-0.2,0.7-0.1,1.4,0.3,2
		l3.7,1.2l-0.3,0.9l-8.1-2.7l0.3-0.9l3.4,1.1c-0.3-0.7-0.3-1.4-0.1-2.1c0.4-1.2,1.6-1.9,2.9-1.6C197,288.1,197.1,288.2,197.2,288.2z
		"/>
	<path class="st16" d="M199.6,281.5l3,1.1l-0.3,0.9l-2.9-1.1c-0.8-0.4-1.7-0.1-2.1,0.7c0,0.1-0.1,0.2-0.1,0.3
		c-0.2,0.7-0.1,1.4,0.3,2l3.7,1.4l-0.3,0.9l-5.2-2l0.3-0.9l0.6,0.2c-0.3-0.7-0.3-1.4,0-2.1c0.4-1.2,1.7-1.9,2.9-1.5
		C199.4,281.5,199.5,281.5,199.6,281.5z"/>
	<path class="st16" d="M196.2,278.2c-0.3-0.1-0.5-0.5-0.3-0.8c0,0,0,0,0,0c0.1-0.3,0.5-0.5,0.8-0.3c0.3,0.1,0.5,0.5,0.3,0.8l0,0
		C196.8,278.2,196.5,278.3,196.2,278.2C196.2,278.2,196.2,278.2,196.2,278.2z M198.5,278l5.2,2.1l-0.3,0.8l-5.2-2.1L198.5,278z"/>
	<path class="st16" d="M204.4,273.6l0.4-0.9c1,0.7,1.4,2.1,0.8,3.2c-0.7,1.5-2.4,2.1-3.9,1.4c-1.4-0.7-2.1-2.3-1.5-3.8
		c0.4-1.2,1.7-1.9,2.9-1.6l-0.4,0.9c-0.8-0.1-1.5,0.3-1.8,1c-0.4,1.1,0.1,2.3,1.2,2.7c1,0.4,2.2-0.1,2.6-1
		C205.2,274.9,205,274.1,204.4,273.6z"/>
	<path class="st16" d="M205.7,269.1l0.5,1.5l1.3,0.6l-0.4,0.8l-7.7-3.7l0.4-0.8l5.2,2.5l-1.3-4l0.5-1.1l1.1,3.2l4.1-1.1l-0.5,1.1
		L205.7,269.1z"/>
	<path class="st16" d="M205.4,260.9l-0.4,0.8l-1.1-1.6l0.5-0.9L205.4,260.9z M210.1,260.7L210.1,260.7L210.1,260.7l-2.2,4.1
		c1,0.4,2.1,0,2.5-0.9c0.3-0.5,0.4-1.1,0.1-1.7l0.5-0.9c0.7,0.8,0.8,2,0.2,2.9c-0.8,1.4-2.6,1.9-4,1.1c-1.3-0.8-1.8-2.4-1.2-3.8
		c0.7-1.3,2.3-1.9,3.6-1.2c0.1,0,0.1,0.1,0.2,0.1C210,260.6,210.1,260.6,210.1,260.7L210.1,260.7z M207.4,264.5l1.7-3.3
		c-0.9-0.5-1.9-0.1-2.4,0.7c0,0,0,0,0,0.1C206.3,262.9,206.6,264,207.4,264.5z"/>
	<path class="st16" d="M212.7,250.1l4.8,2.9l-0.5,0.8l-0.5-0.3c0.1,0.7,0,1.4-0.4,2c-0.8,1.4-2.6,1.8-4,1c-1.4-0.8-1.8-2.6-1-4
		c0.4-0.6,0.9-1.1,1.6-1.3l-0.5-0.3L212.7,250.1z M215.6,252.9l-2-1.2c-0.7,0-1.4,0.4-1.8,1.1c-0.6,1-0.3,2.3,0.7,2.9
		c1,0.6,2.3,0.3,2.9-0.7C215.9,254.4,216,253.6,215.6,252.9L215.6,252.9z"/>
	<path class="st16" d="M221.2,242.4c1.3,0.9,1.7,2.6,0.8,4c0,0,0,0,0,0c-0.4,0.6-1,1-1.7,1.2l2.8,1.9l-0.5,0.8l-6.9-4.7l0.5-0.8
		l0.5,0.3c-0.1-0.7,0.1-1.4,0.5-2C218.1,241.8,219.8,241.4,221.2,242.4C221.2,242.3,221.2,242.4,221.2,242.4z M220.7,243.1
		c-0.9-0.7-2.2-0.4-2.9,0.5c0,0,0,0,0,0c-0.4,0.6-0.5,1.4-0.2,2.1l1.9,1.3c0.7,0,1.4-0.4,1.8-1C221.9,245.1,221.6,243.8,220.7,243.1
		C220.7,243.1,220.7,243.1,220.7,243.1L220.7,243.1z"/>
	<path class="st16" d="M219.6,238.1l-2.3,0.2l0.5-0.7l1.6-0.2l-0.3-1.5l0.5-0.7l0.6,2.2L219.6,238.1z M221.5,236.9l0.7,0.5
		c-0.5,0.7-0.6,1.6-0.3,2.5l2.9,2.1l-0.5,0.7l-4.5-3.3l0.5-0.7l0.7,0.5C220.9,238.4,221,237.6,221.5,236.9L221.5,236.9z"/>
	<path class="st16" d="M221.5,232.5l0.7,1.9l-0.5,0.7l-0.8-1.8L221.5,232.5z M223.1,235l4.5,3.3l-0.5,0.7l-4.5-3.3L223.1,235z"/>
	<path class="st16" d="M226.2,230.8l0.7,0.5c-0.5,0.7-0.7,1.6-0.4,2.4l2.9,2.2l-0.6,0.7l-4.4-3.4l0.6-0.7l0.7,0.6
		C225.5,232.3,225.7,231.4,226.2,230.8z"/>
	<path class="st16" d="M232.8,227.4c1.3,1,1.5,2.9,0.4,4.2s-2.9,1.5-4.2,0.4c-1.3-1-1.5-2.9-0.4-4.2c0,0,0,0,0,0
		C229.6,226.5,231.5,226.3,232.8,227.4C232.7,227.3,232.8,227.3,232.8,227.4z M232.2,228.1c-0.9-0.7-2.2-0.6-2.9,0.3
		c-0.7,0.9-0.6,2.2,0.3,2.9c0.9,0.7,2.1,0.6,2.8-0.3C233.2,230.1,233.1,228.8,232.2,228.1C232.2,228.1,232.2,228.1,232.2,228.1z"/>
	<path class="st16" d="M233.2,218.3l6.3,5.7l-0.6,0.7l-0.4-0.4c0,0.7-0.3,1.4-0.8,1.9c-1.1,1.2-3,1.2-4.1,0.1
		c-1.1-1.1-1.2-2.9-0.2-4c0.5-0.5,1.1-0.9,1.8-1l-2.6-2.4L233.2,218.3z M237.7,223.5L236,222c-0.7-0.1-1.5,0.2-1.9,0.7
		c-0.8,0.9-0.7,2.2,0.2,2.9c0.9,0.7,2.1,0.7,2.9-0.2C237.7,225,237.9,224.2,237.7,223.5L237.7,223.5z"/>
	<path class="st16" d="M242.7,216.6c1.2,1.1,1.2,3,0.1,4.2c-1.1,1.2-3,1.2-4.2,0.1c-1.2-1.1-1.2-3-0.1-4.2c0,0,0,0,0,0
		C239.7,215.5,241.5,215.5,242.7,216.6C242.7,216.6,242.7,216.6,242.7,216.6z M242.1,217.3c-0.8-0.8-2.1-0.7-2.9,0.1
		s-0.7,2.1,0.1,2.9c0.8,0.8,2.1,0.7,2.9-0.1C243,219.4,243,218.1,242.1,217.3C242.1,217.3,242.1,217.3,242.1,217.3z"/>
	<path class="st16" d="M245.7,209.9l2,5.8l-0.6,0.6l-5.8-2.2l0.7-0.7l4.6,1.7l-1.6-4.6L245.7,209.9z"/>
	<path class="st16" d="M247.3,207.2l-2.3-0.3l0.7-0.6l1.6,0.2l0-1.6l0.7-0.6l0.1,2.3L247.3,207.2z M252.4,208L252.4,208L252.4,208
		l-3.5,3.1c0.7,0.7,1.9,0.8,2.7,0c0.5-0.3,0.7-0.9,0.6-1.5l0.8-0.7c0.4,1,0,2.2-0.8,2.8c-1.2,1.1-3.1,0.9-4.1-0.3c-1-1.2-1-3,0.2-4
		c1.1-1,2.8-1,3.8,0.1c0,0.1,0.1,0.1,0.1,0.2C252.2,207.8,252.3,207.9,252.4,208L252.4,208z M248.5,210.6l2.8-2.5
		c-0.6-0.7-1.8-0.8-2.5-0.1c0,0,0,0-0.1,0.1C248,208.7,247.9,209.9,248.5,210.6L248.5,210.6z"/>
	<path class="st16" d="M253.9,198.9l5.5,6.5l-0.7,0.6l-0.4-0.4c-0.1,0.7-0.5,1.4-1,1.8c-1.3,1-3.1,0.8-4.1-0.5c-1-1.2-0.8-3,0.4-4
		c0.5-0.5,1.2-0.7,2-0.7l-2.3-2.7L253.9,198.9z M257.6,204.7l-1.5-1.7c-0.7-0.2-1.5,0-2,0.4c-0.9,0.8-0.9,2.1-0.2,2.9
		c0.7,0.8,2,0.9,2.8,0.3C257.4,206.2,257.7,205.4,257.6,204.7L257.6,204.7z"/>
	<path class="st16" d="M263.1,198.4l2,2.5l-0.7,0.6l-1.9-2.5c-0.4-0.7-1.4-1-2.1-0.5c-0.1,0-0.2,0.1-0.2,0.2
		c-0.6,0.5-0.9,1.2-0.9,1.9l2.4,3.1l-0.7,0.6l-3.4-4.4l0.7-0.6l0.4,0.5c0.1-0.7,0.5-1.4,1.1-1.8c1-0.8,2.4-0.7,3.2,0.3
		C263,198.3,263,198.3,263.1,198.4z"/>
	<path class="st16" d="M269.2,194.9L269.2,194.9L269.2,194.9l-3.8,2.7c0.7,0.8,1.8,1,2.7,0.3c0.5-0.3,0.8-0.9,0.8-1.5l0.8-0.6
		c0.2,1.1-0.2,2.1-1.1,2.7c-1.3,0.9-3.2,0.6-4.1-0.7c-0.9-1.3-0.6-3.1,0.6-4c1.2-0.9,2.9-0.7,3.8,0.5c0,0.1,0.1,0.1,0.1,0.2
		C269.1,194.6,269.2,194.7,269.2,194.9z M264.9,192.9l-0.7,0.5l-0.2-2l0.8-0.6L264.9,192.9z M265.1,197l3-2.2
		c-0.6-0.8-1.7-1-2.5-0.4c0,0,0,0-0.1,0C264.8,195.1,264.5,196.2,265.1,197z"/>
	<path class="st16" d="M276.3,186.6l0.8,6.1l-0.7,0.5l-5.2-3.3l0.8-0.5l4.1,2.6l-0.6-4.8L276.3,186.6z"/>
	<path class="st16" d="M281.4,184.1l-0.8,5.4l3-1.8l0.4,0.7l-4.1,2.5l-0.2-0.4l0.8-5.5l-2.9,1.7l-0.4-0.7l4-2.4L281.4,184.1z"/>
	<path class="st16" d="M285.8,177.7l4.1,7.5l-0.8,0.4l-0.3-0.5c-0.2,0.7-0.7,1.2-1.4,1.6c-1.4,0.7-3.2,0.2-3.9-1.3
		c-0.7-1.4-0.2-3.1,1.1-3.9c0.6-0.4,1.4-0.5,2.1-0.3l-1.7-3.1L285.8,177.7z M288.3,184.2l-1.1-2c-0.6-0.3-1.4-0.3-2.1,0.1
		c-1,0.6-1.4,1.8-0.8,2.8c0.6,1,1.8,1.4,2.8,0.8C287.8,185.6,288.2,184.9,288.3,184.2z"/>
	<path class="st16" d="M290.5,177.5l-2.1-0.9l0.8-0.4l1.5,0.6l0.4-1.5l0.8-0.4l-0.5,2.2L290.5,177.5z M295.2,179.7L295.2,179.7
		L295.2,179.7l-4.2,2.1c0.5,0.9,1.7,1.3,2.6,0.8c0.6-0.2,0.9-0.7,1-1.3l0.9-0.5c0.1,1.1-0.6,2.1-1.6,2.5c-1.5,0.7-3.2,0.1-3.9-1.3
		c-0.7-1.4-0.1-3.1,1.3-3.9c1.3-0.7,3-0.2,3.7,1.1c0,0.1,0.1,0.1,0.1,0.2C295.1,179.5,295.1,179.6,295.2,179.7z M290.7,181.2
		l3.3-1.7c-0.4-0.9-1.5-1.2-2.4-0.8c0,0,0,0-0.1,0C290.7,179.2,290.3,180.3,290.7,181.2L290.7,181.2z"/>
	<path class="st16" d="M294.9,173.2l3.6,7.7l-0.8,0.4l-3.6-7.7L294.9,173.2z"/>
	<path class="st16" d="M303,172.8l2.2,5.1l-0.8,0.4l-0.2-0.5c-0.3,0.7-0.8,1.2-1.5,1.4c-1.5,0.6-3.2-0.1-3.8-1.6
		c-0.6-1.4,0.1-3.1,1.5-3.8c0.7-0.3,1.4-0.3,2.1-0.1l-0.2-0.5L303,172.8z M303.8,176.8l-0.9-2.1c-0.6-0.4-1.4-0.5-2.1-0.1
		c-1,0.5-1.5,1.7-1,2.8c0.5,1,1.7,1.5,2.7,1.1C303.1,178.1,303.6,177.5,303.8,176.8L303.8,176.8z M300.5,172.7l-0.8,0.3l0.2-2
		l0.9-0.4L300.5,172.7z"/>
	<path class="st16" d="M310,170.1l-0.4,6.1l-0.8,0.3l-4.5-4.2l0.9-0.4l3.5,3.4l0.3-4.9L310,170.1z"/>
	<path class="st16" d="M316,167.9l1.9,5.3l-0.9,0.3l-0.2-0.5c-0.3,0.6-0.9,1.1-1.6,1.3c-1.5,0.5-3.2-0.3-3.7-1.9
		c-0.5-1.5,0.3-3.1,1.8-3.7c0.7-0.3,1.4-0.2,2.1,0l-0.2-0.5L316,167.9z M316.5,171.9l-0.8-2.2c-0.6-0.4-1.4-0.6-2-0.3
		c-1.1,0.4-1.6,1.6-1.2,2.7c0.4,1.1,1.6,1.6,2.6,1.3C315.8,173.2,316.3,172.6,316.5,171.9L316.5,171.9z M313.5,167.6l-0.8,0.3
		l0.3-1.9l1-0.3L313.5,167.6z"/>
	<path class="st16" d="M323.8,167.9l0.9,3l-0.9,0.3l-0.9-3c-0.2-0.8-1-1.4-1.8-1.2c-0.1,0-0.2,0-0.3,0.1c-0.7,0.2-1.2,0.8-1.5,1.5
		l1.2,3.7l-0.9,0.3l-1.6-5.3l0.9-0.3l0.2,0.6c0.4-0.6,1-1.1,1.7-1.3c1.2-0.4,2.5,0.2,2.9,1.4C323.7,167.7,323.8,167.8,323.8,167.9z"
		/>
	<path class="st16" d="M326.1,161.9l-0.6,2l-0.8,0.2l0.5-1.9L326.1,161.9z M325.9,164.9l1.5,5.4l-0.9,0.2l-1.5-5.4L325.9,164.9z"/>
</g>
<g>
	<path class="st4" d="M470.7,170.7l-2.3,5.1l-0.8-0.4l2.3-5.1L470.7,170.7z M470.6,168.4c0.1-0.3,0.5-0.4,0.8-0.3c0,0,0,0,0,0
		c0.3,0.1,0.5,0.5,0.4,0.8c-0.1,0.3-0.5,0.5-0.8,0.4c0,0-0.1,0-0.1,0C470.6,169.1,470.5,168.7,470.6,168.4
		C470.6,168.4,470.6,168.4,470.6,168.4L470.6,168.4z"/>
	<path class="st4" d="M476.4,176.1L475,179l-0.8-0.4l1.4-2.8c0.5-0.7,0.2-1.7-0.5-2.1c-0.1-0.1-0.2-0.1-0.3-0.1
		c-0.7-0.3-1.4-0.3-2.1,0.1l-1.7,3.5l-0.8-0.4l2.4-5l0.8,0.4l-0.3,0.6c0.7-0.2,1.5-0.2,2.1,0.2c1.2,0.5,1.7,1.9,1.2,3
		C476.5,175.9,476.5,176,476.4,176.1z"/>
	<path class="st4" d="M478.7,180.2c0.8,0.4,1.4,0.4,1.7-0.1c0.2-0.4,0-0.8-0.4-1.2l-1-0.8c-0.7-0.6-1.2-1.3-0.8-2.1
		c0.5-0.9,1.6-1,2.8-0.4c1,0.5,1.8,1.5,1.3,2.7l-0.8-0.4c0.2-0.7-0.1-1.2-0.9-1.6c-0.7-0.4-1.3-0.3-1.6,0.1
		c-0.2,0.4-0.1,0.8,0.5,1.2l0.9,0.7c0.7,0.5,1.2,1.2,0.7,2.2c-0.5,1-1.7,1.1-2.9,0.4c-1.3-0.7-1.9-1.6-1.4-2.9l0.8,0.4
		C477.5,179.1,477.8,179.7,478.7,180.2z"/>
	<path class="st4" d="M488.2,182.9c-0.8,1.4-2.5,1.9-3.9,1.1c0,0,0,0,0,0c-0.6-0.3-1.1-0.9-1.3-1.6l-1.7,2.9l-0.8-0.4l4.1-7.3
		l0.8,0.4l-0.3,0.5c0.7-0.2,1.4,0,2.1,0.3C488.5,179.8,489,181.5,488.2,182.9C488.2,182.9,488.2,182.9,488.2,182.9z M487.4,182.5
		c0.6-1,0.2-2.3-0.8-2.9c0,0,0,0,0,0c-0.6-0.4-1.4-0.4-2.1-0.1l-1.1,2c0,0.7,0.5,1.4,1.1,1.8C485.5,183.9,486.8,183.5,487.4,182.5
		C487.4,182.5,487.4,182.5,487.4,182.5L487.4,182.5z"/>
	<path class="st4" d="M491.9,181.9l-2.9,4.8l-0.8-0.5l2.9-4.8L491.9,181.9z M492.1,179.6c0.2-0.3,0.5-0.4,0.8-0.2c0,0,0,0,0,0
		c0.3,0.2,0.4,0.5,0.2,0.8c-0.2,0.3-0.5,0.4-0.8,0.2l0,0C492,180.3,491.9,179.9,492.1,179.6C492.1,179.6,492.1,179.6,492.1,179.6z"
		/>
	<path class="st4" d="M496.5,184.6l-0.5,0.7c-0.7-0.5-1.7-0.5-2.5-0.1l-1.9,3.1l-0.8-0.5l2.9-4.7l0.8,0.5l-0.5,0.8
		C494.9,184,495.7,184.1,496.5,184.6z"/>
	<path class="st4" d="M501.9,188.3l-3.1,4.6l-0.8-0.5l0.3-0.5c-0.7,0.1-1.4-0.1-2-0.5c-1.3-0.9-1.7-2.7-0.8-4.1
		c0.9-1.3,2.7-1.7,4.1-0.8c0.6,0.4,1.1,1,1.2,1.7l0.3-0.5L501.9,188.3z M499,191.1l1.3-1.9c0-0.7-0.4-1.4-1-1.8
		c-1-0.6-2.3-0.4-2.9,0.6c-0.6,1-0.4,2.3,0.6,2.9l0,0C497.5,191.3,498.3,191.4,499,191.1L499,191.1z"/>
	<path class="st4" d="M505,195l0.8,0.5c-0.9,0.9-2.3,0.9-3.3,0.1c-1.3-0.9-1.6-2.8-0.7-4.1s2.8-1.6,4.1-0.7l0,0c1.1,0.7,1.5,2,1,3.2
		l-0.8-0.5c0.3-0.7,0-1.6-0.7-2c-1-0.6-2.3-0.4-2.9,0.6c-0.6,0.9-0.4,2.1,0.5,2.8C503.5,195.5,504.4,195.5,505,195z"/>
	<path class="st4" d="M511.6,199.1L511.6,199.1L511.6,199.1l-3.7-2.8c-0.6,0.9-0.4,2.1,0.5,2.7c0.4,0.4,1.1,0.5,1.6,0.3l0.8,0.6
		c-0.9,0.5-2.1,0.4-2.9-0.3c-1.3-1-1.6-2.8-0.6-4.1c1-1.3,2.8-1.6,4.1-0.6c1.2,0.9,1.5,2.6,0.6,3.8c0,0.1-0.1,0.1-0.1,0.2
		C511.8,199,511.7,199.1,511.6,199.1z M508.3,195.8l3,2.3c0.6-0.8,0.4-1.9-0.3-2.5c0,0,0,0-0.1,0C510.1,194.9,509,195.1,508.3,195.8
		z"/>
	<path class="st4" d="M517.1,203.5l-1.6,0.1l-1,1.1l-0.7-0.6l5.5-6.5l0.7,0.6l-3.7,4.5l4.2-0.3l0.9,0.8l-3.3,0.3l0.1,4.3l-0.9-0.8
		L517.1,203.5z"/>
	<path class="st4" d="M527.5,212.4c-1.1,1.2-2.9,1.3-4.1,0.2c0,0,0,0,0,0c-0.5-0.5-0.9-1.1-1-1.9l-2.3,2.5l-0.7-0.6l5.7-6.1l0.7,0.6
		l-0.4,0.4c0.7,0,1.4,0.3,1.9,0.8C528.5,209.4,528.6,211.3,527.5,212.4C527.5,212.4,527.5,212.4,527.5,212.4z M526.8,211.8
		c0.8-0.8,0.8-2.2-0.1-2.9c0,0,0,0,0,0c-0.5-0.5-1.3-0.7-2-0.5l-1.5,1.7c-0.1,0.7,0.1,1.5,0.7,2C524.7,212.7,526,212.7,526.8,211.8
		C526.8,211.8,526.8,211.8,526.8,211.8z"/>
	<path class="st4" d="M532.6,217.5c-1.1,1.2-3,1.2-4.2,0.1c-1.2-1.1-1.2-3-0.1-4.2s3-1.2,4.2-0.1c0,0,0,0,0,0
		C533.8,214.4,533.8,216.2,532.6,217.5C532.7,217.4,532.7,217.5,532.6,217.5z M532,216.8c0.8-0.8,0.7-2.1-0.1-2.9
		c-0.8-0.8-2.1-0.7-2.9,0.1c-0.8,0.8-0.7,2.1,0.1,2.9C529.9,217.7,531.2,217.7,532,216.8C532,216.9,532,216.8,532,216.8L532,216.8z"
		/>
	<path class="st4" d="M541.7,218.7l-6.2,5.9l-0.6-0.7l0.4-0.4c-0.7-0.1-1.4-0.4-1.9-0.9c-1.1-1.2-1-3,0.2-4.1c1.2-1.1,3-1,4.1,0.1
		c0.5,0.5,0.8,1.2,0.8,1.9l2.6-2.4L541.7,218.7z M536.1,222.7l1.7-1.6c0.2-0.7,0-1.5-0.6-2c-0.8-0.8-2.1-0.9-3-0.1
		c-0.8,0.8-0.9,2.1-0.1,3l0,0C534.6,222.6,535.3,222.8,536.1,222.7L536.1,222.7z"/>
	<path class="st4" d="M542.7,227.7l-2.4,2.1l-0.6-0.7l2.4-2.1c0.7-0.5,0.9-1.5,0.4-2.2c-0.1-0.1-0.1-0.2-0.2-0.2
		c-0.5-0.5-1.2-0.8-1.9-0.7l-2.9,2.6l-0.6-0.7l4.2-3.7l0.6,0.7l-0.5,0.4c0.7,0.1,1.4,0.4,1.9,1c0.9,0.9,0.9,2.4-0.1,3.3
		C542.8,227.6,542.8,227.7,542.7,227.7z"/>
	<path class="st4" d="M546.3,228.4l-4.3,3.6l-0.6-0.7l4.3-3.6L546.3,228.4z M547.2,226.2c0.2-0.2,0.6-0.2,0.8,0.1c0,0,0,0,0,0
		c0.2,0.3,0.2,0.6-0.1,0.9s-0.6,0.2-0.9-0.1C546.9,226.8,547,226.5,547.2,226.2C547.2,226.2,547.2,226.2,547.2,226.2L547.2,226.2z"
		/>
	<path class="st4" d="M546.7,233.5l-1.6-0.2l-1.2,0.9l-0.6-0.7l6.6-5.3l0.6,0.7l-4.5,3.7l4.1,0.5l0.7,0.9l-3.3-0.4l-0.8,4.2
		l-0.7-0.9L546.7,233.5z"/>
	<path class="st4" d="M555,239.4l-4.4,3.3L550,242l0.5-0.3c-0.7-0.1-1.3-0.5-1.8-1.1c-0.9-1.3-0.6-3.1,0.7-4.1c1.3-0.9,3-0.7,4,0.6
		c0.4,0.6,0.7,1.3,0.6,2l0.5-0.3L555,239.4z M551.3,241.1l1.8-1.4c0.2-0.7,0.1-1.5-0.3-2c-0.7-0.9-2-1.1-2.9-0.4
		c-0.9,0.7-1.1,2-0.4,2.9C549.9,240.8,550.6,241.1,551.3,241.1z M554.5,237l-0.5-0.7l1.9-0.3l0.6,0.8L554.5,237z"/>
	<path class="st4" d="M557.3,246.8l-2.6,1.8l-0.5-0.7l2.6-1.8c0.8-0.4,1-1.3,0.6-2.1c0-0.1-0.1-0.2-0.2-0.2
		c-0.4-0.6-1.1-0.9-1.8-0.9l-3.2,2.2l-0.5-0.7l4.6-3.2l0.5,0.7l-0.5,0.4c0.7,0.1,1.4,0.6,1.8,1.2c0.8,1,0.6,2.5-0.4,3.2
		C557.5,246.7,557.4,246.8,557.3,246.8z"/>
	<path class="st4" d="M560.9,247.9l-4.6,3.1l-0.5-0.8l4.6-3.1L560.9,247.9z M563.8,247.2l-2.1,0l-0.5-0.7l2-0.2L563.8,247.2z"/>
</g>
<g id="svgPineCity">
	<path class="st6" d="M241.9,266c0,6.7,4.8,12.1,4.8,12.1s4.8-5.4,4.8-12.1c0-6.7-4.8-12.1-4.8-12.1S241.9,259.3,241.9,266z"/>
	<rect x="246.4" y="259.4" class="st5" width="0.5" height="22.7"/>
	<path class="st6" d="M192.1,261.2c0,0-3.5,3.5-3.5,7.7c0,4.3,3.5,7.7,3.5,7.7s3.5-3.5,3.5-7.7C195.6,264.6,192.1,261.2,192.1,261.2
		z"/>
	<rect x="191.9" y="268" class="st5" width="0.5" height="17.2"/>
	<path class="st5" d="M183.3,261.2c0,0-3.5,3.5-3.5,7.7c0,4.3,3.5,7.7,3.5,7.7s3.5-3.5,3.5-7.7C186.8,264.6,183.3,261.2,183.3,261.2
		z"/>
	<rect x="183.1" y="268" class="st5" width="0.5" height="17.2"/>
	<path class="st17" d="M174.5,261.2c0,0-3.5,3.5-3.5,7.7c0,4.3,3.5,7.7,3.5,7.7s3.5-3.5,3.5-7.7C178,264.6,174.5,261.2,174.5,261.2
		L174.5,261.2z"/>
	<rect x="174.3" y="268" class="st5" width="0.5" height="17.2"/>
	<path class="st6" d="M209.6,261.2c0,0-3.5,3.5-3.5,7.7c0,4.3,3.5,7.7,3.5,7.7s3.5-3.5,3.5-7.7C213.2,264.6,209.6,261.2,209.6,261.2
		z"/>
	<rect x="209.4" y="268" class="st5" width="0.5" height="17.2"/>
	<path class="st6" d="M200.9,261.2c0,0-3.5,3.5-3.5,7.7c0,4.3,3.5,7.7,3.5,7.7s3.5-3.5,3.5-7.7C204.4,264.6,200.9,261.2,200.9,261.2
		z"/>
	<rect x="200.6" y="268" class="st5" width="0.5" height="17.2"/>
	<path class="st17" d="M142.4,263.5c0,5.7,4.1,10.4,4.1,10.4s4.1-4.7,4.1-10.4s-4.1-10.4-4.1-10.4S142.4,257.8,142.4,263.5z"/>
	<path class="st6" d="M148,271.3c-4.2-0.1-6.2,6.7-12.2,3.6c-7.5-3.8-9.7,3.3-14.2,0.6c-4.2-2.5-3.7-8.9-11.2-9.7
		c-3.6-0.4-5.1,1.2-8.8-0.3c-3.2-1.3-8.5,4.6-8.5,4.6V298l55-7.6C148,290.4,153.4,271.4,148,271.3L148,271.3z"/>
	<path class="st17" d="M253.3,269.2c0,6.7,4.8,12.1,4.8,12.1s4.8-5.4,4.8-12.1c0-6.7-4.8-12.1-4.8-12.1S253.3,262.5,253.3,269.2
		L253.3,269.2z"/>
	<rect x="257.9" y="267" class="st5" width="0.5" height="19.7"/>
	<polygon class="st5" points="258.1,271.5 256.5,269.8 256.2,270.2 258.1,272.1 260.1,270.2 259.7,269.8 	"/>
	<path class="st6" d="M263.7,276.8c0,5.9,4.3,10.7,4.3,10.7s4.2-4.8,4.2-10.7s-4.2-10.7-4.2-10.7S263.7,270.9,263.7,276.8z"/>
	<rect x="267.7" y="274.9" class="st6" width="0.5" height="15.6"/>
	<path class="st6" d="M266.1,290.5c-4.3-1.9-3-4.5-6.8-5.6c-4.5-1.3-6.6,3.1-8.8,0.9c-2.2-2.2-1.7-5.6-6.6-4.8v28.9h30.9v-18
		C271.5,288.5,268.8,291.6,266.1,290.5z"/>
	<path class="st6" d="M198.9,283.2c-3.8,1.2-4.3-0.5-9,0.2c-3.6,0.5-4.6,3.3-7.8,2.7c-3.2-0.7-7.8-2.2-12.6,0.4
		c-5.2,2.8-3.9,11.5-3.9,11.5l8.7,2.4l35.4,6.6l0.2-26C204.4,277.9,201.5,282.3,198.9,283.2L198.9,283.2z"/>
	<polygon class="st16" points="216.2,272.5 222.9,281 243.9,281 237.2,272.5 	"/>
	<polygon class="st4" points="209.6,281 209.6,307.8 222.8,307.8 222.8,281 216.2,272.5 	"/>
	<rect x="222.9" y="281" class="st17" width="21" height="26.9"/>
	<rect x="228" y="284.9" class="st18" width="1.5" height="1.3"/>
	<rect x="228" y="288.8" class="st18" width="1.5" height="1.3"/>
	<rect x="232.6" y="284.9" class="st18" width="1.5" height="1.3"/>
	<rect x="232.6" y="288.8" class="st18" width="1.5" height="1.3"/>
	<rect x="237.2" y="284.9" class="st18" width="1.5" height="1.3"/>
	<rect x="237.2" y="288.8" class="st18" width="1.5" height="1.3"/>
	<rect x="228" y="292.7" class="st18" width="1.5" height="1.3"/>
	<rect x="232.6" y="292.7" class="st18" width="1.5" height="1.3"/>
	<rect x="237.2" y="292.7" class="st18" width="1.5" height="1.3"/>
	<rect x="213.2" y="284.9" class="st5" width="1.5" height="1.3"/>
	<rect x="213.2" y="288.8" class="st5" width="1.5" height="1.3"/>
	<rect x="217.8" y="284.9" class="st5" width="1.5" height="1.3"/>
	<rect x="217.8" y="288.8" class="st5" width="1.5" height="1.3"/>
	<rect x="213.2" y="292.7" class="st5" width="1.5" height="1.3"/>
	<rect x="217.8" y="292.7" class="st5" width="1.5" height="1.3"/>
	<path class="st17" d="M205.5,287.8c-1.2,0-2.3,0.5-3.1,1.4c0-2.3-1.9-4.1-4.1-4.1c-0.6,0-1.2,0.1-1.8,0.4v-0.1
		c0-2.3-1.8-4.2-4.2-4.2c0,0,0,0,0,0c-0.9,0-1.8,0.3-2.5,0.9c-0.2-2.1-2-3.8-4.1-3.8c-1,0-2,0.4-2.7,1.1c-0.6-1.6-2.1-2.7-3.9-2.7
		c-2.2,0-4,1.7-4.2,3.9c-0.6-0.4-1.4-0.6-2.1-0.6c-2.3,0-4.2,1.9-4.2,4.2c0,0,0,0,0,0v7.8h22.6v17.5h18.3v-17.4
		C209.7,289.8,207.9,287.9,205.5,287.8C205.6,287.8,205.6,287.8,205.5,287.8L205.5,287.8z"/>
	<polygon class="st5" points="173.8,286.4 178.9,291.7 195.1,291.7 189.9,286.4 	"/>
	<polygon class="st16" points="168.7,291.7 168.7,308.7 179,308.7 179,291.7 173.8,286.4 	"/>
	<rect x="178.9" y="291.7" class="st17" width="16.1" height="16.9"/>
	<rect x="182.9" y="295.9" class="st18" width="1.2" height="1.2"/>
	<rect x="182.9" y="299.5" class="st18" width="1.2" height="1.2"/>
	<rect x="186.4" y="295.9" class="st18" width="1.2" height="1.2"/>
	<rect x="186.4" y="299.5" class="st18" width="1.2" height="1.2"/>
	<rect x="190" y="295.9" class="st18" width="1.2" height="1.2"/>
	<rect x="190" y="299.5" class="st18" width="1.2" height="1.2"/>
	<rect x="182.9" y="303.1" class="st18" width="1.2" height="1.2"/>
	<rect x="186.4" y="303.1" class="st18" width="1.2" height="1.2"/>
	<rect x="190" y="303.1" class="st18" width="1.2" height="1.2"/>
	<path class="st17" d="M134.8,261.8c0,5.7,4.1,10.4,4.1,10.4s4.1-4.7,4.1-10.4c0-5.7-4.1-10.4-4.1-10.4S134.9,256.1,134.8,261.8
		L134.8,261.8z"/>
	<rect x="138.7" y="261.6" class="st5" width="0.5" height="25.6"/>
	<path class="st6" d="M131.9,252c0,0-4.8,4.2-4.8,9.3c0,5.1,4.8,9.3,4.8,9.3s4.8-4.1,4.8-9.3C136.7,256.1,131.9,252,131.9,252z"/>
	<rect x="131.7" y="258.6" class="st5" width="0.5" height="26.3"/>
	<polygon class="st17" points="148,271.3 159.8,271.3 168.7,259 156.9,259 	"/>
	<rect x="148" y="271.3" class="st6" width="11.8" height="30.6"/>
	<polygon class="st5" points="159.8,301.8 168.7,301.8 168.7,271.4 168.7,259 159.8,271.4 	"/>
	<rect x="163.5" y="279.5" class="st17" width="1.4" height="5.2"/>
	<path class="st17" d="M163.8,294.3c-0.9,0-1.8,0.2-2.5,0.7c-0.1-2.7-2.4-4.7-5.1-4.6c-1.9,0.1-3.6,1.3-4.3,3.2
		c-0.9-0.8-2-1.3-3.2-1.3c-2.5,0-4.6,2-4.9,4.5c-0.8-0.6-1.9-1-2.9-1c-2.7,0-4.9,2.3-4.9,5c0,0,0,0,0,0v0.1
		c-0.6-0.3-1.3-0.5-2.1-0.5c-2.7,0-4.8,2.2-4.9,4.8c-0.9-1-2.2-1.6-3.6-1.6c-2.7,0-4.9,2.3-4.9,5c0,0,0,0,0,0h48.1v-9.3
		C168.7,296.6,166.6,294.3,163.8,294.3C163.8,294.3,163.8,294.3,163.8,294.3L163.8,294.3z"/>
	<path class="st16" d="M48.7,289.2c-0.6,0-1.1,0.1-1.6,0.4c0-0.1,0-0.2,0-0.3c0-3.2-2.5-5.8-5.7-5.8c-0.6,0-1.2,0.1-1.7,0.3
		c-0.1-2-1.9-3.4-3.8-3.3c-1.8,0.1-3.2,1.5-3.3,3.3c-2.5-1.1-5.5,0-6.6,2.5c-0.3,0.7-0.5,1.5-0.4,2.3c0,0.1,0,0.3,0,0.4h-0.4
		c-2,0-3.6,1.7-3.6,3.7c0,1.7,1.3,3.2,2.9,3.5c1.2,1.6,6.1,2.7,12,2.7c5.4,0,10-1,11.6-2.3c0.2,0,0.4,0.1,0.6,0.1
		c2,0,3.7-1.6,3.7-3.7C52.3,290.9,50.7,289.3,48.7,289.2L48.7,289.2z"/>
	<rect x="9.9" y="330.6" class="st5" width="24.9" height="25.2"/>
	<polygon class="st17" points="72.5,355.8 101.7,355.8 110.4,330.6 72.5,330.6 	"/>
	<polygon class="st16" points="73.3,309.4 79.2,308.6 93,308.6 93,276.7 73.3,276.7 	"/>
	<polygon class="st17" points="33.5,293.2 67.3,293.2 73.3,276.7 39.4,276.7 	"/>
	<polygon class="st16" points="62.7,293.2 64.8,293.2 70.7,276.7 68.6,276.7 	"/>
	<polygon class="st16" points="35.9,293.2 38,293.2 43.9,276.7 41.9,276.7 	"/>
	<polygon class="st16" points="57.3,293.2 59.4,293.2 65.4,276.7 63.3,276.7 	"/>
	<polygon class="st16" points="52,293.2 54.1,293.2 60,276.7 57.9,276.7 	"/>
	<polygon class="st16" points="46.6,293.2 48.7,293.2 54.6,276.7 52.6,276.7 	"/>
	<polygon class="st16" points="41.3,293.2 43.4,293.2 49.3,276.7 47.2,276.7 	"/>
	<polygon class="st6" points="67.3,293.2 67.3,325.8 79.3,325.8 79.3,293.2 73.3,276.7 	"/>
	<rect x="33.5" y="293.2" class="st4" width="33.9" height="32.5"/>
	<polygon class="st4" points="133.4,287.5 148,287.5 140.7,280 	"/>
	<polygon class="st16" points="110.4,287.5 133.4,287.5 140.7,280 117.7,280 	"/>
	<rect x="133.4" y="287.5" class="st4" width="14.6" height="21.1"/>
	<rect x="110.4" y="287.5" class="st17" width="23" height="21.1"/>
	<polygon class="st5" points="18.1,310.7 10,310.7 10,330.7 18.1,330.7 19.2,330.7 35,330.7 35,300.1 18.1,300.1 	"/>
	<polygon class="st16" points="26.1,293.2 26.1,300.1 41,300.1 41,293.2 33.5,285.4 	"/>
	<polygon class="st5" points="33.5,285.4 40.9,293.2 58.1,293.2 50.8,285.4 	"/>
	<polygon class="st17" points="41,300.1 35,300.1 35,330.7 58.1,330.7 58.1,300.1 58.1,293.2 41,293.2 	"/>
	<rect x="53.8" y="295.6" class="st16" width="2.3" height="3.1"/>
	<rect x="48.2" y="295.6" class="st16" width="2.3" height="3.1"/>
	<rect x="42.5" y="295.6" class="st16" width="2.3" height="3.1"/>
	<rect x="53.8" y="304.5" class="st16" width="2.3" height="3.1"/>
	<rect x="48.2" y="304.5" class="st16" width="2.3" height="3.1"/>
	<rect x="42.5" y="304.5" class="st16" width="2.3" height="3.1"/>
	<rect x="36.8" y="304.5" class="st16" width="2.3" height="3.1"/>
	<rect x="53.8" y="313.4" class="st16" width="2.3" height="3.1"/>
	<rect x="48.2" y="313.4" class="st16" width="2.3" height="3.1"/>
	<rect x="42.5" y="313.4" class="st16" width="2.3" height="3.1"/>
	<rect x="36.8" y="313.4" class="st16" width="2.3" height="3.1"/>
	<rect x="29.7" y="304.5" class="st16" width="2.3" height="3.1"/>
	<rect x="24.1" y="304.5" class="st16" width="2.3" height="3.1"/>
	<rect x="29.7" y="313.4" class="st16" width="2.3" height="3.1"/>
	<rect x="24.1" y="313.4" class="st16" width="2.3" height="3.1"/>
	<rect x="18.4" y="313.4" class="st16" width="2.3" height="3.1"/>
	<rect x="12.7" y="313.4" class="st16" width="2.3" height="3.1"/>
	<rect x="29.7" y="322.3" class="st16" width="2.3" height="3.1"/>
	<rect x="24.1" y="322.3" class="st16" width="2.3" height="3.1"/>
	<rect x="18.4" y="322.3" class="st16" width="2.3" height="3.1"/>
	<rect x="12.7" y="322.3" class="st16" width="2.3" height="3.1"/>
	<polygon class="st16" points="122.8,297.4 135.3,308.6 168.7,308.6 156.2,297.4 	"/>
	<polygon class="st6" points="110.3,308.6 110.3,330.7 135.2,330.7 135.2,308.6 122.7,297.4 	"/>
	<polygon class="st5" points="145.8,308.6 152,303 139.7,303 	"/>
	<polygon class="st4" points="152,303.1 145.8,308.7 135.2,308.7 135.2,330.7 168.7,330.7 168.7,308.7 158.2,308.7 	"/>
	<rect x="129.3" y="313.3" class="st5" width="1.2" height="1.3"/>
	<rect x="129.3" y="317.1" class="st5" width="1.2" height="1.3"/>
	<rect x="129.3" y="320.8" class="st5" width="1.2" height="1.3"/>
	<rect x="129.3" y="324.6" class="st5" width="1.2" height="1.3"/>
	<rect x="125.7" y="313.3" class="st5" width="1.2" height="1.3"/>
	<rect x="125.7" y="317.1" class="st5" width="1.2" height="1.3"/>
	<rect x="125.7" y="320.8" class="st5" width="1.2" height="1.3"/>
	<rect x="125.7" y="324.6" class="st5" width="1.2" height="1.3"/>
	<rect x="122" y="313.3" class="st5" width="1.2" height="1.3"/>
	<rect x="122" y="317.1" class="st5" width="1.2" height="1.3"/>
	<rect x="122" y="320.8" class="st5" width="1.2" height="1.3"/>
	<rect x="122" y="324.6" class="st5" width="1.2" height="1.3"/>
	<rect x="118.3" y="313.3" class="st5" width="1.2" height="1.3"/>
	<rect x="118.3" y="317.1" class="st5" width="1.2" height="1.3"/>
	<rect x="118.3" y="320.8" class="st5" width="1.2" height="1.3"/>
	<rect x="118.3" y="324.6" class="st5" width="1.2" height="1.3"/>
	<rect x="114.6" y="313.3" class="st5" width="1.2" height="1.3"/>
	<rect x="114.6" y="317.1" class="st5" width="1.2" height="1.3"/>
	<rect x="114.6" y="320.8" class="st5" width="1.2" height="1.3"/>
	<rect x="114.6" y="324.6" class="st5" width="1.2" height="1.3"/>
	<polygon class="st6" points="73.3,259.8 84.5,259.8 93,247.5 81.8,247.5 	"/>
	<rect x="73.3" y="259.8" class="st17" width="11.2" height="16.9"/>
	<polygon class="st5" points="84.5,276.6 93.1,276.6 93.1,259.8 93.1,247.5 84.5,259.8 	"/>
	<rect x="88.1" y="259.7" class="st17" width="1.3" height="5.2"/>
	<rect x="88.1" y="268" class="st17" width="1.3" height="5.2"/>
	<rect x="163.9" y="311.2" class="st17" width="1.6" height="4.3"/>
	<rect x="157.6" y="311.2" class="st17" width="1.6" height="4.3"/>
	<rect x="151.2" y="311.2" class="st17" width="1.6" height="4.3"/>
	<rect x="144.8" y="311.2" class="st17" width="1.6" height="4.3"/>
	<rect x="138.4" y="311.2" class="st17" width="1.6" height="4.3"/>
	<rect x="163.9" y="318.8" class="st17" width="1.6" height="4.3"/>
	<rect x="157.6" y="318.8" class="st17" width="1.6" height="4.3"/>
	<rect x="151.2" y="318.8" class="st17" width="1.6" height="4.3"/>
	<rect x="144.8" y="318.8" class="st17" width="1.6" height="4.3"/>
	<rect x="138.4" y="318.8" class="st17" width="1.6" height="4.3"/>
	<polygon class="st16" points="93,276.7 101.7,269.7 101.7,258.8 93,265.8 	"/>
	<polygon class="st17" points="101.7,269.7 110.4,276.7 110.4,265.8 101.7,258.8 	"/>
	<polygon class="st5" points="93.1,276.7 93.1,308.7 110.3,308.7 110.3,276.7 101.7,269.7 	"/>
	<rect x="107" y="281.2" class="st16" width="1" height="1"/>
	<rect x="107" y="284.1" class="st16" width="1" height="1"/>
	<rect x="107" y="287" class="st16" width="1" height="1"/>
	<rect x="104.1" y="278.2" class="st16" width="1" height="1"/>
	<rect x="104.1" y="281.2" class="st16" width="1" height="1"/>
	<rect x="104.1" y="284.1" class="st16" width="1" height="1"/>
	<rect x="104.1" y="287" class="st16" width="1" height="1"/>
	<rect x="101.2" y="275.3" class="st16" width="1" height="1"/>
	<rect x="101.2" y="278.2" class="st16" width="1" height="1"/>
	<rect x="101.2" y="281.2" class="st16" width="1" height="1"/>
	<rect x="101.2" y="284.1" class="st16" width="1" height="1"/>
	<rect x="101.2" y="287" class="st16" width="1" height="1"/>
	<rect x="98.3" y="278.2" class="st16" width="1" height="1"/>
	<rect x="98.3" y="281.2" class="st16" width="1" height="1"/>
	<rect x="98.3" y="284.1" class="st16" width="1" height="1"/>
	<rect x="98.3" y="287" class="st16" width="1" height="1"/>
	<rect x="95.5" y="281.2" class="st16" width="1" height="1"/>
	<rect x="95.5" y="284.1" class="st16" width="1" height="1"/>
	<rect x="95.5" y="287" class="st16" width="1" height="1"/>
	<rect x="107" y="290" class="st16" width="1" height="1"/>
	<rect x="104.1" y="290" class="st16" width="1" height="1"/>
	<rect x="101.2" y="290" class="st16" width="1" height="1"/>
	<rect x="98.3" y="290" class="st16" width="1" height="1"/>
	<rect x="95.5" y="290" class="st16" width="1" height="1"/>
	<polygon class="st16" points="57.9,330.6 110.4,330.6 110.4,308.6 79.2,308.6 	"/>
	<path class="st5" d="M77.2,312.3c0,6.7,4.8,12.1,4.8,12.1s4.8-5.4,4.8-12.1c0-6.7-4.8-12.1-4.8-12.1S77.2,305.6,77.2,312.3
		L77.2,312.3z"/>
	<rect x="81.8" y="310.1" class="st5" width="0.5" height="16.1"/>
	<polygon class="st5" points="82,314.6 80.4,312.9 80.1,313.2 82,315.2 83.9,313.2 83.6,312.9 	"/>
	<path class="st6" d="M92.2,312.7c0,5.9,4.3,10.7,4.3,10.7s4.2-4.8,4.2-10.7c0-5.9-4.2-10.7-4.2-10.7S92.2,306.8,92.2,312.7z"/>
	<path class="st6" d="M84.7,307.8c0,6.7,4.8,12.1,4.8,12.1s4.8-5.4,4.8-12.1s-4.8-12.1-4.8-12.1S84.7,301.2,84.7,307.8z"/>
	<rect x="89.3" y="306.4" class="st5" width="0.5" height="20.3"/>
	<rect x="96.3" y="310.8" class="st6" width="0.5" height="15.6"/>
	<path class="st6" d="M27.1,343.8c0.2,2.8,1.2,5.6,3.1,7.7c1.8-2.2,2.9-4.9,3.1-7.7c-0.2-2.8-1.2-5.5-3.1-7.7
		C28.3,338.3,27.2,341,27.1,343.8L27.1,343.8z"/>
	<rect x="29.9" y="342.9" class="st6" width="0.5" height="12.9"/>
	<path class="st6" d="M19.4,343.8c0.2,2.8,1.2,5.6,3.1,7.7c1.8-2.2,2.9-4.9,3.1-7.7c-0.2-2.8-1.2-5.5-3.1-7.7
		C20.6,338.3,19.5,341,19.4,343.8L19.4,343.8z"/>
	<rect x="22.2" y="342.9" class="st6" width="0.5" height="12.9"/>
	<path class="st17" d="M11.7,343.8c0.2,2.8,1.2,5.6,3.1,7.7c1.8-2.2,2.9-4.9,3.1-7.7c-0.2-2.8-1.2-5.5-3.1-7.7
		C12.9,338.3,11.9,341,11.7,343.8L11.7,343.8z"/>
	<rect x="14.5" y="342.9" class="st6" width="0.5" height="12.9"/>
	<path class="st17" d="M98.2,319.9c-9.6,6.4-12.2,1.7-22.8,1.7c-7.5,0-17.2,9-17.2,9h52.2v-13.2C110.4,317.4,105.2,315.2,98.2,319.9
		z"/>
	<path class="st6" d="M102.1,335.5c-3.8,0.4-3.2-4.1-9-3.6c-3.6,0.3-4.4,2.2-7.8-0.1c-3.4-2.2-7.1-6-14-4.8
		c-7.6,1.2-19.2,25.1-19.2,25.1l12.3-1.5l45.6-10.5l4-4.7C109.4,329.2,105.5,335.3,102.1,335.5L102.1,335.5z"/>
	<path class="st6" d="M226.6,303.4c-6.1,1.8-7-0.7-14.6,0.4c-5.8,0.8-7.5,5.3-12.7,4.2c-5.4-1.1-12.6-3.5-20.4,0.5
		c-8.4,4.4-6.3,18.3-6.3,18.3l14,3.9h57.2v-31.4C234.9,295.7,230.8,302.1,226.6,303.4L226.6,303.4z"/>
	<path class="st16" d="M103.6,326l-4.4,18.1l11.3-1.2l-4.1-16.9c-0.2-0.8-0.9-1.3-1.7-1.1C104.2,325,103.8,325.4,103.6,326z"/>
	<rect x="104.8" y="329.2" class="st6" width="0.5" height="10.7"/>
	<polygon class="st6" points="104.8,333.9 104.8,335.8 103,334 102.7,334.3 105.3,336.9 105.3,334 106.8,331.6 106.4,331.4 	"/>
	<path class="st16" d="M96.9,325.4l-4.4,18.2l11.3-1.2l-4.1-16.9c-0.2-0.8-0.9-1.3-1.7-1.1C97.5,324.4,97,324.9,96.9,325.4
		L96.9,325.4z"/>
	<rect x="98.1" y="328.6" class="st6" width="0.5" height="15.4"/>
	<polygon class="st6" points="98.1,333.3 98.1,335.2 96.3,333.4 96,333.7 98.5,336.3 98.5,333.4 100,331 99.6,330.8 	"/>
	<path class="st6" d="M99.5,339.8c-2.2,3-3.7,0.2-6.5,1.3c-3.7,1.5-6.7,9.6-11,8.8s-7-1.6-7-1.6l-1.4,4.4l32.9,1.2l4.8-19.3
		C107.4,333.4,101.6,336.9,99.5,339.8L99.5,339.8z"/>
	<path class="st5" d="M95.8,348.8c-3.7-1-1.6-4.9-7.3-6.6c-3.5-1-4.9,0.5-7.3-2.8c-2.4-3.3-1.9-7.5-8.7-8.9
		c-7.6-1.5-32.3,18.4-32.3,18.4l-5.3,6.9h66.8l5.3-3C104.7,345.4,99.1,349.7,95.8,348.8L95.8,348.8z"/>
	<polygon class="st5" points="101.7,340.4 118.1,340.4 126.8,330.6 110.4,330.6 	"/>
	<rect x="101.7" y="340.4" class="st17" width="16.4" height="15.4"/>
	<polygon class="st4" points="118,355.9 126.9,355.9 126.9,340.4 126.9,330.6 118,340.4 	"/>
	<rect x="108.1" y="344.3" class="st16" width="3.5" height="2.5"/>
	<rect x="108.1" y="349.9" class="st16" width="3.5" height="2.5"/>
	<polygon class="st16" points="34.9,330.6 57.8,330.6 65.2,323.1 42.2,323.1 	"/>
	<polygon class="st4" points="57.9,330.6 57.9,355.9 72.5,355.9 72.5,330.6 65.2,323.1 	"/>
	<rect x="34.9" y="330.6" class="st17" width="23" height="25.2"/>
	<rect x="54.5" y="333.3" class="st5" width="1" height="1"/>
	<rect x="54.5" y="336.2" class="st5" width="1" height="1"/>
	<rect x="54.5" y="339.1" class="st5" width="1" height="1"/>
	<rect x="54.5" y="342.1" class="st5" width="1" height="1"/>
	<rect x="54.5" y="345" class="st5" width="1" height="1"/>
	<rect x="51.6" y="333.3" class="st5" width="1" height="1"/>
	<rect x="51.6" y="336.2" class="st5" width="1" height="1"/>
	<rect x="51.6" y="339.1" class="st5" width="1" height="1"/>
	<rect x="51.6" y="342.1" class="st5" width="1" height="1"/>
	<rect x="51.6" y="345" class="st5" width="1" height="1"/>
	<rect x="48.8" y="333.3" class="st5" width="1" height="1"/>
	<rect x="48.8" y="336.2" class="st5" width="1" height="1"/>
	<rect x="48.8" y="339.1" class="st5" width="1" height="1"/>
	<rect x="48.8" y="342.1" class="st5" width="1" height="1"/>
	<rect x="48.8" y="345" class="st5" width="1" height="1"/>
	<rect x="45.9" y="333.3" class="st5" width="1" height="1"/>
	<rect x="45.9" y="336.2" class="st5" width="1" height="1"/>
	<rect x="45.9" y="339.1" class="st5" width="1" height="1"/>
	<rect x="45.9" y="342.1" class="st5" width="1" height="1"/>
	<rect x="45.9" y="345" class="st5" width="1" height="1"/>
	<rect x="43" y="333.3" class="st5" width="1" height="1"/>
	<rect x="43" y="336.2" class="st5" width="1" height="1"/>
	<rect x="43" y="339.1" class="st5" width="1" height="1"/>
	<rect x="43" y="342.1" class="st5" width="1" height="1"/>
	<rect x="43" y="345" class="st5" width="1" height="1"/>
	<rect x="40.1" y="333.3" class="st5" width="1" height="1"/>
	<rect x="40.1" y="336.2" class="st5" width="1" height="1"/>
	<rect x="40.1" y="339.1" class="st5" width="1" height="1"/>
	<rect x="40.1" y="342.1" class="st5" width="1" height="1"/>
	<rect x="40.1" y="345" class="st5" width="1" height="1"/>
	<rect x="37.2" y="333.3" class="st5" width="1" height="1"/>
	<rect x="37.2" y="336.2" class="st5" width="1" height="1"/>
	<rect x="37.2" y="339.1" class="st5" width="1" height="1"/>
	<rect x="37.2" y="342.1" class="st5" width="1" height="1"/>
	<rect x="37.2" y="345" class="st5" width="1" height="1"/>
	<rect x="54.5" y="348" class="st5" width="1" height="1"/>
	<rect x="51.6" y="348" class="st5" width="1" height="1"/>
	<rect x="48.8" y="348" class="st5" width="1" height="1"/>
	<rect x="45.9" y="348" class="st5" width="1" height="1"/>
	<rect x="43" y="348" class="st5" width="1" height="1"/>
	<rect x="40.1" y="348" class="st5" width="1" height="1"/>
	<rect x="37.2" y="348" class="st5" width="1" height="1"/>
	<polygon class="st17" points="36.7,330.6 37.5,330.6 44.8,323.1 44,323.1 	"/>
	<polygon class="st17" points="39.8,330.6 40.5,330.6 47.8,323.1 47.1,323.1 	"/>
	<polygon class="st17" points="42.9,330.6 43.6,330.6 50.9,323.1 50.2,323.1 	"/>
	<polygon class="st17" points="46,330.6 46.7,330.6 54,323.1 53.3,323.1 	"/>
	<polygon class="st17" points="49.1,330.6 49.8,330.6 57.1,323.1 56.4,323.1 	"/>
	<polygon class="st17" points="52.2,330.6 52.9,330.6 60.2,323.1 59.5,323.1 	"/>
	<polygon class="st17" points="55.2,330.6 56,330.6 63.3,323.1 62.5,323.1 	"/>
	<rect x="126.8" y="330.6" class="st16" width="41.9" height="25.2"/>
	<path class="st6" d="M157.6,334.3c0,5.7,4.1,10.4,4.1,10.4s4.1-4.7,4.1-10.4s-4.1-10.4-4.1-10.4S157.6,328.5,157.6,334.3z"/>
	<rect x="161.5" y="332.4" class="st4" width="0.5" height="13.8"/>
	<path class="st6" d="M139.6,335.5c0,5.7,4.1,10.4,4.1,10.4s4.1-4.7,4.1-10.4s-4.1-10.4-4.1-10.4S139.6,329.8,139.6,335.5z"/>
	<rect x="143.5" y="335.3" class="st5" width="0.5" height="13.8"/>
	<path class="st17" d="M129.5,334.7c0,7.5,5.9,13.6,5.9,13.6s5.9-6.1,5.9-13.6c0-7.5-5.9-13.6-5.9-13.6S129.5,327.1,129.5,334.7z"/>
	<rect x="135.1" y="332.3" class="st4" width="0.5" height="18.1"/>
	<path class="st6" d="M157,341.6c-6.9,0.9-8,2.8-10.4,5c-2.4,2.2-3.9,1.2-7.3,1.9c-5.7,1.1-3.6,3.8-7.3,4.5
		c-1.5,0.3-3.4-0.2-5.3-0.3v3.2h41.9v-12C165.1,342,161.1,341.2,157,341.6z"/>
	<path class="st5" d="M69.1,264.6c-0.7,0-1.5,0.2-2.1,0.6c-0.1-2.3-2-4.1-4.3-4c-1.7,0.1-3.2,1.1-3.7,2.7c-0.7-0.7-1.7-1.1-2.7-1.1
		c-2.1,0-3.9,1.7-4.1,3.8c-0.7-0.6-1.6-0.9-2.5-0.9c-2.3,0-4.2,1.9-4.2,4.2c0,0,0,0,0,0v0.1c-0.5-0.3-1.1-0.4-1.7-0.4
		c-2.3,0-4.1,1.8-4.1,4.1c-0.8-0.9-1.9-1.4-3.1-1.4c-2.3,0-4.2,1.9-4.2,4.2c0,0,0,0,0,0h40.9v-7.9C73.3,266.5,71.4,264.6,69.1,264.6
		C69.1,264.6,69.1,264.6,69.1,264.6z"/>
	<path class="st5" d="M207.8,313.2c-12.9,0-12.3,2.9-23.9-3.5c-8.5-4.7-15.2-1.1-15.2-1.1v22h63.4
		C232.1,330.5,216.9,313.1,207.8,313.2L207.8,313.2z"/>
	<rect x="233.1" y="330.6" class="st17" width="41.6" height="25.2"/>
	<rect x="243.9" y="299.3" class="st16" width="13.3" height="4.8"/>
	<polygon class="st19" points="243.9,299.3 257.1,299.3 263,293.5 249.8,293.5 	"/>
	<rect x="238" y="309.8" class="st16" width="13.3" height="20.8"/>
	<polygon class="st19" points="238,309.8 251.2,309.8 257.1,304.1 243.9,304.1 	"/>
	<polygon class="st20" points="257.1,299.3 268.9,299.3 263,293.5 	"/>
	<polygon class="st20" points="268.9,299.2 257.2,299.2 257.2,304.2 251.2,309.8 251.2,330.7 257.2,330.7 269,330.7 274.6,330.7 
		274.6,309.8 268.9,304.2 	"/>
	<rect x="259.9" y="303.1" class="st6" width="1.2" height="2.5"/>
	<rect x="264.9" y="303.1" class="st6" width="1.2" height="2.5"/>
	<rect x="259.9" y="307.4" class="st6" width="1.2" height="2.5"/>
	<rect x="264.9" y="307.4" class="st6" width="1.2" height="2.5"/>
	<rect x="259.9" y="311.8" class="st6" width="1.2" height="2.5"/>
	<rect x="264.9" y="311.8" class="st6" width="1.2" height="2.5"/>
	<rect x="259.9" y="316.1" class="st6" width="1.2" height="2.5"/>
	<rect x="264.9" y="316.1" class="st6" width="1.2" height="2.5"/>
	<rect x="259.9" y="320.4" class="st6" width="1.2" height="2.5"/>
	<rect x="264.9" y="320.4" class="st6" width="1.2" height="2.5"/>
	<rect x="259.9" y="324.8" class="st6" width="1.2" height="2.5"/>
	<rect x="264.9" y="324.8" class="st6" width="1.2" height="2.5"/>
	<rect x="254.8" y="311.8" class="st6" width="1.2" height="2.5"/>
	<rect x="254.8" y="316.1" class="st6" width="1.2" height="2.5"/>
	<rect x="254.8" y="320.4" class="st6" width="1.2" height="2.5"/>
	<rect x="254.8" y="324.8" class="st6" width="1.2" height="2.5"/>
	<rect x="270" y="311.8" class="st6" width="1.2" height="2.5"/>
	<rect x="270" y="316.1" class="st6" width="1.2" height="2.5"/>
	<rect x="270" y="320.4" class="st6" width="1.2" height="2.5"/>
	<rect x="270" y="324.8" class="st6" width="1.2" height="2.5"/>
	<rect x="253.6" y="338.3" class="st4" width="0.5" height="17.5"/>
	
		<rect x="253" y="342.5" transform="matrix(0.7659 -0.6429 0.6429 0.7659 -161.4848 243.1959)" class="st4" width="0.5" height="1.8"/>
	
		<rect x="253.2" y="342.4" transform="matrix(0.6431 -0.7658 0.7658 0.6431 -171.369 317.6507)" class="st4" width="3.8" height="0.5"/>
	
		<rect x="252.9" y="345.4" transform="matrix(0.6431 -0.7658 0.7658 0.6431 -173.4694 319.0583)" class="st4" width="5.2" height="0.5"/>
	<path class="st16" d="M244.6,343.8c-0.4-0.3-0.5-0.8-0.4-1.3c0.3-1.2,0.7-3,0.1-3.7c-0.2-0.2-0.5-0.4-0.8-0.5
		c-0.5-0.1-0.9-0.7-0.9-1.2l0,0c0-2.1-1-3.7-2.2-3.7s-2.2,1.7-2.2,3.7l0,0c0,0.6-0.3,1.1-0.9,1.2c-0.3,0.1-0.6,0.2-0.8,0.5
		c-0.6,0.7-0.2,2.5,0.1,3.7c0.1,0.5,0,1-0.4,1.3c-0.4,0.3-0.7,0.8-0.8,1.3c-0.3,1.4,1.8,4.5,5,7.3c3.1-2.8,5.2-5.9,5-7.3
		C245.4,344.6,245.1,344.2,244.6,343.8L244.6,343.8z"/>
	<polygon class="st4" points="240.4,340.6 238.8,339.4 238.5,339.7 240.4,341.1 242.3,339.8 242,339.4 	"/>
	<polygon class="st4" points="240.5,347.8 237.5,345.6 237.3,346 240.5,348.3 243.7,346 243.4,345.6 	"/>
	<polygon class="st4" points="240.4,344 237.7,341.9 237.4,342.3 240.4,344.5 243.4,342.3 243.1,342 	"/>
	<rect x="240.2" y="336.4" class="st4" width="0.5" height="19.4"/>
	<path class="st6" d="M271,337.8c0-2.4-2-4.4-4.4-4.4s-4.4,2-4.4,4.4c0,0.6,0.1,1.3,0.4,1.9c0.5,1.1,0.5,2.4,0,3.6
		c-0.3,0.6-0.4,1.2-0.4,1.9c-0.1,2.4,1.8,4.5,4.2,4.6c2.4,0.1,4.5-1.8,4.6-4.2c0-0.1,0-0.3,0-0.4c0-0.6-0.1-1.3-0.4-1.8
		c-0.5-1.1-0.5-2.4,0-3.6C270.9,339.1,271,338.5,271,337.8L271,337.8z"/>
	<rect x="266.5" y="339.7" class="st4" width="0.5" height="10"/>
	
		<rect x="265.5" y="341.4" transform="matrix(0.7057 -0.7085 0.7085 0.7057 -164.7149 289.1118)" class="st4" width="0.5" height="2.9"/>
	
		<rect x="266.1" y="345.6" transform="matrix(0.7082 -0.706 0.706 0.7082 -165.8952 290.2973)" class="st4" width="4.4" height="0.5"/>
	<rect x="266.5" y="337.5" class="st4" width="0.5" height="18.3"/>
	
		<rect x="265.5" y="341.4" transform="matrix(0.7057 -0.7085 0.7085 0.7057 -164.7149 289.1118)" class="st4" width="0.5" height="2.9"/>
	
		<rect x="266.3" y="342.6" transform="matrix(0.7082 -0.706 0.706 0.7082 -163.9147 289.043)" class="st4" width="2.9" height="0.5"/>
	
		<rect x="265.8" y="339.3" transform="matrix(0.7056 -0.7086 0.7086 0.7056 -162.773 288.653)" class="st4" width="0.5" height="2"/>
	<rect x="266.4" y="340" transform="matrix(0.7082 -0.706 0.706 0.7082 -162.1599 288.0332)" class="st4" width="2" height="0.5"/>
	
		<rect x="266.1" y="345.6" transform="matrix(0.7082 -0.706 0.706 0.7082 -165.8952 290.2973)" class="st4" width="4.4" height="0.5"/>
	
		<rect x="264.9" y="343.7" transform="matrix(0.7056 -0.7086 0.7086 0.7056 -167.0138 289.6853)" class="st4" width="0.5" height="4.4"/>
	<path class="st16" d="M245.8,326.8c-0.9,0-1.7,0.2-2.5,0.5c0-0.1,0-0.2,0-0.4c0-3.9-4-7.1-8.9-7.1c-0.9,0-1.8,0.1-2.7,0.3
		c-0.2-2.3-2.6-4.1-5.5-4.1v14.6h25C250.9,328.5,248.6,326.8,245.8,326.8L245.8,326.8z"/>
	<polygon class="st21" points="168.7,332.1 168.7,355.8 219.3,355.8 219.3,330.6 168.7,330.6 	"/>
	<polygon class="st22" points="168.7,330.6 219.3,330.6 226.2,316 175.6,316 	"/>
	<polygon class="st23" points="226.2,316.1 219.4,330.6 219.4,355.9 233.1,355.9 233.1,330.6 233.1,330.7 233.1,330.7 	"/>
	<rect x="196.2" y="330.6" class="st6" width="10.3" height="25.2"/>
	<polygon class="st21" points="189.3,323.6 196.2,330.6 206.5,330.6 199.6,323.6 	"/>
	<polygon class="st20" points="189.3,323.6 182.4,330.6 182.6,330.7 182.4,330.7 182.4,355.9 196.2,355.9 196.2,330.7 196,330.7 
		196.2,330.6 	"/>
	<path class="st23" d="M226.2,335.6c-0.8,0-1.4,0.6-1.4,1.4l0,0v2.2h2.8V337C227.6,336.2,227,335.6,226.2,335.6
		C226.2,335.6,226.2,335.6,226.2,335.6z"/>
	<path class="st23" d="M213.1,335.6c-0.8,0-1.4,0.6-1.4,1.4l0,0v2.2h2.8V337C214.4,336.2,213.8,335.6,213.1,335.6z"/>
	<path class="st23" d="M189.3,335.6L189.3,335.6c-0.8,0-1.4,0.6-1.4,1.4l0,0v2.2h2.8V337C190.7,336.2,190.1,335.6,189.3,335.6
		L189.3,335.6L189.3,335.6z"/>
	<path class="st23" d="M176,335.6c-0.8,0-1.4,0.6-1.4,1.4c0,0,0,0,0,0v2.2h2.8V337C177.4,336.2,176.8,335.6,176,335.6L176,335.6z"/>
	<path class="st23" d="M201.6,335.6c-0.8,0-1.4,0.6-1.4,1.4c0,0,0,0,0,0v2.2h2.8V337C203.1,336.2,202.4,335.6,201.6,335.6
		L201.6,335.6L201.6,335.6z"/>
	<path class="st23" d="M226.2,341.7c-0.8,0-1.4,0.6-1.4,1.4l0,0v2.2h2.8v-2.2C227.6,342.3,227,341.7,226.2,341.7
		C226.2,341.7,226.2,341.7,226.2,341.7z"/>
	<path class="st23" d="M213.1,341.7c-0.8,0-1.4,0.6-1.4,1.4l0,0v2.2h2.8v-2.2C214.4,342.3,213.8,341.7,213.1,341.7z"/>
	<path class="st23" d="M189.3,341.7L189.3,341.7c-0.8,0-1.4,0.6-1.4,1.4l0,0v2.2h2.8v-2.2C190.7,342.3,190.1,341.7,189.3,341.7
		L189.3,341.7L189.3,341.7z"/>
	<path class="st23" d="M176,341.7c-0.8,0-1.4,0.6-1.4,1.4c0,0,0,0,0,0v2.2h2.8v-2.2C177.4,342.3,176.8,341.7,176,341.7L176,341.7z"
		/>
	<path class="st23" d="M201.6,341.7c-0.8,0-1.4,0.6-1.4,1.4c0,0,0,0,0,0v2.2h2.8v-2.2C203.1,342.3,202.4,341.7,201.6,341.7
		L201.6,341.7L201.6,341.7z"/>
	<path class="st23" d="M226.2,347.8c-0.8,0-1.4,0.6-1.4,1.4l0,0v2.2h2.8v-2.2C227.6,348.4,227,347.8,226.2,347.8
		C226.2,347.8,226.2,347.8,226.2,347.8z"/>
	<path class="st23" d="M213.1,347.8c-0.8,0-1.4,0.6-1.4,1.4l0,0v2.2h2.8v-2.2C214.4,348.4,213.8,347.8,213.1,347.8L213.1,347.8
		L213.1,347.8z"/>
	<path class="st23" d="M189.3,347.8L189.3,347.8c-0.8,0-1.4,0.6-1.4,1.4l0,0v2.2h2.8v-2.2C190.7,348.4,190.1,347.8,189.3,347.8
		L189.3,347.8L189.3,347.8z"/>
	<path class="st23" d="M176,347.8c-0.8,0-1.4,0.6-1.4,1.4c0,0,0,0,0,0v2.2h2.8v-2.2C177.4,348.4,176.8,347.8,176,347.8L176,347.8z"
		/>
	<path class="st23" d="M201.6,347.8c-0.8,0-1.4,0.6-1.4,1.4c0,0,0,0,0,0v2.2h2.8v-2.2C203.1,348.4,202.4,347.8,201.6,347.8
		L201.6,347.8L201.6,347.8z"/>
</g>
</svg>
