<svg id="Layer_1" data-name="Layer 1" xmlns="http://www.w3.org/2000/svg" xmlns:xlink="http://www.w3.org/1999/xlink" viewBox="0 0 291.72 480.53"><defs><style>.cls-1{mask:url(#mask);filter:url(#luminosity-noclip-5);}.cls-2,.cls-4,.cls-6,.cls-8{mix-blend-mode:multiply;}.cls-2{fill:url(#linear-gradient);}.cls-3{mask:url(#mask-2);filter:url(#luminosity-noclip-6);}.cls-4{fill:url(#linear-gradient-2);}.cls-5{mask:url(#mask-3);filter:url(#luminosity-noclip-7);}.cls-6{fill:url(#linear-gradient-3);}.cls-7{mask:url(#mask-4);filter:url(#luminosity-noclip-8);}.cls-8{fill:url(#linear-gradient-4);}.cls-9{fill:#005995;}.cls-10{fill:#068be5;}.cls-11{fill:#ffcfcd;}.cls-12{fill:url(#New_Gradient_Swatch_copy_11);}.cls-13{fill:#ff4463;}.cls-14{fill:#bf1c3c;}.cls-15{fill:url(#New_Gradient_Swatch_copy_11-2);}.cls-16{fill:#f49fa5;}.cls-17{fill:url(#New_Gradient_Swatch_copy_11-3);}.cls-18{fill:#fff;}.cls-19{fill:#c1e3f4;}.cls-20{fill:url(#New_Gradient_Swatch_copy_11-4);}.cls-21{fill:url(#linear-gradient-5);}.cls-22{fill:#a32546;}.cls-23{fill:#631e30;}.cls-24{fill:#4d1725;}.cls-25{fill:#f7faf1;}.cls-26{fill:url(#New_Gradient_Swatch_copy_11-5);}.cls-27{fill:url(#New_Gradient_Swatch_copy_11-6);}.cls-28{fill:url(#linear-gradient-6);}.cls-29{fill:url(#linear-gradient-7);}.cls-30{fill:url(#New_Gradient_Swatch_copy_11-7);}.cls-31{fill:url(#New_Gradient_Swatch_copy_11-8);}.cls-32{fill:url(#New_Gradient_Swatch_copy_11-9);}.cls-33{mask:url(#mask-5);}.cls-34{fill:url(#linear-gradient-8);}.cls-35{mask:url(#mask-6);}.cls-36{fill:url(#linear-gradient-9);}.cls-37{mask:url(#mask-7);}.cls-38{fill:url(#linear-gradient-10);}.cls-39{mask:url(#mask-8);}.cls-40{fill:url(#linear-gradient-11);}.cls-41{fill:url(#linear-gradient-12);}.cls-42{fill:url(#New_Gradient_Swatch_copy_11-10);}.cls-43{fill:#1985cf;}.cls-44{fill:#70bfe6;}.cls-45{fill:#3da9f2;}.cls-46{filter:url(#luminosity-noclip-4);}.cls-47{filter:url(#luminosity-noclip-3);}.cls-48{filter:url(#luminosity-noclip-2);}.cls-49{filter:url(#luminosity-noclip);}</style><filter id="luminosity-noclip" x="121.07" y="-8431.89" width="27.74" height="32766" filterUnits="userSpaceOnUse" color-interpolation-filters="sRGB"><feFlood flood-color="#fff" result="bg"/><feBlend in="SourceGraphic" in2="bg"/></filter><mask id="mask" x="121.07" y="-8431.89" width="27.74" height="32766" maskUnits="userSpaceOnUse"><g class="cls-49"/></mask><linearGradient id="linear-gradient" x1="-5896.48" y1="96.74" x2="-5874.03" y2="141.19" gradientTransform="matrix(-0.99, -0.16, -0.16, 0.99, -5668.56, -939.3)" gradientUnits="userSpaceOnUse"><stop offset="0" stop-color="#fafafa"/><stop offset="1" stop-color="#fff"/></linearGradient><filter id="luminosity-noclip-2" x="97.41" y="-8431.89" width="30.47" height="32766" filterUnits="userSpaceOnUse" color-interpolation-filters="sRGB"><feFlood flood-color="#fff" result="bg"/><feBlend in="SourceGraphic" in2="bg"/></filter><mask id="mask-2" x="97.41" y="-8431.89" width="30.47" height="32766" maskUnits="userSpaceOnUse"><g class="cls-48"/></mask><linearGradient id="linear-gradient-2" x1="-5850.09" y1="116.08" x2="-5904.06" y2="131.15" gradientTransform="matrix(-1, 0, 0, 1, -5760, 0)" xlink:href="#linear-gradient"/><filter id="luminosity-noclip-3" x="112.85" y="-8431.89" width="56.31" height="32766" filterUnits="userSpaceOnUse" color-interpolation-filters="sRGB"><feFlood flood-color="#fff" result="bg"/><feBlend in="SourceGraphic" in2="bg"/></filter><mask id="mask-3" x="112.85" y="-8431.89" width="56.31" height="32766" maskUnits="userSpaceOnUse"><g class="cls-47"/></mask><linearGradient id="linear-gradient-3" x1="-5878.76" y1="134.51" x2="-5918.04" y2="110" gradientTransform="matrix(-1, 0, 0, 1, -5760, 0)" xlink:href="#linear-gradient"/><filter id="luminosity-noclip-4" x="112.9" y="-8431.89" width="22.32" height="32766" filterUnits="userSpaceOnUse" color-interpolation-filters="sRGB"><feFlood flood-color="#fff" result="bg"/><feBlend in="SourceGraphic" in2="bg"/></filter><mask id="mask-4" x="112.9" y="-8431.89" width="22.32" height="32766" maskUnits="userSpaceOnUse"><g class="cls-46"/></mask><linearGradient id="linear-gradient-4" x1="-5875.94" y1="116.13" x2="-5904.88" y2="138" gradientTransform="matrix(-1, 0, 0, 1, -5760, 0)" xlink:href="#linear-gradient"/><linearGradient id="New_Gradient_Swatch_copy_11" x1="-5535.98" y1="-3092.53" x2="-5438.93" y2="-3042.29" gradientTransform="matrix(-0.5, -0.86, -0.86, 0.5, -5343.45, -3074.62)" gradientUnits="userSpaceOnUse"><stop offset="0" stop-color="#ed7d88"/><stop offset="1" stop-color="#ffcfcd"/></linearGradient><linearGradient id="New_Gradient_Swatch_copy_11-2" x1="-5430.64" y1="-3091.62" x2="-5460.05" y2="-3086.34" xlink:href="#New_Gradient_Swatch_copy_11"/><linearGradient id="New_Gradient_Swatch_copy_11-3" x1="-274.89" y1="-3256.88" x2="-299.99" y2="-3230.2" gradientTransform="matrix(0.5, 0.86, -0.86, 0.5, -2389.86, 2016.2)" xlink:href="#New_Gradient_Swatch_copy_11"/><linearGradient id="New_Gradient_Swatch_copy_11-4" x1="-5923.02" y1="346.32" x2="-5925.46" y2="401.87" gradientTransform="matrix(-1, 0, 0, 1, -5760, 0)" xlink:href="#New_Gradient_Swatch_copy_11"/><linearGradient id="linear-gradient-5" x1="-5654.75" y1="453.58" x2="-5623.89" y2="453.58" gradientTransform="matrix(-1, 0, 0, 1, -5472.68, 0)" gradientUnits="userSpaceOnUse"><stop offset="0" stop-color="#8c203c"/><stop offset="1" stop-color="#7a253b"/></linearGradient><linearGradient id="New_Gradient_Swatch_copy_11-5" x1="-5882.52" y1="288.4" x2="-5887.28" y2="396.82" gradientTransform="matrix(-1, 0, 0, 1, -5760, 0)" xlink:href="#New_Gradient_Swatch_copy_11"/><linearGradient id="New_Gradient_Swatch_copy_11-6" x1="-5891.8" y1="341.24" x2="-5878.99" y2="413.35" gradientTransform="matrix(-1, 0, 0, 1, -5760, 0)" xlink:href="#New_Gradient_Swatch_copy_11"/><linearGradient id="linear-gradient-6" x1="-5610.96" y1="430.43" x2="-5564.6" y2="430.43" xlink:href="#linear-gradient-5"/><linearGradient id="linear-gradient-7" x1="-5610.31" y1="421" x2="-5591.24" y2="421" xlink:href="#linear-gradient-5"/><linearGradient id="New_Gradient_Swatch_copy_11-7" x1="-5902.83" y1="144.26" x2="-5899.09" y2="178.43" gradientTransform="matrix(-1, 0, 0, 1, -5760, 0)" xlink:href="#New_Gradient_Swatch_copy_11"/><linearGradient id="New_Gradient_Swatch_copy_11-8" x1="-5894.8" y1="177.48" x2="-5881.04" y2="205.78" gradientTransform="matrix(-1, 0, 0, 1, -5760, 0)" xlink:href="#New_Gradient_Swatch_copy_11"/><linearGradient id="New_Gradient_Swatch_copy_11-9" x1="-5887.7" y1="126.62" x2="-5905.06" y2="158.78" gradientTransform="matrix(-1, 0, 0, 1, -5760, 0)" xlink:href="#New_Gradient_Swatch_copy_11"/><filter id="luminosity-noclip-5" x="121.07" y="85.9" width="27.74" height="27.74" filterUnits="userSpaceOnUse" color-interpolation-filters="sRGB"><feFlood flood-color="#fff" result="bg"/><feBlend in="SourceGraphic" in2="bg"/></filter><mask id="mask-5" x="121.07" y="85.9" width="27.74" height="27.74" maskUnits="userSpaceOnUse"><g class="cls-1"><circle class="cls-2" cx="134.94" cy="99.78" r="13.87" transform="translate(-14.19 22.81) rotate(-9.18)"/></g></mask><linearGradient id="linear-gradient-8" x1="-5896.48" y1="96.74" x2="-5874.03" y2="141.19" gradientTransform="matrix(-0.99, -0.16, -0.16, 0.99, -5668.56, -939.3)" gradientUnits="userSpaceOnUse"><stop offset="0" stop-color="#631e30"/><stop offset="1" stop-color="#4d1725"/></linearGradient><filter id="luminosity-noclip-6" x="97.41" y="98.41" width="30.47" height="44.2" filterUnits="userSpaceOnUse" color-interpolation-filters="sRGB"><feFlood flood-color="#fff" result="bg"/><feBlend in="SourceGraphic" in2="bg"/></filter><mask id="mask-6" x="97.41" y="98.41" width="30.47" height="44.2" maskUnits="userSpaceOnUse"><g class="cls-3"><path class="cls-4" d="M99.32,123.09c1.32,3.16,3.24,4.71,3.37,8.31a14.18,14.18,0,0,1-5.28,10.89c20.48,3.36,35.39-20.11,29-33.45-2.87-6-10.16-11.89-17.29-10.1C100.6,100.87,95.71,114.49,99.32,123.09Z"/></g></mask><linearGradient id="linear-gradient-9" x1="-5850.09" y1="116.08" x2="-5904.06" y2="131.15" gradientTransform="matrix(-1, 0, 0, 1, -5760, 0)" xlink:href="#linear-gradient-8"/><filter id="luminosity-noclip-7" x="112.85" y="96.05" width="56.31" height="61.94" filterUnits="userSpaceOnUse" color-interpolation-filters="sRGB"><feFlood flood-color="#fff" result="bg"/><feBlend in="SourceGraphic" in2="bg"/></filter><mask id="mask-7" x="112.85" y="96.05" width="56.31" height="61.94" maskUnits="userSpaceOnUse"><g class="cls-5"><path class="cls-6" d="M130.31,158c-.75-2.75-1.64-5.55-2.45-8.29a11.23,11.23,0,0,1-3.9-5.09c-.49-1.35-1.62-4.47.05-6.2a2.88,2.88,0,0,1,1.51-.86c2.73-.91,5,.64,6.57,3.12.38.7,3.93,2.54,3-1,0-.06-.66-2.48-.59-2.48a15.88,15.88,0,0,1-.27-3.39c.1-2,1.11-6,2.48-7.33,1.78-1.72,3.34-1,6-2.48,1.17-.62,4.08-2,5.44-5a9.08,9.08,0,0,0,.56-5.51c5.43-1.17,11,.71,14,5.68v0c.92,2,1.62,3.77,1.62,3.77.43.76,1.61,1.46,4.84,1.24a5.08,5.08,0,0,1-3.77-5.28c0-3.29-4.36-12.66-10.72-17.62-13.44-10.45-38.47-5.77-41.59,18.64C111.31,136.36,120,138.87,130.31,158Z"/></g></mask><linearGradient id="linear-gradient-10" x1="-5878.76" y1="134.51" x2="-5918.04" y2="110" gradientTransform="matrix(-1, 0, 0, 1, -5760, 0)" xlink:href="#linear-gradient-5"/><filter id="luminosity-noclip-8" x="112.9" y="97.03" width="22.32" height="60.95" filterUnits="userSpaceOnUse" color-interpolation-filters="sRGB"><feFlood flood-color="#fff" result="bg"/><feBlend in="SourceGraphic" in2="bg"/></filter><mask id="mask-8" x="112.9" y="97.03" width="22.32" height="60.95" maskUnits="userSpaceOnUse"><g class="cls-7"><path class="cls-8" d="M115.07,134.25c1.4,3.34,2.8,4.74,5.92,9.11A136.56,136.56,0,0,1,130.31,158c-.75-2.75-1.64-5.55-2.45-8.29a11.23,11.23,0,0,1-3.9-5.09c-.49-1.35-1.62-4.47.05-6.2a2.58,2.58,0,0,1,1.51-.86c2.73-.91,5,.64,6.57,3.12.38.7,3.93,2.54,3-1,0-.06-.66-2.48-.59-2.48a16.47,16.47,0,0,1-.27-3.39c-7.5-7.44-14.74-23.35-2.53-36.74C115.87,101.08,109.06,120,115.07,134.25Z"/></g></mask><linearGradient id="linear-gradient-11" x1="-5875.94" y1="116.13" x2="-5904.88" y2="138" gradientTransform="matrix(-1, 0, 0, 1, -5760, 0)" xlink:href="#linear-gradient-8"/><linearGradient id="linear-gradient-12" x1="-5912.83" y1="229.44" x2="-5961.32" y2="261.44" gradientTransform="matrix(-1, 0, 0, 1, -5760, 0)" gradientUnits="userSpaceOnUse"><stop offset="0" stop-color="#ed7d88"/><stop offset="0.71" stop-color="#fab7b9"/></linearGradient><linearGradient id="New_Gradient_Swatch_copy_11-10" x1="-710.42" y1="1405.73" x2="-710.11" y2="1405.45" gradientTransform="translate(261.66 -1268.01) rotate(-23.73)" xlink:href="#New_Gradient_Swatch_copy_11"/></defs><title>womanPhase1</title><path class="cls-9" d="M171.19,254c8.58-3.37,12.32-13.39,17.21-30.39A104.43,104.43,0,0,0,189.6,172a9.53,9.53,0,0,0-3.72-5.88c-21.11-15.87-47.75-17.8-65.29-6.25-2.63,1.74-5.93,3.8-8.66,7.81C92.24,196.63,143.45,264.91,171.19,254Z"/><path class="cls-10" d="M111.93,167.68c12.72,7.07,54.27,9.41,63.37,7.9a39.43,39.43,0,0,0,13.7-5.51,9.36,9.36,0,0,0-3.12-3.95C160.84,147.29,128,148.11,111.93,167.68Z"/><path class="cls-11" d="M59.46,108c3.44,59.88.54,56.91,26.93,65.51,3.41,1.21,7.68,2.77,12.41,4.29.07.11,6.91,2,7,2.06,6.46,1.72,12,3.05,19.44,3.34a6.09,6.09,0,0,0,5.74-3.27c9.09-18.06-9.12-22.3-28.48-25.88l-2.1-.41s-11.87-2-18.28-4.55c-8.06-31.11-8.23-39.07-9.31-40.31l0-.09c-.23,0-.49,0-.72,0A11.1,11.1,0,0,1,64.69,110,11.45,11.45,0,0,1,59.46,108Z"/><path class="cls-12" d="M59.46,108c3.44,59.88.53,56.91,26.93,65.51,15.54,5.52,21.1,6.83,21.1,6.83s-.25-25.53-.25-25.53l-2.83-.41c-6.23-3.77-10.29-.79-13.15,5.91-2.31,5.43-.13,9.79-9.08,7.14-16.3-4.82-16-9.48-17.61-25.54-.72-7.05-1.41-16.75-1.51-28.42a15.3,15.3,0,0,0,9.78-4.71l.09,0s-.07,0-.12,0l0,0C72.41,108.67,59.83,108,59.46,108Z"/><path class="cls-13" d="M94.1,176.5a111.62,111.62,0,0,0,14.73,5.36L115.74,166c2-2.34,5.67-6.19,7.29-8.58,0,0,0-.05-.11-.05-.73-.37-1.4-.68-2.13-1h-.05c-5.53-2.58-5.5-1.55-15.3-3.28-2.65-.57-3.17-.83-4.37-.31C94.36,155.51,92.24,168.51,94.1,176.5Z"/><path class="cls-14" d="M93.48,171.56a25.88,25.88,0,0,0,.62,4.94,111.62,111.62,0,0,0,14.73,5.36L115.74,166c2-2.34,5.67-6.19,7.29-8.58,0,0,0-.05-.11-.05-.73-.37-1.4-.68-2.13-1h-.05c-5.53-2.58-5.5-1.55-15.3-3.28-.31.63-2.13,1.1-2.08,1.72.16,1.56,3.9,1.66,5.36,4.16,2.09,4.18.72,4.8-1.3,8.38-3.4,6-1.72,8.69-7.28,7.07A32.48,32.48,0,0,1,93.48,171.56Z"/><path class="cls-15" d="M72.9,108.68c-2.35,1.34-7.23,3.49-9.69,3.1a6.65,6.65,0,0,1-3.29-1.47,24.39,24.39,0,0,0-1.52-4.71,11.72,11.72,0,0,1-1.3-4.48l0,0c-.2-1-2.76-8.44-3.07-9.34-1.32-2.55-.11-5.24.65-5.26.55,0,.8,1.26,1.93,4.06,2.2,5.26,3.09,6.16-.78-3.19-1.13-2.86-1.23-3.42-1.14-4.05.17-1.11.86-2.55,1.58-2.55,1,0,1.26,2.68,3.79,7.49,2.32,4.82,1,.42-1-4.06-1.24-2.69-2.15-4-1.51-5.17a1.64,1.64,0,0,1,1.43-.86c.85.11,2.47,3.28,2.82,4.09,1,1.68,1.92,3.37,2.87,5.06a30.23,30.23,0,0,0-1.74-4.19c-.68-1.27-1.33-2.22-.92-2.91a1.65,1.65,0,0,1,1.2-.7c1.08-.14,2.15.87,3,1.9a12.45,12.45,0,0,1,1.4,2.31c5.61,7.61,3.23,6.07,4.2,7.74a.8.8,0,0,0,.4.29c.58.21,2.84,1.76,2.49,6.09-.14,1.84.31,1.61-.14,4.18C73.57,107.33,72.9,108.68,72.9,108.68Z"/><path class="cls-16" d="M72.56,91.7c.08.18-1,.48-2,1.65A20,20,0,0,0,69,96.12c-.88,1.56-.89,1.35-1,1.75-.38,1.3.11,2.22-.62,3.18-.19.25-.33.28-.48.49-1.42,1.89-.53,5.09-1.25,5.33-.46.16-.81-1.24-2.18-1.54a4.57,4.57,0,0,0-2.29.26c-.78.27-.92.53-1.11.44-.72-.34-.43-5,1.91-6.21,1.09-.54,2.52-.33,3.64-1.5.85-.87.45-1.35,1.36-3a7.51,7.51,0,0,1,3.07-3C71.12,91.73,72.45,91.46,72.56,91.7Z"/><path class="cls-17" d="M74.64,89.93a15.61,15.61,0,0,1-2.72-3.48c-.85-1.49-1.11-2.54-1.78-2.56s-1.77,1.25-1.7,2.53c.08,1.62,1.31,3.6,1.61,4.89.69,3-2.89,4.61-2,8.09.65,2.71,3.36,3.37,6.07,3A15.19,15.19,0,0,0,74.64,89.93Z"/><path class="cls-18" d="M90.88,175c2.34,1.05,4.63,2,7,3.07-1.78-10.66,2.13-19.4,9-24.71a9.61,9.61,0,0,0-9.37-.36A25.19,25.19,0,0,0,90.88,175Z"/><path class="cls-19" d="M90.51,169.32a27.66,27.66,0,0,0,.37,5.72c2.34,1.05,4.63,2,7,3.07a31.25,31.25,0,0,1-.52-6Z"/><path class="cls-19" d="M96.76,153.77c3.17.57,8.06,1.4,8.16,1.25H105a19,19,0,0,1,1.82-1.62,9.61,9.61,0,0,0-9.37-.36C97.22,153.25,97,153.51,96.76,153.77Z"/><path class="cls-11" d="M148.24,364.75c6.45,14.32,12.59,24.51,12.59,69.81,1.39,1,6.16,2.18,10.51,1.46,5.46-.68,7.33-2.55,7.33-2.55-.69-5.2-.95-21.17.52-40.27,2.46-30.88-1.93-27.34-5.15-38.91l-25.64,10C148.35,364.49,148.29,364.59,148.24,364.75Z"/><path class="cls-20" d="M170.72,385.35c.36,1.4,1.45,5.46-.47,9.1-2.81,5.41-11,7.65-11,7.65.09,1.11.73,8.76.73,9.88,3.73,3.73,13.76,0,18.26-2.6.1-4.2.61-12,.93-16.18,2.46-30.88-1.93-27.34-5.15-38.91l-25.64,10c-.05.16-.11.26-.16.42C152.77,374.84,167,371.61,170.72,385.35Z"/><path class="cls-21" d="M152.94,474.94c3.91,5.49,17.4,5.85,24.28-4.62a1.94,1.94,0,0,1,.25-.47c6.13-9.24,1.78-17.34,2.77-28a9.32,9.32,0,0,0,1.33-8.47c-3.14-7.9-28.24-6.83-23.19,7.12,0,.28,1.24,5,1.24,5.2a13.76,13.76,0,0,1-1.34,9.66c-.05.06-.05.16-.1.21a9.1,9.1,0,0,1-.49.83c-1.24,2.61-2.54,3.13-4.05,5.2C150.34,466.29,150.69,471.72,152.94,474.94Z"/><path class="cls-22" d="M173.42,467.12c.11-1.7-1.81-3.11-3.19-4.11-4.23-3.09-11.22-4.2-15.25-.44-5.58,5.2-1.12,9.13,6.39,9.64C166.78,472.58,173.22,470.13,173.42,467.12Z"/><path class="cls-23" d="M155.76,459.19c4.72-1.39,8.22-2.3,13.35-.73,2.38.73,5.14,1.61,6.88,4.42a10.78,10.78,0,0,1,1.23,7.44,1.94,1.94,0,0,1,.25-.47c2-4.18,2.8-4.88,3.21-9.2.52-5.47-1-12.74-.44-18.82-5.73,5.35-13.43,5.7-18,3.12-1.73-1-3.22-3.54-3.91-4.47C160.8,449.72,160.77,451.94,155.76,459.19Z"/><path class="cls-24" d="M180.59,462.37c-.24,6.67-5.54,13.12-12.3,15.49s-17.8,1.91-17-7.9c.52,6.64,13.06,6.7,17.17,5.24,5.67-2,11.06-8.27,12.23-14.55C180.67,461.2,180.61,461.78,180.59,462.37Z"/><path class="cls-23" d="M159.82,436.59c.62,3.38,2.7,4.76,5.67,5.73a12.68,12.68,0,0,0,7.83.22c.34-.1,7.3-2.32,7.61-6.94a5.7,5.7,0,0,0-1.24-3.84c-2.76-2.45-17-3.21-19,1C160.37,432.94,159.82,436.59,159.82,436.59Z"/><path class="cls-25" d="M159.27,402.1c1.35,13.89.92,24.36,1.87,31.06.31,2.49.89,3.64,1.82,4.63,4.38,4.37,14,3,15.71-4.32q.09-15.45.16-30.9A20.28,20.28,0,0,1,159.27,402.1Z"/><path class="cls-19" d="M161.14,433.16c.46,3.69,2,6.08,6.4,6.86,4.87,1,9.92-1.4,11.13-6.55q.09-15.45.16-30.9a19.87,19.87,0,0,1-4.89,1.82c.05,3.43.36,26.11-.83,29.08C171.81,436.69,167.54,440.34,161.14,433.16Z"/><path class="cls-26" d="M106.78,305.59a522.82,522.82,0,0,0,7.33,52.54c.68,3.54.24,7,.87,9.75a162.86,162.86,0,0,1,4,25.76H119c.72,11.13,1.37,20,.74,26.29,5.83-1.09,16.65-.78,16.65-.78.22-4.66.68-14.29.68-19.24.33-8.66,1.91-16.58,2.18-34.5,3.28-10.9,3.39-22.15-1.14-35Z"/><path class="cls-27" d="M128.89,376.44c1.51,6.77,4.3,16.83-10.32,12.25.15,1.72.31,3.33.41,4.95H119c5.3,4.11,14.89,8.19,18.07,6.27.33-8.66,1.91-16.58,2.18-34.5,1-3.36,1.41-5.46,1.41-5.46-1-6.09-4-8.69-9.68-9.52-6.76-1-14.9,5-18,8,.68,3.54,1.35,6.66,2,9.41C115,367.88,127.38,369.73,128.89,376.44Z"/><path class="cls-24" d="M136.8,423.58c1.7,4.59,2.36,10.33-1.41,13.42-1.48,1.22-3.47,1.93-10.24,2.12a24.19,24.19,0,0,0-3,0,37.53,37.53,0,0,0-10.42,3.49c-10.13,5.26-23.54-.78-19.23-9.89Q114.46,427.41,136.8,423.58Z"/><path class="cls-28" d="M111.92,440.92a37.85,37.85,0,0,1,10.41-3.49c.91-.13.68.05,3,0,3.13-.14,7.84-.07,10.23-2.11,3.73-3,3-9.54,1.28-13.89-.09-.05-.18-.14-.27-.19-5.74-3.57-10-3.44-12.84-3.07-6.3.81-8,6.21-16.42,7.61-6,1.24-8.94-.36-12.24,2.71C85.32,437.79,100.15,447.09,111.92,440.92Z"/><path class="cls-22" d="M92.39,432.57a.33.33,0,0,0,.09.19c5.35,9,17.85,4.85,19,.23.59-2.48-1-5.48-4.11-7.25-6,1.24-8.94-.36-12.24,2.71A10.54,10.54,0,0,0,92.39,432.57Z"/><path class="cls-25" d="M118.57,388.69c.16,10.2,1.58,20.09,1.58,30.93,0,6.71,13.26,8.9,16.28,2.81l1.3-31.11a16.77,16.77,0,0,1-8.17,1.46C124.26,392.36,119.66,389.73,118.57,388.69Z"/><path class="cls-19" d="M120.1,417.23c.05.78.05,1.61.05,2.39,0,6.71,13.26,8.9,16.28,2.81l1.3-31.11a16.77,16.77,0,0,1-8.17,1.46s3.54,14.51.42,21.64C127.07,420.92,121,417.75,120.1,417.23Z"/><path class="cls-23" d="M128,437.3c4.68-.32,6.33-1,7.57-2,3.66-3,2.93-8.63,1.56-13.16l-4.5,2.61c2.29,1,1.33,7.66.19,9.54C132,435.74,129.43,436.56,128,437.3Z"/><path class="cls-23" d="M117.92,420.61c2.46,6.28,13.76,8.18,19.58,2.93a11.33,11.33,0,0,0-.64-2.15c-.09-.05-.18-.14-.27-.19-5,3.75-12.84,4-17.06-1.69A15.36,15.36,0,0,0,117.92,420.61Z"/><path class="cls-29" d="M119.92,417.13s-1.22-.52-1.31.91a4.4,4.4,0,0,0,.09,1.83c.92,3.1,4.88,6,11.74,4.82.68-.11,6.92-1.2,7.18-3.59.11-1.05-.45-2.81-1.2-2s-4.06,2.71-9.6,2.33S119.92,417.13,119.92,417.13Z"/><path class="cls-13" d="M104.51,354.11a34.92,34.92,0,0,0,9.1,9.15c24.24,17.59,66.85,7.18,72.47-9.78,1.16-3.25-.22-33.38-.42-36.83-1.91-31-2.1-42.23-12.69-61.65-10.38,8.65-29.16,12-40.52,10-11-1.82-20.09-7-24-10.36,0,.31-.16.57-.21.88C103.21,278.47,95,337.67,104.51,354.11Z"/><path class="cls-14" d="M104.51,354.11a34.92,34.92,0,0,0,9.1,9.15c24.24,17.59,66.85,7.18,72.47-9.78,1.16-3.25-.22-33.38-.42-36.83-1.91-31-2.1-42.23-12.69-61.65-10.38,8.65-29.16,12-40.52,10-11-1.82-20.09-7-24-10.36,0,.31-.16.57-.21.88l0,.21a42.88,42.88,0,0,0,38.61,15.61c25.12-3.07,20.55,51.55,13.83,72.15S131,370.81,104.51,354.11Z"/><path class="cls-13" d="M104,206.67c.05,2.81,5.77,45.47,4.47,48,2,2,18.57,12,38,8.89,4.37-.68,7.59,1.67,12.07-.77,5.93-3.24,11.25-7.95,13-14.52.52-2.18.26-3.33,0-8.9a222.23,222.23,0,0,1,0-23.77c.21-.42.37-.88.57-1.3,1.77,1.77,30.13-.62,28-3.28a194,194,0,0,0-10.5-21c-1.71-2.94-6.95-11.73-9.37-14.15C167,166.64,146.34,155.73,130.31,158h-.1c-10.44,1.54-14.57,6.92-19.62,16-5.25,9.62-6,19.19-6.39,24.81A68.47,68.47,0,0,0,104,206.67Z"/><path class="cls-14" d="M178.74,178.53s4.22,3.54,9.58,14-.84,13.37-2.55,14.26c-2,1,8.38,1.84,12.33-.26-2.4-5.2-5.21-10.77-8.53-16.49-.88-1.52-7.81-13.2-9.32-14.1C178.38,175.88,178.74,178.53,178.74,178.53Z"/><path class="cls-14" d="M108.43,247.93c13.24,12.33,32.55,19,50.08,14.83a28.65,28.65,0,0,0,8.16-3,17,17,0,0,0,4.48-4.53,5.24,5.24,0,0,1-1.61-2.44c-.63-1.88,1-2.81,1.92-4.58,1.33-2.41.49-10.71,0-13.42-.52-3.28,0-8.48,4.89-16.91a50,50,0,0,0-3.8-9.31c-1.51,2.91-4.31,7.18-5.3,6.92-1.46-.42-.52-8.38.41-13,2.09-10.36,6.92-18.24,13.22-26.11-1.74-1.74-15.11-9.72-16.86-10.3-1.49,2.24-7.11,15-9.31,23.46a139.75,139.75,0,0,0-4.58,36.57c.52,16,4,20.34.73,24.56C147.32,255.37,137,257.76,108.43,247.93Z"/><path class="cls-18" d="M108.3,255.73c19.84,14.37,45.2,14.59,65.71,1.2a8.29,8.29,0,0,0-2.55-8.69,53.34,53.34,0,0,1-63-.31A10.51,10.51,0,0,0,108.3,255.73Z"/><path class="cls-19" d="M152.84,256.82c2.53,1.55,3.08,5.25,3,8.17A62.69,62.69,0,0,0,174,256.93a8.29,8.29,0,0,0-2.55-8.69A54.87,54.87,0,0,1,152.84,256.82Z"/><path class="cls-14" d="M124.64,184.41a7.62,7.62,0,0,0,4.21-2c7.28,14,29.42.45,35.69-16-1.29-.64-1.34-.72-2.91-1.41a8.38,8.38,0,0,1-2.66-.41c-12.93,15.54-34.63,16.54-28.71-5.93a3,3,0,0,0,.05-.68c-.05,0-.05.05-.1.05C117.11,165.89,112.24,186.2,124.64,184.41Z"/><path class="cls-30" d="M132.88,180.74c15-7.5,23.66-8.91,23.66-13.9-.11-1-2.61-15.53-3.26-16.28-2.93-3.32-8.6-1.49-17.87-2.84-2.61-.39-6.38-1.08-9-1.73,1.34,3.75,2.68,7.77,3.9,12C132,164,131.6,181.05,132.88,180.74Z"/><path class="cls-31" d="M132.24,173.79c-3,10.62,14.47,2.48,19.86-2.78,1.88-1.83,3.36-3.94,3.12-4.18s-1.31,1.07-3.5,2.15a16.24,16.24,0,0,1-4.7,1.4c-12.77,2.31-11.65,3.84-16.13-10l-2.16-1.4C122.69,167.14,125.78,181.84,132.24,173.79Z"/><path class="cls-18" d="M130.32,158c-7.25,3.11-16.49,21.33-7.62,22.52,5.09.68,9.21-6.16,9.54-6.72a11.61,11.61,0,0,1-1.35-13.45A14.35,14.35,0,0,0,130.32,158Z"/><path class="cls-18" d="M132.24,173.79c-.3.72-2.34,5-2.06,6.5a7.52,7.52,0,0,0,3,4.34c5.09,3.61,16.58-2.35,23.41-8.13,2.89-2.46,7.7-6.64,6.93-10.95a6.94,6.94,0,0,0-8.19-5.37C157.1,172.92,141.72,176.53,132.24,173.79Z"/><path class="cls-11" d="M118,132.09c1.17,3.75,2.59,3.6,3.7,8.24,1.18,4.85,0,6.44,5.9,9.25a7,7,0,0,0,5.93.47c8.7,8.35,21.83,12.24,30,3.88s4.81-26.42-2.52-37.59l-2.56-3.89c-8.69-7.26-26.09-12-34.12-4.54-2.86,2.65-3.85,6.56-5,10.51C117.94,123.31,116.61,127.48,118,132.09Z"/><path class="cls-32" d="M118,132.09c1.17,3.75,2.59,3.6,3.7,8.24,1.18,4.85,0,6.44,5.9,9.25a7,7,0,0,0,5.93.47c.79.76,10.74,10.23,21.44,8.3,0-.19-.19-.31-.54-.28-2.37.16-12.4-4.33-18.72-14.4s1.36-27.62,1.36-27.62-10.89-3.85-15.66-3.91a50.08,50.08,0,0,0-2.08,6.28C117.94,123.31,116.61,127.48,118,132.09Z"/><g class="cls-33"><circle class="cls-34" cx="134.94" cy="99.78" r="13.87" transform="translate(-14.19 22.81) rotate(-9.18)"/></g><g class="cls-35"><path class="cls-36" d="M99.32,123.09c1.32,3.16,3.24,4.71,3.37,8.31a14.18,14.18,0,0,1-5.28,10.89c20.48,3.36,35.39-20.11,29-33.45-2.87-6-10.16-11.89-17.29-10.1C100.6,100.87,95.71,114.49,99.32,123.09Z"/></g><g class="cls-37"><path class="cls-38" d="M130.31,158c-.75-2.75-1.64-5.55-2.45-8.29a11.23,11.23,0,0,1-3.9-5.09c-.49-1.35-1.62-4.47.05-6.2a2.88,2.88,0,0,1,1.51-.86c2.73-.91,5,.64,6.57,3.12.38.7,3.93,2.54,3-1,0-.06-.66-2.48-.59-2.48a15.88,15.88,0,0,1-.27-3.39c.1-2,1.11-6,2.48-7.33,1.78-1.72,3.34-1,6-2.48,1.17-.62,4.08-2,5.44-5a9.08,9.08,0,0,0,.56-5.51c5.43-1.17,11,.71,14,5.68v0c.92,2,1.62,3.77,1.62,3.77.43.76,1.61,1.46,4.84,1.24a5.08,5.08,0,0,1-3.77-5.28c0-3.29-4.36-12.66-10.72-17.62-13.44-10.45-38.47-5.77-41.59,18.64C111.31,136.36,120,138.87,130.31,158Z"/></g><g class="cls-39"><path class="cls-40" d="M115.07,134.25c1.4,3.34,2.8,4.74,5.92,9.11A136.56,136.56,0,0,1,130.31,158c-.75-2.75-1.64-5.55-2.45-8.29a11.23,11.23,0,0,1-3.9-5.09c-.49-1.35-1.62-4.47.05-6.2a2.58,2.58,0,0,1,1.51-.86c2.73-.91,5,.64,6.57,3.12.38.7,3.93,2.54,3-1,0-.06-.66-2.48-.59-2.48a16.47,16.47,0,0,1-.27-3.39c-7.5-7.44-14.74-23.35-2.53-36.74C115.87,101.08,109.06,120,115.07,134.25Z"/></g><path class="cls-11" d="M181.92,291.62a15.08,15.08,0,0,1-1.51,5.87s-.71,1.46-.73,1.47c-.74,1.54-2.34,3.62-2.62,5.42,0,.1-.06.14,0,.24h0a6.53,6.53,0,0,0,.24,2.69,26.66,26.66,0,0,1,1,3.05c.16,1.16-.09,1.54-.21,1.65-2.57,2.86-4.36-4.08-5.28-7.8-1,2.79.08,6.88.56,8.91a3.44,3.44,0,0,1,0,2.3c-1.2,2.61-4.5,2-5-10.28-.37,0-1.25,3.46-1.28,6.86,0,.32.3,2.49.32,2.74.38,4.88-5.33,7.57-4.31-5.05.3-3.33.85-5.22.54-5.35s-1.89,2.33-2.81,4.85c-1.58,4.37-.63,9.22-3.54,7.68-1.72-1-1.48-4.24-1.4-5.71a23.15,23.15,0,0,1,2.72-8.67,24,24,0,0,0,1.71-3.34s-3.27,3.47-5.74,2.46c-.53-.2-1.52-.8-1.51-1.57s1.47-1.2,3.6-2.78c3.18-2.4,5.49-6.39,8.47-8.84,6.4-5.07,2.33-2.23,6.49-6.44,0,0,.06-.06.1-.11l0,0c1.74-1.65,1.94.2,3.49,2,1.78,2,4.1.49,5.72,2.37C182.27,287.73,181.87,289.62,181.92,291.62Z"/><path class="cls-11" d="M170.73,283.56c.08.09,4.46,4.53,4.58,4.53s4.59,4.59,4.63,4.63H180l1.51,1.51c1.92-7.65,2.1-5.73,13.94-22.84,3.15-3.77,11.31-16.49,12.44-21.54,1.45-1.77-2.24-15-2.71-17.22a0,0,0,0,0,0,0l-.57-2.44-.06-.06c-2.74-10.45-4-12.79-5.51-18V212c-1-2.6-1.15-3.08-2.08-5.25l-18,10.92a5.23,5.23,0,0,0-.73,1.3c1,3.29,1.23,3.74,2.24,6.77h0c3,9,4.37,11.49,7.44,21.27C183.44,257.1,178.86,269,170.73,283.56Z"/><path class="cls-41" d="M169.54,284.45c.26,2.24,3,2.7,5.67,3.59a.15.15,0,0,0,.1,0c4.36,1.52,6.52,4.07,4.37,10.82,0-.07.83-1.56.83-1.61a13.81,13.81,0,0,0,1-3.07,8,8,0,0,1,.26-1c0-.05,0-.1,0-.21.63-2.51,1.41-4.74,5-9.52,6.56-9.6,19.26-25.31,21.12-33.66,1.45-1.77-2.24-15-2.71-17.22a0,0,0,0,0,0,0l-.57-2.44-.06-.06c-2.72-10.4-4-12.79-5.51-18V212c-1-2.6-1.15-3.08-2.08-5.25l-18,10.92a5.23,5.23,0,0,0-.73,1.3c1,3.29,1.23,3.74,2.24,6.77,3-.73,10.2-2,14.31,1.45,3.38,2.86-.42.21,6.76,16.44a14.78,14.78,0,0,0-9.68,2.14c10.25-.52,12.64,7.07,7.18,16.17C191.49,274.36,184.11,290.05,169.54,284.45Z"/><path class="cls-42" d="M177,304.64a.42.42,0,0,0,0-.13.25.25,0,0,0,0,.12Z"/><path class="cls-18" d="M174.06,216.35c1.25,4.11,1.77,5.31,5.88,7.75,2.86-5.21,7.78-9,20.6-7.23.2-4.52.36-8-2.7-11.08a.58.58,0,0,1-.16-.1,14.89,14.89,0,0,0-3.54-.11C186.05,205.84,177.88,209.08,174.06,216.35Z"/><path class="cls-19" d="M194.51,216.45a43.92,43.92,0,0,1,6,.42c.2-4.52.36-8-2.7-11.08a.58.58,0,0,1-.16-.1,14.89,14.89,0,0,0-3.54-.11C196.63,209.27,197.3,213,194.51,216.45Z"/><path class="cls-19" d="M174.06,216.35c1.25,4.11,1.77,5.31,5.88,7.75a16.2,16.2,0,0,1,3.43-4.37,6.19,6.19,0,0,1-2.91-.73c-2.55-1.4-3.48-4.31-4.68-5.3A16.13,16.13,0,0,0,174.06,216.35Z"/><path class="cls-43" d="M102.48,218.9a58.83,58.83,0,0,0,4.21,11.27A166.05,166.05,0,0,1,113,182.28c4.65-15.46,10.83-18.85,16-24.05a1.51,1.51,0,0,0-1.35-.6c-2,0-4.49-.39-6.31,0-4.26,1-7.44,7.43-8,8.24C104,178.8,102.07,203.05,102.48,218.9Z"/><path class="cls-44" d="M101.39,207.56c-.27,6.38,1.7,17.71,5.3,22.63a207.46,207.46,0,0,1,.63-23.57c2.9-36.67,13.55-40.81,21.43-48.69a8.64,8.64,0,0,0-4.89-1.09,9.2,9.2,0,0,0-4.58,1.56c-11.92,9.22-13.8,19.39-16.33,33.4A152.87,152.87,0,0,0,101.39,207.56Z"/><path class="cls-45" d="M101.39,207.56c-.27,6.38,1.7,17.71,5.3,22.63a207.46,207.46,0,0,1,.63-23.57,85.14,85.14,0,0,1-4-16.59C102.49,193,101.53,204,101.39,207.56Z"/><path class="cls-43" d="M155.11,216.49c.58,14.64,4.56,26,17.42,30.54l-.51-7.24a53.58,53.58,0,0,1-6.83-7.59c-5.2-7.15-4.58-33.44,14.18-56.49a8.51,8.51,0,0,0,0-1.89c-.45-.09-.91-.18-1.37-.24a12.58,12.58,0,0,0-11.22-4.82C161.52,178.89,154.3,196.26,155.11,216.49Z"/><path class="cls-44" d="M154.76,230.61s.05.1.05.15c3.65,10.82,13.95,18.78,17,17.06,1.35-.78,1.45-3.59,1.5-3.79a7.19,7.19,0,0,0-1.3-4.22c-11.58-6.22-12.51-18.1-9.83-31.11h.05c3.59-17.37,14-30.79,17.12-34.64a12.69,12.69,0,0,0-11.19-7C162.51,167,148.46,207.9,154.76,230.61Z"/><path class="cls-45" d="M162.1,175.36c5-2.81,11.55-2.92,17.11-1.62a.18.18,0,0,0,.16.06,12.61,12.61,0,0,0-11.19-7,2.49,2.49,0,0,0-2.13,1.2A38,38,0,0,0,162.1,175.36Z"/><path class="cls-45" d="M154.81,230.76c3.65,10.82,13.95,18.78,17,17.06,1.35-.78,1.45-3.59,1.5-3.79a7.19,7.19,0,0,0-1.3-4.22c-11.58-6.22-12.51-18.1-9.83-31.11C158.09,212.4,155.49,224.88,154.81,230.76Z"/></svg>