<svg id="Layer_1" data-name="Layer 1" xmlns="http://www.w3.org/2000/svg" xmlns:xlink="http://www.w3.org/1999/xlink" viewBox="0 0 291.72 480.53"><defs><style>.cls-1{mask:url(#mask);filter:url(#luminosity-noclip-3);}.cls-2,.cls-4{mix-blend-mode:multiply;}.cls-2{fill:url(#New_Gradient_Swatch_copy_52);}.cls-3{mask:url(#mask-2);filter:url(#luminosity-noclip-4);}.cls-4{fill:url(#linear-gradient);}.cls-5{fill:url(#linear-gradient-2);}.cls-6{fill:#ffcfcd;}.cls-7{fill:url(#New_Gradient_Swatch_copy_11);}.cls-8{fill:url(#linear-gradient-3);}.cls-9{fill:url(#New_Gradient_Swatch_copy_11-2);}.cls-10{fill:#c1e3f4;}.cls-11{fill:url(#New_Gradient_Swatch_copy_21);}.cls-12{fill:#f9b5b7;}.cls-13{mask:url(#mask-3);}.cls-14{fill:url(#New_Gradient_Swatch_copy_23);}.cls-15{fill:url(#linear-gradient-4);}.cls-16{fill:url(#linear-gradient-5);}.cls-17{fill:url(#linear-gradient-6);}.cls-18{fill:url(#New_Gradient_Swatch_copy_9);}.cls-19{fill:url(#New_Gradient_Swatch_copy_9-2);}.cls-20{fill:#a14c50;}.cls-21{fill:#733639;}.cls-22{fill:#4d1725;}.cls-23{fill:url(#New_Gradient_Swatch_copy_40);}.cls-24{fill:#f05e1f;}.cls-25{fill:#531d00;}.cls-26{fill:url(#New_Gradient_Swatch_copy_11-3);}.cls-27{fill:url(#New_Gradient_Swatch_copy_11-4);}.cls-28{fill:url(#New_Gradient_Swatch_copy_11-5);}.cls-29{fill:url(#New_Gradient_Swatch_copy_11-6);}.cls-30{fill:url(#New_Gradient_Swatch_copy_11-7);}.cls-31{fill:url(#New_Gradient_Swatch_copy_21-2);}.cls-32{fill:url(#New_Gradient_Swatch_copy_11-8);}.cls-33{fill:url(#New_Gradient_Swatch_copy_9-3);}.cls-34{fill:url(#New_Gradient_Swatch_copy_21-3);}.cls-35{fill:url(#New_Gradient_Swatch_copy_11-9);}.cls-36{fill:url(#linear-gradient-7);}.cls-37{mask:url(#mask-4);}.cls-38{fill:url(#linear-gradient-8);}.cls-39{filter:url(#luminosity-noclip-2);}.cls-40{filter:url(#luminosity-noclip);}</style><filter id="luminosity-noclip" x="54.03" y="-7896.29" width="46.19" height="32766" filterUnits="userSpaceOnUse" color-interpolation-filters="sRGB"><feFlood flood-color="#fff" result="bg"/><feBlend in="SourceGraphic" in2="bg"/></filter><mask id="mask" x="54.03" y="-7896.29" width="46.19" height="32766" maskUnits="userSpaceOnUse"><g class="cls-40"/></mask><linearGradient id="New_Gradient_Swatch_copy_52" x1="121.29" y1="183.32" x2="116.85" y2="161.66" gradientTransform="translate(-38.81)" gradientUnits="userSpaceOnUse"><stop offset="0" stop-color="#fafafa"/><stop offset="1" stop-color="#fff"/></linearGradient><filter id="luminosity-noclip-2" x="147.58" y="-7896.29" width="36.79" height="32766" filterUnits="userSpaceOnUse" color-interpolation-filters="sRGB"><feFlood flood-color="#fff" result="bg"/><feBlend in="SourceGraphic" in2="bg"/></filter><mask id="mask-2" x="147.58" y="-7896.29" width="36.79" height="32766" maskUnits="userSpaceOnUse"><g class="cls-39"/></mask><linearGradient id="linear-gradient" x1="-5755.02" y1="55.87" x2="-5718.23" y2="55.87" gradientTransform="matrix(-1, 0, 0, 1, -5570.65, 0)" xlink:href="#New_Gradient_Swatch_copy_52"/><linearGradient id="linear-gradient-2" x1="-5764.81" y1="451.51" x2="-5738.46" y2="451.51" gradientTransform="matrix(-1, 0, 0, 1, -5587.35, 0)" gradientUnits="userSpaceOnUse"><stop offset="0" stop-color="#001440"/><stop offset="1" stop-color="#005995"/></linearGradient><linearGradient id="New_Gradient_Swatch_copy_11" x1="-5756.49" y1="330.42" x2="-5747.74" y2="496.25" gradientTransform="matrix(-1, 0, 0, 1, -5587.35, 0)" gradientUnits="userSpaceOnUse"><stop offset="0" stop-color="#ed7d88"/><stop offset="1" stop-color="#ffcfcd"/></linearGradient><linearGradient id="linear-gradient-3" x1="-5703.32" y1="418.8" x2="-5700.93" y2="477.77" gradientTransform="matrix(-1, 0, 0, 1, -5570.65, 0)" xlink:href="#linear-gradient-2"/><linearGradient id="New_Gradient_Swatch_copy_11-2" x1="-5719.3" y1="332.74" x2="-5718.1" y2="421.39" xlink:href="#New_Gradient_Swatch_copy_11"/><linearGradient id="New_Gradient_Swatch_copy_21" x1="-5616.71" y1="180.98" x2="-5644.5" y2="172.63" gradientTransform="matrix(-1, 0, 0, 1, -5570.65, 0)" gradientUnits="userSpaceOnUse"><stop offset="0" stop-color="#70bfe6"/><stop offset="1" stop-color="#aad9f0"/></linearGradient><filter id="luminosity-noclip-3" x="54.03" y="137.94" width="46.19" height="44.83" filterUnits="userSpaceOnUse" color-interpolation-filters="sRGB"><feFlood flood-color="#fff" result="bg"/><feBlend in="SourceGraphic" in2="bg"/></filter><mask id="mask-3" x="54.03" y="137.94" width="46.19" height="44.83" maskUnits="userSpaceOnUse"><g class="cls-1"><path class="cls-2" d="M54,169.56a9.4,9.4,0,0,1,5.08,2.4c3.76,3.56,2.54,10.41,2.45,10.81a40.47,40.47,0,0,1,5-9.35c3.64-5,14.64-7.72,22.81-13.52,5-3.52,11.91-10.38,10.72-15.73a62.61,62.61,0,0,0-2.24-6.23C80,152.5,78.21,158.49,54,169.56Z"/></g></mask><linearGradient id="New_Gradient_Swatch_copy_23" x1="121.29" y1="183.32" x2="116.85" y2="161.66" gradientTransform="translate(-38.81)" gradientUnits="userSpaceOnUse"><stop offset="0" stop-color="#c1e3f4"/><stop offset="1" stop-color="#e9f5fb"/></linearGradient><linearGradient id="linear-gradient-4" x1="-5584.13" y1="335" x2="-5731.16" y2="260.29" xlink:href="#linear-gradient-2"/><linearGradient id="linear-gradient-5" x1="-5732.44" y1="157.32" x2="-5751.67" y2="298.09" xlink:href="#linear-gradient-2"/><linearGradient id="linear-gradient-6" x1="-5736.36" y1="271.25" x2="-5739.81" y2="123.69" gradientTransform="matrix(-1, 0, 0, 1, -5587.35, 0)" gradientUnits="userSpaceOnUse"><stop offset="0" stop-color="#95115a"/><stop offset="1" stop-color="#e50670"/></linearGradient><linearGradient id="New_Gradient_Swatch_copy_9" x1="-5731.68" y1="121.78" x2="-5748.22" y2="72.77" gradientTransform="matrix(-1, 0, 0, 1, -5587.35, 0)" gradientUnits="userSpaceOnUse"><stop offset="0" stop-color="#95115a"/><stop offset="1" stop-color="#380832"/></linearGradient><linearGradient id="New_Gradient_Swatch_copy_9-2" x1="-5740.54" y1="149.3" x2="-5819.48" y2="230.02" xlink:href="#New_Gradient_Swatch_copy_9"/><linearGradient id="New_Gradient_Swatch_copy_40" x1="-5780.71" y1="314.17" x2="-5720.54" y2="433.7" gradientTransform="matrix(-1, 0, 0, 1, -5587.35, 0)" gradientUnits="userSpaceOnUse"><stop offset="0" stop-color="#fad260"/><stop offset="1" stop-color="#fa9826"/></linearGradient><linearGradient id="New_Gradient_Swatch_copy_11-3" x1="-5775.37" y1="236.99" x2="-5760.85" y2="294.66" xlink:href="#New_Gradient_Swatch_copy_11"/><linearGradient id="New_Gradient_Swatch_copy_11-4" x1="-5763.64" y1="271.06" x2="-5788.9" y2="259.13" xlink:href="#New_Gradient_Swatch_copy_11"/><linearGradient id="New_Gradient_Swatch_copy_11-5" x1="-5763.89" y1="271.59" x2="-5789.15" y2="259.66" xlink:href="#New_Gradient_Swatch_copy_11"/><linearGradient id="New_Gradient_Swatch_copy_11-6" x1="-5763.89" y1="271.58" x2="-5789.15" y2="259.66" xlink:href="#New_Gradient_Swatch_copy_11"/><linearGradient id="New_Gradient_Swatch_copy_11-7" x1="-5770.3" y1="235.86" x2="-5755.96" y2="292.84" xlink:href="#New_Gradient_Swatch_copy_11"/><linearGradient id="New_Gradient_Swatch_copy_21-2" x1="-5742" y1="259.54" x2="-5800.84" y2="111.69" gradientTransform="matrix(-1, 0, 0, 1, -5587.35, 0)" xlink:href="#New_Gradient_Swatch_copy_21"/><linearGradient id="New_Gradient_Swatch_copy_11-8" x1="-5739.77" y1="84.25" x2="-5738.29" y2="139.2" xlink:href="#New_Gradient_Swatch_copy_11"/><linearGradient id="New_Gradient_Swatch_copy_9-3" x1="-5725.65" y1="121.71" x2="-5737.82" y2="97.09" xlink:href="#New_Gradient_Swatch_copy_9"/><linearGradient id="New_Gradient_Swatch_copy_21-3" x1="-5730.64" y1="111.94" x2="-5726.34" y2="120.55" gradientTransform="matrix(-1, 0, 0, 1, -5587.35, 0)" xlink:href="#New_Gradient_Swatch_copy_21"/><linearGradient id="New_Gradient_Swatch_copy_11-9" x1="-5767.78" y1="60.52" x2="-5717.38" y2="60.52" xlink:href="#New_Gradient_Swatch_copy_11"/><linearGradient id="linear-gradient-7" x1="-5754.94" y1="55.97" x2="-5696.61" y2="55.97" gradientTransform="matrix(-1, 0, 0, 1, -5570.65, 0)" gradientUnits="userSpaceOnUse"><stop offset="0" stop-color="#8c203c"/><stop offset="1" stop-color="#7a253b"/></linearGradient><filter id="luminosity-noclip-4" x="147.58" y="24.22" width="36.79" height="63.31" filterUnits="userSpaceOnUse" color-interpolation-filters="sRGB"><feFlood flood-color="#fff" result="bg"/><feBlend in="SourceGraphic" in2="bg"/></filter><mask id="mask-4" x="147.58" y="24.22" width="36.79" height="63.31" maskUnits="userSpaceOnUse"><g class="cls-3"><path class="cls-4" d="M160.58,70.17s0,0,0,0c0,.8.3,2.45,1,2.92.05.05.1.1.14.1s0,0,.1,0c1,0,.29-7.61,4.54-10,2.42-1.76,5.9-.39,6.36,5.16a10.5,10.5,0,0,1-1.72,6,10.37,10.37,0,0,1-3.68,4.16,10.07,10.07,0,0,1-3.4,1.38c-.57,6-.24,7.37.19,7.46s1.06-1.48,2.63-3.73a25.11,25.11,0,0,1,4.11-4.59c1.35-1.27,8-8.8,9.09-11a31.56,31.56,0,0,0,4.3-18.93.07.07,0,0,0,0-.1c-1.48-19-20.56-28.44-36.62-23.85a22.09,22.09,0,0,1,14.15,6.69c7.64,8.22,5.09,14.91,2.77,22.09C163.05,58.9,160.06,64.67,160.58,70.17Z"/></g></mask><linearGradient id="linear-gradient-8" x1="-5755.02" y1="55.87" x2="-5718.23" y2="55.87" gradientTransform="matrix(-1, 0, 0, 1, -5570.65, 0)" gradientUnits="userSpaceOnUse"><stop offset="0" stop-color="#631e30"/><stop offset="1" stop-color="#4d1725"/></linearGradient></defs><title>womanPhase3</title><g id="group"><path class="cls-5" d="M156.29,454.27c-.95,2.25-2,6.1-4,11.55a21.11,21.11,0,0,0-1.08,9.47s-.21,4.31,7.12,5.18c6.73.79,14.13-6,16.62-13.17,2.76-7.93-2.24-11,.65-22.65a46.29,46.29,0,0,0,1.6-8.89c.34-4.78.59-8.32-1.39-10.58-3-3.36-10.76-3.75-14.9-.18C154.72,430.37,162.37,439.86,156.29,454.27Z"/><path class="cls-6" d="M147.58,333.09c2,5.88,2.39,12.15,4,18.12,1.06,3.92.39,3.49,1.58,14.25,2,17.21,5.84,36.87,6.5,40.12,2.31,10.82,1.12,16.05.43,25.05-.76,9.9.05,9.42-.66,15.21C157.37,463,152.2,463,158,465.1a.35.35,0,0,0,.19,0c3,1,9.11,2.44,11.48.38,1.58-1.43,1.62-3.77,1.62-4.68.31-11.7,6.38-24.32,4.59-35.48a.33.33,0,0,0,0-.19c-1.29-7.18-4.09-6.87-.29-21.42,0,0,.46-2.41.48-2.49.47-3.68,6.36-41.59,5.78-51.87,0-1.9-1.75-8.85-5.35-15.59-.54-.89-1.36-.87-2.39-1.1C168.46,331.78,146.27,327.8,147.58,333.09Z"/><path class="cls-7" d="M155.66,463.86a2,2,0,0,0,.72.57,17.48,17.48,0,0,0,1.81.72c6.91,2.3,13.1,2.92,13.1-4.3.32-12.17,6-22.05,4.59-35.48a.33.33,0,0,0,0-.19c-1.29-7.18-4.09-6.87-.29-21.42,0,0,.46-2.41.48-2.49,8.24-40.65,8.33-54.31,0-68.18-11.77-2-11.19-1.81-11.19-1.81-2.87.23-4.74.52-4.74.52-3,2.39-6.45,5.88-6.12,9.8s4.45,5.84,7.75,9c7.46,7,7.6,17.84,7.84,38.59.05,2.34-2.58,50.06-2.58,50.06a34.61,34.61,0,0,0-1.53,11.47c.24,6,1.91,8.94.29,11.24C164.65,463.43,162.16,464.77,155.66,463.86Z"/><path class="cls-8" d="M146.7,441.34c-.68,1.51-2.22,1.45-2-.27.06-.46-.09-5.67-.34-13.47-.49,2.87-3.08,6.72-3.24,11.87-.24,7.63-7.51,17.16-23.3,19-2,.22-2.92,0-3.29-.5-.82-1.16.07-3.26,1.34-6,2.59-5.51,4.83-9.91,5-10.18,1.91-3.75,1.92-5.47,3.67-12,4-14.93,6-22.39,11.66-25,2-.92,7.42-3,9.66-.25.8,1,3.69,2.85,3.72,14.92A87.06,87.06,0,0,1,146.7,441.34Z"/><path class="cls-6" d="M122.11,357.26c3,14.08,7.61,69.32-1.31,86.31-.56,1.74-.18,2.57.1,2.95,1.2,1.62,5.11.94,7.7-.36,5.27-2.66,7.46-8.91,9.29-13.88,3-8.7,7.39-26.45,5.35-29.28-2.14-3-3-8.22-2.55-13.39.89-11.12,9.71-36.13,5.59-54.35-3.29-7.52-15.06-31.56-23.31-32-9.49-.41-8.18,13-6.9,22.89S120,347.35,122.11,357.26Z"/><path class="cls-9" d="M137.89,432.28c3-8.7,7.39-26.45,5.35-29.28-2.14-3-3-8.22-2.55-13.39.89-11.12,9.71-36.13,5.59-54.35,0,0-2.31-5.28-5.7-11.53a34.64,34.64,0,0,1-12.91-3.22c-4.94.41-10.44,1.42-11.15,4.18-1.07,4.1,9.63,7.28,15.93,16.14C141,352.85,128.46,399.19,137.89,432.28Z"/><path class="cls-10" d="M59.65,185.87c40-19.18,48.63-24.63,58.08-34.8,8.88-9.54,22.79-25.31,25.88-33.77A41.49,41.49,0,0,0,145,94.8c-12.74-6.55-22.21-4-27.12,9.24-3.07,8.33-9.1,15.25-13.59,22.91-2.6,4.46-4.81,8.22-6.47,11C80,152.5,78.21,158.49,54,169.56,62.86,170.55,63.76,178,59.65,185.87Z"/><path class="cls-11" d="M52.2,179.05c.16,3.44.71,4.33,1,4.77a6.79,6.79,0,0,0,4.95,2.35,2.49,2.49,0,0,0,1.46-.3c1-.55,2.34-3.16,2.39-6.05.06-3.41-2.47-8.85-6.6-10.15a2.16,2.16,0,0,0-1.41-.11C51.8,170.33,52.07,176.12,52.2,179.05Z"/><path class="cls-6" d="M20.11,188c4.26,0,6.45-2,12.81-3.39,4.26-1,3.45-.19-5.83,6.4-3.82,2.78-5.74,4.07-5.74,5.84a2.09,2.09,0,0,0,1.1,1.86c.91.38,2-.29,6.46-3.54,0,0,2.05-1.53,8.7-5.69,3.59-2.24-.91,2.92-3.73,6-3.59,3.92-5.5,5.31-5.07,6.12s2.49.76,4.21.19c2.72-.91,3.35-3,8-7.84,3-3.16,3.3-3.16,3.4-3.06.43.24-.53,2.68-1.58,4.54-2.44,4.3-5,5.4-4.59,6.12.34.53,2.58.29,4.5-.86,4.15-2.44,6.16-8.13,8-9.37,2.63-1.87,2.63-.91,6.07-3.73a34,34,0,0,0,2.73-3.16s0,0,.09-.09a15.91,15.91,0,0,1,1.91-1.58,10.31,10.31,0,0,0-5.92-13.2h0c-1.86,1.24-5.32,1-7.7,1.2-3,.33-2.58.72-4.69,1.15-4.92.9-8.6-3.64-10.08-2.35-.63.48-.39,1.63-.34,2s.19,1,1.67,2.44c1.18,1.13,1.86,1.38,2.68,2.2.24.71-.65,1.22-1.34,1.53C30.83,179.92,7.36,188,20.11,188Z"/><path class="cls-12" d="M60.32,178c1.1,3.82-.29,5.88-.67,6.31a15.91,15.91,0,0,1,1.91-1.58,10.31,10.31,0,0,0-5.92-13.2h-.1a1.12,1.12,0,0,0-.38.24,7.53,7.53,0,0,1-1.63.58C54.73,171.15,59.17,174.31,60.32,178Z"/><g class="cls-13"><path class="cls-14" d="M54,169.56a9.4,9.4,0,0,1,5.08,2.4c3.76,3.56,2.54,10.41,2.45,10.81a40.47,40.47,0,0,1,5-9.35c3.64-5,14.64-7.72,22.81-13.52,5-3.52,11.91-10.38,10.72-15.73a62.61,62.61,0,0,0-2.24-6.23C80,152.5,78.21,158.49,54,169.56Z"/></g><path class="cls-12" d="M37,176.07c2.91,2.81,4.83,2.51,11.28,2.8a2,2,0,0,1,1.41.53,1.26,1.26,0,0,1,.23,1.22c-.54,1.22-4.37,1.35-7.22.6A7.41,7.41,0,0,1,37,176.07Z"/><path class="cls-15" d="M114.49,322.73c7,10.67,24.19,13.25,27.92,13.81,3.1.47,1.21.28,15.68-.31,8.42-.35,17-1.17,17.95-3.14,1.73-3.45-3.87,0-4.28-16s9.46-38.8,11.19-51.34,6.49-23.71,1.72-35.8c-1.79-4.62-5.73-10.25-15.09-28.93-.62-1.28-1.14-2.31-1.48-3C155.27,201.15,140,200,129,193.26a40.71,40.71,0,0,1-10.77-9.49c-1.52,4.53-4.21,8.76-5.87,17.06-7.36,36.79-4.26,22-1.34,108.38C111.17,313.18,111.39,318,114.49,322.73Z"/><path class="cls-16" d="M158.09,336.23c14.17.21,18.09-1.53,18.54-3.43.4-1.66-1.92-3.08-3.16-7.48a18.32,18.32,0,0,1-.43-7.62c0-1.24,9.91-52.82,9.91-51.94,11.8-34.29-5.18-47.39-14.85-67.73-18.37,4.47-37.24.26-49.86-14.26C130.46,211,150.08,205,157.5,218.71c4.32,8,3.62,24.93,3.45,32.38C160.14,288.07,145,309,158.09,336.23Z"/><path class="cls-17" d="M113.3,139.93c1.17,2.35,3.58,4.78,3.58,7.31,0,0-.06,3.6,0,6,.17,11.33,2.49,10,1.39,30.55,2.69,9,10.13,11.09,14.92,12.67a71.52,71.52,0,0,0,26.68,3.06,62.41,62.41,0,0,0,8.27-1.48c.59-4.78.54-2.74,1.91-15.59,1.29-12.48,7.27-15.92,16.35-31.89s7.8-32.8,3.92-36.24-20.7-14.73-20.7-14.73c-5.88-2.68-36.22-11.43-41.38-7-2.59,2.2-1.37.91-3.28,9.61a41.42,41.42,0,0,1-3.25,9.09c-4.64,9.56-9.51,11.28-10.18,17.59A20.94,20.94,0,0,0,113.3,139.93Z"/><path class="cls-18" d="M169.58,99.59c-3.77,10.52-11.66,18.12-21.49,22.39a23.55,23.55,0,0,0-1.19-3.69c-2.05-4.91-5-8.48-10.16-7.46-6.08,1.19-7.92,4.29-7.92,4.29l8.71-21Z"/><path class="cls-19" d="M116.88,147.15v.09c0,1,5.64,2,12.53,6.89,10.13,7.22,8.8,12.72,16.78,15.68,4.4,1.58,8,1.43,10.38,4.59.81,1,1,2.63,1,5.5-.05,3.68,0,9.94-4.06,13.72-6.8,6.32-24.4,2-32.32-4.3,3.29,4.23,6.84,5.4,12,7.12a72,72,0,0,0,26.68,3.06,62.41,62.41,0,0,0,8.27-1.48c.59-4.78.54-2.74,1.91-15.59,1.29-12.48,7.27-15.92,16.35-31.89s7.8-32.8,3.92-36.24c-3-1.34-14.72-3.06-18.17,11.62-3.87,16.4,1,24.33-5.54,32.37-4.46,5.5-10,6.81-16.74,4.78-8.79-2.77-9.85-7.36-19-14.11C125.11,144.66,117.17,146,116.88,147.15Z"/><path class="cls-20" d="M155.58,350.18c15.92-8.94,39.78-23.39,61.08-37.63.43-35.6.33-27.38.45-37,0,0-1.66-4.52-9-3.07-10.64,2.09-12.11,7.78-34.76,12.28-5.72,1.12-8.42-.81-13.09,1s-2.68,8.94-2,13.74c.57,3.8,0,4.5-.95,15.41C156.72,321.76,156.31,332.53,155.58,350.18Z"/><path class="cls-21" d="M155.58,350.18c-10.34-5.61-13.25-8-13.51-9.1,0-.06-.49-2-.49-2h0V288.32s4.07-6.62,9.18-5.33,10.08,8.24,9.48,15.51S155.58,350.18,155.58,350.18Z"/><path class="cls-22" d="M141.92,287.9c.19.34,2.09-1.42,5.09-1.7,3.92-.34,8.21,2.19,10.22,5.72a14.18,14.18,0,0,1,1.8,6.29c.3,3.73.8,11.91,1.07,22.78q11.64-.42,23.29-.87.21,2.63.42,5.22l3,1,8.52-5.43c.47-3.39.17-1.92,1.62-7.51q10-11.82,19.95-23.63l.08-6.92-7.33-.71c-2.36.58-14.53,2.54-21.67,3.77-28.8,4.89-31.57-2.43-36.37-2.79a11,11,0,0,0-6.29,1.64C143.35,285.89,141.73,287.57,141.92,287.9Z"/><path class="cls-23" d="M195.3,309.81s.9,10,.6,10.82-7.07,4.52-7.07,4.52l-.45-12.6Z"/><polygon class="cls-24" points="185.06 312.07 185.37 324.34 188.83 325.15 188.53 311.58 185.06 312.07"/><path class="cls-20" d="M161.59,318.85c.75-7.17,1.6-21.45-2.46-27.5-2.47-3.69-7.58-6.62-12-6-2.82.39-5.08,2.19-5.57,3.62,0,0-1.35-3.39,7.53-7.27a84.09,84.09,0,0,0,15.79-9.2s32.2-19.22,34.46-20.84,6.71-4,10.53-2.42c4.53,1.92,6.1,8.66,7.79,15.9a71.19,71.19,0,0,1,1.84,17.21c-30,36-18.05,24.73-29,34.24C181.33,317,184.88,316.8,161.59,318.85Z"/><path class="cls-25" d="M191.6,253.28c4.49.65,7,4.23,6.78,6.1-.3,2.28-2.76,3.27-4.06,2.42-1.12-.72-.45-2.27-1.69-3.27-.78-.64-1.41-.3-1.87-.85S190.17,256,191.6,253.28Z"/><path class="cls-6" d="M169.81,261.32c0,4.31,1,4,1.24,3.64,9.47-14.2,2.49-1.87,1.39,2.91a6.35,6.35,0,0,0,1.1,4.45c4,1.4,7.05.61,10.76-1.39,0,0,0,0,0,0,.38-.19.71-.39,1.1-.58a.18.18,0,0,1,.14,0,.63.63,0,0,0,.19-.15c1.63-.91,2.92-1.58,3.87-2.25,0,0,0,0,0,0a8.05,8.05,0,0,0,3.59-4.88v-.05c1.22-3.49.53-6.14-.19-9.75l-.63-3.54a8.26,8.26,0,0,1-.14-2.58c-.57-2.82-11.86-5.45-13.2-2.34-1,2.24-1.43,2.24-3.1,3.63C172,251.67,169.81,255.49,169.81,261.32Z"/><path class="cls-26" d="M176,248.32c6.42-2.76,13.7-1.81,17.07,4.83,0,0-.63-3.52-.63-3.54a8.26,8.26,0,0,1-.14-2.58c-.55-2.83-11.87-5.45-13.2-2.34C178.13,246.93,177.7,246.93,176,248.32Z"/><path class="cls-27" d="M178.9,273c4-2.21,8.47-5.31,6.27-9.26A14.35,14.35,0,0,1,178.9,273Z"/><path class="cls-28" d="M184.35,270.89c.38-.19.71-.39,1.1-.58a.18.18,0,0,1,.14,0,.63.63,0,0,0,.19-.15c3-2,5.3-4.38,3.54-7.55A14,14,0,0,1,184.35,270.89Z"/><path class="cls-29" d="M189.7,267.83a8.05,8.05,0,0,0,3.59-4.88,3.78,3.78,0,0,0-.53-1.48A13.25,13.25,0,0,1,189.7,267.83Z"/><path class="cls-30" d="M176.11,258.18c5.42,2.73,3.61,11.78-3.8,12.24C170.21,267.12,173.72,261,176.11,258.18Z"/><path class="cls-25" d="M175.4,258.06c-3.92-.4-10.37,15.91-8.49,17.14.7.45,1.29.77,1.43.84a5.05,5.05,0,0,0,3.69.09c2.29-1.2.49-5.13,3.35-9.1,1.21-1.68,3-4.39,2.49-6.39C177.58,259.53,176.62,258.18,175.4,258.06Z"/><path class="cls-31" d="M181.91,170.1c2.77,11.28,4.49,14.29,2.82,19.31-.57,1.68-3.25,25.11-3.44,26.83-.48,4.35-1.63,12.86-4.4,31,4.2-4,12.36-1.41,16.44,2.67,0,0,5-23.59,5-23.61,9.87-48.64,6.57-67,1.34-92.91-.93-4.51-2.82-12.95-6.08-16.2v0a12.19,12.19,0,0,0-2-1.87c-.43-.3-1.39-.81-1.39-.81a11.89,11.89,0,0,0-8.17-.19,12.76,12.76,0,0,0-5.31,3.87c-3.06,3.73-3.92,9-1.87,22C177.51,157.76,179.9,162.16,181.91,170.1Z"/><path class="cls-10" d="M189,192.09s-4.45,28.67-6.34,40.8c-1,6.49,2.46,12.47,7.3,14.62a26,26,0,0,1,3.34,2.43s5-23.59,5-23.61c9.26-45.67,7.15-64.15,1.34-92.91-.93-4.51-2.82-12.95-6.08-16.2v0a10.1,10.1,0,0,0-3.44-2.68,12.06,12.06,0,0,0-8.17-.19,26.13,26.13,0,0,0-5,10.28c-3,13.34,7.8,19.27,9.47,38.73.38,4.54.1,7.93,2.29,12.48,2.68,5.59,6.75,8,5.79,11C193.67,189.51,190.08,188.84,189,192.09Z"/><path class="cls-32" d="M137.83,80.65l29.52-5.92a22.5,22.5,0,0,0-1.3,21.66,47.94,47.94,0,0,1-8.44,7.26c-7.36,4.83-4.78-.14-16.76,3.75a5.84,5.84,0,0,1-1-8.33C139.29,93,140.49,92.81,137.83,80.65Z"/><path class="cls-33" d="M151.53,112.87l-11,4.8a2.24,2.24,0,0,1-3.1-1.71l-1.33-8.72a2.22,2.22,0,0,1,1.08-2.27c1-.39,1.88,1.57,3.68,2.43,3.12,1.5,5.52-1.94,9.09-.65,2,.71,3.68,2.65,3.44,4.14C153.22,111.88,152.2,112.53,151.53,112.87Z"/><path class="cls-34" d="M152.39,111.53l-11,4.79a2.23,2.23,0,0,1-3.1-1.71L137,105.89a2.16,2.16,0,0,1,1.08-2.26c.73-.17,1.85,1.4,2.82,3.77.62-.44,5.67-4,10-2,1.52.72,3.71,2.49,3.44,4.14C154.08,110.54,153.06,111.19,152.39,111.53Z"/><path class="cls-10" d="M169.58,99.59a36.94,36.94,0,0,1-20.71,19.87c-.77-4.26-4-10.64-8-12.06-4.62-1.63-10.31,1.88-14,5.16a28.19,28.19,0,0,0,6.33-11.27c1.26-4.64,2.26-7.86,6.34-11.26a65.63,65.63,0,0,0,.29,9q.52,4.17,1,8.33c10.26-8,17,1.41,23.5-15.93A12.2,12.2,0,0,1,169.58,99.59Z"/><path class="cls-6" d="M141.74,90.77c3.18.68,8.75-.91,11.43-2.24a26.3,26.3,0,0,0,10.23-8.37c10.63-2.42,16.22-11.31,17-16.59,1.43-9-28.55-37.92-40.69-30.31C127,41,124.72,87.34,141.74,90.77Z"/><path class="cls-35" d="M130,55.87c2.06-1.24,5.5-6.21,5.5-6.21s7.79,9.84,13.91,10.47,3-3.88,7.46,7.46S158.38,84.65,152,89c0,.05-.1.05-.15.09,3.34-1,8.21-4.3,11.57-8.89,10.63-2.42,16.22-11.31,17-16.59,1.43-9-28.55-37.92-40.69-30.31C134.62,36.36,131.23,45.64,130,55.87Z"/><path class="cls-36" d="M126,56.35a4.59,4.59,0,0,0,5.54-2.06c2.58-4,1.63-8.7,3.11-9.13s3.35,3.68,9.47,8.51c2.87,2.25,5.59,3.78,6.07,3.3s-1.22-2-2.2-5.5c-.16-.58-.7-2.52-.32-2.7s1.27,2.13,3.59,4.33c4.38,4.16,6.48,2.2,7.92,8.13.22.92.78,6.18,1.43,8.94,0,0,0,0,0,0,.1.5.6,3,1.1,3,0,0,0,0,.1,0,1,0,.29-7.61,4.54-10a3.51,3.51,0,0,1,1.3-.5c3.24-.81,4.79,2.34,5.06,5.66a10.5,10.5,0,0,1-1.72,6,10.37,10.37,0,0,1-3.68,4.16,10.07,10.07,0,0,1-3.4,1.38c-.57,6-.24,7.37.19,7.46s1.06-1.48,2.63-3.73a25.11,25.11,0,0,1,4.11-4.59c1.09-.94,7.95-8.8,9.09-11a34.29,34.29,0,0,0,4.3-19c-1.88-27.57-39.68-31.11-50.39-15.77A26.52,26.52,0,0,0,130,43.11c-.72,4.25.77,7.6-1.43,10.8A9.29,9.29,0,0,1,126,56.35Z"/><g class="cls-37"><path class="cls-38" d="M160.58,70.17s0,0,0,0c0,.8.3,2.45,1,2.92.05.05.1.1.14.1s0,0,.1,0c1,0,.29-7.61,4.54-10,2.42-1.76,5.9-.39,6.36,5.16a10.5,10.5,0,0,1-1.72,6,10.37,10.37,0,0,1-3.68,4.16,10.07,10.07,0,0,1-3.4,1.38c-.57,6-.24,7.37.19,7.46s1.06-1.48,2.63-3.73a25.11,25.11,0,0,1,4.11-4.59c1.35-1.27,8-8.8,9.09-11a31.56,31.56,0,0,0,4.3-18.93.07.07,0,0,0,0-.1c-1.48-19-20.56-28.44-36.62-23.85a22.09,22.09,0,0,1,14.15,6.69c7.64,8.22,5.09,14.91,2.77,22.09C163.05,58.9,160.06,64.67,160.58,70.17Z"/></g></g></svg>