<svg id="Слой_1" data-name="Слой 1" xmlns="http://www.w3.org/2000/svg" viewBox="0 0 147.14 373.58">
  <defs>
    <style>
      .cls-1 {
        fill: #531706;
      }

      .cls-1, .cls-10, .cls-11, .cls-12, .cls-13, .cls-14, .cls-15, .cls-16, .cls-17, .cls-18, .cls-19, .cls-2, .cls-3, .cls-4, .cls-5, .cls-6, .cls-7, .cls-8, .cls-9 {
        fill-rule: evenodd;
      }

      .cls-2 {
        fill: #eaeaea;
      }

      .cls-3 {
        fill: #fdbf9d;
      }

      .cls-4 {
        fill: #de936c;
      }

      .cls-5 {
        fill: #202020;
      }

      .cls-6 {
        fill: #1c6666;
      }

      .cls-18, .cls-7 {
        fill: #fc9e8a;
      }

      .cls-8 {
        fill: #227979;
      }

      .cls-9 {
        fill: #fff;
      }

      .cls-10 {
        fill: #b6b6b6;
      }

      .cls-11 {
        fill: #d9d9d9;
      }

      .cls-12 {
        fill: #363958;
      }

      .cls-13 {
        fill: #f1f1f1;
      }

      .cls-14 {
        fill: #6e260e;
      }

      .cls-16 {
        fill: #c47f75;
      }

      .cls-17 {
        fill: #904341;
      }

      .cls-18 {
        fill-opacity: 0.72;
      }

      .cls-19 {
        fill: #752912;
      }
    </style>
  </defs>
  <title>lifecycleThirdQuaterWoman</title>
  <g>
    <path class="cls-1" d="M74,51.48q-7.51,23.66-7.52,32.16a147.24,147.24,0,0,0,1.38,15.48c.88,7,2,14,3.47,20.91a57.19,57.19,0,0,1,1.52,7.27,17.71,17.71,0,0,0,1,5.36,137.52,137.52,0,0,0,5.69,13.07c4.17,8.31,9.36,16,15.83,21.62,10.64,9.31,25.5,12.48,36.77,4.43,7.29-5.2,12.38-14.6,14.21-24.8a60.41,60.41,0,0,0-2.87-30.6c-2.68-7.43-6.65-14.23-8.16-22.15-3.06-16,4.47-32.32,3.73-48.72-.7-15.61-9.68-30.13-21.62-35A24.31,24.31,0,0,0,111.6,9a28,28,0,0,0-21.7,6.55c-2.51,2.07-5.09,4.52-6.17,8.13-.46,1.53-.82,3.09-1.36,4.58-.81,2.21-1.8,4.32-2.64,6.51C77.62,40.2,75.76,45.83,74,51.48Z"/>
    <path class="cls-2" d="M46.92,126c-4.81-.67-11.64,4.75-21.24,16.87-13.2,16.67-24.31,32.2-20.29,42.2s14.66,2.28,20.94-3,18-18.14,22.84-28.35S52.23,126.78,46.92,126Z"/>
    <path class="cls-2" d="M127.76,187.17s-2.24,3.86-10.69.21-27.07-28.3-29.14-41,5-20.76,11.2-18.74,20.35,20.89,24.32,28.61S135.17,174.09,127.76,187.17Z"/>
    <g>
      <g>
        <path class="cls-3" d="M44.67,363.25l-3.38,5.2H19.1L21.05,359l1.8-.84a10.62,10.62,0,0,0,5.66-8.58l.48-2.93,2.21-13.36,16.68,3.27L46,346.68l-.31,1.68a60.34,60.34,0,0,0-1,14.56C44.66,363,44.66,363.14,44.67,363.25Z"/>
        <polygon class="cls-4" points="45.96 346.68 28.99 346.68 31.2 333.32 47.88 336.59 45.96 346.68"/>
        <path class="cls-5" d="M43.81,373.58H0c1.28-6.92,13.87-11.86,21.05-14.55.56.82,1.41,2.11,2.32,3.57,2.2,3.61,6.19,5,10.46,3.72,6.1-1.83,9.24-2.69,10.84-3.07C44.81,366.56,44.93,370.91,43.81,373.58Z"/>
      </g>
      <g>
        <path class="cls-3" d="M76.82,363.25l2.3,5.2h22.19V359l-1.62-.84c-2.75-1.38-4.36-4.95-3.89-8.58l.12-2.93.55-13.36-17.36,3.27L79,346.68l0,1.68a62.18,62.18,0,0,1-2,14.56C76.88,363,76.86,363.14,76.82,363.25Z"/>
        <polygon class="cls-4" points="78.95 346.68 95.92 346.68 96.47 333.32 79.11 336.59 78.95 346.68"/>
        <path class="cls-5" d="M75.55,373.58h43.81c.15-6.92-11.42-11.86-18-14.55-.72.82-1.85,2.11-3.06,3.57-2.94,3.61-7.21,5-11.22,3.72-5.73-1.83-8.68-2.69-10.21-3.07C76,366.56,75,370.91,75.55,373.58Z"/>
      </g>
      <path class="cls-6" d="M40,206.24l-4.24,12.37L26.92,341.22H50.45L68.34,237.33h4.15l3.72,104.32,22.41-.58c2.86-34.37,5.63-85.45,6.39-101.06q.85-8.06,1.12-12.69l-2.25-20.22-63.55-1.83C40.21,205.56,40.09,205.88,40,206.24Z"/>
    </g>
    <g>
      <path class="cls-7" d="M86.66,127l-5.4-1c-.44-4-.17-13.72-.17-13.72l-17.77-.9.14,14.74-5.49.54s.43,35.58,15.46,37S86.66,127,86.66,127Z"/>
      <path class="cls-8" d="M37.21,206.62c.35.38.73.74,1.1,1.1,13,12.49,29.63,13.47,45.09,10.74A71.56,71.56,0,0,0,95,215.4c1-.33,9.73-3.46,9.49-5.26-1.63-12.25-2.38-24.91-3.55-37.29l-3-28.25-1.54-11.53c-.1-.65-.19-1.26-.31-1.81s-.19-1.14-.27-1.62l-1.23-.27-8.85-1.44c0,.07,0,.11,0,.17,0,6-3.54,11.33-7.72,13.38-1.59.77-3,.1-3.43,2.4-.47,2.7-.59,5.57-.79,8.32-.47,6.55-.79,6.74-.92.57s-.35-9.46-.63-9.9c-.78-1.26-2.49-1.21-3.58-1.77a11.24,11.24,0,0,1-3.91-3.46,19.15,19.15,0,0,1-3-9.24c0-.49-.09-1-.12-1.42,0-.27,0-.54,0-.8l-7.37.09-1.49.08-1.38.13a10.3,10.3,0,0,0-1.27.13c-.14.59-.3,1.22-.48,1.93s-.34,1.5-.52,2.34L46.46,144.6l-1.61,9.77Z"/>
      <path class="cls-9" d="M62.61,125.44s3,75.66-5,138.65C38.91,266.3,27,258,23.53,255.28c-.05,0,10.71-55.69,10.71-55.69s12.51-73,12.68-73.56C47.35,126,62.61,125.44,62.61,125.44Zm36.52,2.24c2.19,15.87,15,127.25,15,127.25-9,7.69-23.74,12.65-33.32,10.55L83,126S98.7,127.59,99.13,127.68Z"/>
      <g>
        <path class="cls-10" d="M78,115.27c6.76-.57,12.71,5.07,15.83,12.19,3.6,8.24,4,17.73,4.19,26.9,0,2.07-2.54,2.26-2.59.18-.24-8.41-.46-17.29-3.62-24.94C89.1,123,84.19,118,78,117.94,76.82,117.92,76.81,115.38,78,115.27Z"/>
        <g>
          <polygon class="cls-11" points="98.71 154.98 98.71 150.24 94.39 150.24 94.39 155.27 98.71 154.98"/>
          <path class="cls-2" d="M96.79,153a5.64,5.64,0,0,0-4.49,2.37,10,10,0,0,0,0,11.43,5.64,5.64,0,0,0,4.49,2.37,5.34,5.34,0,0,0,4.37-2.37,9.55,9.55,0,0,0,0-11.43A5.34,5.34,0,0,0,96.79,153Z"/>
          <path class="cls-10" d="M96.79,155.62a3.81,3.81,0,0,0-3,1.59,6.75,6.75,0,0,0,0,7.71,3.83,3.83,0,0,0,3,1.6,3.6,3.6,0,0,0,2.94-1.6,6.41,6.41,0,0,0,0-7.71A3.59,3.59,0,0,0,96.79,155.62Z"/>
          <path class="cls-11" d="M96.79,157.78a2.19,2.19,0,0,0-1.8,1,3.71,3.71,0,0,0-.74,2.31,3.76,3.76,0,0,0,.74,2.36,2.2,2.2,0,0,0,3.59,0,3.76,3.76,0,0,0,.74-2.36,3.71,3.71,0,0,0-.74-2.31A2.19,2.19,0,0,0,96.79,157.78Z"/>
        </g>
      </g>
      <g>
        <path class="cls-10" d="M37.56,171.05c.6-6.56,1.83-13.38,5.12-18.28a9.94,9.94,0,0,1,7.47-4.61V146c0-1.93,0-3.87.1-5.81a45.17,45.17,0,0,1,1.8-10.92C54,123.1,57.88,118,63,116.63c1.48-.41,1.69,2.6.26,3-4.27,1.29-7.34,6.33-8.82,11.47a43.82,43.82,0,0,0-1.49,10.26c-.07,1.76-.09,3.53-.07,5.27,0,.54,0,1.07,0,1.59a10.47,10.47,0,0,1,4.6,1.87c.39.32.79.65,1.17,1,4.64,4.54,7,11.79,7.52,19a67.44,67.44,0,0,1-.32,14.76c-.64,3.85-3,7-6.33,6.45-1.37-.21-.94-2.6.26-2.77,2.55-.37,3.75-4.48,3.87-6.93.1-3.08,0-7.18-.19-10.26-.31-5.55-2.06-11.47-5.1-15.6a9.63,9.63,0,0,0-5.73-3.87,6.3,6.3,0,0,0-2.07-.15,7.24,7.24,0,0,0-.95.13c-3.64.78-5.71,4-7.09,8A49.57,49.57,0,0,0,40,180.36a10.05,10.05,0,0,0,.58,3A3.73,3.73,0,0,0,41.78,185a1.32,1.32,0,0,0,1.07.17,1.68,1.68,0,0,1,1.85,1.29c.3,1-.07,2-.93,2.11C38.36,189.4,36.68,180.58,37.56,171.05Z"/>
        <path class="cls-12" d="M60.82,186.65c1.47.58,1.29,6.14.49,6.71-1.54,1.09-3.52-.1-3.52-2.88S59.35,186.06,60.82,186.65Z"/>
        <path class="cls-12" d="M43.71,183.36c-1.47.59-1.29,6.15-.5,6.71,1.54,1.1,3.52-.1,3.52-2.88S45.18,182.78,43.71,183.36Z"/>
      </g>
      <path class="cls-2" d="M56.16,213.64s-.89,15.55-2.68,19.67a12.11,12.11,0,0,1-4,4.7c-5.18,2.81-11.39,1-14.68-4.7a11.22,11.22,0,0,1-1.57-4.76c-.51-6.82,2.42-17.92,2.42-17.92Z"/>
      <path class="cls-2" d="M84.65,214.53s-.78,15.56.55,19.94a13.26,13.26,0,0,0,3.49,5.33,10.43,10.43,0,0,0,15-2.23,10.58,10.58,0,0,0,2.07-4.46c1.23-6.68-.49-18.17-.49-18.17Z"/>
    </g>
    <g>
      <path class="cls-3" d="M102.41,123.64a1.54,1.54,0,0,1-.14-.9,1.77,1.77,0,0,1,1.56-1.38c1.93-.34,3.84.67,5.63,1.64a4.66,4.66,0,0,0-4.18-2.77,3.25,3.25,0,0,1-1.66-.47,1.59,1.59,0,0,1-.52-1.81,1.41,1.41,0,0,1,.77-.66c2.06-.94,4.34-.12,6.39.86a4.1,4.1,0,0,0-4.47-2.11,2.14,2.14,0,0,1-1.37-.08c-1.26-.7,0-2.23.65-2.7a4.31,4.31,0,0,1,3.24-.64,18.88,18.88,0,0,1,4.58,2,2.61,2.61,0,0,0-1.67-2l-2.58-1.36a2.83,2.83,0,0,1-1-.7,1.42,1.42,0,0,1-.29-1.27c.21-.68.94-.79,1.52-.74a10.84,10.84,0,0,1,6.63,3.29,7.86,7.86,0,0,1,2.23,6.38,49.49,49.49,0,0,1-2.29,12.83,6.19,6.19,0,0,0-.57,2.74,5.24,5.24,0,0,0,.37,1.3l4.37,11.51-9.59,4-3.63-7.7c-.3-.66-.61-1.31-.85-2-1.26-3.71-.32-8.08,1.4-11.49.49-1,1-2.25.44-3.12a1.89,1.89,0,0,0-.84-.62,10.92,10.92,0,0,0-2-.72,4.3,4.3,0,0,1-1.54-.58A1.79,1.79,0,0,1,102.41,123.64Z"/>
      <path class="cls-13" d="M110.52,167.84c1.46,5.27,2.7,10.78,5.59,15.2,2.13,3.24,5.32,5.69,8.68,5.44,3.54-.27,6.65-3.61,7.93-7.72a21.25,21.25,0,0,0,.53-8.85c-1.31-10.74-11.15-28-14.58-35.14L104,143.2C104,143.49,109.19,163,110.52,167.84Z"/>
    </g>
    <g>
      <path class="cls-3" d="M47.17,132a4,4,0,0,0-1.25.56c-1.94,1.29-3.31,3.89-4.59,6-3,5-5.78,10.48-7,16.54-.49,2.47-.87,6,1.11,7.72,2.59,2.23,5.65,1.78,7-2,1-2.66.81-6.3,2.85-8.23a2.22,2.22,0,0,1,1.37-.61,1.16,1.16,0,0,1,.66.11c1.09.67,3.17,3.69,4.44,3.19,2.06-.8.23-4.26-.76-5.2a13.72,13.72,0,0,0-5.58-3.28.77.77,0,0,1-.33-.15.4.4,0,0,1-.15-.43c2.24-.8,5.32,1.52,6.93,3.26.59.64,1.39,1.68,2.26,1.23s.8-2,.45-2.92a7.62,7.62,0,0,0-3-3.69,13.25,13.25,0,0,0-4-1.67.71.71,0,0,1-.36-.17.42.42,0,0,1-.1-.43.39.39,0,0,1,.41-.16,10.7,10.7,0,0,1,6.14,2.87l.4.39a1.7,1.7,0,0,1,.19.19c.55.94,1.54,1.81,2.28.48,1.25-2.26-2.23-5.24-3.47-6.05s-2.81-1.53-4.14-2.49a.45.45,0,0,1-.19-.42c.14-1.11,5.14,1.62,5.56,1.95a4.5,4.5,0,0,0,1.34.88c2.21.7,1.08-2.24.42-3.42-1.34-2.43-3.31-3.18-5.56-3.79A6.85,6.85,0,0,0,47.17,132Z"/>
      <path class="cls-13" d="M6.8,189.77q2.23,5.44,6.59,7t15.52-11q11.06-12.42,12-15.36a5.68,5.68,0,0,1,.53-1.12L31,151.37Q14.35,166.6,10.73,169.52a14.45,14.45,0,0,0-5.1,8.94A18.59,18.59,0,0,0,6.8,189.77Z"/>
    </g>
    <g>
      <g>
        <path class="cls-14" d="M28.06,25.14c-13.75,28-2.11,67,19.21,83.57,18.1,14.08,43.22,12.69,60.22-3.34,14-13.22,22-35.36,20.31-57.09-1.6-20.11-13-35-27.76-42.21A60.5,60.5,0,0,0,43.52,8,39.82,39.82,0,0,0,28.06,25.14Z"/>
        <g>
          <path class="cls-3" d="M124.52,71c10,2.87,5.17,30.85-16.4,28.35C107.86,78,114.7,68.13,124.52,71Z"/>
          <path class="cls-7" d="M125.16,81.52a13.15,13.15,0,0,1-2,5c-.4.65-1.32-.09-1-.79a9.08,9.08,0,0,0,1-5.94c-.38-1.58-1.35-2.5-2.68-2.39-2.47.2-4.75,2.38-6.13,4.81-.11.2-.2.4-.29.61l.24-.14a2.84,2.84,0,0,1,3.75.14c2.34,2.19,1.67,6-.09,8.41s-5.07,4.17-7.5,2.3c-.74-.57-.21-2,.58-1.89a5.54,5.54,0,0,0,4.75-1.33c1-.87,2.19-2.6,1.72-4.21-.17-.56-.63-1.23-1.14-1.28s-1,.58-1.38.89c-1.3,1-3.34,1-4-1.12-.5-1.68.65-3.63,1.42-4.9a13.28,13.28,0,0,1,3.18-3.62c2.5-1.94,6.18-3.24,8.37,0A7.75,7.75,0,0,1,125.16,81.52Z"/>
        </g>
        <g>
          <path class="cls-3" d="M21.72,67.56C10.59,70.76,15.94,102,40,99.2,40.31,75.47,32.68,64.41,21.72,67.56Z"/>
          <path class="cls-7" d="M21,79.35A14.34,14.34,0,0,0,23.19,85c.45.74,1.47-.09,1.08-.88a10.15,10.15,0,0,1-1.08-6.62c.43-1.77,1.51-2.79,3-2.67,2.75.22,5.31,2.65,6.84,5.37.12.22.22.45.33.67-.15-.07-.26-.14-.28-.15a3.16,3.16,0,0,0-4.18.16c-2.61,2.44-1.86,6.75.1,9.38s5.66,4.65,8.37,2.57c.83-.63.24-2.21-.64-2.11a6.19,6.19,0,0,1-5.31-1.48c-1.05-1-2.44-2.91-1.91-4.7.18-.63.7-1.38,1.27-1.43s1.08.65,1.53,1c1.46,1.1,3.73,1.06,4.43-1.25.56-1.87-.73-4-1.59-5.47a14.93,14.93,0,0,0-3.54-4c-2.79-2.17-6.91-3.62-9.35,0A8.66,8.66,0,0,0,21,79.35Z"/>
        </g>
        <path class="cls-3" d="M41.66,101.5a21.7,21.7,0,0,0,2,5.45,18.46,18.46,0,0,0,2,3,21.1,21.1,0,0,0,5.61,4.34c9.71,6.14,21.39,9.56,32.15,6.14,11.25-3.57,22.5-8.39,26.5-23.07C113,86,112.63,73.19,113,61.31l.13-5.44a22.38,22.38,0,0,1-4-5.15q-6.93-10.55-8.93-15.81a48.88,48.88,0,0,1-1.88-6.66c-.06-.28-1.37-.85-1.61-1-.65-.39-1.31-.77-2-1.15-1.28-.72-2.58-1.42-3.89-2.05a10.36,10.36,0,0,0-1.42-.59c-.66-.22-1.34-.33-2-.56A9.41,9.41,0,0,1,85,21.42a17.76,17.76,0,0,0-3.15-1.93A15,15,0,0,0,75.55,18a16.36,16.36,0,0,0-12.13,5.75C61,26.5,59.2,30,56.7,32.6s-5.58,4.18-8.45,6.1-5.71,4.39-7.14,8c-1.54,3.95-1.19,8.64-.35,12.91s2.15,8.43,2.43,12.81c.35,5.79-1.11,11.47-1.89,17.18l-.12,1a26.64,26.64,0,0,0-.3,4.8c0,.48.2.91.25,1.38.07.71,0,1.44.12,2.15A21.84,21.84,0,0,0,41.66,101.5Z"/>
        <g>
          <g>
            <path class="cls-15" d="M86.53,79c-.86,0-1.58-.64-2.16-1.91a13.16,13.16,0,0,1,0-9.36c.58-1.27,1.3-1.91,2.16-1.91s1.62.64,2.25,1.91a13,13,0,0,1,0,9.36C88.15,78.33,87.4,79,86.53,79Z"/>
            <path class="cls-14" d="M87.43,58.86c-3.92-.79-7.37,3.14-6.57,3.45,3,1.16,10.67,1.51,13,1.1C94.77,63.26,92.1,59.8,87.43,58.86Z"/>
          </g>
          <g>
            <path class="cls-15" d="M58.43,79c.86,0,1.58-.64,2.16-1.91a13.16,13.16,0,0,0,0-9.36c-.58-1.27-1.3-1.91-2.16-1.91s-1.62.64-2.25,1.91a13,13,0,0,0,0,9.36C56.81,78.33,57.56,79,58.43,79Z"/>
            <path class="cls-14" d="M57.53,58.86c3.92-.79,7.37,3.14,6.57,3.45-2.95,1.16-10.67,1.51-13,1.1C50.19,63.26,52.86,59.8,57.53,58.86Z"/>
          </g>
          <path class="cls-16" d="M77.21,85.36s-1.31-3.93-3.77-3.54S70.14,85,70.14,85s-.21-5.82,3.38-5.74C77.37,79.33,77.21,85.36,77.21,85.36Z"/>
          <path class="cls-17" d="M84.4,90.89A13.62,13.62,0,0,1,74,97.45c-8.77.82-12.47-7-12.47-7A27.93,27.93,0,0,0,84.4,90.89Z"/>
        </g>
        <g>
          <g>
            <path class="cls-18" d="M97.39,103.13a8.75,8.75,0,0,1-7-3.62,13.34,13.34,0,0,1-2.83-8.64,13.58,13.58,0,0,1,2.83-8.64,8.69,8.69,0,0,1,14,0,13.58,13.58,0,0,1,2.83,8.64,13.34,13.34,0,0,1-2.83,8.64A8.69,8.69,0,0,1,97.39,103.13Z"/>
            <path class="cls-9" d="M102.85,83.38a3.39,3.39,0,0,1,.57,2,3.25,3.25,0,0,1-.57,1.94,2.08,2.08,0,0,1-3.26,0A3,3,0,0,1,99,85.41a3.1,3.1,0,0,1,.64-2,2.08,2.08,0,0,1,3.26,0Z"/>
          </g>
          <path class="cls-19" d="M114.74,65.79c.07-.06.08-.05,0,0Zm-85-12.09,0,0a1.22,1.22,0,0,0,0-.17Z"/>
          <g>
            <path class="cls-18" d="M48.85,103.15a9.08,9.08,0,0,1-7.29-3.75,13.9,13.9,0,0,1-3-9,14.14,14.14,0,0,1,3-9,9,9,0,0,1,14.51,0,14.08,14.08,0,0,1,3,9,13.85,13.85,0,0,1-3,9A9,9,0,0,1,48.85,103.15Z"/>
            <path class="cls-9" d="M43.77,86.75a3.12,3.12,0,0,1-.66-2,3.27,3.27,0,0,1,.66-2.11,2.14,2.14,0,0,1,1.62-.82,2.09,2.09,0,0,1,1.7.82,3.27,3.27,0,0,1,.66,2.11,3.12,3.12,0,0,1-.66,2,2.1,2.1,0,0,1-1.7.83A2.16,2.16,0,0,1,43.77,86.75Z"/>
          </g>
        </g>
      </g>
      <path class="cls-14" d="M30.13,85.08c-.33,5.52-4.06,10.31-4.06,15.81,0,4.71,2.75,8.85,5.7,12.19s6.35,6.43,8.27,10.62,1.05,11-2.34,13.85A10.19,10.19,0,0,0,46.65,134,13,13,0,0,0,49.48,124c-.46-3.25-2.11-6.08-3.32-9.07s-2-6.51-.83-9.5,4.17-4.82,4.81-8c.93-4.63-3.58-8.41-4.24-13.08a12,12,0,0,1,.78-5.58,48.35,48.35,0,0,1,2.06-4.59,16.3,16.3,0,0,0,1.59-3.82,7.73,7.73,0,0,0-.17-3,27.26,27.26,0,0,0-1-4c-.91-2.5-2.24-4.83-2.89-7.45a9.21,9.21,0,0,1,.07-5.15A10.64,10.64,0,0,1,49,46.55a21,21,0,0,1,6.7-4.08,32.08,32.08,0,0,0,6.93-3.64c2.69-2.06,4.67-5.06,6.84-7.78s4.73-5.34,7.91-6.18,6.45.18,9.41,1.65,5.73,3.38,8.8,4.51l.33.11a12.94,12.94,0,0,0,4.84.75,9.18,9.18,0,0,0,2.37-.44A11.27,11.27,0,0,0,106,29.79c-4.43-1.11-8.13-4.48-11.18-8.23S89.2,13.59,86,10C81.5,5.1,75.67,1.5,69.42.88A18.36,18.36,0,0,0,52.65,8.42c-2,2.89-3.3,6.48-5.77,8.9s-5.68,3.3-8.74,4.44a21.35,21.35,0,0,0-4.23,2,12.31,12.31,0,0,0-3.37,3.34c-.15.2-.33.35-.48.54a3.25,3.25,0,0,0-.45,1A16,16,0,0,0,29,31a27.3,27.3,0,0,0-.48,5c0,3.82.33,7.7-.43,11.44-1,4.92-4,9.28-4.21,14.32C23.52,70,30.61,76.9,30.13,85.08Z"/>
    </g>
  </g>
</svg>
