<svg id="Layer_1" data-name="Layer 1" xmlns="http://www.w3.org/2000/svg" xmlns:xlink="http://www.w3.org/1999/xlink" viewBox="0 0 291.72 480.53"><defs><style>.cls-1{fill:#08a2ad;}.cls-2{fill:#4ceaff;}.cls-3{fill:url(#linear-gradient);}.cls-4{fill:url(#New_Gradient_Swatch_copy_67);}.cls-5{fill:url(#linear-gradient-2);}.cls-6{fill:url(#New_Gradient_Swatch_copy_67-2);}.cls-7{fill:#ffcfcd;}.cls-8{fill:#ed7d88;}.cls-9{fill:url(#New_Gradient_Swatch_copy_11);}.cls-10{fill:#ef294f;}.cls-11{fill:#bf1c3c;}.cls-12{fill:#052440;}.cls-13{fill:#005995;}.cls-14{fill:url(#linear-gradient-3);}.cls-15{isolation:isolate;}.cls-16{fill:#fff;}.cls-17{fill:#c1e3f4;}.cls-18{fill:#71afd1;}.cls-19{fill:url(#linear-gradient-4);}.cls-20{fill:url(#linear-gradient-5);}.cls-21{fill:url(#linear-gradient-6);}.cls-22{fill:url(#New_Gradient_Swatch_copy_40);}.cls-23{fill:url(#New_Gradient_Swatch_copy_11-2);}.cls-24{fill:url(#New_Gradient_Swatch_copy_11-3);}.cls-25{fill:url(#linear-gradient-7);}.cls-26{fill:#a14c50;}.cls-27{fill:url(#linear-gradient-8);}.cls-28{fill:#733639;}</style><linearGradient id="linear-gradient" x1="-4634" y1="364.55" x2="-4634" y2="182.79" gradientTransform="translate(4768.36)" gradientUnits="userSpaceOnUse"><stop offset="0" stop-color="#14c7a9"/><stop offset="0.14" stop-color="#15c0ad"/><stop offset="1" stop-color="#1c99c3"/></linearGradient><linearGradient id="New_Gradient_Swatch_copy_67" x1="-6336.03" y1="333.13" x2="-6177" y2="344.79" gradientTransform="matrix(-1, 0, 0, 1, -6167.86, 0)" gradientUnits="userSpaceOnUse"><stop offset="0" stop-color="#096976"/><stop offset="1" stop-color="#37a999"/></linearGradient><linearGradient id="linear-gradient-2" x1="-4595.16" y1="364.55" x2="-4595.16" y2="182.79" gradientTransform="translate(4768.36)" gradientUnits="userSpaceOnUse"><stop offset="0" stop-color="#14c7a9"/><stop offset="1" stop-color="#1c99c3"/></linearGradient><linearGradient id="New_Gradient_Swatch_copy_67-2" x1="-6336.47" y1="339.2" x2="-6177.44" y2="350.86" xlink:href="#New_Gradient_Swatch_copy_67"/><linearGradient id="New_Gradient_Swatch_copy_11" x1="-4645.61" y1="174.92" x2="-4700.93" y2="153.21" gradientTransform="translate(4768.36)" gradientUnits="userSpaceOnUse"><stop offset="0" stop-color="#ed7d88"/><stop offset="1" stop-color="#ffcfcd"/></linearGradient><linearGradient id="linear-gradient-3" x1="-7250.68" y1="-3143.68" x2="-7229.24" y2="-3147.68" gradientTransform="matrix(0.26, -0.97, -0.97, -0.26, -1026.57, -7551.69)" gradientUnits="userSpaceOnUse"><stop offset="0" stop-color="#083966"/><stop offset="1" stop-color="#005995"/></linearGradient><linearGradient id="linear-gradient-4" x1="-7208.02" y1="-3119.08" x2="-7186.58" y2="-3123.08" xlink:href="#linear-gradient-3"/><linearGradient id="linear-gradient-5" x1="-7129.92" y1="-3213.9" x2="-7108.49" y2="-3217.9" xlink:href="#linear-gradient-3"/><linearGradient id="linear-gradient-6" x1="-7087.27" y1="-3189.29" x2="-7065.83" y2="-3193.29" xlink:href="#linear-gradient-3"/><linearGradient id="New_Gradient_Swatch_copy_40" x1="-4561.15" y1="99.28" x2="-4608.08" y2="293.11" gradientTransform="translate(4768.36)" gradientUnits="userSpaceOnUse"><stop offset="0" stop-color="#fad260"/><stop offset="1" stop-color="#fa9826"/></linearGradient><linearGradient id="New_Gradient_Swatch_copy_11-2" x1="-6397.69" y1="202.82" x2="-6365.17" y2="202.82" gradientTransform="matrix(-1, 0, 0, 1, -6167.86, 0)" xlink:href="#New_Gradient_Swatch_copy_11"/><linearGradient id="New_Gradient_Swatch_copy_11-3" x1="-6189.37" y1="278.94" x2="-6182.71" y2="284.49" gradientTransform="matrix(-1, 0.06, 0.06, 1, -5996.45, 304.2)" xlink:href="#New_Gradient_Swatch_copy_11"/><linearGradient id="linear-gradient-7" x1="-6494.07" y1="235.36" x2="-6466.59" y2="277.34" gradientTransform="matrix(-0.95, 0.31, 0.31, 0.95, -6077.82, 1916.46)" xlink:href="#New_Gradient_Swatch_copy_11"/><linearGradient id="linear-gradient-8" x1="-6505.81" y1="243.14" x2="-6478.03" y2="285.58" gradientTransform="matrix(-0.95, 0.31, 0.31, 0.95, -6077.82, 1916.46)" xlink:href="#New_Gradient_Swatch_copy_11"/></defs><title>manPhase2</title><path class="cls-1" d="M197.33,473.41c1.62,3.63,29.85,12.71,29.26-15l-.54-25.19s-23.57.31-23.8,6.54C201.94,453.28,192,463.4,197.33,473.41Z"/><path class="cls-2" d="M196,464.35a12.88,12.88,0,0,0,1.27,4.22c1.63,3.63,29.86,12.71,29.27-14.95l-.44-20.35s-23.57.31-23.8,6.54c-.33,6-2.37,12.44-4.53,18A24.62,24.62,0,0,0,196,464.35Z"/><path class="cls-1" d="M205.38,445.61l15.82.33-2.91,3.39-11.73-.58C206.17,447.7,205.78,446.65,205.38,445.61Z"/><path class="cls-1" d="M204.22,450.2l15.82.33-2.9,3.39-11.73-.58C205,452.29,204.62,451.24,204.22,450.2Z"/><path class="cls-1" d="M203.07,454.79l15.81.33-2.9,3.39-11.73-.58C203.86,456.88,203.46,455.83,203.07,454.79Z"/><path class="cls-1" d="M137.18,436.26s4,12.29.38,18.73-17.9,3.58-20.77,3.58S105.34,465,101,465.73c-6.87,1.15-19.72,1.63-22.25-3.49a6.94,6.94,0,0,1,.58-6.55c2.74-4.16,10.65-1.66,17.37-3.95l20.77-24.68h0Z"/><path class="cls-2" d="M137.55,452c-3.59,6.44-17.9,3.59-20.75,3.59-7.49,0-7.39,4.95-15.78,7.13a45.39,45.39,0,0,1-15.88.11c-4.25-.89-6.2-2.34-6.37-3.58a7,7,0,0,1,.1-2,7.63,7.63,0,0,1,.59-1.81c3-6.8,13.56-8.85,16.23-9.45h0a2.1,2.1,0,0,0,.42-.09c.82-.51,1.65-1.06,2.57-1.66.55-.36,1.11-.78,1.7-1.24,1-.69,2.08-1.52,3.18-2.39l1.33-1.2a30.68,30.68,0,0,0,2.86-2.66,59,59,0,0,0,9.7-12.7c6.72,3.08,13,6.1,19.68,9.18C137.17,433.29,141.14,445.59,137.55,452Z"/><path class="cls-1" d="M114,441l-3.45,2.16-5.62-3.72a30.68,30.68,0,0,0,2.86-2.66Z"/><path class="cls-1" d="M109,444.55l-3.52,2.16-5.09-3.65c1-.69,2.07-1.52,3.17-2.39Z"/><polygon class="cls-1" points="104.2 448.03 100.35 449.8 96.15 445.96 98.72 444.3 104.2 448.03"/><path class="cls-1" d="M134.78,445.56a3.81,3.81,0,1,1-3.81-3.81A3.82,3.82,0,0,1,134.78,445.56Z"/><path class="cls-3" d="M111.35,432.82s4,5.87,13.89,5.87S137.63,435,137.63,435c1.46-33.3,4.37-42.56,7.51-81.86a352.2,352.2,0,0,0,7.33-38.91c3.94-30,7.22-55.19-1.55-67.39-1.35-2.68,4.15-7.55,6.45-9.48a68.17,68.17,0,0,1-39.61-1.84c-7.82,47.38-4.59,82.41-4.14,118.08C113.73,361.55,113.69,365.18,111.35,432.82Z"/><path class="cls-4" d="M111.35,432.82s4,5.87,13.89,5.87S137.63,435,137.63,435c6.32-49.12,7.54-61.5,7.51-81.86a352.2,352.2,0,0,0,7.33-38.91c3.94-30,7.22-55.19-1.55-67.39a.15.15,0,0,1,0-.1,37.36,37.36,0,0,1-17.14-12.15c-7.94-.81-15.42-1.06-16,.93-.49,1.8,5.4,2.94,9.06,8.44.68,1,10.91,61.74,9.92,86.41-1.11,27.56-4.26,41.26-4.24,68.78,0,15.76,1.13,23.2-4,28.55C123.83,432.55,116.46,433.07,111.35,432.82Z"/><path class="cls-5" d="M228,438.4c-6.53,5.94-17.22,7.31-26.32,1.11-8-58.58-22.78-111.13-48.66-164.61-11.88-7.15-15.79-21.2-10.83-33.29l-23.76-12.19s4.26-7.62,29.59,0c32.52,10.11,31.75,8,42.49,14.16,0,0,8.84,34.08,12.31,51.32,0,0,3.36,17.88,3.88,19.6,0,0,.46,2.07.46,2.13C220.91,358.35,217,349.35,228,438.4Z"/><path class="cls-6" d="M228,438.4a20,20,0,0,1-11.9,5.07,316.86,316.86,0,0,0-9.49-103.25A316.75,316.75,0,0,0,170.88,256a97.24,97.24,0,0,1-16.58-5.53C148,247.75,132.19,240,133.17,236.1c.46-1.87,5-4.13,31.16-1.78,14.36,4.05,18.48,4.71,26.16,9.22,11,42.4,16.19,71,16.19,71s.46,2.07.46,2.13C221,358.56,217,349.88,228,438.4Z"/><path class="cls-7" d="M21.63,142.23a6.47,6.47,0,0,0,1.29,2.47c4.43,6.72,11.28,7.7,19.3,7.43l6.64,3.29c.5-3,3.38-16.83,3.53-17.35a11.25,11.25,0,0,1-2-1.37c-6.37-3.91-4.73-7.31-6.8-10.16a17,17,0,0,1-1-4.93c.12-1,1.43-2.62,1-4.22s-3.11-2.85-4.67-1.77-1.57,3.34-1.74,3.52-1,4.89-1,4.89l.06,3a15.42,15.42,0,0,0-6.44-3.8c-2.45-.71-3.29-.2-3.58,0-1,.8-1.55,3.21-1.66,4.49-1.85,0-2.16,2.62-1.81,4.38a4,4,0,0,0,0,5.49A6.34,6.34,0,0,0,21.63,142.23Z"/><path class="cls-8" d="M28.54,128.5c-3.75-.42-3.11-.3.3.35A13.2,13.2,0,0,1,32.11,130h0l.76.35c.19.07,1.12.5,1.12.5,1.71.67,2,2.85.14,3.55-.56-.22-1.32-.53-1.61-.61a30.24,30.24,0,0,0-5.85-1.08,27.73,27.73,0,0,1,7.86,2.35,2.11,2.11,0,0,1-.5,3.12l-8.11-.3s5.49.62,7.64.91c2,.75.84,5.78-.92,6.22a2.87,2.87,0,0,1-3-2.08c-3.64-1-3.61-.46-1.67,1.13,1,.82,1.82,1,1.66,2.37.81-.34,1.75-.58,2.33-.14s.56,1.32.78,1.32.33-.4.54-2.05a5.4,5.4,0,0,0,2.46-3.06c.38-.93.39-1.75,3.29-.92.72.25,2.82.28.33-3.92a13.49,13.49,0,0,1-2.06-9l-2-.81a4.21,4.21,0,0,1-.37,1.09c-.74,1.37-1.3,1.3-2.69.85h0C31.83,129.62,28.75,128.52,28.54,128.5Z"/><path class="cls-7" d="M42,151.66c5.11,2.55,7.5,5.27,27.28,19.14,2.56,1.79,8.44,4.45,13.76,6a12.46,12.46,0,0,0,7.64-.16c6.31-2.26,8.18-4.42,13-10.16,6.15-7.39,6.09-7.48,7.72-10.88v0c-.06,0-17.88-12.25-19.53-13.4l-7.76,8.44a3.54,3.54,0,0,1-4,.89c-11.82-4.93-25.25-12.43-28.92-14C50.18,138,41.84,150.62,42,151.66Z"/><path class="cls-9" d="M42.35,152.2c14.85,7.42,22.08,19.26,40.94,24.66,4.65,1.33,8.71,0,12.78-2.71,4.34-3,12.81-13.93,15.94-18.15-.19-.14-.37-.26-.59-.4v0c-.51-.34-4.85-3.34-5.86-4-5.45.86-10.4-1.73-13.37-6.34a36.71,36.71,0,0,0,2.71,9.05c2,4.33,3.63,5.66,3.17,7.93-.74,3.52-6,6.36-8.46,5.07-2-1.1-.45-4.35-3.54-9.18,0,0-.11-.2-2.93-4.13.56,2.2,2.43,10.23-1,12.77-2.92,2.17-8.12-.74-17.33-5.85C53.64,154.67,50.1,153,47.33,138.5c-.44.81-.85,1.65-1.29,2.46A10.1,10.1,0,0,1,42.35,152.2Z"/><path class="cls-10" d="M122.34,137.61c-2,9-7.63,18.17-13.55,25.4-5.31-1.67-8.21-5.06-12.14-10.17-3.63-4.66-5.74-7.51-6-11.44,0-1.06,17.79-25.51,24.17-30a57.28,57.28,0,0,1,8.25-2.94C124.8,114.67,124.55,128,122.34,137.61Z"/><path class="cls-11" d="M102.52,159.51a16.86,16.86,0,0,0,6.24,3.51c5.73-6.77,11.58-16.41,13.6-25.39-2.35-4.69-4.17-8.69-9-16.81,0,0-8.93,5-8.36,20.48C105.42,153.3,103.51,157.29,102.52,159.51Z"/><path class="cls-10" d="M110.71,153c1.13,13.36,3.93,22.05,5.55,27.95,2.11,7.76,2.26,13.55,2.7,23.82a176.49,176.49,0,0,1-1.18,30.65,142,142,0,0,0,73.69.69,40.18,40.18,0,0,1-7.86-18.71C180,190,211.87,177.63,197.31,128a181.57,181.57,0,0,0-20.68-11.15c-20.17-9.12-41.95-15.32-61.79-5.4C112.63,120.26,109.09,132.64,110.71,153Z"/><path class="cls-11" d="M179.47,188.93a60.49,60.49,0,0,0,7.5-30.61l14.5,13.9c-1.87,5.3-17.74,38.38-17.88,45.2-.05,2.74-8.58.81-12.31-1.66Z"/><path class="cls-12" d="M139.24,268.46h0l2.4,8.51c1.17,4.31-7.32,9-13.41,7.31-1.88-.51-3-1.52-3.36-2.76l-2.4-8.51a.84.84,0,0,0,.06.14c-1.47-4.47,7.35-9.08,13.36-7.45C137.77,266.2,138.91,267.22,139.24,268.46Z"/><path class="cls-13" d="M135.56,266a12.68,12.68,0,0,0-11.1,3c-2.59,2.6-1.83,5.47,1.69,6.42a12.61,12.61,0,0,0,11.08-3C139.84,269.86,139.08,267,135.56,266Zm-.87.88c2.86.77,3.48,3.12,1.36,5.24a10.3,10.3,0,0,1-9,2.42c-2.87-.79-3.48-3.14-1.37-5.24A10.31,10.31,0,0,1,134.69,266.9Z"/><path class="cls-12" d="M139.24,268.44c.68,2.53-2,4.92-4.45,6.15-5,2.5-11.32,1.77-12.29-1.51.07.28,0,.2.23.88h0c.1.49,2,6.95,2.18,7.72v0c.08.26.22.8.29,1a4.48,4.48,0,0,0,3.27,2.48c6.08,1.65,14.57-3,13.42-7.3,0-.05-.17-.62-.28-1h0C141.24,275.54,139.36,268.89,139.24,268.44Z"/><path class="cls-14" d="M135.76,272.05c2-2,1.41-4.2-1.29-4.94a9.74,9.74,0,0,0-8.52,2.28c-2,2-1.42,4.21,1.29,4.95A9.73,9.73,0,0,0,135.76,272.05Z"/><g class="cls-15"><path class="cls-12" d="M134.33,267.6c-5.63-1.62-12.3,4.56-6.56,6.32,4.26,1.25,10-2.29,8.45-5A3.12,3.12,0,0,0,134.33,267.6Z"/><g class="cls-15"><path class="cls-16" d="M126.73,269.51c-1.42,1.36-1.61,3.07.24,4.1-1-2.31,3.78-5.06,7.22-4.06,1.11.34,1.72,1,1.79,1.74C138.59,267.43,130.72,265.68,126.73,269.51Z"/></g></g><path class="cls-16" d="M119,234.87c-.82.8-.55,1.47-.55,1.47.9,3.36,9.3,33.94,10,36.38,1.52,1.44,5.35.3,6-1.46-.43-1.64-10-36.53-10-36.53C124,233.08,120.44,233.45,119,234.87Z"/><path class="cls-17" d="M121.38,233.72c-2.22.37-3.2,1.92-2.92,2.62.9,3.36,9.3,33.94,10,36.38a3.78,3.78,0,0,0,3.64.38Z"/><path class="cls-18" d="M123.24,233.74c-3.27-.89-6.78,2.73-3.6,3.59S126.42,234.6,123.24,233.74Z"/><path class="cls-12" d="M122.71,234.26c-2.31-.62-4.79,1.94-2.54,2.55S125,234.87,122.71,234.26Z"/><path class="cls-12" d="M126.51,220.89h0l2.4,8.51c1.17,4.31-7.32,9-13.41,7.31-1.88-.51-3-1.52-3.36-2.76l-2.4-8.51a.84.84,0,0,0,.06.14c-1.47-4.47,7.35-9.08,13.36-7.45C125,218.63,126.18,219.65,126.51,220.89Z"/><path class="cls-13" d="M122.83,218.45a12.68,12.68,0,0,0-11.1,3c-2.59,2.6-1.83,5.47,1.69,6.43a12.65,12.65,0,0,0,11.08-3C127.11,222.29,126.35,219.41,122.83,218.45Zm-.87.88c2.86.77,3.49,3.12,1.36,5.24a10.3,10.3,0,0,1-9,2.42c-2.87-.79-3.48-3.14-1.37-5.24A10.31,10.31,0,0,1,122,219.33Z"/><path class="cls-12" d="M126.51,220.87c.68,2.53-2,4.92-4.45,6.15-5,2.5-11.32,1.77-12.29-1.51.07.28,0,.2.23.88h0c.1.49,2,6.95,2.18,7.72v0c.08.26.22.8.29,1a4.48,4.48,0,0,0,3.27,2.48c6.08,1.65,14.57-3,13.42-7.3,0,0-.17-.62-.28-1h0C128.51,228,126.63,221.32,126.51,220.87Z"/><path class="cls-19" d="M123,224.48c2-2,1.41-4.2-1.29-4.94a9.72,9.72,0,0,0-8.52,2.29c-2,2-1.42,4.2,1.29,4.94A9.73,9.73,0,0,0,123,224.48Z"/><g class="cls-15"><path class="cls-12" d="M121.6,220c-4.5-1.29-10.85,2.75-8,5.57,3.16,2.91,11.82-.92,9.9-4.24A3.12,3.12,0,0,0,121.6,220Z"/><g class="cls-15"><path class="cls-16" d="M114,221.94c-1.42,1.37-1.61,3.07.24,4.1-1-2.31,3.78-5.06,7.22-4.06,1.11.34,1.72,1,1.79,1.74C125.86,219.86,118,218.11,114,221.94Z"/></g></g><path class="cls-12" d="M238.32,170h0l2.41,8.51c1.17,4.31-7.33,9-13.42,7.31-1.88-.51-3-1.53-3.35-2.76l-2.41-8.51.07.14c-.43-1.28,0-2.82,1.48-4.27A13.54,13.54,0,0,1,235,167.23C236.85,167.74,238,168.76,238.32,170Z"/><path class="cls-13" d="M234.64,167.55a12.71,12.71,0,0,0-11.1,3c-2.59,2.6-1.83,5.46,1.69,6.42a12.62,12.62,0,0,0,11.08-3C238.91,171.4,238.16,168.51,234.64,167.55Zm-.88.89c2.87.77,3.49,3.12,1.36,5.23a10.3,10.3,0,0,1-9,2.42c-2.87-.78-3.48-3.13-1.37-5.24A10.3,10.3,0,0,1,233.76,168.44Z"/><path class="cls-12" d="M238.31,170c.68,2.52-1.94,4.92-4.44,6.15-5.06,2.5-11.32,1.76-12.3-1.52.07.29.05.21.24.88v0c.1.49,2,7,2.18,7.72v0c.08.26.21.8.29,1a4.46,4.46,0,0,0,3.26,2.48c6.09,1.64,14.58-3,13.42-7.3,0-.05-.16-.63-.27-1v0C240.32,177.08,238.44,170.43,238.31,170Z"/><path class="cls-20" d="M234.83,173.59c2-2,1.42-4.21-1.29-4.94a9.75,9.75,0,0,0-8.52,2.28c-2,2-1.41,4.21,1.3,4.94A9.67,9.67,0,0,0,234.83,173.59Z"/><g class="cls-15"><path class="cls-12" d="M233.4,169.14c-4.5-1.29-10.84,2.75-8,5.56,3.15,2.92,11.81-.91,9.9-4.23A3.14,3.14,0,0,0,233.4,169.14Z"/><g class="cls-15"><path class="cls-16" d="M225.81,171c-1.42,1.37-1.62,3.08.24,4.11-1-2.31,3.77-5.07,7.21-4.06,1.11.33,1.73,1,1.79,1.74C237.66,169,229.79,167.21,225.81,171Z"/></g></g><path class="cls-16" d="M218.08,136.42c-.81.8-.55,1.47-.55,1.47.9,3.36,9.3,33.94,10,36.36,1.5,1.44,5.34.32,6-1.45-.45-1.65-10-36.53-10-36.53C223.07,134.65,219.53,135,218.08,136.42Z"/><path class="cls-17" d="M220.58,135.5l-1.1.05c-1,.37-2.31,1.41-1.95,2.34.9,3.36,9.3,33.94,10,36.36.83.8,2.36.81,3.69.36Z"/><path class="cls-18" d="M222.31,135.28c-3.26-.89-6.78,2.73-3.59,3.59S225.5,136.14,222.31,135.28Z"/><path class="cls-12" d="M221.79,135.8c-2.31-.63-4.8,1.94-2.55,2.55S224,136.41,221.79,135.8Z"/><path class="cls-12" d="M225.59,122.43h0l2.41,8.51c1.17,4.31-7.33,9-13.42,7.31-1.88-.51-3-1.53-3.35-2.76L208.81,127s.05.09.07.14c-1.44-4.35,7.18-9.12,13.36-7.45C224.12,120.17,225.26,121.19,225.59,122.43Z"/><path class="cls-13" d="M221.91,120a12.67,12.67,0,0,0-11.1,3c-2.59,2.6-1.83,5.46,1.69,6.42a12.62,12.62,0,0,0,11.08-3C226.18,123.83,225.43,121,221.91,120Zm-.88.88c2.87.77,3.49,3.12,1.36,5.23a10.26,10.26,0,0,1-9,2.42c-2.88-.78-3.49-3.13-1.38-5.23A10.28,10.28,0,0,1,221,120.87Z"/><path class="cls-12" d="M225.58,122.41c.68,2.53-1.94,4.92-4.44,6.15-5.06,2.5-11.32,1.76-12.3-1.52.07.29,0,.21.24.88v0c.1.49,2,6.95,2.18,7.72v0c.08.26.21.8.29,1a4.46,4.46,0,0,0,3.26,2.48c6.09,1.64,14.58-3,13.42-7.3,0-.05-.16-.63-.27-1v0C227.59,129.51,225.71,122.86,225.58,122.41Z"/><path class="cls-21" d="M222.1,126c2-2,1.42-4.21-1.29-4.94a9.75,9.75,0,0,0-8.52,2.28c-2,2-1.41,4.21,1.3,5A9.71,9.71,0,0,0,222.1,126Z"/><g class="cls-15"><path class="cls-12" d="M220.67,121.57c-4.5-1.29-10.84,2.75-8,5.56,3.15,2.92,11.81-.91,9.9-4.23A3.14,3.14,0,0,0,220.67,121.57Z"/><g class="cls-15"><path class="cls-16" d="M213.08,123.47c-1.42,1.37-1.62,3.08.24,4.11-1-2.31,3.77-5.06,7.21-4.06,1.11.33,1.73,1,1.79,1.74C224.93,121.4,217.06,119.64,213.08,123.47Z"/></g></g><path class="cls-16" d="M236,137.89c1.22.09,2.26,1.05,2.74,2.84l3.52,13.13a11.17,11.17,0,0,1-2.61,9.75L234.18,169c-2.05,2-6.3,9.16-5.55,12a13.38,13.38,0,0,1-3.15,11.75l-75.3,74.68c-2.21,2.2-4,1.51-4,1.51l-3.27-.86a3.45,3.45,0,0,1-1.44-.86,5,5,0,0,1-.81-1.15c-.6-1.17-.45-1.71-1.15-2.75a4.51,4.51,0,0,0-1.19.86l-8.65,8.59c-1.84,1.83-3.35,1.26-3.35,1.26a29.75,29.75,0,0,1-4-1.17,4.2,4.2,0,0,1-1.61-2.49c-.26-1-3.5-12.94-3.66-13.9a11.24,11.24,0,0,1,2.76-9c9-8.94,8.8-8.65,9.41-9.51a10.28,10.28,0,0,0,1.72-7.19c-.17-1.06-.07-.26-.29-1.63A13.44,13.44,0,0,1,134,218.34l75.3-74.68c2.46-2.45,3.94-1.53,7.29-.64h0c1.72.44,2.28,1.94,2.85,3.52a12.62,12.62,0,0,0,5-2.79l5.46-5.43a3.55,3.55,0,0,1,3.34-1.25l3.26.87A2.12,2.12,0,0,0,236,137.89Z"/><path class="cls-22" d="M238.73,140.73c-.83-3.12-3.36-3.81-5.64-1.54l-5.45,5.42c-2.06,2-7.53,4.59-8.28,1.78-1-3.76-4.05-4.59-6.8-1.86l-75.3,74.68A13.44,13.44,0,0,0,134.11,231a10,10,0,0,1-2.35,8.8l-8.65,8.6a11.08,11.08,0,0,0-2.62,9.75L124,271.24c.83,3.11,3.36,3.81,5.64,1.53l8.65-8.59c2-2.05,4.33-1.42,5.09,1.39,1,3.77,4.05,4.59,6.79,1.86l75.3-74.68A13.38,13.38,0,0,0,228.63,181c-.75-2.81,3.5-9.93,5.55-12l5.46-5.42a11.17,11.17,0,0,0,2.61-9.75Z"/><path class="cls-12" d="M137.46,253.44c-1.89,1.88-.81,5.68,1,3.85S139.29,251.62,137.46,253.44Z"/><path class="cls-12" d="M135,244.33c-1.89,1.88-.81,5.68,1,3.86S136.85,242.52,135,244.33Z"/><path class="cls-12" d="M131,259.9c-1.87,1.87-.8,5.68,1,3.85S132.79,258.08,131,259.9Z"/><path class="cls-12" d="M128.52,250.79c-1.87,1.87-.8,5.68,1,3.85S130.35,249,128.52,250.79Z"/><path class="cls-12" d="M236.9,154.79c-1.89,1.88-.81,5.68,1,3.85S238.73,153,236.9,154.79Z"/><path class="cls-12" d="M234.45,145.68c-1.88,1.88-.8,5.68,1,3.85S236.28,143.86,234.45,145.68Z"/><path class="cls-12" d="M230.4,161.25c-1.87,1.87-.8,5.68,1,3.85S232.23,159.43,230.4,161.25Z"/><path class="cls-12" d="M228,152.14c-1.88,1.87-.8,5.68,1,3.85S229.79,150.32,228,152.14Z"/><path class="cls-7" d="M175.06,248.28c4.91,2.9,7.12,3.74,21.93.41,3.38-.8,5.89-1.5,5.89-1.5-7.92-18.68-9.15-17.52-9.15-17.52-1.43.39-1.67,1.73-3.29,2.33-.64.24-2.64-.47-4.66-2.86-1.61-1.9-1.65-3-3-3.45a2.94,2.94,0,0,0-2.54.25c-1.48,1.22-.5,4.79.46,8.27.21.78.42,1.42.58,1.9a50.28,50.28,0,0,1-4.26,4.3C171.71,245.2,169.8,245.19,175.06,248.28Z"/><path class="cls-7" d="M191,233.1a10.14,10.14,0,0,0,9.68,14.39c4.4-3.16,9.65-6.45,10.22-6.73h0c1.72-1,3.34-2,4.71-2.75l.05,0a81.75,81.75,0,0,0,18-12.38c7.57-7,14.34-13.16,14.84-21.61.19-4.08-1.08-7.67-9.93-20.24-3.48-5-8-11.2-13.65-18.28v0c-8.07-10.09-6.1-6.63-10.66-16.07C209,138.29,203.65,134,200,133.13c-23.87,3.64-17.83,29.43,0,45.44,0,.05,0,.05.05.05A78.49,78.49,0,0,0,221.43,204s-3.25,2.7-10.56,10C202.2,223.37,206.7,222.12,191,233.1Z"/><path class="cls-23" d="M197.31,228.43c0,.15.28,3.68.3,3.83,3.09,4.62,7.41,7.91,13,8.65.1,0,.15-.1.25-.15-2-1.28-6.29-4.47-7.12-9.48s2.26-9,6.23-14.05a58.84,58.84,0,0,1,19.85-15.87c0-.44-5.55-.29-9.33-3.14a10.69,10.69,0,0,1-4.23-7.52c-.24-3.63,1.92-5.45,4.37-10,3.2-5.94,4.92-13.06,4.28-15.28v0a1.12,1.12,0,0,0-.39-.59c-.05,0-.1,0-.15,0-1.13-.35-4.37,2-14,14.34,0,0-6.34-1.38-10.37-.54,0,.05,0,.05.05.05A78.49,78.49,0,0,0,221.43,204s-3.25,2.7-10.56,10C203.2,222.29,206,221.82,197.31,228.43Z"/><path class="cls-24" d="M189.38,239.57a17.58,17.58,0,0,0,7.61,9.12c3.38-.8,5.89-1.5,5.89-1.5-.64-1.51-7.52-17.61-9.15-17.52a25.52,25.52,0,0,1-2.35,1.82,1.57,1.57,0,0,1-.94.51c-.8.08-1.25-.69-1.65-.55s-.43,1.91-.34,2.88A19.27,19.27,0,0,0,189.38,239.57Z"/><path class="cls-12" d="M197.81,244.41a20.73,20.73,0,0,0,5.09,2.79,10.93,10.93,0,0,0,8.37-6.67c-7.71-1.78-11.33-7.49-11.51-14.51-.28,0-6.83.64-8.52,4.93C189.37,235.74,194.8,242.14,197.81,244.41Z"/><path class="cls-13" d="M191.45,236.15a21.61,21.61,0,0,0,6.36,8.26,26,26,0,0,0,7.65-6.35,14,14,0,0,1-5.26-8.76C196.55,230.72,193.43,232.79,191.45,236.15Z"/><path class="cls-10" d="M185.69,161.89c5,10,8,8.34,14.11,19.36a6.09,6.09,0,0,0,2.86,3.05c5.9,2.39,15.18-8.51,15.79-9.24a39,39,0,0,0,6.63-11.84c-5.17-9-16.1-26.32-24.39-32.78a46.22,46.22,0,0,0-8.6-5.55c-2.48,1.69-10.32,7.1-11.81,16.12C179,148.83,182.68,155.89,185.69,161.89Z"/><path class="cls-16" d="M148.34,133.67c10.9,5,26.82-6.68,28.29-16.85-11.84-5.35-24.17-9.67-36.3-10.36C135.52,117.56,140.28,129.94,148.34,133.67Z"/><path class="cls-7" d="M150.61,130.11c6.22,2.23,13.2-3.09,16.27-7.47,3.46-4.91,3.25-7.93,4.3-16.73l-6.67-5.31a60.77,60.77,0,0,0-11.95-1c-2.32.1-8.11,1-9.1,4.11a10.68,10.68,0,0,0-.06,2.25C143.31,110.83,139.06,126,150.61,130.11Z"/><path class="cls-25" d="M152.56,126c4,1.32,9.5-.89,13.78-6s3.58-9.31,5.51-15a34.28,34.28,0,0,1,5.4-10.06c-15.83,6.75-10.14,15-33.17,10C141.74,106.59,145.28,123.55,152.56,126Z"/><path class="cls-7" d="M181.78,86.33c-.09,2.6-.85,8.26-3.06,9.85a9.36,9.36,0,0,1-2.51,1.18c-1.64.64-4.2,2.91-6.36,5.25-7.8,8-39.83,21.9-30.53-31.43,1.18-5.81,3.09-14.36,14.85-17.51,8.34-2.25,20.25,1.18,25.66,8.44C187.26,72,182.14,85.62,181.78,86.33Z"/><path class="cls-26" d="M184.09,82.62c-.62,2.44-1.91,7.53-2.84,9.87l0,0c.68-2.37,1.64-7.16.16-9.15-.05-.13-.17-.2-.25-.28-.52-.71-2-.56-2.8-.26a7,7,0,0,0-2.18,1.27c-3.1,2.94-1.67,8.93-3.5,9.39a1.17,1.17,0,0,1-1-.19c-.71-.67-.1-2.9.16-8a16.36,16.36,0,0,0-1.55-8.17c-.38-.75-1.12-.61-2.18-1a20,20,0,0,1-6.89-4.53c-10.6,6.34-23.47,6.11-32.56-3.49,5.54-1.64,6.85-4.2,9.87-9,3.31-5.23,4.6-7.64,8.34-9.43,0,0,0,0,.06,0C151.1,47.7,155,48,157,47.76c8.63-1.19,21.2,4.26,25.83,14.74a.1.1,0,0,1,0,.06C186.76,72,185.32,77,184.09,82.62Z"/><path class="cls-27" d="M181.26,92.4l-.07.25a7,7,0,0,1-2,3.56c-2.36,1.81-2.58-.23-8.92,6.43,4.5-9.36,2.44-5.71,2.4-9.13,1.84-.49.39-6.46,3.5-9.39,1.88-1.64,3.83-1.76,4.58-1.34C183.11,84.1,181.94,89.75,181.26,92.4Z"/><path class="cls-28" d="M183.26,85.71c-.16.6-1.57,6.42-2,6.81.6-2.08,1.67-7.61.16-9.15-.05-.13-.17-.2-.25-.28-.52-.71-2-.56-2.8-.26a7,7,0,0,0-2.18,1.27c-3.1,2.94-1.67,8.93-3.5,9.39-.76-8.11,2.2-10.16,3.58-16.28a18.69,18.69,0,0,0,.45-8.48c-1.27-5.93-10.64-21.17-29.74-19C151.1,47.7,155,48,157,47.76c8.63-1.19,21.2,4.26,25.83,14.74a.1.1,0,0,1,0,.06C187.08,72.77,185.21,78.31,183.26,85.71Z"/></svg>