<svg id="Layer_1" data-name="Layer 1" xmlns="http://www.w3.org/2000/svg" viewBox="0 0 666.23 599.75"><defs><style>.cls-1{fill:#83dfff;}.cls-10,.cls-11,.cls-12,.cls-13,.cls-14,.cls-15,.cls-16,.cls-2,.cls-9{fill:none;}.cls-3{fill:#8affc4;}.cls-4{fill:#b2acfc;}.cls-5{fill:#ffe08a;}.cls-22,.cls-6{fill:#7b6ce6;}.cls-23,.cls-7{fill:#00a8f0;}.cls-24,.cls-8{fill:#2dd687;}.cls-13,.cls-9{stroke:#fcc200;}.cls-10,.cls-11,.cls-12,.cls-13,.cls-14,.cls-15,.cls-16,.cls-9{stroke-miterlimit:10;}.cls-10{stroke:#00a8f0;}.cls-11,.cls-15{stroke:#2dd687;}.cls-12,.cls-16{stroke:#7b6ce6;}.cls-13,.cls-14,.cls-15,.cls-16{stroke-width:0.25px;}.cls-14{stroke:#40bef4;}.cls-17,.cls-20{fill:#fcc200;}.cls-18,.cls-21{fill:#fcda00;}.cls-19{fill:#fffbf7;}.cls-20,.cls-21,.cls-22,.cls-23,.cls-24{fill-rule:evenodd;}</style></defs><title>nvias - PINE Map - plain</title><path class="cls-1" d="M368,599.28c-6.34.33-15.82.47-22.09.47l0-22.3L345.69,462,345.57,375l0-25.71h.36A81.07,81.07,0,0,0,427,268.21v0H665.78a.28.28,0,0,1,0,.09C675,441.92,541.62,590.11,368,599.28Z"/><path class="cls-2" d="M368,599.28c-6.34.33-15.82.47-22.09.47V349.26A81.07,81.07,0,0,0,427,268.21v0H665.78a.28.28,0,0,1,0,.09C675,441.92,541.62,590.11,368,599.28Z"/><path class="cls-3" d="M345.89,349.26V599.75C161.11,599.66,9.86,454.89,0,268.19H264.81a81.06,81.06,0,0,0,80.72,81.06Z"/><path class="cls-2" d="M345.89,349.26V599.75C161.11,599.66,9.86,454.89,0,268.19H264.81a81.06,81.06,0,0,0,80.72,81.06Z"/><path class="cls-4" d="M665.78,268.19v.07h-21.5l-113.23,0-78.39,0H427v0a81.08,81.08,0,0,0-81.07-81.08h0V161.42l0-48.74,0-92.6V2.19c6.26-.8,15.76-1.45,22.17-1.79,5.09-.27,10.13-.4,15.17-.4C532.75,0,657.76,117.14,665.78,268.19Z"/><path class="cls-2" d="M427,268.19H665.78C657.76,117.14,532.75,0,383.23,0c-5,0-10.08.13-15.17.4-6.41.34-15.91,1-22.17,1.79V187.11"/><path class="cls-5" d="M345.89,2.19V187.11h0a81.08,81.08,0,0,0-81,81.08H127.1C120,134.12,214.82,18.88,345.89,2.19Z"/><path class="cls-2" d="M345.89,187.11V2.19C214.82,18.88,120,134.12,127.1,268.19H264.81"/><path class="cls-6" d="M452.66,268.19H427a81.08,81.08,0,0,0-81.07-81.08V161.42A106.76,106.76,0,0,1,452.51,262.56C452.61,264.45,452.66,266.32,452.66,268.19Z"/><path class="cls-7" d="M452.66,268.19v0A106.78,106.78,0,0,1,351.51,374.82c-1.88.1-3.76.14-5.62.14v-25.7A81.07,81.07,0,0,0,427,268.21v0Z"/><path class="cls-8" d="M345.89,349.26V375h-.32A106.78,106.78,0,0,1,239.26,273.82c-.1-1.89-.15-3.76-.15-5.63h25.7a81.06,81.06,0,0,0,80.72,81.06Z"/><path class="cls-9" d="M345.89,112.68A148.9,148.9,0,0,0,216.12,268.19"/><path class="cls-10" d="M345.89,462c3.66,0,7.35-.08,11.05-.28,101.52-5.35,179.47-92,174.11-193.51v-.05"/><path class="cls-11" d="M141.81,268.19C147.57,377.34,237.86,462,345.89,462"/><path class="cls-12" d="M531.05,268.19A165.56,165.56,0,0,0,357,111.63c-3.75.2-7.44.58-11.1,1.05"/><path class="cls-13" d="M345.89,20.08C223.63,35.64,135.22,143.13,141.81,268.19"/><path class="cls-14" d="M345.89,577.45c5.85,0,14.69-.13,20.6-.44,162-8.55,286.33-146.77,277.79-308.73,0,0,0-.06,0-.09"/><path class="cls-15" d="M23.26,268.19c9.19,174.15,150.28,309.18,322.63,309.26"/><path class="cls-16" d="M644.27,268.19c-7.73-145.64-132-257.47-277.7-249.78-6,.32-14.84.92-20.68,1.67"/><path class="cls-17" d="M345.89,161.42v25.69h0a81.08,81.08,0,0,0-81,81.08h-25.7A106.78,106.78,0,0,1,340.26,161.56c1.88-.1,3.73-.14,5.59-.14Z"/><path class="cls-8" d="M231.78,178.35c0,6.68,4.81,12.1,4.81,12.1s4.81-5.42,4.81-12.1-4.81-12.09-4.81-12.09-4.81,5.41-4.81,12.09Z"/><rect class="cls-7" x="236.36" y="171.74" width="0.46" height="22.7"/><path class="cls-8" d="M182.05,173.56s-3.51,3.45-3.51,7.71,3.51,7.71,3.51,7.71,3.5-3.45,3.5-7.71-3.5-7.71-3.5-7.71Z"/><rect class="cls-7" x="181.82" y="180.33" width="0.46" height="17.22"/><path class="cls-7" d="M173.28,173.56s-3.51,3.45-3.51,7.71,3.51,7.71,3.51,7.71,3.5-3.45,3.5-7.71-3.5-7.71-3.5-7.71Z"/><rect class="cls-7" x="173.05" y="180.33" width="0.46" height="17.22"/><path class="cls-18" d="M164.5,173.56S161,177,161,181.27s3.5,7.71,3.5,7.71,3.51-3.45,3.51-7.71-3.51-7.71-3.51-7.71Z"/><rect class="cls-7" x="164.28" y="180.33" width="0.46" height="17.22"/><path class="cls-8" d="M199.6,173.56s-3.51,3.45-3.51,7.71S199.6,189,199.6,189s3.5-3.45,3.5-7.71-3.5-7.71-3.5-7.71Z"/><rect class="cls-7" x="199.37" y="180.33" width="0.46" height="17.22"/><path class="cls-8" d="M190.82,173.56s-3.5,3.45-3.5,7.71,3.5,7.71,3.5,7.71,3.51-3.45,3.51-7.71-3.51-7.71-3.51-7.71Z"/><rect class="cls-7" x="190.59" y="180.33" width="0.46" height="17.22"/><path class="cls-18" d="M132.41,175.81c0,5.73,4.13,10.38,4.13,10.38s4.12-4.65,4.12-10.38-4.12-10.38-4.12-10.38-4.13,4.65-4.13,10.38Z"/><path class="cls-8" d="M138,183.7c-4.19-.06-6.2,6.68-12.23,3.6-7.49-3.82-9.7,3.26-14.14.61-4.21-2.5-3.65-8.9-11.22-9.71-3.6-.38-5.11,1.24-8.81-.27-3.21-1.31-8.51,4.58-8.51,4.58v27.84l54.9-7.64s5.41-18.93,0-19Z"/><path class="cls-18" d="M243.22,181.54c0,6.68,4.81,12.09,4.81,12.09s4.81-5.41,4.81-12.09-4.81-12.1-4.81-12.1-4.81,5.42-4.81,12.1Z"/><rect class="cls-7" x="247.8" y="179.41" width="0.46" height="19.64"/><polygon class="cls-7" points="248.03 183.84 246.42 182.2 246.09 182.52 248.03 184.5 249.97 182.52 249.64 182.2 248.03 183.84"/><path class="cls-8" d="M253.64,189.18c0,5.9,4.24,10.69,4.24,10.69s4.25-4.79,4.25-10.69-4.25-10.68-4.25-10.68-4.24,4.78-4.24,10.68Z"/><rect class="cls-8" x="257.66" y="187.28" width="0.46" height="15.56"/><path class="cls-8" d="M256,202.79c-4.32-1.89-3.05-4.48-6.78-5.59-4.5-1.34-6.6,3.09-8.79.86s-1.66-5.55-6.61-4.79v28.95h30.85v-18c-3.24-3.39-6-.23-8.67-1.42Z"/><path class="cls-8" d="M188.85,195.52c-3.75,1.16-4.34-.45-9,.23-3.61.52-4.62,3.31-7.83,2.67-3.37-.67-7.82-2.17-12.58.36-5.22,2.77-3.89,11.51-3.89,11.51l8.65,2.44,35.4,6.63.17-26c-5.45-3.12-8.29,1.32-10.9,2.12Z"/><polygon class="cls-17" points="206.18 184.84 212.83 193.31 233.78 193.31 227.13 184.84 206.18 184.84"/><polygon class="cls-6" points="199.58 193.31 199.58 220.13 212.75 220.13 212.75 193.31 206.16 184.84 199.58 193.31"/><rect class="cls-18" x="212.83" y="193.31" width="20.95" height="26.89"/><rect class="cls-19" x="217.93" y="197.26" width="1.54" height="1.29"/><rect class="cls-19" x="217.93" y="201.14" width="1.54" height="1.29"/><rect class="cls-19" x="222.54" y="197.26" width="1.54" height="1.29"/><rect class="cls-19" x="222.54" y="201.14" width="1.54" height="1.29"/><rect class="cls-19" x="227.15" y="197.26" width="1.54" height="1.29"/><rect class="cls-19" x="227.15" y="201.14" width="1.54" height="1.29"/><rect class="cls-19" x="217.93" y="205.01" width="1.54" height="1.29"/><rect class="cls-19" x="222.54" y="205.01" width="1.54" height="1.29"/><rect class="cls-19" x="227.15" y="205.01" width="1.54" height="1.29"/><rect class="cls-7" x="203.1" y="197.26" width="1.54" height="1.29"/><rect class="cls-7" x="203.1" y="201.14" width="1.54" height="1.29"/><rect class="cls-7" x="207.71" y="197.26" width="1.54" height="1.29"/><rect class="cls-7" x="207.71" y="201.14" width="1.54" height="1.29"/><rect class="cls-7" x="203.1" y="205.01" width="1.54" height="1.29"/><rect class="cls-7" x="207.71" y="205.01" width="1.54" height="1.29"/><path class="cls-18" d="M195.45,200.17a4.12,4.12,0,0,0-3.07,1.4,4.19,4.19,0,0,0-4.14-4.1,4.09,4.09,0,0,0-1.75.4s0-.06,0-.09a4.2,4.2,0,0,0-4.16-4.24,4.11,4.11,0,0,0-2.49.85,4.13,4.13,0,0,0-6.9-2.72,4.14,4.14,0,0,0-8,1.24,4.07,4.07,0,0,0-2.13-.6,4.2,4.2,0,0,0-4.16,4.24v7.84h22.61v17.46h18.31V204.41a4.17,4.17,0,0,0-4.13-4.24Z"/><polygon class="cls-7" points="163.79 198.71 168.91 204.03 185.03 204.03 179.91 198.71 163.79 198.71"/><polygon class="cls-17" points="158.66 204.03 158.66 220.99 168.96 220.99 168.96 204.03 163.81 198.71 158.66 204.03"/><rect class="cls-18" x="168.91" y="204.03" width="16.12" height="16.86"/><rect class="cls-19" x="172.83" y="208.23" width="1.18" height="1.21"/><rect class="cls-19" x="172.83" y="211.86" width="1.18" height="1.21"/><rect class="cls-19" x="176.38" y="208.23" width="1.18" height="1.21"/><rect class="cls-19" x="176.38" y="211.86" width="1.18" height="1.21"/><rect class="cls-19" x="179.92" y="208.23" width="1.18" height="1.21"/><rect class="cls-19" x="179.92" y="211.86" width="1.18" height="1.21"/><rect class="cls-19" x="172.83" y="215.48" width="1.18" height="1.21"/><rect class="cls-19" x="176.38" y="215.48" width="1.18" height="1.21"/><rect class="cls-19" x="179.92" y="215.48" width="1.18" height="1.21"/><path class="cls-18" d="M124.83,174.16c0,5.73,4.13,10.38,4.13,10.38s4.12-4.65,4.12-10.38S129,163.78,129,163.78s-4.13,4.65-4.13,10.38Z"/><rect class="cls-7" x="128.73" y="173.93" width="0.46" height="25.61"/><path class="cls-8" d="M121.91,164.33s-4.79,4.17-4.79,9.32,4.79,9.32,4.79,9.32,4.8-4.17,4.8-9.32-4.8-9.32-4.8-9.32Z"/><rect class="cls-7" x="121.68" y="170.98" width="0.46" height="26.29"/><polygon class="cls-18" points="137.97 183.7 149.74 183.7 158.67 171.35 146.9 171.35 137.97 183.7"/><rect class="cls-8" x="137.97" y="183.7" width="11.77" height="30.56"/><polygon class="cls-7" points="149.79 214.12 158.66 214.12 158.66 183.7 158.66 171.35 149.79 183.7 149.79 214.12"/><rect class="cls-18" x="153.51" y="191.9" width="1.39" height="5.15"/><path class="cls-18" d="M153.79,206.66a4.81,4.81,0,0,0-2.49.7,4.92,4.92,0,0,0-4.86-4.6,4.87,4.87,0,0,0-4.53,3.14,4.83,4.83,0,0,0-3.25-1.27,4.93,4.93,0,0,0-4.85,4.47,4.79,4.79,0,0,0-2.92-1,4.94,4.94,0,0,0-4.88,5s0,.07,0,.1a4.87,4.87,0,0,0-6.93,4.36,4.81,4.81,0,0,0-3.61-1.65,4.94,4.94,0,0,0-4.88,5h48.07v-9.25a4.93,4.93,0,0,0-4.88-5Z"/><path class="cls-17" d="M38.74,201.59a3.5,3.5,0,0,0-1.62.4c0-.1,0-.2,0-.31a5.77,5.77,0,0,0-5.71-5.83,5.65,5.65,0,0,0-1.7.26,3.56,3.56,0,0,0-7.11,0,4.88,4.88,0,0,0-2-.43,5.09,5.09,0,0,0-5,5.15c0,.14,0,.28,0,.43a2.36,2.36,0,0,0-.38,0,3.65,3.65,0,0,0-.62,7.23c1.18,1.54,6.08,2.7,12,2.7,5.39,0,10-1,11.59-2.33a4.23,4.23,0,0,0,.63,0,3.65,3.65,0,0,0,0-7.29Z"/><rect class="cls-7" y="242.88" width="24.91" height="25.22"/><polygon class="cls-18" points="62.49 268.11 91.71 268.11 100.38 242.88 62.49 242.88 62.49 268.11"/><polygon class="cls-17" points="63.31 221.76 69.24 220.89 83.06 220.89 83.06 189.06 63.31 189.06 63.31 221.76"/><polygon class="cls-18" points="23.53 205.5 57.38 205.5 63.31 189.06 29.46 189.06 23.53 205.5"/><polygon class="cls-17" points="52.74 205.5 54.82 205.5 60.75 189.06 58.67 189.06 52.74 205.5"/><polygon class="cls-17" points="25.98 205.5 28.06 205.5 33.99 189.06 31.91 189.06 25.98 205.5"/><polygon class="cls-17" points="47.39 205.5 49.47 205.5 55.4 189.06 53.31 189.06 47.39 205.5"/><polygon class="cls-17" points="42.03 205.5 44.12 205.5 50.05 189.06 47.96 189.06 42.03 205.5"/><polygon class="cls-17" points="36.68 205.5 38.77 205.5 44.7 189.06 42.61 189.06 36.68 205.5"/><polygon class="cls-17" points="31.33 205.5 33.41 205.5 39.34 189.06 37.26 189.06 31.33 205.5"/><polygon class="cls-8" points="57.35 205.5 57.35 238.16 69.37 238.16 69.37 205.5 63.36 189.06 57.35 205.5"/><rect class="cls-6" x="23.53" y="205.5" width="33.85" height="32.52"/><polygon class="cls-6" points="123.36 199.85 137.96 199.85 130.66 192.4 123.36 199.85"/><polygon class="cls-17" points="100.38 199.85 123.36 199.85 130.66 192.4 107.67 192.4 100.38 199.85"/><rect class="cls-6" x="123.36" y="199.85" width="14.6" height="21.04"/><rect class="cls-18" x="100.38" y="199.85" width="22.98" height="21.04"/><polygon class="cls-7" points="8.13 222.99 0.12 222.99 0.12 243.02 8.21 243.02 9.31 243.02 25.01 243.02 25.01 212.4 8.13 212.4 8.13 222.99"/><polygon class="cls-17" points="16.14 205.5 16.14 212.4 31.02 212.4 31.02 205.5 23.58 197.76 16.14 205.5"/><polygon class="cls-7" points="23.6 197.76 30.93 205.5 48.18 205.5 40.84 197.76 23.6 197.76"/><polygon class="cls-18" points="31.02 212.4 25.01 212.4 25.01 243.02 48.19 243.02 48.19 212.39 48.19 205.53 31.02 205.53 31.02 212.4"/><rect class="cls-17" x="43.88" y="207.92" width="2.33" height="3.08"/><rect class="cls-17" x="38.21" y="207.92" width="2.33" height="3.08"/><rect class="cls-17" x="32.55" y="207.92" width="2.33" height="3.08"/><rect class="cls-17" x="43.88" y="216.82" width="2.33" height="3.08"/><rect class="cls-17" x="38.21" y="216.82" width="2.33" height="3.08"/><rect class="cls-17" x="32.55" y="216.82" width="2.33" height="3.08"/><rect class="cls-17" x="26.89" y="216.82" width="2.33" height="3.08"/><rect class="cls-17" x="43.88" y="225.73" width="2.33" height="3.08"/><rect class="cls-17" x="38.21" y="225.73" width="2.33" height="3.08"/><rect class="cls-17" x="32.55" y="225.73" width="2.33" height="3.08"/><rect class="cls-17" x="26.89" y="225.73" width="2.33" height="3.08"/><rect class="cls-17" x="19.79" y="216.82" width="2.33" height="3.08"/><rect class="cls-17" x="14.13" y="216.82" width="2.33" height="3.08"/><rect class="cls-17" x="19.79" y="225.73" width="2.33" height="3.08"/><rect class="cls-17" x="14.13" y="225.73" width="2.33" height="3.08"/><rect class="cls-17" x="8.46" y="225.73" width="2.33" height="3.08"/><rect class="cls-17" x="2.8" y="225.73" width="2.33" height="3.08"/><rect class="cls-17" x="19.79" y="234.63" width="2.33" height="3.08"/><rect class="cls-17" x="14.13" y="234.63" width="2.33" height="3.08"/><rect class="cls-17" x="8.46" y="234.63" width="2.33" height="3.08"/><rect class="cls-17" x="2.8" y="234.63" width="2.33" height="3.08"/><polygon class="cls-17" points="112.84 209.7 125.31 220.89 158.67 220.89 146.2 209.7 112.84 209.7"/><polygon class="cls-8" points="100.28 220.89 100.28 243.02 125.17 243.02 125.17 220.89 112.73 209.7 100.28 220.89"/><polygon class="cls-7" points="135.82 220.89 141.99 215.35 129.65 215.35 135.82 220.89"/><polygon class="cls-6" points="141.99 215.45 135.82 220.99 125.17 220.99 125.17 243.02 158.66 243.02 158.66 220.99 148.16 220.99 141.99 215.45"/><rect class="cls-7" x="119.33" y="225.63" width="1.23" height="1.25"/><rect class="cls-7" x="119.33" y="229.38" width="1.23" height="1.25"/><rect class="cls-7" x="119.33" y="233.14" width="1.23" height="1.25"/><rect class="cls-7" x="119.33" y="236.9" width="1.23" height="1.25"/><rect class="cls-7" x="115.66" y="225.63" width="1.23" height="1.25"/><rect class="cls-7" x="115.66" y="229.38" width="1.23" height="1.25"/><rect class="cls-7" x="115.66" y="233.14" width="1.23" height="1.25"/><rect class="cls-7" x="115.66" y="236.9" width="1.23" height="1.25"/><rect class="cls-7" x="111.98" y="225.63" width="1.23" height="1.25"/><rect class="cls-7" x="111.98" y="229.38" width="1.23" height="1.25"/><rect class="cls-7" x="111.98" y="233.14" width="1.23" height="1.25"/><rect class="cls-7" x="111.98" y="236.9" width="1.23" height="1.25"/><rect class="cls-7" x="108.31" y="225.63" width="1.23" height="1.25"/><rect class="cls-7" x="108.31" y="229.38" width="1.23" height="1.25"/><rect class="cls-7" x="108.31" y="233.14" width="1.23" height="1.25"/><rect class="cls-7" x="108.31" y="236.9" width="1.23" height="1.25"/><rect class="cls-7" x="104.63" y="225.63" width="1.23" height="1.25"/><rect class="cls-7" x="104.63" y="229.38" width="1.23" height="1.25"/><rect class="cls-7" x="104.63" y="233.14" width="1.23" height="1.25"/><rect class="cls-7" x="104.63" y="236.9" width="1.23" height="1.25"/><polygon class="cls-8" points="63.31 172.19 74.54 172.19 83.06 159.85 71.83 159.85 63.31 172.19"/><rect class="cls-18" x="63.31" y="172.19" width="11.23" height="16.87"/><polygon class="cls-7" points="74.52 188.94 83.11 188.94 83.11 172.19 83.11 159.85 74.52 172.19 74.52 188.94"/><rect class="cls-18" x="78.14" y="172.11" width="1.32" height="5.15"/><rect class="cls-18" x="78.14" y="180.39" width="1.32" height="5.15"/><rect class="cls-18" x="153.93" y="223.49" width="1.57" height="4.31"/><rect class="cls-18" x="147.54" y="223.49" width="1.57" height="4.31"/><rect class="cls-18" x="141.15" y="223.49" width="1.57" height="4.31"/><rect class="cls-18" x="134.77" y="223.49" width="1.57" height="4.31"/><rect class="cls-18" x="128.38" y="223.49" width="1.57" height="4.31"/><rect class="cls-18" x="153.93" y="231.1" width="1.57" height="4.31"/><rect class="cls-18" x="147.54" y="231.1" width="1.57" height="4.31"/><rect class="cls-18" x="141.15" y="231.1" width="1.57" height="4.31"/><rect class="cls-18" x="134.77" y="231.1" width="1.57" height="4.31"/><rect class="cls-18" x="128.38" y="231.1" width="1.57" height="4.31"/><polygon class="cls-17" points="83.06 189.06 91.72 182.03 91.72 171.17 83.06 178.2 83.06 189.06"/><polygon class="cls-18" points="91.72 182.03 100.38 189.06 100.38 178.2 91.72 171.17 91.72 182.03"/><polygon class="cls-7" points="83.11 189.06 83.11 220.99 100.28 220.99 100.28 189.06 91.69 182.03 83.11 189.06"/><rect class="cls-17" x="96.99" y="193.51" width="0.96" height="0.98"/><rect class="cls-17" x="96.99" y="196.44" width="0.96" height="0.98"/><rect class="cls-17" x="96.99" y="199.38" width="0.96" height="0.98"/><rect class="cls-17" x="94.11" y="190.57" width="0.96" height="0.98"/><rect class="cls-17" x="94.11" y="193.51" width="0.96" height="0.98"/><rect class="cls-17" x="94.11" y="196.44" width="0.96" height="0.98"/><rect class="cls-17" x="94.11" y="199.38" width="0.96" height="0.98"/><rect class="cls-17" x="91.24" y="187.63" width="0.96" height="0.98"/><rect class="cls-17" x="91.24" y="190.57" width="0.96" height="0.98"/><rect class="cls-17" x="91.24" y="193.51" width="0.96" height="0.98"/><rect class="cls-17" x="91.24" y="196.44" width="0.96" height="0.98"/><rect class="cls-17" x="91.24" y="199.38" width="0.96" height="0.98"/><rect class="cls-17" x="88.37" y="190.57" width="0.96" height="0.98"/><rect class="cls-17" x="88.37" y="193.51" width="0.96" height="0.98"/><rect class="cls-17" x="88.37" y="196.44" width="0.96" height="0.98"/><rect class="cls-17" x="88.37" y="199.38" width="0.96" height="0.98"/><rect class="cls-17" x="85.49" y="193.51" width="0.96" height="0.98"/><rect class="cls-17" x="85.49" y="196.44" width="0.96" height="0.98"/><rect class="cls-17" x="85.49" y="199.38" width="0.96" height="0.98"/><rect class="cls-17" x="96.99" y="202.32" width="0.96" height="0.98"/><rect class="cls-17" x="94.11" y="202.32" width="0.96" height="0.98"/><rect class="cls-17" x="91.24" y="202.32" width="0.96" height="0.98"/><rect class="cls-17" x="88.37" y="202.32" width="0.96" height="0.98"/><rect class="cls-17" x="85.49" y="202.32" width="0.96" height="0.98"/><polygon class="cls-17" points="47.94 242.88 100.38 242.88 100.38 220.89 69.24 220.89 47.94 242.88"/><path class="cls-7" d="M67.22,224.6c0,6.68,4.8,12.09,4.8,12.09s4.81-5.41,4.81-12.09S72,212.5,72,212.5s-4.8,5.42-4.8,12.1Z"/><rect class="cls-7" x="71.79" y="222.47" width="0.46" height="16.05"/><polygon class="cls-7" points="72.02 226.9 70.41 225.26 70.09 225.57 72.02 227.55 73.96 225.57 73.63 225.26 72.02 226.9"/><path class="cls-8" d="M82.28,225c0,5.9,4.24,10.68,4.24,10.68s4.25-4.78,4.25-10.68-4.25-10.69-4.25-10.69-4.24,4.79-4.24,10.69Z"/><path class="cls-8" d="M74.75,220.18c0,6.68,4.8,12.09,4.8,12.09s4.81-5.41,4.81-12.09-4.81-12.1-4.81-12.1-4.8,5.41-4.8,12.1Z"/><rect class="cls-7" x="79.32" y="218.7" width="0.46" height="20.31"/><rect class="cls-8" x="86.29" y="223.12" width="0.46" height="15.56"/><path class="cls-8" d="M17.13,256.1a13.1,13.1,0,0,0,3.06,7.71,11.22,11.22,0,0,0,0-15.42,13.1,13.1,0,0,0-3.06,7.71Z"/><rect class="cls-8" x="19.96" y="255.16" width="0.46" height="12.94"/><path class="cls-8" d="M9.46,256.1a13.1,13.1,0,0,0,3.06,7.71,11.22,11.22,0,0,0,0-15.42,13.1,13.1,0,0,0-3.06,7.71Z"/><rect class="cls-8" x="12.29" y="255.16" width="0.46" height="12.94"/><path class="cls-18" d="M1.79,256.1a13.1,13.1,0,0,0,3.06,7.71,13.08,13.08,0,0,0,3.07-7.71,13.08,13.08,0,0,0-3.07-7.71,13.1,13.1,0,0,0-3.06,7.71Z"/><rect class="cls-8" x="4.63" y="255.16" width="0.46" height="12.94"/><path class="cls-18" d="M88.2,232.21c-9.59,6.42-12.23,1.72-22.83,1.72-7.45,0-17.19,9-17.19,9h52.2V229.71s-5.21-2.16-12.18,2.5Z"/><path class="cls-8" d="M92.13,247.88c-3.79.36-3.16-4.07-9-3.62-3.56.27-4.43,2.16-7.78-.08s-7.09-6-14-4.84c-7.6,1.22-19.23,25-19.23,25l12.34-1.47L100,252.4l4-4.73c-4.56-6.14-8.47-.11-11.85.21Z"/><path class="cls-8" d="M216.52,215.74c-6.07,1.83-7-.72-14.59.35-5.84.83-7.47,5.25-12.68,4.23-5.44-1.06-12.65-3.43-20.34.57-8.45,4.39-6.3,18.23-6.3,18.23l14,3.87h57.17V211.61c-9-3.57-13.05,2.86-17.26,4.13Z"/><path class="cls-17" d="M93.66,238.29l-4.37,18.12,11.29-1.23-4.12-16.9a1.44,1.44,0,0,0-2.8,0Z"/><rect class="cls-8" x="94.83" y="241.55" width="0.46" height="10.68"/><polygon class="cls-8" points="94.83 246.18 94.83 248.11 93.06 246.3 92.73 246.62 95.28 249.23 95.28 246.31 96.78 243.95 96.39 243.7 94.83 246.18"/><path class="cls-17" d="M86.93,237.67l-4.37,18.12,11.29-1.22-4.12-16.9a1.44,1.44,0,0,0-2.8,0Z"/><rect class="cls-8" x="88.1" y="240.93" width="0.46" height="15.35"/><polygon class="cls-8" points="88.1 245.57 88.1 247.49 86.33 245.69 86 246 88.55 248.61 88.55 245.7 90.05 243.33 89.66 243.09 88.1 245.57"/><path class="cls-8" d="M89.49,252.11c-2.25,2.95-3.69.16-6.49,1.31-3.7,1.51-6.65,9.58-11,8.76s-7-1.55-7-1.55l-1.36,4.42,32.93,1.14,4.8-19.24c-3.92-1.23-9.69,2.21-11.93,5.16Z"/><path class="cls-7" d="M85.8,261.12c-3.68-1-1.61-4.94-7.29-6.55-3.44-1-4.89.49-7.29-2.79s-1.84-7.53-8.73-8.89c-7.55-1.5-32.31,18.35-32.31,18.35l-5.27,6.87h66.8L97,265.05c-2.25-7.37-7.93-3.06-11.22-3.93Z"/><polygon class="cls-7" points="91.71 252.72 108.11 252.72 116.77 242.88 100.38 242.88 91.71 252.72"/><rect class="cls-18" x="91.71" y="252.72" width="16.39" height="15.39"/><polygon class="cls-6" points="108 268.21 116.88 268.21 116.88 252.72 116.88 242.88 108 252.72 108 268.21"/><rect class="cls-17" x="98.08" y="256.56" width="3.52" height="2.47"/><rect class="cls-17" x="98.08" y="262.23" width="3.52" height="2.47"/><polygon class="cls-17" points="24.91 242.88 47.9 242.88 55.2 235.43 32.21 235.43 24.91 242.88"/><polygon class="cls-6" points="47.91 242.88 47.91 268.21 62.5 268.21 62.5 242.88 55.2 235.43 47.91 242.88"/><rect class="cls-18" x="24.91" y="242.88" width="22.99" height="25.22"/><rect class="cls-7" x="44.55" y="245.57" width="0.96" height="0.98"/><rect class="cls-7" x="44.55" y="248.51" width="0.96" height="0.98"/><rect class="cls-7" x="44.55" y="251.44" width="0.96" height="0.98"/><rect class="cls-7" x="44.55" y="254.38" width="0.96" height="0.98"/><rect class="cls-7" x="44.55" y="257.32" width="0.96" height="0.98"/><rect class="cls-7" x="41.67" y="245.57" width="0.96" height="0.98"/><rect class="cls-7" x="41.67" y="248.51" width="0.96" height="0.98"/><rect class="cls-7" x="41.67" y="251.44" width="0.96" height="0.98"/><rect class="cls-7" x="41.67" y="254.38" width="0.96" height="0.98"/><rect class="cls-7" x="41.67" y="257.32" width="0.96" height="0.98"/><rect class="cls-7" x="38.8" y="245.57" width="0.96" height="0.98"/><rect class="cls-7" x="38.8" y="248.51" width="0.96" height="0.98"/><rect class="cls-7" x="38.8" y="251.44" width="0.96" height="0.98"/><rect class="cls-7" x="38.8" y="254.38" width="0.96" height="0.98"/><rect class="cls-7" x="38.8" y="257.32" width="0.96" height="0.98"/><rect class="cls-7" x="35.93" y="245.57" width="0.96" height="0.98"/><rect class="cls-7" x="35.93" y="248.51" width="0.96" height="0.98"/><rect class="cls-7" x="35.93" y="251.44" width="0.96" height="0.98"/><rect class="cls-7" x="35.93" y="254.38" width="0.96" height="0.98"/><rect class="cls-7" x="35.93" y="257.32" width="0.96" height="0.98"/><rect class="cls-7" x="33.05" y="245.57" width="0.96" height="0.98"/><rect class="cls-7" x="33.05" y="248.51" width="0.96" height="0.98"/><rect class="cls-7" x="33.05" y="251.44" width="0.96" height="0.98"/><rect class="cls-7" x="33.05" y="254.38" width="0.96" height="0.98"/><rect class="cls-7" x="33.05" y="257.32" width="0.96" height="0.98"/><rect class="cls-7" x="30.18" y="245.57" width="0.96" height="0.98"/><rect class="cls-7" x="30.18" y="248.51" width="0.96" height="0.98"/><rect class="cls-7" x="30.18" y="251.44" width="0.96" height="0.98"/><rect class="cls-7" x="30.18" y="254.38" width="0.96" height="0.98"/><rect class="cls-7" x="30.18" y="257.32" width="0.96" height="0.98"/><rect class="cls-7" x="27.3" y="245.57" width="0.96" height="0.98"/><rect class="cls-7" x="27.3" y="248.51" width="0.96" height="0.98"/><rect class="cls-7" x="27.3" y="251.44" width="0.96" height="0.98"/><rect class="cls-7" x="27.3" y="254.38" width="0.96" height="0.98"/><rect class="cls-7" x="27.3" y="257.32" width="0.96" height="0.98"/><rect class="cls-7" x="44.55" y="260.26" width="0.96" height="0.98"/><rect class="cls-7" x="41.67" y="260.26" width="0.96" height="0.98"/><rect class="cls-7" x="38.8" y="260.26" width="0.96" height="0.98"/><rect class="cls-7" x="35.93" y="260.26" width="0.96" height="0.98"/><rect class="cls-7" x="33.05" y="260.26" width="0.96" height="0.98"/><rect class="cls-7" x="30.18" y="260.26" width="0.96" height="0.98"/><rect class="cls-7" x="27.3" y="260.26" width="0.96" height="0.98"/><polygon class="cls-18" points="26.8 242.88 27.52 242.88 34.82 235.43 34.09 235.43 26.8 242.88"/><polygon class="cls-18" points="29.88 242.88 30.61 242.88 37.9 235.43 37.17 235.43 29.88 242.88"/><polygon class="cls-18" points="32.96 242.88 33.69 242.88 40.98 235.43 40.26 235.43 32.96 242.88"/><polygon class="cls-18" points="36.04 242.88 36.77 242.88 44.07 235.43 43.34 235.43 36.04 242.88"/><polygon class="cls-18" points="39.12 242.88 39.85 242.88 47.15 235.43 46.42 235.43 39.12 242.88"/><polygon class="cls-18" points="42.2 242.88 42.93 242.88 50.23 235.43 49.5 235.43 42.2 242.88"/><polygon class="cls-18" points="45.28 242.88 46.01 242.88 53.31 235.43 52.58 235.43 45.28 242.88"/><rect class="cls-17" x="116.77" y="242.88" width="41.9" height="25.22"/><path class="cls-8" d="M147.53,246.57c0,5.73,4.13,10.38,4.13,10.38s4.12-4.65,4.12-10.38-4.12-10.39-4.12-10.39-4.13,4.65-4.13,10.39Z"/><rect class="cls-6" x="151.43" y="244.74" width="0.46" height="13.78"/><path class="cls-8" d="M129.63,247.8c0,5.73,4.12,10.38,4.12,10.38s4.13-4.65,4.13-10.38-4.13-10.39-4.13-10.39-4.12,4.65-4.12,10.39Z"/><rect class="cls-7" x="133.53" y="247.56" width="0.46" height="13.78"/><path class="cls-18" d="M119.47,247c0,7.53,5.9,13.64,5.9,13.64s5.9-6.11,5.9-13.64-5.9-13.64-5.9-13.64-5.9,6.11-5.9,13.64Z"/><rect class="cls-6" x="125.14" y="244.6" width="0.46" height="18.09"/><path class="cls-8" d="M147,253.89c-6.88.93-8,2.79-10.35,5s-3.84,1.23-7.29,1.89c-5.67,1.1-3.6,3.79-7.29,4.46-1.46.26-3.4-.17-5.3-.29v3.2h41.9V256.2A20.33,20.33,0,0,0,147,253.89Z"/><path class="cls-7" d="M59.17,177a4,4,0,0,0-2.12.6,4.13,4.13,0,0,0-8-1.24,4.09,4.09,0,0,0-2.76-1.08,4.17,4.17,0,0,0-4.12,3.8,4.11,4.11,0,0,0-2.49-.85,4.2,4.2,0,0,0-4.15,4.24s0,.06,0,.09a4.09,4.09,0,0,0-1.75-.4,4.19,4.19,0,0,0-4.14,4.1,4.12,4.12,0,0,0-3.07-1.4,4.19,4.19,0,0,0-4.14,4.24H63.31V181.2A4.19,4.19,0,0,0,59.17,177Z"/><path class="cls-7" d="M197.74,225.49c-12.85,0-12.25,2.88-23.88-3.55-8.45-4.66-15.19-1.05-15.19-1.05v22H222s-15.2-17.4-24.24-17.4Z"/><rect class="cls-18" x="223.04" y="242.95" width="41.59" height="25.15"/><rect class="cls-17" x="233.78" y="211.61" width="13.25" height="4.81"/><polygon class="cls-20" points="233.78 211.61 247.03 211.61 252.93 205.86 239.68 205.86 233.78 211.61"/><rect class="cls-17" x="227.89" y="222.18" width="13.25" height="20.76"/><polygon class="cls-20" points="227.89 222.18 241.14 222.18 247.03 216.42 233.78 216.42 227.89 222.18"/><polygon class="cls-21" points="247.03 211.61 258.83 211.61 252.93 205.86 247.03 211.61"/><polygon class="cls-21" points="258.82 211.54 247.09 211.54 247.09 216.56 241.08 222.18 241.08 243.02 247.13 243.02 258.87 243.02 264.54 243.02 264.54 222.18 258.82 216.49 258.82 211.54"/><rect class="cls-8" x="249.79" y="215.45" width="1.24" height="2.45"/><rect class="cls-8" x="254.83" y="215.45" width="1.24" height="2.45"/><rect class="cls-8" x="249.79" y="219.77" width="1.24" height="2.45"/><rect class="cls-8" x="254.83" y="219.77" width="1.24" height="2.45"/><rect class="cls-8" x="249.79" y="224.1" width="1.24" height="2.45"/><rect class="cls-8" x="254.83" y="224.1" width="1.24" height="2.45"/><rect class="cls-8" x="249.79" y="228.42" width="1.24" height="2.45"/><rect class="cls-8" x="254.83" y="228.42" width="1.24" height="2.45"/><rect class="cls-8" x="249.79" y="232.75" width="1.24" height="2.45"/><rect class="cls-8" x="254.83" y="232.75" width="1.24" height="2.45"/><rect class="cls-8" x="249.79" y="237.07" width="1.24" height="2.45"/><rect class="cls-8" x="254.83" y="237.07" width="1.24" height="2.45"/><rect class="cls-8" x="244.75" y="224.1" width="1.24" height="2.45"/><rect class="cls-8" x="244.75" y="228.42" width="1.24" height="2.45"/><rect class="cls-8" x="244.75" y="232.75" width="1.24" height="2.45"/><rect class="cls-8" x="244.75" y="237.07" width="1.24" height="2.45"/><rect class="cls-8" x="259.87" y="224.1" width="1.24" height="2.45"/><rect class="cls-8" x="259.87" y="228.42" width="1.24" height="2.45"/><rect class="cls-8" x="259.87" y="232.75" width="1.24" height="2.45"/><rect class="cls-8" x="259.87" y="237.07" width="1.24" height="2.45"/><rect class="cls-6" x="243.54" y="250.59" width="0.46" height="17.52"/><rect class="cls-6" x="242.94" y="254.78" width="0.46" height="1.84" transform="translate(-107.48 216.18) rotate(-40.01)"/><rect class="cls-6" x="243.09" y="254.73" width="3.8" height="0.46" transform="translate(-107.8 278.63) rotate(-49.98)"/><rect class="cls-6" x="242.83" y="257.69" width="5.21" height="0.46" transform="translate(-109.91 280.04) rotate(-49.98)"/><path class="cls-17" d="M234.54,256.15a1.27,1.27,0,0,1-.36-1.3c.32-1.14.72-3,.08-3.68a1.55,1.55,0,0,0-.83-.45,1.18,1.18,0,0,1-.85-1.21v0c0-2.06-1-3.73-2.21-3.73s-2.22,1.67-2.22,3.73v0a1.16,1.16,0,0,1-.85,1.21,1.59,1.59,0,0,0-.83.45c-.63.64-.24,2.54.08,3.68a1.25,1.25,0,0,1-.36,1.3,2.19,2.19,0,0,0-.78,1.3c-.26,1.43,1.82,4.52,5,7.29,3.13-2.77,5.21-5.86,4.95-7.29a2.19,2.19,0,0,0-.78-1.3Z"/><polygon class="cls-6" points="230.36 252.88 228.72 251.67 228.45 252.04 230.36 253.45 232.23 252.06 231.96 251.69 230.36 252.88"/><polygon class="cls-6" points="230.38 260.07 227.45 257.91 227.18 258.28 230.38 260.64 233.59 258.28 233.32 257.91 230.38 260.07"/><polygon class="cls-6" points="230.36 256.28 227.6 254.23 227.33 254.6 230.36 256.85 233.34 254.65 233.07 254.28 230.36 256.28"/><rect class="cls-6" x="230.14" y="248.7" width="0.46" height="19.41"/><path class="cls-8" d="M260.94,250.15a4.4,4.4,0,1,0-8.79,0,4.35,4.35,0,0,0,.41,1.84,4.23,4.23,0,0,1,0,3.58,4.4,4.4,0,1,0,8,0,4.27,4.27,0,0,1,0-3.58,4.35,4.35,0,0,0,.42-1.88Z"/><rect class="cls-6" x="256.38" y="252" width="0.46" height="9.99"/><rect class="cls-6" x="255.35" y="253.7" width="0.46" height="2.9" transform="translate(-105.56 256.15) rotate(-45.11)"/><rect class="cls-6" x="255.97" y="257.94" width="4.39" height="0.46" transform="translate(-106.93 257.56) rotate(-44.91)"/><rect class="cls-6" x="256.38" y="249.83" width="0.46" height="18.28"/><rect class="cls-6" x="255.35" y="253.7" width="0.46" height="2.9" transform="translate(-105.56 256.15) rotate(-45.11)"/><rect class="cls-6" x="256.19" y="254.92" width="2.9" height="0.46" transform="translate(-104.96 256.31) rotate(-44.91)"/><rect class="cls-6" x="255.69" y="251.55" width="0.46" height="1.95" transform="translate(-103.6 255.7) rotate(-45.12)"/><rect class="cls-6" x="256.32" y="252.3" width="1.95" height="0.46" transform="translate(-103.21 255.3) rotate(-44.91)"/><rect class="cls-6" x="255.97" y="257.94" width="4.39" height="0.46" transform="translate(-106.93 257.56) rotate(-44.91)"/><rect class="cls-6" x="254.83" y="255.97" width="0.46" height="4.39" transform="translate(-107.85 256.72) rotate(-45.12)"/><path class="cls-17" d="M235.68,239.11a6.65,6.65,0,0,0-2.52.48c0-.12,0-.25,0-.37,0-3.9-4-7.06-8.86-7.06a10.93,10.93,0,0,0-2.65.32c-.22-2.27-2.6-4.07-5.51-4.07V243h25c-.31-2.2-2.66-3.91-5.5-3.91Z"/><polygon class="cls-22" points="158.67 244.37 158.67 268.11 209.21 268.11 209.21 242.88 158.67 242.88 158.67 244.37"/><polygon class="cls-23" points="158.67 242.88 209.21 242.88 216.12 228.33 165.57 228.33 158.67 242.88"/><polygon class="cls-24" points="216.16 228.4 209.31 242.88 209.31 268.21 223.05 268.21 223.05 242.95 223.05 243.02 223.02 243.02 216.16 228.4"/><rect class="cls-8" x="186.14" y="242.92" width="10.3" height="25.18"/><polygon class="cls-22" points="179.23 235.88 186.14 242.88 196.43 242.88 189.53 235.88 179.23 235.88"/><polygon class="cls-21" points="179.23 235.88 172.33 242.93 172.56 243.02 172.39 243.02 172.39 268.21 186.13 268.21 186.13 243.02 185.91 243.02 186.14 242.93 179.23 235.88"/><path class="cls-24" d="M216.12,247.92a1.37,1.37,0,0,0-1.37,1.38v2.2h2.75v-2.2a1.38,1.38,0,0,0-1.38-1.38Z"/><path class="cls-24" d="M203,247.92a1.37,1.37,0,0,0-1.37,1.38v2.2h2.75v-2.2a1.38,1.38,0,0,0-1.38-1.38Z"/><path class="cls-24" d="M179.28,247.92h0a1.38,1.38,0,0,0-1.38,1.38v2.2h2.75v-2.2a1.37,1.37,0,0,0-1.37-1.38Z"/><path class="cls-24" d="M166,247.92a1.38,1.38,0,0,0-1.38,1.38v2.2h2.75v-2.2a1.37,1.37,0,0,0-1.37-1.38Z"/><path class="cls-24" d="M191.59,247.92a1.38,1.38,0,0,0-1.38,1.38v2.2H193v-2.2a1.37,1.37,0,0,0-1.37-1.38Z"/><path class="cls-24" d="M216.12,254a1.37,1.37,0,0,0-1.37,1.37v2.21h2.75v-2.21a1.37,1.37,0,0,0-1.38-1.37Z"/><path class="cls-24" d="M203,254a1.37,1.37,0,0,0-1.37,1.37v2.21h2.75v-2.21A1.37,1.37,0,0,0,203,254Z"/><path class="cls-24" d="M179.28,254h0a1.37,1.37,0,0,0-1.38,1.37v2.21h2.75v-2.21a1.37,1.37,0,0,0-1.37-1.37Z"/><path class="cls-24" d="M166,254a1.37,1.37,0,0,0-1.38,1.37v2.21h2.75v-2.21A1.37,1.37,0,0,0,166,254Z"/><path class="cls-24" d="M191.59,254a1.37,1.37,0,0,0-1.38,1.37v2.21H193v-2.21a1.37,1.37,0,0,0-1.37-1.37Z"/><path class="cls-24" d="M216.12,260.1a1.37,1.37,0,0,0-1.37,1.37v2.21h2.75v-2.21a1.37,1.37,0,0,0-1.38-1.37Z"/><path class="cls-24" d="M203,260.1a1.37,1.37,0,0,0-1.37,1.37v2.21h2.75v-2.21A1.37,1.37,0,0,0,203,260.1Z"/><path class="cls-24" d="M179.28,260.1h0a1.37,1.37,0,0,0-1.38,1.37v2.21h2.75v-2.21a1.37,1.37,0,0,0-1.37-1.37Z"/><path class="cls-24" d="M166,260.1a1.37,1.37,0,0,0-1.38,1.37v2.21h2.75v-2.21A1.37,1.37,0,0,0,166,260.1Z"/><path class="cls-24" d="M191.59,260.1a1.37,1.37,0,0,0-1.38,1.37v2.21H193v-2.21a1.37,1.37,0,0,0-1.37-1.37Z"/></svg>