<svg id="pineSpiral" xmlns="http://www.w3.org/2000/svg" xmlns:xlink="http://www.w3.org/1999/xlink" viewBox="0 0 693.03 693.03">
              <defs>
                <style>
                  .cls-1, .cls-13, .cls-14, .cls-15, .cls-20, .cls-21, .cls-22, .cls-23, .cls-24 {
                    fill: none;
                  }
            
                  .cls-2 {
                    clip-path: url(#clip-path);
                  }
            
                  .cls-3 {
                    fill: url(#radial-gradient);
                  }
            
                  .cls-4 {
                    clip-path: url(#clip-path-2);
                  }
            
                  .cls-5 {
                    fill: url(#radial-gradient-2);
                  }
            
                  .cls-6 {
                    clip-path: url(#clip-path-3);
                  }
            
                  .cls-7 {
                    fill: url(#radial-gradient-3);
                  }
            
                  .cls-8 {
                    clip-path: url(#clip-path-4);
                  }
            
                  .cls-9 {
                    fill: url(#radial-gradient-4);
                  }
            
                  .cls-10, .cls-46 {
                    fill: #7b6ce6;
                  }
            
                  .cls-11, .cls-47 {
                    fill: #00a8f0;
                  }
            
                  .cls-12, .cls-48 {
                    fill: #2dd687;
                  }
            
                  .cls-13, .cls-21 {
                    stroke: #fcc200;
                  }
            
                  .cls-13, .cls-14, .cls-15, .cls-20, .cls-21, .cls-22, .cls-23, .cls-24 {
                    stroke-miterlimit: 10;
                  }
            
                  .cls-14 {
                    stroke: #00a8f0;
                  }
            
                  .cls-15, .cls-23 {
                    stroke: #2dd687;
                  }
            
                  .cls-16, .cls-17, .cls-18, .cls-19, .cls-26, .cls-27, .cls-28, .cls-29, .cls-30, .cls-31, .cls-32, .cls-33, .cls-34, .cls-35, .cls-36, .cls-37, .cls-38, .cls-39 {
                    fill: #fff;
                  }
            
                  .cls-17 {
                    font-size: 13px;
                  }
            
                  .cls-17, .cls-18, .cls-19, .cls-26, .cls-27, .cls-28, .cls-29, .cls-30, .cls-31, .cls-32, .cls-33, .cls-34, .cls-35, .cls-36, .cls-37, .cls-38, .cls-39 {
                    font-family: Campton-Bold, Campton;
                    font-weight: 700;
                  }
            
                  .cls-18 {
                    font-size: 13px;
                  }
            
                  .cls-19 {
                    font-size: 13px;
                  }
            
                  .cls-20, .cls-24 {
                    stroke: #7b6ce6;
                  }
            
                  .cls-21, .cls-22, .cls-23, .cls-24 {
                    stroke-width: 0.25px;
                  }
            
                  .cls-22 {
                    stroke: #40bef4;
                  }
            
                  .cls-25, .cls-44 {
                    fill: #fcc200;
                  }
            
                  .cls-26 {
                    font-size: 13px;
                  }
            
                  .cls-27 {
                    font-size: 13px;
                  }
            
                  .cls-28 {
                    font-size: 13px;
                  }
            
                  .cls-29 {
                    font-size: 13px;
                  }
            
                  .cls-30 {
                    font-size: 13px;
                  }
            
                  .cls-31 {
                    font-size: 13px;
                  }
            
                  .cls-32 {
                    font-size: 13px;
                  }
            
                  .cls-33 {
                    font-size: 13px;
                  }
            
                  .cls-34 {
                    font-size: 13px;
                  }
            
                  .cls-35 {
                    font-size: 13px;
                  }
            
                  .cls-36 {
                    font-size: 13px;
                  }
            
                  .cls-37 {
                    font-size: 13px;
                  }
            
                  .cls-38 {
                    font-size: 13px;
                  }
            
                  .cls-39 {
                    font-size: 12px;
                  }
            
                  .cls-40 {
                    letter-spacing: -0.01em;
                  }
            
                  .cls-41 {
                    letter-spacing: 0.01em;
                  }
            
                  .cls-42, .cls-45 {
                    fill: #fcda00;
                  }
            
                  .cls-43 {
                    fill: #fffbf7;
                  }
            
                  .cls-44, .cls-45, .cls-46, .cls-47, .cls-48 {
                    fill-rule: evenodd;
                  }
                </style>
                <clipPath id="clip-path">
                  <path class="cls-1" d="M128.2,346.39H347v-266c-131.08,16.69-225.86,131.93-218.79,266"/>
                </clipPath>
                <radialGradient id="radial-gradient" cx="-55.9" cy="736.18" r="1" gradientTransform="matrix(0, -266.27, -219.13, 0, 161667.62, -14538.12)" gradientUnits="userSpaceOnUse">
                  <stop offset="0" stop-color="#fcda00"/>
                  <stop offset="0.41" stop-color="#fde75c"/>
                  <stop offset="1" stop-color="#fffbe5"/>
                </radialGradient>
                <clipPath id="clip-path-2">
                  <path class="cls-1" d="M347,346.39V678c6.27,0,15.75-.14,22.09-.47,173.63-9.16,307-157.35,297.81-331,0,0,0-.07,0-.1Z"/>
                </clipPath>
                <radialGradient id="radial-gradient-2" cx="-55.9" cy="736.18" r="1" gradientTransform="matrix(0, 331.43, 322.21, 0, -236861.22, 18872.32)" gradientUnits="userSpaceOnUse">
                  <stop offset="0" stop-color="#00a8f0"/>
                  <stop offset="0.41" stop-color="#5cc7f5"/>
                  <stop offset="1" stop-color="#e5f6fd"/>
                </radialGradient>
                <clipPath id="clip-path-3">
                  <path class="cls-1" d="M1.1,346.39C11,533.1,162.21,677.86,347,678V346.39Z"/>
                </clipPath>
                <radialGradient id="radial-gradient-3" cx="-55.9" cy="736.18" r="1" gradientTransform="matrix(-345.59, 0, 0, 331.88, -18972.95, -243977.79)" gradientUnits="userSpaceOnUse">
                  <stop offset="0" stop-color="#00d9b5"/>
                  <stop offset="0.41" stop-color="#5ce7d0"/>
                  <stop offset="1" stop-color="#e5fbf8"/>
                </radialGradient>
                <clipPath id="clip-path-4">
                  <path class="cls-1" d="M369.16,78.61c-6.41.33-15.91,1-22.17,1.78v266H666.88c-8-151-133-268.17-282.55-268.19-5,0-10.08.14-15.17.41"/>
                </clipPath>
                <radialGradient id="radial-gradient-4" cx="-55.9" cy="736.18" r="1" gradientTransform="matrix(320.35, 0.07, 0.06, -264.9, 18212.23, 195360.41)" gradientUnits="userSpaceOnUse">
                  <stop offset="0" stop-color="#7b6ce6"/>
                  <stop offset="0.7" stop-color="#cdc7f6"/>
                  <stop offset="1" stop-color="#f2f0fd"/>
                </radialGradient>
              </defs>
              <title>pineMapGrouped</title>
              <g id="pineMap">
                <g class="cls-2">
                  <rect class="cls-3" x="121.13" y="80.39" width="225.85" height="266"/>
                </g>
                <g class="cls-4">
                  <rect class="cls-5" x="346.75" y="346.16" width="329.54" height="332.03" transform="translate(-0.73 0.73) rotate(-0.08)"/>
                </g>
                <g class="cls-6">
                  <rect class="cls-7" x="1.1" y="346.39" width="345.88" height="331.56"/>
                </g>
                <g class="cls-8">
                  <rect class="cls-9" x="346.96" y="78.17" width="319.95" height="268.26"/>
                </g>
                <path class="cls-10" d="M453.61,340.77A106.77,106.77,0,0,0,347,239.62V346.39H453.76c0-1.86-.05-3.74-.15-5.62"/>
                <path class="cls-11" d="M347,453.17c1.86,0,3.74-.05,5.62-.15A106.78,106.78,0,0,0,453.76,346.39H347Z"/>
                <path class="cls-12" d="M240.21,346.39c0,1.87,0,3.75.15,5.63A106.78,106.78,0,0,0,347,453.17V346.39Z"/>
                <path class="cls-13" d="M347,190.88A148.91,148.91,0,0,0,217.22,346.39"/>
                <path class="cls-14" d="M347,540.23c3.66,0,7.35-.08,11.05-.27,101.51-5.36,179.47-92,174.11-193.51v-.06"/>
                <path class="cls-15" d="M142.91,346.39C148.67,455.55,239,540.18,347,540.23"/>
                <path class="cls-16" d="M265.91,346.39A81.08,81.08,0,1,1,347,427.47a81.07,81.07,0,0,1-81.07-81.08"/>
                <text class="cls-17" transform="translate(388.51 269.52) rotate(31.13)">S</text>
                <text class="cls-18" transform="translate(395.82 274.03) rotate(35.1)">I</text>
                <text class="cls-19" transform="matrix(0.78, 0.63, -0.63, 0.78, 398.76, 275.99)">T</text>
                <path class="cls-20" d="M532.15,346.39A165.57,165.57,0,0,0,358.09,189.84c-3.75.2-7.44.58-11.1,1"/>
                <path class="cls-21" d="M347,98.28C224.73,113.85,136.32,221.34,142.91,346.39"/>
                <path class="cls-22" d="M347,655.66c5.84,0,14.69-.13,20.6-.44,162-8.55,286.33-146.78,277.79-308.74a.28.28,0,0,1,0-.09"/>
                <path class="cls-23" d="M24.36,346.39C33.55,520.54,174.64,655.57,347,655.66"/>
                <path class="cls-24" d="M645.37,346.39c-7.74-145.64-132-257.46-277.7-249.78-6,.32-14.84.93-20.68,1.67"/>
                <rect class="cls-10" x="244.18" y="332.93" width="3.8" height="0.46" transform="translate(-167.3 307.39) rotate(-49.98)"/>
                <rect class="cls-10" x="243.93" y="335.89" width="5.21" height="0.46" transform="translate(-169.41 308.8) rotate(-49.98)"/>
                <rect class="cls-10" x="256.45" y="331.91" width="0.46" height="2.9" transform="translate(-160.66 280.05) rotate(-45.13)"/>
                <rect class="cls-10" x="257.07" y="336.14" width="4.39" height="0.46" transform="translate(-161.82 281.17) rotate(-44.91)"/>
                <rect class="cls-10" x="256.45" y="331.91" width="0.46" height="2.9" transform="translate(-160.66 280.05) rotate(-45.13)"/>
                <rect class="cls-10" x="257.28" y="333.13" width="2.9" height="0.46" transform="translate(-159.85 279.92) rotate(-44.91)"/>
                <rect class="cls-10" x="257.07" y="336.14" width="4.39" height="0.46" transform="translate(-161.82 281.17) rotate(-44.91)"/>
                <rect class="cls-10" x="255.92" y="334.17" width="0.46" height="4.39" transform="translate(-162.94 280.52) rotate(-45.12)"/>
                <path class="cls-25" d="M347,265.32v-25.7c-1.87,0-3.75,0-5.63.15A106.77,106.77,0,0,0,240.21,346.39h25.7A81.08,81.08,0,0,1,347,265.32"/>
                <text class="cls-26" transform="matrix(0.21, -0.98, 0.98, 0.21, 259.88, 332.86)">C</text>
                <text class="cls-27" transform="translate(262 323.22) rotate(-72.37)">e</text>
                <text class="cls-28" transform="matrix(0.38, -0.92, 0.92, 0.38, 264.14, 316.41)">n</text>
                <text class="cls-29" transform="translate(267.08 309.37) rotate(-63.16)">t</text>
                <text class="cls-30" transform="translate(269.78 304.05) rotate(-59.54)">r</text>
                <text class="cls-17" transform="translate(272.36 299.56) rotate(-55.36)">u</text>
                <text class="cls-31" transform="matrix(0.65, -0.76, 0.76, 0.65, 276.61, 293.2)">m</text>
                <text class="cls-32" transform="matrix(0.71, -0.7, 0.7, 0.71, 284.36, 284.5)"> </text>
                <text class="cls-33" transform="matrix(0.75, -0.66, 0.66, 0.75, 286.66, 282.21)">r</text>
                <text class="cls-31" transform="translate(290.34 278.87) rotate(-37.63)">o</text>
                <text class="cls-34" transform="matrix(0.84, -0.54, 0.54, 0.84, 296.33, 274.23)">b</text>
                <text class="cls-35" transform="translate(302.98 269.97) rotate(-27.6)">o</text>
                <text class="cls-36" transform="translate(309.75 266.46) rotate(-23.17)">t</text>
                <text class="cls-36" transform="matrix(0.94, -0.34, 0.34, 0.94, 315.26, 264.13)">i</text>
                <text class="cls-37" transform="translate(318.81 262.77) rotate(-16.23)">k</text>
                <text class="cls-38" transform="translate(325.84 260.69) rotate(-11.32)">y</text>
                <text class="cls-39" transform="translate(296.13 420.08) rotate(-136.84)">BIC</text>
                <text class="cls-39" transform="translate(425.96 389.46) rotate(133.16)">BIC <tspan class="cls-40" x="24.19" y="0">Po</tspan><tspan class="cls-41" x="38.88" y="0">r</tspan><tspan x="43.88" y="0">t</tspan></text>
              </g>
              <g id="svgPineCity">
                <path class="cls-12" d="M233.07,256.66c0,6.68,4.8,12.1,4.8,12.1s4.81-5.42,4.81-12.1-4.81-12.1-4.81-12.1-4.8,5.42-4.8,12.1Z"/>
                <rect class="cls-11" x="237.64" y="250.04" width="0.46" height="22.7"/>
                <path class="cls-12" d="M183.33,251.86s-3.5,3.46-3.5,7.71,3.5,7.72,3.5,7.72,3.51-3.46,3.51-7.72-3.51-7.71-3.51-7.71Z"/>
                <rect class="cls-11" x="183.1" y="258.63" width="0.46" height="17.22"/>
                <path class="cls-11" d="M174.56,251.86s-3.51,3.46-3.51,7.71,3.51,7.72,3.51,7.72,3.5-3.46,3.5-7.72-3.5-7.71-3.5-7.71Z"/>
                <rect class="cls-11" x="174.33" y="258.63" width="0.46" height="17.22"/>
                <path class="cls-42" d="M165.78,251.86s-3.5,3.46-3.5,7.71,3.5,7.72,3.5,7.72,3.51-3.46,3.51-7.72-3.51-7.71-3.51-7.71Z"/>
                <rect class="cls-11" x="165.56" y="258.63" width="0.46" height="17.22"/>
                <path class="cls-12" d="M200.88,251.86s-3.51,3.46-3.51,7.71,3.51,7.72,3.51,7.72,3.5-3.46,3.5-7.72-3.5-7.71-3.5-7.71Z"/>
                <rect class="cls-11" x="200.65" y="258.63" width="0.46" height="17.22"/>
                <path class="cls-12" d="M192.1,251.86s-3.5,3.46-3.5,7.71,3.5,7.72,3.5,7.72,3.51-3.46,3.51-7.72-3.51-7.71-3.51-7.71Z"/>
                <rect class="cls-11" x="191.88" y="258.63" width="0.46" height="17.22"/>
                <path class="cls-42" d="M133.69,254.12c0,5.73,4.13,10.38,4.13,10.38s4.12-4.65,4.12-10.38-4.12-10.39-4.12-10.39-4.13,4.65-4.13,10.39Z"/>
                <path class="cls-12" d="M139.26,262c-4.2-.07-6.21,6.67-12.24,3.6-7.49-3.82-9.69,3.26-14.14.61-4.21-2.5-3.65-8.91-11.22-9.71-3.6-.38-5.11,1.23-8.81-.28-3.2-1.31-8.51,4.59-8.51,4.59v27.84l54.9-7.64s5.41-18.93,0-19Z"/>
                <path class="cls-42" d="M244.51,259.84c0,6.69,4.8,12.1,4.8,12.1s4.81-5.41,4.81-12.1-4.81-12.09-4.81-12.09-4.8,5.41-4.8,12.09Z"/>
                <rect class="cls-11" x="249.08" y="257.72" width="0.46" height="19.64"/>
                <polygon class="cls-11" points="249.31 262.15 247.7 260.5 247.38 260.82 249.31 262.8 251.25 260.82 250.92 260.5 249.31 262.15"/>
                <path class="cls-12" d="M254.92,267.49c0,5.9,4.25,10.68,4.25,10.68s4.24-4.78,4.24-10.68-4.24-10.69-4.24-10.69-4.25,4.79-4.25,10.69Z"/>
                <rect class="cls-12" x="258.94" y="265.58" width="0.46" height="15.56"/>
                <path class="cls-12" d="M257.27,281.1c-4.32-1.89-3-4.48-6.78-5.6-4.49-1.34-6.6,3.09-8.79.87s-1.65-5.56-6.61-4.79v28.95h30.85v-18c-3.24-3.39-6-.23-8.67-1.42Z"/>
                <path class="cls-12" d="M190.14,273.83c-3.76,1.15-4.35-.46-9,.22-3.61.52-4.61,3.32-7.83,2.68-3.37-.68-7.82-2.17-12.58.35-5.22,2.77-3.89,11.52-3.89,11.52l8.65,2.44,35.4,6.62.17-26c-5.44-3.11-8.29,1.33-10.89,2.13Z"/>
                <polygon class="cls-25" points="207.46 263.14 214.11 271.62 235.07 271.62 228.41 263.14 207.46 263.14"/>
                <polygon class="cls-10" points="200.86 271.62 200.86 298.44 214.03 298.44 214.03 271.62 207.44 263.14 200.86 271.62"/>
                <rect class="cls-42" x="214.11" y="271.62" width="20.95" height="26.89"/>
                <rect class="cls-43" x="219.21" y="275.57" width="1.54" height="1.29"/>
                <rect class="cls-43" x="219.21" y="279.44" width="1.54" height="1.29"/>
                <rect class="cls-43" x="223.82" y="275.57" width="1.54" height="1.29"/>
                <rect class="cls-43" x="223.82" y="279.44" width="1.54" height="1.29"/>
                <rect class="cls-43" x="228.43" y="275.57" width="1.54" height="1.29"/>
                <rect class="cls-43" x="228.43" y="279.44" width="1.54" height="1.29"/>
                <rect class="cls-43" x="219.21" y="283.32" width="1.54" height="1.29"/>
                <rect class="cls-43" x="223.82" y="283.32" width="1.54" height="1.29"/>
                <rect class="cls-43" x="228.43" y="283.32" width="1.54" height="1.29"/>
                <rect class="cls-11" x="204.39" y="275.57" width="1.54" height="1.29"/>
                <rect class="cls-11" x="204.39" y="279.44" width="1.54" height="1.29"/>
                <rect class="cls-11" x="209" y="275.57" width="1.54" height="1.29"/>
                <rect class="cls-11" x="209" y="279.44" width="1.54" height="1.29"/>
                <rect class="cls-11" x="204.39" y="283.32" width="1.54" height="1.29"/>
                <rect class="cls-11" x="209" y="283.32" width="1.54" height="1.29"/>
                <path class="cls-42" d="M196.73,278.48a4.06,4.06,0,0,0-3.06,1.4,4.19,4.19,0,0,0-4.15-4.1,4,4,0,0,0-1.75.4s0-.06,0-.09a4.2,4.2,0,0,0-4.16-4.24,4.11,4.11,0,0,0-2.49.85,4.18,4.18,0,0,0-4.13-3.8,4.1,4.1,0,0,0-2.77,1.08,4.14,4.14,0,0,0-8,1.24,4.07,4.07,0,0,0-2.13-.6,4.21,4.21,0,0,0-4.16,4.24v7.84h22.61v17.45h18.31V282.72a4.17,4.17,0,0,0-4.13-4.24Z"/>
                <polygon class="cls-11" points="165.07 277.02 170.19 282.33 186.31 282.33 181.19 277.02 165.07 277.02"/>
                <polygon class="cls-25" points="159.94 282.33 159.94 299.29 170.24 299.29 170.24 282.33 165.09 277.02 159.94 282.33"/>
                <rect class="cls-42" x="170.19" y="282.33" width="16.12" height="16.86"/>
                <rect class="cls-43" x="174.11" y="286.54" width="1.18" height="1.21"/>
                <rect class="cls-43" x="174.11" y="290.16" width="1.18" height="1.21"/>
                <rect class="cls-43" x="177.66" y="286.54" width="1.18" height="1.21"/>
                <rect class="cls-43" x="177.66" y="290.16" width="1.18" height="1.21"/>
                <rect class="cls-43" x="181.2" y="286.54" width="1.18" height="1.21"/>
                <rect class="cls-43" x="181.2" y="290.16" width="1.18" height="1.21"/>
                <rect class="cls-43" x="174.11" y="293.79" width="1.18" height="1.21"/>
                <rect class="cls-43" x="177.66" y="293.79" width="1.18" height="1.21"/>
                <rect class="cls-43" x="181.2" y="293.79" width="1.18" height="1.21"/>
                <path class="cls-42" d="M126.12,252.47c0,5.73,4.12,10.38,4.12,10.38s4.13-4.65,4.13-10.38-4.13-10.39-4.13-10.39-4.12,4.65-4.12,10.39Z"/>
                <rect class="cls-11" x="130.01" y="252.24" width="0.46" height="25.61"/>
                <path class="cls-12" d="M123.19,242.63s-4.79,4.18-4.79,9.33,4.79,9.32,4.79,9.32S128,257.1,128,252s-4.8-9.33-4.8-9.33Z"/>
                <rect class="cls-11" x="122.97" y="249.29" width="0.46" height="26.29"/>
                <polygon class="cls-42" points="139.26 262.01 151.02 262.01 159.95 249.66 148.18 249.66 139.26 262.01"/>
                <rect class="cls-12" x="139.26" y="262.01" width="11.77" height="30.56"/>
                <polygon class="cls-11" points="151.07 292.43 159.94 292.43 159.94 262.01 159.94 249.66 151.07 262.01 151.07 292.43"/>
                <rect class="cls-42" x="154.79" y="270.2" width="1.39" height="5.15"/>
                <path class="cls-42" d="M155.07,285a4.72,4.72,0,0,0-2.49.71,4.85,4.85,0,0,0-9.39-1.46,4.78,4.78,0,0,0-3.24-1.27,4.93,4.93,0,0,0-4.86,4.47,4.73,4.73,0,0,0-2.92-1,4.93,4.93,0,0,0-4.88,5s0,.07,0,.11a4.75,4.75,0,0,0-2.06-.47,4.93,4.93,0,0,0-4.87,4.83,4.79,4.79,0,0,0-3.61-1.65,4.94,4.94,0,0,0-4.88,5H160V290a4.93,4.93,0,0,0-4.88-5Z"/>
                <path class="cls-25" d="M40,279.9a3.44,3.44,0,0,0-1.62.4c0-.11,0-.21,0-.31a5.78,5.78,0,0,0-5.71-5.84,5.67,5.67,0,0,0-1.71.27,3.56,3.56,0,0,0-7.11,0,4.89,4.89,0,0,0-2-.44,5.1,5.1,0,0,0-5,5.15c0,.15,0,.29,0,.43l-.38,0a3.66,3.66,0,0,0-.62,7.24c1.18,1.54,6.08,2.7,12,2.7,5.4,0,10-1,11.59-2.34a3.36,3.36,0,0,0,.63.06,3.65,3.65,0,0,0,0-7.29Z"/>
                <rect class="cls-11" x="1.29" y="321.19" width="24.91" height="25.22"/>
                <polygon class="cls-42" points="101.66 321.19 101.61 321.33 100.95 323.23 100.33 325.02 100.03 325.94 98.28 331.02 98.14 331.43 97.27 333.99 95.42 339.38 93.7 344.35 93 346.41 63.77 346.41 63.77 321.19 101.66 321.19"/>
                <polygon class="cls-25" points="64.59 300.07 70.52 299.2 84.34 299.2 84.34 267.37 64.59 267.37 64.59 300.07"/>
                <polygon class="cls-42" points="24.82 283.81 58.67 283.81 64.59 267.37 30.74 267.37 24.82 283.81"/>
                <polygon class="cls-25" points="54.02 283.81 56.1 283.81 62.03 267.37 59.95 267.37 54.02 283.81"/>
                <polygon class="cls-25" points="27.26 283.81 29.34 283.81 35.27 267.37 33.19 267.37 27.26 283.81"/>
                <polygon class="cls-25" points="48.67 283.81 50.75 283.81 56.68 267.37 54.6 267.37 48.67 283.81"/>
                <polygon class="cls-25" points="43.32 283.81 45.4 283.81 51.33 267.37 49.24 267.37 43.32 283.81"/>
                <polygon class="cls-25" points="37.97 283.81 40.05 283.81 45.98 267.37 43.89 267.37 37.97 283.81"/>
                <polygon class="cls-25" points="32.61 283.81 34.7 283.81 40.63 267.37 38.54 267.37 32.61 283.81"/>
                <polygon class="cls-12" points="58.63 283.81 58.63 316.46 70.65 316.46 70.65 283.81 64.64 267.37 58.63 283.81"/>
                <rect class="cls-10" x="24.82" y="283.81" width="33.85" height="32.52"/>
                <polygon class="cls-10" points="124.64 278.16 139.24 278.16 131.94 270.7 124.64 278.16"/>
                <polygon class="cls-25" points="101.66 278.16 124.64 278.16 131.94 270.7 108.96 270.7 101.66 278.16"/>
                <rect class="cls-10" x="124.64" y="278.16" width="14.6" height="21.04"/>
                <rect class="cls-42" x="101.66" y="278.16" width="22.98" height="21.04"/>
                <polygon class="cls-11" points="9.41 301.3 1.4 301.3 1.4 321.33 9.5 321.33 10.59 321.33 26.3 321.33 26.3 290.71 9.41 290.71 9.41 301.3"/>
                <polygon class="cls-25" points="17.42 283.81 17.42 290.71 32.3 290.71 32.3 283.81 24.86 276.07 17.42 283.81"/>
                <polygon class="cls-11" points="24.88 276.07 32.22 283.81 49.46 283.81 42.13 276.07 24.88 276.07"/>
                <polygon class="cls-42" points="32.3 290.71 26.3 290.71 26.3 321.33 49.48 321.33 49.48 290.7 49.48 283.84 32.3 283.84 32.3 290.71"/>
                <rect class="cls-25" x="45.16" y="286.22" width="2.33" height="3.08"/>
                <rect class="cls-25" x="39.5" y="286.22" width="2.33" height="3.08"/>
                <rect class="cls-25" x="33.83" y="286.22" width="2.33" height="3.08"/>
                <rect class="cls-25" x="45.16" y="295.13" width="2.33" height="3.08"/>
                <rect class="cls-25" x="39.5" y="295.13" width="2.33" height="3.08"/>
                <rect class="cls-25" x="33.83" y="295.13" width="2.33" height="3.08"/>
                <rect class="cls-25" x="28.17" y="295.13" width="2.33" height="3.08"/>
                <rect class="cls-25" x="45.16" y="304.03" width="2.33" height="3.08"/>
                <rect class="cls-25" x="39.5" y="304.03" width="2.33" height="3.08"/>
                <rect class="cls-25" x="33.83" y="304.03" width="2.33" height="3.08"/>
                <rect class="cls-25" x="28.17" y="304.03" width="2.33" height="3.08"/>
                <rect class="cls-25" x="21.07" y="295.13" width="2.33" height="3.08"/>
                <rect class="cls-25" x="15.41" y="295.13" width="2.33" height="3.08"/>
                <rect class="cls-25" x="21.07" y="304.03" width="2.33" height="3.08"/>
                <rect class="cls-25" x="15.41" y="304.03" width="2.33" height="3.08"/>
                <rect class="cls-25" x="9.75" y="304.03" width="2.33" height="3.08"/>
                <rect class="cls-25" x="4.08" y="304.03" width="2.33" height="3.08"/>
                <rect class="cls-25" x="21.07" y="312.94" width="2.33" height="3.08"/>
                <rect class="cls-25" x="15.41" y="312.94" width="2.33" height="3.08"/>
                <rect class="cls-25" x="9.75" y="312.94" width="2.33" height="3.08"/>
                <rect class="cls-25" x="4.08" y="312.94" width="2.33" height="3.08"/>
                <polygon class="cls-25" points="114.12 288.01 126.59 299.2 159.95 299.2 147.49 288.01 114.12 288.01"/>
                <polygon class="cls-12" points="101.56 299.2 101.56 321.33 126.46 321.33 126.46 299.2 114.01 288.01 101.56 299.2"/>
                <polygon class="cls-11" points="137.1 299.2 143.27 293.66 130.94 293.66 137.1 299.2"/>
                <polygon class="cls-10" points="143.27 293.76 137.1 299.29 126.46 299.29 126.46 321.33 159.94 321.33 159.94 299.29 149.44 299.29 143.27 293.76"/>
                <rect class="cls-11" x="120.61" y="303.93" width="1.23" height="1.25"/>
                <rect class="cls-11" x="120.61" y="307.69" width="1.23" height="1.25"/>
                <rect class="cls-11" x="120.61" y="311.45" width="1.23" height="1.25"/>
                <rect class="cls-11" x="120.61" y="315.2" width="1.23" height="1.25"/>
                <rect class="cls-11" x="116.94" y="303.93" width="1.23" height="1.25"/>
                <rect class="cls-11" x="116.94" y="307.69" width="1.23" height="1.25"/>
                <rect class="cls-11" x="116.94" y="311.45" width="1.23" height="1.25"/>
                <rect class="cls-11" x="116.94" y="315.2" width="1.23" height="1.25"/>
                <rect class="cls-11" x="113.26" y="303.93" width="1.23" height="1.25"/>
                <rect class="cls-11" x="113.26" y="307.69" width="1.23" height="1.25"/>
                <rect class="cls-11" x="113.26" y="311.45" width="1.23" height="1.25"/>
                <rect class="cls-11" x="113.26" y="315.2" width="1.23" height="1.25"/>
                <rect class="cls-11" x="109.59" y="303.93" width="1.23" height="1.25"/>
                <rect class="cls-11" x="109.59" y="307.69" width="1.23" height="1.25"/>
                <rect class="cls-11" x="109.59" y="311.45" width="1.23" height="1.25"/>
                <rect class="cls-11" x="109.59" y="315.2" width="1.23" height="1.25"/>
                <rect class="cls-11" x="105.92" y="303.93" width="1.23" height="1.25"/>
                <rect class="cls-11" x="105.92" y="307.69" width="1.23" height="1.25"/>
                <rect class="cls-11" x="105.92" y="311.45" width="1.23" height="1.25"/>
                <rect class="cls-11" x="105.92" y="315.2" width="1.23" height="1.25"/>
                <polygon class="cls-12" points="64.59 250.5 75.82 250.5 84.34 238.15 73.11 238.15 64.59 250.5"/>
                <rect class="cls-42" x="64.59" y="250.5" width="11.23" height="16.87"/>
                <polygon class="cls-11" points="75.8 267.24 84.39 267.24 84.39 250.5 84.39 238.15 75.8 250.5 75.8 267.24"/>
                <rect class="cls-42" x="79.42" y="250.42" width="1.32" height="5.15"/>
                <rect class="cls-42" x="79.42" y="258.7" width="1.32" height="5.15"/>
                <rect class="cls-42" x="155.21" y="301.8" width="1.57" height="4.31"/>
                <rect class="cls-42" x="148.82" y="301.8" width="1.57" height="4.31"/>
                <rect class="cls-42" x="142.44" y="301.8" width="1.57" height="4.31"/>
                <rect class="cls-42" x="136.05" y="301.8" width="1.57" height="4.31"/>
                <rect class="cls-42" x="129.66" y="301.8" width="1.57" height="4.31"/>
                <rect class="cls-42" x="155.21" y="309.4" width="1.57" height="4.31"/>
                <rect class="cls-42" x="148.82" y="309.4" width="1.57" height="4.31"/>
                <rect class="cls-42" x="142.44" y="309.4" width="1.57" height="4.31"/>
                <rect class="cls-42" x="136.05" y="309.4" width="1.57" height="4.31"/>
                <rect class="cls-42" x="129.66" y="309.4" width="1.57" height="4.31"/>
                <polygon class="cls-25" points="84.34 267.37 93 260.34 93 249.48 84.34 256.51 84.34 267.37"/>
                <polygon class="cls-42" points="93 260.34 101.66 267.37 101.66 256.51 93 249.48 93 260.34"/>
                <polygon class="cls-11" points="84.39 267.37 84.39 299.29 101.56 299.29 101.56 267.37 92.97 260.34 84.39 267.37"/>
                <rect class="cls-25" x="98.27" y="271.81" width="0.96" height="0.98"/>
                <rect class="cls-25" x="98.27" y="274.75" width="0.96" height="0.98"/>
                <rect class="cls-25" x="98.27" y="277.69" width="0.96" height="0.98"/>
                <rect class="cls-25" x="95.39" y="268.88" width="0.96" height="0.98"/>
                <rect class="cls-25" x="95.39" y="271.81" width="0.96" height="0.98"/>
                <rect class="cls-25" x="95.39" y="274.75" width="0.96" height="0.98"/>
                <rect class="cls-25" x="95.39" y="277.69" width="0.96" height="0.98"/>
                <rect class="cls-25" x="92.52" y="265.94" width="0.96" height="0.98"/>
                <rect class="cls-25" x="92.52" y="268.88" width="0.96" height="0.98"/>
                <rect class="cls-25" x="92.52" y="271.81" width="0.96" height="0.98"/>
                <rect class="cls-25" x="92.52" y="274.75" width="0.96" height="0.98"/>
                <rect class="cls-25" x="92.52" y="277.69" width="0.96" height="0.98"/>
                <rect class="cls-25" x="89.65" y="268.88" width="0.96" height="0.98"/>
                <rect class="cls-25" x="89.65" y="271.81" width="0.96" height="0.98"/>
                <rect class="cls-25" x="89.65" y="274.75" width="0.96" height="0.98"/>
                <rect class="cls-25" x="89.65" y="277.69" width="0.96" height="0.98"/>
                <rect class="cls-25" x="86.77" y="271.81" width="0.96" height="0.98"/>
                <rect class="cls-25" x="86.77" y="274.75" width="0.96" height="0.98"/>
                <rect class="cls-25" x="86.77" y="277.69" width="0.96" height="0.98"/>
                <rect class="cls-25" x="98.27" y="280.63" width="0.96" height="0.98"/>
                <rect class="cls-25" x="95.39" y="280.63" width="0.96" height="0.98"/>
                <rect class="cls-25" x="92.52" y="280.63" width="0.96" height="0.98"/>
                <rect class="cls-25" x="89.65" y="280.63" width="0.96" height="0.98"/>
                <rect class="cls-25" x="86.77" y="280.63" width="0.96" height="0.98"/>
                <polygon class="cls-25" points="49.22 321.19 101.66 321.19 101.66 299.2 70.52 299.2 49.22 321.19"/>
                <path class="cls-11" d="M68.5,302.9c0,6.68,4.8,12.1,4.8,12.1s4.81-5.42,4.81-12.1-4.81-12.09-4.81-12.09-4.8,5.41-4.8,12.09Z"/>
                <rect class="cls-11" x="73.08" y="300.78" width="0.46" height="16.05"/>
                <polygon class="cls-11" points="73.3 305.21 71.69 303.56 71.37 303.88 73.3 305.86 75.24 303.88 74.91 303.56 73.3 305.21"/>
                <path class="cls-12" d="M83.56,303.33c0,5.9,4.24,10.69,4.24,10.69s4.25-4.79,4.25-10.69-4.25-10.68-4.25-10.68-4.24,4.78-4.24,10.68Z"/>
                <path class="cls-12" d="M76,298.48c0,6.68,4.8,12.1,4.8,12.1s4.81-5.42,4.81-12.1-4.81-12.09-4.81-12.09S76,291.8,76,298.48Z"/>
                <rect class="cls-11" x="80.61" y="297.01" width="0.46" height="20.31"/>
                <rect class="cls-12" x="87.58" y="301.43" width="0.46" height="15.56"/>
                <path class="cls-12" d="M18.41,334.41a13.1,13.1,0,0,0,3.06,7.71,11.22,11.22,0,0,0,0-15.42,13.1,13.1,0,0,0-3.06,7.71Z"/>
                <rect class="cls-12" x="21.25" y="333.47" width="0.46" height="12.94"/>
                <path class="cls-12" d="M10.74,334.41a13.1,13.1,0,0,0,3.06,7.71,11.22,11.22,0,0,0,0-15.42,13.1,13.1,0,0,0-3.06,7.71Z"/>
                <rect class="cls-12" x="13.58" y="333.47" width="0.46" height="12.94"/>
                <path class="cls-42" d="M3.07,334.41a13.08,13.08,0,0,0,3.07,7.71,13.1,13.1,0,0,0,3.06-7.71,13.1,13.1,0,0,0-3.06-7.71,13.08,13.08,0,0,0-3.07,7.71Z"/>
                <rect class="cls-12" x="5.91" y="333.47" width="0.46" height="12.94"/>
                <path class="cls-42" d="M89.49,310.52c-9.59,6.42-12.24,1.72-22.84,1.72-7.45,0-17.19,8.95-17.19,8.95h52.2V308s-5.21-2.17-12.17,2.5Z"/>
                <path class="cls-12" d="M93.41,326.19c-3.79.35-3.16-4.08-9-3.63-3.57.28-4.43,2.16-7.79-.08s-7.09-6-14-4.84C55,318.86,43.34,342.7,43.34,342.7l12.34-1.48L101.3,330.7l4-4.72c-4.57-6.15-8.47-.11-11.86.21Z"/>
                <path class="cls-12" d="M217.8,294c-6.07,1.83-7-.72-14.59.36-5.84.82-7.47,5.25-12.68,4.23-5.44-1.06-12.65-3.43-20.34.57-8.45,4.38-6.3,18.23-6.3,18.23l14,3.86h57.18V289.92c-9-3.57-13.06,2.85-17.27,4.12Z"/>
                <path class="cls-25" d="M94.94,316.59l-4.37,18.12,11.29-1.22-4.12-16.9a1.44,1.44,0,0,0-2.8,0Z"/>
                <rect class="cls-12" x="96.11" y="319.85" width="0.46" height="10.68"/>
                <polygon class="cls-12" points="96.11 324.49 96.11 326.41 94.34 324.61 94.01 324.93 96.56 327.53 96.56 324.62 98.06 322.25 97.67 322.01 96.11 324.49"/>
                <path class="cls-25" d="M88.21,316,83.84,334.1l11.29-1.23L91,316a1.43,1.43,0,0,0-2.8,0Z"/>
                <rect class="cls-12" x="89.38" y="319.24" width="0.46" height="15.35"/>
                <polygon class="cls-12" points="89.38 323.87 89.38 325.8 87.61 323.99 87.28 324.31 89.83 326.92 89.83 324 91.33 321.64 90.95 321.39 89.38 323.87"/>
                <path class="cls-12" d="M90.77,330.42c-2.25,2.94-3.69.16-6.49,1.31-3.69,1.51-6.65,9.58-11,8.76s-7-1.56-7-1.56L65,343.35,97.9,344.5l4.8-19.24c-3.92-1.23-9.69,2.21-11.93,5.16Z"/>
                <path class="cls-11" d="M98.3,343.35l-.13.08-1.77,1-3.4,2H26.2l5.26-6.87h0c.07-.06.4-.33,1-.76s1.64-1.27,2.85-2.18l0,0c1.35-1,3-2.23,4.79-3.52l.52-.37c.9-.64,1.84-1.3,2.81-2l.5-.35c1.71-1.15,3.49-2.31,5.26-3.4h0c2-1.21,3.94-2.33,5.79-3.27a24.3,24.3,0,0,1,6.89-2.51,5.54,5.54,0,0,1,1.91,0h0c6.88,1.37,6.37,5.7,8.72,8.9s3.84,1.8,7.29,2.78a8.54,8.54,0,0,1,2,.81,5.22,5.22,0,0,1,1.45,1.19c1.52,1.77,1.31,3.87,3.87,4.55,1.62.43,3.83-.4,5.91-.46a5.09,5.09,0,0,1,2.42.42c1.14.52,2.13,1.64,2.82,3.78Z"/>
                <polygon class="cls-11" points="92.99 331.02 109.39 331.02 118.05 321.19 101.66 321.19 92.99 331.02"/>
                <rect class="cls-42" x="92.99" y="331.02" width="16.39" height="15.39"/>
                <polygon class="cls-10" points="109.29 346.41 118.16 346.41 118.16 331.02 118.16 321.19 109.29 331.02 109.29 346.41"/>
                <rect class="cls-25" x="99.36" y="334.87" width="3.52" height="2.47"/>
                <rect class="cls-25" x="99.36" y="340.53" width="3.52" height="2.47"/>
                <polygon class="cls-25" points="26.19 321.19 49.18 321.19 56.48 313.73 33.49 313.73 26.19 321.19"/>
                <polygon class="cls-10" points="63.78 321.19 63.78 346.41 49.19 346.41 49.19 321.19 49.48 320.89 52.28 318.02 53.3 316.97 53.94 316.33 53.95 316.33 56.48 313.73 57.85 315.13 58.63 315.93 58.66 315.96 59.16 316.46 60.88 318.23 63.78 321.19"/>
                <rect class="cls-42" x="26.19" y="321.19" width="22.99" height="25.22"/>
                <rect class="cls-11" x="45.83" y="323.88" width="0.96" height="0.98"/>
                <rect class="cls-11" x="45.83" y="326.81" width="0.96" height="0.98"/>
                <rect class="cls-11" x="45.83" y="329.75" width="0.96" height="0.98"/>
                <rect class="cls-11" x="45.83" y="332.69" width="0.96" height="0.98"/>
                <rect class="cls-11" x="45.83" y="335.63" width="0.96" height="0.98"/>
                <rect class="cls-11" x="42.95" y="323.88" width="0.96" height="0.98"/>
                <rect class="cls-11" x="42.95" y="326.81" width="0.96" height="0.98"/>
                <rect class="cls-11" x="42.95" y="329.75" width="0.96" height="0.98"/>
                <rect class="cls-11" x="42.95" y="332.69" width="0.96" height="0.98"/>
                <rect class="cls-11" x="42.95" y="335.63" width="0.96" height="0.98"/>
                <rect class="cls-11" x="40.08" y="323.88" width="0.96" height="0.98"/>
                <rect class="cls-11" x="40.08" y="326.81" width="0.96" height="0.98"/>
                <rect class="cls-11" x="40.08" y="329.75" width="0.96" height="0.98"/>
                <rect class="cls-11" x="40.08" y="332.69" width="0.96" height="0.98"/>
                <rect class="cls-11" x="40.08" y="335.63" width="0.96" height="0.98"/>
                <rect class="cls-11" x="37.21" y="323.88" width="0.96" height="0.98"/>
                <rect class="cls-11" x="37.21" y="326.81" width="0.96" height="0.98"/>
                <rect class="cls-11" x="37.21" y="329.75" width="0.96" height="0.98"/>
                <rect class="cls-11" x="37.21" y="332.69" width="0.96" height="0.98"/>
                <rect class="cls-11" x="37.21" y="335.63" width="0.96" height="0.98"/>
                <rect class="cls-11" x="34.33" y="323.88" width="0.96" height="0.98"/>
                <rect class="cls-11" x="34.33" y="326.81" width="0.96" height="0.98"/>
                <rect class="cls-11" x="34.33" y="329.75" width="0.96" height="0.98"/>
                <rect class="cls-11" x="34.33" y="332.69" width="0.96" height="0.98"/>
                <rect class="cls-11" x="34.33" y="335.63" width="0.96" height="0.98"/>
                <rect class="cls-11" x="31.46" y="323.88" width="0.96" height="0.98"/>
                <rect class="cls-11" x="31.46" y="326.81" width="0.96" height="0.98"/>
                <rect class="cls-11" x="31.46" y="329.75" width="0.96" height="0.98"/>
                <rect class="cls-11" x="31.46" y="332.69" width="0.96" height="0.98"/>
                <rect class="cls-11" x="31.46" y="335.63" width="0.96" height="0.98"/>
                <rect class="cls-11" x="28.59" y="323.88" width="0.96" height="0.98"/>
                <rect class="cls-11" x="28.59" y="326.81" width="0.96" height="0.98"/>
                <rect class="cls-11" x="28.59" y="329.75" width="0.96" height="0.98"/>
                <rect class="cls-11" x="28.59" y="332.69" width="0.96" height="0.98"/>
                <rect class="cls-11" x="28.59" y="335.63" width="0.96" height="0.98"/>
                <rect class="cls-11" x="45.83" y="338.56" width="0.96" height="0.98"/>
                <rect class="cls-11" x="42.95" y="338.56" width="0.96" height="0.98"/>
                <rect class="cls-11" x="40.08" y="338.56" width="0.96" height="0.98"/>
                <rect class="cls-11" x="37.21" y="338.56" width="0.96" height="0.98"/>
                <rect class="cls-11" x="34.33" y="338.56" width="0.96" height="0.98"/>
                <rect class="cls-11" x="31.46" y="338.56" width="0.96" height="0.98"/>
                <rect class="cls-11" x="28.59" y="338.56" width="0.96" height="0.98"/>
                <polygon class="cls-42" points="28.08 321.19 28.81 321.19 36.1 313.73 35.38 313.73 28.08 321.19"/>
                <polygon class="cls-42" points="31.16 321.19 31.89 321.19 39.19 313.73 38.46 313.73 31.16 321.19"/>
                <polygon class="cls-42" points="34.24 321.19 34.97 321.19 42.27 313.73 41.54 313.73 34.24 321.19"/>
                <polygon class="cls-42" points="37.32 321.19 38.05 321.19 45.35 313.73 44.62 313.73 37.32 321.19"/>
                <polygon class="cls-42" points="40.4 321.19 41.13 321.19 48.43 313.73 47.7 313.73 40.4 321.19"/>
                <polygon class="cls-42" points="43.48 321.19 44.21 321.19 51.51 313.73 50.78 313.73 43.48 321.19"/>
                <polygon class="cls-42" points="46.56 321.19 47.29 321.19 54.59 313.73 53.86 313.73 46.56 321.19"/>
                <rect class="cls-25" x="118.05" y="321.19" width="41.9" height="25.22"/>
                <path class="cls-12" d="M148.81,324.87c0,5.74,4.13,10.39,4.13,10.39s4.12-4.65,4.12-10.39-4.12-10.38-4.12-10.38-4.13,4.65-4.13,10.38Z"/>
                <rect class="cls-10" x="152.71" y="323.05" width="0.46" height="13.78"/>
                <path class="cls-12" d="M130.91,326.1c0,5.74,4.13,10.38,4.13,10.38s4.12-4.64,4.12-10.38S135,315.72,135,315.72s-4.13,4.65-4.13,10.38Z"/>
                <rect class="cls-11" x="134.81" y="325.87" width="0.46" height="13.78"/>
                <path class="cls-42" d="M120.75,325.3c0,7.54,5.9,13.64,5.9,13.64s5.9-6.1,5.9-13.64-5.9-13.63-5.9-13.63-5.9,6.1-5.9,13.63Z"/>
                <rect class="cls-10" x="126.43" y="322.9" width="0.46" height="18.09"/>
                <path class="cls-12" d="M148.29,332.2c-6.89.92-8,2.79-10.35,5s-3.85,1.22-7.29,1.89c-5.68,1.1-3.61,3.79-7.29,4.45-1.47.27-3.41-.17-5.31-.29v3.2H160v-11.9a20.21,20.21,0,0,0-11.66-2.31Z"/>
                <path class="cls-11" d="M60.45,255.27a4,4,0,0,0-2.12.6,4.12,4.12,0,0,0-8-1.24,4.07,4.07,0,0,0-2.76-1.08,4.17,4.17,0,0,0-4.12,3.8A4.09,4.09,0,0,0,41,256.5a4.18,4.18,0,0,0-4.14,4.23v.1a4,4,0,0,0-1.75-.4,4.19,4.19,0,0,0-4.14,4.1,4.06,4.06,0,0,0-3.07-1.4,4.19,4.19,0,0,0-4.14,4.24H64.59v-7.86a4.19,4.19,0,0,0-4.14-4.24Z"/>
                <path class="cls-11" d="M199,303.8c-12.85,0-12.25,2.87-23.88-3.55-8.45-4.67-15.19-1.05-15.19-1.05v22h63.31S208.06,303.8,199,303.8Z"/>
                <rect class="cls-42" x="224.32" y="321.26" width="41.59" height="25.15"/>
                <rect class="cls-25" x="235.07" y="289.92" width="13.25" height="4.81"/>
                <polygon class="cls-44" points="235.07 289.92 248.32 289.92 254.21 284.16 240.96 284.16 235.07 289.92"/>
                <rect class="cls-25" x="229.17" y="300.48" width="13.25" height="20.76"/>
                <polygon class="cls-44" points="229.17 300.48 242.42 300.48 248.31 294.73 235.06 294.73 229.17 300.48"/>
                <polygon class="cls-45" points="248.32 289.92 260.11 289.92 254.21 284.16 248.32 289.92"/>
                <polygon class="cls-45" points="260.1 289.85 248.37 289.85 248.37 294.87 242.36 300.48 242.36 321.33 248.42 321.33 260.15 321.33 265.82 321.33 265.82 300.48 260.1 294.79 260.1 289.85"/>
                <rect class="cls-12" x="251.07" y="293.76" width="1.24" height="2.45"/>
                <rect class="cls-12" x="256.12" y="293.76" width="1.24" height="2.45"/>
                <rect class="cls-12" x="251.07" y="298.08" width="1.24" height="2.45"/>
                <rect class="cls-12" x="256.12" y="298.08" width="1.24" height="2.45"/>
                <rect class="cls-12" x="251.07" y="302.4" width="1.24" height="2.45"/>
                <rect class="cls-12" x="256.12" y="302.4" width="1.24" height="2.45"/>
                <rect class="cls-12" x="251.07" y="306.73" width="1.24" height="2.45"/>
                <rect class="cls-12" x="256.12" y="306.73" width="1.24" height="2.45"/>
                <rect class="cls-12" x="251.07" y="311.05" width="1.24" height="2.45"/>
                <rect class="cls-12" x="256.12" y="311.05" width="1.24" height="2.45"/>
                <rect class="cls-12" x="251.07" y="315.38" width="1.24" height="2.45"/>
                <rect class="cls-12" x="256.12" y="315.38" width="1.24" height="2.45"/>
                <rect class="cls-12" x="246.03" y="302.4" width="1.24" height="2.45"/>
                <rect class="cls-12" x="246.03" y="306.73" width="1.24" height="2.45"/>
                <rect class="cls-12" x="246.03" y="311.05" width="1.24" height="2.45"/>
                <rect class="cls-12" x="246.03" y="315.38" width="1.24" height="2.45"/>
                <rect class="cls-12" x="261.16" y="302.4" width="1.24" height="2.45"/>
                <rect class="cls-12" x="261.16" y="306.73" width="1.24" height="2.45"/>
                <rect class="cls-12" x="261.16" y="311.05" width="1.24" height="2.45"/>
                <rect class="cls-12" x="261.16" y="315.38" width="1.24" height="2.45"/>
                <rect class="cls-10" x="244.82" y="328.9" width="0.46" height="17.52"/>
                <rect class="cls-10" x="244.23" y="333.09" width="0.46" height="1.84" transform="translate(-157.52 235.33) rotate(-40.01)"/>
                <rect class="cls-10" x="244.37" y="333.03" width="3.8" height="0.46" transform="translate(-167.31 307.57) rotate(-49.98)"/>
                <rect class="cls-10" x="244.12" y="335.99" width="5.21" height="0.46" transform="translate(-169.42 308.97) rotate(-49.98)"/>
                <path class="cls-25" d="M235.82,334.46a1.28,1.28,0,0,1-.36-1.3c.32-1.15.72-3,.09-3.69a1.53,1.53,0,0,0-.84-.44,1.2,1.2,0,0,1-.85-1.22h0c0-2.06-1-3.73-2.21-3.73s-2.21,1.67-2.21,3.73h0a1.19,1.19,0,0,1-.86,1.22,1.5,1.5,0,0,0-.83.44c-.63.65-.24,2.54.08,3.69a1.26,1.26,0,0,1-.36,1.3,2.11,2.11,0,0,0-.77,1.3c-.27,1.42,1.81,4.51,5,7.29,3.13-2.78,5.21-5.87,4.95-7.29a2.17,2.17,0,0,0-.78-1.3Z"/>
                <polygon class="cls-10" points="231.64 331.19 230 329.98 229.73 330.34 231.64 331.75 233.51 330.37 233.24 330 231.64 331.19"/>
                <polygon class="cls-10" points="231.66 338.38 228.74 336.22 228.46 336.58 231.66 338.95 234.87 336.58 234.6 336.22 231.66 338.38"/>
                <polygon class="cls-10" points="231.64 334.58 228.88 332.54 228.61 332.9 231.64 335.15 234.62 332.95 234.35 332.59 231.64 334.58"/>
                <rect class="cls-10" x="231.42" y="327" width="0.46" height="19.41"/>
                <path class="cls-12" d="M262.22,328.46a4.4,4.4,0,1,0-8.38,1.85,4.23,4.23,0,0,1,0,3.58,4.39,4.39,0,1,0,8,0,4.23,4.23,0,0,1,0-3.58,4.39,4.39,0,0,0,.42-1.88Z"/>
                <rect class="cls-10" x="257.66" y="330.31" width="0.46" height="9.99"/>
                <rect class="cls-10" x="256.64" y="332.01" width="0.46" height="2.9" transform="translate(-160.66 280.11) rotate(-45.11)"/>
                <rect class="cls-10" x="257.25" y="336.24" width="4.39" height="0.46" transform="translate(-161.84 281.31) rotate(-44.91)"/>
                <rect class="cls-10" x="257.66" y="328.13" width="0.46" height="18.28"/>
                <rect class="cls-10" x="256.64" y="332.01" width="0.46" height="2.9" transform="translate(-160.66 280.11) rotate(-45.11)"/>
                <rect class="cls-10" x="257.47" y="333.23" width="2.9" height="0.46" transform="translate(-159.87 280.06) rotate(-44.91)"/>
                <rect class="cls-10" x="256.97" y="329.86" width="0.46" height="1.95" transform="translate(-158.71 279.67) rotate(-45.12)"/>
                <rect class="cls-10" x="257.61" y="330.6" width="1.95" height="0.46" transform="translate(-158.11 279.05) rotate(-44.91)"/>
                <rect class="cls-10" x="257.25" y="336.24" width="4.39" height="0.46" transform="translate(-161.84 281.31) rotate(-44.91)"/>
                <rect class="cls-10" x="256.11" y="334.28" width="0.46" height="4.39" transform="translate(-162.96 280.68) rotate(-45.12)"/>
                <path class="cls-25" d="M237,317.41a6.66,6.66,0,0,0-2.52.49c0-.13,0-.25,0-.38,0-3.89-4-7-8.86-7a11,11,0,0,0-2.66.32c-.21-2.28-2.6-4.07-5.51-4.07v14.61h25c-.31-2.21-2.65-3.92-5.5-3.92Z"/>
                <polygon class="cls-46" points="159.95 322.68 159.95 346.41 210.49 346.41 210.49 321.19 159.95 321.19 159.95 322.68"/>
                <polygon class="cls-47" points="159.95 321.19 210.49 321.19 217.4 306.64 166.85 306.64 159.95 321.19"/>
                <polygon class="cls-48" points="217.45 306.71 210.59 321.19 210.59 346.51 224.33 346.51 224.33 321.26 224.33 321.33 224.3 321.33 217.45 306.71"/>
                <rect class="cls-12" x="187.42" y="321.23" width="10.3" height="25.18"/>
                <polygon class="cls-46" points="180.52 314.18 187.42 321.19 197.72 321.19 190.81 314.18 180.52 314.18"/>
                <polygon class="cls-45" points="180.52 314.18 173.61 321.24 173.84 321.33 173.68 321.33 173.68 346.51 187.41 346.51 187.41 321.33 187.19 321.33 187.42 321.24 180.52 314.18"/>
                <path class="cls-48" d="M217.41,326.23A1.37,1.37,0,0,0,216,327.6v2.21h2.75V327.6a1.37,1.37,0,0,0-1.37-1.37Z"/>
                <path class="cls-48" d="M204.29,326.23a1.37,1.37,0,0,0-1.38,1.37v2.21h2.75V327.6a1.37,1.37,0,0,0-1.37-1.37Z"/>
                <path class="cls-48" d="M180.56,326.23h0a1.37,1.37,0,0,0-1.38,1.37v2.21h2.75V327.6a1.37,1.37,0,0,0-1.37-1.37Z"/>
                <path class="cls-48" d="M167.25,326.23a1.37,1.37,0,0,0-1.37,1.37v2.21h2.75V327.6a1.37,1.37,0,0,0-1.38-1.37Z"/>
                <path class="cls-48" d="M192.87,326.23a1.37,1.37,0,0,0-1.38,1.37v2.21h2.75V327.6a1.37,1.37,0,0,0-1.37-1.37Z"/>
                <path class="cls-48" d="M217.41,332.31a1.38,1.38,0,0,0-1.38,1.38v2.2h2.75v-2.2a1.37,1.37,0,0,0-1.37-1.38Z"/>
                <path class="cls-48" d="M204.29,332.31a1.38,1.38,0,0,0-1.38,1.38v2.2h2.75v-2.2a1.37,1.37,0,0,0-1.37-1.38Z"/>
                <path class="cls-48" d="M180.56,332.31h0a1.38,1.38,0,0,0-1.38,1.38v2.2h2.75v-2.2a1.37,1.37,0,0,0-1.37-1.38Z"/>
                <path class="cls-48" d="M167.25,332.31a1.37,1.37,0,0,0-1.37,1.38v2.2h2.75v-2.2a1.38,1.38,0,0,0-1.38-1.38Z"/>
                <path class="cls-48" d="M192.87,332.31a1.38,1.38,0,0,0-1.38,1.38v2.2h2.75v-2.2a1.37,1.37,0,0,0-1.37-1.38Z"/>
                <path class="cls-48" d="M217.41,338.4a1.38,1.38,0,0,0-1.38,1.38V342h2.75v-2.2a1.37,1.37,0,0,0-1.37-1.38Z"/>
                <path class="cls-48" d="M204.29,338.4a1.38,1.38,0,0,0-1.38,1.38V342h2.75v-2.2a1.37,1.37,0,0,0-1.37-1.38Z"/>
                <path class="cls-48" d="M180.56,338.4h0a1.38,1.38,0,0,0-1.38,1.38V342h2.75v-2.2a1.37,1.37,0,0,0-1.37-1.38Z"/>
                <path class="cls-48" d="M167.25,338.4a1.37,1.37,0,0,0-1.37,1.38V342h2.75v-2.2a1.38,1.38,0,0,0-1.38-1.38Z"/>
                <path class="cls-48" d="M192.87,338.4a1.38,1.38,0,0,0-1.38,1.38V342h2.75v-2.2a1.37,1.37,0,0,0-1.37-1.38Z"/>
              </g>
            </svg>