<svg id="Layer_1" data-name="Layer 1" xmlns="http://www.w3.org/2000/svg" viewBox="0 0 542.05 273">
  <defs>
    <style>
      .class-1 {
        fill: #27a74a;
      }

      .class-16, .class-2 {
        fill: #fbd900;
      }

      .class-10, .class-19, .class-2, .class-20, .class-21, .class-3, .class-9 {
        fill-rule: evenodd;
      }

      .class-3, .class-5 {
        fill: #57bd81;
      }

      .class-4 {
        fill: #1f8842;
      }

      .class-6, .class-9 {
        fill: #31a5dd;
      }

      .class-7 {
        fill: #a9deed;
      }

      .class-10, .class-8 {
        fill: #5196d1;
      }

      .class-11 {
        fill: #d5c9e3;
      }

      .class-12 {
        fill: #716bb1;
      }

      .class-13 {
        fill: #7773b6;
      }

      .class-14 {
        fill: #625ca9;
      }

      .class-15, .class-20 {
        fill: #fac212;
      }

      .class-17, .class-21 {
        fill: #e8a723;
      }

      .class-18, .class-19 {
        fill: #fedc31;
      }
    </style>
  </defs>
  <title>pineCity - 2</title>
  <g id="cityBuilds">
    <g id="greenBuilds">
      <g id="phase4">
        <polygon class="class-1" points="470.55 113.75 496.45 113.75 516.15 86.55 490.25 86.55 470.55 113.75"/>
        <polygon class="class-1" points="483.15 101.15 509.05 101.15 528.75 73.85 502.85 73.85 483.15 101.15"/>
        <polygon class="class-1" points="483.15 90.15 509.05 90.15 528.75 62.95 502.85 62.95 483.15 90.15"/>
        <polygon class="class-2" points="509.15 90.35 509.05 90.35 509.05 90.25 509.15 90.35"/>
        <polygon class="class-3" points="522.25 113.65 522.25 218.35 470.55 218.35 470.55 113.65 483.15 101.15 483.15 90.35 483.25 90.25 496.15 77.65 509.05 90.25 509.05 90.25 509.05 101.25 522.25 113.65"/>
        <polygon class="class-3" points="483.15 90.25 483.25 90.25 483.15 90.35 483.15 90.25"/>
        <rect class="class-1" x="500.35" y="98.85" width="2.7" height="5.4"/>
        <rect class="class-1" x="489.25" y="98.85" width="2.7" height="5.4"/>
        <rect class="class-1" x="500.35" y="108.35" width="2.7" height="5.4"/>
        <rect class="class-1" x="489.25" y="108.35" width="2.7" height="5.4"/>
        <rect class="class-1" x="500.35" y="117.95" width="2.7" height="5.4"/>
        <rect class="class-1" x="489.25" y="117.95" width="2.7" height="5.4"/>
        <rect class="class-1" x="500.35" y="127.45" width="2.7" height="5.4"/>
        <rect class="class-1" x="489.25" y="127.45" width="2.7" height="5.4"/>
        <rect class="class-1" x="500.35" y="136.95" width="2.7" height="5.4"/>
        <rect class="class-1" x="489.25" y="136.95" width="2.7" height="5.4"/>
        <rect class="class-1" x="500.35" y="146.55" width="2.7" height="5.4"/>
        <rect class="class-1" x="489.25" y="146.55" width="2.7" height="5.4"/>
        <rect class="class-1" x="511.45" y="117.95" width="2.7" height="5.4"/>
        <rect class="class-1" x="511.45" y="127.45" width="2.7" height="5.4"/>
        <rect class="class-1" x="511.45" y="136.95" width="2.7" height="5.4"/>
        <rect class="class-1" x="511.45" y="146.55" width="2.7" height="5.4"/>
        <rect class="class-1" x="478.05" y="117.95" width="2.7" height="5.4"/>
        <rect class="class-1" x="478.05" y="127.45" width="2.7" height="5.4"/>
        <rect class="class-1" x="478.05" y="136.95" width="2.7" height="5.4"/>
        <rect class="class-1" x="478.05" y="146.55" width="2.7" height="5.4"/>
        <polygon class="class-1" points="515.85 50.35 502.85 62.95 483.15 90.15 496.15 77.65 515.85 50.35"/>
        <polygon class="class-1" points="528.85 62.95 515.85 50.35 496.15 77.65 509.05 90.15 528.85 62.95"/>
        <polygon class="class-4" points="528.85 62.95 528.85 73.95 509.05 101.25 509.05 90.15 528.85 62.95"/>
        <polygon class="class-1" points="542.05 86.55 522.35 113.65 509.05 101.25 528.85 73.95 542.05 86.55"/>
        <polygon class="class-4" points="542.05 191.05 542.05 86.55 522.35 113.65 522.35 218.35 542.05 191.05"/>
      </g>
      <g id="phase3">
        <polygon class="class-1" points="45.9 63.4 71.8 63.4 91.5 36.2 65.6 36.2 45.9 63.4"/>
        <polygon class="class-1" points="58.5 50.8 84.4 50.8 104.1 23.5 78.2 23.5 58.5 50.8"/>
        <polygon class="class-1" points="58.5 39.8 84.4 39.8 104.1 12.6 78.2 12.6 58.5 39.8"/>
        <polygon class="class-2" points="84.5 40 84.4 40 84.4 39.9 84.5 40"/>
        <polygon class="class-3" points="97.6 63.3 97.6 168 45.9 168 45.9 63.3 58.5 50.8 58.5 40 58.6 39.9 71.5 27.3 84.4 39.9 84.4 39.9 84.4 50.9 97.6 63.3"/>
        <polygon class="class-3" points="58.5 39.9 58.6 39.9 58.5 40 58.5 39.9"/>
        <rect class="class-1" x="75.7" y="48.5" width="2.7" height="5.4"/>
        <rect class="class-1" x="64.6" y="48.5" width="2.7" height="5.4"/>
        <rect class="class-1" x="75.7" y="58" width="2.7" height="5.4"/>
        <rect class="class-1" x="64.6" y="58" width="2.7" height="5.4"/>
        <rect class="class-1" x="75.7" y="67.6" width="2.7" height="5.4"/>
        <rect class="class-1" x="64.6" y="67.6" width="2.7" height="5.4"/>
        <rect class="class-1" x="75.7" y="77.1" width="2.7" height="5.4"/>
        <rect class="class-1" x="64.6" y="77.1" width="2.7" height="5.4"/>
        <rect class="class-1" x="75.7" y="86.6" width="2.7" height="5.4"/>
        <rect class="class-1" x="64.6" y="86.6" width="2.7" height="5.4"/>
        <rect class="class-1" x="75.7" y="96.2" width="2.7" height="5.4"/>
        <rect class="class-1" x="64.6" y="96.2" width="2.7" height="5.4"/>
        <rect class="class-1" x="86.8" y="67.6" width="2.7" height="5.4"/>
        <rect class="class-1" x="86.8" y="77.1" width="2.7" height="5.4"/>
        <rect class="class-1" x="86.8" y="86.6" width="2.7" height="5.4"/>
        <rect class="class-1" x="86.8" y="96.2" width="2.7" height="5.4"/>
        <rect class="class-1" x="53.4" y="67.6" width="2.7" height="5.4"/>
        <rect class="class-1" x="53.4" y="77.1" width="2.7" height="5.4"/>
        <rect class="class-1" x="53.4" y="86.6" width="2.7" height="5.4"/>
        <rect class="class-1" x="53.4" y="96.2" width="2.7" height="5.4"/>
        <polygon class="class-1" points="91.2 0 78.2 12.6 58.5 39.8 71.5 27.3 91.2 0"/>
        <polygon class="class-1" points="104.2 12.6 91.2 0 71.5 27.3 84.4 39.8 104.2 12.6"/>
        <polygon class="class-4" points="104.2 12.6 104.2 23.6 84.4 50.9 84.4 39.8 104.2 12.6"/>
        <polygon class="class-1" points="117.4 36.2 97.7 63.3 84.4 50.9 104.2 23.6 117.4 36.2"/>
        <polygon class="class-4" points="117.4 140.7 117.4 36.2 97.7 63.3 97.7 168 117.4 140.7"/>
      </g>
      <g id="phase2">
        <g>
          <polygon class="class-1" points="245.1 77.9 271 77.9 290.7 50.6 264.8 50.6 245.1 77.9"/>
          <polygon class="class-1" points="262.9 54.5 300 54.5 319.7 27.3 282.6 27.3 262.9 54.5"/>
          <polygon class="class-5" points="262.7 77.9 245.1 77.9 245.1 177.5 300 177.5 300 54.5 262.7 54.5 262.7 77.9"/>
          <rect class="class-1" x="288.5" y="64.3" width="5.1" height="6.8"/>
          <rect class="class-1" x="276" y="64.3" width="5.1" height="6.8"/>
          <rect class="class-1" x="288.5" y="83.9" width="5.1" height="6.8"/>
          <rect class="class-1" x="276" y="83.9" width="5.1" height="6.8"/>
          <rect class="class-1" x="263.5" y="83.9" width="5.1" height="6.8"/>
          <rect class="class-1" x="251" y="83.9" width="5.1" height="6.8"/>
          <rect class="class-1" x="288.5" y="103.6" width="5.1" height="6.8"/>
          <rect class="class-1" x="276" y="103.6" width="5.1" height="6.8"/>
          <rect class="class-1" x="263.5" y="103.6" width="5.1" height="6.8"/>
          <rect class="class-1" x="251" y="103.6" width="5.1" height="6.8"/>
          <polygon class="class-4" points="319.7 27.3 319.7 150.2 300 177.5 300 54.5 319.7 27.3"/>
        </g>
        <g>
          <g>
            <path class="class-1" d="M297.3,118.3s-5.7,5.6-5.7,12.6,5.7,12.6,5.7,12.6,5.7-5.6,5.7-12.6S297.3,118.3,297.3,118.3Z"/>
            <rect class="class-4" x="296.9" y="129.4" width="0.7" height="28.1"/>
          </g>
          <g>
            <path class="class-5" d="M326,118.3s-5.7,5.6-5.7,12.6,5.7,12.6,5.7,12.6,5.7-5.6,5.7-12.6S326,118.3,326,118.3Z"/>
            <rect class="class-4" x="325.6" y="129.4" width="0.7" height="28.1"/>
          </g>
          <g>
            <path class="class-5" d="M311.6,118.3s-5.7,5.6-5.7,12.6,5.7,12.6,5.7,12.6,5.7-5.6,5.7-12.6S311.6,118.3,311.6,118.3Z"/>
            <rect class="class-4" x="311.3" y="129.4" width="0.7" height="28.1"/>
          </g>
        </g>
        <g>
          <g>
            <path class="class-5" d="M378.6,126.2c0,10.9,7.8,19.8,7.8,19.8s7.9-8.8,7.9-19.8-7.9-19.8-7.9-19.8-7.8,8.9-7.8,19.8Z"/>
            <rect class="class-4" x="386.1" y="115.4" width="0.7" height="37.1"/>
          </g>
          <g>
            <path class="class-1" d="M397.3,131.4c0,10.9,7.9,19.8,7.9,19.8s7.8-8.8,7.8-19.8-7.8-19.8-7.8-19.8S397.3,120.5,397.3,131.4Z"/>
            <rect class="class-4" x="404.7" y="127.9" width="0.7" height="32.1"/>
            <polygon class="class-4" points="405.1 135.2 402.5 132.5 402 133 405.1 136.2 408.3 133 407.7 132.5 405.1 135.2"/>
          </g>
          <g>
            <path class="class-5" d="M414.3,143.9c0,9.6,6.9,17.5,6.9,17.5s7-7.8,7-17.5-6.9-17.5-6.9-17.5-7,7.8-7,17.5Z"/>
            <rect class="class-4" x="420.8" y="140.8" width="0.7" height="25.4"/>
          </g>
        </g>
        <path class="class-4" d="M308.4,154.2c-6.1,1.9-7.1-.7-14.7.4-5.9.9-7.5,5.4-12.8,4.4-5.5-1.1-12.8-3.6-20.6.6-8.5,4.5-6.4,18.8-6.4,18.8l39.9,21,32.1-6.2.3-42.4C317.4,145.7,312.7,152.9,308.4,154.2Z"/>
        <g>
          <path class="class-5" d="M216.2,122c0,9.4,6.7,17,6.7,17s6.7-7.6,6.7-17-6.7-17-6.7-17S216.2,112.6,216.2,122Z"/>
          <g>
            <path class="class-1" d="M203.8,119.3c0,9.4,6.7,17,6.7,17s6.7-7.6,6.7-17-6.7-17-6.7-17S203.8,109.9,203.8,119.3Z"/>
            <rect class="class-4" x="210.2" y="119" width="0.7" height="41.8"/>
          </g>
          <g>
            <path class="class-5" d="M199,103.3s-7.8,6.8-7.8,15.2,7.8,15.2,7.8,15.2,7.8-6.8,7.8-15.2S199,103.3,199,103.3Z"/>
            <rect class="class-4" x="198.7" y="114.1" width="0.7" height="43"/>
          </g>
        </g>
      </g>
      <g id="phase1">
        <path class="class-1" d="M225.3,134.9c-6.8-.1-10.1,10.9-20,5.9-12.2-6.3-15.8,5.4-23.1,1-6.9-4.1-6-14.6-18.3-15.9-5.9-.6-8.3,2-14.4-.4-5.2-2.1-13.9,7.5-13.9,7.5v45.5L225.3,166s8.8-31,0-31.1Z"/>
        <g>
          <polygon class="class-1" points="225.3 134.9 244.5 134.9 259.1 114.7 239.9 114.7 225.3 134.9"/>
          <rect class="class-5" x="225.3" y="134.9" width="19.2" height="49.9"/>
          <polygon class="class-4" points="244.6 184.6 259.1 184.6 259.1 134.9 259.1 114.7 244.6 134.9 244.6 184.6"/>
          <rect class="class-1" x="250.7" y="148.3" width="2.3" height="8.4"/>
        </g>
        <path class="class-5" d="M418.1,166.1c-7.1-3.1-5-7.3-11.1-9.1-7.3-2.2-10.8,5.1-14.4,1.4-3.4-3.4-2.7-9.1-10.8-7.8v47.3h50.4V168.5c-5.2-5.6-9.7-.4-14.1-2.4Z"/>
        <g>
          <polygon class="class-1" points="336.7 136.8 347.6 150.6 381.8 150.6 371 136.8 336.7 136.8"/>
          <polygon class="class-5" points="325.9 150.6 325.9 194.5 347.5 194.5 347.5 150.6 336.7 136.8 325.9 150.6"/>
          <rect class="class-4" x="347.6" y="150.6" width="34.2" height="43.9"/>
          <rect class="class-1" x="355.9" y="157.1" width="2.5" height="2.1"/>
          <rect class="class-1" x="355.9" y="163.4" width="2.5" height="2.1"/>
          <rect class="class-1" x="363.5" y="157.1" width="2.5" height="2.1"/>
          <rect class="class-1" x="363.5" y="163.4" width="2.5" height="2.1"/>
          <rect class="class-1" x="371" y="157.1" width="2.5" height="2.1"/>
          <rect class="class-1" x="371" y="163.4" width="2.5" height="2.1"/>
          <rect class="class-1" x="355.9" y="169.7" width="2.5" height="2.1"/>
          <rect class="class-1" x="363.5" y="169.7" width="2.5" height="2.1"/>
          <rect class="class-1" x="371" y="169.7" width="2.5" height="2.1"/>
          <rect class="class-1" x="331.7" y="157.1" width="2.5" height="2.1"/>
          <rect class="class-1" x="331.7" y="163.4" width="2.5" height="2.1"/>
          <rect class="class-1" x="339.2" y="157.1" width="2.5" height="2.1"/>
          <rect class="class-1" x="339.2" y="163.4" width="2.5" height="2.1"/>
          <rect class="class-1" x="331.7" y="169.7" width="2.5" height="2.1"/>
          <rect class="class-1" x="339.2" y="169.7" width="2.5" height="2.1"/>
        </g>
        <polygon class="class-1" points="103.3 197.1 113 195.7 135.6 195.7 135.6 143.7 103.3 143.7 103.3 197.1"/>
        <g>
          <polygon class="class-1" points="103.3 116.1 121.6 116.1 135.6 95.9 117.2 95.9 103.3 116.1"/>
          <rect class="class-5" x="103.3" y="116.1" width="18.3" height="27.6"/>
          <polygon class="class-4" points="121.6 143.5 135.6 143.5 135.6 116.1 135.6 95.9 121.6 116.1 121.6 143.5"/>
          <rect class="class-1" x="127.5" y="116" width="2.2" height="8.4"/>
          <rect class="class-1" x="127.5" y="129.5" width="2.2" height="8.4"/>
        </g>
      </g>
    </g>
    <g id="blueBuilds">
      <g id="phase4-2">
        <g>
          <polygon class="class-6" points="497.45 181.71 469.86 181.71 469.86 272.7 510.56 272.7 510.56 199 497.45 199 497.45 181.71"/>
          <polygon class="class-6" points="472.15 157.81 460.06 170.5 460.06 181.71 484.36 181.71 484.36 170.5 472.15 157.81"/>
          <polygon class="class-7" points="443.95 157.81 431.95 170.5 460.15 170.5 472.15 157.81 443.95 157.81"/>
          <polygon class="class-8" points="460.06 170.5 431.95 170.5 431.95 181.71 431.95 231.81 469.86 231.81 469.86 181.71 460.06 181.71 460.06 170.5"/>
          <rect class="class-7" x="435.25" y="174.41" width="3.8" height="5"/>
          <rect class="class-7" x="444.45" y="174.41" width="3.8" height="5"/>
          <rect class="class-7" x="453.75" y="174.41" width="3.8" height="5"/>
          <rect class="class-7" x="435.25" y="188.91" width="3.8" height="5"/>
          <rect class="class-7" x="444.45" y="188.91" width="3.8" height="5"/>
          <rect class="class-7" x="453.75" y="188.91" width="3.8" height="5"/>
          <rect class="class-7" x="462.95" y="188.91" width="3.8" height="5"/>
          <rect class="class-7" x="435.25" y="203.51" width="3.8" height="5"/>
          <rect class="class-7" x="444.45" y="203.51" width="3.8" height="5"/>
          <rect class="class-7" x="453.75" y="203.51" width="3.8" height="5"/>
          <rect class="class-7" x="462.95" y="203.51" width="3.8" height="5"/>
          <rect class="class-7" x="474.55" y="188.91" width="3.8" height="5"/>
          <rect class="class-7" x="483.85" y="188.91" width="3.8" height="5"/>
          <rect class="class-7" x="474.55" y="203.51" width="3.8" height="5"/>
          <rect class="class-7" x="483.85" y="203.51" width="3.8" height="5"/>
          <rect class="class-7" x="493.05" y="203.51" width="3.8" height="5"/>
          <rect class="class-7" x="502.35" y="203.51" width="3.8" height="5"/>
          <rect class="class-7" x="474.55" y="218.11" width="3.8" height="5"/>
          <rect class="class-7" x="483.85" y="218.11" width="3.8" height="5"/>
          <rect class="class-7" x="493.05" y="218.11" width="3.8" height="5"/>
          <rect class="class-7" x="502.35" y="218.11" width="3.8" height="5"/>
        </g>
        <path class="class-6" d="M96.65,123.56a6.43,6.43,0,0,0-3.5,1,6.77,6.77,0,0,0-13.1-2,6.66,6.66,0,0,0-11.2,4.4,6.78,6.78,0,0,0-10.9,5.5h0v.2a5.83,5.83,0,0,0-2.9-.6,6.85,6.85,0,0,0-6.8,6.7,6.8,6.8,0,0,0-11.8,4.7h66.8v-12.9a6.68,6.68,0,0,0-6.6-7Z"/>
      </g>
      <g id="phase3-2">
        <g>
          <polygon class="class-7" points="38.3 170.6 93.6 170.6 103.3 143.7 48 143.7 38.3 170.6"/>
          <polygon class="class-8" points="86 170.6 89.4 170.6 99.1 143.7 95.7 143.7 86 170.6"/>
          <polygon class="class-8" points="42.3 170.6 45.7 170.6 55.4 143.7 52 143.7 42.3 170.6"/>
          <polygon class="class-8" points="77.3 170.6 80.7 170.6 90.4 143.7 87 143.7 77.3 170.6"/>
          <polygon class="class-8" points="68.5 170.6 71.9 170.6 81.6 143.7 78.2 143.7 68.5 170.6"/>
          <polygon class="class-8" points="59.8 170.6 63.2 170.6 72.9 143.7 69.5 143.7 59.8 170.6"/>
          <polygon class="class-8" points="51 170.6 54.4 170.6 64.1 143.7 60.7 143.7 51 170.6"/>
          <polygon class="class-8" points="93.6 170.6 93.6 223.9 113.2 223.9 113.2 170.6 103.4 143.7 93.6 170.6"/>
          <rect class="class-6" x="38.3" y="170.6" width="55.3" height="53.1"/>
        </g>
        <polygon class="class-6" points="78.2 231.6 163.9 231.6 163.9 195.7 113 195.7 78.2 231.6"/>
        <path class="class-7" d="M353.6,187.3c-9.9,3-11.5-1.2-23.8.6-9.5,1.4-12.2,8.6-20.7,6.9-8.9-1.7-20.7-5.6-33.2.9-13.8,7.2-10.3,29.8-10.3,29.8l22.9,6.3H382V180.5C367.1,174.7,360.5,185.2,353.6,187.3Z"/>
      </g>
      <g id="phase2-2">
        <g>
          <polygon class="class-7" points="267.5 159.5 275.8 168.1 302.2 168.1 293.8 159.5 267.5 159.5"/>
          <polygon class="class-6" points="259.1 168.1 259.1 195.8 275.9 195.8 275.9 168.1 267.5 159.5 259.1 168.1"/>
          <rect class="class-8" x="275.8" y="168.1" width="26.3" height="27.5"/>
          <g>
            <rect class="class-7" x="282.2" y="175" width="1.9" height="2"/>
            <rect class="class-7" x="282.2" y="180.9" width="1.9" height="2"/>
            <rect class="class-7" x="288" y="175" width="1.9" height="2"/>
            <rect class="class-7" x="288" y="180.9" width="1.9" height="2"/>
            <rect class="class-7" x="293.8" y="175" width="1.9" height="2"/>
            <rect class="class-7" x="293.8" y="180.9" width="1.9" height="2"/>
            <rect class="class-7" x="282.2" y="186.9" width="1.9" height="2"/>
            <rect class="class-7" x="288" y="186.9" width="1.9" height="2"/>
            <rect class="class-7" x="293.8" y="186.9" width="1.9" height="2"/>
          </g>
        </g>
        <g>
          <polygon class="class-7" points="135.6 143.7 149.7 132.2 149.7 114.5 135.6 125.9 135.6 143.7"/>
          <polygon class="class-8" points="149.7 132.2 163.9 143.7 163.9 125.9 149.7 114.5 149.7 132.2"/>
          <polygon class="class-6" points="135.6 143.7 135.6 195.8 163.9 195.7 163.9 143.7 149.7 132.2 135.6 143.7"/>
          <rect class="class-7" x="158.3" y="150.9" width="1.6" height="1.6"/>
          <rect class="class-7" x="158.3" y="155.7" width="1.6" height="1.6"/>
          <rect class="class-7" x="158.3" y="160.5" width="1.6" height="1.6"/>
          <rect class="class-7" x="153.6" y="146.1" width="1.6" height="1.6"/>
          <rect class="class-7" x="153.6" y="150.9" width="1.6" height="1.6"/>
          <rect class="class-7" x="153.6" y="155.7" width="1.6" height="1.6"/>
          <rect class="class-7" x="153.6" y="160.5" width="1.6" height="1.6"/>
          <rect class="class-7" x="148.9" y="141.3" width="1.6" height="1.6"/>
          <rect class="class-7" x="148.9" y="146.1" width="1.6" height="1.6"/>
          <rect class="class-7" x="148.9" y="150.9" width="1.6" height="1.6"/>
          <rect class="class-7" x="148.9" y="155.7" width="1.6" height="1.6"/>
          <rect class="class-7" x="148.9" y="160.5" width="1.6" height="1.6"/>
          <rect class="class-7" x="144.2" y="146.1" width="1.6" height="1.6"/>
          <rect class="class-7" x="144.2" y="150.9" width="1.6" height="1.6"/>
          <rect class="class-7" x="144.2" y="155.7" width="1.6" height="1.6"/>
          <rect class="class-7" x="144.2" y="160.5" width="1.6" height="1.6"/>
          <rect class="class-7" x="139.5" y="150.9" width="1.6" height="1.6"/>
          <rect class="class-7" x="139.5" y="155.7" width="1.6" height="1.6"/>
          <rect class="class-7" x="139.5" y="160.5" width="1.6" height="1.6"/>
          <rect class="class-7" x="158.3" y="165.3" width="1.6" height="1.6"/>
          <rect class="class-7" x="153.6" y="165.3" width="1.6" height="1.6"/>
          <rect class="class-7" x="148.9" y="165.3" width="1.6" height="1.6"/>
          <rect class="class-7" x="144.2" y="165.3" width="1.6" height="1.6"/>
          <rect class="class-7" x="139.5" y="165.3" width="1.6" height="1.6"/>
        </g>
        <g>
          <g>
            <path class="class-7" d="M109.7,201.7c0,10.9,7.8,19.8,7.8,19.8s7.9-8.8,7.9-19.8-7.9-19.8-7.9-19.8S109.7,190.8,109.7,201.7Z"/>
            <rect class="class-6" x="117.1" y="198.3" width="0.7" height="26.2"/>
            <polygon class="class-6" points="117.5 205.5 114.9 202.8 114.4 203.3 117.5 206.6 120.7 203.3 120.1 202.8 117.5 205.5"/>
          </g>
          <g>
            <path class="class-7" d="M134.3,202.5c0,9.6,7,17.5,7,17.5s6.9-7.8,6.9-17.5-6.9-17.5-6.9-17.5-7,7.8-7,17.5Z"/>
            <rect class="class-6" x="140.8" y="199.3" width="0.7" height="25.4"/>
          </g>
          <g>
            <path class="class-6" d="M122,194.5c0,10.9,7.9,19.8,7.9,19.8s7.9-8.8,7.9-19.8-7.9-19.8-7.9-19.8S122,183.6,122,194.5Z"/>
            <rect class="class-7" x="129.4" y="192.1" width="0.7" height="33.2"/>
          </g>
        </g>
      </g>
      <g id="phase1-2">
        <g>
          <polygon class="class-6" points="13.1 199.1 0 199.1 0 272.8 40.7 272.8 40.7 181.8 13.1 181.8 13.1 199.1"/>
          <polygon class="class-6" points="26.2 170.6 26.2 181.8 50.5 181.8 50.5 170.6 38.4 157.9 26.2 170.6"/>
          <polygon class="class-7" points="38.4 157.9 50.4 170.6 78.6 170.6 66.6 157.9 38.4 157.9"/>
          <polygon class="class-8" points="50.5 181.8 40.7 181.8 40.7 231.9 78.6 231.9 78.6 181.8 78.6 170.6 50.5 170.6 50.5 181.8"/>
          <rect class="class-7" x="71.5" y="174.5" width="3.8" height="5"/>
          <rect class="class-7" x="62.3" y="174.5" width="3.8" height="5"/>
          <rect class="class-7" x="53" y="174.5" width="3.8" height="5"/>
          <rect class="class-7" x="71.5" y="189" width="3.8" height="5"/>
          <rect class="class-7" x="62.3" y="189" width="3.8" height="5"/>
          <rect class="class-7" x="53" y="189" width="3.8" height="5"/>
          <rect class="class-7" x="43.8" y="189" width="3.8" height="5"/>
          <rect class="class-7" x="71.5" y="203.6" width="3.8" height="5"/>
          <rect class="class-7" x="62.3" y="203.6" width="3.8" height="5"/>
          <rect class="class-7" x="53" y="203.6" width="3.8" height="5"/>
          <rect class="class-7" x="43.8" y="203.6" width="3.8" height="5"/>
          <rect class="class-7" x="32.2" y="189" width="3.8" height="5"/>
          <rect class="class-7" x="22.9" y="189" width="3.8" height="5"/>
          <rect class="class-7" x="32.2" y="203.6" width="3.8" height="5"/>
          <rect class="class-7" x="22.9" y="203.6" width="3.8" height="5"/>
          <rect class="class-7" x="13.7" y="203.6" width="3.8" height="5"/>
          <rect class="class-7" x="4.4" y="203.6" width="3.8" height="5"/>
          <rect class="class-7" x="32.2" y="218.2" width="3.8" height="5"/>
          <rect class="class-7" x="22.9" y="218.2" width="3.8" height="5"/>
          <rect class="class-7" x="13.7" y="218.2" width="3.8" height="5"/>
          <rect class="class-7" x="4.4" y="218.2" width="3.8" height="5"/>
        </g>
        <g>
          <g>
            <polygon class="class-9" points="381.8 188.4 403.6 188.6 403.6 180.4 381.8 180.5 381.8 188.4"/>
            <polygon class="class-9" points="413.1 171.1 391.5 171.1 381.8 180.5 403.5 180.5 413.1 171.1"/>
            <polygon class="class-9" points="372.2 197.8 372.2 197.8 372.2 231.7 393.9 231.7 393.9 197.8 393.9 197.8 403.6 188.6 381.8 188.4 372.2 197.8"/>
          </g>
          <polygon class="class-10" points="422.7 188.5 422.7 180.5 422.8 180.5 422.7 180.5 422.7 180.4 422.6 180.4 413.1 171.1 403.6 180.4 403.6 180.4 403.6 180.4 403.5 180.5 403.6 180.5 403.6 188.6 393.8 197.8 393.8 231.9 403.7 231.9 422.8 231.9 432.1 231.9 432.1 197.8 422.7 188.5"/>
          <rect class="class-7" x="408" y="186.8" width="2" height="4"/>
          <rect class="class-7" x="416.2" y="186.8" width="2" height="4"/>
          <rect class="class-7" x="408" y="193.9" width="2" height="4"/>
          <rect class="class-7" x="416.2" y="193.9" width="2" height="4"/>
          <rect class="class-7" x="408" y="200.9" width="2" height="4"/>
          <rect class="class-7" x="416.2" y="200.9" width="2" height="4"/>
          <rect class="class-7" x="408" y="208" width="2" height="4"/>
          <rect class="class-7" x="416.2" y="208" width="2" height="4"/>
          <rect class="class-7" x="408" y="215.1" width="2" height="4"/>
          <rect class="class-7" x="416.2" y="215.1" width="2" height="4"/>
          <rect class="class-7" x="408" y="222.1" width="2" height="4"/>
          <rect class="class-7" x="416.2" y="222.1" width="2" height="4"/>
          <rect class="class-7" x="399.8" y="200.9" width="2" height="4"/>
          <rect class="class-7" x="399.8" y="208" width="2" height="4"/>
          <rect class="class-7" x="399.8" y="215.1" width="2" height="4"/>
          <rect class="class-7" x="399.8" y="222.1" width="2" height="4"/>
          <rect class="class-7" x="424.5" y="200.9" width="2" height="4"/>
          <rect class="class-7" x="424.5" y="208" width="2" height="4"/>
          <rect class="class-7" x="424.5" y="215.1" width="2" height="4"/>
          <rect class="class-7" x="424.5" y="222.1" width="2" height="4"/>
        </g>
      </g>
    </g>
    <g id="purpleBuilds">
      <g id="phase4-3">
        <g>
          <polygon class="class-11" points="495.1 191.03 518 191.03 529.9 178.83 507.1 178.83 495.1 191.03"/>
          <polygon class="class-12" points="518 191.03 518 232.23 541.9 232.23 541.9 191.03 530 178.83 518 191.03"/>
          <rect class="class-13" x="495.1" y="191.03" width="22.9" height="41.2"/>
          <rect class="class-11" x="512.5" y="195.43" width="1.6" height="1.6"/>
          <rect class="class-11" x="512.5" y="200.23" width="1.6" height="1.6"/>
          <rect class="class-11" x="512.5" y="205.03" width="1.6" height="1.6"/>
          <rect class="class-11" x="512.5" y="209.83" width="1.6" height="1.6"/>
          <rect class="class-11" x="512.5" y="214.63" width="1.6" height="1.6"/>
          <rect class="class-11" x="507.8" y="195.43" width="1.6" height="1.6"/>
          <rect class="class-11" x="507.8" y="200.23" width="1.6" height="1.6"/>
          <rect class="class-11" x="507.8" y="205.03" width="1.6" height="1.6"/>
          <rect class="class-11" x="507.8" y="209.83" width="1.6" height="1.6"/>
          <rect class="class-11" x="507.8" y="214.63" width="1.6" height="1.6"/>
          <rect class="class-11" x="503.1" y="195.43" width="1.6" height="1.6"/>
          <rect class="class-11" x="503.1" y="200.23" width="1.6" height="1.6"/>
          <rect class="class-11" x="503.1" y="205.03" width="1.6" height="1.6"/>
          <rect class="class-11" x="503.1" y="209.83" width="1.6" height="1.6"/>
          <rect class="class-11" x="503.1" y="214.63" width="1.6" height="1.6"/>
          <rect class="class-11" x="498.5" y="195.43" width="1.6" height="1.6"/>
          <rect class="class-11" x="498.5" y="200.23" width="1.6" height="1.6"/>
          <rect class="class-11" x="498.5" y="205.03" width="1.6" height="1.6"/>
          <rect class="class-11" x="498.5" y="209.83" width="1.6" height="1.6"/>
          <rect class="class-11" x="498.5" y="214.63" width="1.6" height="1.6"/>
          <rect class="class-11" x="512.5" y="219.43" width="1.6" height="1.6"/>
          <rect class="class-11" x="507.8" y="219.43" width="1.6" height="1.6"/>
          <rect class="class-11" x="503.1" y="219.43" width="1.6" height="1.6"/>
          <rect class="class-11" x="498.5" y="219.43" width="1.6" height="1.6"/>
          <polygon class="class-12" points="498.6 191.03 499.8 191.03 511.8 178.83 510.6 178.83 498.6 191.03"/>
          <polygon class="class-12" points="503.7 191.03 504.9 191.03 516.8 178.83 515.6 178.83 503.7 191.03"/>
          <polygon class="class-12" points="508.7 191.03 509.9 191.03 521.8 178.83 520.6 178.83 508.7 191.03"/>
          <polygon class="class-12" points="513.7 191.03 514.9 191.03 526.9 178.83 525.7 178.83 513.7 191.03"/>
        </g>
        <path class="class-13" d="M108.06,47.18a5.19,5.19,0,0,1,2.7.7v-.5a9.33,9.33,0,0,1,9.3-9.5,9,9,0,0,1,2.8.4,5.81,5.81,0,0,1,11.6,0,7.54,7.54,0,0,1,3.3-.7A8.34,8.34,0,0,1,146,46v.7h.6a6.08,6.08,0,0,1,5.9,6.1,6,6,0,0,1-4.8,5.7c-1.9,2.5-9.9,4.4-19.5,4.4-8.8,0-16.3-1.6-18.9-3.8a3.4,3.4,0,0,1-1,.1,5.87,5.87,0,0,1-5.7-6.2,5.75,5.75,0,0,1,5.5-5.8Z"/>
      </g>
      <g id="phase3-3">
        <g>
          <g>
            <path class="class-14" d="M322.9,203.2c-21,0-20,4.7-39-5.8-13.8-7.6-24.8-1.7-24.8-1.7v35.9H362.6s-24.9-28.4-39.7-28.4Z"/>
            <path class="class-13" d="M384.9,225.5a11.5,11.5,0,0,0-4.1.8v-.6c0-6.4-6.5-11.5-14.5-11.5a20.24,20.24,0,0,0-4.3.5c-.4-3.7-4.3-6.7-9-6.7v23.9h40.9c-.5-3.6-4.4-6.4-9-6.4Z"/>
          </g>
          <g>
            <path class="class-11" d="M251.1,172.4a7.54,7.54,0,0,0-4.1,1.2,7.92,7.92,0,0,0-8.3-7.5,8.07,8.07,0,0,0-7,5.1,7.85,7.85,0,0,0-5.3-2.1,8,8,0,0,0-7.9,7.3,7.71,7.71,0,0,0-4.8-1.6,8.11,8.11,0,0,0-8,8.1h0v.2a7.73,7.73,0,0,0-3.4-.8,8.07,8.07,0,0,0-8,7.9,7.82,7.82,0,0,0-5.9-2.7,8.11,8.11,0,0,0-8,8.1h78.5V180.5a7.87,7.87,0,0,0-7.8-8.1Z"/>
            <g>
              <polygon class="class-14" points="201.4 161.3 225.3 161.3 213.3 149.1 201.4 161.3"/>
              <polygon class="class-11" points="163.9 161.3 201.4 161.3 213.3 149.1 175.8 149.1 163.9 161.3"/>
              <rect class="class-14" x="201.4" y="161.3" width="23.8" height="34.4"/>
              <rect class="class-13" x="163.9" y="161.3" width="37.6" height="34.4"/>
            </g>
          </g>
        </g>
        <g>
          <path class="class-11" d="M15.3,253.2c0,7,5,12.6,5,12.6s5-5.6,5-12.6-5-12.6-5-12.6S15.3,246.3,15.3,253.2Z"/>
          <rect class="class-14" x="19.9" y="251.7" width="0.7" height="21.1"/>
        </g>
      </g>
      <g id="phase2-3">
        <g>
          <path class="class-13" d="M143.9,214.2c-15.7,10.5-20,2.8-37.3,2.8-12.2,0-28.1,14.6-28.1,14.6l85.3,6.7V210.1s-8.5-3.6-19.9,4.1Z"/>
          <path class="class-11" d="M150.4,239.8c-6.2.6-5.2-6.7-14.8-5.9-5.8.4-7.2,3.6-12.7-.1s-11.6-9.7-22.9-7.9c-12.4,2-31.4,40.9-31.4,40.9l20.2-2.4,74.5-17.2,6.5-7.7c-7.5-10.1-13.9-.2-19.4.3Z"/>
        </g>
        <g>
          <g>
            <path class="class-14" d="M152.9,224.1l-7.2,29.6,18.5-2-6.7-27.6a2.31,2.31,0,0,0-2.8-1.8,2.37,2.37,0,0,0-1.8,1.8Z"/>
            <path class="class-14" d="M141.9,223.1l-7.2,29.6,18.5-2-6.7-27.6a2.31,2.31,0,0,0-2.8-1.8,2.37,2.37,0,0,0-1.8,1.8Z"/>
          </g>
          <g>
            <rect class="class-11" x="154.8" y="229.4" width="0.7" height="17.4"/>
            <polygon class="class-11" points="154.8 237 154.8 240.2 151.9 237.2 151.4 237.7 155.5 242 155.5 237.2 158 233.4 157.3 233 154.8 237"/>
            <rect class="class-11" x="143.8" y="228.4" width="0.7" height="25.1"/>
            <polygon class="class-11" points="143.8 236 143.8 239.2 140.9 236.2 140.4 236.7 144.5 241 144.5 236.2 147 232.4 146.3 232 143.8 236"/>
          </g>
        </g>
        <polygon class="class-11" points="364.3 231.7 446.4 231.7 432.2 272.8 364.3 272.8 364.3 231.7"/>
      </g>
      <g id="phase1-3">
        <g>
          <path class="class-13" d="M146.1,246.7c-3.7,4.8-6,.3-10.6,2.1-6,2.5-10.9,15.7-17.9,14.3s-11.4-2.5-11.4-2.5l-2.2,7.2,53.8,1.9,7.9-31.4c-6.6-2-16,3.5-19.6,8.4Z"/>
          <path class="class-14" d="M140,261.4c-6-1.6-2.6-8-11.9-10.7-5.6-1.6-8,.8-11.9-4.5s-3-12.3-14.3-14.5c-12.3-2.4-52.7,30-52.7,30l-8.6,11.2H149.7l8.7-5C154.7,255.8,145.4,262.9,140,261.4Z"/>
        </g>
        <g>
          <polygon class="class-11" points="40.5 231.6 78.1 231.6 90 219.4 52.5 219.4 40.5 231.6"/>
          <polygon class="class-12" points="78.1 231.6 78.1 273 102 273 102 231.6 90 219.4 78.1 231.6"/>
          <rect class="class-13" x="40.5" y="231.6" width="37.6" height="41.2"/>
          <rect class="class-11" x="72.6" y="236" width="1.6" height="1.6"/>
          <rect class="class-11" x="72.6" y="240.8" width="1.6" height="1.6"/>
          <rect class="class-11" x="72.6" y="245.6" width="1.6" height="1.6"/>
          <rect class="class-11" x="72.6" y="250.4" width="1.6" height="1.6"/>
          <rect class="class-11" x="72.6" y="255.2" width="1.6" height="1.6"/>
          <rect class="class-11" x="67.9" y="236" width="1.6" height="1.6"/>
          <rect class="class-11" x="67.9" y="240.8" width="1.6" height="1.6"/>
          <rect class="class-11" x="67.9" y="245.6" width="1.6" height="1.6"/>
          <rect class="class-11" x="67.9" y="250.4" width="1.6" height="1.6"/>
          <rect class="class-11" x="67.9" y="255.2" width="1.6" height="1.6"/>
          <rect class="class-11" x="63.2" y="236" width="1.6" height="1.6"/>
          <rect class="class-11" x="63.2" y="240.8" width="1.6" height="1.6"/>
          <rect class="class-11" x="63.2" y="245.6" width="1.6" height="1.6"/>
          <rect class="class-11" x="63.2" y="250.4" width="1.6" height="1.6"/>
          <rect class="class-11" x="63.2" y="255.2" width="1.6" height="1.6"/>
          <rect class="class-11" x="58.5" y="236" width="1.6" height="1.6"/>
          <rect class="class-11" x="58.5" y="240.8" width="1.6" height="1.6"/>
          <rect class="class-11" x="58.5" y="245.6" width="1.6" height="1.6"/>
          <rect class="class-11" x="58.5" y="250.4" width="1.6" height="1.6"/>
          <rect class="class-11" x="58.5" y="255.2" width="1.6" height="1.6"/>
          <rect class="class-11" x="53.8" y="236" width="1.6" height="1.6"/>
          <rect class="class-11" x="53.8" y="240.8" width="1.6" height="1.6"/>
          <rect class="class-11" x="53.8" y="245.6" width="1.6" height="1.6"/>
          <rect class="class-11" x="53.8" y="250.4" width="1.6" height="1.6"/>
          <rect class="class-11" x="53.8" y="255.2" width="1.6" height="1.6"/>
          <rect class="class-11" x="49.1" y="236" width="1.6" height="1.6"/>
          <rect class="class-11" x="49.1" y="240.8" width="1.6" height="1.6"/>
          <rect class="class-11" x="49.1" y="245.6" width="1.6" height="1.6"/>
          <rect class="class-11" x="49.1" y="250.4" width="1.6" height="1.6"/>
          <rect class="class-11" x="49.1" y="255.2" width="1.6" height="1.6"/>
          <rect class="class-11" x="72.6" y="260" width="1.6" height="1.6"/>
          <rect class="class-11" x="67.9" y="260" width="1.6" height="1.6"/>
          <rect class="class-11" x="63.2" y="260" width="1.6" height="1.6"/>
          <rect class="class-11" x="58.5" y="260" width="1.6" height="1.6"/>
          <rect class="class-11" x="53.8" y="260" width="1.6" height="1.6"/>
          <rect class="class-11" x="49.1" y="260" width="1.6" height="1.6"/>
          <rect class="class-11" x="44.5" y="236" width="1.6" height="1.6"/>
          <rect class="class-11" x="44.5" y="240.8" width="1.6" height="1.6"/>
          <rect class="class-11" x="44.5" y="245.6" width="1.6" height="1.6"/>
          <rect class="class-11" x="44.5" y="250.4" width="1.6" height="1.6"/>
          <rect class="class-11" x="44.5" y="255.2" width="1.6" height="1.6"/>
          <rect class="class-11" x="44.5" y="260" width="1.6" height="1.6"/>
          <polygon class="class-12" points="43.6 231.6 44.8 231.6 56.7 219.4 55.5 219.4 43.6 231.6"/>
          <polygon class="class-12" points="48.7 231.6 49.9 231.6 61.8 219.4 60.6 219.4 48.7 231.6"/>
          <polygon class="class-12" points="53.7 231.6 54.9 231.6 66.8 219.4 65.6 219.4 53.7 231.6"/>
          <polygon class="class-12" points="58.7 231.6 59.9 231.6 71.8 219.4 70.7 219.4 58.7 231.6"/>
          <polygon class="class-12" points="63.8 231.6 64.9 231.6 76.9 219.4 75.7 219.4 63.8 231.6"/>
          <polygon class="class-12" points="68.8 231.6 70 231.6 81.9 219.4 80.7 219.4 68.8 231.6"/>
          <polygon class="class-12" points="73.8 231.6 75 231.6 86.9 219.4 85.8 219.4 73.8 231.6"/>
        </g>
        <g>
          <rect class="class-14" x="397.8" y="244.2" width="0.7" height="28.6"/>
          <rect class="class-14" x="396.79" y="251.12" width="0.7" height="3" transform="translate(-69.46 314.46) rotate(-40.01)"/>
          <rect class="class-14" x="397.04" y="251.08" width="6.2" height="0.7" transform="translate(-49.73 396.16) rotate(-49.98)"/>
          <rect class="class-14" x="396.61" y="255.89" width="8.5" height="0.7" transform="translate(-53.15 398.43) rotate(-49.98)"/>
        </g>
        <g>
          <path class="class-13" d="M383.1,253.3a2.08,2.08,0,0,1-.6-2.1c.5-1.9,1.2-5,.1-6a2.35,2.35,0,0,0-1.4-.7,1.93,1.93,0,0,1-1.4-2h0c0-3.4-1.6-6.1-3.6-6.1s-3.6,2.7-3.6,6.1h0a1.93,1.93,0,0,1-1.4,2,3.69,3.69,0,0,0-1.4.7c-1,1.1-.4,4.2.1,6a2,2,0,0,1-.6,2.1,3.6,3.6,0,0,0-1.3,2.1c-.4,2.3,3,7.4,8,11.9,5.1-4.5,8.5-9.6,8.1-11.9a2.28,2.28,0,0,0-1-2.1Z"/>
          <polygon class="class-14" points="376.2 248 373.6 246 373.1 246.6 376.2 248.9 379.3 246.6 378.9 246 376.2 248"/>
          <polygon class="class-14" points="376.3 259.7 371.5 256.2 371.1 256.8 376.3 260.6 381.5 256.8 381.1 256.2 376.3 259.7"/>
          <polygon class="class-14" points="376.2 253.5 371.7 250.2 371.3 250.8 376.2 254.4 381.1 250.8 380.7 250.2 376.2 253.5"/>
          <rect class="class-14" x="375.9" y="241.1" width="0.7" height="31.7"/>
        </g>
        <g>
          <path class="class-13" d="M426.2,243.5a7.15,7.15,0,1,0-14.3.3,6.6,6.6,0,0,0,.6,2.7,6.57,6.57,0,0,1,0,5.8,7.16,7.16,0,0,0,13,6,6.78,6.78,0,0,0,0-5.9,6.57,6.57,0,0,1,0-5.8A6.7,6.7,0,0,0,426.2,243.5Z"/>
          <rect class="class-14" x="418.8" y="246.5" width="0.7" height="16.3"/>
          <rect class="class-14" x="417.04" y="249.26" width="0.7" height="4.7" transform="translate(-55.43 369.77) rotate(-45.11)"/>
          <rect class="class-14" x="418.07" y="256.17" width="7.2" height="0.7" transform="translate(-58.06 372.55) rotate(-44.91)"/>
          <rect class="class-14" x="418.8" y="243" width="0.7" height="29.9"/>
          <rect class="class-14" x="417.04" y="249.26" width="0.7" height="4.7" transform="translate(-55.43 369.77) rotate(-45.11)"/>
          <rect class="class-14" x="418.41" y="251.33" width="4.7" height="0.7" transform="translate(-54.91 370.5) rotate(-44.91)"/>
          <rect class="class-14" x="417.58" y="245.83" width="0.7" height="3.2" transform="translate(-52.29 368.99) rotate(-45.12)"/>
          <rect class="class-14" x="418.67" y="246.95" width="3.2" height="0.7" transform="translate(-51.96 368.88) rotate(-44.91)"/>
          <rect class="class-14" x="418.07" y="256.17" width="7.2" height="0.7" transform="translate(-58.06 372.55) rotate(-44.91)"/>
          <rect class="class-14" x="416.2" y="253" width="0.7" height="7.2" transform="translate(-59.2 370.71) rotate(-45.12)"/>
        </g>
      </g>
    </g>
    <g id="yellowBuilds">
      <g id="phase3-4">
        <g>
          <polygon class="class-15" points="432.3 247.65 459.1 247.65 473.2 231.55 446.4 231.55 432.3 247.65"/>
          <rect class="class-16" x="432.3" y="247.65" width="26.8" height="25.1"/>
          <polygon class="class-17" points="458.9 272.95 473.4 272.95 473.4 247.65 473.4 231.55 458.9 247.65 458.9 272.95"/>
          <rect class="class-15" x="442.7" y="253.95" width="5.8" height="4"/>
          <rect class="class-15" x="442.7" y="263.15" width="5.8" height="4"/>
        </g>
        <rect class="class-15" x="473.4" y="231.55" width="68.5" height="41.2"/>
        <path class="class-17" d="M473.4,253.35v19.5h68.5v-5.2c-3.1.2-6.3.9-8.7.5-6-1.1-2.6-5.5-11.9-7.3-5.6-1.1-8.1.5-11.9-3.1s-5.7-6.6-16.9-8.1A32.44,32.44,0,0,0,473.4,253.35Z"/>
      </g>
      <g id="phase2-4">
        <polygon class="class-15" points="184.2 177.4 204.5 195.7 259.4 195.9 238.7 177.4 184.2 177.4"/>
        <polygon class="class-18" points="163.8 195.7 163.8 231.9 204.5 231.9 204.5 195.7 184.2 177.4 163.8 195.7"/>
        <polygon class="class-18" points="221.9 195.7 232 186.8 211.8 186.7 221.9 195.7"/>
        <polygon class="class-17" points="232 186.8 221.9 195.7 204.5 195.7 204.5 231.9 259.2 231.9 259.2 195.8 242.1 195.8 232 186.8"/>
        <rect class="class-15" x="195" y="203.4" width="2" height="2"/>
        <rect class="class-15" x="195" y="209.6" width="2" height="2"/>
        <rect class="class-15" x="195" y="215.7" width="2" height="2"/>
        <rect class="class-15" x="195" y="221.8" width="2" height="2"/>
        <rect class="class-15" x="189" y="203.4" width="2" height="2"/>
        <rect class="class-15" x="189" y="209.6" width="2" height="2"/>
        <rect class="class-15" x="189" y="215.7" width="2" height="2"/>
        <rect class="class-15" x="189" y="221.8" width="2" height="2"/>
        <rect class="class-15" x="183" y="203.4" width="2" height="2"/>
        <rect class="class-15" x="183" y="209.6" width="2" height="2"/>
        <rect class="class-15" x="183" y="215.7" width="2" height="2"/>
        <rect class="class-15" x="183" y="221.8" width="2" height="2"/>
        <rect class="class-15" x="177" y="203.4" width="2" height="2"/>
        <rect class="class-15" x="177" y="209.6" width="2" height="2"/>
        <rect class="class-15" x="177" y="215.7" width="2" height="2"/>
        <rect class="class-15" x="177" y="221.8" width="2" height="2"/>
        <rect class="class-15" x="171" y="203.4" width="2" height="2"/>
        <rect class="class-15" x="171" y="209.6" width="2" height="2"/>
        <rect class="class-15" x="171" y="215.7" width="2" height="2"/>
        <rect class="class-15" x="171" y="221.8" width="2" height="2"/>
        <rect class="class-15" x="251.5" y="199.9" width="2.6" height="7"/>
        <rect class="class-15" x="241.1" y="199.9" width="2.6" height="7"/>
        <rect class="class-15" x="230.6" y="199.9" width="2.6" height="7"/>
        <rect class="class-15" x="220.2" y="199.9" width="2.6" height="7"/>
        <rect class="class-15" x="209.8" y="199.9" width="2.6" height="7"/>
        <rect class="class-15" x="251.5" y="212.4" width="2.6" height="7"/>
        <rect class="class-15" x="241.1" y="212.4" width="2.6" height="7"/>
        <rect class="class-15" x="230.6" y="212.4" width="2.6" height="7"/>
        <rect class="class-15" x="220.2" y="212.4" width="2.6" height="7"/>
        <rect class="class-15" x="209.8" y="212.4" width="2.6" height="7"/>
        <path class="class-15" d="M350.9,84.5a5.19,5.19,0,0,0-2.7.7v-.5a9.33,9.33,0,0,0-9.3-9.5,13.51,13.51,0,0,0-2.8.4,5.81,5.81,0,0,0-11.6,0,7.54,7.54,0,0,0-3.3-.7,8.28,8.28,0,0,0-8.2,8.4V84h-.6a6,6,0,0,0-1.1,11.9c1.9,2.5,9.9,4.4,19.5,4.4,8.8,0,16.3-1.6,18.9-3.8a3.4,3.4,0,0,0,1,.1,5.87,5.87,0,0,0,5.7-6.2,5.77,5.77,0,0,0-5.5-5.9Z"/>
        <g>
          <path class="class-16" d="M27.8,253.2c0,7,5,12.6,5,12.6s5-5.6,5-12.6-5-12.6-5-12.6S27.8,246.3,27.8,253.2Z"/>
          <rect class="class-17" x="32.5" y="251.7" width="0.7" height="21.1"/>
        </g>
      </g>
      <g id="phase1-4">
        <g>
          <g>
            <polygon class="class-15" points="149.8 247.7 176.6 247.7 190.8 231.6 164 231.6 149.8 247.7"/>
            <rect class="class-16" x="149.8" y="247.7" width="26.8" height="25.1"/>
            <polygon class="class-17" points="176.5 273 191 273 191 247.7 191 231.6 176.5 247.7 176.5 273"/>
            <rect class="class-15" x="160.2" y="254" width="5.8" height="4"/>
            <rect class="class-15" x="160.2" y="263.2" width="5.8" height="4"/>
          </g>
          <rect class="class-15" x="190.8" y="231.6" width="68.5" height="41.2"/>
          <path class="class-17" d="M240.2,249.6c-11.3,1.5-13.1,4.6-16.9,8.1s-6.3,2-11.9,3.1c-9.3,1.8-5.9,6.2-11.9,7.3-2.4.4-5.6-.3-8.7-.5v5.2h68.5V253.3A34.21,34.21,0,0,0,240.2,249.6Z"/>
          <g>
            <polygon class="class-19" points="259.2 234.1 259.2 272.8 341.8 272.8 341.8 231.6 259.2 231.6 259.2 234.1"/>
            <polygon class="class-20" points="259.2 231.6 341.8 231.6 353.1 207.9 270.5 207.9 259.2 231.6"/>
            <polygon class="class-21" points="353 208 341.8 231.6 341.8 273 364.3 273 364.3 231.7 364.3 231.9 364.2 231.9 353 208"/>
            <polygon class="class-21" points="292.8 220.2 304.1 231.6 321 231.6 309.7 220.2 292.8 220.2"/>
            <path class="class-20" d="M331.7,239.9a2.22,2.22,0,0,0-2.2,2.2h0v3.6H334v-3.6a2.38,2.38,0,0,0-2.3-2.2Z"/>
            <path class="class-20" d="M271.2,239.9a2.22,2.22,0,0,0-2.2,2.2h0v3.6h4.5v-3.6a2.38,2.38,0,0,0-2.3-2.2Z"/>
            <path class="class-20" d="M331.7,249.8a2.22,2.22,0,0,0-2.2,2.2h0v3.6H334V252a2.38,2.38,0,0,0-2.3-2.2Z"/>
            <path class="class-20" d="M271.2,249.8A2.22,2.22,0,0,0,269,252h0v3.6h4.5V252a2.38,2.38,0,0,0-2.3-2.2Z"/>
            <path class="class-20" d="M331.7,259.8a2.22,2.22,0,0,0-2.2,2.2h0v3.6H334V262a2.38,2.38,0,0,0-2.3-2.2Z"/>
            <path class="class-20" d="M271.2,259.8A2.22,2.22,0,0,0,269,262h0v3.6h4.5V262a2.38,2.38,0,0,0-2.3-2.2Z"/>
            <rect class="class-17" x="304.1" y="231.7" width="16.8" height="41.1"/>
            <polygon class="class-2" points="292.8 220.2 281.6 231.7 281.9 231.9 281.7 231.9 281.7 273 304.1 273 304.1 231.9 304.1 231.7 292.8 220.2"/>
            <path class="class-20" d="M292.9,239.9h0a2.22,2.22,0,0,0-2.2,2.2h0v3.6h4.5v-3.6a2.38,2.38,0,0,0-2.3-2.2Z"/>
            <path class="class-20" d="M292.9,249.8h0a2.22,2.22,0,0,0-2.2,2.2h0v3.6h4.5V252a2.38,2.38,0,0,0-2.3-2.2Z"/>
            <path class="class-20" d="M292.9,259.8h0a2.22,2.22,0,0,0-2.2,2.2h0v3.6h4.5V262a2.38,2.38,0,0,0-2.3-2.2Z"/>
          </g>
        </g>
        <g>
          <path class="class-16" d="M241,237.6c0,9.4,6.7,17,6.7,17s6.7-7.6,6.7-17-6.7-17-6.7-17S241,228.3,241,237.6Z"/>
          <rect class="class-17" x="247.4" y="234.7" width="0.7" height="22.5"/>
        </g>
        <g>
          <path class="class-16" d="M211.8,239.7c0,9.4,6.7,17,6.7,17s6.7-7.6,6.7-17-6.7-17-6.7-17S211.8,230.3,211.8,239.7Z"/>
          <rect class="class-17" x="218.2" y="239.3" width="0.7" height="22.5"/>
        </g>
        <g>
          <path class="class-16" d="M195.2,238.4c0,12.3,9.6,22.3,9.6,22.3s9.6-10,9.6-22.3-9.6-22.3-9.6-22.3S195.2,226,195.2,238.4Z"/>
          <rect class="class-17" x="204.5" y="234.4" width="0.7" height="29.6"/>
        </g>
      </g>
    </g>
  </g>
</svg>
