<svg id="Слой_1" data-name="Слой 1" xmlns="http://www.w3.org/2000/svg" viewBox="0 0 223.72 518.67"><defs><style>.cls-1{fill:#233862;}.cls-2{fill:#ffb27d;}.cls-3{fill:#ed985f;}.cls-4{fill:#2c3a64;}.cls-5{fill:#f99746;}.cls-6{fill:#35488b;}.cls-7{fill:#ed7d2b;}.cls-8{fill:#fff;}</style></defs><title>Krejčí - FourthQuater</title><path class="cls-1" d="M57.52,518.67s0-8.16,1.16-10.87S64.11,494,64.11,494H80.78s3.1,10.07,3.29,13.37,0,11.26,0,11.26Z"/><path class="cls-1" d="M163.35,518.67s0-8.16-1.16-10.87S156.76,494,156.76,494H140.09s-3.1,10.07-3.29,13.37,0,11.26,0,11.26Z"/><path class="cls-2" d="M96.57,60.66S96,78.83,93.66,87L75.25,99.82l69.29,10.36L128,87.35S123,63,125.64,54,96.57,60.66,96.57,60.66Z"/><path class="cls-3" d="M96.47,63.17s5.48,13.19,15.8,12.9,12.67-12,12.67-12Z"/><path class="cls-4" d="M90.31,52.49S87,35.86,84.65,30.82,80.39,3.29,106.17,2.13c0,0,9.88,1.16,15.31-2.13,0,0,0,3.29-1.36,4.46A17.13,17.13,0,0,1,136,10.08c7,7.75-4.65,34.89-4.07,41.28Z"/><path class="cls-2" d="M132.33,29.31V47.47a21.57,21.57,0,0,1-1.87,8.63h0a27.48,27.48,0,0,1-9.3,11.21c-3.36,2.37-7,3.72-10.06,3.67-2.69-.06-6.18-1.37-9.57-3.61-4.55-3-8.89-7.71-10.74-13.24l0-.08-.07-.23a17.53,17.53,0,0,1-.83-5.26V29.31c0-4.5,3.14-8.18,7-8.18h28.53C129.19,21.13,132.33,24.81,132.33,29.31Z"/><path class="cls-4" d="M89.85,39.59S89.89,28,99,26.25s29.66,5.63,32.56-2.8S92,15.17,89.85,20.54,89.85,39.59,89.85,39.59Z"/><path class="cls-5" d="M59.61,236.08s2.91,89-1.45,139.86,0,121.52,0,121.52,13.94,7.69,29.06,0c0,0,16.58-98.16,16.47-121.52-.11-24.88,18-136,18-136Z"/><path class="cls-5" d="M162.75,497.46s-13.95,7.69-29.06,0c0,0-16.58-98.16-16.48-121.52.05-10.51-3.16-36.4-6.89-62.8C105.22,277,99.17,240,99.17,240l64.58-4s-5.33,89.21-1,140S162.75,497.46,162.75,497.46Z"/><path class="cls-6" d="M163,250.89s-27.53,5.33-52.65,5.33A254.26,254.26,0,0,1,78,253.75c-10.48-1.39-18-2.86-18-2.86s-5.58.49-2.29-27c2.51-20.94,1.73-39.85,1.17-59.31-.07-2.16,0-4.72.11-7.57,1.07-22.68,7.93-63.52,13.16-65.71,0,0,7.78-2.89,21.51-4.3,0,.27,8,11.92,17.43,13.23,5.88-2.32,10.5-4.31,16.93-12.85a185.16,185.16,0,0,1,26.53,5.12s1,4.33,4.72,79.38C160.75,201.58,170.9,251,163,250.89Z"/><path class="cls-4" d="M78,253.75c-10.48-1.39-18-2.86-18-2.86s-5.58.49-2.29-27c2.51-20.94,1.73-39.85,1.17-59.31-.07-2.16,0-4.72.11-7.57,1.61,2.57,19.49,31.46,24.31,52.92C86.8,225.56,81.52,244,78,253.75Z"/><path class="cls-7" d="M117.21,375.94c.05-10.51-3.16-36.4-6.89-62.8,3.87-15.77,13.29-30.94,13.29-30.94C135.53,315.63,117.21,375.94,117.21,375.94Z"/><path class="cls-6" d="M33.43,180.61c-.65.55,1.64,6.22,5,13.62,6.94,15.19,18.47,37.63,18.47,37.63a66.59,66.59,0,0,1-3.5,10.24C34,226.86,21.51,213.9,13.52,204,2.3,190,0,182,0,182,43.19,94,73.58,90.8,73.58,90.8L70,148.9S35.43,179,33.43,180.61Z"/><path class="cls-2" d="M54.61,233s10.47-9.69,14.73-4.27,5,14,1.75,13.38S61,238.39,60,239.94s-5.31,4.52-6.63,2.16S54.61,233,54.61,233Z"/><path class="cls-2" d="M56.91,231.86a66.59,66.59,0,0,1-3.5,10.24C34,226.86,21.51,213.9,13.52,204c6-.45,14.81-2.6,24.92-9.73C45.38,209.42,56.91,231.86,56.91,231.86Z"/><path class="cls-6" d="M223.72,182s-2.3,8-13.52,22c-8,9.94-20.49,22.9-39.89,38.14a66.59,66.59,0,0,1-3.5-10.24s11.53-22.44,18.47-37.63c3.38-7.4,5.67-13.07,5-13.62-1.55-1.29-22.66-19.63-32.08-27.82l-4.48-3.89-2.16-57.24S180.53,94,223.72,182Z"/><path class="cls-2" d="M169.11,233s-10.47-9.69-14.73-4.27-5,14-1.74,13.38,10.07-3.69,11-2.14,5.31,4.52,6.63,2.16S169.11,233,169.11,233Z"/><path class="cls-2" d="M166.81,231.86a66.59,66.59,0,0,0,3.5,10.24c19.4-15.24,31.9-28.2,39.89-38.14-6-.45-14.81-2.6-24.92-9.73C178.34,209.42,166.81,231.86,166.81,231.86Z"/><path class="cls-4" d="M121.15,59.31v8c-3.36,2.37-7,3.72-10.06,3.67-2.69-.06-6.18-1.37-9.57-3.61V59.31a8.15,8.15,0,0,1,8.13-8.12H113A8.14,8.14,0,0,1,121.15,59.31Z"/><path class="cls-4" d="M130.45,56.1c-3.84,8.74-12.8,15-19.36,14.88-6.31-.12-17.09-7.23-20.31-16.85l0-.08-.07-.23s6.78,5.78,11.26,2.92h18.83A9.3,9.3,0,0,0,130.45,56.1Z"/><path class="cls-2" d="M113.37,58.34h-4.06c-.93,0-2.12-1.53-2.12-2.46a4.5,4.5,0,0,1,2.12-.93h4.06a3.38,3.38,0,0,1,2.51,1.33A2.79,2.79,0,0,1,113.37,58.34Z"/><path class="cls-8" d="M105.15,55.5s2.33,4,6.4,3.83a7.54,7.54,0,0,0,6-3.83S110.66,54.09,105.15,55.5Z"/></svg>