<svg id="Слой_1" data-name="Слой 1" xmlns="http://www.w3.org/2000/svg" viewBox="0 0 168.21 491.92"><defs><style>.cls-1{fill:#ffb27d;}.cls-2{fill:#bc3f3f;}.cls-3{fill:#ed7d2b;}.cls-4{fill:#233862;}.cls-5{fill:#ed985f;}.cls-6{fill:#2c3a64;}.cls-7{fill:#2b478b;}.cls-8{fill:#f99746;}.cls-9{fill:#fff;}</style></defs><title>Krejčí - secondQuater</title><polygon class="cls-1" points="63.73 431.25 59.92 447.29 54.86 468.56 39.05 468.56 38.11 448.18 37.38 432.47 63.73 431.25"/><path class="cls-2" d="M113.82,82.18s12.51-13.38,20.64-2.89,17.15,17.58,29.63,25.65-11,71.34-26.66,70S58,123.8,113.82,82.18Z"/><path class="cls-3" d="M51.54,75.82c3.12-2.34,31.87-12.21,59.9-2.5s-21.71,36.75-21.71,36.75l-16.12.69Z"/><path class="cls-4" d="M32.8,491.92s0-7.74,1.1-10.31,5.15-13.05,5.15-13.05H54.86s2.94,9.55,3.12,12.68,0,10.68,0,10.68Z"/><path class="cls-4" d="M133.17,491.92s0-7.74-1.1-10.31-5.15-13.05-5.15-13.05H111.11s-2.94,9.55-3.12,12.68,0,10.68,0,10.68Z"/><path class="cls-1" d="M69.84,57.54s-.56,17.23-2.77,24.95L49.62,120.12l65.71-15.62L99.66,82.85s-4.73-23.11-2.25-31.66S69.84,57.54,69.84,57.54Z"/><path class="cls-5" d="M69.74,59.92s5.2,12.5,15,12.23,12-11.35,12-11.35Z"/><path class="cls-6" d="M63.9,49.79S60.74,34,58.53,29.23,54.49,3.13,78.94,2c0,0,9.37,1.11,14.52-2,0,0,0,3.13-1.29,4.23a16.27,16.27,0,0,1,15.08,5.33c6.61,7.35-4.42,33.09-3.86,39.15Z"/><path class="cls-1" d="M83.61,67.32c-7.1-.13-20.15-9.57-20.15-21.27V27.8c0-4.27,3-7.76,6.62-7.76H97.14c3.63,0,6.61,3.49,6.61,7.76V45C103.75,57.28,91.74,67.46,83.61,67.32Z"/><path class="cls-6" d="M63.46,37.55s0-11,8.72-12.66,28.13,5.35,30.88-2.65-37.57-7.86-39.6-2.75S63.46,37.55,63.46,37.55Z"/><path class="cls-7" d="M93.74,227.58C98.09,214,98,283.64,80.54,361.92c-2.66,11.95-8.63,40.76-12.92,68.64H31.84c-.49-22.52-2.91-53.95-4.43-77.49-4.76-73.79,7.37-129.17,7.37-129.17Z"/><path class="cls-7" d="M139.66,353.07c-.4,22.56-5,52.53-5.39,74.5H98c-2.44-15.94-6.32-32.37-9.1-45.62-2-9.4-3.41-17.21-3.39-22.11,0-9.58-6-37.22-9.63-61.58,0,0,0-.07,0-.1-.14-.94-.27-1.87-.4-2.8-4.84-34.25-3.13-67.78-3.13-67.78l61.25-3.82S140.71,292.89,139.66,353.07Z"/><path class="cls-4" d="M29.93,252.28S43.71,269,81.15,266.57s55.3-8.93,55.3-8.93Z"/><path class="cls-8" d="M136.45,257.64c-12.23,1.67-95.43,6-106.52-5.36S48,86.12,48,86.12s3.31-1,8.89-2c2.85-.54,6.28-1.09,10.16-1.56,0,1.21,1,19.46,16.16,27,0,0,18.2-7.29,16.42-26.7,0-.23,0-.45-.08-.67,2.43.26,4.89.6,7.36,1A104.11,104.11,0,0,1,122,86.93S148.68,256,136.45,257.64Z"/><path class="cls-8" d="M30.63,177.72c-.49.64,2.82,5.4,7.5,11.53,9.63,12.58,25,30.89,25,30.89a64.07,64.07,0,0,1-1.07,10.22c-21.16-10-35.46-19.35-44.94-26.86C3.82,192.94,0,186,0,186,21.37,95.61,48.79,86.2,48.79,86.2l9,54.47S32.13,175.76,30.63,177.72Z"/><path class="cls-9" d="M106.94,83.2,101.43,100l-7.35,10.79-10.54,5.72-9.93-5.72L56.92,84.11c2.85-.54,6.28-1.09,10.16-1.56a17.27,17.27,0,0,0,2.07,6.81c6,11.63,23,11.74,29,.07a13.27,13.27,0,0,0,1.53-6.58c0-.23,0-.45-.08-.67C102,82.44,104.47,82.78,106.94,83.2Z"/><path class="cls-1" d="M63.16,220.15c0,.17,0,.35,0,.52,0,1.14-.11,2.21-.2,3.18a16.51,16.51,0,0,1-1.75,2.07,18.85,18.85,0,0,1-3.1,2.51l-1.59-.78c-18.12-9-30.73-17.32-39.35-24.14,5.47-1.69,13.14-5.54,21-14.26C47.76,201.83,63.16,220.15,63.16,220.15Z"/><path class="cls-8" d="M168.21,182.69s-3.69,7-16.81,17.82c-9.34,7.68-23.46,17.3-44.42,27.7A63.18,63.18,0,0,1,105.72,218s15-18.6,24.43-31.36c4.56-6.22,7.78-11,7.28-11.68-1.19-1.5-17.25-22.62-24.41-32l-3.41-4.49,9.07-53.56S145.11,92.71,168.21,182.69Z"/><path class="cls-1" d="M151.4,200.51c-8.52,7-21,15.63-39.06,25l-1.36.69a25.11,25.11,0,0,1-4.55-9l1.17-1.46c4.32-5.39,15.17-19,22.54-29C138.15,195.23,145.89,198.92,151.4,200.51Z"/><path class="cls-1" d="M99.58,82.18a145.47,145.47,0,0,0-32.5.37v-.06S97.16,63.88,99.58,82.18Z"/><polygon class="cls-3" points="69.41 134.8 68.8 134.8 68.34 105.8 69.9 105.8 69.41 134.8"/><path class="cls-3" d="M68.73,134c-.56.85-1.82,3.66-1,4s2.31.32,2.7-.08S69.79,132.44,68.73,134Z"/><polygon class="cls-3" points="97.89 134.8 97.27 134.8 96.82 105.8 98.38 105.8 97.89 134.8"/><path class="cls-3" d="M97.21,134c-.56.85-1.83,3.66-1,4s2.31.32,2.71-.08S98.27,132.44,97.21,134Z"/><path class="cls-3" d="M73.61,110.76,48,86.12S42.28,82,51.38,75.92,73.61,110.76,73.61,110.76Z"/><path class="cls-3" d="M94.08,110.76l25.57-24.64s5.76-4.09-3.34-10.2S94.08,110.76,94.08,110.76Z"/><path class="cls-3" d="M126.18,230.73c-5,.42-9.14-.83-12.35-3.69a16.61,16.61,0,0,1-1.49-1.54,24.32,24.32,0,0,1-4.74-9.81,32.89,32.89,0,0,1-1-6.46l0-.72H65.26l0,.77a23.13,23.13,0,0,1-2.14,11.39,16.1,16.1,0,0,1-3,4.19,17.48,17.48,0,0,1-3.64,2.79,25.11,25.11,0,0,1-11.76,3.08l-.77,0v17.45h83V230.66Z"/><path class="cls-3" d="M137.43,175s-23-30.21-4.8-39c7.23-3.49,17.42,38,12,41.87s-14.45,8.81-14.45,8.81Z"/><path class="cls-3" d="M33.28,170s8-37.93,1-34-17.42,38-12,41.87,14.45,8.81,14.45,8.81Z"/><path class="cls-2" d="M134.2,174.89c-10.52-13-14.44-34.24-13.91-56.12A255.64,255.64,0,0,1,123.1,87l8.62,6.72c0,.12-5,9.11-5.33,25.09-.35,14.61-1,25.74,7.22,51.18Z"/><path class="cls-4" d="M54.37,438.63H35.84c-1.64.18-4.2-2.22-4.2-5.65,0,0,0-8.23-.58-9.69-2.39-6.41,1.16-6.76,4.59-6.76h33.8c3.43,0-1.83,10.61-1.83,14l1.22,4.5C68.84,438.49,57.8,438.63,54.37,438.63Z"/><path class="cls-9" d="M59.92,447.29l-5.06,21.27H39.05l-.94-20.38C40.46,449.05,48.39,451.26,59.92,447.29Z"/><polygon class="cls-1" points="102.27 431.25 106.08 447.29 111.14 468.56 126.95 468.56 127.89 448.18 128.62 432.47 102.27 431.25"/><path class="cls-4" d="M111.63,438.63h18.53c1.64.18,4.2-2.22,4.2-5.65,0,0,0-8.23.58-9.69,2.39-6.41-1.16-6.76-4.59-6.76H96.55c-3.43,0,1.83,10.61,1.83,14l-1.22,4.5C97.16,438.49,108.2,438.63,111.63,438.63Z"/><path class="cls-9" d="M106.08,447.29l5.06,21.27H127l.94-20.38C125.54,449.05,117.61,451.26,106.08,447.29Z"/><path class="cls-9" d="M76.87,54.59a8.61,8.61,0,0,0,6.74,3.19,8,8,0,0,0,6.29-3.19S82.68,53.4,76.87,54.59Z"/></svg>