<svg id="Layer_1" data-name="Layer 1" xmlns="http://www.w3.org/2000/svg" viewBox="0 0 1480.56 1480.55"><defs><style>.cls-1{fill:#fff;}.cls-2{fill:#00a8f0;}.cls-3{fill:#fcc200;}.cls-4{fill:#7b6ce6;}</style></defs><title>Artboard 17</title><circle class="cls-1" cx="740.28" cy="740.28" r="740.28"/><path class="cls-2" d="M1223.51,1301c-193,166-466.49,227.92-724.47,139C295.74,1369.83,142.59,1220,62.5,1037.48A739.5,739.5,0,0,1,.22,757.89L142.8,754.5a594.91,594.91,0,0,0,50,226c92.47,210.49,302.78,357.48,547.43,357.48A595.26,595.26,0,0,0,1130.46,1193Z"/><path class="cls-3" d="M740.29,0V142.62h0a595.39,595.39,0,0,0-398.22,152l-95-106.29C381.64,68.3,557.4,0,740.28,0Z"/><circle class="cls-1" cx="402.27" cy="160.59" r="17.97"/><circle class="cls-1" cx="611.86" cy="81.39" r="17.97"/><circle class="cls-1" cx="807.64" cy="73.45" r="17.97"/><circle class="cls-1" cx="1026.57" cy="142.62" r="17.97"/><circle class="cls-1" cx="1270.26" cy="331.97" r="17.97"/><circle class="cls-1" cx="1380.91" cy="548.57" r="17.97"/><circle class="cls-1" cx="1409.7" cy="842.92" r="17.97"/><circle class="cls-1" cx="1324.17" cy="1080.64" r="17.97"/><path class="cls-4" d="M1380.91,369.7l-124.24,69.51C1153,261.81,960.58,142.62,740.29,142.62V0a741.28,741.28,0,0,1,640.62,369.7Z"/><circle class="cls-1" cx="885.2" cy="91.42" r="17.97"/><circle class="cls-1" cx="1078.57" cy="165.28" r="17.97"/><circle class="cls-1" cx="1241.48" cy="305.32" r="17.97"/><circle class="cls-1" cx="933.99" cy="1377.11" r="17.97"/><circle class="cls-1" cx="495.13" cy="1359.14" r="17.97"/></svg>