<svg id="pineSpiral" xmlns="http://www.w3.org/2000/svg" xmlns:xlink="http://www.w3.org/1999/xlink" viewBox="0 0 711.62 711.62">
  <defs>
    <style>
      .cls-1 {
        fill: url(#radial-gradient);
      }

      .cls-2 {
        fill: url(#radial-gradient-2);
      }

      .cls-3 {
        fill: url(#radial-gradient-3);
      }

      .cls-4 {
        fill: url(#radial-gradient-4);
      }

      .cls-22, .cls-5 {
        fill: #7b6ce6;
      }

      .cls-23, .cls-6 {
        fill: #00a8f0;
      }

      .cls-24, .cls-7 {
        fill: #2dd687;
      }

      .cls-10, .cls-12, .cls-13, .cls-14, .cls-15, .cls-16, .cls-8, .cls-9 {
        fill: none;
        stroke-miterlimit: 10;
      }

      .cls-13, .cls-8 {
        stroke: #fcc200;
      }

      .cls-9 {
        stroke: #00a8f0;
      }

      .cls-10, .cls-15 {
        stroke: #2dd687;
      }

      .cls-11 {
        fill: #fff;
      }

      .cls-12, .cls-16 {
        stroke: #7b6ce6;
      }

      .cls-13, .cls-14, .cls-15, .cls-16 {
        stroke-width: 0.25px;
      }

      .cls-14 {
        stroke: #40bef4;
      }

      .cls-17, .cls-20 {
        fill: #fcc200;
      }

      .cls-18, .cls-21 {
        fill: #fcda00;
      }

      .cls-19 {
        fill: #fffbf7;
      }

      .cls-20, .cls-21, .cls-22, .cls-23, .cls-24 {
        fill-rule: evenodd;
      }
    </style>
    <radialGradient id="radial-gradient" cx="436.29" cy="500.79" r="266.27" gradientTransform="matrix(0, -1, -0.82, 0, 767.46, 791.95)" gradientUnits="userSpaceOnUse">
      <stop offset="0" stop-color="#fcda00"/>
      <stop offset="0.41" stop-color="#fde75c"/>
      <stop offset="1" stop-color="#fffbe5"/>
    </radialGradient>
    <radialGradient id="radial-gradient-2" cx="477.67" cy="271.88" r="331.42" gradientTransform="matrix(0, 1, 0.97, 0, 89.95, -121.64)" gradientUnits="userSpaceOnUse">
      <stop offset="0" stop-color="#00a8f0"/>
      <stop offset="0.41" stop-color="#5cc7f5"/>
      <stop offset="1" stop-color="#e5f6fd"/>
    </radialGradient>
    <radialGradient id="radial-gradient-3" cx="557.88" cy="398.72" r="345.59" gradientTransform="matrix(-1, 0, 0, 0.96, 911.75, -26.99)" gradientUnits="userSpaceOnUse">
      <stop offset="0" stop-color="#00d9b5"/>
      <stop offset="0.41" stop-color="#5ce7d0"/>
      <stop offset="1" stop-color="#e5fbf8"/>
    </radialGradient>
    <radialGradient id="radial-gradient-4" cx="355.29" cy="351.93" r="320.35" gradientTransform="matrix(1, 0, 0, -0.83, 0.07, 646.19)" gradientUnits="userSpaceOnUse">
      <stop offset="0" stop-color="#7b6ce6"/>
      <stop offset="0.7" stop-color="#cdc7f5"/>
      <stop offset="1" stop-color="#f2f0fc"/>
    </radialGradient>
  </defs>
  <title>captions-spiral</title>
  <g>
    <path class="cls-1" d="M355.81,89.81C224.74,106.5,130,221.73,137,355.81H355.81Z"/>
    <path class="cls-2" d="M355.81,687.37c6.27,0,15.75-.14,22.09-.48,173.64-9.16,307-157.35,297.81-331a.28.28,0,0,0,0-.09H355.81Z"/>
    <path class="cls-3" d="M9.92,355.81C19.78,542.51,171,687.28,355.81,687.37V355.81Z"/>
    <path class="cls-4" d="M675.71,355.81C667.41,199.67,534.14,79.78,378,88c-6.41.34-15.91,1-22.17,1.79v266Z"/>
    <path class="cls-5" d="M462.43,350.18A106.77,106.77,0,0,0,355.81,249V355.81H462.58C462.58,353.94,462.53,352.07,462.43,350.18Z"/>
    <path class="cls-6" d="M355.81,462.58c1.86,0,3.74-.05,5.62-.15A106.77,106.77,0,0,0,462.58,355.81H355.81Z"/>
    <path class="cls-7" d="M249,355.81c0,1.86.05,3.74.15,5.62A106.77,106.77,0,0,0,355.81,462.58V355.81Z"/>
    <path class="cls-8" d="M355.81,200.3A148.9,148.9,0,0,0,226,355.81"/>
    <path class="cls-9" d="M355.81,549.65c3.66,0,7.35-.08,11.05-.28C468.38,544,546.33,457.38,541,355.86h0v-.05"/>
    <path class="cls-10" d="M151.73,355.81C157.49,465,247.78,549.59,355.81,549.65"/>
    <circle class="cls-11" cx="355.81" cy="355.81" r="81.08"/>
    <path class="cls-12" d="M541,355.81A165.57,165.57,0,0,0,366.91,199.25c-3.75.2-7.44.58-11.1,1.05"/>
    <path class="cls-13" d="M355.81,107.7C233.55,123.26,145.14,230.75,151.73,355.81"/>
    <path class="cls-14" d="M355.81,665.07c5.85,0,14.69-.13,20.6-.44,162-8.55,286.33-146.77,277.79-308.74a.25.25,0,0,0,0-.08"/>
    <path class="cls-15" d="M33.18,355.81C42.37,530,183.46,665,355.81,665.07"/>
    <path class="cls-16" d="M654.19,355.81c-7.73-145.64-132-257.47-277.7-249.78-6,.31-14.84.92-20.68,1.67"/>
    <path class="cls-17" d="M355.81,274.73V249c-1.87,0-3.74.05-5.63.15A106.78,106.78,0,0,0,249,355.81h25.7A81.08,81.08,0,0,1,355.81,274.73Z"/>
  </g>
  <g id="outlines">
    <g>
      <path class="cls-6" d="M561.41,487.89a2.87,2.87,0,0,1-1.13-3.9l0,0a2.76,2.76,0,0,1,1.6-1.34L559,480.94l.45-.8,7.25,4.15-.45.79-.51-.29a2.83,2.83,0,0,1-.34,2,2.87,2.87,0,0,1-3.93,1.06Zm.45-.8a2.07,2.07,0,0,0,2.85-.73v0a2.11,2.11,0,0,0,.07-2.08l-2-1.13a2.14,2.14,0,0,0-1.76,1.11,2.08,2.08,0,0,0,.8,2.84Z"/>
      <path class="cls-6" d="M557.64,494.07a3,3,0,1,1,4.06-1l0,0a2.89,2.89,0,0,1-3.94,1Zm.48-.79a2,2,0,1,0-.72-2.82,2,2,0,0,0,.72,2.82l0,0Z"/>
      <path class="cls-6" d="M553.75,496.08c-.47.73-.52,1.4,0,1.7s.83.1,1.2-.3l.86-.94c.63-.68,1.38-1.08,2.17-.56s.89,1.67.16,2.8c-.64,1-1.64,1.7-2.8,1.07l.46-.72c.64.3,1.23,0,1.72-.76s.46-1.3,0-1.58-.75-.15-1.27.41l-.76.83a1.63,1.63,0,0,1-2.21.53c-.91-.6-.89-1.76-.14-2.9s1.82-1.71,3-1.13l-.47.71C555,495,554.31,495.23,553.75,496.08Z"/>
      <path class="cls-6" d="M555.05,503.05l-4.6-3.14.52-.75,4.6,3.14Zm2.34.28a.6.6,0,0,1,.17.83v0a.61.61,0,1,1-1-.61l0-.07a.6.6,0,0,1,.83-.17Z"/>
      <path class="cls-6" d="M555.74,507.24l-7-4.88.52-.75,7,4.89Z"/>
      <path class="cls-6" d="M546.62,510.08a3,3,0,1,1,4.12-.68l0,0a2.88,2.88,0,0,1-4,.72Zm.54-.74a2,2,0,1,0-.49-2.87,2,2,0,0,0,.49,2.87l0,0Z"/>
      <path class="cls-6" d="M544.69,517.11l-2.79-5.49.52-.66,6,1.33-.6.77L543.07,512l2.21,4.35Z"/>
      <path class="cls-6" d="M540.64,522.07l-4.31-3.53.58-.71.45.37a2.82,2.82,0,0,1,.68-2,2.93,2.93,0,0,1,4.53,3.71,2.83,2.83,0,0,1-1.8,1.06l.44.36Zm-2.46-3.2,1.77,1.45a2.09,2.09,0,1,0-1.77-1.45Zm4.7,2.14.54-.66.72,1.83-.65.79Z"/>
      <path class="cls-6" d="M534,526.09l-2.4-2.1.6-.69,2.37,2.07a1.55,1.55,0,0,0,2.18.11,1,1,0,0,0,.2-.21,2.35,2.35,0,0,0,.48-2l-2.95-2.57.6-.69,4.19,3.67-.6.68-.46-.41a2.87,2.87,0,0,1-.74,2,2.3,2.3,0,0,1-3.23.36A1.7,1.7,0,0,1,534,526.09Z"/>
      <path class="cls-6" d="M533.83,529.79,529.72,526l.62-.67,4.11,3.75Zm1.36,2.64-.51-2,.57-.62.62,1.86Z"/>
      <path class="cls-6" d="M525,531.93c-.6.62-.78,1.27-.38,1.66s.79.26,1.24-.06l1-.76c.75-.54,1.56-.79,2.24-.13s.55,1.81-.39,2.77-1.94,1.35-3,.5l.6-.61c.56.42,1.21.23,1.83-.41s.71-1.19.35-1.54-.7-.3-1.33.15l-.9.67a1.63,1.63,0,0,1-2.27.09c-.79-.76-.54-1.9.42-2.87s2.12-1.33,3.17-.53l-.6.61C526.38,531.07,525.7,531.21,525,531.93Z"/>
      <path class="cls-6" d="M519.17,536.92a3.48,3.48,0,0,1,.7-1c1-1,2-.88,3,.16l1.9,2,1-1,.54.56-1,1,1.44,1.47-.66.64-1.43-1.47-1.5,1.46-.54-.56,1.5-1.46-1.9-2c-.67-.69-1.24-.69-1.8-.14a2.77,2.77,0,0,0-.55.81Z"/>
      <path class="cls-6" d="M518.17,545.4l-3.79-4.08.67-.62.39.42a2.84,2.84,0,0,1,.94-1.86,2.93,2.93,0,0,1,4,4.29,2.8,2.8,0,0,1-1.93.8l.4.42Zm-2-3.5,1.55,1.67a2.09,2.09,0,1,0-1.55-1.66Z"/>
      <path class="cls-6" d="M514.44,548.88l-.57-.65a2.54,2.54,0,0,0,.8-2.33l-2.4-2.71.68-.6,3.69,4.17-.68.6-.6-.68A2.64,2.64,0,0,1,514.44,548.88Z"/>
      <path class="cls-6" d="M506.88,547.91a3.4,3.4,0,0,1,.77-.92c1-.88,2-.73,3,.38l1.76,2.08,1.11-.94.5.6-1.11.93,1.32,1.57-.7.59-1.32-1.57-1.6,1.36-.5-.6,1.6-1.36L509.92,548c-.62-.74-1.19-.78-1.79-.26a3,3,0,0,0-.61.76Z"/>
      <path class="cls-6" d="M505.29,556.29,501.8,552l.71-.57.4.5A2.81,2.81,0,0,1,504,550a2.31,2.31,0,0,1,3.27.24,2.35,2.35,0,0,1,.19.25l2,2.47-.71.57-1.95-2.43a1.57,1.57,0,0,0-2.17-.5,1.66,1.66,0,0,0-.21.16,2.33,2.33,0,0,0-.81,1.91l2.44,3Z"/>
      <path class="cls-6" d="M497.36,558.83a2.88,2.88,0,0,1,.5-4l0,0a2.85,2.85,0,0,1,2-.6l-2-2.69.73-.55,5,6.67-.72.55-.36-.47a2.8,2.8,0,0,1-1.13,1.75,2.87,2.87,0,0,1-4-.57Zm.73-.55a2.08,2.08,0,0,0,2.91.45l0,0a2.11,2.11,0,0,0,.88-1.88L500.53,555a2.15,2.15,0,0,0-2.06.33,2.09,2.09,0,0,0-.39,2.92v0Z"/>
      <path class="cls-6" d="M493.49,565l-3.22-4.55.75-.53.36.52a2.84,2.84,0,0,1,1.18-1.78,2.31,2.31,0,0,1,3.42.7l1.83,2.58-.75.53-1.8-2.55a1.56,1.56,0,0,0-2.12-.63,1.14,1.14,0,0,0-.23.15,2.33,2.33,0,0,0-.92,1.85l2.24,3.18Zm4.34-.46A1.21,1.21,0,0,1,495.9,566a1.22,1.22,0,0,1,.23-1.71l0,0a1.15,1.15,0,0,1,1.61.16Zm-.45.31a.65.65,0,0,0-.9-.18l0,0a.67.67,0,0,0,.77,1.09.65.65,0,0,0,.18-.9l0,0Z"/>
    </g>
    <g>
      <path class="cls-7" d="M227.29,574.17l.41-.76a2.55,2.55,0,0,0,2.47,0l1.74-3.18.8.44L230,575.52l-.8-.44.43-.8A2.66,2.66,0,0,1,227.29,574.17Z"/>
      <path class="cls-7" d="M222.83,568.27a3,3,0,1,1,1.13,4h0a2.89,2.89,0,0,1-1.15-3.92Zm.8.46a2.1,2.1,0,1,0,0-.05l0,.05Z"/>
      <path class="cls-7" d="M216.66,567.15l5.18-1.83-3-1.8.4-.67,4.12,2.51-.24.4-5.24,1.87,2.89,1.75-.41.67-4-2.45Z"/>
      <path class="cls-7" d="M210.37,563.76l5.22-3.26.7.45-.8,6.11-.81-.53.63-4.84-4.13,2.6Z"/>
      <path class="cls-7" d="M206.49,557.78a3,3,0,1,1,.83,4.1l0,0a2.88,2.88,0,0,1-.86-4Zm.77.52a2,2,0,1,0,2.85-.59,2,2,0,0,0-2.85.59Z"/>
      <path class="cls-7" d="M202.41,560.85a.62.62,0,0,1-.85.15h0a.61.61,0,1,1,.86-.14Zm3.87-7.34c.91-1.29,1.74-1.61,3.08-.68l-.41.69c-.8-.52-1.27-.41-1.87.43l-3.6,5.09-.74-.52Z"/>
      <path class="cls-7" d="M197.05,557a.61.61,0,0,1-.84.14l0,0a.6.6,0,0,1,.72-1h0a.61.61,0,0,1,.14.84Zm.38-2.32,3.33-4.47.73.55-3.33,4.46Z"/>
      <path class="cls-7" d="M193,548.25l2-2.52.72.56-1.93,2.49a1.55,1.55,0,0,0,0,2.19,1.24,1.24,0,0,0,.22.18,2.34,2.34,0,0,0,2,.36l2.4-3.1.72.56-3.41,4.4-.72-.56.38-.49a2.83,2.83,0,0,1-2-.61,2.31,2.31,0,0,1-.55-3.21A2.43,2.43,0,0,1,193,548.25Z"/>
      <path class="cls-7" d="M187.51,543.26a3,3,0,1,1,.45,4.16l0,0a2.89,2.89,0,0,1-.49-4Zm.71.58a2,2,0,1,0,2.89-.32,2,2,0,0,0-2.86.28l0,0Z"/>
      <path class="cls-7" d="M180.6,541l5.63-2.5.64.55L185.22,545l-.74-.63,1.32-4.7-4.46,2Z"/>
      <path class="cls-7" d="M175.86,536.7l3.74-4.12.68.61-.39.42a2.84,2.84,0,0,1,1.93.79,2.93,2.93,0,0,1-3.94,4.33,2.82,2.82,0,0,1-1-1.85l-.39.43Zm3.31-2.29-1.53,1.68a2.12,2.12,0,1,0,3.53-1.15h0a2.09,2.09,0,0,0-2-.53Z"/>
      <path class="cls-7" d="M172.2,534.58l-.14,2.28-.64-.62,0-1.57-1.55.13-.64-.62,2.26-.24Zm1.62-4.88-.69-.66a2.55,2.55,0,0,1,3.31.35,2.93,2.93,0,1,1-4.05,4.23,2.55,2.55,0,0,1-.48-3.3l.69.65a1.61,1.61,0,0,0,.37,2,2.09,2.09,0,0,0,2.89-3,1.59,1.59,0,0,0-2-.29Z"/>
      <path class="cls-7" d="M167.4,525.12l2.27-2.24.64.64-2.23,2.22a1.55,1.55,0,0,0-.27,2.18l.2.2a2.37,2.37,0,0,0,2,.63l2.78-2.76.64.65-4,3.92-.64-.65.44-.44a2.82,2.82,0,0,1-2-.87,2.3,2.3,0,0,1-.13-3.25Z"/>
      <path class="cls-7" d="M161,525.87l2-.37.59.62-1.9.49Zm2.73-1.17,4-3.84.63.66-4,3.84Z"/>
      <path class="cls-7" d="M160.38,517.59l2.36-2.15.61.67L161,518.23a1.56,1.56,0,0,0-.35,2.17,1.9,1.9,0,0,0,.19.21,2.34,2.34,0,0,0,1.94.7l2.88-2.64.62.67L160,525.1l-.62-.68,2.64-2.41a2.8,2.8,0,0,1-1.91-1,2.29,2.29,0,0,1,0-3.25A1.7,1.7,0,0,1,160.38,517.59Z"/>
      <path class="cls-7" d="M155.85,511.78a3,3,0,1,1-.25,4.18l0,0a2.88,2.88,0,0,1,.2-4.07A.6.6,0,0,1,155.85,511.78Zm.6.7a2,2,0,0,0,2.74,3,2,2,0,0,0-2.7-3l0,0Z"/>
      <path class="cls-7" d="M149.11,503.51a2.86,2.86,0,0,1,4,.39l0,0a2.78,2.78,0,0,1,.66,2l2.64-2.1.57.71-6.53,5.21L150,509l.45-.36a2.91,2.91,0,0,1-1.31-5.13Zm.57.71a2.09,2.09,0,0,0-.37,2.92v0a2.14,2.14,0,0,0,1.91.83l1.78-1.43a2.13,2.13,0,0,0-.39-2,2.09,2.09,0,0,0-2.93-.32l0,0Z"/>
      <path class="cls-7" d="M144.75,497.76a3,3,0,1,1-.54,4.15l0,0a2.88,2.88,0,0,1,.47-4.05Zm.55.74a2,2,0,1,0,2.89.36,2,2,0,0,0-2.89-.36l0,0Z"/>
      <path class="cls-7" d="M136,495.35l6.93-4.94.53.74-.47.33a2.82,2.82,0,0,1,1.72,1.18,2.93,2.93,0,0,1-4.77,3.4h0a2.84,2.84,0,0,1-.54-2l-2.87,2Zm6.12-3.25-1.85,1.32a2.09,2.09,0,1,0,1.85-1.32Z"/>
      <path class="cls-7" d="M136.22,486.23l2.65-1.78.51.76L136.77,487a1.56,1.56,0,0,0-.67,2.09,1,1,0,0,0,.15.24,2.35,2.35,0,0,0,1.82,1l3.24-2.18.51.76L137.2,492l-.51-.75.52-.35a2.83,2.83,0,0,1-1.75-1.23,2.29,2.29,0,0,1,.49-3.21A1.27,1.27,0,0,1,136.22,486.23Z"/>
      <path class="cls-7" d="M131.52,487.17a.6.6,0,0,1-.83-.16l0,0a.62.62,0,0,1,.15-.85.61.61,0,0,1,.85.15.08.08,0,0,1,0,0,.59.59,0,0,1-.16.83Zm1.17-2,4.68-3,.49.76-4.68,3Z"/>
      <path class="cls-7" d="M133,480l1.55.4,1.27-.78.48.77L129,484.84l-.48-.78,5-3.06-4-1.05-.62-1,3.24.81,1.27-4.1.62,1Z"/>
      <path class="cls-7" d="M125.62,475.6l.43.74-2,0-.51-.88Zm-.21-2.48,4.82-2.8.46.79-.5.29a2.81,2.81,0,0,1,1.6,1.33,2.93,2.93,0,0,1-5.06,2.95,2.81,2.81,0,0,1-.36-2.06l-.5.29Zm3.85-1.19-2,1.15a2.1,2.1,0,1,0,3.72,0A2.12,2.12,0,0,0,129.26,471.93Z"/>
      <path class="cls-7" d="M124,465.57l2.8-1.53.44.8-2.76,1.51a1.54,1.54,0,0,0-.86,2,2.1,2.1,0,0,0,.13.26,2.38,2.38,0,0,0,1.72,1.14l3.43-1.88.44.8-4.89,2.67-.44-.8.55-.3a2.82,2.82,0,0,1-1.63-1.38,2.31,2.31,0,0,1,.79-3.16Z"/>
      <path class="cls-7" d="M117.59,464.48l2,.21.39.76-2-.06Zm3-.36,4.94-2.57.42.81L121,464.93Z"/>
    </g>
    <g>
      <path class="cls-17" d="M189.59,323.83a2.88,2.88,0,0,1,2.63,3.1v0a2.79,2.79,0,0,1-.91,1.88l3.36.33-.09.9-8.31-.81.09-.91.58.06a2.91,2.91,0,0,1,2.63-4.59Zm-.09.91a2.08,2.08,0,0,0-2.3,1.83v0a2.09,2.09,0,0,0,.78,1.92l2.27.22a2.12,2.12,0,0,0-.73-4Z"/>
      <path class="cls-17" d="M190.55,316.65a3,3,0,1,1-3.3,2.57v0a2.89,2.89,0,0,1,3.2-2.54Zm-.12.92a2,2,0,1,0,1.79,2.29,2,2,0,0,0-1.79-2.29Z"/>
      <path class="cls-17" d="M185.32,313.21l8.41,1.38-.15.9-8.41-1.38Z"/>
      <path class="cls-17" d="M189.64,306.09l7.48,5.27-.18.95-2.32-1.63-6.19,1.74.18-1,5.14-1.38-4.29-3Z"/>
      <path class="cls-17" d="M196.16,302.23a4,4,0,0,1-.06,1.19c-.3,1.33-1.19,1.81-2.6,1.49l-2.66-.6-.32,1.42-.76-.18.32-1.41-2-.45.2-.89,2,.45.46-2.05.76.17-.46,2.05,2.66.6c.93.21,1.41-.1,1.58-.87a3.21,3.21,0,0,0,0-1Z"/>
      <path class="cls-17" d="M195.34,295.5l0,0h0L194.17,300a1.94,1.94,0,0,0,2.28-1.46,1.58,1.58,0,0,0-.33-1.63l.25-1a2.5,2.5,0,0,1,.87,2.81,2.93,2.93,0,0,1-5.69-1.41,2.71,2.71,0,0,1,3.24-2l.22.06Zm-1.79,4.35.93-3.63a1.75,1.75,0,0,0-2.14,1.25.19.19,0,0,0,0,.08,1.89,1.89,0,0,0,1.23,2.3Z"/>
      <path class="cls-17" d="M197.59,290l.27-.91a2.54,2.54,0,0,1,1.21,3.1,2.93,2.93,0,0,1-5.62-1.67,2.55,2.55,0,0,1,2.72-1.93l-.27.91a1.62,1.62,0,0,0-1.64,1.26,2.09,2.09,0,0,0,4,1.19A1.6,1.6,0,0,0,197.59,290Z"/>
      <path class="cls-17" d="M198.8,282.15l3,1-.29.87-3-1a1.54,1.54,0,0,0-2.06.73,1.25,1.25,0,0,0-.1.27,2.33,2.33,0,0,0,.33,2l3.7,1.25-.29.86-8.07-2.72.29-.86,3.39,1.14a2.81,2.81,0,0,1-.09-2.13A2.3,2.3,0,0,1,198.5,282Z"/>
      <path class="cls-17" d="M201.28,275.5l3,1.13-.32.85L201,276.37a1.54,1.54,0,0,0-2.09.65c0,.09-.08.18-.11.27a2.39,2.39,0,0,0,.25,2l3.66,1.38-.32.85-5.2-2,.32-.85.58.22a2.85,2.85,0,0,1,0-2.13,2.3,2.3,0,0,1,2.91-1.46A1.48,1.48,0,0,1,201.28,275.5Z"/>
      <path class="cls-17" d="M197.83,272.16a.6.6,0,0,1-.35-.77v0a.61.61,0,0,1,1.12.46h0a.6.6,0,0,1-.77.35Zm2.34-.21,5.15,2.11-.34.85-5.16-2.11Z"/>
      <path class="cls-17" d="M206.07,267.54l.38-.87a2.55,2.55,0,0,1,.81,3.23,2.93,2.93,0,0,1-5.36-2.36,2.53,2.53,0,0,1,2.93-1.58l-.38.86a1.64,1.64,0,0,0-1.79,1.05,2.1,2.1,0,0,0,3.83,1.69A1.6,1.6,0,0,0,206.07,267.54Z"/>
      <path class="cls-17" d="M207.38,263.07l.5,1.53,1.34.64-.4.82-7.67-3.7.4-.82,5.25,2.54-1.28-4,.51-1.06,1.05,3.16,4.15-1.13-.52,1.07Z"/>
      <path class="cls-17" d="M207,254.81l-.4.76-1.08-1.65.48-.9Zm4.75-.17,0,0h0l-2.15,4.1a1.93,1.93,0,0,0,2.54-.9,1.56,1.56,0,0,0,.06-1.66l.47-.9a2.53,2.53,0,0,1,.2,2.94,2.93,2.93,0,0,1-5.2-2.68,2.68,2.68,0,0,1,3.61-1.22,1.24,1.24,0,0,1,.2.1,1.75,1.75,0,0,1,.29.18Zm-2.74,3.82,1.74-3.31a1.75,1.75,0,0,0-2.37.72l0,.07A1.9,1.9,0,0,0,209.05,258.46Z"/>
      <path class="cls-17" d="M214.39,244.07l4.78,2.86-.47.78-.49-.3a2.79,2.79,0,0,1-.39,2.05,2.93,2.93,0,0,1-5-3,2.78,2.78,0,0,1,1.62-1.31l-.5-.3Zm2.9,2.8-1.95-1.18a2.15,2.15,0,0,0-1,4,2.15,2.15,0,0,0,3-2.79Z"/>
      <path class="cls-17" d="M222.82,236.31a2.86,2.86,0,0,1,.83,4l0,0a2.85,2.85,0,0,1-1.69,1.21l2.79,1.89-.51.76-6.92-4.69.51-.75.49.33a2.79,2.79,0,0,1,.5-2,2.88,2.88,0,0,1,4-.76Zm-.51.75a2.09,2.09,0,0,0-2.9.52v0a2.14,2.14,0,0,0-.23,2.06l1.89,1.28a2.13,2.13,0,0,0,1.84-1,2.09,2.09,0,0,0-.58-2.9Z"/>
      <path class="cls-17" d="M221.26,232.05l-2.27.18.52-.72,1.56-.18-.34-1.52.52-.72.55,2.2Zm1.91-1.21.7.5a2.53,2.53,0,0,0-.27,2.45l2.94,2.12-.54.74-4.51-3.25.53-.74.74.53a2.66,2.66,0,0,1,.41-2.35Z"/>
      <path class="cls-17" d="M223.16,226.43l.69,1.94-.51.68-.8-1.8Zm1.6,2.51,4.45,3.35-.55.73-4.45-3.35Z"/>
      <path class="cls-17" d="M227.87,224.71l.68.53a2.52,2.52,0,0,0-.37,2.44l2.85,2.23-.56.72-4.38-3.43.56-.72.72.56A2.64,2.64,0,0,1,227.87,224.71Z"/>
      <path class="cls-17" d="M234.44,221.32a3,3,0,1,1-4.16.43l0,0a2.88,2.88,0,0,1,4-.47Zm-.59.71a2,2,0,1,0,.05,0Z"/>
      <path class="cls-17" d="M234.89,212.21l6.33,5.69-.6.67-.43-.38a2.82,2.82,0,0,1-.77,1.93,2.93,2.93,0,0,1-4.36-3.9,2.84,2.84,0,0,1,1.84-1l-2.62-2.35Zm4.5,5.27-1.7-1.53a2.09,2.09,0,1,0,1.7,1.52Z"/>
      <path class="cls-17" d="M244.39,210.57a3,3,0,1,1-4.18.11l0,0a2.88,2.88,0,0,1,4.07-.16A.6.6,0,0,1,244.39,210.57Zm-.64.66a2,2,0,1,0,.09,2.91,2,2,0,0,0-.09-2.91Z"/>
      <path class="cls-17" d="M247.3,203.89l2,5.83-.6.58-5.76-2.18.7-.67,4.56,1.73-1.57-4.62Z"/>
      <path class="cls-17" d="M248.93,201.11l-2.26-.31.66-.59,1.56.16v-1.56l.66-.59.08,2.27ZM254,202h0l-3.44,3.1a1.92,1.92,0,0,0,2.7,0,1.57,1.57,0,0,0,.63-1.53l.75-.68a2.52,2.52,0,0,1-.83,2.82,2.93,2.93,0,0,1-4-4.32,2.71,2.71,0,0,1,3.82.11,2.09,2.09,0,0,1,.14.17,1.44,1.44,0,0,1,.22.27Zm-3.89,2.63,2.78-2.5a1.76,1.76,0,0,0-2.48-.14l-.06.05a1.9,1.9,0,0,0-.24,2.59Z"/>
      <path class="cls-17" d="M255.55,192.81l5.46,6.53-.7.59-.37-.45a2.78,2.78,0,0,1-1,1.81,2.93,2.93,0,0,1-3.75-4.49,2.77,2.77,0,0,1,2-.7l-2.26-2.71Zm3.71,5.85-1.46-1.74a2.09,2.09,0,1,0,.66,3.65,2.13,2.13,0,0,0,.8-1.91Z"/>
      <path class="cls-17" d="M264.74,192.38l2,2.52-.73.56L264.05,193a1.56,1.56,0,0,0-2.13-.53l-.23.17a2.34,2.34,0,0,0-.85,1.88l2.39,3.09-.72.56-3.4-4.4.72-.56.38.49a2.85,2.85,0,0,1,1.11-1.82,2.3,2.3,0,0,1,3.24.27A1.51,1.51,0,0,1,264.74,192.38Z"/>
      <path class="cls-17" d="M270.86,188.8h0l-3.76,2.7a1.92,1.92,0,0,0,2.68.34,1.55,1.55,0,0,0,.78-1.45l.83-.59a2.48,2.48,0,0,1-1.14,2.7,2.93,2.93,0,0,1-3.45-4.73,2.71,2.71,0,0,1,3.78.54l.13.18A1.75,1.75,0,0,1,270.86,188.8Zm-4.33-2-.69.5-.22-1.95.83-.59Zm.17,4.17,3-2.18a1.76,1.76,0,0,0-2.45-.42l-.06.05A1.9,1.9,0,0,0,266.7,191Z"/>
      <path class="cls-17" d="M278,180.5l.78,6.11-.71.45-5.21-3.28.82-.52,4.12,2.6-.62-4.84Z"/>
      <path class="cls-17" d="M283.08,178.06l-.8,5.43,3-1.77.4.67-4.14,2.46-.24-.4.8-5.5-2.91,1.73-.4-.67,4-2.4Z"/>
      <path class="cls-17" d="M287.44,171.67l4.1,7.47-.8.43-.28-.5a2.79,2.79,0,0,1-1.36,1.58,2.93,2.93,0,0,1-2.82-5.14,2.8,2.8,0,0,1,2.06-.3l-1.69-3.09Zm2.51,6.46-1.1-2a2.12,2.12,0,0,0-2.07.06,2.09,2.09,0,1,0,3.17,1.94Z"/>
      <path class="cls-17" d="M292.15,171.48l-2.1-.89.79-.4,1.47.57.4-1.5.79-.4-.53,2.21Zm4.67,2.17h0l-4.14,2.07a1.92,1.92,0,0,0,2.59.76,1.57,1.57,0,0,0,1-1.31l.91-.46a2.51,2.51,0,0,1-1.55,2.5,2.93,2.93,0,0,1-2.67-5.21,2.7,2.7,0,0,1,3.65,1.12,1.24,1.24,0,0,1,.1.2A2.92,2.92,0,0,1,296.82,173.65Zm-4.46,1.5,3.35-1.67a1.75,1.75,0,0,0-2.35-.8l-.07,0a1.91,1.91,0,0,0-.93,2.44Z"/>
      <path class="cls-17" d="M296.56,167.14l3.62,7.72-.82.38-3.62-7.71Z"/>
      <path class="cls-17" d="M304.67,166.77l2.22,5.1-.83.36-.23-.53a2.82,2.82,0,0,1-1.51,1.45,2.93,2.93,0,0,1-2.34-5.37,2.78,2.78,0,0,1,2.08-.12l-.23-.53Zm.73,4-.91-2.09a2.12,2.12,0,0,0-3.09,2.63,2.12,2.12,0,0,0,4-.54Zm-3.21-4-.79.34.2-2,.93-.41Z"/>
      <path class="cls-17" d="M311.63,164l-.42,6.14-.78.31L306,166.23l.9-.35,3.55,3.35.32-4.87Z"/>
      <path class="cls-17" d="M317.66,161.85l1.86,5.26-.86.3-.19-.55a2.83,2.83,0,0,1-1.61,1.33,2.93,2.93,0,0,1-1.95-5.52,2.8,2.8,0,0,1,2.09,0l-.2-.55Zm.45,4-.76-2.15a2.09,2.09,0,1,0,.76,2.15Zm-2.92-4.27-.8.29.34-1.94,1-.34Z"/>
      <path class="cls-17" d="M325.43,161.9l.95,3-.88.27-.93-3a1.54,1.54,0,0,0-1.8-1.24,1.28,1.28,0,0,0-.28.07,2.4,2.4,0,0,0-1.46,1.46l1.16,3.74-.87.27-1.65-5.32.87-.27.19.6a2.79,2.79,0,0,1,1.67-1.32,2.29,2.29,0,0,1,2.94,1.39A1.49,1.49,0,0,1,325.43,161.9Z"/>
      <path class="cls-17" d="M327.78,155.88l-.62,2-.82.23.46-1.91Zm-.25,3L329,164.2l-.88.25-1.51-5.36Z"/>
    </g>
    <g>
      <path class="cls-5" d="M470.71,170.74l-2.32,5.07-.83-.38,2.31-5.07Zm-.12-2.35a.6.6,0,0,1,.79-.31h0a.61.61,0,1,1-.39,1.15l-.11-.05a.59.59,0,0,1-.32-.78v0Z"/>
      <path class="cls-5" d="M476.41,176.09,475,179l-.83-.4,1.38-2.83a1.55,1.55,0,0,0-.48-2.15l-.25-.13a2.36,2.36,0,0,0-2.06.07l-1.71,3.52-.82-.4,2.43-5,.82.4-.27.56a2.82,2.82,0,0,1,2.13.18,2.31,2.31,0,0,1,1.2,3Z"/>
      <path class="cls-5" d="M478.72,180.2c.76.4,1.43.39,1.7-.11s0-.84-.42-1.17l-1-.77c-.74-.56-1.21-1.26-.77-2.11s1.58-1,2.77-.42c1,.54,1.85,1.47,1.33,2.69l-.76-.4c.24-.66-.13-1.22-.92-1.63s-1.34-.34-1.57.11-.09.76.52,1.22l.9.67c.65.5,1.24,1.21.74,2.16s-1.66,1.05-2.87.42-1.88-1.65-1.42-2.89l.75.4C477.49,179.11,477.81,179.73,478.72,180.2Z"/>
      <path class="cls-5" d="M488.17,182.93a2.87,2.87,0,0,1-3.89,1.15l0,0a2.82,2.82,0,0,1-1.35-1.59l-1.66,2.94-.79-.45,4.11-7.28.79.45-.29.51a2.85,2.85,0,0,1,2.06.34,2.89,2.89,0,0,1,1.08,3.93Zm-.79-.45a2.09,2.09,0,0,0-.75-2.85h0a2.14,2.14,0,0,0-2.08-.06l-1.12,2a2.12,2.12,0,0,0,1.12,1.75,2.09,2.09,0,0,0,2.84-.8v0Z"/>
      <path class="cls-5" d="M491.92,181.94l-2.86,4.78-.78-.47,2.86-4.78Zm.15-2.35a.58.58,0,0,1,.81-.22h0a.61.61,0,0,1-.63,1h0a.61.61,0,0,1-.22-.82Z"/>
      <path class="cls-5" d="M496.46,184.57l-.46.74a2.54,2.54,0,0,0-2.46-.11l-1.92,3.08-.78-.48,3-4.73.77.48-.48.77A2.7,2.7,0,0,1,496.46,184.57Z"/>
      <path class="cls-5" d="M501.92,188.31,498.85,193l-.76-.5.32-.48a2.77,2.77,0,0,1-2-.48,2.93,2.93,0,1,1,3.23-4.88,2.8,2.8,0,0,1,1.23,1.67l.32-.48ZM499,191.08l1.25-1.9a2.12,2.12,0,1,0-3.31,1.68h0a2.11,2.11,0,0,0,2.06.22Z"/>
      <path class="cls-5" d="M505,195l.77.55a2.54,2.54,0,0,1-3.32.15,2.93,2.93,0,1,1,3.39-4.78h0a2.53,2.53,0,0,1,1,3.19l-.77-.55a1.61,1.61,0,0,0-.67-2,2.09,2.09,0,0,0-2.42,3.41A1.6,1.6,0,0,0,505,195Z"/>
      <path class="cls-5" d="M511.62,199.14l0,0h0l-3.7-2.8a1.94,1.94,0,0,0,.47,2.66,1.58,1.58,0,0,0,1.62.32l.82.62a2.53,2.53,0,0,1-2.93-.29,2.93,2.93,0,0,1,3.5-4.7,2.69,2.69,0,0,1,.61,3.76l-.14.18A1.44,1.44,0,0,1,511.62,199.14Zm-3.33-3.33,3,2.26a1.75,1.75,0,0,0-.33-2.46l-.06-.05A1.9,1.9,0,0,0,508.29,195.81Z"/>
      <path class="cls-5" d="M517.12,203.48l-1.6.12-.95,1.14-.7-.58,5.46-6.54.7.59-3.74,4.47,4.16-.28.9.76-3.32.25.08,4.29-.91-.76Z"/>
      <path class="cls-5" d="M527.49,212.43a2.86,2.86,0,0,1-4,.23l0,0a2.81,2.81,0,0,1-.95-1.85l-2.29,2.48-.67-.62,5.66-6.14.67.62-.4.43a2.83,2.83,0,0,1,1.93.8,2.89,2.89,0,0,1,.15,4.07Zm-.67-.61a2.08,2.08,0,0,0-.08-2.95h0a2.1,2.1,0,0,0-2-.53L523.18,210a2.11,2.11,0,0,0,.69,2,2.08,2.08,0,0,0,2.94-.13Z"/>
      <path class="cls-5" d="M532.65,217.48a3,3,0,1,1-.08-4.18l0,0a2.87,2.87,0,0,1,.12,4.07Zm-.66-.65a2,2,0,1,0-2.91.07,2,2,0,0,0,2.91-.07l0,0Z"/>
      <path class="cls-5" d="M541.69,218.65l-6.18,5.86-.63-.66.42-.4a2.81,2.81,0,0,1-1.87-.93,2.93,2.93,0,0,1,4.25-4,2.78,2.78,0,0,1,.82,1.92l2.57-2.43Zm-5.62,4.07,1.65-1.57a2.12,2.12,0,1,0-3.6.89h0a2.1,2.1,0,0,0,2,.68Z"/>
      <path class="cls-5" d="M542.66,227.75l-2.39,2.11-.6-.68L542,227.1a1.55,1.55,0,0,0,.39-2.16,1.24,1.24,0,0,0-.18-.22,2.37,2.37,0,0,0-1.93-.73l-2.93,2.59-.6-.68,4.17-3.69.6.69-.47.41a2.85,2.85,0,0,1,1.9,1,2.3,2.3,0,0,1-.06,3.25A1.64,1.64,0,0,1,542.66,227.75Z"/>
      <path class="cls-5" d="M546.33,228.41,542.07,232l-.58-.7,4.25-3.58Zm.9-2.17a.61.61,0,0,1,.85.06v0a.6.6,0,0,1-.07.85.61.61,0,0,1-.8-.92Z"/>
      <path class="cls-5" d="M546.71,233.55l-1.59-.2-1.16.93-.58-.71,6.65-5.34.57.71-4.55,3.65,4.13.55.74.91-3.31-.4-.76,4.23-.74-.92Z"/>
      <path class="cls-5" d="M555,239.43l-4.45,3.34-.54-.72.45-.35a2.83,2.83,0,0,1-1.75-1.13,2.93,2.93,0,0,1,4.68-3.52,2.82,2.82,0,0,1,.6,2l.46-.35Zm-3.68,1.63,1.82-1.37a2.09,2.09,0,1,0-1.82,1.37Zm3.18-4.07-.51-.68,1.95-.26.61.81Z"/>
      <path class="cls-5" d="M557.32,246.81l-2.62,1.84-.52-.75,2.57-1.8a1.55,1.55,0,0,0,.63-2.11,1.14,1.14,0,0,0-.15-.23,2.4,2.4,0,0,0-1.84-.95l-3.2,2.25-.52-.74,4.56-3.2.52.74-.51.36a2.84,2.84,0,0,1,1.77,1.19,2.29,2.29,0,0,1-.42,3.22A1.59,1.59,0,0,1,557.32,246.81Z"/>
      <path class="cls-5" d="M560.87,247.87,556.24,251l-.51-.75,4.63-3.09Zm2.89-.68h-2l-.47-.7,2-.16Z"/>
    </g>
  </g>
  <g id="svgPineCity">
    <path class="cls-7" d="M241.86,266c0,6.68,4.81,12.1,4.81,12.1s4.81-5.42,4.81-12.1-4.81-12.11-4.81-12.11S241.86,259.31,241.86,266Z"/>
    <rect class="cls-6" x="246.44" y="259.37" width="0.46" height="22.72"/>
    <path class="cls-7" d="M192.1,261.19s-3.52,3.46-3.52,7.72,3.52,7.71,3.52,7.71,3.5-3.45,3.5-7.71S192.1,261.19,192.1,261.19Z"/>
    <rect class="cls-6" x="191.87" y="267.97" width="0.46" height="17.23"/>
    <path class="cls-6" d="M183.31,261.19s-3.5,3.46-3.5,7.72,3.5,7.71,3.5,7.71,3.51-3.45,3.51-7.71S183.31,261.19,183.31,261.19Z"/>
    <rect class="cls-6" x="183.08" y="267.97" width="0.46" height="17.23"/>
    <path class="cls-18" d="M174.54,261.19s-3.51,3.46-3.51,7.72,3.52,7.71,3.52,7.71,3.5-3.45,3.5-7.71-3.5-7.72-3.5-7.72Z"/>
    <rect class="cls-6" x="174.31" y="267.97" width="0.46" height="17.23"/>
    <path class="cls-7" d="M209.65,261.19s-3.5,3.46-3.5,7.72,3.5,7.71,3.5,7.71,3.51-3.45,3.51-7.71S209.65,261.19,209.65,261.19Z"/>
    <rect class="cls-6" x="209.42" y="267.97" width="0.46" height="17.23"/>
    <path class="cls-7" d="M200.87,261.19s-3.51,3.46-3.51,7.72,3.51,7.71,3.51,7.71,3.51-3.45,3.51-7.71S200.87,261.19,200.87,261.19Z"/>
    <rect class="cls-6" x="200.64" y="267.97" width="0.46" height="17.23"/>
    <path class="cls-18" d="M142.42,263.49c0,5.74,4.13,10.39,4.13,10.39s4.13-4.65,4.13-10.39-4.13-10.39-4.13-10.39S142.42,257.75,142.42,263.49Z"/>
    <path class="cls-7" d="M148,271.34c-4.2-.06-6.21,6.69-12.24,3.61-7.51-3.82-9.71,3.27-14.16.61-4.2-2.5-3.65-8.91-11.23-9.71-3.6-.39-5.11,1.23-8.81-.28-3.21-1.31-8.52,4.58-8.52,4.58V298l55-7.64s5.41-18.95,0-19Z"/>
    <path class="cls-18" d="M253.31,269.18c0,6.68,4.81,12.11,4.81,12.11s4.81-5.43,4.81-12.11-4.84-12.1-4.84-12.1-4.81,5.42-4.81,12.1Z"/>
    <rect class="cls-6" x="257.89" y="267.05" width="0.46" height="19.65"/>
    <polygon class="cls-6" points="258.12 271.49 256.51 269.84 256.18 270.16 258.12 272.14 260.05 270.16 259.72 269.84 258.12 271.49"/>
    <path class="cls-7" d="M263.73,276.83c0,5.91,4.25,10.69,4.25,10.69s4.24-4.78,4.24-10.69S268,266.14,268,266.14,263.73,270.92,263.73,276.83Z"/>
    <rect class="cls-7" x="267.75" y="274.92" width="0.46" height="15.57"/>
    <path class="cls-7" d="M266.1,290.5c-4.32-1.9-3-4.49-6.79-5.6-4.49-1.34-6.59,3.09-8.79.87s-1.65-5.56-6.62-4.8v28.92h30.87v-18C271.52,288.5,268.8,291.65,266.1,290.5Z"/>
    <path class="cls-7" d="M198.9,283.18c-3.76,1.15-4.34-.46-9,.22-3.62.52-4.63,3.32-7.85,2.67s-7.82-2.17-12.58.36c-5.22,2.77-3.89,11.53-3.89,11.53l8.66,2.44L209.66,307l.16-26c-5.44-3.11-8.3,1.32-10.9,2.13Z"/>
    <polygon class="cls-17" points="216.23 272.48 222.9 280.96 243.86 280.96 237.21 272.48 216.23 272.48"/>
    <polygon class="cls-5" points="209.64 280.97 209.64 307.8 222.81 307.8 222.81 280.97 216.22 272.48 209.64 280.97"/>
    <rect class="cls-18" x="222.9" y="280.96" width="20.96" height="26.91"/>
    <rect class="cls-19" x="228" y="284.91" width="1.54" height="1.29"/>
    <rect class="cls-19" x="228" y="288.79" width="1.54" height="1.29"/>
    <rect class="cls-19" x="232.61" y="284.91" width="1.54" height="1.29"/>
    <rect class="cls-19" x="232.61" y="288.79" width="1.54" height="1.29"/>
    <rect class="cls-19" x="237.22" y="284.91" width="1.54" height="1.29"/>
    <rect class="cls-19" x="237.22" y="288.79" width="1.54" height="1.29"/>
    <rect class="cls-19" x="228" y="292.68" width="1.54" height="1.29"/>
    <rect class="cls-19" x="232.61" y="292.68" width="1.54" height="1.29"/>
    <rect class="cls-19" x="237.22" y="292.68" width="1.54" height="1.29"/>
    <rect class="cls-6" x="213.16" y="284.91" width="1.54" height="1.29"/>
    <rect class="cls-6" x="213.16" y="288.79" width="1.54" height="1.29"/>
    <rect class="cls-6" x="217.77" y="284.91" width="1.54" height="1.29"/>
    <rect class="cls-6" x="217.77" y="288.79" width="1.54" height="1.29"/>
    <rect class="cls-6" x="213.16" y="292.68" width="1.54" height="1.29"/>
    <rect class="cls-6" x="217.77" y="292.68" width="1.54" height="1.29"/>
    <path class="cls-18" d="M205.51,287.83a4.09,4.09,0,0,0-3.08,1.4,4.17,4.17,0,0,0-4.14-4.1,4.11,4.11,0,0,0-1.75.4v-.1a4.2,4.2,0,0,0-4.15-4.23h0a4.07,4.07,0,0,0-2.49.85,4.19,4.19,0,0,0-4.15-3.8,4,4,0,0,0-2.71,1.08,4.14,4.14,0,0,0-8,1.24,4.1,4.1,0,0,0-2.13-.6,4.2,4.2,0,0,0-4.17,4.23h0v7.85h22.63v17.47h18.33V292.08a4.19,4.19,0,0,0-4.12-4.25h-.06Z"/>
    <polygon class="cls-6" points="173.81 286.37 178.94 291.69 195.07 291.69 189.95 286.37 173.81 286.37"/>
    <polygon class="cls-17" points="168.68 291.69 168.68 308.66 179 308.66 179 291.69 173.84 286.37 168.68 291.69"/>
    <rect class="cls-18" x="178.94" y="291.69" width="16.13" height="16.87"/>
    <rect class="cls-19" x="182.86" y="295.89" width="1.18" height="1.21"/>
    <rect class="cls-19" x="182.86" y="299.52" width="1.18" height="1.21"/>
    <rect class="cls-19" x="186.41" y="295.89" width="1.18" height="1.21"/>
    <rect class="cls-19" x="186.41" y="299.52" width="1.18" height="1.21"/>
    <rect class="cls-19" x="189.97" y="295.89" width="1.18" height="1.21"/>
    <rect class="cls-19" x="189.97" y="299.52" width="1.18" height="1.21"/>
    <rect class="cls-19" x="182.86" y="303.14" width="1.18" height="1.21"/>
    <rect class="cls-19" x="186.41" y="303.14" width="1.18" height="1.21"/>
    <rect class="cls-19" x="189.97" y="303.14" width="1.18" height="1.21"/>
    <path class="cls-18" d="M134.84,261.79c0,5.75,4.13,10.4,4.13,10.4s4.12-4.65,4.12-10.4S139,251.41,139,251.41s-4.13,4.65-4.13,10.38Z"/>
    <rect class="cls-6" x="138.74" y="261.56" width="0.46" height="25.63"/>
    <path class="cls-7" d="M131.92,252s-4.81,4.18-4.81,9.32,4.81,9.34,4.81,9.34,4.79-4.13,4.79-9.34S131.92,252,131.92,252Z"/>
    <rect class="cls-6" x="131.69" y="258.62" width="0.46" height="26.31"/>
    <polygon class="cls-18" points="147.99 271.34 159.76 271.34 168.69 258.99 156.92 258.99 147.99 271.34"/>
    <rect class="cls-7" x="147.99" y="271.34" width="11.78" height="30.58"/>
    <polygon class="cls-6" points="159.81 301.78 168.68 301.78 168.68 271.35 168.68 258.99 159.81 271.35 159.81 301.78"/>
    <rect class="cls-18" x="163.54" y="279.55" width="1.39" height="5.15"/>
    <path class="cls-18" d="M163.82,294.32a4.68,4.68,0,0,0-2.5.71,4.85,4.85,0,0,0-9.4-1.46,4.7,4.7,0,0,0-3.24-1.27,4.92,4.92,0,0,0-4.86,4.47,4.76,4.76,0,0,0-2.93-1,4.93,4.93,0,0,0-4.87,5h0v.11a4.7,4.7,0,0,0-2.05-.47,4.93,4.93,0,0,0-4.88,4.82,4.86,4.86,0,0,0-3.61-1.64,4.94,4.94,0,0,0-4.88,5v0h48.09v-9.29a4.93,4.93,0,0,0-4.86-5h0Z"/>
    <path class="cls-17" d="M48.68,289.24a3.64,3.64,0,0,0-1.62.41v-.31a5.78,5.78,0,0,0-5.69-5.84,5.57,5.57,0,0,0-1.72.27,3.56,3.56,0,0,0-7.1,0,5,5,0,0,0-6.63,2.48,5.12,5.12,0,0,0-.45,2.25,3.08,3.08,0,0,0,0,.43h-.38a3.66,3.66,0,0,0-.62,7.24c1.17,1.55,6.08,2.71,12,2.71,5.4,0,10-1,11.59-2.34a3.36,3.36,0,0,0,.63.06,3.66,3.66,0,0,0,0-7.31Z"/>
    <rect class="cls-6" x="9.92" y="330.57" width="24.93" height="25.24"/>
    <polygon class="cls-18" points="72.46 355.81 101.7 355.81 110.36 330.57 72.46 330.57 72.46 355.81"/>
    <polygon class="cls-17" points="73.28 309.44 79.21 308.56 93.03 308.56 93.03 276.7 73.28 276.7 73.28 309.44"/>
    <polygon class="cls-18" points="33.47 293.17 67.34 293.17 73.28 276.7 39.4 276.7 33.47 293.17"/>
    <polygon class="cls-17" points="62.69 293.17 64.78 293.17 70.7 276.7 68.62 276.7 62.69 293.17"/>
    <polygon class="cls-17" points="35.92 293.17 38 293.17 43.94 276.7 41.85 276.7 35.92 293.17"/>
    <polygon class="cls-17" points="57.34 293.17 59.43 293.17 65.35 276.7 63.27 276.7 57.34 293.17"/>
    <polygon class="cls-17" points="51.98 293.17 54.06 293.17 60 276.7 57.92 276.7 51.98 293.17"/>
    <polygon class="cls-17" points="46.63 293.17 48.71 293.17 54.64 276.7 52.56 276.7 46.63 293.17"/>
    <polygon class="cls-17" points="41.27 293.17 43.36 293.17 49.29 276.7 47.21 276.7 41.27 293.17"/>
    <polygon class="cls-7" points="67.31 293.17 67.31 325.84 79.34 325.84 79.34 293.17 73.33 276.7 67.31 293.17"/>
    <rect class="cls-5" x="33.47" y="293.17" width="33.87" height="32.54"/>
    <polygon class="cls-5" points="133.37 287.51 147.97 287.51 140.67 280.05 133.37 287.51"/>
    <polygon class="cls-17" points="110.36 287.51 133.37 287.51 140.67 280.05 117.67 280.05 110.36 287.51"/>
    <rect class="cls-5" x="133.37" y="287.51" width="14.61" height="21.05"/>
    <rect class="cls-18" x="110.36" y="287.51" width="23" height="21.05"/>
    <polygon class="cls-6" points="18.06 310.67 10.03 310.67 10.03 330.71 18.14 330.71 19.24 330.71 34.95 330.71 34.95 300.07 18.06 300.07 18.06 310.67"/>
    <polygon class="cls-17" points="26.07 293.17 26.07 300.07 40.97 300.07 40.97 293.17 33.52 285.41 26.07 293.17"/>
    <polygon class="cls-6" points="33.54 285.41 40.88 293.17 58.13 293.17 50.79 285.41 33.54 285.41"/>
    <polygon class="cls-18" points="40.97 300.07 34.95 300.07 34.95 330.71 58.15 330.71 58.15 300.06 58.15 293.2 40.97 293.2 40.97 300.07"/>
    <rect class="cls-17" x="53.82" y="295.58" width="2.33" height="3.08"/>
    <rect class="cls-17" x="48.16" y="295.58" width="2.33" height="3.08"/>
    <rect class="cls-17" x="42.5" y="295.58" width="2.33" height="3.08"/>
    <rect class="cls-17" x="53.82" y="304.48" width="2.33" height="3.08"/>
    <rect class="cls-17" x="48.16" y="304.48" width="2.33" height="3.08"/>
    <rect class="cls-17" x="42.5" y="304.48" width="2.33" height="3.08"/>
    <rect class="cls-17" x="36.82" y="304.48" width="2.33" height="3.08"/>
    <rect class="cls-17" x="53.82" y="313.4" width="2.33" height="3.08"/>
    <rect class="cls-17" x="48.16" y="313.4" width="2.33" height="3.08"/>
    <rect class="cls-17" x="42.5" y="313.4" width="2.33" height="3.08"/>
    <rect class="cls-17" x="36.82" y="313.4" width="2.33" height="3.08"/>
    <rect class="cls-17" x="29.73" y="304.48" width="2.33" height="3.08"/>
    <rect class="cls-17" x="24.05" y="304.48" width="2.33" height="3.08"/>
    <rect class="cls-17" x="29.73" y="313.4" width="2.33" height="3.08"/>
    <rect class="cls-17" x="24.05" y="313.4" width="2.33" height="3.08"/>
    <rect class="cls-17" x="18.39" y="313.4" width="2.33" height="3.08"/>
    <rect class="cls-17" x="12.72" y="313.4" width="2.33" height="3.08"/>
    <rect class="cls-17" x="29.73" y="322.32" width="2.33" height="3.08"/>
    <rect class="cls-17" x="24.05" y="322.32" width="2.33" height="3.08"/>
    <rect class="cls-17" x="18.39" y="322.32" width="2.33" height="3.08"/>
    <rect class="cls-17" x="12.72" y="322.32" width="2.33" height="3.08"/>
    <polygon class="cls-17" points="122.84 297.37 135.31 308.56 168.69 308.56 156.22 297.37 122.84 297.37"/>
    <polygon class="cls-7" points="110.26 308.56 110.26 330.71 135.18 330.71 135.18 308.56 122.72 297.37 110.26 308.56"/>
    <polygon class="cls-6" points="145.84 308.56 152 303.02 139.66 303.02 145.84 308.56"/>
    <polygon class="cls-5" points="152 303.12 145.84 308.66 135.18 308.66 135.18 330.71 168.68 330.71 168.68 308.66 158.17 308.66 152 303.12"/>
    <rect class="cls-6" x="129.33" y="313.3" width="1.23" height="1.25"/>
    <rect class="cls-6" x="129.33" y="317.06" width="1.23" height="1.25"/>
    <rect class="cls-6" x="129.33" y="320.81" width="1.23" height="1.25"/>
    <rect class="cls-6" x="129.33" y="324.58" width="1.23" height="1.25"/>
    <rect class="cls-6" x="125.65" y="313.3" width="1.23" height="1.25"/>
    <rect class="cls-6" x="125.65" y="317.06" width="1.23" height="1.25"/>
    <rect class="cls-6" x="125.65" y="320.81" width="1.23" height="1.25"/>
    <rect class="cls-6" x="125.65" y="324.58" width="1.23" height="1.25"/>
    <rect class="cls-6" x="121.98" y="313.3" width="1.23" height="1.25"/>
    <rect class="cls-6" x="121.98" y="317.06" width="1.23" height="1.25"/>
    <rect class="cls-6" x="121.98" y="320.81" width="1.23" height="1.25"/>
    <rect class="cls-6" x="121.98" y="324.58" width="1.23" height="1.25"/>
    <rect class="cls-6" x="118.3" y="313.3" width="1.23" height="1.25"/>
    <rect class="cls-6" x="118.3" y="317.06" width="1.23" height="1.25"/>
    <rect class="cls-6" x="118.3" y="320.81" width="1.23" height="1.25"/>
    <rect class="cls-6" x="118.3" y="324.58" width="1.23" height="1.25"/>
    <rect class="cls-6" x="114.62" y="313.3" width="1.23" height="1.25"/>
    <rect class="cls-6" x="114.62" y="317.06" width="1.23" height="1.25"/>
    <rect class="cls-6" x="114.62" y="320.81" width="1.23" height="1.25"/>
    <rect class="cls-6" x="114.62" y="324.58" width="1.23" height="1.25"/>
    <polygon class="cls-7" points="73.28 259.83 84.5 259.83 93.03 247.47 81.8 247.47 73.28 259.83"/>
    <rect class="cls-18" x="73.28" y="259.83" width="11.24" height="16.88"/>
    <polygon class="cls-6" points="84.49 276.58 93.08 276.58 93.08 259.83 93.08 247.47 84.49 259.83 84.49 276.58"/>
    <rect class="cls-18" x="88.11" y="259.74" width="1.32" height="5.15"/>
    <rect class="cls-18" x="88.11" y="268.03" width="1.32" height="5.15"/>
    <rect class="cls-18" x="163.95" y="311.16" width="1.57" height="4.31"/>
    <rect class="cls-18" x="157.56" y="311.16" width="1.57" height="4.31"/>
    <rect class="cls-18" x="151.17" y="311.16" width="1.57" height="4.31"/>
    <rect class="cls-18" x="144.78" y="311.16" width="1.57" height="4.31"/>
    <rect class="cls-18" x="138.39" y="311.16" width="1.57" height="4.31"/>
    <rect class="cls-18" x="163.95" y="318.77" width="1.57" height="4.31"/>
    <rect class="cls-18" x="157.56" y="318.77" width="1.57" height="4.31"/>
    <rect class="cls-18" x="151.17" y="318.77" width="1.57" height="4.31"/>
    <rect class="cls-18" x="144.78" y="318.77" width="1.57" height="4.31"/>
    <rect class="cls-18" x="138.39" y="318.77" width="1.57" height="4.31"/>
    <polygon class="cls-17" points="93.03 276.7 101.7 269.67 101.7 258.8 93.03 265.85 93.03 276.7"/>
    <polygon class="cls-18" points="101.7 269.67 110.36 276.7 110.36 265.85 101.7 258.8 101.7 269.67"/>
    <polygon class="cls-6" points="93.08 276.7 93.08 308.66 110.26 308.66 110.26 276.7 101.68 269.67 93.08 276.7"/>
    <rect class="cls-17" x="106.97" y="281.16" width="0.96" height="0.98"/>
    <rect class="cls-17" x="106.97" y="284.1" width="0.96" height="0.98"/>
    <rect class="cls-17" x="106.97" y="287.04" width="0.96" height="0.98"/>
    <rect class="cls-17" x="104.1" y="278.22" width="0.96" height="0.98"/>
    <rect class="cls-17" x="104.1" y="281.16" width="0.96" height="0.98"/>
    <rect class="cls-17" x="104.1" y="284.1" width="0.96" height="0.98"/>
    <rect class="cls-17" x="104.1" y="287.04" width="0.96" height="0.98"/>
    <rect class="cls-17" x="101.22" y="275.28" width="0.96" height="0.98"/>
    <rect class="cls-17" x="101.22" y="278.22" width="0.96" height="0.98"/>
    <rect class="cls-17" x="101.22" y="281.16" width="0.96" height="0.98"/>
    <rect class="cls-17" x="101.22" y="284.1" width="0.96" height="0.98"/>
    <rect class="cls-17" x="101.22" y="287.04" width="0.96" height="0.98"/>
    <rect class="cls-17" x="98.34" y="278.22" width="0.96" height="0.98"/>
    <rect class="cls-17" x="98.34" y="281.16" width="0.96" height="0.98"/>
    <rect class="cls-17" x="98.34" y="284.1" width="0.96" height="0.98"/>
    <rect class="cls-17" x="98.34" y="287.04" width="0.96" height="0.98"/>
    <rect class="cls-17" x="95.47" y="281.16" width="0.96" height="0.98"/>
    <rect class="cls-17" x="95.47" y="284.1" width="0.96" height="0.98"/>
    <rect class="cls-17" x="95.47" y="287.04" width="0.96" height="0.98"/>
    <rect class="cls-17" x="106.97" y="289.97" width="0.96" height="0.98"/>
    <rect class="cls-17" x="104.1" y="289.97" width="0.96" height="0.98"/>
    <rect class="cls-17" x="101.22" y="289.97" width="0.96" height="0.98"/>
    <rect class="cls-17" x="98.34" y="289.97" width="0.96" height="0.98"/>
    <rect class="cls-17" x="95.47" y="289.97" width="0.96" height="0.98"/>
    <polygon class="cls-17" points="57.89 330.57 110.36 330.57 110.36 308.56 79.21 308.56 57.89 330.57"/>
    <path class="cls-6" d="M77.18,312.27c0,6.68,4.81,12.11,4.81,12.11S86.8,319,86.8,312.27,82,300.17,82,300.17s-4.81,5.41-4.81,12.1Z"/>
    <rect class="cls-6" x="81.76" y="310.14" width="0.46" height="16.06"/>
    <polygon class="cls-6" points="81.99 314.58 80.38 312.93 80.05 313.25 81.99 315.23 83.92 313.25 83.6 312.93 81.99 314.58"/>
    <path class="cls-7" d="M92.25,312.7c0,5.9,4.25,10.7,4.25,10.7s4.25-4.8,4.25-10.7S96.5,302,96.5,302,92.25,306.8,92.25,312.7Z"/>
    <path class="cls-7" d="M84.71,307.85c0,6.68,4.82,12.1,4.82,12.1s4.8-5.42,4.8-12.1-4.8-12.11-4.8-12.11S84.71,301.16,84.71,307.85Z"/>
    <rect class="cls-6" x="89.3" y="306.37" width="0.46" height="20.32"/>
    <rect class="cls-7" x="96.27" y="310.8" width="0.46" height="15.57"/>
    <path class="cls-7" d="M27.06,343.8a13.08,13.08,0,0,0,3.07,7.75,11.27,11.27,0,0,0,0-15.44,13.06,13.06,0,0,0-3.07,7.72Z"/>
    <rect class="cls-7" x="29.9" y="342.86" width="0.46" height="12.95"/>
    <path class="cls-7" d="M19.39,343.8a13.16,13.16,0,0,0,3.06,7.75,11.27,11.27,0,0,0,0-15.44,13.11,13.11,0,0,0-3.06,7.72Z"/>
    <rect class="cls-7" x="22.22" y="342.86" width="0.46" height="12.95"/>
    <path class="cls-18" d="M11.71,343.8a13.17,13.17,0,0,0,3.07,7.75,13.2,13.2,0,0,0,3.06-7.72,13.11,13.11,0,0,0-3.06-7.72,13.12,13.12,0,0,0-3.07,7.72Z"/>
    <rect class="cls-7" x="14.55" y="342.86" width="0.46" height="12.95"/>
    <path class="cls-18" d="M98.18,319.89c-9.59,6.43-12.2,1.73-22.84,1.73-7.46,0-17.21,9-17.21,9h52.23V317.39S105.16,315.22,98.18,319.89Z"/>
    <path class="cls-7" d="M102.12,335.53c-3.81.37-3.17-4.07-9-3.62-3.57.28-4.43,2.16-7.79-.08s-7.1-6-14-4.84c-7.61,1.22-19.24,25.08-19.24,25.08l12.34-1.48L110,340.09l4-4.73c-4.56-6.15-8.47-.11-11.85.2Z"/>
    <path class="cls-7" d="M226.59,303.4c-6.08,1.83-7-.72-14.61.36-5.84.82-7.47,5.26-12.69,4.24-5.44-1.07-12.65-3.49-20.35.52-8.45,4.39-6.3,18.25-6.3,18.25l14,3.86h57.22V299.28c-9-3.57-13.06,2.85-17.27,4.12Z"/>
    <path class="cls-17" d="M103.65,326,99.26,344.1l11.31-1.23L106.44,326a1.43,1.43,0,0,0-2.79,0Z"/>
    <rect class="cls-7" x="104.81" y="329.23" width="0.46" height="10.69"/>
    <polygon class="cls-7" points="104.81 333.86 104.81 335.8 103.04 333.98 102.72 334.3 105.27 336.92 105.27 334 106.77 331.63 106.38 331.39 104.81 333.86"/>
    <path class="cls-17" d="M96.91,325.36l-4.38,18.18,11.31-1.23L99.7,325.4A1.42,1.42,0,0,0,98,324.32a1.43,1.43,0,0,0-1.08,1.08Z"/>
    <rect class="cls-7" x="98.07" y="328.62" width="0.46" height="15.36"/>
    <polygon class="cls-7" points="98.07 333.25 98.07 335.19 96.3 333.37 95.98 333.69 98.53 336.31 98.53 333.38 100.03 331.02 99.64 330.77 98.07 333.25"/>
    <path class="cls-7" d="M99.46,339.8c-2.24,2.95-3.68.17-6.49,1.31-3.69,1.51-6.65,9.59-11,8.76s-7-1.55-7-1.55l-1.36,4.43,32.94,1.15,4.81-19.27c-3.93-1.22-9.7,2.23-11.95,5.17Z"/>
    <path class="cls-6" d="M95.78,348.81c-3.69-1-1.62-4.93-7.29-6.55-3.46-1-4.9.49-7.3-2.78s-1.85-7.55-8.73-9c-7.57-1.5-32.35,18.36-32.35,18.36l-5.26,6.88H101.7l5.29-3c-2.24-7.38-7.93-3-11.22-3.94Z"/>
    <polygon class="cls-6" points="101.7 340.41 118.1 340.41 126.77 330.57 110.36 330.57 101.7 340.41"/>
    <rect class="cls-18" x="101.7" y="340.41" width="16.4" height="15.4"/>
    <polygon class="cls-5" points="118 355.91 126.87 355.91 126.87 340.41 126.87 330.57 118 340.41 118 355.91"/>
    <rect class="cls-17" x="108.06" y="344.26" width="3.52" height="2.47"/>
    <rect class="cls-17" x="108.06" y="349.92" width="3.52" height="2.47"/>
    <polygon class="cls-17" points="34.85 330.57 57.85 330.57 65.15 323.11 42.16 323.11 34.85 330.57"/>
    <polygon class="cls-5" points="57.86 330.57 57.86 355.91 72.47 355.91 72.47 330.57 65.16 323.11 57.86 330.57"/>
    <rect class="cls-18" x="34.85" y="330.57" width="23.01" height="25.24"/>
    <rect class="cls-6" x="54.49" y="333.25" width="0.96" height="0.98"/>
    <rect class="cls-6" x="54.49" y="336.2" width="0.96" height="0.98"/>
    <rect class="cls-6" x="54.49" y="339.14" width="0.96" height="0.98"/>
    <rect class="cls-6" x="54.49" y="342.08" width="0.96" height="0.98"/>
    <rect class="cls-6" x="54.49" y="345.01" width="0.96" height="0.98"/>
    <rect class="cls-6" x="51.62" y="333.25" width="0.96" height="0.98"/>
    <rect class="cls-6" x="51.62" y="336.2" width="0.96" height="0.98"/>
    <rect class="cls-6" x="51.62" y="339.14" width="0.96" height="0.98"/>
    <rect class="cls-6" x="51.62" y="342.08" width="0.96" height="0.98"/>
    <rect class="cls-6" x="51.62" y="345.01" width="0.96" height="0.98"/>
    <rect class="cls-6" x="48.75" y="333.25" width="0.96" height="0.98"/>
    <rect class="cls-6" x="48.75" y="336.2" width="0.96" height="0.98"/>
    <rect class="cls-6" x="48.75" y="339.14" width="0.96" height="0.98"/>
    <rect class="cls-6" x="48.75" y="342.08" width="0.96" height="0.98"/>
    <rect class="cls-6" x="48.75" y="345.01" width="0.96" height="0.98"/>
    <rect class="cls-6" x="45.87" y="333.25" width="0.96" height="0.98"/>
    <rect class="cls-6" x="45.87" y="336.2" width="0.96" height="0.98"/>
    <rect class="cls-6" x="45.87" y="339.14" width="0.96" height="0.98"/>
    <rect class="cls-6" x="45.87" y="342.08" width="0.96" height="0.98"/>
    <rect class="cls-6" x="45.87" y="345.01" width="0.96" height="0.98"/>
    <rect class="cls-6" x="43" y="333.25" width="0.96" height="0.98"/>
    <rect class="cls-6" x="43" y="336.2" width="0.96" height="0.98"/>
    <rect class="cls-6" x="43" y="339.14" width="0.96" height="0.98"/>
    <rect class="cls-6" x="43" y="342.08" width="0.96" height="0.98"/>
    <rect class="cls-6" x="43" y="345.01" width="0.96" height="0.98"/>
    <rect class="cls-6" x="40.11" y="333.25" width="0.96" height="0.98"/>
    <rect class="cls-6" x="40.11" y="336.2" width="0.96" height="0.98"/>
    <rect class="cls-6" x="40.11" y="339.14" width="0.96" height="0.98"/>
    <rect class="cls-6" x="40.11" y="342.08" width="0.96" height="0.98"/>
    <rect class="cls-6" x="40.11" y="345.01" width="0.96" height="0.98"/>
    <rect class="cls-6" x="37.24" y="333.25" width="0.96" height="0.98"/>
    <rect class="cls-6" x="37.24" y="336.2" width="0.96" height="0.98"/>
    <rect class="cls-6" x="37.24" y="339.14" width="0.96" height="0.98"/>
    <rect class="cls-6" x="37.24" y="342.08" width="0.96" height="0.98"/>
    <rect class="cls-6" x="37.24" y="345.01" width="0.96" height="0.98"/>
    <rect class="cls-6" x="54.49" y="347.95" width="0.96" height="0.98"/>
    <rect class="cls-6" x="51.62" y="347.95" width="0.96" height="0.98"/>
    <rect class="cls-6" x="48.75" y="347.95" width="0.96" height="0.98"/>
    <rect class="cls-6" x="45.87" y="347.95" width="0.96" height="0.98"/>
    <rect class="cls-6" x="43" y="347.95" width="0.96" height="0.98"/>
    <rect class="cls-6" x="40.11" y="347.95" width="0.96" height="0.98"/>
    <rect class="cls-6" x="37.24" y="347.95" width="0.96" height="0.98"/>
    <polygon class="cls-18" points="36.73 330.57 37.46 330.57 44.77 323.11 44.04 323.11 36.73 330.57"/>
    <polygon class="cls-18" points="39.81 330.57 40.55 330.57 47.85 323.11 47.12 323.11 39.81 330.57"/>
    <polygon class="cls-18" points="42.9 330.57 43.63 330.57 50.93 323.11 50.2 323.11 42.9 330.57"/>
    <polygon class="cls-18" points="45.99 330.57 46.71 330.57 54.01 323.11 53.28 323.11 45.99 330.57"/>
    <polygon class="cls-18" points="49.07 330.57 49.8 330.57 57.1 323.11 56.37 323.11 49.07 330.57"/>
    <polygon class="cls-18" points="52.15 330.57 52.88 330.57 60.19 323.11 59.46 323.11 52.15 330.57"/>
    <polygon class="cls-18" points="55.23 330.57 55.97 330.57 63.27 323.11 62.54 323.11 55.23 330.57"/>
    <rect class="cls-17" x="126.77" y="330.57" width="41.93" height="25.24"/>
    <path class="cls-7" d="M157.55,334.25c0,5.74,4.13,10.39,4.13,10.39s4.13-4.65,4.13-10.39-4.13-10.38-4.13-10.38S157.55,328.52,157.55,334.25Z"/>
    <rect class="cls-5" x="161.46" y="332.42" width="0.46" height="13.79"/>
    <path class="cls-7" d="M139.63,335.53c0,5.74,4.13,10.39,4.13,10.39s4.13-4.65,4.13-10.39-4.13-10.38-4.13-10.38S139.63,329.8,139.63,335.53Z"/>
    <rect class="cls-6" x="143.53" y="335.25" width="0.46" height="13.79"/>
    <path class="cls-18" d="M129.47,334.68c0,7.54,5.91,13.65,5.91,13.65s5.9-6.11,5.9-13.65-5.9-13.64-5.9-13.64S129.47,327.15,129.47,334.68Z"/>
    <rect class="cls-5" x="135.15" y="332.28" width="0.46" height="18.1"/>
    <path class="cls-7" d="M157,341.59c-6.89.92-8,2.78-10.35,5s-3.86,1.22-7.3,1.89c-5.68,1.1-3.61,3.79-7.29,4.46-1.46.27-3.41-.17-5.31-.29v3.2h41.92v-12A20.21,20.21,0,0,0,157,341.59Z"/>
    <path class="cls-6" d="M69.12,264.61a4.07,4.07,0,0,0-2.12.6A4.12,4.12,0,0,0,59,264a4.06,4.06,0,0,0-2.74-1.08,4.19,4.19,0,0,0-4.13,3.8,3.93,3.93,0,0,0-2.48-.85,4.19,4.19,0,0,0-4.15,4.23h0v.09a4.05,4.05,0,0,0-1.74-.39,4.19,4.19,0,0,0-4.15,4.1,4.07,4.07,0,0,0-3.07-1.38,4.2,4.2,0,0,0-4.15,4.23H73.28v-7.89a4.19,4.19,0,0,0-4.16-4.23Z"/>
    <path class="cls-6" d="M207.8,313.16c-12.87,0-12.26,2.88-23.91-3.54-8.45-4.68-15.2-1.1-15.2-1.1v22h63.38s-15.22-17.41-24.25-17.41Z"/>
    <rect class="cls-18" x="233.11" y="330.64" width="41.62" height="25.17"/>
    <rect class="cls-17" x="243.86" y="299.28" width="13.26" height="4.81"/>
    <polygon class="cls-20" points="243.86 299.28 257.12 299.28 263.02 293.52 249.77 293.52 243.86 299.28"/>
    <rect class="cls-17" x="237.96" y="309.85" width="13.26" height="20.77"/>
    <polygon class="cls-20" points="237.96 309.85 251.22 309.85 257.12 304.09 243.86 304.09 237.96 309.85"/>
    <polygon class="cls-21" points="257.12 299.28 268.92 299.28 263.02 293.52 257.12 299.28"/>
    <polygon class="cls-21" points="268.91 299.21 257.17 299.21 257.17 304.22 251.16 309.85 251.16 330.71 257.22 330.71 268.96 330.71 274.64 330.71 274.64 309.85 268.91 304.15 268.91 299.21"/>
    <rect class="cls-7" x="259.88" y="303.11" width="1.24" height="2.45"/>
    <rect class="cls-7" x="264.93" y="303.11" width="1.24" height="2.45"/>
    <rect class="cls-7" x="259.88" y="307.45" width="1.24" height="2.45"/>
    <rect class="cls-7" x="264.93" y="307.45" width="1.24" height="2.45"/>
    <rect class="cls-7" x="259.88" y="311.77" width="1.24" height="2.45"/>
    <rect class="cls-7" x="264.93" y="311.77" width="1.24" height="2.45"/>
    <rect class="cls-7" x="259.88" y="316.1" width="1.24" height="2.45"/>
    <rect class="cls-7" x="264.93" y="316.1" width="1.24" height="2.45"/>
    <rect class="cls-7" x="259.88" y="320.42" width="1.24" height="2.45"/>
    <rect class="cls-7" x="264.93" y="320.42" width="1.24" height="2.45"/>
    <rect class="cls-7" x="259.88" y="324.76" width="1.24" height="2.45"/>
    <rect class="cls-7" x="264.93" y="324.76" width="1.24" height="2.45"/>
    <rect class="cls-7" x="254.84" y="311.77" width="1.24" height="2.45"/>
    <rect class="cls-7" x="254.84" y="316.1" width="1.24" height="2.45"/>
    <rect class="cls-7" x="254.84" y="320.42" width="1.24" height="2.45"/>
    <rect class="cls-7" x="254.84" y="324.76" width="1.24" height="2.45"/>
    <rect class="cls-7" x="269.97" y="311.77" width="1.24" height="2.45"/>
    <rect class="cls-7" x="269.97" y="316.1" width="1.24" height="2.45"/>
    <rect class="cls-7" x="269.97" y="320.42" width="1.24" height="2.45"/>
    <rect class="cls-7" x="269.97" y="324.76" width="1.24" height="2.45"/>
    <rect class="cls-5" x="253.62" y="338.28" width="0.46" height="17.53"/>
    <rect class="cls-5" x="253.02" y="342.46" width="0.46" height="1.84" transform="translate(-161.48 243.2) rotate(-40.01)"/>
    <rect class="cls-5" x="253.17" y="342.43" width="3.8" height="0.46" transform="translate(-171.37 317.65) rotate(-49.98)"/>
    <rect class="cls-5" x="252.93" y="345.39" width="5.21" height="0.46" transform="translate(-173.47 319.06) rotate(-49.98)"/>
    <path class="cls-17" d="M244.62,343.84a1.25,1.25,0,0,1-.36-1.29c.32-1.15.71-3,.08-3.69a1.54,1.54,0,0,0-.83-.45,1.17,1.17,0,0,1-.86-1.21h0c0-2.07-1-3.74-2.21-3.74s-2.21,1.67-2.21,3.74h0a1.2,1.2,0,0,1-.85,1.21,1.61,1.61,0,0,0-.84.45c-.63.65-.23,2.54.09,3.69a1.25,1.25,0,0,1-.36,1.29,2.18,2.18,0,0,0-.78,1.31c-.26,1.42,1.82,4.51,5,7.3,3.14-2.79,5.22-5.88,4.95-7.3a2.09,2.09,0,0,0-.77-1.31Z"/>
    <polygon class="cls-5" points="240.43 340.57 238.8 339.37 238.52 339.73 240.43 341.14 242.31 339.76 242.04 339.39 240.43 340.57"/>
    <polygon class="cls-5" points="240.45 347.77 237.53 345.61 237.26 345.97 240.45 348.33 243.66 345.97 243.39 345.6 240.45 347.77"/>
    <polygon class="cls-5" points="240.43 343.97 237.67 341.93 237.4 342.29 240.43 344.54 243.42 342.34 243.14 341.97 240.43 343.97"/>
    <rect class="cls-5" x="240.21" y="336.39" width="0.46" height="19.42"/>
    <path class="cls-7" d="M271,337.85a4.41,4.41,0,0,0-8.81,0,4.32,4.32,0,0,0,.42,1.86,4.23,4.23,0,0,1,0,3.58,4.44,4.44,0,1,0,8.37,2.3,2.94,2.94,0,0,0,0-.42,4.37,4.37,0,0,0-.41-1.84,4.16,4.16,0,0,1,0-3.58,4.37,4.37,0,0,0,.42-1.88Z"/>
    <rect class="cls-5" x="266.48" y="339.7" width="0.46" height="10"/>
    <rect class="cls-5" x="265.46" y="341.39" width="0.46" height="2.9" transform="translate(-164.71 289.11) rotate(-45.11)"/>
    <rect class="cls-5" x="266.06" y="345.62" width="4.39" height="0.46" transform="translate(-165.9 290.3) rotate(-44.91)"/>
    <rect class="cls-5" x="266.48" y="337.52" width="0.46" height="18.29"/>
    <rect class="cls-5" x="265.46" y="341.39" width="0.46" height="2.9" transform="translate(-164.71 289.11) rotate(-45.11)"/>
    <rect class="cls-5" x="266.27" y="342.59" width="2.9" height="0.46" transform="translate(-163.91 289.04) rotate(-44.91)"/>
    <rect class="cls-5" x="265.79" y="339.25" width="0.46" height="1.95" transform="translate(-162.77 288.65) rotate(-45.12)"/>
    <rect class="cls-5" x="266.41" y="339.97" width="1.95" height="0.46" transform="translate(-162.16 288.03) rotate(-44.91)"/>
    <rect class="cls-5" x="266.06" y="345.62" width="4.39" height="0.46" transform="translate(-165.9 290.3) rotate(-44.91)"/>
    <rect class="cls-5" x="264.91" y="343.65" width="0.46" height="4.39" transform="translate(-167.01 289.69) rotate(-45.12)"/>
    <path class="cls-17" d="M245.75,326.79a6.75,6.75,0,0,0-2.51.48v-.37c0-3.9-4-7.07-8.86-7.07a11.88,11.88,0,0,0-2.66.33c-.22-2.28-2.6-4.07-5.52-4.07V330.7h25c-.31-2.2-2.65-3.91-5.51-3.91Z"/>
    <polygon class="cls-22" points="168.69 332.05 168.69 355.81 219.28 355.81 219.28 330.57 168.69 330.57 168.69 332.05"/>
    <polygon class="cls-23" points="168.69 330.57 219.28 330.57 226.18 316 175.61 316 168.69 330.57"/>
    <polygon class="cls-24" points="226.23 316.07 219.38 330.57 219.38 355.91 233.12 355.91 233.12 330.64 233.12 330.71 233.09 330.71 226.23 316.07"/>
    <rect class="cls-7" x="196.18" y="330.61" width="10.31" height="25.2"/>
    <polygon class="cls-22" points="189.28 323.56 196.18 330.57 206.49 330.57 199.58 323.56 189.28 323.56"/>
    <polygon class="cls-21" points="189.28 323.56 182.37 330.62 182.59 330.71 182.43 330.71 182.43 355.91 196.18 355.91 196.18 330.71 195.96 330.71 196.18 330.62 189.28 323.56"/>
    <path class="cls-24" d="M226.19,335.6a1.38,1.38,0,0,0-1.38,1.39h0v2.2h2.75V337a1.37,1.37,0,0,0-1.36-1.39Z"/>
    <path class="cls-24" d="M213.06,335.6a1.38,1.38,0,0,0-1.38,1.39h0v2.2h2.76V337A1.38,1.38,0,0,0,213.06,335.6Z"/>
    <path class="cls-24" d="M189.32,335.6h0a1.39,1.39,0,0,0-1.39,1.39h0v2.2h2.77V337a1.38,1.38,0,0,0-1.38-1.39Z"/>
    <path class="cls-24" d="M176,335.6a1.37,1.37,0,0,0-1.37,1.38h0v2.2h2.75V337A1.38,1.38,0,0,0,176,335.6Z"/>
    <path class="cls-24" d="M201.63,335.6a1.38,1.38,0,0,0-1.37,1.38h0v2.2h2.79V337a1.38,1.38,0,0,0-1.38-1.39h0Z"/>
    <path class="cls-24" d="M226.19,341.7a1.38,1.38,0,0,0-1.38,1.38h0v2.2h2.75v-2.2a1.36,1.36,0,0,0-1.36-1.38Z"/>
    <path class="cls-24" d="M213.06,341.7a1.38,1.38,0,0,0-1.38,1.38h0v2.2h2.76v-2.2A1.38,1.38,0,0,0,213.06,341.7Z"/>
    <path class="cls-24" d="M189.32,341.7h0a1.38,1.38,0,0,0-1.39,1.38h0v2.2h2.77v-2.2a1.38,1.38,0,0,0-1.38-1.38Z"/>
    <path class="cls-24" d="M176,341.7a1.37,1.37,0,0,0-1.37,1.37h0v2.2h2.75v-2.2A1.38,1.38,0,0,0,176,341.7Z"/>
    <path class="cls-24" d="M201.63,341.7a1.37,1.37,0,0,0-1.37,1.37h0v2.2h2.79v-2.2a1.38,1.38,0,0,0-1.38-1.38h0Z"/>
    <path class="cls-24" d="M226.19,347.79a1.38,1.38,0,0,0-1.38,1.38h0v2.21h2.75v-2.21a1.37,1.37,0,0,0-1.36-1.38Z"/>
    <path class="cls-24" d="M213.06,347.79a1.38,1.38,0,0,0-1.38,1.38h0v2.21h2.76v-2.21a1.38,1.38,0,0,0-1.38-1.38Z"/>
    <path class="cls-24" d="M189.32,347.79h0a1.38,1.38,0,0,0-1.39,1.38h0v2.21h2.77v-2.21a1.38,1.38,0,0,0-1.38-1.38Z"/>
    <path class="cls-24" d="M176,347.79a1.37,1.37,0,0,0-1.37,1.37h0v2.21h2.75v-2.21a1.38,1.38,0,0,0-1.38-1.38Z"/>
    <path class="cls-24" d="M201.63,347.79a1.38,1.38,0,0,0-1.37,1.37h0v2.21h2.79v-2.21a1.38,1.38,0,0,0-1.38-1.38h0Z"/>
  </g>
</svg>
