<svg id="Layer_1" data-name="Layer 1" xmlns="http://www.w3.org/2000/svg" xmlns:xlink="http://www.w3.org/1999/xlink" viewBox="0 0 1480.34 1480.55"><defs><style>.cls-1{fill:none;}.cls-2{fill:#fff;}.cls-3{clip-path:url(#clip-path);}.cls-4{clip-path:url(#clip-path-2);}.cls-5{clip-path:url(#clip-path-3);}.cls-6{fill:#fcc200;}.cls-7{fill:#7b6ce6;}.cls-8{clip-path:url(#clip-path-4);}.cls-9{clip-path:url(#clip-path-5);}</style><clipPath id="clip-path"><path class="cls-1" d="M740.06-.93V0h0V138.41c221.84,0,415.63,120,520,298.66l119.33-69.58,1.07-.63C1251.91,146.87,1013.24-.93,740.06-.93ZM885,109.39a18,18,0,1,1,18-18A18,18,0,0,1,885,109.39Zm193.37,73.86a18,18,0,1,1,18-18A18,18,0,0,1,1078.35,183.25Zm144.94,122.07a18,18,0,1,1,18,18A18,18,0,0,1,1223.29,305.32Z"/></clipPath><clipPath id="clip-path-2"><path class="cls-1" d="M1223.29,1301l-.33.29C1030,1467,756.65,1528.83,498.82,1439.93c-203.3-70.1-356.45-219.93-436.54-402.45A739.5,739.5,0,0,1,0,757.89l138.37-3.29c7.61,325.78,274.08,587.54,601.69,587.54a599.41,599.41,0,0,0,392.65-145.73l-2.74-3.19.27-.23,2.75,3.19Z"/></clipPath><clipPath id="clip-path-3"><path class="cls-1" d="M246.18,187.58l.67.75,41.34,46.25L339,291.48a599.55,599.55,0,0,1,401-153.07V-.93A738.4,738.4,0,0,0,246.18,187.58Zm155.88-9a18,18,0,1,1,18-18A18,18,0,0,1,402.06,178.56Zm209.58-79.2a18,18,0,1,1,18-18A18,18,0,0,1,611.64,99.36Z"/></clipPath><clipPath id="clip-path-4"><path class="cls-1" d="M1403.08,408.57c-7.11-14.17-16-30.37-24-44L1259,435.2s1.13,1.93,1.14,2a599,599,0,0,1,81.8,303.11c0,182.23-81,345.54-208.93,455.91l90.3,104.78-.33.29.66.77a741.75,741.75,0,0,0,179.46-893.45Zm-75.46,689.66a17.78,17.78,0,0,1-3.67.38,18,18,0,1,1,7.39-34.36h0a18,18,0,0,1-3.72,34Zm53.07-531.69a18,18,0,1,1,5.19-.77A17.76,17.76,0,0,1,1380.69,566.54Zm28.8,294.34a18,18,0,1,1,18-18A18,18,0,0,1,1409.49,860.88Z"/></clipPath><clipPath id="clip-path-5"><path class="cls-1" d="M2953.89,1301l-.33.29c-192.95,165.78-466.31,227.58-724.14,138.68-203.3-70.1-356.45-219.93-436.54-402.45a739.5,739.5,0,0,1-62.28-279.59L1869,754.6c7.61,325.78,274.08,587.54,601.69,587.54a599.41,599.41,0,0,0,392.65-145.73l-2.74-3.19.27-.23,2.75,3.19Z"/></clipPath></defs><title>CircleBiggerDots4 copy</title><circle class="cls-2" cx="740.06" cy="740.28" r="740.28"/><path class="cls-2" d="M1409.49,824.94a18,18,0,1,0,18,18A18,18,0,0,0,1409.49,824.94Zm-20-292a18,18,0,1,0,9.18,15.67A17.8,17.8,0,0,0,1389.48,532.9ZM1241.26,287.35a18,18,0,1,0,18,18A18,18,0,0,0,1241.26,287.35ZM1133,1196.18l-2.75-3.19-.27.23,2.74,3.19a599.41,599.41,0,0,1-392.65,145.73c-327.61,0-594.08-261.76-601.69-587.54L0,757.89a739.5,739.5,0,0,0,62.28,279.59c80.09,182.52,233.24,332.35,436.54,402.45C756.65,1528.83,1030,1467,1223,1301.25l.33-.29ZM1078.35,147.31a18,18,0,1,0,18,18A18,18,0,0,0,1078.35,147.31ZM885,73.45a18,18,0,1,0,18,18A18,18,0,0,0,885,73.45ZM402.06,142.62a18,18,0,1,0,18,18A18,18,0,0,0,402.06,142.62Zm209.58-79.2a18,18,0,1,0,18,18A18,18,0,0,0,611.64,63.42ZM740.06,0V138.41h0V0Zm591.28,1064.26h0a18,18,0,1,0-7.39,34.36,17.78,17.78,0,0,0,3.67-.38,18,18,0,0,0,3.72-34Z"/><path class="cls-6" d="M420,160.59a18,18,0,1,1-18-18A18,18,0,0,1,420,160.59Z"/><path class="cls-6" d="M629.61,81.39a18,18,0,1,1-18-18A18,18,0,0,1,629.61,81.39Z"/><rect class="cls-6" x="740.06" width="0.01" height="138.41"/><path class="cls-2" d="M420,160.59a18,18,0,1,1-18-18A18,18,0,0,1,420,160.59Z"/><path class="cls-2" d="M629.61,81.39a18,18,0,1,1-18-18A18,18,0,0,1,629.61,81.39Z"/><path class="cls-2" d="M1398.66,548.57a18,18,0,0,1-12.78,17.2,17.76,17.76,0,0,1-5.19.77,18,18,0,1,1,18-18Z"/><path class="cls-2" d="M1427.46,842.91a18,18,0,1,1-18-18A18,18,0,0,1,1427.46,842.91Z"/><path class="cls-2" d="M1341.92,1080.64a18,18,0,0,1-14.3,17.59,17.78,17.78,0,0,1-3.67.38,18,18,0,1,1,7.39-34.36h0A18,18,0,0,1,1341.92,1080.64Z"/><circle class="cls-7" cx="884.98" cy="91.42" r="17.97"/><circle class="cls-7" cx="1078.35" cy="165.28" r="17.97"/><path class="cls-7" d="M1259.23,305.32a18,18,0,1,1-18-18A18,18,0,0,1,1259.23,305.32Z"/><circle class="cls-2" cx="884.98" cy="91.42" r="17.97"/><circle class="cls-2" cx="1078.35" cy="165.28" r="17.97"/><path class="cls-2" d="M1259.23,305.32a18,18,0,1,1-18-18A18,18,0,0,1,1259.23,305.32Z"/><path class="cls-2" d="M1133,1196.18a1.89,1.89,0,0,1-.28.23l-2.74-3.19.27-.23Z"/><path class="cls-2" d="M1223.29,1301l-.33.29-90.25-104.84-2.74-3.19.27-.23,2.75,3.19Z"/><path class="cls-2" d="M1331.34,1064.25h0l-3.72,34a17.78,17.78,0,0,1-3.67.38,18,18,0,1,1,7.39-34.36Z"/><path class="cls-2" d="M1389.48,532.9l-3.6,32.87a17.76,17.76,0,0,1-5.19.77,18,18,0,1,1,8.79-33.64Z"/><circle class="cls-2" cx="933.77" cy="1377.11" r="17.97"/><circle class="cls-2" cx="494.91" cy="1359.14" r="17.97"/><circle class="cls-2" cx="181.91" cy="1098.61" r="17.97"/></svg>