<svg id="Layer_1" data-name="Layer 1" xmlns="http://www.w3.org/2000/svg" viewBox="0 0 1481.37 1482.23"><defs><style>.cls-1{fill:#fff;}.cls-2{fill:#00a8f0;}.cls-3{fill:#2dd687;}.cls-4{fill:#7b6ce6;}.cls-5{fill:none;}.cls-6{fill:#fcc200;}</style></defs><title>CircleBiggerDots7</title><path class="cls-1" d="M402.17,144.3a18,18,0,1,0,18,18A18,18,0,0,0,402.17,144.3ZM611.75,65.1a18,18,0,1,0,18,18A18,18,0,0,0,611.75,65.1ZM1409.6,826.62a18,18,0,1,0,18,18A18,18,0,0,0,1409.6,826.62Zm-20-292a18,18,0,1,0,9.18,15.67A17.8,17.8,0,0,0,1389.59,534.58Zm-58.14,531.36h0a18,18,0,1,0-7.39,34.36,17.78,17.78,0,0,0,3.67-.38,18,18,0,0,0,3.72-34ZM1241.37,289a18,18,0,1,0,18,18A18,18,0,0,0,1241.37,289Zm-108.22,908.89-.05-.06-2.75-3.19-.27.23,2.74,3.19q-9.3,8-18.94,15.66c-1.06.84-2.12,1.68-3.19,2.5-.58.47-1.16.92-1.74,1.36-1.15.91-2.29,1.79-3.46,2.68l-.16.12q-2.11,1.62-4.24,3.21c-.83.63-1.67,1.25-2.51,1.87s-1.8,1.34-2.71,2q-2,1.48-4,2.92s0,0,0,0c-1.18.86-2.36,1.7-3.54,2.54s-2.41,1.71-3.62,2.55q-3.62,2.55-7.29,5-2.27,1.54-4.56,3.06c-.66.45-1.32.88-2,1.32l-3.62,2.37q-4.83,3.14-9.73,6.17l-1.57,1c-1,.6-1.9,1.18-2.86,1.76l-1.56,1c-.52.32-1,.63-1.55.93q-2,1.23-4.08,2.43l-.36.21q-2,1.18-4,2.34c-1.11.65-2.23,1.29-3.35,1.92s-2.15,1.23-3.23,1.84c-.58.33-1.16.66-1.75,1l-3.75,2.08q-2.27,1.24-4.55,2.47l-1.65.88c-1.22.66-2.44,1.31-3.67,2q-5.58,2.94-11.24,5.75l-4.46,2.2c-.49.25-1,.49-1.48.72-1,.5-2,1-3.05,1.47-1.31.63-2.62,1.25-3.94,1.86l-2,.92q-4.17,2-8.41,3.83l-2.94,1.31-4.5,2c-1.17.51-2.35,1-3.52,1.49q-2.81,1.2-5.64,2.35L965,1300.4c-1.22.5-2.45,1-3.68,1.47-.86.35-1.73.69-2.6,1l-1.88.73-3.24,1.24-4.45,1.67c-1.25.47-2.52.93-3.78,1.39l-.26.09-2.37.85c-1.14.41-2.28.82-3.42,1.21s-2,.71-3,1c-1.42.5-2.84,1-4.27,1.46l-3.18,1.05c-.92.31-1.85.62-2.78.91l-.29.1c-1.21.4-2.42.78-3.63,1.16-2.07.67-4.15,1.31-6.24,1.94l-1.87.57-3.95,1.18q-6,1.77-12.12,3.42c-2,.53-3.91,1.06-5.88,1.56h0a600.06,600.06,0,0,0,240.8-126.33l90.2,104.78.33-.29ZM866.59,1330.51l-.42.09-2,.42q4.44-.93,8.85-1.92l-2.62.58C869.13,1330,867.86,1330.24,866.59,1330.51ZM848,1334.18l3.38-.63-3.5.65Zm43.91-9.65.18,0-.53.14Zm-28.55,6.67.83-.18q-3.13.66-6.29,1.29Zm11-2.4.08,0-1.42.32Zm-26.5,5.4c-1.42.27-2.84.51-4.27.75C845,1334.71,846.44,1334.46,847.86,1334.2Zm34.19-7.21-2.79.67c-1.59.38-3.21.76-4.82,1.12,5.73-1.3,11.43-2.7,17.1-4.16-1.78.46-3.54.92-5.32,1.35Zm-43.79,8.87c1.45-.23,2.9-.48,4.34-.73l1-.18c-2.79.49-5.58,1-8.39,1.41Zm13.1-2.31c2.18-.41,4.35-.81,6.52-1.24l-4.42.85Zm82.52,27.27a18,18,0,1,0,18,18A18,18,0,0,0,933.88,1360.82ZM831,1337c1.39-.2,2.77-.42,4.16-.65l-3,.47Zm-3,.43c-1.09.17-2.17.32-3.26.47-1.94.28-3.88.55-5.83.79-.68.1-1.35.19-2,.27q6.33-.78,12.62-1.74l-.78.11C828.53,1337.38,828.29,1337.42,828.05,1337.44Zm-20.43,2.65.74-.09-.74.08Zm-6.26.66.2,0,2.77-.29c-1.42.16-2.85.3-4.27.44Zm-22.8,1.87q-5.2.32-10.41.56Q773.37,1343,778.56,1342.62ZM602.15,1327.9q10.1,2.38,20.3,4.4Q612.23,1330.26,602.15,1327.9Zm-286.8,20.29a736.1,736.1,0,0,0,386.47,133,745,745,0,0,1-386.47-133Zm262-26.67.3.08-3.54-1c1,.29,1.95.57,2.93.84A2.8,2.8,0,0,1,577.35,1321.52Zm-32.81-10.23q-3.87-1.32-7.71-2.71c1.41.51,2.83,1,4.25,1.5ZM495,1378.79a18,18,0,1,0-18-18A18,18,0,0,0,495,1378.79ZM182,1082.32a18,18,0,1,0,18,18A18,18,0,0,0,182,1082.32ZM5.42,832a737.28,737.28,0,0,0,179.79,399.77A743.28,743.28,0,0,1,5.42,832Zm1073-683a18,18,0,1,0,18,18A18,18,0,0,0,1078.46,149ZM885.09,75.13a18,18,0,1,0,18,18A18,18,0,0,0,885.09,75.13ZM740.17,1.68V140.09h0V1.68Z"/><path class="cls-2" d="M740.28,1.68h-.1V140.09h.1c332.4,0,601.86,269.47,601.86,601.87,0,182.26-81,345.59-209,456l89.92,105h0A743.07,743.07,0,0,1,789.29,1480.6c386-25.2,691.27-346.26,691.27-738.64C1480.56,333.11,1149.12,1.68,740.28,1.68ZM885.09,111.07a18,18,0,1,1,18-18A18,18,0,0,1,885.09,111.07Zm193.37,73.86a18,18,0,1,1,18-18A18,18,0,0,1,1078.46,184.93Zm162.91,140a18,18,0,1,1,18-18A18,18,0,0,1,1241.37,325Zm86.36,775a17.78,17.78,0,0,1-3.67.38,18,18,0,1,1,7.39-34.36h0a18,18,0,0,1-3.72,34Zm53.07-531.69a18,18,0,1,1,5.19-.77A17.76,17.76,0,0,1,1380.8,568.22Zm28.8,294.34a18,18,0,1,1,18-18A18,18,0,0,1,1409.6,862.56Z"/><path class="cls-1" d="M0,742q0,8.84.21,17.61l138.27-3.29q.08,3.24.19,6.46c.07,2.16.15,4.3.25,6.45.08,1.87.17,3.73.28,5.59.05,1,.11,2,.17,2.92l0,.62c.07,1.24.15,2.47.23,3.71.14,2.1.28,4.2.44,6.3l.06.7v.05c.13,1.64.26,3.28.4,4.92.09,1,.18,2.11.29,3.16a1,1,0,0,0,0,.17c.09,1.07.19,2.14.29,3.21,0,.49.09,1,.15,1.46,0,.13,0,.25,0,.38.13,1.44.28,2.88.44,4.31l.06.56c0,.25.05.49.08.74.2,1.86.41,3.73.63,5.58,0,.24.05.47.09.7s0,.31,0,.46c.14,1.2.29,2.39.45,3.58,0,.27.06.53.1.79.1.85.21,1.69.33,2.53l.06.43c.16,1.26.33,2.51.5,3.76,0,.31.09.63.14.94s.09.66.14,1c.22,1.57.45,3.14.68,4.7,0,.14,0,.28.07.42s.06.43.1.65q.36,2.38.75,4.77a.68.68,0,0,0,0,.14c0,.3.09.6.14.89q.45,2.82.95,5.63v0a.63.63,0,0,0,0,.19q.52,3.08,1.09,6.12c.3,1.65.61,3.29.93,4.93,0,.13,0,.25.07.38.09.49.18,1,.28,1.45.28,1.46.57,2.91.87,4.36.11.59.23,1.17.36,1.75q.54,2.65,1.11,5.3c0,.12,0,.23.07.33q.66,3,1.35,6.05t1.41,6.07c.38,1.59.76,3.17,1.15,4.75l.12.48.39,1.58q.66,2.64,1.35,5.28,1.56,6,3.25,12,.85,3,1.72,5.95,1.65,5.61,3.4,11.18l.21.66c.44,1.37.87,2.74,1.32,4.11.1.32.21.63.31,1s.17.55.26.82l.39,1.15c0,.14.09.28.14.42s.11.33.16.5c.42,1.26.84,2.52,1.27,3.78.66,1.94,1.33,3.89,2,5.82s1.37,3.87,2.07,5.8q1,2.65,1.94,5.29c.59,1.58,1.18,3.15,1.79,4.72.25.66.5,1.32.76,2s.51,1.33.77,2,.48,1.25.73,1.86l.06.14c.31.8.62,1.6.95,2.4l.16.4c.45,1.13.91,2.25,1.37,3.38l.11.27c.11.3.23.59.35.87.73,1.76,1.46,3.53,2.2,5.28s1.52,3.58,2.29,5.36c.08.2.17.39.26.59.51,1.18,1,2.35,1.55,3.52l.18.41c.39.91.79,1.81,1.21,2.71.11.26.23.52.35.78.51,1.15,1,2.29,1.55,3.43l.12.27q1.2,2.61,2.43,5.21a.2.2,0,0,0,0,.08c.1.22.2.43.31.65.74,1.59,1.5,3.17,2.26,4.75a.67.67,0,0,0,.06.12l0,.09c.6,1.24,1.2,2.47,1.82,3.7.1.23.22.45.33.68.23.49.47,1,.71,1.46.57,1.15,1.15,2.3,1.73,3.44.79,1.57,1.58,3.13,2.39,4.68l.2.38c.46.9.93,1.8,1.4,2.7q1.24,2.38,2.52,4.76c.37.7.75,1.4,1.13,2.1.54,1,1.09,2,1.65,3,.94,1.72,1.9,3.45,2.86,5.16q1.11,2,2.25,4c.66,1.16,1.32,2.31,2,3.46l1.06,1.82q.93,1.6,1.89,3.21l.78,1.31c.76,1.29,1.53,2.56,2.3,3.84l.15.24q1.35,2.22,2.71,4.42l.38.61c.59,1,1.2,2,1.81,2.93.09.13.17.26.25.39q1.24,2,2.52,4c.54.86,1.09,1.71,1.65,2.56q1.19,1.85,2.4,3.69,1.44,2.2,2.91,4.38l.33.49q.25.4.54.81c.71,1.06,1.42,2.11,2.15,3.16l.35.51c.46.69.94,1.38,1.42,2.07.69,1,1.38,2,2.09,3,.31.46.64.93,1,1.39q1.38,2,2.79,3.93l.13.18a.24.24,0,0,0,.06.09q1.4,2,2.82,3.9c.63.88,1.28,1.76,1.93,2.63.39.55.8,1.09,1.21,1.64.63.86,1.28,1.72,1.92,2.58.85,1.13,1.7,2.25,2.56,3.37l.28.37.05.07c.83,1.1,1.68,2.2,2.53,3.29q1,1.29,2,2.58c.65.85,1.32,1.69,2,2.53l1.55,1.95c1,1.23,2,2.45,2.94,3.67l.57.7c1,1.23,2,2.46,3,3.68l.6.72c.85,1,1.7,2.05,2.56,3.07l.3.35c.95,1.13,1.91,2.27,2.88,3.39s1.78,2.09,2.68,3.13l.11.12c1.23,1.43,2.48,2.85,3.72,4.26q3.64,4.13,7.36,8.18c1.35,1.48,2.72,3,4.09,4.43q10,10.71,20.54,20.93,2.07,2,4.17,4c1.4,1.34,2.8,2.66,4.22,4s2.81,2.62,4.23,3.92l0,0c1,.94,2.05,1.88,3.09,2.8,2,1.8,4,3.57,6,5.33l2.26,2,2.82,2.44,1.47,1.26,3,2.53,4.19,3.5,2.23,1.85,2.57,2.09,2.46,2,1.31,1,.46.37,3.54,2.79c1.46,1.16,2.94,2.3,4.42,3.44,1.28,1,2.57,2,3.87,3,.7.54,1.41,1.07,2.12,1.6l3.43,2.56,2.34,1.72c.78.58,1.56,1.14,2.35,1.71l4.18,3,.62.43c1.49,1.06,3,2.12,4.49,3.16l1.55,1.07q2.08,1.45,4.2,2.88l.26.18.41.28,3.36,2.26,3.64,2.41,3.1,2q3.93,2.57,7.91,5l.06,0c2,1.22,3.93,2.44,5.91,3.64s4,2.4,5.95,3.58l.06,0,3.58,2.12q2.22,1.29,4.45,2.57c1,.6,2.07,1.18,3.11,1.77.28.17.57.33.86.49l1.35.76,0,0c1.6.89,3.19,1.78,4.8,2.66s3.41,1.86,5.13,2.78,3.44,1.83,5.16,2.73,3.46,1.8,5.2,2.69,3.47,1.76,5.22,2.63l2.53,1.26,2.54,1.24.42.2c1.36.67,2.72,1.32,4.08,2l.27.13,1.15.54c1.61.77,3.23,1.52,4.85,2.27s3.18,1.47,4.77,2.19l.54.24.09,0c1.76.79,3.53,1.58,5.3,2.35l2.65,1.16,2.65,1.14.4.17c1.59.68,3.19,1.35,4.78,2l.89.37c1.63.68,3.26,1.34,4.89,2,1.4.57,2.8,1.11,4.21,1.67C296.08,1213.65,138.42,996.23,138.42,742c0-332.36,269.4-601.81,601.75-601.87V1.68C331.38,1.74,0,333.15,0,742ZM402.17,180.24a18,18,0,1,1,18-18A18,18,0,0,1,402.17,180.24ZM611.75,101a18,18,0,1,1,18-18A18,18,0,0,1,611.75,101ZM519,1301.84l.47.18Zm8.08,3.15.14,0,4.07,1.52q2.76,1,5.55,2c1.41.51,2.83,1,4.25,1.5l3.46,1.21,3.46,1.18,4.21,1.4,4.24,1.37,2.26.71q-8.43-2.65-16.74-5.57l-2.22-.77q-10.23-3.61-20.29-7.59l3.54,1.41Zm58.14,18.67,2.46.65-4.54-1.21Zm-3.35-.9,1.27.34-3.45-.94ZM565,1317.89q-2.91-.89-5.81-1.8l1.55.49Zm-6.24-1.94.43.14Z"/><path class="cls-1" d="M1331.45,1065.94h0a18,18,0,1,0-7.39,34.36,17.78,17.78,0,0,0,3.67-.38,18,18,0,0,0,3.72-34ZM740.17,1.68V140.09h0V1.68ZM611.75,65.1a18,18,0,1,0,18,18A18,18,0,0,0,611.75,65.1ZM402.17,144.3a18,18,0,1,0,18,18A18,18,0,0,0,402.17,144.3ZM885.09,75.13a18,18,0,1,0,18,18A18,18,0,0,0,885.09,75.13ZM1078.46,149a18,18,0,1,0,18,18A18,18,0,0,0,1078.46,149Zm54.69,1048.93-.05-.06-2.75-3.19-.27.23,2.74,3.19q-9.3,8-18.94,15.66c-1.06.84-2.12,1.68-3.19,2.5-.58.47-1.16.92-1.74,1.36-1.15.91-2.29,1.79-3.46,2.68l-.16.12q-2.11,1.62-4.24,3.21c-.83.63-1.67,1.25-2.51,1.87s-1.8,1.34-2.71,2q-2,1.48-4,2.92s0,0,0,0c-1.18.86-2.36,1.7-3.54,2.54s-2.41,1.71-3.62,2.55q-3.62,2.55-7.29,5-2.27,1.54-4.56,3.06c-.66.45-1.32.88-2,1.32l-3.62,2.37q-4.83,3.14-9.73,6.17l-1.57,1c-1,.6-1.9,1.18-2.86,1.76l-1.56,1c-.52.32-1,.63-1.55.93q-2,1.23-4.08,2.43l-.36.21q-2,1.18-4,2.34c-1.11.65-2.23,1.29-3.35,1.92s-2.15,1.23-3.23,1.84c-.58.33-1.16.66-1.75,1l-3.75,2.08q-2.27,1.24-4.55,2.47l-1.65.88c-1.22.66-2.44,1.31-3.67,2q-5.58,2.94-11.24,5.75l-4.46,2.2c-.49.25-1,.49-1.48.72-1,.5-2,1-3.05,1.47-1.31.63-2.62,1.25-3.94,1.86l-2,.92q-4.17,2-8.41,3.83l-2.94,1.31-4.5,2c-1.17.51-2.35,1-3.52,1.49q-2.81,1.2-5.64,2.35L965,1300.4c-1.22.5-2.45,1-3.68,1.47-.86.35-1.73.69-2.6,1l-1.88.73-3.24,1.24-4.45,1.67c-1.25.47-2.52.93-3.78,1.39l-.26.09-2.37.85c-1.14.41-2.28.82-3.42,1.21s-2,.71-3,1c-1.42.5-2.84,1-4.27,1.46l-3.18,1.05c-.92.31-1.85.62-2.78.91l-.29.1c-1.21.4-2.42.78-3.63,1.16-2.07.67-4.15,1.31-6.24,1.94l-1.87.57-3.95,1.18q-6,1.77-12.12,3.42c-2,.53-3.91,1.06-5.88,1.56h0a600.06,600.06,0,0,0,240.8-126.33l90.2,104.78.33-.29ZM866.59,1330.51l-.42.09-2,.42q4.44-.93,8.85-1.92l-2.62.58C869.13,1330,867.86,1330.24,866.59,1330.51Zm-3.25.69.83-.18q-3.13.66-6.29,1.29Zm-15.48,3c-1.42.27-2.84.51-4.27.75C845,1334.71,846.44,1334.46,847.86,1334.2Zm44-9.67.18,0-.53.14ZM848,1334.18l3.38-.63-3.5.65Zm34.07-7.19-2.79.67c-1.59.38-3.21.76-4.82,1.12,5.73-1.3,11.43-2.7,17.1-4.16-1.78.46-3.54.92-5.32,1.35Zm-30.69,6.56c2.18-.41,4.35-.81,6.52-1.24l-4.42.85Zm-13.1,2.31c1.45-.23,2.9-.48,4.34-.73l1-.18c-2.79.49-5.58,1-8.39,1.41Zm36.1-7.06.08,0-1.42.32Zm59.52,32a18,18,0,1,0,18,18A18,18,0,0,0,933.88,1360.82ZM831,1337c1.39-.2,2.77-.42,4.16-.65l-3,.47Zm-3,.43c-1.09.17-2.17.32-3.26.47-1.94.28-3.88.55-5.83.79-.68.1-1.35.19-2,.27q6.33-.78,12.62-1.74l-.78.11C828.53,1337.38,828.29,1337.42,828.05,1337.44Zm-20.43,2.65.74-.09-.74.08Zm-6.26.66.2,0,2.77-.29c-1.42.16-2.85.3-4.27.44Zm-22.8,1.87q-5.2.32-10.41.56Q773.37,1343,778.56,1342.62ZM577,1321.43a2.8,2.8,0,0,1,.31.09l.3.08-3.54-1C575.08,1320.88,576.06,1321.16,577,1321.43Zm-36-11.35,3.46,1.21q-3.87-1.32-7.71-2.71C538.24,1309.09,539.66,1309.59,541.08,1310.08ZM495,1342.85a18,18,0,1,0,18,18A18,18,0,0,0,495,1342.85Zm-305.28-106a734.75,734.75,0,0,0,120.2,107.51A743.6,743.6,0,0,1,189.74,1236.85ZM200,1100.29a18,18,0,1,0-18,18A18,18,0,0,0,200,1100.29ZM.11,759.57q.86,35.74,5.14,71-4.19-35-5-71ZM1241.37,289a18,18,0,1,0,18,18A18,18,0,0,0,1241.37,289Zm148.22,245.55a18,18,0,1,0,9.18,15.67A17.8,17.8,0,0,0,1389.59,534.58Zm20,292a18,18,0,1,0,18,18A18,18,0,0,0,1409.6,826.62Z"/><path class="cls-3" d="M1133.15,1197.92a600.51,600.51,0,0,1-298,138.44c-1.39.23-2.77.45-4.16.65l-.12,0-1.14.17-.23,0q-6.28,1-12.62,1.74c-2.85.37-5.71.72-8.57,1l-.74.09-.7.07c-.86.1-1.72.2-2.59.28-1.42.16-2.85.3-4.27.44-1.61.16-3.22.32-4.83.46q-6.22.56-12.47,1l-4.2.28q-5.19.33-10.41.56l-3.48.15-3.38.13q-10.45.36-21,.36-6.12,0-12.2-.12-3.62-.08-7.2-.19l-3.87-.13q-3.69-.14-7.37-.32l-.33,0q-3.63-.18-7.24-.41l-.44,0c-2.37-.14-4.74-.31-7.11-.49l-1.15-.09c-2.12-.16-4.25-.33-6.37-.52l-4.46-.41q-3.79-.35-7.59-.77-3.48-.37-7-.79h-.11c-1.89-.23-3.78-.46-5.66-.71l-2-.26c-1.57-.2-3.14-.42-4.71-.64q-2.68-.37-5.37-.79c-1.1-.15-2.21-.32-3.31-.5l-1-.16c-1.17-.18-2.33-.36-3.5-.56-1.93-.31-3.85-.63-5.77-1a1.26,1.26,0,0,1-.27,0c-1.12-.19-2.23-.38-3.34-.59s-2.47-.44-3.7-.68c-2.28-.42-4.55-.86-6.83-1.31q-10.22-2-20.3-4.4-3.39-.78-6.77-1.63c-2-.51-4.09-1-6.14-1.55l-1.57-.41-2.46-.65-2.08-.56-1.27-.34-2.18-.6-1.81-.5-.22-.06-.3-.08a2.8,2.8,0,0,0-.31-.09c-1-.27-2-.55-2.93-.84l-1.61-.46-1.11-.32-.41-.12-.67-.2-3.37-1-1-.3-1-.3-4.26-1.31c-1.42-.44-2.83-.88-4.24-1.34s-2.83-.9-4.24-1.37l-4.21-1.4-3.46-1.18q-3.87-1.32-7.71-2.71-2.79-1-5.55-2l-4.07-1.52-.14,0c-1.36-.51-2.72-1-4.07-1.56q-4.12-1.59-8.22-3.26c-1.63-.66-3.26-1.32-4.89-2l-.89-.37c-1.6-.65-3.19-1.33-4.78-2l-.4-.17c-.89-.37-1.77-.75-2.65-1.14l-2.65-1.16c-1.77-.77-3.54-1.56-5.3-2.35l-.09,0-.54-.24c-1.59-.72-3.19-1.45-4.77-2.19s-3.24-1.5-4.85-2.27l-1.15-.54-.27-.13c-1.36-.64-2.73-1.3-4.08-2l-.42-.2-2.54-1.24c-.84-.41-1.69-.83-2.53-1.26q-2.62-1.29-5.22-2.63t-5.2-2.69q-2.6-1.33-5.16-2.73t-5.13-2.78q-2.41-1.3-4.8-2.66l0,0-1.35-.76c-.29-.16-.58-.32-.86-.49-1-.58-2.08-1.17-3.11-1.77q-2.24-1.27-4.45-2.57l-3.58-2.12-.06,0c-2-1.17-4-2.36-5.95-3.58s-3.95-2.41-5.91-3.64l-.06,0q-4-2.49-7.91-5c-1-.66-2.07-1.34-3.1-2l-3.64-2.41c-1.12-.74-2.24-1.5-3.36-2.26l-.41-.28-.26-.18q-2.1-1.41-4.2-2.88l-1.55-1.07c-1.51-1-3-2.09-4.49-3.16l-.62-.43-4.18-3c-.79-.56-1.57-1.13-2.35-1.71l-2.34-1.72c-1.15-.84-2.29-1.69-3.43-2.56-.71-.53-1.42-1.06-2.12-1.6-1.3-1-2.59-2-3.87-3-1.48-1.14-3-2.28-4.42-3.44l-3.54-2.79-.46-.37-1.31-1-2.46-2-2.57-2.09-2.23-1.85-4.19-3.5-3-2.53-1.47-1.26-2.82-2.44-2.26-2c-2-1.76-4-3.53-6-5.33-1-.92-2.07-1.86-3.09-2.8l0,0c-1.42-1.3-2.83-2.6-4.23-3.92s-2.82-2.64-4.22-4-2.79-2.66-4.17-4q-10.53-10.21-20.54-20.93c-1.37-1.47-2.74-3-4.09-4.43q-3.72-4.06-7.36-8.18c-1.24-1.41-2.49-2.83-3.72-4.26l-.11-.12c-.9-1-1.8-2.08-2.68-3.13s-1.93-2.25-2.88-3.39l-.3-.35c-.86-1-1.71-2-2.56-3.07l-.6-.72c-1-1.22-2-2.45-3-3.68l-.57-.7c-1-1.21-2-2.44-2.94-3.67l-1.55-1.95c-.67-.84-1.34-1.68-2-2.53s-1.35-1.72-2-2.58c-.85-1.09-1.7-2.19-2.53-3.29l-.05-.07-.28-.37c-.87-1.12-1.71-2.24-2.56-3.37-.64-.86-1.29-1.72-1.92-2.58-.41-.55-.82-1.09-1.21-1.64-.65-.87-1.3-1.75-1.93-2.63q-1.42-1.95-2.82-3.9a.24.24,0,0,1-.06-.09l-.13-.18c-1-1.3-1.87-2.61-2.79-3.93-.33-.46-.66-.93-1-1.39-.71-1-1.4-2-2.09-3-.48-.69-1-1.38-1.42-2.07l-.35-.51c-.72-1-1.44-2.1-2.15-3.16q-.28-.4-.54-.81l-.33-.49c-1-1.46-1.95-2.91-2.91-4.38q-1.22-1.85-2.4-3.69c-.56-.85-1.11-1.71-1.65-2.56q-1.28-2-2.52-4c-.08-.13-.16-.26-.25-.39-.61-1-1.22-2-1.81-2.93l-.38-.61q-1.38-2.21-2.71-4.42l-.15-.24c-.78-1.28-1.54-2.55-2.3-3.84l-.78-1.31q-1-1.6-1.89-3.21l-1.06-1.82c-.67-1.15-1.33-2.3-2-3.46q-1.14-2-2.25-4-1.46-2.57-2.86-5.16c-.56-1-1.11-2-1.65-3-.38-.7-.76-1.4-1.13-2.1q-1.27-2.37-2.52-4.76c-.47-.9-.94-1.8-1.4-2.7l-.2-.38c-.81-1.55-1.6-3.11-2.39-4.68-.58-1.14-1.16-2.29-1.73-3.44-.24-.49-.48-1-.71-1.46-.11-.23-.23-.45-.33-.68-.62-1.23-1.22-2.47-1.82-3.7l0-.09a.67.67,0,0,1-.06-.12q-1.16-2.37-2.26-4.75c-.11-.22-.21-.43-.31-.65a.2.2,0,0,1,0-.08q-1.23-2.6-2.43-5.21l-.12-.27c-.52-1.14-1-2.28-1.55-3.43-.12-.26-.24-.52-.35-.78-.42-.9-.82-1.8-1.21-2.71l-.18-.41c-.53-1.17-1-2.35-1.55-3.52-.09-.2-.18-.39-.26-.59-.77-1.78-1.54-3.57-2.29-5.36s-1.48-3.51-2.2-5.28c-.12-.28-.24-.57-.35-.87l-.11-.27c-.46-1.12-.93-2.25-1.37-3.38l-.16-.4c-.32-.8-.64-1.6-.95-2.4l-.06-.14c-.25-.61-.49-1.23-.73-1.86s-.52-1.31-.77-2-.51-1.32-.76-2c-.61-1.57-1.2-3.14-1.79-4.72-.66-1.75-1.31-3.52-1.94-5.29q-1.06-2.9-2.07-5.8t-2-5.82c-.43-1.25-.86-2.52-1.27-3.78-.05-.17-.11-.33-.16-.5s-.1-.28-.14-.42c-.14-.38-.27-.77-.39-1.15s-.17-.55-.26-.82-.21-.63-.31-1c-.45-1.36-.89-2.74-1.32-4.11l-.21-.66q-1.76-5.57-3.4-11.18-.89-3-1.72-5.95-1.69-6-3.25-12c-.46-1.75-.91-3.52-1.35-5.28l-.39-1.58-.12-.48c-.39-1.58-.78-3.16-1.15-4.75q-.73-3-1.41-6.07c-.47-2-.91-4-1.35-6.05,0-.1,0-.21-.07-.33q-.57-2.64-1.11-5.3l-.36-1.75c-.3-1.45-.59-2.9-.87-4.36-.1-.48-.19-1-.28-1.45,0-.13-.05-.25-.07-.38-.33-1.64-.63-3.29-.93-4.93q-.57-3.06-1.09-6.12a.63.63,0,0,1,0-.19v0q-.49-2.81-.95-5.63c-.05-.29-.1-.59-.14-.89a.68.68,0,0,1,0-.14c-.27-1.59-.52-3.17-.75-4.77,0-.22-.07-.43-.1-.65s0-.28-.07-.42c-.24-1.56-.47-3.13-.68-4.7,0-.32-.1-.65-.14-1s-.1-.63-.14-.94c-.18-1.25-.35-2.5-.5-3.76l-.06-.43c-.12-.84-.23-1.68-.33-2.53,0-.26-.07-.52-.1-.79-.16-1.19-.31-2.38-.45-3.58,0-.15,0-.31,0-.46s-.06-.46-.09-.7c-.22-1.85-.43-3.72-.63-5.58,0-.25-.06-.49-.08-.74l-.06-.56c-.16-1.44-.31-2.87-.44-4.31,0-.13,0-.25,0-.38-.06-.49-.11-1-.15-1.46-.1-1.07-.21-2.14-.29-3.21a1,1,0,0,1,0-.17c-.11-1-.2-2.11-.29-3.16-.14-1.63-.28-3.28-.4-4.92V789l-.06-.7q-.24-3.15-.44-6.3c-.09-1.23-.16-2.47-.23-3.71l0-.62c-.07-1-.12-2-.17-2.92-.11-1.86-.2-3.73-.28-5.59q-.15-3.23-.25-6.45t-.19-6.46L.21,759.57q.83,35.94,5,71c0,.48.11.95.17,1.42a743.28,743.28,0,0,0,179.79,399.77q2.23,2.55,4.53,5.09a743.6,743.6,0,0,0,120.2,107.51q2.7,1.92,5.41,3.83a745,745,0,0,0,386.47,133c2.17.11,4.35.22,6.53.31,2.36.1,4.71.19,7.07.27,2.61.09,5.23.16,7.84.22.89,0,1.79,0,2.68.06l3,.05,3.08,0c1.15,0,2.3,0,3.46,0l4.72,0h.16l4.7,0,3.49,0q2.09,0,4.17-.06l4.17-.08c3-.07,5.91-.15,8.87-.26l3.89-.14,3.36-.14,4-.19,4.59-.24q3.83-.21,7.65-.47a744.4,744.4,0,0,0,434.19-177.81ZM182,1118.26a18,18,0,1,1,18-18A18,18,0,0,1,182,1118.26Zm313,260.53a18,18,0,1,1,18-18A18,18,0,0,1,495,1378.79Zm438.86,18a18,18,0,1,1,18-18A18,18,0,0,1,933.88,1396.76Z"/><path class="cls-4" d="M740.17.75v.93h0V140.09c221.84,0,415.63,120,520,298.66l119.33-69.58,1.07-.63C1252,148.55,1013.35.75,740.17.75ZM885.09,111.07a18,18,0,1,1,18-18A18,18,0,0,1,885.09,111.07Zm193.37,73.86a18,18,0,1,1,18-18A18,18,0,0,1,1078.46,184.93ZM1223.4,307a18,18,0,1,1,18,18A18,18,0,0,1,1223.4,307Z"/><path class="cls-5" d="M1223.4,1302.64l-.33.29c-193,165.78-466.31,227.58-724.14,138.68-203.3-70.1-356.45-219.93-436.54-402.45A739.5,739.5,0,0,1,.11,759.57l138.37-3.29c7.61,325.78,274.08,587.54,601.69,587.54a599.41,599.41,0,0,0,392.65-145.73l-2.74-3.19.27-.23,2.75,3.19Z"/><path class="cls-6" d="M246.29,189.26l.67.75,41.34,46.25,50.85,56.9a599.55,599.55,0,0,1,401-153.07V.75A738.4,738.4,0,0,0,246.29,189.26Z"/><path class="cls-6" d="M402.17,180.24a18,18,0,1,1,18-18A18,18,0,0,1,402.17,180.24Z"/><path class="cls-6" d="M611.75,101a18,18,0,1,1,18-18A18,18,0,0,1,611.75,101Z"/><path class="cls-6" d="M420.13,162.27a18,18,0,1,1-18-18A18,18,0,0,1,420.13,162.27Z"/><path class="cls-6" d="M629.72,83.07a18,18,0,1,1-18-18A18,18,0,0,1,629.72,83.07Z"/><rect class="cls-6" x="740.17" y="1.68" width="0.01" height="138.41"/><path class="cls-1" d="M420.13,162.27a18,18,0,1,1-18-18A18,18,0,0,1,420.13,162.27Z"/><path class="cls-1" d="M629.72,83.07a18,18,0,1,1-18-18A18,18,0,0,1,629.72,83.07Z"/><path class="cls-1" d="M1398.77,550.25a18,18,0,0,1-12.78,17.2,17.76,17.76,0,0,1-5.19.77,18,18,0,1,1,18-18Z"/><path class="cls-1" d="M1427.57,844.59a18,18,0,1,1-18-18A18,18,0,0,1,1427.57,844.59Z"/><path class="cls-1" d="M1342,1082.32a18,18,0,0,1-14.3,17.59,17.78,17.78,0,0,1-3.67.38,18,18,0,1,1,7.39-34.36h0A18,18,0,0,1,1342,1082.32Z"/><circle class="cls-4" cx="885.09" cy="93.1" r="17.97"/><path class="cls-4" d="M1096.43,167a18,18,0,1,1-18-18A18,18,0,0,1,1096.43,167Z"/><path class="cls-4" d="M1259.34,307a18,18,0,1,1-18-18A18,18,0,0,1,1259.34,307Z"/><circle class="cls-1" cx="885.09" cy="93.1" r="17.97"/><path class="cls-1" d="M1096.43,167a18,18,0,1,1-18-18A18,18,0,0,1,1096.43,167Z"/><path class="cls-1" d="M1259.34,307a18,18,0,1,1-18-18A18,18,0,0,1,1259.34,307Z"/><path class="cls-1" d="M1133.1,1197.86a1.89,1.89,0,0,1-.28.23l-2.74-3.19.27-.23Z"/><path class="cls-5" d="M1403.19,410.25c-7.11-14.17-16-30.37-24-44l-120.14,70.63s1.13,1.93,1.14,2A599,599,0,0,1,1342,742c0,182.23-81,345.54-208.93,455.91l90,105.07h0c33.42-28.79,64.91-59.75,92.73-94a741.88,741.88,0,0,0,87.39-798.67Zm-75.46,689.66a17.78,17.78,0,0,1-3.67.38,18,18,0,1,1,7.39-34.36h0a18,18,0,0,1-3.72,34Zm53.07-531.69a18,18,0,1,1,5.19-.77A17.76,17.76,0,0,1,1380.8,568.22Zm28.8,294.34a18,18,0,1,1,18-18A18,18,0,0,1,1409.6,862.56Z"/><path class="cls-1" d="M1331.45,1065.93h0l-3.72,34a17.78,17.78,0,0,1-3.67.38,18,18,0,1,1,7.39-34.36Z"/><path class="cls-1" d="M1389.59,534.58l-3.6,32.87a17.76,17.76,0,0,1-5.19.77,18,18,0,1,1,8.79-33.64Z"/><path class="cls-1" d="M951.85,1378.79a18,18,0,1,1-18-18A18,18,0,0,1,951.85,1378.79Z"/><path class="cls-1" d="M513,1360.82a18,18,0,1,1-18-18A18,18,0,0,1,513,1360.82Z"/><path class="cls-1" d="M200,1100.29a18,18,0,1,1-18-18A18,18,0,0,1,200,1100.29Z"/><path class="cls-1" d="M778.56,1342.62q-5.19.33-10.41.56Q773.36,1342.94,778.56,1342.62Z"/><path class="cls-1" d="M803,1340.58l4-.42c-.86.1-1.72.2-2.59.28l-2.77.29-.2,0-1.3.13c-1.61.16-3.22.32-4.83.46q2.78-.25,5.55-.54Z"/><path class="cls-1" d="M836.74,1336.1q3.43-.55,6.85-1.15l-1,.18c-1.44.25-2.89.5-4.34.73l-3.06.5c-1.39.23-2.77.45-4.16.65l-.12,0-1.14.17-.23,0q-6.28,1-12.62,1.74c-2.85.37-5.71.72-8.57,1l-.74.09-.7.07.7-.08q5.68-.63,11.34-1.38c1.95-.24,3.89-.51,5.83-.79,1.09-.15,2.17-.3,3.26-.47.24,0,.48-.06.72-.1,1.14-.16,2.27-.34,3.4-.51C833.7,1336.6,835.22,1336.35,836.74,1336.1Z"/><path class="cls-1" d="M847.86,1334.2l3.5-.65c-1.12.21-2.25.43-3.38.63Z"/><path class="cls-1" d="M873,1329.1l1.42-.32-.08,0Z"/><path class="cls-1" d="M891.54,1324.62l.53-.14-.18,0Z"/><path class="cls-1" d="M843.59,1335c1.43-.24,2.85-.48,4.27-.75C846.44,1334.46,845,1334.71,843.59,1335Z"/><path class="cls-1" d="M857.88,1332.31q3.15-.63,6.29-1.29l-.83.18Z"/><path class="cls-1" d="M853.46,1333.16l4.42-.85c-2.17.43-4.34.83-6.52,1.24Z"/><path class="cls-1" d="M886.22,1326c1.77-.44,3.55-.89,5.32-1.35-5.67,1.46-11.37,2.86-17.1,4.16,1.61-.36,3.23-.74,4.82-1.12l2.79-.67Z"/><path class="cls-1" d="M870.4,1329.68l2.62-.58q-4.41,1-8.85,1.92c.67-.14,1.34-.27,2-.42l.42-.09C867.86,1330.24,869.13,1330,870.4,1329.68Z"/></svg>