<svg id="Layer_1" data-name="Layer 1" xmlns="http://www.w3.org/2000/svg" viewBox="0 0 219.22 266.03"><defs><style>.cls-1{fill:#ffe08a;}.cls-2,.cls-3,.cls-4{fill:none;}.cls-3,.cls-4{stroke:#fcc200;stroke-miterlimit:10;}.cls-4{stroke-width:0.25px;}.cls-5{fill:#fcc200;}</style></defs><title>pine map - first quater</title><path class="cls-1" d="M219.16,0V184.92h0a81.08,81.08,0,0,0-81,81.08H.37C-6.69,131.93,88.09,16.69,219.16,0Z"/><path class="cls-2" d="M219.16,184.92V0C88.09,16.69-6.69,131.93.37,266H138.08"/><path class="cls-3" d="M219.16,110.49A148.9,148.9,0,0,0,89.39,266"/><path class="cls-4" d="M219.16,17.89C96.9,33.45,8.49,140.94,15.08,266"/><path class="cls-5" d="M219.16,159.23v25.69h0a81.08,81.08,0,0,0-81,81.08h-25.7A106.78,106.78,0,0,1,213.53,159.37c1.88-.1,3.73-.14,5.59-.14Z"/></svg>