<svg id="Layer_1" data-name="Layer 1" xmlns="http://www.w3.org/2000/svg" viewBox="0 0 345.89 331.59"><defs><style>.cls-1{fill:#8affc4;}.cls-2,.cls-4,.cls-5{fill:none;}.cls-3{fill:#2dd687;}.cls-4,.cls-5{stroke:#2dd687;stroke-miterlimit:10;}.cls-5{stroke-width:0.25px;}</style></defs><title>pine map - fourth quater</title><path class="cls-1" d="M345.89,81.1V331.59C161.11,331.5,9.86,186.73,0,0H264.81a81.06,81.06,0,0,0,80.72,81.06Z"/><path class="cls-2" d="M345.89,81.1V331.59C161.11,331.5,9.86,186.73,0,0H264.81a81.06,81.06,0,0,0,80.72,81.06Z"/><path class="cls-3" d="M345.89,81.1v25.7h-.32A106.78,106.78,0,0,1,239.26,5.66c-.1-1.89-.15-3.76-.15-5.63h25.7a81.06,81.06,0,0,0,80.72,81.06Z"/><path class="cls-4" d="M141.81,0c5.76,109.15,96.05,193.78,204.08,193.84"/><path class="cls-5" d="M23.26,0c9.19,174.14,150.28,309.18,322.63,309.26"/></svg>