<svg id="Слой_1" data-name="Слой 1" xmlns="http://www.w3.org/2000/svg" viewBox="0 0 129.51 377.62">
  <defs>
    <style>
      .cls-1 {
        fill: #6e260e;
      }

      .cls-1, .cls-10, .cls-11, .cls-12, .cls-13, .cls-14, .cls-15, .cls-16, .cls-2, .cls-3, .cls-4, .cls-5, .cls-6, .cls-7, .cls-8, .cls-9 {
        fill-rule: evenodd;
      }

      .cls-2 {
        fill: #fdbf9d;
      }

      .cls-13, .cls-3 {
        fill: #fc9e8a;
      }

      .cls-4 {
        fill: #fde597;
      }

      .cls-5 {
        fill: #fff;
      }

      .cls-6 {
        fill: #de936c;
      }

      .cls-7 {
        fill: #202020;
      }

      .cls-8 {
        fill: #aea2a1;
      }

      .cls-9 {
        fill: #d89544;
        fill-opacity: 0.65;
      }

      .cls-10 {
        fill: #1c1a1b;
      }

      .cls-11 {
        fill: #fd9797;
      }

      .cls-12 {
        fill: #752912;
      }

      .cls-13 {
        fill-opacity: 0.72;
      }

      .cls-14 {
        fill: #c47f75;
      }

      .cls-16 {
        fill: #a15454;
      }
    </style>
  </defs>
  <title>lifecycleFourthQuaterWoman</title>
  <g>
    <path class="cls-1" d="M3,124.38c1.87,5.09.62,13.32.62,13.32l116.67,1a21.35,21.35,0,0,1,.82-8.95c1.59-5.14,4.49-9.59,6.45-14.55s2.88-11,.46-15.71-7.32-6.86-9-11.77c-1.1-3.29-.43-7,.63-10.33s2.49-6.52,2.92-10a13.78,13.78,0,0,0-.23-4.75,22.78,22.78,0,0,0-1.74-4,20.48,20.48,0,0,0-1.3-2.76c-2.11-3.34-5.09-5.71-7.64-8.57a16.49,16.49,0,0,1-1.8-2.24,13.69,13.69,0,0,1-1.08-3q-1.11-3.5-2.21-7l-2.52-8a20,20,0,0,0-1.23-3.74,63.08,63.08,0,0,0-3.7-6C87.64,1.37,66.92-1.29,50.12.47,26.72,2.92,20.93,26.64,20.93,26.64,9.64,29.42,5.26,41.92,6.84,51.51S1.49,68.08.44,76.23c-1.69,13.16,1.88,9.6,3.69,22.61S-.89,113.71,3,124.38Z"/>
    <g>
      <g>
        <path class="cls-2" d="M24.52,228.52a11.12,11.12,0,0,1,.68,5.57c-.61,4.2-2.35,8.12-2.43,12-.05,2.57-3.27,3.06-3.88.58,0,0,0-.07,0-.09-.84-3.6,2-11.08,0-10.95s-4.31,6-4.58,9.78a9.32,9.32,0,0,0,1.1,5.09c.8,1.73-.9,3.57-2.34,2.58a12.83,12.83,0,0,1-4.31-6.26c-.85-3-4.18-6.31-5.06-8.63s1-5.23,5.56-14c.62-3.22,1.42-7.75,2.22-12.17C12.8,204.75,14,197.7,14,197.7l14.62,3.53s-2.23,7.84-4.32,14.89a.61.61,0,0,0-.05.12A19.68,19.68,0,0,0,24.52,228.52Z"/>
        <path class="cls-3" d="M28.62,201.23s-2.23,7.84-4.32,14.89l-12.81-4C12.8,204.75,14,197.7,14,197.7Z"/>
      </g>
      <g>
        <path class="cls-4" d="M38.09,134.34c-.92,8.35-7.9,53.78-9.77,68.26-.72,5.53-1.21,9.21-1.21,9.21L4.55,205.18s1.26-5.11,3.06-12.08c2.26-8.75,5.36-20.42,7.76-28.28,4.33-14.12,10.18-22.23,11.91-23.73A38.28,38.28,0,0,1,38.09,134.34Z"/>
        <path class="cls-5" d="M28.32,202.6c-.72,5.53-1.21,9.21-1.21,9.21L4.55,205.18s1.26-5.11,3.06-12.08Z"/>
      </g>
    </g>
    <g>
      <g>
        <path class="cls-2" d="M97.1,230a11.07,11.07,0,0,0-.89,5.53c.44,4.23,2,8.23,2,12.17-.06,2.57,3.15,3.23,3.85.78,0,0,0-.06,0-.09,1-3.54-1.54-11.17.39-10.94s4.06,6.21,4.19,10a9.2,9.2,0,0,1-1.31,5c-.86,1.68.76,3.62,2.24,2.7a12.57,12.57,0,0,0,4.56-6c1-2.91,4.42-6.08,5.39-8.35s-.82-5.28-5-14.23c-.49-3.24-1.11-7.82-1.73-12.27-1-7.43-2-14.54-2-14.54l-14.74,2.76s1.92,8,3.73,15.1c0,.05,0,.07,0,.12A19.59,19.59,0,0,1,97.1,230Z"/>
        <path class="cls-3" d="M94.09,202.57s1.92,8,3.73,15.1l13-3.32c-1-7.43-2-14.54-2-14.54Z"/>
      </g>
      <g>
        <path class="cls-4" d="M87.15,135.84c.58,8.39,5.89,53.93,7.18,68.49.5,5.57.84,9.27.84,9.27l22.8-5.43s-1.06-5.18-2.58-12.23c-1.91-8.86-4.54-20.68-6.63-28.66-3.77-14.33-7.82-20-10.24-23C95.9,141,90.31,137.66,87.15,135.84Z"/>
        <path class="cls-5" d="M94.33,204.33c.5,5.57.84,9.27.84,9.27l22.8-5.43s-1.06-5.18-2.58-12.23Z"/>
      </g>
    </g>
    <g>
      <g>
        <g>
          <polygon class="cls-2" points="53.12 333.34 51.84 348.69 50.56 364.27 32.14 361.43 31.88 348.16 31.62 334.09 53.12 333.34"/>
          <polygon class="cls-6" points="53.12 333.34 51.84 348.69 31.88 348.16 31.62 334.09 53.12 333.34"/>
        </g>
        <g>
          <g>
            <path class="cls-7" d="M52.21,359.2,51.74,370c-3.53,2.73-13.82,4.55-20.4,5.22s-16,1-20.4-.11-4.66-2.58-4.66-2.58a1.09,1.09,0,0,0,0-.14,8.53,8.53,0,0,1,1.82-2.13,40.63,40.63,0,0,1,3.28-2.59c1.29-.87,2.79-1.8,4.51-2.76a24.4,24.4,0,0,1,2.57-1.44c.9-.44,1.85-.88,2.82-1.31s2-.88,3-1.31,2.07-.84,3.16-1.19c.3-.1.85-2.36,1-2.71,1.1-3.06,6-1.85,8.1-.75,1.54.81,1.48,1.55,1.36,3.25l12.27-.12,1.94-.21Z"/>
            <path class="cls-5" d="M51.74,370l-.19,4.22L23.22,377c-.7,0-1.38,0-2,0H19.36a12.81,12.81,0,0,0-1.83-.09,12.68,12.68,0,0,0-1.74-.09l-1.13-.13-1.05-.1a4.4,4.4,0,0,1-1-.21,13,13,0,0,1-1.39-.24c-.46-.11-.89-.23-1.29-.34a8.93,8.93,0,0,1-1.19-.43,6.5,6.5,0,0,0-1-.41,5.34,5.34,0,0,1-1.47-1.17c-.19-.26-.18-.68.06-1.26.08,0,.19.06.27.11.39.13.77.24,1.17.35l1.25.33c.43.1.88.19,1.33.26l2.84.38,1.51.14,1.56.06,4.92,0,12.19-1Z"/>
          </g>
          <path class="cls-5" d="M30.83,363.61A9.82,9.82,0,0,0,28.57,361a32.5,32.5,0,0,0-2.75-2.12.72.72,0,0,0-1.05.31,1,1,0,0,0,.27,1.21c.39.32.68.58,1.08,1s.77.77,1.14,1.17A27,27,0,0,0,29.71,365a.75.75,0,0,0,1-.17A1.12,1.12,0,0,0,30.83,363.61Z"/>
          <path class="cls-5" d="M27.41,365.35a6.64,6.64,0,0,0-1.3-1.49l-1.22-1.2-2.41-2.39a.73.73,0,0,0-1.11,0,1,1,0,0,0,0,1.28c.77.88,1.53,1.77,2.29,2.66l1.13,1.31a6.5,6.5,0,0,0,1.41,1.41.86.86,0,0,0,1.13-.26A1.27,1.27,0,0,0,27.41,365.35Z"/>
          <path class="cls-5" d="M22.76,366.4c-.11-.23-.25-.45-.38-.67-.29-.47-.59-.93-.91-1.37a15.24,15.24,0,0,0-2.31-2.43,1,1,0,0,0-1.5.18,1.39,1.39,0,0,0,.16,1.73c.37.34.73.69,1.07,1.07a3.33,3.33,0,0,1,.25.28l.11.12c.13.17.27.32.4.48l.1.11,0,0,0,0c.31.38.61.77.89,1.19.15.21.29.43.44.65s.49.78.91.84a.92.92,0,0,0,1.08-.78A2.07,2.07,0,0,0,22.76,366.4Z"/>
        </g>
      </g>
      <g>
        <g>
          <polygon class="cls-2" points="71.92 334.21 73.66 348.93 75.41 363.88 93.75 362.12 93.62 349.45 93.46 336.02 71.92 334.21"/>
          <polygon class="cls-6" points="71.92 334.21 73.66 348.93 93.62 349.45 93.46 336.02 71.92 334.21"/>
        </g>
        <g>
          <g>
            <path class="cls-7" d="M120,374c-2.93,1.94-12.08,3-25.49,1s-20.09-5.8-20.09-5.8L73.6,359l.07-.12,2,.3,12.29.74s-.18-1.61-.18-1.63c-.23-2.12,5.43-2.13,6.56-2.06,1.36.08,2.22-.09,2.86,1.43.42,1,.81,2,1.21,3,1.11.39,2.16.82,3.2,1.29s2.06.94,3,1.41,2,.94,2.86,1.4a26.61,26.61,0,0,1,2.63,1.52c1.74,1,3.27,2,4.58,2.86s2.44,1.86,3.37,2.65a8.64,8.64,0,0,1,1.87,2.12A.91.91,0,0,0,120,374Z"/>
            <path class="cls-5" d="M74.4,369.25l.31,4,28.44,4.11c.7,0,1.38.06,2,.09l1.86.11a15.72,15.72,0,0,1,1.82,0,12.78,12.78,0,0,1,1.75,0l1.12-.07c.35,0,.7,0,1-.05a5,5,0,0,0,1-.14,12.67,12.67,0,0,0,1.38-.16l1.28-.25a8.85,8.85,0,0,0,1.18-.36,7.05,7.05,0,0,1,1-.34,4.88,4.88,0,0,0,1.44-1c.18-.25.16-.65-.09-1.22-.09,0-.19.06-.28.09-.38.11-.75.19-1.15.28l-1.24.26c-.43.06-.88.13-1.33.17l-2.83.21c-.49,0-1,.06-1.51.06l-1.55,0-4.92-.23-12.24-1.57Z"/>
          </g>
          <path class="cls-5" d="M95.13,364.26a8.55,8.55,0,0,1,2.18-2.41A28.85,28.85,0,0,1,100,360a.79.79,0,0,1,1.06.35.89.89,0,0,1-.23,1.14c-.38.29-.67.53-1,.87s-.75.69-1.11,1.06a24.81,24.81,0,0,1-2.38,2.21.81.81,0,0,1-1-.22A1,1,0,0,1,95.13,364.26Z"/>
          <path class="cls-5" d="M98.6,366.1a5.59,5.59,0,0,1,1.26-1.35l1.19-1.09,2.34-2.15a.75.75,0,0,1,1.11.06.94.94,0,0,1,0,1.22c-.73.81-1.47,1.61-2.21,2.42l-1.09,1.2a5.5,5.5,0,0,1-1.37,1.27,1,1,0,0,1-1.14-.3A1.22,1.22,0,0,1,98.6,366.1Z"/>
          <path class="cls-5" d="M103.28,367.34c.11-.21.24-.41.37-.62q.41-.64.87-1.26a12.94,12.94,0,0,1,2.24-2.2,1,1,0,0,1,1.5.25,1.25,1.25,0,0,1-.1,1.64c-.36.3-.71.63-1,1l-.24.25-.1.11-.39.44-.09.1,0,0,0,0c-.3.35-.59.71-.86,1.09-.14.2-.27.41-.42.6s-.47.72-.88.76a1,1,0,0,1-1.11-.8A1.87,1.87,0,0,1,103.28,367.34Z"/>
        </g>
      </g>
      <path class="cls-8" d="M63.42,267.41l-2.62.18-4.16,73.54-27.92-1.42S25.08,242,25.59,239.57l71.85,1.89-1,99-26.88-.71Z"/>
    </g>
    <g>
      <path class="cls-4" d="M28.8,246.82A65,65,0,0,0,62.92,257c20.2.25,32.57-10.1,32.57-10.1L83.33,135.64l-43.71.76Z"/>
      <path class="cls-9" d="M61.33,189.57c-.13,6.29-4.65,11.27-10.1,11.13s-9.78-5.36-9.65-11.65,4.65-11.28,10.1-11.14S61.45,183.27,61.33,189.57Z"/>
      <path class="cls-9" d="M81.09,232.63c-.1,4.65-3.44,8.34-7.48,8.24s-7.23-4-7.14-8.63S69.91,223.9,74,224,81.18,228,81.09,232.63Z"/>
      <path class="cls-9" d="M67.78,213.76c-.08,4-2.93,7.12-6.37,7s-6.17-3.38-6.09-7.35,2.93-7.12,6.37-7S67.86,209.8,67.78,213.76Z"/>
      <path class="cls-9" d="M80.11,195.43c-.08,4-2.93,7.11-6.37,7s-6.17-3.38-6.09-7.35,2.93-7.11,6.37-7S80.19,191.46,80.11,195.43Z"/>
      <path class="cls-9" d="M53.14,160.46c-.08,4-2.93,7.11-6.37,7s-6.16-3.38-6.08-7.35,2.93-7.11,6.37-7S53.22,156.49,53.14,160.46Z"/>
      <path class="cls-9" d="M53.6,240c-.08,4-2.93,7.11-6.37,7s-6.17-3.38-6.09-7.35,2.93-7.11,6.37-7S53.68,236,53.6,240Z"/>
      <path class="cls-9" d="M84,168.39c-.12,5.77-4.26,10.34-9.26,10.21s-9-4.92-8.85-10.68,4.26-10.34,9.26-10.21S84.14,162.62,84,168.39Z"/>
      <g>
        <path class="cls-4" d="M53.33,153.46a10.42,10.42,0,0,0-1,.08c-.34.09-.67.16-1,.22Z"/>
        <path class="cls-10" d="M53.33,153.46l-2.06.3c.34-.06.67-.13,1-.22A10.42,10.42,0,0,1,53.33,153.46Z"/>
      </g>
      <g>
        <path class="cls-6" d="M51.66,129.44l24.68.45V139a8.46,8.46,0,0,1-.58,2.9,9.37,9.37,0,0,1-1.45,2.68,9.52,9.52,0,0,1-2.23,2.25,10.41,10.41,0,0,1-2.82,1.74,14.27,14.27,0,0,1-3.34,1.12,18.2,18.2,0,0,1-3.76.51l-.52,0A12.23,12.23,0,0,1,60,150l-1.56-.25A22.46,22.46,0,0,1,55,148.65a20.4,20.4,0,0,1-2.75-1.78,12.9,12.9,0,0,1-2.22-2.28,9.34,9.34,0,0,1-1.43-2.65,8.67,8.67,0,0,1-.47-3l.1-9.26,1.66-.16A14.45,14.45,0,0,1,51.66,129.44Z"/>
        <path class="cls-11" d="M73.76,132.82s12.2-.41,15.4,5,12.11,110.43,11.14,111.71C88.68,258.88,72.83,264,72.83,264Z"/>
      </g>
      <path class="cls-11" d="M50,132.5s-12.18-.83-15.52,4.48-15,110-14.06,111.28C31.8,258,47.51,263.64,47.51,263.64Z"/>
    </g>
    <g>
      <g>
        <g>
          <path class="cls-2" d="M11.31,81.6c-11.77,3.74-8.43,33.78,17.36,31.7C29.44,89.78,22.72,78,11.31,81.6Z"/>
          <path class="cls-3" d="M8.73,93.08A13.93,13.93,0,0,0,11,98.7c.47.74,1.57-.06,1.18-.85a9.39,9.39,0,0,1-1-6.59c.49-1.75,1.67-2.73,3.26-2.57,2.94.3,5.62,2.79,7.2,5.52.13.22.23.45.34.68l-.29-.16a3.57,3.57,0,0,0-4.47,0c-2.84,2.35-2.12,6.64-.08,9.31s6,4.77,8.9,2.78a1.19,1.19,0,0,0-.65-2.11,7,7,0,0,1-5.64-1.62c-1.11-1-2.56-2.95-2-4.72.21-.61.78-1.34,1.39-1.38s1.14.68,1.62,1c1.53,1.13,4,1.15,4.75-1.11.64-1.85-.69-4-1.58-5.47a15.6,15.6,0,0,0-3.71-4.11c-2.94-2.23-7.31-3.78-10-.22A8.09,8.09,0,0,0,8.73,93.08Z"/>
        </g>
        <g>
          <path class="cls-2" d="M70.91,35.58a47.86,47.86,0,0,1,14.37,2.81,25.86,25.86,0,0,1,14.4,14.15c3.48,8.4.54,54.76-4.45,66.18s-18.17,14.34-28,16.24a31.12,31.12,0,0,1-16-1.37c-7.2-2.43-17-6.1-22.42-12.32-4.62-5.27-4.61-15.51-5.19-22.5-.75-9.14-.89-18.34-1.12-27.51-.25-9.58-.14-21.56,6.85-28.1S46,35.4,54.69,35.44C60,35.46,65.48,35.25,70.91,35.58Z"/>
          <path class="cls-12" d="M20.09,80.73c0-.08,0-.09.05,0Zm87.33-9a1,1,0,0,0,0,.16h0Z"/>
        </g>
        <g>
          <path class="cls-13" d="M45.47,107.52a9.69,9.69,0,0,1-2.63,6.64A7.31,7.31,0,0,1,37,116.83a7.48,7.48,0,0,1-5.81-3,10.64,10.64,0,0,1,.31-13.5,7.54,7.54,0,0,1,11.69.36A9.92,9.92,0,0,1,45.47,107.52Z"/>
          <path class="cls-5" d="M34,100.65a1.75,1.75,0,0,1,1.34.66,2.17,2.17,0,0,1,.55,1.57,2.29,2.29,0,0,1-.63,1.54,1.66,1.66,0,0,1-1.36.57,1.63,1.63,0,0,1-1.28-.65,2.29,2.29,0,0,1-.55-1.57,2.14,2.14,0,0,1,.62-1.55A1.67,1.67,0,0,1,34,100.65Z"/>
        </g>
        <g>
          <path class="cls-13" d="M79.71,100a7.76,7.76,0,0,1,6.2-2.74A8,8,0,0,1,92,100.39a10.65,10.65,0,0,1,2.38,7.23,10.38,10.38,0,0,1-2.71,7,7.82,7.82,0,0,1-12.33-.38A11,11,0,0,1,79.71,100Z"/>
          <path class="cls-5" d="M90.66,101.28a2.33,2.33,0,0,1,.58,1.66,2.47,2.47,0,0,1-.66,1.63,1.7,1.7,0,0,1-1.38.6,1.82,1.82,0,0,1-1.41-.69,2.43,2.43,0,0,1-.58-1.66,2.22,2.22,0,0,1,.66-1.63,1.83,1.83,0,0,1,1.44-.6A1.8,1.8,0,0,1,90.66,101.28Z"/>
        </g>
        <g>
          <path class="cls-14" d="M65.81,101.72S64.57,98,62.08,98.3a4.47,4.47,0,0,0-3.4,2.84s-.08-5.45,3.54-5.26C66.09,96.09,65.81,101.72,65.81,101.72Z"/>
          <path class="cls-15" d="M73.26,89.06a11.89,11.89,0,0,1,1.21-5.25c.76-1.45,1.64-2.17,2.63-2.14s1.83.8,2.52,2.3a13.16,13.16,0,0,1,.87,5.31,12.79,12.79,0,0,1-1.12,5.25c-.76,1.39-1.63,2.07-2.62,2s-1.83-.77-2.52-2.2A11.76,11.76,0,0,1,73.26,89.06Z"/>
          <path class="cls-15" d="M43.53,89a11.75,11.75,0,0,1,1.21-5.25c.69-1.46,1.56-2.17,2.62-2.14s1.83.8,2.52,2.3a12.83,12.83,0,0,1,.87,5.31,13,13,0,0,1-1.11,5.25c-.76,1.39-1.63,2.06-2.62,2s-1.9-.76-2.53-2.19A11.89,11.89,0,0,1,43.53,89Z"/>
          <path class="cls-16" d="M48.49,107.6a16,16,0,0,0,13,7.53c10.08.42,13.45-7.52,13.45-7.52S63.33,113.68,48.49,107.6Z"/>
          <path class="cls-1" d="M46,70.76c4.77-.76,8.89,3.77,7.9,4.1-3.6,1.21-13,1.35-15.81.82C37,75.48,40.28,71.67,46,70.76Z"/>
          <path class="cls-1" d="M76.76,71.57c-4.74-1-9,3.3-8.05,3.68,3.55,1.4,12.92,2,15.76,1.66C85.58,76.76,82.41,72.78,76.76,71.57Z"/>
        </g>
      </g>
      <path class="cls-1" d="M87.06,70a9.79,9.79,0,0,1,1.73,3.41c.95,3.36.5,7,0,10.48s-1,7.09-.2,10.49c.88,3.72,3.26,6.77,4.17,10.47,1.46,5.92-1.06,12-3.11,17.73A30.82,30.82,0,0,0,87.41,134a19.38,19.38,0,0,0,1.25,5.41c.2.64.23,1.33.47,2A10.59,10.59,0,0,0,92,145.43a7.54,7.54,0,0,0,2.23,1.38,16.87,16.87,0,0,1,2,.41c-.8-1.41-.87-3-1.24-4.56a13.22,13.22,0,0,1-.31-2,14.19,14.19,0,0,1,.26-3.9,19.71,19.71,0,0,1,3.16-7.27c2.61-3.78,6.08-6.63,9.14-9.93s5.83-7.37,6.37-12.17c.73-6.6-2.9-12.92-2.79-19.57.09-5.1,2.35-9.77,3.65-14.64,1.09-4.06,1.26-8.42-.5-12.25-.62-1.36-.9-2.88-1.62-4.17-1.12-2-2.77-3.53-4.16-5.28-.82-1-1.58-2.1-2.48-3C103.12,45.81,99.86,44.07,97,42a49.33,49.33,0,0,1-8-7,10.73,10.73,0,0,1-1.92-3.54,42.71,42.71,0,0,0-2.21-5.2C81.1,19.16,75,13.67,68,11.57c-9.8-2.94-20.9.91-27.68,9.6-3.84,4.93-6.26,11.1-9.45,16.62s-7.62,10.7-13.29,11.84c.94,1.55,1.86,3.11,2.8,4.67a11,11,0,0,0,2,2.73c2,1.75,6.18,1.17,8.21.46,9-3.13,13.88-15.61,23-18.38A12.67,12.67,0,0,1,65,41.32,16.46,16.46,0,0,1,70.54,50c.43,1.61,1.11,3,1.59,4.58a19.59,19.59,0,0,0,2.39,5.47C77.59,64.53,83.77,65.78,87.06,70Z"/>
    </g>
  </g>
</svg>
