<svg id="Layer_1" data-name="Layer 1" xmlns="http://www.w3.org/2000/svg" viewBox="0 0 666.23 599.75"><defs><style>.cls-1{fill:#83dfff;}.cls-10,.cls-11,.cls-12,.cls-13,.cls-14,.cls-15,.cls-16,.cls-2,.cls-9{fill:none;}.cls-3{fill:#8affc4;}.cls-4{fill:#b2acfc;}.cls-5{fill:#ffe08a;}.cls-6{fill:#7b6ce6;}.cls-7{fill:#00a8f0;}.cls-8{fill:#2dd687;}.cls-13,.cls-9{stroke:#fcc200;}.cls-10,.cls-11,.cls-12,.cls-13,.cls-14,.cls-15,.cls-16,.cls-9{stroke-miterlimit:10;}.cls-10{stroke:#00a8f0;}.cls-11,.cls-15{stroke:#2dd687;}.cls-12,.cls-16{stroke:#7b6ce6;}.cls-13,.cls-14,.cls-15,.cls-16{stroke-width:0.25px;}.cls-14{stroke:#40bef4;}.cls-17{fill:#fcc200;}</style></defs><title>Město4</title><path class="cls-1" d="M368,599.28c-6.34.33-15.82.47-22.09.47l0-22.3L345.69,462,345.57,375l0-25.71h.36A81.07,81.07,0,0,0,427,268.21v0H665.78a.28.28,0,0,1,0,.09C675,441.92,541.62,590.11,368,599.28Z"/><path class="cls-2" d="M368,599.28c-6.34.33-15.82.47-22.09.47V349.26A81.07,81.07,0,0,0,427,268.21v0H665.78a.28.28,0,0,1,0,.09C675,441.92,541.62,590.11,368,599.28Z"/><path class="cls-3" d="M345.89,349.26V599.75C161.11,599.66,9.86,454.89,0,268.19H264.81a81.06,81.06,0,0,0,80.72,81.06Z"/><path class="cls-2" d="M345.89,349.26V599.75C161.11,599.66,9.86,454.89,0,268.19H264.81a81.06,81.06,0,0,0,80.72,81.06Z"/><path class="cls-4" d="M665.78,268.19v.07h-21.5l-113.23,0-78.39,0H427v0a81.08,81.08,0,0,0-81.07-81.08h0V161.42l0-48.74,0-92.6V2.19c6.26-.8,15.76-1.45,22.17-1.79,5.09-.27,10.13-.4,15.17-.4C532.75,0,657.76,117.14,665.78,268.19Z"/><path class="cls-2" d="M427,268.19H665.78C657.76,117.14,532.75,0,383.23,0c-5,0-10.08.13-15.17.4-6.41.34-15.91,1-22.17,1.79V187.11"/><path class="cls-5" d="M345.89,2.19V187.11h0a81.08,81.08,0,0,0-81,81.08H127.1C120,134.12,214.82,18.88,345.89,2.19Z"/><path class="cls-2" d="M345.89,187.11V2.19C214.82,18.88,120,134.12,127.1,268.19H264.81"/><path class="cls-6" d="M452.66,268.19H427a81.08,81.08,0,0,0-81.07-81.08V161.42A106.76,106.76,0,0,1,452.51,262.56C452.61,264.45,452.66,266.32,452.66,268.19Z"/><path class="cls-7" d="M452.66,268.19v0A106.78,106.78,0,0,1,351.51,374.82c-1.88.1-3.76.14-5.62.14v-25.7A81.07,81.07,0,0,0,427,268.21v0Z"/><path class="cls-8" d="M345.89,349.26V375h-.32A106.78,106.78,0,0,1,239.26,273.82c-.1-1.89-.15-3.76-.15-5.63h25.7a81.06,81.06,0,0,0,80.72,81.06Z"/><path class="cls-9" d="M345.89,112.68A148.9,148.9,0,0,0,216.12,268.19"/><path class="cls-10" d="M345.89,462c3.66,0,7.35-.08,11.05-.28,101.52-5.35,179.47-92,174.11-193.51v-.05"/><path class="cls-11" d="M141.81,268.19C147.57,377.34,237.86,462,345.89,462"/><path class="cls-12" d="M531.05,268.19A165.56,165.56,0,0,0,357,111.63c-3.75.2-7.44.58-11.1,1.05"/><path class="cls-13" d="M345.89,20.08C223.63,35.64,135.22,143.13,141.81,268.19"/><path class="cls-14" d="M345.89,577.45c5.85,0,14.69-.13,20.6-.44,162-8.55,286.33-146.77,277.79-308.73,0,0,0-.06,0-.09"/><path class="cls-15" d="M23.26,268.19c9.19,174.15,150.28,309.18,322.63,309.26"/><path class="cls-16" d="M644.27,268.19c-7.73-145.64-132-257.47-277.7-249.78-6,.32-14.84.92-20.68,1.67"/><path class="cls-17" d="M345.89,161.42v25.69h0a81.08,81.08,0,0,0-81,81.08h-25.7A106.78,106.78,0,0,1,340.26,161.56c1.88-.1,3.73-.14,5.59-.14Z"/></svg>