<svg id="Layer_1" data-name="Layer 1" xmlns="http://www.w3.org/2000/svg" xmlns:xlink="http://www.w3.org/1999/xlink" viewBox="0 0 665.78 599.75"><defs><style>.cls-1,.cls-14,.cls-15,.cls-16,.cls-72,.cls-73,.cls-74,.cls-75,.cls-76{fill:none;}.cls-2{clip-path:url(#clip-path);}.cls-3{fill:url(#radial-gradient);}.cls-4{clip-path:url(#clip-path-2);}.cls-5{fill:url(#radial-gradient-2);}.cls-6{clip-path:url(#clip-path-3);}.cls-7{fill:url(#radial-gradient-3);}.cls-8{clip-path:url(#clip-path-4);}.cls-9{fill:url(#radial-gradient-4);}.cls-10{clip-path:url(#clip-path-5);}.cls-11,.cls-82{fill:#7b6ce6;}.cls-12,.cls-83{fill:#00a8f0;}.cls-13,.cls-84{fill:#2dd687;}.cls-14,.cls-73{stroke:#fcc200;}.cls-14,.cls-15,.cls-16,.cls-72,.cls-73,.cls-74,.cls-75,.cls-76{stroke-miterlimit:10;}.cls-15{stroke:#00a8f0;}.cls-16,.cls-75{stroke:#2dd687;}.cls-17,.cls-52,.cls-53,.cls-54,.cls-85,.cls-86,.cls-87,.cls-88,.cls-89,.cls-90,.cls-91,.cls-92,.cls-93,.cls-94,.cls-95,.cls-96,.cls-97,.cls-98{fill:#fff;}.cls-18,.cls-27,.cls-40{font-size:10px;}.cls-18,.cls-27,.cls-40,.cls-52,.cls-53,.cls-54,.cls-55,.cls-56,.cls-57,.cls-58,.cls-59,.cls-60,.cls-61,.cls-62,.cls-63,.cls-64,.cls-65,.cls-66,.cls-67,.cls-68,.cls-69,.cls-70,.cls-71,.cls-85,.cls-86,.cls-87,.cls-88,.cls-89,.cls-90,.cls-91,.cls-92,.cls-93,.cls-94,.cls-95,.cls-96,.cls-97,.cls-98{font-family:Campton-Bold, Campton;font-weight:700;}.cls-19{letter-spacing:-0.11em;}.cls-20{letter-spacing:0em;}.cls-21{letter-spacing:-0.11em;}.cls-22{letter-spacing:-0.03em;}.cls-23{letter-spacing:-0.03em;}.cls-24{letter-spacing:-0.01em;}.cls-25,.cls-40{letter-spacing:-0.01em;}.cls-26{letter-spacing:0em;}.cls-27,.cls-31{letter-spacing:-0.01em;}.cls-28{letter-spacing:0em;}.cls-29{letter-spacing:-0.01em;}.cls-30{letter-spacing:-0.02em;}.cls-32{letter-spacing:-0.01em;}.cls-33{letter-spacing:0em;}.cls-34{letter-spacing:-0.01em;}.cls-35{letter-spacing:-0.01em;}.cls-36{letter-spacing:0em;}.cls-37{letter-spacing:-0.03em;}.cls-38{letter-spacing:-0.04em;}.cls-39{letter-spacing:0.01em;}.cls-41{letter-spacing:0em;}.cls-42{letter-spacing:-0.03em;}.cls-43{letter-spacing:-0.04em;}.cls-44{letter-spacing:-0.04em;}.cls-45{letter-spacing:0em;}.cls-46{letter-spacing:-0.01em;}.cls-47{letter-spacing:-0.08em;}.cls-48{letter-spacing:-0.01em;}.cls-49{letter-spacing:-0.01em;}.cls-50{letter-spacing:0.01em;}.cls-51{letter-spacing:-0.02em;}.cls-52{font-size:13px;}.cls-53{font-size:13px;}.cls-54{font-size:13px;}.cls-55{font-size:10px;}.cls-56{font-size:10px;}.cls-57{font-size:10px;}.cls-58{font-size:10px;}.cls-59{font-size:10px;}.cls-60{font-size:10px;}.cls-61{font-size:10px;}.cls-62{font-size:10px;}.cls-63{font-size:10px;}.cls-64{font-size:10px;}.cls-65{font-size:10px;}.cls-66{font-size:10px;}.cls-67{font-size:10px;}.cls-68{font-size:10px;}.cls-69{font-size:10px;}.cls-70{font-size:10px;}.cls-71{font-size:10px;}.cls-72,.cls-76{stroke:#7b6ce6;}.cls-73,.cls-74,.cls-75,.cls-76{stroke-width:0.25px;}.cls-74{stroke:#40bef4;}.cls-77,.cls-81{fill:#fcda00;}.cls-78,.cls-80{fill:#fcc200;}.cls-79{fill:#fffbf7;}.cls-80,.cls-81,.cls-82,.cls-83,.cls-84{fill-rule:evenodd;}.cls-85{font-size:13px;}.cls-86{font-size:13px;}.cls-87{font-size:13px;}.cls-88{font-size:13px;}.cls-89{font-size:13px;}.cls-90{font-size:13px;}.cls-91{font-size:13px;}.cls-92{font-size:13px;}.cls-93{font-size:13px;}.cls-94{font-size:13px;}.cls-95{font-size:13px;}.cls-96{font-size:13px;}.cls-97{font-size:13px;}.cls-98{font-size:12px;}.cls-99{letter-spacing:-0.01em;}.cls-100{letter-spacing:0.01em;}</style><clipPath id="clip-path"><path class="cls-1" d="M127.1,268.19H345.88V2.19C214.81,18.88,120,134.12,127.1,268.19"/></clipPath><radialGradient id="radial-gradient" cx="-57" cy="657.97" r="1" gradientTransform="matrix(0, -266.27, -219.13, 0, 144529.29, -14909.79)" gradientUnits="userSpaceOnUse"><stop offset="0" stop-color="#fcda00"/><stop offset="0.41" stop-color="#fde75c"/><stop offset="1" stop-color="#fffbe5"/></radialGradient><clipPath id="clip-path-2"><path class="cls-1" d="M345.88,268.19V599.75c6.27,0,15.76-.14,22.09-.48,173.64-9.16,307-157.35,297.82-331a.28.28,0,0,1,0-.09Z"/></clipPath><radialGradient id="radial-gradient-2" cx="-57" cy="657.97" r="1" gradientTransform="matrix(0, 331.43, 322.21, 0, -211663.66, 19159.38)" gradientUnits="userSpaceOnUse"><stop offset="0" stop-color="#00a8f0"/><stop offset="0.41" stop-color="#5cc7f5"/><stop offset="1" stop-color="#e5f6fd"/></radialGradient><clipPath id="clip-path-3"><path class="cls-1" d="M0,268.19c9.85,186.7,161.11,331.47,345.88,331.56V268.19Z"/></clipPath><radialGradient id="radial-gradient-3" cx="-57" cy="657.97" r="1" gradientTransform="matrix(-345.59, 0, 0, 331.88, -19354.93, -218101.34)" gradientUnits="userSpaceOnUse"><stop offset="0" stop-color="#00d9b5"/><stop offset="0.41" stop-color="#5ce7d0"/><stop offset="1" stop-color="#e5fbf8"/></radialGradient><clipPath id="clip-path-4"><path class="cls-1" d="M368.06.4c-6.41.34-15.91,1-22.18,1.79v266h319.9C657.76,117.14,532.74,0,383.22,0c-5,0-10.07.13-15.16.4"/></clipPath><radialGradient id="radial-gradient-4" cx="-57" cy="657.97" r="1" gradientTransform="matrix(320.35, 0.07, 0.06, -264.9, 18568.61, 174566.19)" gradientUnits="userSpaceOnUse"><stop offset="0" stop-color="#7b6ce6"/><stop offset="0.7" stop-color="#cdc7f6"/><stop offset="1" stop-color="#f2f0fd"/></radialGradient><clipPath id="clip-path-5"><rect class="cls-1" x="-57" y="-72.76" width="1063.48" height="730.73"/></clipPath></defs><title>pineMap3</title><g class="cls-2"><rect class="cls-3" x="120.03" y="2.19" width="225.85" height="266"/></g><g class="cls-4"><rect class="cls-5" x="345.65" y="267.96" width="329.54" height="332.03" transform="translate(-0.62 0.73) rotate(-0.08)"/></g><g class="cls-6"><rect class="cls-7" y="268.19" width="345.88" height="331.56"/></g><g class="cls-8"><rect class="cls-9" x="345.85" y="-0.03" width="319.95" height="268.26"/></g><g class="cls-10"><path class="cls-11" d="M452.51,262.56A106.78,106.78,0,0,0,345.88,161.42V268.19H452.66c0-1.87-.05-3.74-.15-5.63"/><path class="cls-12" d="M345.88,375c1.87,0,3.74,0,5.63-.14A106.79,106.79,0,0,0,452.66,268.19H345.88Z"/><path class="cls-13" d="M239.11,268.19c0,1.87,0,3.74.15,5.63A106.76,106.76,0,0,0,345.88,375V268.19Z"/><path class="cls-14" d="M345.88,112.68A148.9,148.9,0,0,0,216.11,268.19"/><path class="cls-15" d="M345.88,462c3.67,0,7.35-.08,11.06-.28,101.51-5.36,179.46-92,174.11-193.51a.11.11,0,0,0,0-.05"/><path class="cls-16" d="M141.81,268.19C147.57,377.34,237.86,462,345.88,462"/><path class="cls-17" d="M264.81,268.19a81.08,81.08,0,1,1,81.07,81.07,81.08,81.08,0,0,1-81.07-81.07"/></g><text class="cls-18" transform="matrix(0.98, -0.18, 0.18, 0.98, 175.46, 320.83)"><tspan class="cls-19">T</tspan><tspan x="5.42" y="0">e</tspan><tspan class="cls-20" x="11.15" y="0">c</tspan><tspan class="cls-19" x="16.93" y="0">h</tspan><tspan class="cls-21" x="21.93" y="0">T</tspan><tspan class="cls-22" x="27.34" y="0">o</tspan><tspan class="cls-23" x="33.03" y="0">w</tspan><tspan class="cls-24" x="40.77" y="0">e</tspan><tspan x="46.42" y="0">r</tspan></text><text class="cls-18" transform="translate(288.19 419.1) rotate(-61.34)">V<tspan class="cls-25" x="7.8" y="0">T</tspan><tspan x="14.21" y="0">P</tspan></text><text class="cls-18" transform="matrix(0.68, -0.73, 0.73, 0.68, 228.59, 382.95)">HI<tspan class="cls-25" x="10.23" y="0">V</tspan><tspan class="cls-26" x="17.96" y="0">E</tspan></text><text class="cls-27" transform="translate(419.78 441.55) rotate(-117.83)">P<tspan class="cls-28" x="6.33" y="0">o</tspan><tspan class="cls-29" x="12.3" y="0">l</tspan><tspan class="cls-30" x="14.9" y="0">y</tspan><tspan class="cls-20" x="20.96" y="0">g</tspan><tspan x="27.18" y="0">o</tspan><tspan class="cls-26" x="33.09" y="0">n</tspan></text><text class="cls-18" transform="translate(430.39 435.95) rotate(-117.83)"><tspan class="cls-31">p</tspan><tspan class="cls-32" x="6.16" y="0">r</tspan><tspan class="cls-33" x="10.12" y="0">o au</tspan><tspan class="cls-34" x="30.98" y="0">t</tspan><tspan class="cls-35" x="35.53" y="0">o</tspan><tspan class="cls-36" x="41.43" y="0">n</tspan><tspan class="cls-31" x="47.45" y="0">o</tspan><tspan x="53.36" y="0">mní</tspan></text><text class="cls-18" transform="translate(441.01 430.35) rotate(-117.83)">t<tspan class="cls-34" x="4.7" y="0">r</tspan><tspan x="8.65" y="0">a</tspan><tspan class="cls-37" x="14.89" y="0">m</tspan><tspan class="cls-38" x="23.72" y="0">v</tspan><tspan class="cls-39" x="29.26" y="0">a</tspan><tspan class="cls-33" x="35.57" y="0">j</tspan></text><text class="cls-40" transform="translate(500.99 304.11) rotate(-168.14)">V<tspan class="cls-33" x="7.73" y="0">R Lab</tspan></text><text class="cls-18" transform="matrix(-0.83, -0.55, 0.55, -0.83, 483.65, 378.14)">M<tspan class="cls-41" x="8.54" y="0">o</tspan><tspan class="cls-20" x="14.5" y="0">b</tspan><tspan class="cls-33" x="20.72" y="0">ili</tspan><tspan class="cls-42" x="29.47" y="0">t</tspan><tspan class="cls-26" x="33.91" y="0">y</tspan></text><text class="cls-18" transform="matrix(-0.83, -0.55, 0.55, -0.83, 490.28, 368.13)">In<tspan class="cls-36" x="8.95" y="0">n</tspan><tspan class="cls-43" x="14.97" y="0">o</tspan><tspan class="cls-44" x="20.56" y="0">v</tspan><tspan class="cls-33" x="26.11" y="0">at</tspan><tspan class="cls-28" x="37.05" y="0">i</tspan><tspan class="cls-24" x="40.04" y="0">o</tspan><tspan x="45.95" y="0">n</tspan></text><text class="cls-18" transform="matrix(-0.83, -0.55, 0.55, -0.83, 496.91, 358.13)">HUB</text><text class="cls-18" transform="translate(388.63 129.85) rotate(108.18)"><tspan class="cls-42">n</tspan><tspan x="5.8" y="0">v</tspan><tspan class="cls-45" x="11.74" y="0">i</tspan><tspan x="14.73" y="0">as</tspan></text><text class="cls-18" transform="translate(456 151.3) rotate(131.39)">D<tspan class="cls-46" x="7.44" y="0">r</tspan><tspan class="cls-24" x="11.4" y="0">o</tspan><tspan class="cls-37" x="17.31" y="0">n</tspan><tspan class="cls-47" x="23.11" y="0">y</tspan><tspan x="28.6" y="0"> </tspan><tspan class="cls-36" x="31.17" y="0">S</tspan><tspan class="cls-48" x="37.89" y="0">I</tspan><tspan x="40.72" y="0">T</tspan></text><text class="cls-18" transform="matrix(-0.89, 0.45, -0.45, -0.89, 497.05, 213.79)"><tspan class="cls-36">S</tspan><tspan class="cls-48" x="6.72" y="0">I</tspan><tspan x="9.55" y="0">T </tspan><tspan class="cls-24" x="18.6" y="0">P</tspan><tspan class="cls-49" x="24.93" y="0">o</tspan><tspan class="cls-50" x="30.83" y="0">r</tspan><tspan x="35" y="0">t</tspan></text><text class="cls-18" transform="matrix(-0.89, 0.45, -0.45, -0.89, 491.6, 203.1)">Ga<tspan class="cls-51" x="14.33" y="0">r</tspan><tspan x="18.28" y="0">a</tspan><tspan class="cls-41" x="24.52" y="0">g</tspan><tspan x="30.73" y="0">e</tspan></text><text class="cls-52" transform="translate(387.4 191.31) rotate(31.13)">S</text><text class="cls-53" transform="translate(394.72 195.82) rotate(35.1)">I</text><text class="cls-54" transform="matrix(0.78, 0.63, -0.63, 0.78, 397.66, 197.79)">T</text><text class="cls-55" transform="translate(238.18 237.08) rotate(-79.11)"> </text><text class="cls-56" transform="translate(286.18 155.56) rotate(-36.87)">T</text><text class="cls-57" transform="translate(290.43 152.35) rotate(-34.51)">e</text><text class="cls-58" transform="matrix(0.85, -0.53, 0.53, 0.85, 295.09, 149.15)">c</text><text class="cls-18" transform="translate(299.93 146.14) rotate(-28.88)">h</text><text class="cls-59" transform="translate(305.12 143.22) rotate(-25.13)">m</text><text class="cls-60" transform="translate(313.22 139.46) rotate(-21.32)">a</text><text class="cls-61" transform="matrix(0.95, -0.31, 0.31, 0.95, 318.97, 137.22)">n</text><text class="cls-62" transform="translate(324.67 135.38) rotate(-15.87)">i</text><text class="cls-63" transform="translate(327.47 134.54) rotate(-13.52)">a</text><text class="cls-64" transform="translate(272.6 181.7) rotate(-44.65)">R</text><text class="cls-65" transform="matrix(0.75, -0.66, 0.66, 0.75, 277.2, 177.15)">a</text><text class="cls-66" transform="translate(281.76 173.15) rotate(-37.74)">d</text><text class="cls-67" transform="matrix(0.83, -0.56, 0.56, 0.83, 286.59, 169.41)">o</text><text class="cls-61" transform="translate(291.14 166.3) rotate(-30.91)">v</text><text class="cls-68" transform="translate(295.8 163.49) rotate(-27.49)">á</text><text class="cls-69" transform="translate(301.22 160.66) rotate(-23.76)">n</text><text class="cls-70" transform="translate(306.66 158.27) rotate(-20.16)">e</text><text class="cls-71" transform="matrix(0.96, -0.29, 0.29, 0.96, 311.88, 156.34)">k</text><g class="cls-10"><path class="cls-72" d="M531,268.19A165.56,165.56,0,0,0,357,111.63c-3.75.2-7.44.58-11.11,1.05"/><path class="cls-73" d="M345.88,20.08C223.63,35.64,135.22,143.13,141.81,268.19"/><path class="cls-74" d="M345.88,577.45c5.85,0,14.7-.13,20.61-.44,162-8.55,286.33-146.77,277.78-308.73a.28.28,0,0,0,0-.09"/><path class="cls-75" d="M23.26,268.19c9.19,174.15,150.27,309.18,322.62,309.26"/><path class="cls-76" d="M644.27,268.19c-7.74-145.64-132-257.47-277.7-249.78-6,.32-14.84.92-20.69,1.67"/><path class="cls-13" d="M231.78,178.35c0,6.68,4.8,12.1,4.8,12.1s4.81-5.42,4.81-12.1-4.81-12.09-4.81-12.09-4.8,5.41-4.8,12.09"/><rect class="cls-12" x="236.36" y="171.74" width="0.46" height="22.7"/><path class="cls-13" d="M182,173.56s-3.5,3.45-3.5,7.71S182,189,182,189s3.51-3.45,3.51-7.71-3.51-7.71-3.51-7.71"/><rect class="cls-12" x="181.82" y="180.33" width="0.46" height="17.22"/><path class="cls-12" d="M173.27,173.56s-3.5,3.45-3.5,7.71,3.5,7.71,3.5,7.71,3.51-3.45,3.51-7.71-3.51-7.71-3.51-7.71"/><rect class="cls-12" x="173.04" y="180.33" width="0.46" height="17.22"/><path class="cls-77" d="M164.5,173.56S161,177,161,181.27,164.5,189,164.5,189s3.5-3.45,3.5-7.71-3.5-7.71-3.5-7.71"/><rect class="cls-12" x="164.27" y="180.33" width="0.46" height="17.22"/><path class="cls-13" d="M199.59,173.56s-3.5,3.45-3.5,7.71,3.5,7.71,3.5,7.71,3.51-3.45,3.51-7.71-3.51-7.71-3.51-7.71"/><rect class="cls-12" x="199.36" y="180.33" width="0.46" height="17.22"/><path class="cls-13" d="M190.82,173.56s-3.51,3.45-3.51,7.71,3.51,7.71,3.51,7.71,3.5-3.45,3.5-7.71-3.5-7.71-3.5-7.71"/><rect class="cls-12" x="190.59" y="180.33" width="0.46" height="17.22"/><path class="cls-77" d="M132.41,175.81c0,5.73,4.12,10.38,4.12,10.38s4.13-4.65,4.13-10.38-4.13-10.38-4.13-10.38-4.12,4.65-4.12,10.38"/><path class="cls-13" d="M138,183.7c-4.19-.06-6.2,6.68-12.23,3.6-7.5-3.82-9.7,3.26-14.15.61-4.2-2.5-3.65-8.9-11.22-9.71-3.6-.38-5.11,1.24-8.81-.27-3.2-1.31-8.51,4.58-8.51,4.58v27.84l54.9-7.64s5.41-18.93,0-19"/><path class="cls-77" d="M243.22,181.54c0,6.68,4.81,12.09,4.81,12.09s4.8-5.41,4.8-12.09-4.8-12.1-4.8-12.1-4.81,5.42-4.81,12.1"/><rect class="cls-12" x="247.8" y="179.41" width="0.46" height="19.64"/><polygon class="cls-12" points="248.03 183.84 246.42 182.2 246.09 182.52 248.03 184.5 249.96 182.52 249.63 182.2 248.03 183.84"/><path class="cls-13" d="M253.63,189.18c0,5.9,4.25,10.68,4.25,10.68s4.24-4.78,4.24-10.68-4.24-10.69-4.24-10.69-4.25,4.79-4.25,10.69"/><rect class="cls-13" x="257.65" y="187.28" width="0.46" height="15.56"/><path class="cls-13" d="M256,202.79c-4.31-1.89-3-4.48-6.78-5.6-4.49-1.34-6.59,3.09-8.79.87s-1.65-5.56-6.61-4.79v28.95h30.85v-18c-3.23-3.39-5.95-.23-8.67-1.42"/><path class="cls-13" d="M188.85,195.52c-3.76,1.16-4.34-.45-9,.23-3.61.52-4.62,3.31-7.84,2.67s-7.82-2.17-12.57.36c-5.22,2.77-3.9,11.51-3.9,11.51l8.66,2.44,35.4,6.63.16-26c-5.44-3.12-8.29,1.32-10.89,2.12"/><polygon class="cls-78" points="206.17 184.84 212.82 193.31 233.78 193.31 227.13 184.84 206.17 184.84"/><polygon class="cls-11" points="199.58 193.31 199.58 220.13 212.74 220.13 212.74 193.31 206.16 184.84 199.58 193.31"/><rect class="cls-77" x="212.83" y="193.31" width="20.95" height="26.89"/><rect class="cls-79" x="217.93" y="197.26" width="1.54" height="1.29"/><rect class="cls-79" x="217.93" y="201.14" width="1.54" height="1.29"/><rect class="cls-79" x="222.53" y="197.26" width="1.54" height="1.29"/><rect class="cls-79" x="222.53" y="201.14" width="1.54" height="1.29"/><rect class="cls-79" x="227.14" y="197.26" width="1.54" height="1.29"/><rect class="cls-79" x="227.14" y="201.14" width="1.54" height="1.29"/><rect class="cls-79" x="217.93" y="205.01" width="1.54" height="1.29"/><rect class="cls-79" x="222.53" y="205.01" width="1.54" height="1.29"/><rect class="cls-79" x="227.14" y="205.01" width="1.54" height="1.29"/><rect class="cls-12" x="203.1" y="197.26" width="1.54" height="1.29"/><rect class="cls-12" x="203.1" y="201.14" width="1.54" height="1.29"/><rect class="cls-12" x="207.71" y="197.26" width="1.54" height="1.29"/><rect class="cls-12" x="207.71" y="201.14" width="1.54" height="1.29"/><rect class="cls-12" x="203.1" y="205.01" width="1.54" height="1.29"/><rect class="cls-12" x="207.71" y="205.01" width="1.54" height="1.29"/><path class="cls-77" d="M195.44,200.17a4.06,4.06,0,0,0-3.06,1.4,4.19,4.19,0,0,0-4.15-4.1,4.08,4.08,0,0,0-1.74.4v-.09a4.2,4.2,0,0,0-4.15-4.24,4.07,4.07,0,0,0-2.49.85,4.2,4.2,0,0,0-4.14-3.8,4.07,4.07,0,0,0-2.76,1.08,4.14,4.14,0,0,0-8,1.24,4.07,4.07,0,0,0-2.13-.6,4.21,4.21,0,0,0-4.16,4.24v7.84h22.61v17.46h18.32V204.41a4.18,4.18,0,0,0-4.14-4.24"/><polygon class="cls-12" points="163.78 198.71 168.9 204.03 185.02 204.03 179.9 198.71 163.78 198.71"/><polygon class="cls-78" points="158.65 204.03 158.65 220.99 168.96 220.99 168.96 204.03 163.8 198.71 158.65 204.03"/><rect class="cls-77" x="168.9" y="204.03" width="16.12" height="16.86"/><rect class="cls-79" x="172.82" y="208.23" width="1.18" height="1.21"/><rect class="cls-79" x="172.82" y="211.85" width="1.18" height="1.21"/><rect class="cls-79" x="176.37" y="208.23" width="1.18" height="1.21"/><rect class="cls-79" x="176.37" y="211.85" width="1.18" height="1.21"/><rect class="cls-79" x="179.92" y="208.23" width="1.18" height="1.21"/><rect class="cls-79" x="179.92" y="211.85" width="1.18" height="1.21"/><rect class="cls-79" x="172.82" y="215.48" width="1.18" height="1.21"/><rect class="cls-79" x="176.37" y="215.48" width="1.18" height="1.21"/><rect class="cls-79" x="179.92" y="215.48" width="1.18" height="1.21"/><path class="cls-77" d="M124.83,174.16c0,5.73,4.12,10.38,4.12,10.38s4.13-4.65,4.13-10.38S129,163.78,129,163.78s-4.12,4.65-4.12,10.38"/><rect class="cls-12" x="128.73" y="173.93" width="0.46" height="25.61"/><path class="cls-13" d="M121.91,164.33s-4.8,4.17-4.8,9.32,4.8,9.32,4.8,9.32,4.79-4.17,4.79-9.32-4.79-9.32-4.79-9.32"/><rect class="cls-12" x="121.68" y="170.98" width="0.46" height="26.29"/><polygon class="cls-77" points="137.97 183.7 149.74 183.7 158.66 171.35 146.9 171.35 137.97 183.7"/><rect class="cls-13" x="137.97" y="183.7" width="11.77" height="30.56"/><polygon class="cls-12" points="149.78 214.12 158.65 214.12 158.65 183.7 158.65 171.35 149.78 183.7 149.78 214.12"/><rect class="cls-77" x="153.51" y="191.9" width="1.38" height="5.15"/><path class="cls-77" d="M153.79,206.66a4.82,4.82,0,0,0-2.5.7,4.85,4.85,0,0,0-9.39-1.46,4.81,4.81,0,0,0-3.24-1.27,4.92,4.92,0,0,0-4.85,4.47,4.84,4.84,0,0,0-2.93-1,4.93,4.93,0,0,0-4.87,5v.1a4.85,4.85,0,0,0-2.05-.46,4.92,4.92,0,0,0-4.87,4.82,4.81,4.81,0,0,0-3.61-1.65,4.94,4.94,0,0,0-4.88,5h48.06v-9.25a4.93,4.93,0,0,0-4.87-5"/><path class="cls-78" d="M38.73,201.59a3.56,3.56,0,0,0-1.62.4,3,3,0,0,0,0-.31,5.77,5.77,0,0,0-5.71-5.83,5.66,5.66,0,0,0-1.71.26,3.56,3.56,0,0,0-7.11,0,4.85,4.85,0,0,0-2-.43,5.09,5.09,0,0,0-5,5.15,3.22,3.22,0,0,0,0,.43,2.48,2.48,0,0,0-.38,0,3.65,3.65,0,0,0-.62,7.23c1.17,1.54,6.07,2.7,11.94,2.7,5.4,0,10-1,11.59-2.33a4.46,4.46,0,0,0,.63,0,3.65,3.65,0,0,0,0-7.29"/><rect class="cls-12" y="242.88" width="24.91" height="25.22"/><polygon class="cls-77" points="62.49 268.11 91.71 268.11 100.37 242.88 62.49 242.88 62.49 268.11"/><polygon class="cls-78" points="63.31 221.76 69.24 220.89 83.05 220.89 83.05 189.06 63.31 189.06 63.31 221.76"/><polygon class="cls-77" points="23.53 205.5 57.38 205.5 63.31 189.06 29.46 189.06 23.53 205.5"/><polygon class="cls-78" points="52.73 205.5 54.81 205.5 60.74 189.06 58.66 189.06 52.73 205.5"/><polygon class="cls-78" points="25.98 205.5 28.06 205.5 33.99 189.06 31.91 189.06 25.98 205.5"/><polygon class="cls-78" points="47.38 205.5 49.46 205.5 55.39 189.06 53.31 189.06 47.38 205.5"/><polygon class="cls-78" points="42.03 205.5 44.11 205.5 50.04 189.06 47.96 189.06 42.03 205.5"/><polygon class="cls-78" points="36.68 205.5 38.76 205.5 44.69 189.06 42.61 189.06 36.68 205.5"/><polygon class="cls-78" points="31.33 205.5 33.41 205.5 39.34 189.06 37.26 189.06 31.33 205.5"/><polygon class="cls-13" points="57.35 205.5 57.35 238.16 69.37 238.16 69.37 205.5 63.36 189.06 57.35 205.5"/><rect class="cls-11" x="23.53" y="205.5" width="33.85" height="32.52"/><polygon class="cls-11" points="123.36 199.85 137.95 199.85 130.66 192.39 123.36 199.85"/><polygon class="cls-78" points="100.37 199.85 123.36 199.85 130.66 192.39 107.67 192.39 100.37 199.85"/><rect class="cls-11" x="123.36" y="199.85" width="14.6" height="21.04"/><rect class="cls-77" x="100.37" y="199.85" width="22.98" height="21.04"/><polygon class="cls-12" points="8.12 222.99 0.11 222.99 0.11 243.02 8.21 243.02 9.31 243.02 25.01 243.02 25.01 212.4 8.12 212.4 8.12 222.99"/><polygon class="cls-78" points="16.14 205.5 16.14 212.4 31.02 212.4 31.02 205.5 23.58 197.76 16.14 205.5"/><polygon class="cls-12" points="23.6 197.76 30.93 205.5 48.17 205.5 40.84 197.76 23.6 197.76"/><polygon class="cls-77" points="31.02 212.4 25.01 212.4 25.01 243.02 48.19 243.02 48.19 212.39 48.19 205.53 31.02 205.53 31.02 212.4"/><rect class="cls-78" x="43.87" y="207.91" width="2.33" height="3.08"/><rect class="cls-78" x="38.21" y="207.91" width="2.33" height="3.08"/><rect class="cls-78" x="32.54" y="207.91" width="2.33" height="3.08"/><rect class="cls-78" x="43.87" y="216.82" width="2.33" height="3.08"/><rect class="cls-78" x="38.21" y="216.82" width="2.33" height="3.08"/><rect class="cls-78" x="32.54" y="216.82" width="2.33" height="3.08"/><rect class="cls-78" x="26.88" y="216.82" width="2.33" height="3.08"/><rect class="cls-78" x="43.87" y="225.73" width="2.33" height="3.08"/><rect class="cls-78" x="38.21" y="225.73" width="2.33" height="3.08"/><rect class="cls-78" x="32.54" y="225.73" width="2.33" height="3.08"/><rect class="cls-78" x="26.88" y="225.73" width="2.33" height="3.08"/><rect class="cls-78" x="19.79" y="216.82" width="2.33" height="3.08"/><rect class="cls-78" x="14.12" y="216.82" width="2.33" height="3.08"/><rect class="cls-78" x="19.79" y="225.73" width="2.33" height="3.08"/><rect class="cls-78" x="14.12" y="225.73" width="2.33" height="3.08"/><rect class="cls-78" x="8.46" y="225.73" width="2.33" height="3.08"/><rect class="cls-78" x="2.79" y="225.73" width="2.33" height="3.08"/><rect class="cls-78" x="19.79" y="234.63" width="2.33" height="3.08"/><rect class="cls-78" x="14.12" y="234.63" width="2.33" height="3.08"/><rect class="cls-78" x="8.46" y="234.63" width="2.33" height="3.08"/><rect class="cls-78" x="2.79" y="234.63" width="2.33" height="3.08"/><polygon class="cls-78" points="112.84 209.7 125.3 220.89 158.66 220.89 146.2 209.7 112.84 209.7"/><polygon class="cls-13" points="100.27 220.89 100.27 243.02 125.17 243.02 125.17 220.89 112.72 209.7 100.27 220.89"/><polygon class="cls-12" points="135.82 220.89 141.98 215.35 129.65 215.35 135.82 220.89"/><polygon class="cls-11" points="141.98 215.45 135.82 220.99 125.17 220.99 125.17 243.02 158.65 243.02 158.65 220.99 148.15 220.99 141.98 215.45"/><rect class="cls-12" x="119.33" y="225.63" width="1.23" height="1.25"/><rect class="cls-12" x="119.33" y="229.38" width="1.23" height="1.25"/><rect class="cls-12" x="119.33" y="233.14" width="1.23" height="1.25"/><rect class="cls-12" x="119.33" y="236.89" width="1.23" height="1.25"/><rect class="cls-12" x="115.65" y="225.63" width="1.23" height="1.25"/><rect class="cls-12" x="115.65" y="229.38" width="1.23" height="1.25"/><rect class="cls-12" x="115.65" y="233.14" width="1.23" height="1.25"/><rect class="cls-12" x="115.65" y="236.89" width="1.23" height="1.25"/><rect class="cls-12" x="111.98" y="225.63" width="1.23" height="1.25"/><rect class="cls-12" x="111.98" y="229.38" width="1.23" height="1.25"/><rect class="cls-12" x="111.98" y="233.14" width="1.23" height="1.25"/><rect class="cls-12" x="111.98" y="236.89" width="1.23" height="1.25"/><rect class="cls-12" x="108.3" y="225.63" width="1.23" height="1.25"/><rect class="cls-12" x="108.3" y="229.38" width="1.23" height="1.25"/><rect class="cls-12" x="108.3" y="233.14" width="1.23" height="1.25"/><rect class="cls-12" x="108.3" y="236.89" width="1.23" height="1.25"/><rect class="cls-12" x="104.63" y="225.63" width="1.23" height="1.25"/><rect class="cls-12" x="104.63" y="229.38" width="1.23" height="1.25"/><rect class="cls-12" x="104.63" y="233.14" width="1.23" height="1.25"/><rect class="cls-12" x="104.63" y="236.89" width="1.23" height="1.25"/><polygon class="cls-13" points="63.31 172.19 74.53 172.19 83.05 159.84 71.83 159.84 63.31 172.19"/><rect class="cls-77" x="63.31" y="172.19" width="11.23" height="16.87"/><polygon class="cls-12" points="74.52 188.94 83.1 188.94 83.1 172.19 83.1 159.85 74.52 172.19 74.52 188.94"/><rect class="cls-77" x="78.13" y="172.11" width="1.32" height="5.15"/><rect class="cls-77" x="78.13" y="180.39" width="1.32" height="5.15"/><rect class="cls-77" x="153.92" y="223.49" width="1.57" height="4.31"/><rect class="cls-77" x="147.54" y="223.49" width="1.57" height="4.31"/><rect class="cls-77" x="141.15" y="223.49" width="1.57" height="4.31"/><rect class="cls-77" x="134.76" y="223.49" width="1.57" height="4.31"/><rect class="cls-77" x="128.38" y="223.49" width="1.57" height="4.31"/><rect class="cls-77" x="153.92" y="231.1" width="1.57" height="4.31"/><rect class="cls-77" x="147.54" y="231.1" width="1.57" height="4.31"/><rect class="cls-77" x="141.15" y="231.1" width="1.57" height="4.31"/><rect class="cls-77" x="134.76" y="231.1" width="1.57" height="4.31"/><rect class="cls-77" x="128.38" y="231.1" width="1.57" height="4.31"/><polygon class="cls-78" points="83.05 189.06 91.71 182.03 91.71 171.17 83.05 178.2 83.05 189.06"/><polygon class="cls-77" points="91.71 182.03 100.37 189.06 100.37 178.2 91.71 171.17 91.71 182.03"/><polygon class="cls-12" points="83.1 189.06 83.1 220.99 100.27 220.99 100.27 189.06 91.69 182.03 83.1 189.06"/><rect class="cls-78" x="96.98" y="193.51" width="0.96" height="0.98"/><rect class="cls-78" x="96.98" y="196.44" width="0.96" height="0.98"/><rect class="cls-78" x="96.98" y="199.38" width="0.96" height="0.98"/><rect class="cls-78" x="94.11" y="190.57" width="0.96" height="0.98"/><rect class="cls-78" x="94.11" y="193.51" width="0.96" height="0.98"/><rect class="cls-78" x="94.11" y="196.44" width="0.96" height="0.98"/><rect class="cls-78" x="94.11" y="199.38" width="0.96" height="0.98"/><rect class="cls-78" x="91.23" y="187.63" width="0.96" height="0.98"/><rect class="cls-78" x="91.23" y="190.57" width="0.96" height="0.98"/><rect class="cls-78" x="91.23" y="193.51" width="0.96" height="0.98"/><rect class="cls-78" x="91.23" y="196.44" width="0.96" height="0.98"/><rect class="cls-78" x="91.23" y="199.38" width="0.96" height="0.98"/><rect class="cls-78" x="88.36" y="190.57" width="0.96" height="0.98"/><rect class="cls-78" x="88.36" y="193.51" width="0.96" height="0.98"/><rect class="cls-78" x="88.36" y="196.44" width="0.96" height="0.98"/><rect class="cls-78" x="88.36" y="199.38" width="0.96" height="0.98"/><rect class="cls-78" x="85.49" y="193.51" width="0.96" height="0.98"/><rect class="cls-78" x="85.49" y="196.44" width="0.96" height="0.98"/><rect class="cls-78" x="85.49" y="199.38" width="0.96" height="0.98"/><rect class="cls-78" x="96.98" y="202.32" width="0.96" height="0.98"/><rect class="cls-78" x="94.11" y="202.32" width="0.96" height="0.98"/><rect class="cls-78" x="91.23" y="202.32" width="0.96" height="0.98"/><rect class="cls-78" x="88.36" y="202.32" width="0.96" height="0.98"/><rect class="cls-78" x="85.49" y="202.32" width="0.96" height="0.98"/><polygon class="cls-78" points="47.93 242.88 100.37 242.88 100.37 220.89 69.24 220.89 47.93 242.88"/><path class="cls-12" d="M67.21,224.6c0,6.68,4.81,12.09,4.81,12.09s4.8-5.41,4.8-12.09S72,212.5,72,212.5s-4.81,5.42-4.81,12.1"/><rect class="cls-12" x="71.79" y="222.47" width="0.46" height="16.05"/><polygon class="cls-12" points="72.02 226.9 70.41 225.26 70.08 225.57 72.02 227.55 73.95 225.57 73.63 225.26 72.02 226.9"/><path class="cls-13" d="M82.27,225c0,5.9,4.25,10.68,4.25,10.68s4.24-4.78,4.24-10.68-4.24-10.69-4.24-10.69-4.25,4.78-4.25,10.69"/><path class="cls-13" d="M74.74,220.18c0,6.68,4.81,12.09,4.81,12.09s4.8-5.41,4.8-12.09-4.8-12.1-4.8-12.1-4.81,5.41-4.81,12.1"/><rect class="cls-12" x="79.32" y="218.7" width="0.46" height="20.31"/><rect class="cls-13" x="86.29" y="223.12" width="0.46" height="15.56"/><path class="cls-13" d="M17.12,256.1a13.08,13.08,0,0,0,3.07,7.71,11.24,11.24,0,0,0,0-15.42,13.08,13.08,0,0,0-3.07,7.71"/><rect class="cls-13" x="19.96" y="255.16" width="0.46" height="12.94"/><path class="cls-13" d="M9.45,256.1a13.08,13.08,0,0,0,3.07,7.71,11.24,11.24,0,0,0,0-15.42,13.08,13.08,0,0,0-3.07,7.71"/><rect class="cls-13" x="12.29" y="255.16" width="0.46" height="12.94"/><path class="cls-77" d="M1.79,256.1a13.1,13.1,0,0,0,3.06,7.71,13.1,13.1,0,0,0,3.06-7.71,13.1,13.1,0,0,0-3.06-7.71,13.1,13.1,0,0,0-3.06,7.71"/><rect class="cls-13" x="4.62" y="255.16" width="0.46" height="12.94"/><path class="cls-77" d="M88.2,232.21c-9.59,6.42-12.23,1.72-22.83,1.72-7.45,0-17.2,8.95-17.2,8.95h52.2V229.71s-5.2-2.17-12.17,2.5"/><path class="cls-13" d="M92.13,247.88c-3.8.36-3.16-4.08-9-3.62-3.57.27-4.43,2.16-7.78-.08s-7.1-6-14-4.84c-7.6,1.22-19.22,25-19.22,25l12.33-1.47L100,252.4l4-4.73c-4.56-6.14-8.47-.11-11.85.21"/><path class="cls-13" d="M216.52,215.74c-6.08,1.83-7-.72-14.6.35-5.84.83-7.47,5.25-12.68,4.23-5.44-1.06-12.64-3.43-20.34.57-8.44,4.39-6.29,18.23-6.29,18.23l14,3.87h57.18V211.61c-9-3.57-13.05,2.86-17.26,4.13"/><path class="cls-78" d="M93.66,238.29l-4.38,18.12,11.3-1.23-4.13-16.9a1.43,1.43,0,0,0-2.79,0"/><rect class="cls-13" x="94.82" y="241.55" width="0.46" height="10.68"/><polygon class="cls-13" points="94.82 246.18 94.82 248.11 93.05 246.3 92.73 246.62 95.28 249.23 95.28 246.31 96.77 243.95 96.39 243.7 94.82 246.18"/><path class="cls-78" d="M86.93,237.67l-4.38,18.12,11.3-1.22-4.13-16.9a1.43,1.43,0,0,0-2.79,0"/><rect class="cls-13" x="88.09" y="240.93" width="0.46" height="15.35"/><polygon class="cls-13" points="88.09 245.56 88.09 247.49 86.32 245.69 86 246 88.55 248.61 88.55 245.7 90.05 243.33 89.66 243.09 88.09 245.56"/><path class="cls-13" d="M89.48,252.11c-2.24,2.95-3.68.16-6.49,1.31-3.69,1.51-6.65,9.58-11,8.76s-7-1.56-7-1.56l-1.36,4.43,32.92,1.14L101.42,247c-3.93-1.23-9.7,2.21-11.94,5.16"/><path class="cls-12" d="M85.8,261.12c-3.69-1-1.62-4.94-7.29-6.55-3.45-1-4.89.49-7.29-2.79s-1.85-7.53-8.73-8.9c-7.56-1.49-32.32,18.35-32.32,18.35l-5.26,6.88h66.8l5.3-3.06c-2.24-7.37-7.93-3.06-11.21-3.93"/><polygon class="cls-12" points="91.71 252.72 108.1 252.72 116.77 242.88 100.37 242.88 91.71 252.72"/><rect class="cls-77" x="91.71" y="252.72" width="16.4" height="15.39"/><polygon class="cls-11" points="108 268.21 116.87 268.21 116.87 252.72 116.87 242.88 108 252.72 108 268.21"/><rect class="cls-78" x="98.07" y="256.56" width="3.52" height="2.47"/><rect class="cls-78" x="98.07" y="262.23" width="3.52" height="2.47"/><polygon class="cls-78" points="24.91 242.88 47.89 242.88 55.19 235.42 32.2 235.42 24.91 242.88"/><polygon class="cls-11" points="47.9 242.88 47.9 268.21 62.5 268.21 62.5 242.88 55.2 235.42 47.9 242.88"/><rect class="cls-77" x="24.91" y="242.88" width="22.99" height="25.22"/><rect class="cls-12" x="44.54" y="245.57" width="0.96" height="0.98"/><rect class="cls-12" x="44.54" y="248.51" width="0.96" height="0.98"/><rect class="cls-12" x="44.54" y="251.44" width="0.96" height="0.98"/><rect class="cls-12" x="44.54" y="254.38" width="0.96" height="0.98"/><rect class="cls-12" x="44.54" y="257.32" width="0.96" height="0.98"/><rect class="cls-12" x="41.67" y="245.57" width="0.96" height="0.98"/><rect class="cls-12" x="41.67" y="248.51" width="0.96" height="0.98"/><rect class="cls-12" x="41.67" y="251.44" width="0.96" height="0.98"/><rect class="cls-12" x="41.67" y="254.38" width="0.96" height="0.98"/><rect class="cls-12" x="41.67" y="257.32" width="0.96" height="0.98"/><rect class="cls-12" x="38.79" y="245.57" width="0.96" height="0.98"/><rect class="cls-12" x="38.79" y="248.51" width="0.96" height="0.98"/><rect class="cls-12" x="38.79" y="251.44" width="0.96" height="0.98"/><rect class="cls-12" x="38.79" y="254.38" width="0.96" height="0.98"/><rect class="cls-12" x="38.79" y="257.32" width="0.96" height="0.98"/><rect class="cls-12" x="35.92" y="245.57" width="0.96" height="0.98"/><rect class="cls-12" x="35.92" y="248.51" width="0.96" height="0.98"/><rect class="cls-12" x="35.92" y="251.44" width="0.96" height="0.98"/><rect class="cls-12" x="35.92" y="254.38" width="0.96" height="0.98"/><rect class="cls-12" x="35.92" y="257.32" width="0.96" height="0.98"/><rect class="cls-12" x="33.05" y="245.57" width="0.96" height="0.98"/><rect class="cls-12" x="33.05" y="248.51" width="0.96" height="0.98"/><rect class="cls-12" x="33.05" y="251.44" width="0.96" height="0.98"/><rect class="cls-12" x="33.05" y="254.38" width="0.96" height="0.98"/><rect class="cls-12" x="33.05" y="257.32" width="0.96" height="0.98"/><rect class="cls-12" x="30.17" y="245.57" width="0.96" height="0.98"/><rect class="cls-12" x="30.17" y="248.51" width="0.96" height="0.98"/><rect class="cls-12" x="30.17" y="251.44" width="0.96" height="0.98"/><rect class="cls-12" x="30.17" y="254.38" width="0.96" height="0.98"/><rect class="cls-12" x="30.17" y="257.32" width="0.96" height="0.98"/><rect class="cls-12" x="27.3" y="245.57" width="0.96" height="0.98"/><rect class="cls-12" x="27.3" y="248.51" width="0.96" height="0.98"/><rect class="cls-12" x="27.3" y="251.44" width="0.96" height="0.98"/><rect class="cls-12" x="27.3" y="254.38" width="0.96" height="0.98"/><rect class="cls-12" x="27.3" y="257.32" width="0.96" height="0.98"/><rect class="cls-12" x="44.54" y="260.26" width="0.96" height="0.98"/><rect class="cls-12" x="41.67" y="260.26" width="0.96" height="0.98"/><rect class="cls-12" x="38.79" y="260.26" width="0.96" height="0.98"/><rect class="cls-12" x="35.92" y="260.26" width="0.96" height="0.98"/><rect class="cls-12" x="33.05" y="260.26" width="0.96" height="0.98"/><rect class="cls-12" x="30.17" y="260.26" width="0.96" height="0.98"/><rect class="cls-12" x="27.3" y="260.26" width="0.96" height="0.98"/><polygon class="cls-77" points="26.79 242.88 27.52 242.88 34.82 235.42 34.09 235.42 26.79 242.88"/><polygon class="cls-77" points="29.87 242.88 30.6 242.88 37.9 235.42 37.17 235.42 29.87 242.88"/><polygon class="cls-77" points="32.95 242.88 33.68 242.88 40.98 235.42 40.25 235.42 32.95 242.88"/><polygon class="cls-77" points="36.03 242.88 36.76 242.88 44.06 235.42 43.33 235.42 36.03 242.88"/><polygon class="cls-77" points="39.12 242.88 39.84 242.88 47.14 235.42 46.41 235.42 39.12 242.88"/><polygon class="cls-77" points="42.2 242.88 42.93 242.88 50.22 235.42 49.49 235.42 42.2 242.88"/><polygon class="cls-77" points="45.28 242.88 46.01 242.88 53.31 235.42 52.58 235.42 45.28 242.88"/><rect class="cls-78" x="116.77" y="242.88" width="41.9" height="25.22"/><path class="cls-13" d="M147.53,246.57c0,5.73,4.12,10.38,4.12,10.38s4.13-4.65,4.13-10.38-4.13-10.39-4.13-10.39-4.12,4.65-4.12,10.39"/><rect class="cls-11" x="151.43" y="244.74" width="0.46" height="13.78"/><path class="cls-13" d="M129.62,247.79c0,5.74,4.13,10.39,4.13,10.39s4.12-4.65,4.12-10.39-4.12-10.38-4.12-10.38-4.13,4.65-4.13,10.38"/><rect class="cls-12" x="133.52" y="247.56" width="0.46" height="13.78"/><path class="cls-77" d="M119.47,247c0,7.53,5.9,13.63,5.9,13.63s5.9-6.1,5.9-13.63-5.9-13.64-5.9-13.64-5.9,6.1-5.9,13.64"/><rect class="cls-11" x="125.14" y="244.6" width="0.46" height="18.09"/><path class="cls-13" d="M147,253.89c-6.89.93-8,2.79-10.35,5s-3.85,1.23-7.29,1.89c-5.68,1.1-3.61,3.79-7.29,4.46-1.47.26-3.4-.17-5.3-.29v3.2h41.89V256.2A20.28,20.28,0,0,0,147,253.89"/><path class="cls-12" d="M59.16,177a4.06,4.06,0,0,0-2.12.6,4.13,4.13,0,0,0-8-1.24,4.07,4.07,0,0,0-2.76-1.08,4.18,4.18,0,0,0-4.12,3.8,4.07,4.07,0,0,0-2.49-.85,4.2,4.2,0,0,0-4.14,4.24v.09a4.08,4.08,0,0,0-1.74-.4,4.19,4.19,0,0,0-4.14,4.1,4.12,4.12,0,0,0-3.07-1.4,4.2,4.2,0,0,0-4.15,4.24H63.31V181.2A4.2,4.2,0,0,0,59.16,177"/><path class="cls-12" d="M197.74,225.49c-12.86,0-12.25,2.88-23.89-3.55-8.45-4.66-15.19-1.05-15.19-1.05v22H222s-15.21-17.4-24.24-17.4"/><rect class="cls-77" x="223.03" y="242.95" width="41.59" height="25.15"/><rect class="cls-78" x="233.78" y="211.61" width="13.25" height="4.81"/><polygon class="cls-80" points="233.78 211.61 247.03 211.61 252.93 205.86 239.68 205.86 233.78 211.61"/><rect class="cls-78" x="227.88" y="222.18" width="13.25" height="20.76"/><polygon class="cls-80" points="227.88 222.18 241.13 222.18 247.03 216.42 233.78 216.42 227.88 222.18"/><polygon class="cls-81" points="247.03 211.61 258.82 211.61 252.93 205.86 247.03 211.61"/><polygon class="cls-81" points="258.81 211.54 247.08 211.54 247.08 216.56 241.07 222.18 241.07 243.02 247.13 243.02 258.86 243.02 264.54 243.02 264.54 222.18 258.81 216.49 258.81 211.54"/><rect class="cls-13" x="249.79" y="215.45" width="1.24" height="2.45"/><rect class="cls-13" x="254.83" y="215.45" width="1.24" height="2.45"/><rect class="cls-13" x="249.79" y="219.77" width="1.24" height="2.45"/><rect class="cls-13" x="254.83" y="219.77" width="1.24" height="2.45"/><rect class="cls-13" x="249.79" y="224.1" width="1.24" height="2.45"/><rect class="cls-13" x="254.83" y="224.1" width="1.24" height="2.45"/><rect class="cls-13" x="249.79" y="228.42" width="1.24" height="2.45"/><rect class="cls-13" x="254.83" y="228.42" width="1.24" height="2.45"/><rect class="cls-13" x="249.79" y="232.75" width="1.24" height="2.45"/><rect class="cls-13" x="254.83" y="232.75" width="1.24" height="2.45"/><rect class="cls-13" x="249.79" y="237.07" width="1.24" height="2.45"/><rect class="cls-13" x="254.83" y="237.07" width="1.24" height="2.45"/><rect class="cls-13" x="244.75" y="224.1" width="1.24" height="2.45"/><rect class="cls-13" x="244.75" y="228.42" width="1.24" height="2.45"/><rect class="cls-13" x="244.75" y="232.75" width="1.24" height="2.45"/><rect class="cls-13" x="244.75" y="237.07" width="1.24" height="2.45"/><rect class="cls-13" x="259.87" y="224.1" width="1.24" height="2.45"/><rect class="cls-13" x="259.87" y="228.42" width="1.24" height="2.45"/><rect class="cls-13" x="259.87" y="232.75" width="1.24" height="2.45"/><rect class="cls-13" x="259.87" y="237.07" width="1.24" height="2.45"/><rect class="cls-11" x="243.53" y="250.59" width="0.46" height="17.51"/><rect class="cls-11" x="242.94" y="254.78" width="0.46" height="1.84" transform="translate(-107.48 216.17) rotate(-40.01)"/><rect class="cls-11" x="243.08" y="254.73" width="3.8" height="0.46" transform="translate(-107.8 278.63) rotate(-49.98)"/><rect class="cls-11" x="242.83" y="257.69" width="5.21" height="0.46" transform="translate(-109.91 280.03) rotate(-49.98)"/><path class="cls-78" d="M234.54,256.15a1.25,1.25,0,0,1-.36-1.3c.32-1.14.71-3,.08-3.68a1.59,1.59,0,0,0-.83-.45,1.18,1.18,0,0,1-.86-1.21v0c0-2.06-1-3.73-2.21-3.73s-2.21,1.67-2.21,3.73v0a1.18,1.18,0,0,1-.85,1.21,1.61,1.61,0,0,0-.84.45c-.63.64-.23,2.54.09,3.68a1.27,1.27,0,0,1-.36,1.3,2.19,2.19,0,0,0-.78,1.3c-.26,1.43,1.82,4.52,5,7.29,3.14-2.77,5.22-5.86,4.95-7.29a2.13,2.13,0,0,0-.77-1.3"/><polygon class="cls-11" points="230.35 252.88 228.72 251.67 228.44 252.04 230.35 253.45 232.23 252.06 231.96 251.69 230.35 252.88"/><polygon class="cls-11" points="230.37 260.07 227.45 257.91 227.18 258.28 230.37 260.64 233.58 258.28 233.31 257.91 230.37 260.07"/><polygon class="cls-11" points="230.35 256.28 227.59 254.23 227.32 254.6 230.35 256.85 233.34 254.65 233.06 254.28 230.35 256.28"/><rect class="cls-11" x="230.13" y="248.7" width="0.46" height="19.41"/><path class="cls-13" d="M260.94,250.15a4.4,4.4,0,1,0-8.79,0,4.34,4.34,0,0,0,.4,1.84,4.23,4.23,0,0,1,0,3.58,4.4,4.4,0,1,0,8,0,4.19,4.19,0,0,1,0-3.58,4.39,4.39,0,0,0,.42-1.88"/><rect class="cls-11" x="256.38" y="252" width="0.46" height="9.99"/><rect class="cls-11" x="255.35" y="253.7" width="0.46" height="2.9" transform="translate(-105.56 256.24) rotate(-45.13)"/><rect class="cls-11" x="255.96" y="257.94" width="4.39" height="0.46" transform="translate(-106.94 257.57) rotate(-44.91)"/><rect class="cls-11" x="256.38" y="249.83" width="0.46" height="18.28"/><rect class="cls-11" x="255.35" y="253.7" width="0.46" height="2.9" transform="translate(-105.56 256.24) rotate(-45.13)"/><rect class="cls-11" x="256.18" y="254.92" width="2.9" height="0.46" transform="translate(-104.96 256.32) rotate(-44.91)"/><rect class="cls-11" x="255.69" y="251.55" width="0.46" height="1.95" transform="translate(-103.6 255.7) rotate(-45.12)"/><rect class="cls-11" x="256.32" y="252.3" width="1.95" height="0.46" transform="translate(-103.21 255.32) rotate(-44.91)"/><rect class="cls-11" x="255.96" y="257.94" width="4.39" height="0.46" transform="translate(-106.94 257.57) rotate(-44.91)"/><rect class="cls-11" x="254.82" y="255.97" width="0.46" height="4.39" transform="translate(-107.85 256.72) rotate(-45.12)"/><path class="cls-78" d="M235.67,239.11a6.6,6.6,0,0,0-2.51.48c0-.12,0-.25,0-.37,0-3.9-4-7.06-8.86-7.06a10.93,10.93,0,0,0-2.65.32c-.22-2.27-2.6-4.07-5.52-4.07V243h25c-.31-2.2-2.65-3.91-5.5-3.91"/><polygon class="cls-82" points="158.66 244.37 158.66 268.11 209.21 268.11 209.21 242.88 158.66 242.88 158.66 244.37"/><polygon class="cls-83" points="158.66 242.88 209.21 242.88 216.11 228.33 165.57 228.33 158.66 242.88"/><polygon class="cls-84" points="216.16 228.4 209.31 242.88 209.31 268.21 223.04 268.21 223.04 242.95 223.04 243.02 223.01 243.02 216.16 228.4"/><rect class="cls-13" x="186.13" y="242.92" width="10.29" height="25.18"/><polygon class="cls-82" points="179.23 235.88 186.13 242.88 196.43 242.88 189.53 235.88 179.23 235.88"/><polygon class="cls-81" points="179.23 235.88 172.33 242.93 172.55 243.02 172.39 243.02 172.39 268.21 186.13 268.21 186.13 243.02 185.91 243.02 186.13 242.93 179.23 235.88"/><path class="cls-84" d="M216.12,247.92a1.38,1.38,0,0,0-1.38,1.38v2.2h2.75v-2.2a1.37,1.37,0,0,0-1.37-1.38"/><path class="cls-84" d="M203,247.92a1.38,1.38,0,0,0-1.38,1.38v2.2h2.75v-2.2a1.37,1.37,0,0,0-1.37-1.38"/><path class="cls-84" d="M179.27,247.92h0a1.38,1.38,0,0,0-1.38,1.38v2.2h2.76v-2.2a1.38,1.38,0,0,0-1.38-1.38"/><path class="cls-84" d="M166,247.92a1.37,1.37,0,0,0-1.37,1.38v2.2h2.75v-2.2a1.38,1.38,0,0,0-1.38-1.38"/><path class="cls-84" d="M191.58,247.92a1.37,1.37,0,0,0-1.37,1.38v2.2H193v-2.2a1.38,1.38,0,0,0-1.38-1.38"/><path class="cls-84" d="M216.12,254a1.37,1.37,0,0,0-1.38,1.37v2.21h2.75v-2.21a1.37,1.37,0,0,0-1.37-1.37"/><path class="cls-84" d="M203,254a1.37,1.37,0,0,0-1.38,1.37v2.21h2.75v-2.21A1.37,1.37,0,0,0,203,254"/><path class="cls-84" d="M179.27,254h0a1.37,1.37,0,0,0-1.38,1.37v2.21h2.76v-2.21a1.37,1.37,0,0,0-1.38-1.37"/><path class="cls-84" d="M166,254a1.37,1.37,0,0,0-1.37,1.37v2.21h2.75v-2.21A1.37,1.37,0,0,0,166,254"/><path class="cls-84" d="M191.58,254a1.37,1.37,0,0,0-1.37,1.37v2.21H193v-2.21a1.37,1.37,0,0,0-1.38-1.37"/><path class="cls-84" d="M216.12,260.1a1.37,1.37,0,0,0-1.38,1.37v2.21h2.75v-2.21a1.37,1.37,0,0,0-1.37-1.37"/><path class="cls-84" d="M203,260.1a1.37,1.37,0,0,0-1.38,1.37v2.21h2.75v-2.21A1.37,1.37,0,0,0,203,260.1"/><path class="cls-84" d="M179.27,260.1h0a1.37,1.37,0,0,0-1.38,1.37v2.21h2.76v-2.21a1.37,1.37,0,0,0-1.38-1.37"/><path class="cls-84" d="M166,260.1a1.37,1.37,0,0,0-1.37,1.37v2.21h2.75v-2.21A1.37,1.37,0,0,0,166,260.1"/><path class="cls-84" d="M191.58,260.1a1.37,1.37,0,0,0-1.37,1.37v2.21H193v-2.21a1.37,1.37,0,0,0-1.38-1.37"/><path class="cls-78" d="M345.88,187.11V161.42c-1.86,0-3.74,0-5.62.14A106.78,106.78,0,0,0,239.11,268.19h25.7a81.08,81.08,0,0,1,81.07-81.08"/></g><text class="cls-85" transform="matrix(0.21, -0.98, 0.98, 0.21, 258.78, 254.65)">C</text><text class="cls-86" transform="translate(260.9 245.01) rotate(-72.37)">e</text><text class="cls-87" transform="matrix(0.38, -0.92, 0.92, 0.38, 263.04, 238.2)">n</text><text class="cls-88" transform="translate(265.97 231.17) rotate(-63.16)">t</text><text class="cls-89" transform="translate(268.67 225.85) rotate(-59.54)">r</text><text class="cls-52" transform="translate(271.25 221.36) rotate(-55.36)">u</text><text class="cls-90" transform="matrix(0.65, -0.76, 0.76, 0.65, 275.51, 214.99)">m</text><text class="cls-91" transform="matrix(0.71, -0.7, 0.7, 0.71, 283.26, 206.29)"> </text><text class="cls-92" transform="matrix(0.75, -0.66, 0.66, 0.75, 285.56, 204.01)">r</text><text class="cls-90" transform="translate(289.24 200.66) rotate(-37.63)">o</text><text class="cls-93" transform="matrix(0.84, -0.54, 0.54, 0.84, 295.22, 196.03)">b</text><text class="cls-94" transform="translate(301.87 191.77) rotate(-27.6)">o</text><text class="cls-95" transform="translate(308.65 188.25) rotate(-23.17)">t</text><text class="cls-95" transform="matrix(0.94, -0.34, 0.34, 0.94, 314.16, 185.93)">i</text><text class="cls-96" transform="translate(317.71 184.57) rotate(-16.23)">k</text><text class="cls-97" transform="translate(324.74 182.49) rotate(-11.32)">y</text><text class="cls-98" transform="translate(295.03 341.87) rotate(-136.84)">BIC</text><text class="cls-98" transform="translate(424.86 311.26) rotate(133.16)">BIC <tspan class="cls-99" x="24.19" y="0">Po</tspan><tspan class="cls-100" x="38.88" y="0">r</tspan><tspan x="43.88" y="0">t</tspan></text></svg>