<svg id="Layer_1" data-name="Layer 1" xmlns="http://www.w3.org/2000/svg" viewBox="0 0 319.96 268.26"><defs><style>.cls-1{fill:#b2acfc;}.cls-2,.cls-4,.cls-5{fill:none;}.cls-3{fill:#7b6ce6;}.cls-4,.cls-5{stroke:#7b6ce6;stroke-miterlimit:10;}.cls-5{stroke-width:0.25px;}</style></defs><title>pine map - second quater</title><path class="cls-1" d="M320,268.19v.07h-21.5l-113.23,0-78.39,0H81.14v0A81.08,81.08,0,0,0,.07,187.11H0V161.42l0-48.74,0-92.6V2.19C6.33,1.39,15.83.74,22.24.4,27.33.13,32.37,0,37.41,0,186.93,0,311.94,117.14,320,268.19Z"/><path class="cls-2" d="M81.14,268.19H320C311.94,117.14,186.93,0,37.41,0c-5,0-10.08.13-15.17.4C15.83.74,6.33,1.39.07,2.19V187.11"/><path class="cls-3" d="M106.84,268.19H81.14A81.08,81.08,0,0,0,.07,187.11V161.42A106.76,106.76,0,0,1,106.69,262.56C106.79,264.45,106.84,266.32,106.84,268.19Z"/><path class="cls-4" d="M185.22,268.19a165.56,165.56,0,0,0-174-156.56c-3.75.2-7.44.58-11.11,1.05"/><path class="cls-5" d="M298.45,268.19c-7.74-145.64-132-257.47-277.7-249.78-6,.32-14.84.92-20.69,1.67"/></svg>