<svg id="Layer_1" data-name="Layer 1" xmlns="http://www.w3.org/2000/svg" viewBox="0 0 320.7 331.59"><defs><style>.cls-1{fill:#83dfff;}.cls-2,.cls-4,.cls-5{fill:none;}.cls-3{fill:#00a8f0;}.cls-4{stroke:#00a8f0;}.cls-4,.cls-5{stroke-miterlimit:10;}.cls-5{stroke:#40bef4;stroke-width:0.25px;}</style></defs><title>pine map - third quater</title><path class="cls-1" d="M22.45,331.12c-6.34.33-15.82.47-22.09.47l0-22.3L.16,193.87,0,106.8,0,81.09H.36A81.07,81.07,0,0,0,81.43.05V0H320.25a.28.28,0,0,1,0,.09C329.42,173.76,196.09,322,22.45,331.12Z"/><path class="cls-2" d="M22.45,331.12c-6.34.33-15.82.47-22.09.47V81.1A81.07,81.07,0,0,0,81.43.05V0H320.25a.28.28,0,0,1,0,.09C329.42,173.76,196.09,322,22.45,331.12Z"/><path class="cls-3" d="M107.13,0v0A106.78,106.78,0,0,1,6,106.66c-1.88.1-3.76.14-5.62.14V81.1A81.07,81.07,0,0,0,81.43.05V0Z"/><path class="cls-4" d="M.36,193.87c3.66,0,7.35-.08,11.05-.28,101.52-5.36,179.47-92,174.11-193.51V0"/><path class="cls-5" d="M.36,309.29c5.85,0,14.69-.13,20.6-.44C182.92,300.3,307.29,162.08,298.75.11c0,0,0,0,0-.08"/></svg>