<svg id="Layer_1" data-name="Layer 1" xmlns="http://www.w3.org/2000/svg" xmlns:xlink="http://www.w3.org/1999/xlink" viewBox="0 0 291.72 480.53"><defs><style>.cls-1{mask:url(#mask);filter:url(#luminosity-noclip-2);}.cls-2{mix-blend-mode:multiply;fill:url(#linear-gradient);}.cls-3{fill:url(#linear-gradient-2);}.cls-4{fill:#f26900;}.cls-5{fill:url(#linear-gradient-3);}.cls-6{fill:#a84900;}.cls-7{fill:url(#linear-gradient-4);}.cls-8{fill:url(#New_Gradient_Swatch_copy_11);}.cls-9{fill:#ffcfcd;}.cls-10{fill:url(#linear-gradient-5);}.cls-11{fill:url(#New_Gradient_Swatch_copy_11-2);}.cls-12{fill:url(#linear-gradient-6);}.cls-13{fill:url(#New_Gradient_Swatch_copy_11-3);}.cls-14{fill:url(#linear-gradient-7);}.cls-15{fill:url(#linear-gradient-8);}.cls-16{fill:url(#linear-gradient-9);}.cls-17{fill:url(#linear-gradient-10);}.cls-18{fill:url(#linear-gradient-11);}.cls-19{fill:url(#linear-gradient-12);}.cls-20{fill:url(#linear-gradient-13);}.cls-21{fill:url(#New_Gradient_Swatch_copy_11-4);}.cls-22{fill:url(#New_Gradient_Swatch_copy_11-5);}.cls-23{fill:#a14c50;}.cls-24{fill:#733639;}.cls-25{mask:url(#mask-2);}.cls-26{fill:url(#linear-gradient-14);}.cls-27{fill:url(#New_Gradient_Swatch_copy_11-6);}.cls-28{fill:url(#linear-gradient-15);}.cls-29{filter:url(#luminosity-noclip);}</style><filter id="luminosity-noclip" x="165.47" y="-7896.29" width="22.64" height="32766" filterUnits="userSpaceOnUse" color-interpolation-filters="sRGB"><feFlood flood-color="#fff" result="bg"/><feBlend in="SourceGraphic" in2="bg"/></filter><mask id="mask" x="165.47" y="-7896.29" width="22.64" height="32766" maskUnits="userSpaceOnUse"><g class="cls-29"/></mask><linearGradient id="linear-gradient" x1="165.47" y1="78.62" x2="188.11" y2="78.62" gradientUnits="userSpaceOnUse"><stop offset="0" stop-color="#fafafa"/><stop offset="1" stop-color="#fff"/></linearGradient><linearGradient id="linear-gradient-2" x1="59.23" y1="105.64" x2="98.52" y2="113.33" gradientUnits="userSpaceOnUse"><stop offset="0" stop-color="#ffc92d"/><stop offset="1" stop-color="#ff951a"/></linearGradient><linearGradient id="linear-gradient-3" x1="76.66" y1="131.94" x2="119.68" y2="139.67" gradientUnits="userSpaceOnUse"><stop offset="0" stop-color="#ffc92d"/><stop offset="0.3" stop-color="#ffb927"/><stop offset="1" stop-color="#ff951a"/></linearGradient><linearGradient id="linear-gradient-4" x1="78.68" y1="140.93" x2="47.59" y2="135.35" gradientUnits="userSpaceOnUse"><stop offset="0" stop-color="#ed7d88"/><stop offset="0.75" stop-color="#fbbbbc"/><stop offset="1" stop-color="#ffcfcd"/></linearGradient><linearGradient id="New_Gradient_Swatch_copy_11" x1="62.92" y1="142.3" x2="25.25" y2="137.08" gradientUnits="userSpaceOnUse"><stop offset="0" stop-color="#ed7d88"/><stop offset="1" stop-color="#ffcfcd"/></linearGradient><linearGradient id="linear-gradient-5" x1="181.13" y1="428.19" x2="164.22" y2="481.4" gradientUnits="userSpaceOnUse"><stop offset="0" stop-color="#201e40"/><stop offset="1" stop-color="#5b5898"/></linearGradient><linearGradient id="New_Gradient_Swatch_copy_11-2" x1="170.31" y1="347.34" x2="175.72" y2="441.31" xlink:href="#New_Gradient_Swatch_copy_11"/><linearGradient id="linear-gradient-6" x1="144.71" y1="416.7" x2="127.8" y2="469.92" xlink:href="#linear-gradient-5"/><linearGradient id="New_Gradient_Swatch_copy_11-3" x1="141.46" y1="346.75" x2="147" y2="443.04" xlink:href="#New_Gradient_Swatch_copy_11"/><linearGradient id="linear-gradient-7" x1="153.23" y1="195.78" x2="145.87" y2="290.42" gradientUnits="userSpaceOnUse"><stop offset="0" stop-color="#5b5898"/><stop offset="1" stop-color="#7283bb"/></linearGradient><linearGradient id="linear-gradient-8" x1="152.17" y1="182.58" x2="150.7" y2="289.01" xlink:href="#linear-gradient-5"/><linearGradient id="linear-gradient-9" x1="150.41" y1="250.58" x2="159.77" y2="116.08" xlink:href="#linear-gradient-2"/><linearGradient id="linear-gradient-10" x1="161.22" y1="70.79" x2="176.32" y2="16.39" gradientUnits="userSpaceOnUse"><stop offset="0" stop-color="#ffc92d"/><stop offset="0.85" stop-color="#ff9d1d"/><stop offset="1" stop-color="#ff951a"/></linearGradient><linearGradient id="linear-gradient-11" x1="164.16" y1="72.71" x2="124.25" y2="158.45" xlink:href="#linear-gradient-5"/><linearGradient id="linear-gradient-12" x1="130.5" y1="116.1" x2="169.26" y2="116.1" xlink:href="#linear-gradient-7"/><linearGradient id="linear-gradient-13" x1="157" y1="73.65" x2="149.44" y2="160.86" xlink:href="#linear-gradient-5"/><linearGradient id="New_Gradient_Swatch_copy_11-4" x1="159.74" y1="61.72" x2="151.32" y2="102.08" xlink:href="#New_Gradient_Swatch_copy_11"/><linearGradient id="New_Gradient_Swatch_copy_11-5" x1="173.81" y1="85.06" x2="166.07" y2="44.17" xlink:href="#New_Gradient_Swatch_copy_11"/><filter id="luminosity-noclip-2" x="165.47" y="59.57" width="22.64" height="38.1" filterUnits="userSpaceOnUse" color-interpolation-filters="sRGB"><feFlood flood-color="#fff" result="bg"/><feBlend in="SourceGraphic" in2="bg"/></filter><mask id="mask-2" x="165.47" y="59.57" width="22.64" height="38.1" maskUnits="userSpaceOnUse"><g class="cls-1"><path class="cls-2" d="M165.8,86.33c1.31,6.62,7,12,13.21,9.23.33-.14.63-.26.89-.35,2.68-.85,6.31,3,7.8,2.38a2.1,2.1,0,0,0,.41-.24c-.71-14.91-10.05-15-10.05-28.56,0-10.8-2.58-9.29-3-9,2.45,1.13,1.31,4.81,0,7.15-.6,1-2.18,3.19-6.93,5.79C165.86,80.53,164.92,81.9,165.8,86.33Z"/></g></mask><linearGradient id="linear-gradient-14" x1="165.47" y1="78.62" x2="188.11" y2="78.62" gradientUnits="userSpaceOnUse"><stop offset="0" stop-color="#631e30"/><stop offset="1" stop-color="#4d1725"/></linearGradient><linearGradient id="New_Gradient_Swatch_copy_11-6" x1="215.07" y1="194.06" x2="161.94" y2="201.34" xlink:href="#New_Gradient_Swatch_copy_11"/><linearGradient id="linear-gradient-15" x1="195.36" y1="253.72" x2="204.72" y2="119.2" xlink:href="#linear-gradient-2"/></defs><title>womanPhase4</title><path class="cls-3" d="M141.32,92.86c-8.44,39.85-5,52.1-14.38,57.76-3.57,2.41-7.25,2.89-11.46,3.07A290.59,290.59,0,0,1,65.92,151c1.21-4.92,1-10.35,2.18-15.26a49.18,49.18,0,0,0,9,.92A73.71,73.71,0,0,0,90,136c4.64-.42,8.88-1.4,22.27-2.46,2.22-8.88,2.88-18,3.71-22.69,2.35-12.31,12.41-31.22,14.29-32.47C135.81,74.56,147.34,76.4,141.32,92.86Z"/><path class="cls-4" d="M141.32,92.86c-8.44,39.85-5,52.1-14.38,57.76-3.57,2.41-7.25,2.89-11.46,3.07-19.91.88-36.52-1.16-47.56-2.42-.09,0-.14-.14-.23-.18,8.18.17,49,1.43,51.92-4.57,1.45-2.93-2-5.32-3.55-12.83-3.63-17.49,7.28-36,9.81-42.13C131.78,76.69,148.66,72.77,141.32,92.86Z"/><path class="cls-5" d="M115.29,138.42c-23.25.73-22.83-.14-39.53-1.81A68.38,68.38,0,0,0,90,136c4.64-.42,8.15-1.34,22.27-2.46a4.22,4.22,0,0,0,0,2.14A4.58,4.58,0,0,0,115.29,138.42Z"/><path class="cls-6" d="M69.47,136.26c3.18,1.9,4.75,10.87-1.77,14.81a3.89,3.89,0,0,1-4.22-2c-.33-.54,3.24-13.1,3.24-13.1C67.21,135.39,68.57,135.72,69.47,136.26Z"/><path class="cls-7" d="M64.21,150c-1.77.19-9.37.93-11,.19a3.38,3.38,0,0,1-.83-.56s-2.24-.25-5.66-.74c-4.55-13.44-3.62-10-3.44-17.77a12.13,12.13,0,0,1,7.33-.28,22.73,22.73,0,0,1-2-9.24A38,38,0,0,0,62,132.9c2.09,1.07,5.24,2.83,6.54,3.29C71.77,139.7,70.62,147.1,64.21,150Z"/><path class="cls-8" d="M64.21,150c-1.77.19-9.37.93-11,.19a3.38,3.38,0,0,1-.83-.56,2.41,2.41,0,0,0-.65-.05c.26,0-3.94-18.49-4-18.74a35.19,35.19,0,0,0,4.13,3.25c2.27,1.43,3,1.48,4,2.73s1,2,2.22,3A7.1,7.1,0,0,0,60.54,141c2.37.79,3.76.51,3.81.83.23.84-9.14,2.65-9,4.32.09,1.39,6.68,3.34,11,.56a7.14,7.14,0,0,0,2-2.09c1.34-2.23,1-6,.18-8.45C71.77,139.7,70.62,147.1,64.21,150Z"/><path class="cls-9" d="M48,146.66l-.5-.36c1.26-.07,2.47-.22,2.77-1a1.71,1.71,0,0,0-.46-1.62c-.48-.51-1-.4-1.95-.94a5.47,5.47,0,0,1-1.12-.83v0c2.12.24,3.88.48,3.08-1.51-.71-1.76-2.76-2.44-4.55-3,2.79.36,4.82.67,4-2.06-.34-1.08-2.63-2.13-5.78-2.55-.06-.53-.12-1.07-.17-1.6l-1.37,1.07a2.83,2.83,0,0,0,1,4.73l-.23,0a2.66,2.66,0,0,0,1,4.45c-1.84,1.51-.8,3.81,1,4.64h-.31c-1.14,2.86,1.33,4.57,4.38,4.2,1.56-.19,2-.87,1.13-2.21A3.33,3.33,0,0,0,48,146.66Z"/><path class="cls-10" d="M159.25,461.28s-3.81,5.15-2.91,13.43c0,0-.23,4.48,7.39,5.38s15.67-9.63,17.24-13.66c2.71-7-1.25-9.05.67-23.52,0-.07.5-3.71.81-8.68.62-9.7-.21-11.75-1.57-12.79-2-1.56-5.11-.65-5.31-.59C169.3,422.81,169.16,430.81,159.25,461.28Z"/><path class="cls-9" d="M188.09,345.49c0,14.75-3.92,37.09-6.22,53.64-1.16,5.52-3.57,11.6-1.57,18.05.68,2.28.81,1.61,1.25,4.92v0c1.4,11.06-3.38,34.75-4.92,39.4-2.54,7.11-5.65,5.21-12,4.45-4.82-.51-5.33-3.9-5.33-3.9,1.87-8.24,5.24-24.78,6.21-33.73,1.35-12.15,1.35-17.44-.41-26-6.68-31.74-8.12-61.9-12.53-75.26-.05-.18-3-11.37-2.83-11.78.74-2.6,9.79-4.55,17.72-3.48a5.4,5.4,0,0,0,1.49,0,9.85,9.85,0,0,0,7.75-1.48s.14-.05.18-.05a16.72,16.72,0,0,0,3.76-1.95,10.15,10.15,0,0,1,1.25,2.28.16.16,0,0,1,0,.14C183.86,314.33,188.09,332.36,188.09,345.49Z"/><path class="cls-11" d="M183.22,389.85c-2.83,19.48-4.15,22.61-2.92,27.33.68,2.28.81,1.61,1.25,4.92v0c1.4,11.06-3.38,34.75-4.92,39.4-1.73,4.85-3.64,4.76-8.31,4.36a155,155,0,0,0,4.32-28.58c2.14-36,4.14-60.42,2.27-100.87a16.31,16.31,0,0,0-14.38-15.27,59.43,59.43,0,0,1-9.88-2.18q9.18-3.54,18.28-7.1a9.85,9.85,0,0,0,7.75-1.48s.14-.05.18-.05a16.72,16.72,0,0,0,3.76-1.95,10.15,10.15,0,0,1,1.25,2.28.16.16,0,0,1,0,.14c.18.51,1.81,5.1,1.81,5.61C192.86,344.11,185,374.76,183.22,389.85Z"/><path class="cls-12" d="M151.33,441.2h-1.79q-.18-8-.37-16a27.46,27.46,0,0,0-3.36,12.32c-.22,7.17-6.27,12.54-7.84,13.88s-10.52,5.16-16.34,5.83-3.14-2.24-2-6.72c1.22-4.86,4.29-10.17,8.06-21.72,3.52-10.78,3-17.24,8.3-23.77a10.9,10.9,0,0,1,4.69-3.55c3.75-1.42,8.68-1.57,11.05,1.34,2.15,2.63,3.12,6.46,2.83,13.88A135.81,135.81,0,0,1,151.33,441.2Z"/><path class="cls-9" d="M126.1,352.22s10.52,61.41-.57,87.89c-.13.33-.3.7-.3.7-1.78,2.09,5.32,4.11,7.92,3.63,1.36-.25,5-1.84,9.33-14.36,3.15-9,7.67-27.45,5.55-30.39-2.22-3.15-3.11-8.52-2.65-13.9.92-11.48,10.08-37.52,5.81-56.4C145.77,317,138.3,303.06,127,296.21c-2.88-1.74-4.59-2.74-6.13-2.07C113.29,297.44,124.71,345.77,126.1,352.22Z"/><path class="cls-13" d="M139.07,380c.68,17.62,1.33,26.42,2,30.43,1,5.92,2.53,15-1.9,26.51-.66,1.7-1.3,3.05-1.27,3.06a77,77,0,0,0,4.58-9.91c3.49-9,5.55-20.19,6.36-28.86-7.62-12.89-1.32-20.31,2.78-49.47a87.89,87.89,0,0,0,.29-21.4,45.92,45.92,0,0,0-6.1-23.12L141.25,306,128,313.11C147.5,329.36,137.64,342.55,139.07,380Z"/><path class="cls-14" d="M192,228.13c-.26,18.64-9.46,32.23-9.46,71.13.06,2,.12,5.21,0,7.63,0,4.84-1.21,5.65-5,8.34a27.82,27.82,0,0,1-8.75,2.83c-40,6.68-50.91-11.7-50.91-11.7-4.88-7.43-3.5-13.76-4.13-18.48-1.26-9.28-2.12-17.22-2.73-23.41-2.72-27.94-2.11-40,.24-52.83h0s0-.1,0-.16L125,194.29c10.92-5.75,10.43-4.83,29.42-5.08A22.36,22.36,0,0,1,169.78,195c8.07,7.28,19,18.82,21.38,24.42v.18C191.81,221,192,226.57,192,228.13Z"/><path class="cls-15" d="M191.46,236.76a.76.76,0,0,1-.06.36c-4.93,24.64-8.87,32.41-8.87,62.14.06,2,.18,5.09,0,7.63,0,4.84-1.21,5.65-5,8.34,0,0-8,4.85-27.25,3.9l.11-.12.06-.06c3.79-3,10.88-10.79,12.28-15.48,2.94-9.78-.16-18.82-.51-32.24-.13-4.83.66-11.53,2.24-24.93,1.2-10.23,1.93-13.39-.29-16.69-3.37-5-8.66-9.28-17.91-14.07A38.57,38.57,0,0,1,134,205.19c-7.55,9.46-20.08,9.46-22.71,6.44a69.86,69.86,0,0,1,4.2-11.47,36,36,0,0,0,18.69-28.22c5.29,11.13,15.64,19.53,28.32,17.16,2.74,0,4.36,0,11.76-.11a3.26,3.26,0,0,0,.36.29c10.11,7.33,15,24.07,16.5,29.86a.81.81,0,0,1,0,.42C192.35,223.4,192.13,235.43,191.46,236.76Z"/><path class="cls-4" d="M189.3,210.1a51.13,51.13,0,0,0,3,6.2v1.95c-1.84.48-24.78,5.44-41.39-10.58-10.53-10.11-14.37-24.2-14.79-28.22-1.57,9.77-2.43,13.61-7.71,21-5.06,7-13.13,12.21-18.63,4v-1.95c10.89-11.82,12.89-23.36,13.54-36.54,14.31,1.06,45.18,3.42,59.19,4.43C181.65,180,186.39,202.42,189.3,210.1Z"/><path class="cls-16" d="M203.4,118.52c.65,6.45-5.38,10.85-9.6,16,0,0-.05,0-.05.1l-.05,0c-11.83,14.62-12.11,40.18-7.37,62,.32,1.35.6,2.69.93,4,.18.83.41,1.67.64,2.5.47,1.72.93,3.39,1.49,5a23.74,23.74,0,0,0,.83,2.55c.33,1.12.75,2.14,1.12,3.16.32.84.65,1.62,1,2.41l-1.71.28c-.14.05-.28.05-.42.09a8.46,8.46,0,0,1-1.25.19c-.56.05-1.12.14-1.77.23-.37,0-.79,0-1.2,0s-.93,0-1.4.09c-.78.05-1.57.09-2.36.09-.56,0-1.16,0-1.72,0-1,0-2-.05-3.06-.14l-1.53-.14c-.56-.05-1.12-.14-1.63-.23l-.88-.14c-.18,0-.32-.05-.46-.05-1.25-.23-2.41-.51-3.53-.74,0,0-.14-.05-.18-.05a51.57,51.57,0,0,1-5.8-2c-.61-.28-1.3-.56-1.91-.84s-1.39-.69-2.13-1.07c-.51-.32-1.07-.64-1.62-1a25.09,25.09,0,0,1-2.42-1.58,0,0,0,0,0,0,0,39.84,39.84,0,0,1-4.36-3.58c-10.54-10.11-14.62-27.83-15.08-31.83-1.54,9.66-2.14,17.27-7.38,24.55-5.1,7.1-13.18,12.25-18.65,4,10.22-13.42,15.72-29.78,12.85-54.15-1.45-12.79-4.06-11.94-5.71-19.07v-.14a17.61,17.61,0,0,1-.55-3.48C115.25,116,123.88,98.84,129.86,86c.84-1.81,2.41-5.48,6.22-7.75a19,19,0,0,1,6.12-2.37c12-2.25,36.61,14.08,43.25,19.54a69.51,69.51,0,0,1,8.81,8.3C200,110.07,203.08,113.41,203.4,118.52Z"/><path class="cls-4" d="M193.8,134.52s-.05,0-.05.1l-.05,0c-2.41,5.62-9.83,15.41-9.88,39.63a118,118,0,0,0,8.49,42c-6.74,1-12.62,1.61-19.39.28-1.23-.23-3.71-.79-3.71-.79a28.08,28.08,0,0,1-4.92-8.81,20,20,0,0,1-1.16-5.25,20.23,20.23,0,0,1,2-10.3c-4.56-1.93-20.94-9.3-30.53-23.29-15-21.85-23.13-63.3,12.9-92.24,12,1.41,34.14,15.34,43.15,24.08a38.83,38.83,0,0,0-4.92.7c-3.66.93-8.25,3.25-12.89,9.28a25.65,25.65,0,0,0,8.07,1.39c-19.16,23.15-49.37,32.66-28.21,40.88,27.93,11,21.57-16.52,26.35-23.67,1.49-2.32,3.85-4.68,5.15-4.22C194.35,128.4,195.61,130.21,193.8,134.52Z"/><path class="cls-6" d="M135.37,173.31c-3.7-.62-2.76-6.2.94-5.58S139.06,173.93,135.37,173.31Z"/><path class="cls-17" d="M168.11,110.9a35.93,35.93,0,0,0,9.22,1.75c-27.2,26.12-33.56,15-42,54.22-2.35-4.64-11.19-15.31-13.09-36.76a78.43,78.43,0,0,1,6.44-38.66,9.49,9.49,0,0,0,.91,5.24c1.81-10.07,9.09-18.37,19.93-18.1a43.44,43.44,0,0,1-2.66,6.09c-14.84,12.61-25,33.73-12.3,77.64a7.46,7.46,0,0,1-.06-1.18c-.06-.06-.06-.12-.06-.24-.9-12.64-1.53-24.41,8.87-39.2,4-5.62,7.92-9.4,15.14-16.32,5.91-5.69,10.71-9.35,12.53-19.75.53.16,9.74,3.17,10.11,8.82,0,.71,0,2.31-2.78,6.29A42.24,42.24,0,0,1,168.11,110.9Z"/><path class="cls-18" d="M170.47,95.62c-8.22,17.07-11,15.06-20.76,25.78-5.39,5.91-13.48,14.55-15.13,30.16a49.71,49.71,0,0,0-.06,10.76c-12.81-44.24-2.44-65.12,12.3-77.64.23-.23.47-.41.65-.59a42.39,42.39,0,0,0,10.17-.18c5.32-.82,7.86-2.48,10.7-.88a14.27,14.27,0,0,1,4.08,5C173.24,89.87,172.34,91.73,170.47,95.62Z"/><path class="cls-19" d="M161.23,107.33c-5.06,6.22-9.14,9.33-12,12-5.2,4.83-11.56,12.86-15.87,26.68-7-21.72-.88-44.91,14-59.76l18.42.79a7,7,0,0,1,2.23,1.9,5.09,5.09,0,0,1,.74,1.21C171,95.22,165.36,102.28,161.23,107.33Z"/><path class="cls-20" d="M168.09,89.89a47.59,47.59,0,0,1-12.76,12.43c-14.38,9.68-13.21,2.31-13-2.46a54.83,54.83,0,0,1,1.25-9.32,50,50,0,0,1,3.8-4.32l18.42.79a7,7,0,0,1,2.23,1.9A8.11,8.11,0,0,0,168.09,89.89Z"/><path class="cls-21" d="M144,77.07,146.21,71l24.09-2.78a34.35,34.35,0,0,0-3.6,20.22,42,42,0,0,1-11.08,10.81c-12.33,8.12-11.53,2.49-11.37-2.15C144.52,89.51,147.38,86.05,144,77.07Z"/><path class="cls-9" d="M184.51,55.37a15.78,15.78,0,0,1-2.72,6.56V62a19,19,0,0,1-2.72,3.31c-6.5,5.09-8.11,8.85-13.18,6.63-.12.12-.65.82-1.48,1.77-11,13.14-21.66,11.36-25.69,5.1a40.64,40.64,0,0,1-6.12-26.33c.59-8.16,3.84-24,10.34-28C155.36,16.7,185.87,46.15,184.51,55.37Z"/><path class="cls-22" d="M181.79,61.93V62a19,19,0,0,1-2.72,3.31c-6.5,5.09-8.11,8.85-13.18,6.63-.12.12-.65.82-1.48,1.77A41.63,41.63,0,0,1,159,79.08c.47-2,2.82-8.61,3.36-12.45,1.47-10.82-8.74-21.84-10.22-22.38,0,0,24.66-6.85,28.08,3.49C182.09,53.18,182.5,57.26,181.79,61.93Z"/><path class="cls-23" d="M188.14,97.36c-.14.09-.33.18-.42.23-1.49.65-5.15-3.25-7.84-2.37a3.28,3.28,0,0,0-.88.38c-6.13,2.69-11.88-2.6-13.18-9.24-.88-4.45.05-5.84,2.32-13.59,4.73-2.6,6.31-4.74,6.91-5.8,1.07-1.86,2.18-4.92.84-6.59a3.36,3.36,0,0,0-3.2-.88c-1.35.37-2.18,1.62-3.07,3.57-4.4,9.14-1.06,10.9-7.79,21.85a61.24,61.24,0,0,0,2.5-15.4c.24-4.92.38-8.45-1.25-12.48-2.78-7-9.19-11.93-10.34-11.09-.38.23-.47,1.07.55,3.8-3.8-.37-8.49-1.53-11.6-5.15-2.22-2.59-2.69-5.29-3.94-5.24s-2.23,3.06-4,10.44c-1.21,5.15-2.18,9.42-2.83,12.48-1.2-12.43,0-13.39.83-19.11.33-2.46.42-4.23.42-4.41,1.12-12.78,12-20.42,24.31-20.42a30.34,30.34,0,0,1,14.25,3.57c9.09,3.44,15.45,11.05,16.61,22.32,1.34,13.36-1.53,15.45-.93,31.14C186.84,87,191,95.18,188.14,97.36Z"/><path class="cls-24" d="M188.14,97.36c-.14.09-.33.18-.42.23-1.49.65-5.15-3.25-7.84-2.37a3.28,3.28,0,0,0-.88.38c-6.13,2.69-11.88-2.6-13.18-9.24-.88-4.45.05-5.84,2.32-13.59,4.73-2.6,6.31-4.74,6.91-5.8,1.07-1.86,2.18-4.92.84-6.59a3.36,3.36,0,0,0-3.2-.88c-1.35.37-2.18,1.62-3.07,3.57-4.4,9.14-1.06,10.9-7.79,21.85a61.24,61.24,0,0,0,2.5-15.4,8.62,8.62,0,0,0,.33-1c3.81-12.46,5.71-20.09,5.24-24.73-.55-5.94-5.57-17-14.43-25.38l0-.05a30.65,30.65,0,0,1,15.31,3.57c9.09,3.44,15.45,11.05,16.61,22.32,1.34,13.36-1.53,15.45-.93,31.14C186.84,87,191,95.18,188.14,97.36Z"/><g class="cls-25"><path class="cls-26" d="M165.8,86.33c1.31,6.62,7,12,13.21,9.23.33-.14.63-.26.89-.35,2.68-.85,6.31,3,7.8,2.38a2.1,2.1,0,0,0,.41-.24c-.71-14.91-10.05-15-10.05-28.56,0-10.8-2.58-9.29-3-9,2.45,1.13,1.31,4.81,0,7.15-.6,1-2.18,3.19-6.93,5.79C165.86,80.53,164.92,81.9,165.8,86.33Z"/></g><path class="cls-9" d="M198.29,200.84c-1,2.87-6.79,3-7.59,2.94a21.09,21.09,0,0,0-3.74-.13s-4.35,1.95-5.85,4.37-2.45,2.77-3.55,2.66,0-2.89.51-3.93a13.22,13.22,0,0,1,2.93-3.87s-3.12,2.4-4.84,3.54-2.68,2.57-4.85,3.91c-1.78,1.15-3.93.5-3-1.17a25,25,0,0,1,5.6-6.43c5.24-4.13,9.73-6.76-.37-1.36a1.58,1.58,0,0,0-.43.34c-1.12,1.3-2.58,2.88-4.3,4.78-.67.74-1.38,1.54-2.16,1.4-2.75-.5-.77-3.31.73-5.56,4.11-6.14,2.85-3.75,8-6.88,1-.59,2.07-1.27,2-1.49-.2-.8-5.33,1.47-6.11,1.78l-4.55,4.37c-1.89,1.1-2.57,1.07-2.83.82-1-.91,2.42-5.82,3.4-7,2.12-2.57,1.41-1.78,8.63-4.57,1.52-.58,8.65-.22,8.65-.22.93.19,1.93.42,3,.74.72.21,1.39.44,2,.67a9.57,9.57,0,0,1,3.78,1.49,10,10,0,0,1,2.73,2.88C197.41,196.79,199,199,198.29,200.84Z"/><path class="cls-27" d="M198.29,200.84c-1,2.87-6.79,3-7.59,2.94a21.09,21.09,0,0,0-3.74-.13s7.2-1.74,7.59-4.32-4.15-8.48-4.15-8.48a5.39,5.39,0,0,0,2.34.51C195,193,199.31,198.23,198.29,200.84Z"/><path class="cls-28" d="M224.84,162.86c-3.09,6-6.13,14.61-28.21,40.95.88-5-1.81-11.52-7-13.27,0-.2,2.43-4.11,2.56-4.3,4.85-7.64,7.85-9.65,11.05-17.52,2.55-6,1.33-5.43,5.19-14.22-7.79-5.68-10.61-8.6-21.7-18.6-12.76-8.53-8.51-24.84,2.56-35.3,10.07,6.42,13.83,13.56,18.58,21.6,5.64,9.85,1.29,4.51,13.43,20.26C229,152.55,229.91,152.86,224.84,162.86Z"/><path class="cls-6" d="M189.6,190.57c.06-1.09,3.46,1.52,4.23,2.29,2.71,2.7,3.55,7.21,2.78,10.94a1.39,1.39,0,0,1-2.05-.43,2.39,2.39,0,0,0,.76-.54C196.84,201.2,196,195,189.6,190.57Z"/><path class="cls-4" d="M208.76,168.33c-1.85,8.95-19.15,22.21-19.15,22.21,0-.2,2.43-4.11,2.56-4.3,4.86-7.65,7.85-9.65,11.05-17.52,2.55-6,1.33-5.43,5.19-14.22a16.93,16.93,0,0,1,6.88.27C217.15,155.47,210.67,159.38,208.76,168.33Z"/></svg>