<svg id="Слой_1" data-name="Слой 1" xmlns="http://www.w3.org/2000/svg" viewBox="0 0 156.11 373.23">
  <defs>
    <style>
      .cls-1 {
        fill: #6e260e;
      }

      .cls-1, .cls-10, .cls-11, .cls-12, .cls-13, .cls-2, .cls-3, .cls-4, .cls-5, .cls-6, .cls-7, .cls-8, .cls-9 {
        fill-rule: evenodd;
      }

      .cls-2 {
        fill: #ff4343;
      }

      .cls-12, .cls-3 {
        fill: #fc9e8a;
      }

      .cls-4 {
        fill: #ffcc01;
      }

      .cls-5 {
        fill: #fdbf9d;
      }

      .cls-6 {
        fill: #152132;
      }

      .cls-7 {
        fill: #c47f75;
      }

      .cls-8 {
        fill: #005da8;
      }

      .cls-9 {
        fill: #5da0ec;
      }

      .cls-11 {
        fill: #904341;
      }

      .cls-12 {
        fill-opacity: 0.72;
      }

      .cls-13 {
        fill: #fff;
      }
    </style>
  </defs>
  <title>lifecycleFirstQuaterWoman</title>
  <g>
    <g>
      <g>
        <path class="cls-1" d="M131.4,159.38c-9.83-1.47-16.85-12.52-18.56-25.1-1.73-13,2.15-27.49,14.38-34.8a17,17,0,0,1,14.19-1.57c5.57,1.93,10.69,7,13.42,16.32C159.48,130.09,151.35,162.33,131.4,159.38Z"/>
        <path class="cls-2" d="M129.65,131.51c-8.57,4.93-13.85,4.27-16.81,2.77-1.73-13,2.15-27.49,14.38-34.8a17,17,0,0,1,14.19-1.57C143.54,108,141.11,124.91,129.65,131.51Z"/>
      </g>
      <g>
        <path class="cls-1" d="M53.08,163c9.84-1.48,16.86-12.53,18.57-25.11,1.72-12.94-2.16-27.48-14.39-34.8a17,17,0,0,0-14.19-1.57c-5.57,1.93-10.69,7-13.42,16.32C25,133.69,33.13,165.93,53.08,163Z"/>
        <path class="cls-2" d="M54.83,135.1c8.58,4.94,13.85,4.28,16.82,2.77,1.72-12.94-2.16-27.48-14.39-34.8a17,17,0,0,0-14.19-1.57C40.94,111.56,43.37,128.51,54.83,135.1Z"/>
      </g>
      <path class="cls-1" d="M40.52,89.24c-1-2.31-7.15-34.14,5.38-59.53S81.67.78,94.65,5.28C110.15-7.25,132,3.76,138.4,25.21c4.59,15.37,9.11,48.22-2.05,70.71C93.06,95.92,45,94,45,94Z"/>
    </g>
    <g>
      <path class="cls-3" d="M133.38,182.78s8.45,20.67,9.39,33.12c0,5.56-21,16.16-21,16.16l-5.26-15.9-4.13-23.84Z"/>
      <path class="cls-4" d="M115.7,198.12,140,184.92S129.58,152,114.59,146.83C100.72,151.12,115.7,198.12,115.7,198.12Z"/>
    </g>
    <g>
      <path class="cls-5" d="M86.57,264l-.19,23.94-.56,65.32a14.5,14.5,0,0,1-8.83,6c-5.74,1.09-10-4.87-10-4.87s-2.27-39.89-3.63-66.41c-.49-9.76-.88-17.73-1-21.23Z"/>
      <path class="cls-3" d="M86.57,264l-.19,23.94h-23c-.49-9.76-.88-17.73-1-21.23Z"/>
      <path class="cls-6" d="M44.22,363c-2.13,1.66-1.85,6.08.4,7.41a21,21,0,0,0,12.52,2.78c10.12-.84,15.93-5.46,21.44-6.3,2.75-.43,5-.63,6.53-.74,1.39-.09,2.48-1.71,2.48-3.68,0-3.7-.24-9.39-1.57-12.6-4.16,4.41-9.82,6.72-12.8,5.25s-6.55-8.61-6.55-8.61l-.06.07A66,66,0,0,1,47.51,361,20.18,20.18,0,0,0,44.22,363Z"/>
    </g>
    <g>
      <path class="cls-5" d="M92.53,264l2.93,23.94,8,65.32a16.94,16.94,0,0,0,9.52,6c5.86,1.09,9.41-4.87,9.41-4.87s-2.31-39.89-4-66.41c-.62-9.76-1.15-17.73-1.44-21.23Z"/>
      <path class="cls-3" d="M92.53,264l2.93,23.94h23c-.62-9.76-1.15-17.73-1.44-21.23Z"/>
      <path class="cls-6" d="M146.21,363c2.32,1.66,2.55,6.08.45,7.41a19.45,19.45,0,0,1-12.2,2.78c-10.22-.84-16.56-5.46-22.16-6.3-2.8-.42-5.06-.63-6.62-.74-1.4-.09-2.67-1.71-2.9-3.68-.42-3.7-.83-9.39.13-12.6,4.67,4.41,10.59,6.72,13.4,5.25s5.57-8.61,5.57-8.61l.07.07A77.39,77.39,0,0,0,142.69,361,23.53,23.53,0,0,1,146.21,363Z"/>
    </g>
    <g>
      <path class="cls-5" d="M13.46,113c0,.82-1.32,28.17,2.14,47.29,1,5.44,3.86,9.79,7.64,11.54,11,5.09,22.73,7,22.92,5.62.22-1.58,2.46-31,2.46-31L32.5,143.33,26,108.27Z"/>
      <path class="cls-4" d="M63.21,146.29l-24.28-2.88-2.45,42.27S60.6,187,65.69,187.81s10.36-4.52,11.68-12.76S79.19,148.9,63.21,146.29Z"/>
      <g>
        <path class="cls-3" d="M18.4,71.67c-4.09-2.52,2,18.26,2.16,21.2a8,8,0,0,1-1.47.78s-5.42-19-7.61-19.51S10.09,77,11,81s4.12,15.65,4.12,15.65l-1.45,1S7.4,79.93,5.6,79.32,4,81.61,4.94,84.7s5.15,15.11,5.15,15.11L8.87,101S2.34,88.28,1.41,88.12c-1.84-.33-1.8,2.44-.34,5.16.74,1.38,3.74,10.12,7.47,17.43,4,7.76,11.84,9.73,17.18,3.83a9.29,9.29,0,0,0,2.56-5.18C28.69,104.78,20.28,72.82,18.4,71.67Z"/>
        <path class="cls-5" d="M34.11,87.85c1.6.49.47,2.09-.78,5.06s-1.83,12.15-5,18.66S20.41,114,20,110.47c-.35-3.06,1-6.7,5.29-10.57a11,11,0,0,0,3.13-5.13C29.86,89.76,31.28,87,34.11,87.85Z"/>
        <path class="cls-7" d="M7.42,103.86a6,6,0,0,1,1.3-2.39,24.22,24.22,0,0,1,1.65-2,33.42,33.42,0,0,1,3.94-3.63,28.18,28.18,0,0,1,8.41-4.51c.63-.22.94,1.11.31,1.36a26.79,26.79,0,0,0-7.72,5,31.27,31.27,0,0,0-3.46,3.69c-.55.68-1.11,1.35-1.65,2.06a6.05,6.05,0,0,1-1.82,1.93C7.75,105.67,7.26,104.63,7.42,103.86Z"/>
      </g>
    </g>
    <g>
      <path class="cls-8" d="M124,279.59H54.88c1.63-60,8.06-134.6,8.06-134.6s3.8-.11,7.39,0c.56,0,1.13-.06,1.71-.09,4.27-.21,8.49-.21,8.49-.21,8.32.18,18.37.63,25.46,1.15.6.06,1.19.09,1.75.15a41.77,41.77,0,0,1,6.85.87C115.51,156.61,124,279.59,124,279.59Z"/>
      <path class="cls-4" d="M106,145.81v10.8c0,13.28-7.62,24-17,24s-17-10.75-17-24v-.39c0-3.28.07-8,.09-11.38,4.27-.21,8.49-.21,8.49-.21C88.85,144.84,98.9,145.29,106,145.81Z"/>
      <path class="cls-9" d="M71.64,195v23.53c0,7,2.58,10.92,8.34,11.76s16.87,0,20.84,0,6.55-6.16,6.16-13.16-.6-22.13-.6-22.13Z"/>
    </g>
    <g>
      <path class="cls-5" d="M129.6,236.61c-1.21,1.18-6.46,3.24-8,2.51-1-.5-.75-1.92-.45-2.84a7.89,7.89,0,0,1,.35-.85,2,2,0,0,1-1.1-.45,2.48,2.48,0,0,1-.57-.59c-.49-.68-.32-2.33-.14-3.32.07-.48.14-.78.14-.78a4.23,4.23,0,0,1-1.36-.07,3.57,3.57,0,0,1-.62-.22c-.93-.4-2-1.18-2.07-3.54a4.39,4.39,0,0,1,0-.73,1.87,1.87,0,0,1-1.46,0c-1.3-.57-1.6-2.79-1-3.81.73-1.32,10.21-11.3,12.82-10.57s1.07,6.09,1.35,6.32c2.6,2.06,2.08,5.29.62,7.63,3.13,1.91,1,5.88,1,5.88S131.69,234.56,129.6,236.61Z"/>
      <path class="cls-3" d="M124.29,221a14.57,14.57,0,0,1-2.14,2.39,10.9,10.9,0,0,1-2.41,1.44,29.6,29.6,0,0,1-4,1.65,4.39,4.39,0,0,1,0-.73,1.87,1.87,0,0,1-1.46,0,.56.56,0,0,1,.27-.26,28.38,28.38,0,0,0,4.76-2.41c.78-.5,1.55-1.06,2.37-1.49s1.59-.68,2.39-1C124.26,220.44,124.44,220.77,124.29,221Z"/>
      <path class="cls-3" d="M126.43,227.43a9.32,9.32,0,0,1-3.53,2.27c-1.05.52-2.14,1-3.23,1.37.07-.48.14-.78.14-.78a4.23,4.23,0,0,1-1.36-.07s0-.05.07-.05a30.62,30.62,0,0,0,3.71-2A18,18,0,0,1,126,226C126.53,225.8,126.87,226.91,126.43,227.43Z"/>
      <path class="cls-3" d="M128.33,232.43a10,10,0,0,1-7.2,3.85,7.89,7.89,0,0,1,.35-.85,2,2,0,0,1-1.1-.45c2.69-.35,5.17-1.88,7.63-3.4C128.39,231.35,128.59,232.08,128.33,232.43Z"/>
    </g>
    <g>
      <path class="cls-7" d="M89.23,160.19h0c-5.63,0-10.2-6.44-10.2-14.38v-13.5H99.42v13.5C99.42,153.75,94.86,160.19,89.23,160.19Z"/>
      <g>
        <g>
          <path class="cls-5" d="M40.39,83c-10.34,4.52-7.71,36.21,15.21,36C56.53,95.63,49.83,78.86,40.39,83Z"/>
          <path class="cls-3" d="M38.94,95.54a17.74,17.74,0,0,0,1.7,6.25c.38.84,1.39.07,1.08-.82a12.35,12.35,0,0,1-.58-7.22c.51-1.85,1.6-2.82,3-2.52,2.59.56,4.84,3.46,6.11,6.54.1.25.18.51.27.76l-.25-.19c-1.26-1.12-2.65-1.47-4-.31-2.63,2.32-2.2,7-.52,10.06s5,5.63,7.73,3.71c.83-.58.37-2.33-.47-2.33a5.7,5.7,0,0,1-4.91-2.2c-.93-1.16-2.12-3.39-1.5-5.25.21-.65.75-1.4,1.29-1.39s1,.82,1.39,1.24c1.3,1.35,3.45,1.56,4.25-.83.66-1.94-.41-4.42-1.13-6a17.11,17.11,0,0,0-3.09-4.74c-2.49-2.64-6.28-4.67-8.83-1A10,10,0,0,0,38.94,95.54Z"/>
        </g>
        <g>
          <path class="cls-5" d="M138.77,83c10.34,4.52,7.71,36.21-15.21,36C122.64,95.63,129.34,78.86,138.77,83Z"/>
          <path class="cls-3" d="M140.22,95.54a17.53,17.53,0,0,1-1.7,6.25c-.37.84-1.39.07-1.08-.82a12.43,12.43,0,0,0,.59-7.22c-.52-1.85-1.61-2.82-3-2.52-2.58.56-4.84,3.46-6.11,6.54-.1.25-.18.51-.26.76l.25-.19c1.25-1.12,2.64-1.47,4-.31,2.63,2.32,2.19,7,.52,10.06s-5,5.63-7.74,3.71c-.83-.58-.37-2.33.47-2.33a5.69,5.69,0,0,0,4.91-2.2c.94-1.16,2.12-3.39,1.5-5.25-.21-.65-.75-1.4-1.29-1.39s-1,.82-1.38,1.24c-1.3,1.35-3.46,1.56-4.26-.83-.66-1.94.42-4.42,1.13-6a17.34,17.34,0,0,1,3.09-4.74c2.49-2.64,6.28-4.67,8.83-1A9.94,9.94,0,0,1,140.22,95.54Z"/>
        </g>
        <g>
          <path class="cls-5" d="M130.06,67.69a3.68,3.68,0,0,1,.44,1.92c0,5.09-.55,10.31-.94,15.36-.44,5.56-1,11.09-1.47,16.63-.12,1.22-.23,2.44-.34,3.66-.52,5.75-1.07,11.59-2.8,16.86-2.43,7.46-7,10.74-12.12,13.81-13.76,8.25-26.4,9.82-40.44,2.89-4.8-2.37-9.62-3.93-13.63-10.41-2.37-3.83-3.84-8.66-4.94-13.45a134.83,134.83,0,0,1-2.63-16.82c-.52-5.19-.85-10.42-1-15.65,0-1.14-.31-2.14-.33-3.28a21.38,21.38,0,0,1,.16-3,24.74,24.74,0,0,1,1.38-5.7,25.35,25.35,0,0,1,5.84-9.19c.28-.28.58-.55.87-.82,5-4.39,10.88-6.11,16.55-8.33a40.59,40.59,0,0,0,8.8-4.53c2.65-1.88,4.75-4.6,7.14-7,1.24-1.24,2.22-3.55,3-5.39a28.77,28.77,0,0,0,1.79-6.66,28.68,28.68,0,0,0,6.16,16c3.28,4.17,7.25,7.08,11.18,9.94l10.62,7.75,5.31,3.88A4.8,4.8,0,0,1,130.06,67.69Z"/>
          <g>
            <g>
              <path class="cls-10" d="M102.34,84.21a15,15,0,0,1,1.09-6.09c.65-1.64,1.54-2.46,2.68-2.46s1.94.82,2.67,2.46a15.47,15.47,0,0,1,1.1,6.24,16.06,16.06,0,0,1-1.1,6.23q-1.09,2.46-2.67,2.46c-1.14,0-2-.87-2.68-2.61A16,16,0,0,1,102.34,84.21Z"/>
              <path class="cls-1" d="M108.08,59.89c-4.82-1.1-9,4.18-8.1,4.83s15.76,3.53,16,1.54C116.18,65.16,113.85,61.21,108.08,59.89Z"/>
            </g>
            <g>
              <path class="cls-10" d="M70,84.36a16.08,16.08,0,0,1,1.1-6.24q1.22-2.31,2.79-2.31c1.06,0,1.95.82,2.68,2.46a14.67,14.67,0,0,1,1.22,6.23,14.3,14.3,0,0,1-1.22,6.09c-.73,1.64-1.62,2.46-2.68,2.46s-2-.82-2.79-2.46A16.06,16.06,0,0,1,70,84.36Z"/>
              <path class="cls-1" d="M72.45,58.57c4.83-1.1,9.1,4.39,8.1,4.84-3.63,1.62-13.16,2.1-16,1.53C63.39,64.72,66.69,59.89,72.45,58.57Z"/>
            </g>
            <g>
              <path class="cls-3" d="M83.69,91c-.12-1.35-1.61-2-2.27-.58C80.61,92.16,82.89,94,83.58,92A2.21,2.21,0,0,0,83.69,91Z"/>
              <path class="cls-3" d="M98.18,84.89c-.13-1.35-1.62-2-2.27-.58-.82,1.72,1.47,3.56,2.15,1.51A2.41,2.41,0,0,0,98.18,84.89Z"/>
              <path class="cls-3" d="M85.21,83.37c-.09-1-1.16-1.41-1.63-.42-.58,1.23,1,2.55,1.54,1.08A1.59,1.59,0,0,0,85.21,83.37Z"/>
              <path class="cls-3" d="M94.87,90.86c-.1-1-1.17-1.41-1.63-.42-.59,1.23,1.05,2.55,1.54,1.08A1.78,1.78,0,0,0,94.87,90.86Z"/>
              <path class="cls-3" d="M92.38,83.27c-.09-1-1.16-1.41-1.63-.42-.58,1.23,1.06,2.55,1.55,1.08A1.57,1.57,0,0,0,92.38,83.27Z"/>
              <path class="cls-3" d="M99.62,90.86c-.09-1-1.16-1.41-1.63-.42-.58,1.23,1.06,2.55,1.55,1.08A1.57,1.57,0,0,0,99.62,90.86Z"/>
              <path class="cls-3" d="M89.49,88.91c-.1-1-1.17-1.41-1.63-.42-.59,1.24,1,2.56,1.54,1.09A1.83,1.83,0,0,0,89.49,88.91Z"/>
            </g>
            <g>
              <path class="cls-11" d="M78.42,106.94a11.92,11.92,0,0,0,10.71,8.76c10.81,1.15,12.88-9.85,12.88-9.85S93.48,114.39,78.42,106.94Z"/>
              <path class="cls-7" d="M85.82,103s1.61-5.49,4.65-5,4.08,4.42,4.08,4.42.25-8.16-4.18-8C85.63,94.58,85.82,103,85.82,103Z"/>
            </g>
            <g>
              <g>
                <path class="cls-12" d="M65.11,121.72q-4,0-6.91-4.08a16.92,16.92,0,0,1-2.89-9.86,15.86,15.86,0,0,1,2.89-9.62q2.89-4,6.91-4T72,98.27a17.86,17.86,0,0,1,0,19.48C70.08,120.39,67.78,121.72,65.11,121.72Z"/>
                <path class="cls-13" d="M62.78,104a1.93,1.93,0,0,1-1.53.8,1.82,1.82,0,0,1-1.52-.91,3.88,3.88,0,0,1,0-4.53,1.8,1.8,0,0,1,1.52-1,2.72,2.72,0,0,1,1.53,1.13,3.19,3.19,0,0,1,.8,2.16A3.73,3.73,0,0,1,62.78,104Z"/>
              </g>
              <g>
                <path class="cls-12" d="M121.35,96.31a17,17,0,0,1,3,10.11,16.18,16.18,0,0,1-3,10q-2.92,4.23-7.09,4.23T107,116.3a17,17,0,0,1-3-10.11,16.53,16.53,0,0,1,3-10q3-4.11,7.25-4.11T121.35,96.31Z"/>
                <path class="cls-13" d="M119.85,99.84a4,4,0,0,1-.67,2.35,1.9,1.9,0,0,1-1.58.94,2.33,2.33,0,0,1-1.75-.94,4.48,4.48,0,0,1-.67-2.47,3.7,3.7,0,0,1,.67-2.23,2.46,2.46,0,0,1,1.75-.83,1.93,1.93,0,0,1,1.58.94A3.83,3.83,0,0,1,119.85,99.84Z"/>
              </g>
            </g>
          </g>
        </g>
      </g>
    </g>
  </g>
</svg>
