<svg id="Layer_1" data-name="Layer 1" xmlns="http://www.w3.org/2000/svg" xmlns:xlink="http://www.w3.org/1999/xlink" viewBox="0 0 291.72 480.53"><defs><style>.cls-1{fill:#733639;}.cls-2{fill:#4d1725;}.cls-3{fill:#a14c50;}.cls-4{fill:url(#linear-gradient);}.cls-5{fill:#ffcfcd;}.cls-6{fill:url(#New_Gradient_Swatch_copy_11);}.cls-7{fill:#e9f5fb;}.cls-8{fill:url(#New_Gradient_Swatch_copy_11-2);}.cls-9{fill:url(#linear-gradient-2);}.cls-10{fill:url(#linear-gradient-3);}.cls-11{fill:#5f4080;}.cls-12{fill:url(#linear-gradient-4);}.cls-13{fill:url(#linear-gradient-5);}.cls-14{fill:url(#linear-gradient-6);}.cls-15{fill:url(#linear-gradient-7);}.cls-16{fill:url(#linear-gradient-8);}.cls-17{fill:url(#linear-gradient-9);}.cls-18{fill:url(#linear-gradient-10);}.cls-19{fill:url(#linear-gradient-11);}.cls-20{fill:url(#linear-gradient-12);}.cls-21{fill:url(#linear-gradient-13);}.cls-22{fill:#0267ab;}.cls-23{fill:url(#New_Gradient_Swatch_copy_11-3);}.cls-24{fill:url(#New_Gradient_Swatch_copy_11-4);}.cls-25{fill:url(#New_Gradient_Swatch_copy_11-5);}.cls-26{fill:#fff;}.cls-27{fill:#c1e3f4;}.cls-28{fill:url(#linear-gradient-14);}.cls-29{fill:#f26900;}.cls-30{fill:url(#linear-gradient-15);}.cls-31{fill:url(#New_Gradient_Swatch_copy_40);}.cls-32{fill:#f05e1f;}.cls-33{fill:url(#New_Gradient_Swatch_copy_11-6);}.cls-34{fill:#052440;}.cls-35{fill:url(#linear-gradient-16);}.cls-36{fill:url(#linear-gradient-17);}</style><linearGradient id="linear-gradient" x1="29.66" y1="47.18" x2="49.12" y2="47.18" gradientUnits="userSpaceOnUse"><stop offset="0" stop-color="#001440"/><stop offset="1" stop-color="#005995"/></linearGradient><linearGradient id="New_Gradient_Swatch_copy_11" x1="49.46" y1="58.14" x2="11.43" y2="14.88" gradientUnits="userSpaceOnUse"><stop offset="0" stop-color="#ed7d88"/><stop offset="1" stop-color="#ffcfcd"/></linearGradient><linearGradient id="New_Gradient_Swatch_copy_11-2" x1="48.46" y1="59.02" x2="10.43" y2="15.75" xlink:href="#New_Gradient_Swatch_copy_11"/><linearGradient id="linear-gradient-2" x1="117.86" y1="93.5" x2="71.72" y2="70.91" gradientUnits="userSpaceOnUse"><stop offset="0" stop-color="#005995"/><stop offset="1" stop-color="#068be5"/></linearGradient><linearGradient id="linear-gradient-3" x1="38.5" y1="57.48" x2="42.28" y2="57.48" xlink:href="#linear-gradient"/><linearGradient id="linear-gradient-4" x1="140" y1="95.17" x2="58.29" y2="82.35" xlink:href="#linear-gradient"/><linearGradient id="linear-gradient-5" x1="159.12" y1="258.81" x2="127.68" y2="386.77" xlink:href="#linear-gradient-2"/><linearGradient id="linear-gradient-6" x1="149.83" y1="256.97" x2="140.59" y2="374.7" xlink:href="#linear-gradient"/><linearGradient id="linear-gradient-7" x1="228.75" y1="245.48" x2="198.1" y2="370.22" xlink:href="#linear-gradient-2"/><linearGradient id="linear-gradient-8" x1="229.99" y1="290.39" x2="192.87" y2="370.34" xlink:href="#linear-gradient"/><linearGradient id="linear-gradient-9" x1="172.32" y1="185.26" x2="292.35" y2="355.54" xlink:href="#linear-gradient-2"/><linearGradient id="linear-gradient-10" x1="147.4" y1="173.6" x2="137.47" y2="250.51" xlink:href="#linear-gradient"/><linearGradient id="linear-gradient-11" x1="149.51" y1="173.88" x2="139.58" y2="250.78" xlink:href="#linear-gradient"/><linearGradient id="linear-gradient-12" x1="200.6" y1="89.96" x2="188.1" y2="319.72" xlink:href="#linear-gradient"/><linearGradient id="linear-gradient-13" x1="165.3" y1="229.1" x2="196.98" y2="229.1" xlink:href="#linear-gradient"/><linearGradient id="New_Gradient_Swatch_copy_11-3" x1="-11140.6" y1="134.62" x2="-11160.28" y2="37.82" gradientTransform="matrix(-1, 0, 0, 1, -10985.5, 0)" xlink:href="#New_Gradient_Swatch_copy_11"/><linearGradient id="New_Gradient_Swatch_copy_11-4" x1="147" y1="132.35" x2="174.14" y2="-1.12" xlink:href="#New_Gradient_Swatch_copy_11"/><linearGradient id="New_Gradient_Swatch_copy_11-5" x1="-11155.57" y1="137.66" x2="-11175.24" y2="40.86" gradientTransform="matrix(-1, 0, 0, 1, -10985.5, 0)" xlink:href="#New_Gradient_Swatch_copy_11"/><linearGradient id="linear-gradient-14" x1="136.8" y1="129.28" x2="163.48" y2="129.28" gradientUnits="userSpaceOnUse"><stop offset="0" stop-color="#ffc92d"/><stop offset="1" stop-color="#ff951a"/></linearGradient><linearGradient id="linear-gradient-15" x1="92.78" y1="260.44" x2="218.39" y2="-11.94" xlink:href="#linear-gradient"/><linearGradient id="New_Gradient_Swatch_copy_40" x1="299.35" y1="340.75" x2="232.4" y2="301.54" gradientUnits="userSpaceOnUse"><stop offset="0" stop-color="#fad260"/><stop offset="1" stop-color="#fa9826"/></linearGradient><linearGradient id="New_Gradient_Swatch_copy_11-6" x1="244.9" y1="207.16" x2="250.83" y2="275.21" xlink:href="#New_Gradient_Swatch_copy_11"/><linearGradient id="linear-gradient-16" x1="222.04" y1="146.84" x2="345.74" y2="322.32" xlink:href="#linear-gradient-2"/><linearGradient id="linear-gradient-17" x1="246.01" y1="192.19" x2="267.52" y2="192.19" xlink:href="#linear-gradient"/></defs><title>manPhase4</title><path class="cls-1" d="M216.36,475.84c1.94,4.71,13.75,4.64,18.6,3,6.78-2.29,13.52-8.89,13.94-16.15,0,0,1.14-20.1,1.4-25L225.54,441c-.7,7.53-5.94,20.06-8.25,26.64h0c-.15.45-.87,2.6-.92,3.08,0,0-.15.68-.16.78A8,8,0,0,0,216.36,475.84Z"/><path class="cls-2" d="M225.45,441.56l0,0c.14.87,1.26,2.5,6.43,4.5,7.77,3.07,14.65.13,15,.77a24.37,24.37,0,0,0,2.69,2.78c.06-1.08.47-8.23.67-12L225.54,441C225.39,441.14,225.47,441.34,225.45,441.56Z"/><path class="cls-3" d="M240.38,464.73c-3.39,1.35-5.37-2.23-11.42-3-5.17-.65-8.29,1.44-10,1.27,2.5-6.73,4.27-10.78,5.7-17.45,1.93,3.77,4.57,4.86,8.11,5.47,4.14.72,7.48.57,12.53-.12C246.64,457.27,243.3,463.56,240.38,464.73Z"/><path class="cls-2" d="M248.9,462.67c-.41,7.27-7.17,13.88-13.94,16.17-4.84,1.63-16.65,1.71-18.59-3-.69-1.66-.3-4,0-5.2.57,6.91,14.45,6.13,18.94,4.62,6.21-2.08,12.42-7.82,13.7-14.36C249,461.45,248.92,462.06,248.9,462.67Z"/><path class="cls-2" d="M130.59,436.36a40.71,40.71,0,0,0,19.91-10.3,63.31,63.31,0,0,0,10.91-.54c7-.76,6-4.33,6.38-10a32.33,32.33,0,0,0-.15-5.41.4.4,0,0,0,0-.13,39.59,39.59,0,0,0-.61-4.11s0-.06,0-.09c-10,2.55-18.33.72-26.19-4.8a31.43,31.43,0,0,1-5.74,10.42v0c-4.66,4.33-20.19,13.6-23.34,15.24C104.48,437.05,118.84,438.58,130.59,436.36Z"/><path class="cls-1" d="M109.94,430.11a0,0,0,0,0,0,0c2.19,4.53,13.81,4.23,20.43,2.95,4-.74,11.78-2.9,19.95-10.32a66,66,0,0,0,10.9-.51c6.62-.73,6.06-3.93,6.28-9a26.76,26.76,0,0,0,.09-3.22,15,15,0,0,0-.25-2.08c0-.09-.39-2.12-.39-2.12-10,2.55-18.33.72-26.19-4.8-.15.47-.34.91-.52,1.39v.06a41.38,41.38,0,0,1-1.95,4.26v0a24.82,24.82,0,0,1-3.26,4.68v0c-4.66,4.33-20.19,13.6-23.34,15.24a13.22,13.22,0,0,0-1.69,3.15C110,429.93,110,430,109.94,430.11Z"/><path class="cls-2" d="M138.31,406.71v0c5.25,10.34,19,9.89,29.22,6.48,0-.19.18-2.92.11-3.09a15.22,15.22,0,0,0-.22-2,.45.45,0,0,0,0-.19c0-.07-.35-2-.36-2s0-.06,0-.09c-10,2.55-18.33.72-26.19-4.8-.15.44-.3.89-.46,1.3,0,0,0,.06-.06.09v.06A38.82,38.82,0,0,1,138.31,406.71Z"/><path class="cls-3" d="M113.25,425.8c4.5,3.24,10.26,3.85,14.74,1.47,5.91-3.14,8.3-17.19,7.06-15.84C131.9,414.8,117.92,423.09,113.25,425.8Z"/><path class="cls-4" d="M45,38.43c6,.68,5.09,11.4-.05,15.42-6.14,4.8-16.38.32-15.15-3.57Z"/><path class="cls-5" d="M3.45,28.61c.81,1.85,4.79,5.26,6.49,6.32,4,2.47,7.89,2.4,7.87,2.61s-3.45.86-7-.66c-3.83-1.62-5.62-4.75-6.45-4.23-.49.32-.23,1.73.11,2.71,1.13,3.34,4.18,5,8.54,7.35a44.52,44.52,0,0,0,15.07,5c.32.52.81,1.29,1.47,2.2,3.31,4.55,7.49,10.71,12.84,4.4.56-.66,1-1.25,1.47-1.78h0a13.84,13.84,0,0,0,2.31-3.87c2.31-6.41-1.48-9-2.73-12.29-.92-2.41-.26-3.6-2-6.59-4.66-8.21-7-6.2-10.61-9-2.59-2.06-3.2-4.05-4.43-3.79s-2.29,2.88-1.88,4.41c.69,3.05,6.53,4.59,6.52,4.9s-2.15-.13-5.11-1.19a27.79,27.79,0,0,1-13.11-8.86c-1.62-2-2.18-3.31-3.33-3.29A2,2,0,0,0,7.74,14c-.23.54.22,2.82,1.5,4.22,2.77,3.4,4.66,7.3,11.65,10.88C16.36,28.05,13,26.14,7.52,19c-.79-1-1.91-2.56-2.93-2.33-.71.16-1,1.07-1.07,1.13-.45,1.32.55,2.72,1.83,4.47C8.14,26.12,9.54,28,10,28.41c4,3.65,8.49,4.29,8.39,4.6s-3.37.2-6.67-1.65c-4.9-2.73-6.59-7.59-7.89-7C3.21,24.55,2.52,26.47,3.45,28.61Z"/><path class="cls-6" d="M28,47.67a47.46,47.46,0,0,0,5.54,7.24c3.07.26,7.11-.88,10.24-2.42h0c6.49-8.42.88-12.74-.42-16.16h-.07a20.93,20.93,0,0,1,0,4.55C43,43.51,42,46.26,41.36,46.19c-.37,0-.21-1.1-1.07-2.41s-2.46-2.25-2.78-2c-.49.43,2.55,3.09,1.79,5.31C38.42,49.68,32.34,51.19,28,47.67Z"/><path class="cls-7" d="M44.57,38.58c1.16,1.45.89,3.08.34,4.85-.86,2.83-2,6.75-6.43,8.14-2.68.83-6.73.82-7.43.23a7.46,7.46,0,0,1-1.33-1.69,10.61,10.61,0,0,0,2.62,4.11c4.59,1.08,9.37-.3,9.88-1,2.94-4.08,5.79-3.56,5.93-6.81S45.81,38.53,44.57,38.58Z"/><path class="cls-8" d="M25.33,33.94a6.47,6.47,0,0,1,3.61.2c-1.5-3.26-2-4.08-2.16-6.21a6.52,6.52,0,0,0-.86-2.9c3,1.06,5,1.37,5.11,1.19,0,0-.23,7.41,2.21,10.67.11.14.79,1.22.59,1.41s-1.46-1.3-3.41-2a8,8,0,0,0-5.5.13,10.29,10.29,0,0,0-4.36,3.85C20.68,39.8,22.21,34.7,25.33,33.94Z"/><path class="cls-9" d="M111.84,110.55a116.25,116.25,0,0,1-23.32-9.64C77,95.81,76.3,95.8,73.5,93.74,66.28,88,57.34,79.58,50.38,73c-.26-.25-20-19.61-19.78-19.86,7.52,4.11,17.31-3.26,17.11-10.6a16.8,16.8,0,0,0-.5-3.26h0q22.15,18,45.34,35.35c31.11,9.3,32.53,6.85,44.11,7.3,2.93.12,5.64,1.89,7.27,2A108,108,0,0,1,111.84,110.55Z"/><path class="cls-10" d="M38.61,58.07a1.87,1.87,0,0,1,3.55-1.19A1.87,1.87,0,0,1,38.61,58.07Z"/><path class="cls-11" d="M38.16,61.48c.41.37.8.74,1.2,1.12h0C38.94,62.21,38.53,61.84,38.16,61.48Z"/><path class="cls-12" d="M127.81,100.1c-.22.16-2.88,18-3.1,18.16-1.95-.68-16.61-9-18.7-9.6a116.27,116.27,0,0,1-17.49-7.75s-12.44-5.45-12.44-5.49a36,36,0,0,1-4.65-3.27,5,5,0,0,0-.78-.66C46.67,70.9,25.49,47.87,30.6,53.17,42.53,66,50.34,69.36,59.13,75.92a129.48,129.48,0,0,0,10.56,7.8c6.66,4.27,8,5.78,10.45,5.81,5.36.08,9-4.88,10.5-3.65C93.71,88.34,77.42,96.73,127.81,100.1Z"/><path class="cls-13" d="M170.41,280c0,4.74-5.62,20.92-3.46,39.71,1.38,11.5,4,13.25,4.69,24.32,1,17.42-7.19,28.25-3.5,62.09a17,17,0,0,1-9.66,6.29,15.52,15.52,0,0,1-5.91.29,19.65,19.65,0,0,1-13.16-8.47c5.18-35.2,2.88-76.32-11-110.17a189,189,0,0,1-5.77-31.52l0,0v-.19c-1.42-12.82-1-30.55.14-39.52,9.47-8.56,27.92-11.64,48.7-5.39a25.75,25.75,0,0,1,2.51,6.05c0,.05,0,.05,0,.1C177.74,237.81,172.9,265.5,170.41,280Z"/><path class="cls-14" d="M170.41,280c-9.47,43.68-.1,45.67,1,64,1,17-7.1,28.44-3.45,62.09a17.31,17.31,0,0,1-9.47,6.29,15.52,15.52,0,0,1-5.91.29,19.74,19.74,0,0,1-13.35-8.47c.24-2.09.29-2.89.62-5,0,0,.09,0,.14.09H140c4.26,3.65,18.4,10,17.93-6.86-.42-17.13,5.54-17.65,4.17-38-1.52-22.19-5.21-21.62-7.67-40.17a151.64,151.64,0,0,1-1.14-16.8c0-8.95,1.23-9.33.48-13.4-.67-3.69-5.92-8.09-12.59-9.84a36,36,0,0,1-18.55-11.69l0,0c0-.14-.85-9.08-.85-13.49a199.34,199.34,0,0,1,.95-26.17c7-7,25.17-12.53,48.74-5.44.05,0,.05,0,.09,0a30.35,30.35,0,0,1,2.42,6c0,.05,0,.05,0,.1C177.78,237.48,172.9,265.52,170.41,280Z"/><path class="cls-15" d="M250.05,441.77a27.31,27.31,0,0,1-21.77,1.66,5.16,5.16,0,0,1-3.26-3.27.14.14,0,0,1-.05-.09c-1.58-4.73-4.81-38-22-78.13-2.64-6.34-5.3-12.07-6.9-14.53-2.32-3.55-6.72-12.92-11.93-23-7-13.39-9.75-15.76-17.32-34.59-9-22.27-9.16-26.31-10.74-31a4.94,4.94,0,0,0-1.18-2.32s0,0,0-.1c3.74-13.53,21.81-37.05,39.89-40.36a54,54,0,0,1,5,6.34c11.59,16.09,10.74,22.67,10.22,39a47.88,47.88,0,0,0,.1,7.38c.49,3.46,2.77,8.09,3.92,11.54v.05c1.55,4.73,4.06,11.32,5.49,16.8,4.78,18,2.46,6.29,5.92,31.23,3.74,26.5,8.37,16.9,18,49.36,3.93,13.16.61,16,3,33.32a127.67,127.67,0,0,0,6,24.65A5,5,0,0,1,250.05,441.77Z"/><path class="cls-16" d="M250.05,441.77a27.31,27.31,0,0,1-21.77,1.66,5.16,5.16,0,0,1-3.26-3.27.14.14,0,0,1-.05-.09c-.06-.18-.57-2.87-.57-2.93,4.5,2.69,13.73,4.35,20.4.56,7.29-4.16-1.42-14.95-4.55-30.24S242,396,234,372.78,221.47,354,218.72,344s-11.78-29.2-17.36-47.61c-3.32-11.07-2.89-10.08-3.46-11-8.9-15.19-30.43-14.29-39.51-18.5-.16-.53-2.45-8.55-2.61-8.94a2.83,2.83,0,0,0-.89-1.47s0,0,0-.1c3.74-13.53,21.81-37.05,39.89-40.36a54,54,0,0,1,5,6.34c12.73,17.67,10.22,24.14,10.22,39-.85,9.53,1.41,11.05,4,18.88v.05c1.55,4.73,4.06,11.32,5.49,16.8,4.78,18,2.46,6.29,5.92,31.23,3.74,26.5,8.37,16.9,18,49.36,3.93,13.16.61,16,3,33.32a127.67,127.67,0,0,0,6,24.65A5,5,0,0,1,250.05,441.77Z"/><path class="cls-17" d="M202.27,186.14c-1.59,4.46-3.79,9.13-3.79,14.88,0,9.27,8.89,26.83,11.86,37.68,2.35,8.79.92,18,.92,19.76,0,.51-2.12,1-2.65,1.12-23.92,5.77-40.11,8.25-63.84.64a5,5,0,0,1-2.32-1.59c-1.06-1.37-1.87-2.2-2.76-3.54a37.32,37.32,0,0,0-3.24-4.11c-1.64,2.84-6.35,5.82-9.38,4.39-3.46-1.65-7.59-4.19-7.9-6.59-.5-3.94,1.9-57.09,2.91-69a154.55,154.55,0,0,0-2.43-42.26c-.84-3.36-2.65-28,1.14-39.33a33.46,33.46,0,0,1,9.12-14.15c2.81-2.34,7.55-4.39,39.59,3.12,15,1.91,37.46,10.44,47.51,22,.31.36.53,2.46.45,5.92-.11,9.4-2.07,28.83-8.63,49.68-5.22,16.59-6.53,21.3-6.53,21.3Z"/><path class="cls-18" d="M146.19,207.82a3.24,3.24,0,1,1-3.21-3.69A3.48,3.48,0,0,1,146.19,207.82Z"/><path class="cls-19" d="M146.19,224.45a3.24,3.24,0,1,1-3.21-3.7A3.47,3.47,0,0,1,146.19,224.45Z"/><path class="cls-20" d="M210.34,238.7c2.35,8.79.92,18,.92,19.76a.22.22,0,0,1,0,.14c-.14,1-2.09.84-2.62,1-9.62,2-14.38,3.54-24.37,4.83a.67.67,0,0,0,.14-.11c10.87-7.23,9.21-22.3-5.64-24.68,10.08-1.62,12.9-4.07,13.37-6.14s-1.59-3.71-3.65-10.5c-.31-1-.45-1.81-.73-2.65-.22-.67-6.09-1.5-14-2a26,26,0,0,0,9.4-6.2c8.67-9.12,6.29-21.29,7.5-60.11.22-7.19,3.77-38.51,14.66-42.8a10.55,10.55,0,0,1,6-.58c1.56.44,2.59,1.42,4,2.27a45.17,45.17,0,0,1,2.21,4.22c-.34,28.41-10.49,54.71-13.65,65.73-.07.2-1.45,5-1.51,5.25a.1.1,0,0,1,0,.06c-3.05,10.47-4.39,14.86-3,20.93C202.16,218,207.94,229.94,210.34,238.7Z"/><path class="cls-21" d="M165.31,219.32c-.09.43.82,12,5.79,17.32,3.89,4.16,9.2,3.49,14.22,2.79,4.41-.61,8.45-1.18,10.5-5.1,3.28-6.26-1.42-15.48-1.73-16.08C175.7,219.4,174.13,218.21,165.31,219.32Z"/><path class="cls-22" d="M171.28,234.46c3.92,4.2,9.3,3.43,14.21,2.79,4.43-.62,8.46-1.18,10.52-5.11,3.27-6.26-1.42-15.48-1.75-16.08-18.26,1.14-20.57,2.22-28.95,3.26C165.22,219.75,166.31,229.12,171.28,234.46Z"/><path class="cls-23" d="M185.12,68.33c-5.64,7.12-7,12.75-7.18,16.64-.32,7.51-1.42,7.2-12.13,10-6.48,1.71-7,2.18-8.85,1.84-4-.74-6.5-4-7.61-5.69-1.64-5.94-.15-14.32,4.91-11.76,9.41,2.43,14.3.67,17.07-1.42C173.5,76.34,177.05,71.89,185.12,68.33Z"/><path class="cls-5" d="M144.56,73.84c2.52,13.79,22.46,13.53,32.92,2.62,2.24-2.48,4.89-4.89,6.58-5.56a9.66,9.66,0,0,0,2.61-1.27c2.31-1.68,3-7.59,3.1-10.31.35-.73,5.55-15-2.31-25.25-5.6-7.39-18.07-11-26.84-8.51C148.37,29,146.47,37.92,145.3,44,143.89,52.65,142.43,62.2,144.56,73.84Z"/><path class="cls-24" d="M145,44.55c1.07-.22,4.08-3,8.28-2.14s4.81,7.69,11.66,8.17c5.18.36,9-1.31,10.46.84.65.93.14,1.75-.13,4.57-.53,5.59,2.79,10.17-2.52,17.18-3.83,5-10.59,5.7-11.42,5.77-4.27,3.25-2.94,4,1.57,2.76,16.77-4.79,14.18-5.44,20.18-29.44,0,0,2.41-9-3.72-12.62s-30-2.16-30-2.16Z"/><path class="cls-25" d="M189.28,65.67l-.07.26a7.43,7.43,0,0,1-2.08,3.74c-2.44,1.91-2.7-.22-9.24,6.8,4.6-9.82,2.48-6,2.4-9.56,1.92-.53.34-6.74,3.56-9.83,1.94-1.73,4-1.88,4.76-1.45C191.12,57,190,62.9,189.28,65.67Z"/><path class="cls-1" d="M171.21,76.29a16.07,16.07,0,0,1-4.62,2.6,15.85,15.85,0,0,1-4.76.77c1.92-8.87-7.92-14.66-13.39-11.24-2.63,1.64-2.82,6-2.89,6.49a54.3,54.3,0,0,1-1.87-9.63c-.11,6.81.42,4.64.89,9.5s-.19,6.8,4.09,9.09c6.3,3.37,18.76,2.4,26.39-4.87,1.09-1,5.73-5.46,5.83-10a46.59,46.59,0,0,1,.6-6.91c.34-2.19.49-2.21.36-2.64,0,0,.16-.26-2.76,5.17a13.59,13.59,0,0,1-1,4.08C176.63,72.33,173.89,74.33,171.21,76.29Z"/><path class="cls-5" d="M148,72.12c1-4.73,10.58-2,10.14,1.7C158,75,156.28,76.69,155,76.39c-1.13-.25-1.21-1.83-2.38-2s-1.74,1.27-2.8,1.1S147.76,73.26,148,72.12Z"/><path class="cls-3" d="M192.12,55.44c-.62,2.54-1.91,7.87-2.85,10.32l0,0c.69-2.48,1.63-7.48.07-9.54A.69.69,0,0,0,189,56c-.55-.74-2.11-.56-2.92-.25a7.31,7.31,0,0,0-2.26,1.36c-3.2,3.09-1.64,9.32-3.56,9.83a1.16,1.16,0,0,1-1-.2c-.75-.69-.14-3,.07-8.3a17,17,0,0,0-1.7-8.5,2.06,2.06,0,0,0-2.29-1A19.94,19.94,0,0,1,164,48.13c-5.15-1.9-6.29-7.67-10.3-7.83-2.77-.13-7.19,2.4-8.71,4.25A10.17,10.17,0,0,1,135.14,34c11.88,3,9.46-8.5,17.8-12.52,0,0,0,0,.07,0,4.33-2.14,8.42-1.84,10.48-2.14,9-1.33,22.17,4.22,27.11,15.1a.15.15,0,0,1,0,.07C194.79,44.31,193.35,49.56,192.12,55.44Z"/><path class="cls-1" d="M191.29,58.66c-.15.63-1.56,6.72-2.06,7.13.6-2.17,1.66-8,.07-9.54A.69.69,0,0,0,189,56c-.55-.74-2.11-.56-2.92-.25a5.57,5.57,0,0,0-2.26,1.36C182.35,58.6,182,61,181.78,63a8.2,8.2,0,0,1-.78,3.31c-1.11,2-2.09,2.17-2.1-.12,3.41-8.55,1.35-11.22,3.11-16.09,2-5.53,8.15-4.48-.66-15.31-3.95-4.83-6-7.41-9.9-9.68A29.49,29.49,0,0,0,153,21.49c4.33-2.14,8.42-1.84,10.48-2.14,9-1.33,22.17,4.22,27.11,15.1a.15.15,0,0,1,0,.07C195.14,45.12,193.25,50.93,191.29,58.66Z"/><path class="cls-26" d="M181.58,97.13c-.57,4.47-2.34,5.67-5.34,10.91-9,15.71,3.19,3.75-39.19,54-1.75-44.1-.88-57,3.74-73.27,3.45.42,6.86,1.56,9.08,4,.65.7.75,1.33,1.63,2.29,4.51,4.93,16,6,21.28,1.66a39.8,39.8,0,0,0,5.08-4.92c1-1.36,1.84-2.4,2.51-2.24C182.09,90.09,181.76,95.49,181.58,97.13Z"/><path class="cls-27" d="M180.94,104.16c-1.48,1.92-5,4.16-7.18,5.4a39.37,39.37,0,0,1-9.15,4.54c-.17,0-2.65-3.56-3.07-4-1.91,1.52-4,3.17-5.3,4.18-.15,2.62-.89,14.47-1.63,26.8-4.42,5.41-10.14,12.24-17.56,21.05-.22-5.38-.39-10.3-.53-14.83a170.07,170.07,0,0,1,13.64-35.42c-.21-1.91-.43-3.82-.64-5.73-2.05,1.13-5,2.78-7.74,4.34A18.55,18.55,0,0,1,139.7,94,32.64,32.64,0,0,1,143,88.39c8.13,12.81,25.8,13.24,32.23,7.89,1.67-1.39,3.42-3.73,6.44-3.87.43,0,3.34-.45,3.49,1C185.36,95.48,184.05,100.14,180.94,104.16Z"/><path class="cls-28" d="M163.48,106.75s-9.42,7.46-9.44,7.48-1,15-1.76,27.9c-8.67,13.09,3.55-5.26-12.55,18.88a188,188,0,0,1-2.93-22.4A171.43,171.43,0,0,1,148,111.83c-.36-3.15-.76-6.6-1.19-10l9.8-4.28A22.1,22.1,0,0,1,163.48,106.75Z"/><path class="cls-29" d="M158.49,98.1a13.49,13.49,0,0,1-3.58-.59s1.78,2.81,2.43,4a5.38,5.38,0,0,1-1.71,7c-2.13,1.45-4.19,2.87-4.48,3.15l-3.18.16-1.17,2.27a5.43,5.43,0,0,1,3.4,5.5c-.47,5.81-1.32,16.71-1.67,24.19-2.25,3.38-8.13,13-8.13,13l-3.6-18.19a188,188,0,0,0,2.93,22.4c6.51-9.76,5.06-7.51,12.55-18.88.78-12.89,1.76-27.9,1.76-27.9l9.44-7.48A46.35,46.35,0,0,0,158.49,98.1Z"/><path class="cls-26" d="M181.39,98.23v0c-2.19,5.15-7.88,9.81-15.07,12.42-2.5-3.18-7.33-9.43-9.35-12.07A23.21,23.21,0,0,0,142.9,107a18.92,18.92,0,0,1-2.81-13.77s0,0,0,0a16.83,16.83,0,0,1,.7-2.61c0-.08,0-.11.07-.15a12.9,12.9,0,0,1,6.23-7.54,6.88,6.88,0,0,0,1.58,1l.27.15a11.39,11.39,0,0,0,0,4.58c1.61,5.84,7.57,8.07,8.27,8.31,7.8-1.2,20.72-4.7,20.72-11.93C181.94,88.56,183.52,93.16,181.39,98.23Z"/><path class="cls-30" d="M183.74,112.11c-2,1.35-4.15,2.73-6.31,4.12.62,2.5,1.19,5,1.81,7.42A104.67,104.67,0,0,0,150.36,153c-15,23.53-14.34,43.68-13.11,93.67-2-9.11-1.69-31.11-1.85-56.06.31-19.77-.92-25.69-.92-28.92-1.27-11.46-6.27-30.23-5.15-54.72l5.46-2.23c-.93-1.92-4.35-8.69-4.35-8.69.35-.62,5.39-9.08,10.42-12.38a11.89,11.89,0,0,1,5.08-1.93,5.94,5.94,0,0,0,1.46,1.35,19.49,19.49,0,0,0-6.54,7.31c-.08,0-.07.07-.07.15-3.95,7.57-7,40.5-1,70.45.66-1,2.58-3.95,3.3-5,0,0,0-.08,0-.08s3.21-4.9,3.35-5,0-.08,0-.11,2.56-3.87,2.69-4,3.39-5.14,3.54-5.43v0c15.31-23.36,17-27.89,25.07-35.15a17.07,17.07,0,0,0,3.61-8,12.34,12.34,0,0,0,.19-1.34A17.17,17.17,0,0,0,177.93,85v0C192.43,88.19,193.54,102.77,183.74,112.11Z"/><path class="cls-1" d="M221.33,350.61c20.28-11.28,41.65-24.2,63-38.34.59-36.41.45-28,.6-37.82,0,0-1.67-4.63-9.21-3.18-10.88,2.1-12.41,7.91-35.59,12.42-5.68,1.1-10.11-1-14.08,1.26s-1.94,9.79-1.36,13.71,0,4.61-1,15.76C223,321.45,222.15,332.56,221.33,350.61Z"/><path class="cls-3" d="M221.71,350.5c-15.07-8.26-13.66-8.87-14.26-11.45h0l.2-51.86c7.95-12.84,20-.5,19,10.48C226,305.1,221.71,350.5,221.71,350.5Z"/><path class="cls-2" d="M208,286.76c.2.35,2.15-1.45,5.22-1.72,4-.33,8.38,2.28,10.42,5.9,1.61,2.75,2.3,4.53,2.82,29.73q11.91-.39,23.82-.8c.13,1.79.28,3.57.41,5.35l3.1,1c2.91-1.85,5.82-3.68,8.74-5.52.53-3.68.2-2,1.68-7.68q10.24-12,20.49-24.07l.12-7.08-7.49-.75c-2.44.58-34.51,7-46.54,4.9-11-1.87-11.58-6.85-19.26-2.49C209.47,284.71,207.8,286.42,208,286.76Z"/><path class="cls-31" d="M262.49,309.37s.88,10.25.57,11.07-7.25,4.6-7.25,4.6l-.41-12.89Z"/><polygon class="cls-32" points="252.01 311.64 252.27 324.2 255.81 325.04 255.56 311.16 252.01 311.64"/><path class="cls-3" d="M228,318.49c2.22-20.56-.2-28.88-7.57-32.73-6.69-3.79-12-.23-12.77,2.09-1.94-4.9,12.39-8,23.91-16.75,39.28-23.24,40.62-26,46.09-23.6,7.52,3.22,9.86,25.62,9.71,33.89-29,34.55-19.05,25.65-29.82,34.9C248.18,316.66,251.81,316.48,228,318.49Z"/><path class="cls-1" d="M257.92,251.93c3.65.86,6.59,3.43,7.15,7.29a3.7,3.7,0,0,1-5.9,2.64l.12-3.82C255.78,257.76,255.21,253.75,257.92,251.93Z"/><path class="cls-5" d="M261.63,259.44c-.82,3.41-2.77,2.92-5.53,4.95-1.57,1.15-1.38,1.34-2.31,1.86-1.75,1-2.67-.21-4.94.6-1.62.57-1.48,1.32-3.33,1.83a8.77,8.77,0,0,1-3,.21c-1.09,0-2.5-2.83-2.95-3.83a74.33,74.33,0,0,1-2-9c.81-12,.56-14.72,1.21-16.32,2.28-4.22,6.85-3.92,11.57-4.71,3.82-.61,5.06,1.8,5.06,1.8.8.86.81-.69,1.61.17C259.5,241.83,263.09,253.08,261.63,259.44Z"/><path class="cls-33" d="M261.63,259.44c-.82,3.41-2.77,2.92-5.53,4.95-1.57,1.15-1.38,1.34-2.31,1.86-1.75,1-2.67-.21-4.94.6-1.62.57-1.48,1.32-3.33,1.83a8.76,8.76,0,0,1-3,.21c-1.09,0-2.5-2.83-2.95-3.83a21.47,21.47,0,0,0-2.43-7.51c-.55-5.79-.51-12.49,1.64-17.85a.77.77,0,0,1,.16-.31c1.67-3.38,8.49-3.91,11.41-4.4,3.82-.61,4.51-.34,4.51-.34l2.56,3.24a17.67,17.67,0,0,1-3.86,4.49c-5.28,4.35-12,4.49-12,6.46a7.29,7.29,0,0,0,1.5,2.44c1.92,2.43,2.13,4.13,2.81,5.27C248.43,260.82,258.69,258.32,261.63,259.44Z"/><path class="cls-1" d="M240,256.51c-2.29-.05-5.14,5-5.14,5a47,47,0,0,0-4.6,12.54c1.93,3.15,5.55,2.84,7.95.4s.3-4.72,2.62-9.77c1.11-2.41,2.3-3.44,1.92-5.23C242.48,258.07,241.3,256.54,240,256.51Z"/><path class="cls-34" d="M240.19,231.39a43.69,43.69,0,0,1,20,2.24l.21,3.3c-.59,1.12-1.18,2.24-1.78,3.35-6.49-2.9-11.14-2.59-13.19-2.29s-6.26,1.27-6.09,1.26A10.31,10.31,0,0,1,240.19,231.39Z"/><path class="cls-34" d="M251.43,229.48a6.12,6.12,0,1,1-7.74,3.87A6.11,6.11,0,0,1,251.43,229.48Z"/><path class="cls-7" d="M253.14,236.5a3.84,3.84,0,1,1-2.43-4.86A3.85,3.85,0,0,1,253.14,236.5Z"/><path class="cls-26" d="M260.44,236.55l3.13-9.4c-2.85-2.59-13.72-5.3-21.27-3.59a57.78,57.78,0,0,1-2.12,8C246.3,230.73,252.23,231.2,260.44,236.55Z"/><path class="cls-27" d="M241.67,225.55a68.64,68.64,0,0,0,10.45,3.25c3,.55,7.36,3.24,9.37,4.56.73-2.19,1.44-4.26,2.08-6.21-1.31-1.19-4.49-2.48-8.3-3.3C248.93,224.49,241.67,225.55,241.67,225.55Z"/><path class="cls-34" d="M257.13,231.75a2.07,2.07,0,0,0,.26-4.14A2.07,2.07,0,0,0,257.13,231.75Z"/><path class="cls-35" d="M264.32,230.32c-5.26-4.93-15.2-5.92-22.41-4.69h0v0a12.53,12.53,0,0,0-1.53.28c5.27-19-.06-34.14,1.14-55.36a6.53,6.53,0,0,0-3.32-6c-9.67-5.57-39.12-28.34-44.36-34.5a4.76,4.76,0,0,1-1.09-1.68C189.9,116.51,200.19,99.52,210,103c.28.08,27.9,21.85,30.41,24.64,16.11,17.84,25,21.23,26.16,35.76A291.22,291.22,0,0,1,264.32,230.32Z"/><path class="cls-36" d="M267.48,182.36a287.5,287.5,0,0,1-3.16,48c-4.44-4.17-12.19-5.42-18.31-5.14,8.13-3.53,15-11.43,17.36-22.8,4.19-20.63.77-48.33.77-48.33C266.21,157.93,267,161.78,267.48,182.36Z"/></svg>