<svg id="Layer_1" data-name="Layer 1" xmlns="http://www.w3.org/2000/svg" xmlns:xlink="http://www.w3.org/1999/xlink" viewBox="0 0 665.78 599.75"><defs><style>.cls-1,.cls-14,.cls-15,.cls-16,.cls-21,.cls-22,.cls-23,.cls-24,.cls-25{fill:none;}.cls-2{clip-path:url(#clip-path);}.cls-3{fill:url(#radial-gradient);}.cls-4{clip-path:url(#clip-path-2);}.cls-5{fill:url(#radial-gradient-2);}.cls-6{clip-path:url(#clip-path-3);}.cls-7{fill:url(#radial-gradient-3);}.cls-8{clip-path:url(#clip-path-4);}.cls-9{fill:url(#radial-gradient-4);}.cls-10{clip-path:url(#clip-path-5);}.cls-11{fill:#7b6ce6;}.cls-12{fill:#00a8f0;}.cls-13{fill:#2dd687;}.cls-14,.cls-22{stroke:#fcc200;}.cls-14,.cls-15,.cls-16,.cls-21,.cls-22,.cls-23,.cls-24,.cls-25{stroke-miterlimit:10;}.cls-15{stroke:#00a8f0;}.cls-16,.cls-24{stroke:#2dd687;}.cls-17,.cls-18,.cls-19,.cls-20,.cls-27,.cls-28,.cls-29,.cls-30,.cls-31,.cls-32,.cls-33,.cls-34,.cls-35,.cls-36,.cls-37,.cls-38,.cls-39,.cls-40{fill:#fff;}.cls-18{font-size:13px;}.cls-18,.cls-19,.cls-20,.cls-27,.cls-28,.cls-29,.cls-30,.cls-31,.cls-32,.cls-33,.cls-34,.cls-35,.cls-36,.cls-37,.cls-38,.cls-39,.cls-40{font-family:Campton-Bold, Campton;font-weight:700;}.cls-19{font-size:13px;}.cls-20{font-size:13px;}.cls-21,.cls-25{stroke:#7b6ce6;}.cls-22,.cls-23,.cls-24,.cls-25{stroke-width:0.25px;}.cls-23{stroke:#40bef4;}.cls-26{fill:#fcc200;}.cls-27{font-size:13px;}.cls-28{font-size:13px;}.cls-29{font-size:13px;}.cls-30{font-size:13px;}.cls-31{font-size:13px;}.cls-32{font-size:13px;}.cls-33{font-size:13px;}.cls-34{font-size:13px;}.cls-35{font-size:13px;}.cls-36{font-size:13px;}.cls-37{font-size:13px;}.cls-38{font-size:13px;}.cls-39{font-size:13px;}.cls-40{font-size:12px;}.cls-41{letter-spacing:-0.01em;}.cls-42{letter-spacing:0.01em;}</style><clipPath id="clip-path"><path class="cls-1" d="M127.1,268.19H345.88V2.19C214.81,18.88,120,134.12,127.1,268.19"/></clipPath><radialGradient id="radial-gradient" cx="-57" cy="657.97" r="1" gradientTransform="matrix(0, -266.27, -219.13, 0, 144529.29, -14909.79)" gradientUnits="userSpaceOnUse"><stop offset="0" stop-color="#fcda00"/><stop offset="0.41" stop-color="#fde75c"/><stop offset="1" stop-color="#fffbe5"/></radialGradient><clipPath id="clip-path-2"><path class="cls-1" d="M345.88,268.19V599.75c6.27,0,15.76-.14,22.09-.48,173.64-9.16,307-157.35,297.82-331a.28.28,0,0,1,0-.09Z"/></clipPath><radialGradient id="radial-gradient-2" cx="-57" cy="657.97" r="1" gradientTransform="matrix(0, 331.43, 322.21, 0, -211663.66, 19159.38)" gradientUnits="userSpaceOnUse"><stop offset="0" stop-color="#00a8f0"/><stop offset="0.41" stop-color="#5cc7f5"/><stop offset="1" stop-color="#e5f6fd"/></radialGradient><clipPath id="clip-path-3"><path class="cls-1" d="M0,268.19c9.85,186.7,161.11,331.47,345.88,331.56V268.19Z"/></clipPath><radialGradient id="radial-gradient-3" cx="-57" cy="657.97" r="1" gradientTransform="matrix(-345.59, 0, 0, 331.88, -19354.93, -218101.34)" gradientUnits="userSpaceOnUse"><stop offset="0" stop-color="#00d9b5"/><stop offset="0.41" stop-color="#5ce7d0"/><stop offset="1" stop-color="#e5fbf8"/></radialGradient><clipPath id="clip-path-4"><path class="cls-1" d="M368.06.4c-6.41.34-15.91,1-22.18,1.79v266h319.9C657.76,117.14,532.74,0,383.22,0c-5,0-10.07.13-15.16.4"/></clipPath><radialGradient id="radial-gradient-4" cx="-57" cy="657.97" r="1" gradientTransform="matrix(320.35, 0.07, 0.06, -264.9, 18568.61, 174566.19)" gradientUnits="userSpaceOnUse"><stop offset="0" stop-color="#7b6ce6"/><stop offset="0.7" stop-color="#cdc7f6"/><stop offset="1" stop-color="#f2f0fd"/></radialGradient><clipPath id="clip-path-5"><rect class="cls-1" x="-57" y="-72.76" width="1063.48" height="730.73"/></clipPath></defs><title>pineMapMoreEmpty</title><g class="cls-2"><rect class="cls-3" x="120.03" y="2.19" width="225.85" height="266"/></g><g class="cls-4"><rect class="cls-5" x="345.65" y="267.96" width="329.54" height="332.03" transform="translate(-0.62 0.73) rotate(-0.08)"/></g><g class="cls-6"><rect class="cls-7" y="268.19" width="345.88" height="331.56"/></g><g class="cls-8"><rect class="cls-9" x="345.85" y="-0.03" width="319.95" height="268.26"/></g><g class="cls-10"><path class="cls-11" d="M452.51,262.56A106.78,106.78,0,0,0,345.88,161.42V268.19H452.66c0-1.87-.05-3.74-.15-5.63"/><path class="cls-12" d="M345.88,375c1.87,0,3.74,0,5.63-.14A106.79,106.79,0,0,0,452.66,268.19H345.88Z"/><path class="cls-13" d="M239.11,268.19c0,1.87,0,3.74.15,5.63A106.76,106.76,0,0,0,345.88,375V268.19Z"/><path class="cls-14" d="M345.88,112.68A148.9,148.9,0,0,0,216.11,268.19"/><path class="cls-15" d="M345.88,462c3.67,0,7.35-.08,11.06-.28,101.51-5.36,179.46-92,174.11-193.51a.11.11,0,0,0,0-.05"/><path class="cls-16" d="M141.81,268.19C147.57,377.34,237.86,462,345.88,462"/><path class="cls-17" d="M264.81,268.19a81.08,81.08,0,1,1,81.07,81.07,81.08,81.08,0,0,1-81.07-81.07"/></g><text class="cls-18" transform="translate(387.4 191.31) rotate(31.13)">S</text><text class="cls-19" transform="translate(394.72 195.82) rotate(35.1)">I</text><text class="cls-20" transform="matrix(0.78, 0.63, -0.63, 0.78, 397.66, 197.79)">T</text><g class="cls-10"><path class="cls-21" d="M531,268.19A165.56,165.56,0,0,0,357,111.63c-3.75.2-7.44.58-11.11,1.05"/><path class="cls-22" d="M345.88,20.08C223.63,35.64,135.22,143.13,141.81,268.19"/><path class="cls-23" d="M345.88,577.45c5.85,0,14.7-.13,20.61-.44,162-8.55,286.33-146.77,277.78-308.73a.28.28,0,0,0,0-.09"/><path class="cls-24" d="M23.26,268.19c9.19,174.15,150.27,309.18,322.62,309.26"/><path class="cls-25" d="M644.27,268.19c-7.74-145.64-132-257.47-277.7-249.78-6,.32-14.84.92-20.69,1.67"/><rect class="cls-11" x="243.08" y="254.73" width="3.8" height="0.46" transform="translate(-107.8 278.63) rotate(-49.98)"/><rect class="cls-11" x="242.83" y="257.69" width="5.21" height="0.46" transform="translate(-109.91 280.03) rotate(-49.98)"/><rect class="cls-11" x="255.35" y="253.7" width="0.46" height="2.9" transform="translate(-105.56 256.24) rotate(-45.13)"/><rect class="cls-11" x="255.96" y="257.94" width="4.39" height="0.46" transform="translate(-106.94 257.57) rotate(-44.91)"/><rect class="cls-11" x="255.35" y="253.7" width="0.46" height="2.9" transform="translate(-105.56 256.24) rotate(-45.13)"/><rect class="cls-11" x="256.18" y="254.92" width="2.9" height="0.46" transform="translate(-104.96 256.32) rotate(-44.91)"/><rect class="cls-11" x="255.96" y="257.94" width="4.39" height="0.46" transform="translate(-106.94 257.57) rotate(-44.91)"/><rect class="cls-11" x="254.82" y="255.97" width="0.46" height="4.39" transform="translate(-107.85 256.72) rotate(-45.12)"/><path class="cls-26" d="M345.88,187.11V161.42c-1.86,0-3.74,0-5.62.14A106.78,106.78,0,0,0,239.11,268.19h25.7a81.08,81.08,0,0,1,81.07-81.08"/></g><text class="cls-27" transform="matrix(0.21, -0.98, 0.98, 0.21, 258.78, 254.65)">C</text><text class="cls-28" transform="translate(260.9 245.01) rotate(-72.37)">e</text><text class="cls-29" transform="matrix(0.38, -0.92, 0.92, 0.38, 263.04, 238.2)">n</text><text class="cls-30" transform="translate(265.97 231.17) rotate(-63.16)">t</text><text class="cls-31" transform="translate(268.67 225.85) rotate(-59.54)">r</text><text class="cls-18" transform="translate(271.25 221.36) rotate(-55.36)">u</text><text class="cls-32" transform="matrix(0.65, -0.76, 0.76, 0.65, 275.51, 214.99)">m</text><text class="cls-33" transform="matrix(0.71, -0.7, 0.7, 0.71, 283.26, 206.29)"> </text><text class="cls-34" transform="matrix(0.75, -0.66, 0.66, 0.75, 285.56, 204.01)">r</text><text class="cls-32" transform="translate(289.24 200.66) rotate(-37.63)">o</text><text class="cls-35" transform="matrix(0.84, -0.54, 0.54, 0.84, 295.22, 196.03)">b</text><text class="cls-36" transform="translate(301.87 191.77) rotate(-27.6)">o</text><text class="cls-37" transform="translate(308.65 188.25) rotate(-23.17)">t</text><text class="cls-37" transform="matrix(0.94, -0.34, 0.34, 0.94, 314.16, 185.93)">i</text><text class="cls-38" transform="translate(317.71 184.57) rotate(-16.23)">k</text><text class="cls-39" transform="translate(324.74 182.49) rotate(-11.32)">y</text><text class="cls-40" transform="translate(295.03 341.87) rotate(-136.84)">BIC</text><text class="cls-40" transform="translate(424.86 311.26) rotate(133.16)">BIC <tspan class="cls-41" x="24.19" y="0">Po</tspan><tspan class="cls-42" x="38.88" y="0">r</tspan><tspan x="43.88" y="0">t</tspan></text></svg>