<?xml version="1.0" encoding="utf-8"?>
<!-- Generator: Adobe Illustrator 23.0.3, SVG Export Plug-In . SVG Version: 6.00 Build 0)  -->
<svg version="1.1" id="Layer_1" xmlns="http://www.w3.org/2000/svg" xmlns:xlink="http://www.w3.org/1999/xlink" x="0px" y="0px"
	 viewBox="0 0 542.1 273" style="enable-background:new 0 0 542.1 273;" xml:space="preserve">
<style type="text/css">
	.st0{fill:#27A74A;}
	.st1{fill-rule:evenodd;clip-rule:evenodd;fill:#FBD900;}
	.st2{fill-rule:evenodd;clip-rule:evenodd;fill:#57BD81;}
	.st3{fill:#1F8842;}
	.st4{fill:#57BD81;}
	.st5{fill:#A9DEED;}
	.st6{fill:#5196D1;}
	.st7{fill:#31A5DD;}
	.st8{fill-rule:evenodd;clip-rule:evenodd;fill:#31A5DD;}
	.st9{fill-rule:evenodd;clip-rule:evenodd;fill:#5196D1;}
	.st10{fill:#7773B6;}
	.st11{fill:#625CA9;}
	.st12{fill:#D5C9E3;}
	.st13{fill:#716BB1;}
	.st14{fill:#FAC212;}
	.st15{fill:#FEDC31;}
	.st16{fill:#E8A723;}
	.st17{fill:#FBD900;}
	.st18{fill-rule:evenodd;clip-rule:evenodd;fill:#FEDC31;}
	.st19{fill-rule:evenodd;clip-rule:evenodd;fill:#FAC212;}
	.st20{fill-rule:evenodd;clip-rule:evenodd;fill:#E8A723;}
</style>
<g id="cityBuilds">
	<g id="greenBuilds">
		<g id="phase3">
			<polygon class="st0" points="-601.1,20.6 -572.1,20.6 -550,-9.9 -579.1,-9.9 			"/>
			<polygon class="st0" points="-587,6.4 -558,6.4 -535.9,-24.1 -565,-24.1 			"/>
			<polygon class="st0" points="-587,-5.8 -558,-5.8 -535.9,-36.3 -565,-36.3 			"/>
			<polygon class="st1" points="-557.9,-5.6 -558,-5.6 -558,-5.7 			"/>
			<polygon class="st2" points="-543.2,20.5 -543.2,137.6 -601.1,137.6 -601.1,20.5 -587,6.4 -587,-5.6 -586.8,-5.8 -572.4,-19.8 
				-558.1,-5.8 -558,-5.7 -558,6.6 			"/>
			<polygon class="st2" points="-587,-5.8 -586.8,-5.8 -587,-5.6 			"/>
			<polygon class="st2" points="-558,-5.8 -558,-5.7 -558.1,-5.8 			"/>
			<rect x="-567.7" y="3.9" class="st0" width="3.1" height="6"/>
			<rect x="-580.2" y="3.9" class="st0" width="3.1" height="6"/>
			<rect x="-567.7" y="14.5" class="st0" width="3.1" height="6"/>
			<rect x="-580.2" y="14.5" class="st0" width="3.1" height="6"/>
			<rect x="-567.7" y="25.2" class="st0" width="3.1" height="6"/>
			<rect x="-580.2" y="25.2" class="st0" width="3.1" height="6"/>
			<rect x="-567.7" y="35.9" class="st0" width="3.1" height="6"/>
			<rect x="-580.2" y="35.9" class="st0" width="3.1" height="6"/>
			<rect x="-567.7" y="46.6" class="st0" width="3.1" height="6"/>
			<rect x="-580.2" y="46.6" class="st0" width="3.1" height="6"/>
			<rect x="-567.7" y="57.2" class="st0" width="3.1" height="6"/>
			<rect x="-580.2" y="57.2" class="st0" width="3.1" height="6"/>
			<rect x="-555.3" y="25.2" class="st0" width="3.1" height="6"/>
			<rect x="-555.3" y="35.9" class="st0" width="3.1" height="6"/>
			<rect x="-555.3" y="46.6" class="st0" width="3.1" height="6"/>
			<rect x="-555.3" y="57.2" class="st0" width="3.1" height="6"/>
			<rect x="-592.6" y="25.2" class="st0" width="3" height="6"/>
			<rect x="-592.6" y="35.9" class="st0" width="3" height="6"/>
			<rect x="-592.6" y="46.6" class="st0" width="3" height="6"/>
			<rect x="-592.6" y="57.2" class="st0" width="3" height="6"/>
			<polygon class="st0" points="-550.4,-50.3 -565,-36.3 -587,-5.8 -572.5,-19.8 			"/>
			<polygon class="st0" points="-535.8,-36.3 -550.4,-50.3 -572.5,-19.8 -558,-5.8 			"/>
			<polygon class="st3" points="-535.8,-36.3 -535.8,-24 -558,6.6 -558,-5.8 			"/>
			<polygon class="st0" points="-521.1,-9.9 -543.2,20.5 -558,6.6 -535.8,-24 			"/>
			<polygon class="st3" points="-521.1,107.1 -521.1,-9.9 -543.2,20.5 -543.2,137.6 			"/>
		</g>
		<g id="phase2">
			<g>
				<polygon class="st0" points="-378.3,36.8 -349.2,36.8 -327.2,6.3 -356.2,6.3 				"/>
				<polygon class="st0" points="-358.3,10.6 -316.8,10.6 -294.8,-19.8 -336.3,-19.8 				"/>
				<polygon class="st4" points="-358.5,36.8 -378.3,36.8 -378.3,148.2 -316.8,148.2 -316.8,10.6 -358.5,10.6 				"/>
				<rect x="-329.7" y="21.6" class="st0" width="5.7" height="7.6"/>
				<rect x="-343.7" y="21.6" class="st0" width="5.7" height="7.6"/>
				<rect x="-329.7" y="43.5" class="st0" width="5.7" height="7.6"/>
				<rect x="-343.7" y="43.5" class="st0" width="5.7" height="7.6"/>
				<rect x="-357.7" y="43.5" class="st0" width="5.7" height="7.6"/>
				<rect x="-371.7" y="43.5" class="st0" width="5.7" height="7.6"/>
				<rect x="-329.7" y="65.5" class="st0" width="5.7" height="7.6"/>
				<rect x="-343.7" y="65.5" class="st0" width="5.7" height="7.6"/>
				<rect x="-357.7" y="65.5" class="st0" width="5.7" height="7.6"/>
				<rect x="-371.7" y="65.5" class="st0" width="5.7" height="7.6"/>
				<polygon class="st3" points="-294.8,-19.8 -294.8,117.7 -316.8,148.2 -316.8,10.6 				"/>
			</g>
			<g>
				<g>
					<path class="st0" d="M-319.8,82c0,0-6.4,6.3-6.4,14.1s6.4,14.1,6.4,14.1s6.4-6.3,6.4-14.1S-319.8,82-319.8,82z"/>
					<rect x="-320.2" y="94.4" class="st3" width="0.8" height="31.5"/>
				</g>
				<g>
					<path class="st4" d="M-287.8,82c0,0-6.4,6.3-6.4,14.1s6.4,14.1,6.4,14.1s6.4-6.3,6.4-14.1S-287.8,82-287.8,82z"/>
					<rect x="-288.2" y="94.4" class="st3" width="0.8" height="31.5"/>
				</g>
				<g>
					<path class="st4" d="M-303.8,82c0,0-6.4,6.3-6.4,14.1s6.4,14.1,6.4,14.1s6.4-6.3,6.4-14.1S-303.8,82-303.8,82z"/>
					<rect x="-304.2" y="94.4" class="st3" width="0.8" height="31.5"/>
				</g>
			</g>
			<g>
				<g>
					<path class="st4" d="M-228.9,90.8c0,12.2,8.8,22.1,8.8,22.1s8.8-9.9,8.8-22.1s-8.8-22.1-8.8-22.1S-228.9,78.6-228.9,90.8
						L-228.9,90.8z"/>
					<rect x="-220.5" y="78.7" class="st3" width="0.8" height="41.5"/>
				</g>
				<g>
					<path class="st0" d="M-208,96.6c0,12.2,8.8,22.1,8.8,22.1s8.8-9.9,8.8-22.1s-8.8-22.1-8.8-22.1S-208,84.4-208,96.6z"/>
					<rect x="-199.6" y="92.7" class="st3" width="0.8" height="35.9"/>
					<polygon class="st3" points="-199.2,100.8 -202.2,97.8 -202.8,98.4 -199.2,102 -195.7,98.4 -196.3,97.8 					"/>
				</g>
				<g>
					<path class="st4" d="M-189,110.6c0,10.8,7.8,19.5,7.8,19.5s7.8-8.7,7.8-19.5s-7.8-19.5-7.8-19.5S-188.9,99.8-189,110.6
						L-189,110.6z"/>
					<rect x="-181.6" y="107.1" class="st3" width="0.8" height="28.4"/>
				</g>
			</g>
			<path class="st3" d="M-307.4,122.2c-6.9,2.1-7.9-0.8-16.5,0.4c-6.6,1-8.4,6.1-14.3,4.9c-6.2-1.2-14.3-4-23,0.6
				c-9.5,5.1-7.1,21.1-7.1,21.1l44.6,23.5l35.9-6.9l0.3-47.4C-297.4,112.6-302.6,120.7-307.4,122.2z"/>
			<g>
				<path class="st4" d="M-410.6,86.2c0,10.5,7.5,19,7.5,19s7.5-8.5,7.5-19s-7.5-19-7.5-19S-410.6,75.7-410.6,86.2z"/>
				<g>
					<path class="st0" d="M-424.4,83.1c0,10.5,7.5,19,7.5,19s7.5-8.5,7.5-19s-7.5-19-7.5-19S-424.4,72.6-424.4,83.1z"/>
					<rect x="-417.3" y="82.7" class="st3" width="0.8" height="46.8"/>
				</g>
				<g>
					<path class="st4" d="M-429.8,65.2c0,0-8.8,7.6-8.8,17s8.8,17,8.8,17s8.8-7.6,8.8-17S-429.8,65.2-429.8,65.2z"/>
					<rect x="-430.2" y="77.3" class="st3" width="0.8" height="48.1"/>
				</g>
			</g>
		</g>
		<g id="phase1">
			<path class="st0" d="M-400.4,100.6c-7.7-0.1-11.3,12.2-22.4,6.6c-13.7-7-17.7,6-25.9,1.1c-7.7-4.6-6.7-16.3-20.5-17.8
				c-6.6-0.7-9.3,2.3-16.1-0.5c-5.9-2.4-15.6,8.4-15.6,8.4v50.9l100.4-14C-400.4,135.3-390.5,100.7-400.4,100.6L-400.4,100.6z"/>
			<g>
				<polygon class="st0" points="-400.4,100.6 -378.9,100.6 -362.6,78 -384.1,78 				"/>
				<rect x="-400.4" y="100.6" class="st4" width="21.5" height="55.9"/>
				<polygon class="st3" points="-378.8,156.2 -362.6,156.2 -362.6,100.6 -362.6,78 -378.8,100.6 				"/>
				<rect x="-372" y="115.6" class="st0" width="2.5" height="9.4"/>
			</g>
			<path class="st4" d="M-184.7,135.5c-7.9-3.5-5.6-8.2-12.4-10.2c-8.2-2.4-12.1,5.6-16.1,1.6c-3.8-3.8-3-10.2-12.1-8.8V171h56.4
				v-32.9C-174.7,131.9-179.7,137.7-184.7,135.5L-184.7,135.5z"/>
			<g>
				<polygon class="st0" points="-275.7,102.7 -263.6,118.2 -225.3,118.2 -237.4,102.7 				"/>
				<polygon class="st4" points="-287.8,118.2 -287.8,167.2 -263.7,167.2 -263.7,118.2 -275.8,102.7 				"/>
				<rect x="-263.6" y="118.2" class="st3" width="38.3" height="49.2"/>
				<rect x="-254.2" y="125.4" class="st0" width="2.8" height="2.4"/>
				<rect x="-254.2" y="132.5" class="st0" width="2.8" height="2.4"/>
				<rect x="-245.8" y="125.4" class="st0" width="2.8" height="2.4"/>
				<rect x="-245.8" y="132.5" class="st0" width="2.8" height="2.4"/>
				<rect x="-237.4" y="125.4" class="st0" width="2.8" height="2.4"/>
				<rect x="-237.4" y="132.5" class="st0" width="2.8" height="2.4"/>
				<rect x="-254.2" y="139.5" class="st0" width="2.8" height="2.4"/>
				<rect x="-245.8" y="139.5" class="st0" width="2.8" height="2.4"/>
				<rect x="-237.4" y="139.5" class="st0" width="2.8" height="2.4"/>
				<rect x="-281.3" y="125.4" class="st0" width="2.8" height="2.4"/>
				<rect x="-281.3" y="132.5" class="st0" width="2.8" height="2.4"/>
				<rect x="-272.9" y="125.4" class="st0" width="2.8" height="2.4"/>
				<rect x="-272.9" y="132.5" class="st0" width="2.8" height="2.4"/>
				<rect x="-281.3" y="139.5" class="st0" width="2.8" height="2.4"/>
				<rect x="-272.9" y="139.5" class="st0" width="2.8" height="2.4"/>
			</g>
			<polygon class="st0" points="-536.9,170.2 -526,168.6 -500.8,168.6 -500.8,110.4 -536.9,110.4 			"/>
			<g>
				<polygon class="st0" points="-536.9,79.6 -516.3,79.6 -500.8,57 -521.3,57 				"/>
				<rect x="-536.9" y="79.6" class="st4" width="20.5" height="30.8"/>
				<polygon class="st3" points="-516.4,110.2 -500.7,110.2 -500.7,79.6 -500.7,57 -516.4,79.6 				"/>
				<rect x="-509.8" y="79.4" class="st0" width="2.4" height="9.4"/>
				<rect x="-509.8" y="94.5" class="st0" width="2.4" height="9.4"/>
			</g>
		</g>
	</g>
	<g id="blueBuilds">
		<g id="phase3-2">
			<g>
				<polygon class="st5" points="-609.6,140.4 -547.7,140.4 -536.9,110.4 -598.8,110.4 				"/>
				<polygon class="st6" points="-556.2,140.4 -552.4,140.4 -541.6,110.4 -545.4,110.4 				"/>
				<polygon class="st6" points="-605.1,140.4 -601.3,140.4 -590.5,110.4 -594.3,110.4 				"/>
				<polygon class="st6" points="-566,140.4 -562.2,140.4 -551.3,110.4 -555.2,110.4 				"/>
				<polygon class="st6" points="-575.8,140.4 -572,140.4 -561.1,110.4 -564.9,110.4 				"/>
				<polygon class="st6" points="-585.6,140.4 -581.7,140.4 -570.9,110.4 -574.7,110.4 				"/>
				<polygon class="st6" points="-595.3,140.4 -591.5,140.4 -580.7,110.4 -584.5,110.4 				"/>
				<polygon class="st6" points="-547.8,140.4 -547.8,200.1 -525.8,200.1 -525.8,140.4 -536.8,110.4 				"/>
				<rect x="-609.6" y="140.4" class="st7" width="61.9" height="59.4"/>
			</g>
			<polygon class="st7" points="-565,208.8 -469.1,208.8 -469.1,168.6 -526,168.6 			"/>
			<path class="st5" d="M-256.8,159.1c-11.1,3.4-12.8-1.3-26.7,0.6c-10.7,1.5-13.6,9.6-23.2,7.7c-10-1.9-23.1-6.3-37.2,1
				c-15.4,8.1-11.5,33.4-11.5,33.4l25.6,7.1h104.6v-57.4C-241.8,145.1-249.1,156.8-256.8,159.1z"/>
		</g>
		<g id="phase2-2">
			<g>
				<polygon class="st5" points="-353.2,128 -343.9,137.7 -314.4,137.7 -323.7,128 				"/>
				<polygon class="st7" points="-362.6,137.7 -362.6,168.7 -343.8,168.7 -343.8,137.7 -353.2,128 				"/>
				<rect x="-343.9" y="137.7" class="st6" width="29.5" height="30.8"/>
				<g>
					<rect x="-336.7" y="145.4" class="st5" width="2.2" height="2.2"/>
					<rect x="-336.7" y="152.1" class="st5" width="2.2" height="2.2"/>
					<rect x="-330.2" y="145.4" class="st5" width="2.2" height="2.2"/>
					<rect x="-330.2" y="152.1" class="st5" width="2.2" height="2.2"/>
					<rect x="-323.7" y="145.4" class="st5" width="2.2" height="2.2"/>
					<rect x="-323.7" y="152.1" class="st5" width="2.2" height="2.2"/>
					<rect x="-336.7" y="158.7" class="st5" width="2.2" height="2.2"/>
					<rect x="-330.2" y="158.7" class="st5" width="2.2" height="2.2"/>
					<rect x="-323.7" y="158.7" class="st5" width="2.2" height="2.2"/>
				</g>
			</g>
			<path class="st7" d="M-544.5,88.3c-1.4,0-2.7,0.4-3.9,1.1c-0.2-4.2-3.8-7.4-7.9-7.1c-3,0.2-5.6,2.1-6.7,4.9c-1.4-1.3-3.1-2-5-2
				c-3.9,0-7.2,3-7.5,6.9c-1.3-1-2.9-1.6-4.5-1.6c-4.2,0-7.6,3.5-7.6,7.7l0,0c0,0.1,0,0.1,0,0.2c-1-0.5-2.1-0.7-3.2-0.7
				c-4.1,0-7.5,3.4-7.6,7.5c-1.4-1.6-3.4-2.5-5.6-2.5c-4.2,0-7.6,3.5-7.6,7.7l0,0h74.7V96C-536.8,91.8-540.2,88.3-544.5,88.3
				L-544.5,88.3z"/>
			<g>
				<polygon class="st5" points="-500.8,110.4 -485,97.5 -485,77.7 -500.8,90.5 				"/>
				<polygon class="st6" points="-485,97.5 -469.1,110.4 -469.1,90.5 -485,77.7 				"/>
				<polygon class="st7" points="-500.7,110.4 -500.7,168.7 -469.1,168.6 -469.1,110.4 -485,97.5 				"/>
				<rect x="-475.3" y="118.5" class="st5" width="1.8" height="1.8"/>
				<rect x="-475.3" y="123.9" class="st5" width="1.8" height="1.8"/>
				<rect x="-475.3" y="129.3" class="st5" width="1.8" height="1.8"/>
				<rect x="-480.6" y="113.1" class="st5" width="1.8" height="1.8"/>
				<rect x="-480.6" y="118.5" class="st5" width="1.8" height="1.8"/>
				<rect x="-480.6" y="123.9" class="st5" width="1.8" height="1.8"/>
				<rect x="-480.6" y="129.3" class="st5" width="1.8" height="1.8"/>
				<rect x="-485.8" y="107.8" class="st5" width="1.8" height="1.8"/>
				<rect x="-485.8" y="113.1" class="st5" width="1.8" height="1.8"/>
				<rect x="-485.8" y="118.5" class="st5" width="1.8" height="1.8"/>
				<rect x="-485.8" y="123.9" class="st5" width="1.8" height="1.8"/>
				<rect x="-485.8" y="129.3" class="st5" width="1.8" height="1.8"/>
				<rect x="-491.1" y="113.1" class="st5" width="1.8" height="1.8"/>
				<rect x="-491.1" y="118.5" class="st5" width="1.8" height="1.8"/>
				<rect x="-491.1" y="123.9" class="st5" width="1.8" height="1.8"/>
				<rect x="-491.1" y="129.3" class="st5" width="1.8" height="1.8"/>
				<rect x="-496.3" y="118.5" class="st5" width="1.8" height="1.8"/>
				<rect x="-496.3" y="123.9" class="st5" width="1.8" height="1.8"/>
				<rect x="-496.3" y="129.3" class="st5" width="1.8" height="1.8"/>
				<rect x="-475.3" y="134.6" class="st5" width="1.8" height="1.8"/>
				<rect x="-480.6" y="134.6" class="st5" width="1.8" height="1.8"/>
				<rect x="-485.8" y="134.6" class="st5" width="1.8" height="1.8"/>
				<rect x="-491.1" y="134.6" class="st5" width="1.8" height="1.8"/>
				<rect x="-496.3" y="134.6" class="st5" width="1.8" height="1.8"/>
			</g>
			<g>
				<g>
					<path class="st5" d="M-529.7,175.3c0,12.2,8.8,22.1,8.8,22.1s8.8-9.9,8.8-22.1s-8.8-22.1-8.8-22.1S-529.7,163.1-529.7,175.3z"
						/>
					<rect x="-521.4" y="171.5" class="st7" width="0.8" height="29.3"/>
					<polygon class="st7" points="-521,179.6 -523.9,176.6 -524.5,177.1 -521,180.8 -517.4,177.1 -518,176.6 					"/>
				</g>
				<g>
					<path class="st5" d="M-502.2,176.1c0,10.8,7.8,19.6,7.8,19.6s7.8-8.8,7.8-19.5s-7.8-19.6-7.8-19.6S-502.2,165.3-502.2,176.1
						L-502.2,176.1z"/>
					<rect x="-494.9" y="172.7" class="st7" width="0.8" height="28.4"/>
				</g>
				<g>
					<path class="st7" d="M-516,167.3c0,12.2,8.8,22.1,8.8,22.1s8.8-9.9,8.8-22.1s-8.8-22.1-8.8-22.1S-516,155.1-516,167.3z"/>
					<rect x="-507.6" y="164.6" class="st5" width="0.8" height="37.1"/>
				</g>
			</g>
		</g>
		<g id="phase1-2">
			<g>
				<polygon class="st7" points="-637.8,172.4 -652.4,172.4 -652.4,254.8 -606.9,254.8 -606.9,153.1 -637.8,153.1 				"/>
				<polygon class="st7" points="-623.1,140.4 -623.1,153.1 -595.9,153.1 -595.9,140.4 -609.5,126.3 				"/>
				<polygon class="st5" points="-609.5,126.3 -596.1,140.4 -564.5,140.4 -578,126.3 				"/>
				<polygon class="st6" points="-595.9,153.1 -606.9,153.1 -606.9,209 -564.5,209 -564.5,153 -564.5,140.5 -595.9,140.5 				"/>
				<rect x="-572.4" y="144.9" class="st5" width="4.2" height="5.6"/>
				<rect x="-582.8" y="144.9" class="st5" width="4.2" height="5.6"/>
				<rect x="-593.1" y="144.9" class="st5" width="4.2" height="5.6"/>
				<rect x="-572.4" y="161.1" class="st5" width="4.2" height="5.6"/>
				<rect x="-582.8" y="161.1" class="st5" width="4.2" height="5.6"/>
				<rect x="-593.1" y="161.1" class="st5" width="4.2" height="5.6"/>
				<rect x="-603.5" y="161.1" class="st5" width="4.2" height="5.6"/>
				<rect x="-572.4" y="177.4" class="st5" width="4.2" height="5.6"/>
				<rect x="-582.8" y="177.4" class="st5" width="4.2" height="5.6"/>
				<rect x="-593.1" y="177.4" class="st5" width="4.2" height="5.6"/>
				<rect x="-603.5" y="177.4" class="st5" width="4.2" height="5.6"/>
				<rect x="-616.4" y="161.1" class="st5" width="4.2" height="5.6"/>
				<rect x="-626.8" y="161.1" class="st5" width="4.2" height="5.6"/>
				<rect x="-616.4" y="177.4" class="st5" width="4.2" height="5.6"/>
				<rect x="-626.8" y="177.4" class="st5" width="4.2" height="5.6"/>
				<rect x="-637.1" y="177.4" class="st5" width="4.2" height="5.6"/>
				<rect x="-647.5" y="177.4" class="st5" width="4.2" height="5.6"/>
				<rect x="-616.4" y="193.7" class="st5" width="4.2" height="5.6"/>
				<rect x="-626.8" y="193.7" class="st5" width="4.2" height="5.6"/>
				<rect x="-637.1" y="193.7" class="st5" width="4.2" height="5.6"/>
				<rect x="-647.5" y="193.7" class="st5" width="4.2" height="5.6"/>
			</g>
			<g>
				<g>
					<polygon class="st8" points="-225.3,160.4 -200.9,160.7 -200.9,151.5 -225.3,151.6 					"/>
					<polygon class="st8" points="-190.3,141.1 -214.5,141.1 -225.3,151.6 -201,151.6 					"/>
					<polygon class="st8" points="-236,170.9 -236,170.9 -236,208.9 -211.8,208.9 -211.8,170.9 -211.8,170.9 -200.9,160.7 
						-225.3,160.4 					"/>
				</g>
				<polygon class="st9" points="-179.5,160.5 -179.5,151.6 -179.5,151.6 -179.5,151.6 -179.5,151.5 -179.6,151.5 -190.3,141.1 
					-200.9,151.5 -200.9,151.5 -200.9,151.5 -201,151.6 -200.9,151.6 -200.9,160.7 -211.9,170.9 -211.9,209 -200.9,209 -179.4,209 
					-169,209 -169,170.9 				"/>
				<rect x="-196" y="158.6" class="st5" width="2.3" height="4.5"/>
				<rect x="-186.8" y="158.6" class="st5" width="2.3" height="4.5"/>
				<rect x="-196" y="166.5" class="st5" width="2.3" height="4.5"/>
				<rect x="-186.8" y="166.5" class="st5" width="2.3" height="4.5"/>
				<rect x="-196" y="174.4" class="st5" width="2.3" height="4.5"/>
				<rect x="-186.8" y="174.4" class="st5" width="2.3" height="4.5"/>
				<rect x="-196" y="182.3" class="st5" width="2.3" height="4.5"/>
				<rect x="-186.8" y="182.3" class="st5" width="2.3" height="4.5"/>
				<rect x="-196" y="190.2" class="st5" width="2.3" height="4.5"/>
				<rect x="-186.8" y="190.2" class="st5" width="2.3" height="4.5"/>
				<rect x="-196" y="198.2" class="st5" width="2.3" height="4.5"/>
				<rect x="-186.8" y="198.2" class="st5" width="2.3" height="4.5"/>
				<rect x="-205.2" y="174.4" class="st5" width="2.3" height="4.5"/>
				<rect x="-205.2" y="182.3" class="st5" width="2.3" height="4.5"/>
				<rect x="-205.2" y="190.2" class="st5" width="2.3" height="4.5"/>
				<rect x="-205.2" y="198.2" class="st5" width="2.3" height="4.5"/>
				<rect x="-177.6" y="174.4" class="st5" width="2.3" height="4.5"/>
				<rect x="-177.6" y="182.3" class="st5" width="2.3" height="4.5"/>
				<rect x="-177.6" y="190.2" class="st5" width="2.3" height="4.5"/>
				<rect x="-177.6" y="198.2" class="st5" width="2.3" height="4.5"/>
			</g>
		</g>
	</g>
	<g id="purpleBuilds">
		<g id="phase3-3">
			<path class="st10" d="M-531.8,1.6c1,0,2.1,0.2,3,0.7c0-0.2,0-0.4,0-0.6c-0.1-5.8,4.6-10.6,10.4-10.7c1.1,0,2.1,0.2,3.1,0.5
				c0.2-3.6,3.3-6.3,6.9-6.1c3.3,0.2,6,2.8,6.1,6.1c1.2-0.5,2.4-0.8,3.7-0.8c5.1,0.1,9.2,4.3,9.2,9.4c0,0.3,0,0.5,0,0.8
				c0.2,0,0.5,0,0.7,0c3.7,0.1,6.6,3.1,6.5,6.8c-0.1,3.2-2.3,5.8-5.4,6.4c-2.1,2.8-11.1,4.9-21.8,4.9c-9.9,0-18.2-1.8-21.2-4.3
				c-0.4,0.1-0.8,0.1-1.2,0.1c-3.7-0.1-6.5-3.2-6.4-6.9C-538,4.6-535.2,1.8-531.8,1.6L-531.8,1.6z"/>
			<g>
				<g>
					<path class="st11" d="M-291.1,177c-23.5,0-22.4,5.3-43.7-6.5c-15.5-8.5-27.8-1.9-27.8-1.9v40.2h115.7
						C-246.8,208.8-274.6,177-291.1,177L-291.1,177z"/>
					<path class="st10" d="M-221.8,201.9c-1.6,0-3.1,0.3-4.6,0.9c0-0.2,0-0.4,0-0.7c0-7.1-7.2-12.9-16.2-12.9
						c-1.6,0-3.3,0.2-4.8,0.6c-0.4-4.2-4.8-7.4-10.1-7.4v26.7h45.7C-212.3,205-216.6,201.9-221.8,201.9L-221.8,201.9z"/>
				</g>
				<g>
					<path class="st12" d="M-371.5,142.6c-1.6,0-3.2,0.4-4.6,1.3c-0.3-4.9-4.4-8.7-9.3-8.4c-3.5,0.2-6.6,2.4-7.8,5.7
						c-1.6-1.5-3.7-2.3-5.9-2.3c-4.6,0-8.4,3.6-8.9,8.2c-1.5-1.2-3.4-1.8-5.4-1.8c-5,0-9,4.1-8.9,9.1l0,0c0,0.1,0,0.1,0,0.2
						c-1.2-0.6-2.5-0.9-3.8-0.9c-4.9,0.1-8.8,4-8.9,8.8c-1.7-1.9-4.1-3-6.6-3c-5,0-9,4.1-8.9,9.1l0,0h87.9v-16.9
						C-362.5,146.7-366.5,142.7-371.5,142.6L-371.5,142.6L-371.5,142.6z"/>
					<g>
						<polygon class="st11" points="-427.1,130.1 -400.4,130.1 -413.8,116.5 						"/>
						<polygon class="st12" points="-469.1,130.1 -427.1,130.1 -413.8,116.5 -455.8,116.5 						"/>
						<rect x="-427.1" y="130.1" class="st11" width="26.7" height="38.4"/>
						<rect x="-469.1" y="130.1" class="st10" width="42" height="38.4"/>
					</g>
				</g>
			</g>
			<g>
				<path class="st12" d="M-635.3,232.9c0,7.8,5.6,14.1,5.6,14.1s5.6-6.3,5.6-14.1s-5.6-14.1-5.6-14.1S-635.3,225.2-635.3,232.9z"/>
				<rect x="-630.1" y="231.2" class="st11" width="0.8" height="23.7"/>
			</g>
		</g>
		<g id="phase2-3">
			<g>
				<path class="st10" d="M-491.4,189.3c-17.5,11.7-22.4,3.1-41.7,3.1c-13.6,0-31.4,16.4-31.4,16.4l95.4,7.5v-31.6
					C-469.1,184.7-478.7,180.7-491.4,189.3L-491.4,189.3z"/>
				<path class="st12" d="M-484.2,217.9c-6.9,0.7-5.8-7.5-16.5-6.6c-6.5,0.5-8.1,4-14.2-0.1s-13-10.9-25.6-8.9
					c-13.9,2.2-35.1,45.8-35.1,45.8l22.6-2.7l83.4-19.2l7.2-8.6C-470.9,206.3-478,217.3-484.2,217.9L-484.2,217.9z"/>
			</g>
			<g>
				<g>
					<path class="st11" d="M-481.4,200.4l-8,33.1l20.6-2.2l-7.5-30.9c-0.3-1.4-1.7-2.3-3.1-2C-480.4,198.6-481.2,199.4-481.4,200.4
						L-481.4,200.4z"/>
					<path class="st11" d="M-493.7,199.2l-8,33.1l20.6-2.2l-7.5-30.9c-0.3-1.4-1.7-2.3-3.1-2C-492.7,197.5-493.5,198.3-493.7,199.2
						L-493.7,199.2z"/>
				</g>
				<g>
					<rect x="-479.3" y="206.3" class="st12" width="0.8" height="19.5"/>
					<polygon class="st12" points="-479.3,214.8 -479.3,218.3 -482.5,215 -483.1,215.6 -478.4,220.4 -478.4,215.1 -475.7,210.7 
						-476.4,210.3 					"/>
					<rect x="-491.6" y="205.2" class="st12" width="0.8" height="28.1"/>
					<polygon class="st12" points="-491.6,213.7 -491.6,217.2 -494.8,213.9 -495.4,214.5 -490.7,219.2 -490.7,213.9 -488,209.6 
						-488.7,209.2 					"/>
				</g>
			</g>
			<rect x="-244.9" y="208.9" class="st12" width="76" height="46"/>
		</g>
		<g id="phase1-3">
			<g>
				<path class="st10" d="M-489,225.6c-4.1,5.4-6.7,0.3-11.9,2.4c-6.8,2.8-12.2,17.5-20.1,16c-7.9-1.5-12.7-2.8-12.7-2.8l-2.5,8.1
					l60.2,2.1l8.8-35.2C-474.4,214-484.9,220.2-489,225.6L-489,225.6z"/>
				<path class="st11" d="M-495.8,242.1c-6.7-1.8-2.9-9-13.3-12c-6.3-1.8-8.9,0.9-13.3-5.1s-3.4-13.8-16-16.3
					c-13.8-2.7-59,33.6-59,33.6l-9.6,12.6h122.1l9.7-5.6C-479.4,235.8-489.8,243.7-495.8,242.1z"/>
			</g>
			<g>
				<polygon class="st12" points="-607.1,208.8 -565.1,208.8 -551.7,195.1 -593.7,195.1 				"/>
				<polygon class="st13" points="-565,208.8 -565,255.1 -538.4,255.1 -538.4,208.8 -551.7,195.1 				"/>
				<rect x="-607.1" y="208.8" class="st10" width="42" height="46.1"/>
				<rect x="-571.2" y="213.7" class="st12" width="1.8" height="1.8"/>
				<rect x="-571.2" y="219.1" class="st12" width="1.8" height="1.8"/>
				<rect x="-571.2" y="224.4" class="st12" width="1.8" height="1.8"/>
				<rect x="-571.2" y="229.8" class="st12" width="1.8" height="1.8"/>
				<rect x="-571.2" y="235.2" class="st12" width="1.8" height="1.8"/>
				<rect x="-576.4" y="213.7" class="st12" width="1.8" height="1.8"/>
				<rect x="-576.4" y="219.1" class="st12" width="1.8" height="1.8"/>
				<rect x="-576.4" y="224.4" class="st12" width="1.8" height="1.8"/>
				<rect x="-576.4" y="229.8" class="st12" width="1.8" height="1.8"/>
				<rect x="-576.4" y="235.2" class="st12" width="1.8" height="1.8"/>
				<rect x="-581.7" y="213.7" class="st12" width="1.8" height="1.8"/>
				<rect x="-581.7" y="219.1" class="st12" width="1.8" height="1.8"/>
				<rect x="-581.7" y="224.4" class="st12" width="1.8" height="1.8"/>
				<rect x="-581.7" y="229.8" class="st12" width="1.8" height="1.8"/>
				<rect x="-581.7" y="235.2" class="st12" width="1.8" height="1.8"/>
				<rect x="-586.9" y="213.7" class="st12" width="1.8" height="1.8"/>
				<rect x="-586.9" y="219.1" class="st12" width="1.8" height="1.8"/>
				<rect x="-586.9" y="224.4" class="st12" width="1.8" height="1.8"/>
				<rect x="-586.9" y="229.8" class="st12" width="1.8" height="1.8"/>
				<rect x="-586.9" y="235.2" class="st12" width="1.8" height="1.8"/>
				<rect x="-592.2" y="213.7" class="st12" width="1.8" height="1.8"/>
				<rect x="-592.2" y="219.1" class="st12" width="1.8" height="1.8"/>
				<rect x="-592.2" y="224.4" class="st12" width="1.8" height="1.8"/>
				<rect x="-592.2" y="229.8" class="st12" width="1.8" height="1.8"/>
				<rect x="-592.2" y="235.2" class="st12" width="1.8" height="1.8"/>
				<rect x="-597.4" y="213.7" class="st12" width="1.8" height="1.8"/>
				<rect x="-597.4" y="219.1" class="st12" width="1.8" height="1.8"/>
				<rect x="-597.4" y="224.4" class="st12" width="1.8" height="1.8"/>
				<rect x="-597.4" y="229.8" class="st12" width="1.8" height="1.8"/>
				<rect x="-597.4" y="235.2" class="st12" width="1.8" height="1.8"/>
				<rect x="-571.2" y="240.5" class="st12" width="1.8" height="1.8"/>
				<rect x="-576.4" y="240.5" class="st12" width="1.8" height="1.8"/>
				<rect x="-581.7" y="240.5" class="st12" width="1.8" height="1.8"/>
				<rect x="-586.9" y="240.5" class="st12" width="1.8" height="1.8"/>
				<rect x="-592.2" y="240.5" class="st12" width="1.8" height="1.8"/>
				<rect x="-597.4" y="240.5" class="st12" width="1.8" height="1.8"/>
				<rect x="-602.7" y="213.7" class="st12" width="1.8" height="1.8"/>
				<rect x="-602.7" y="219.1" class="st12" width="1.8" height="1.8"/>
				<rect x="-602.7" y="224.4" class="st12" width="1.8" height="1.8"/>
				<rect x="-602.7" y="229.8" class="st12" width="1.8" height="1.8"/>
				<rect x="-602.7" y="235.2" class="st12" width="1.8" height="1.8"/>
				<rect x="-602.7" y="240.5" class="st12" width="1.8" height="1.8"/>
				<polygon class="st13" points="-603.6,208.8 -602.3,208.8 -589,195.1 -590.3,195.1 				"/>
				<polygon class="st13" points="-598,208.8 -596.7,208.8 -583.3,195.1 -584.7,195.1 				"/>
				<polygon class="st13" points="-592.4,208.8 -591,208.8 -577.7,195.1 -579,195.1 				"/>
				<polygon class="st13" points="-586.7,208.8 -585.4,208.8 -572.1,195.1 -573.4,195.1 				"/>
				<polygon class="st13" points="-581.1,208.8 -579.8,208.8 -566.4,195.1 -567.8,195.1 				"/>
				<polygon class="st13" points="-575.5,208.8 -574.1,208.8 -560.8,195.1 -562.1,195.1 				"/>
				<polygon class="st13" points="-569.8,208.8 -568.5,208.8 -555.2,195.1 -556.5,195.1 				"/>
			</g>
			<g>
				<rect x="-207.4" y="222.9" class="st11" width="0.8" height="32"/>
				
					<rect x="-208.5" y="230.5" transform="matrix(0.7659 -0.6429 0.6429 0.7659 -198.0013 -79.4517)" class="st11" width="0.8" height="3.4"/>
				
					<rect x="-208.2" y="230.5" transform="matrix(0.6431 -0.7658 0.7658 0.6431 -249.8815 -74.361)" class="st11" width="6.9" height="0.8"/>
				
					<rect x="-208.7" y="235.9" transform="matrix(0.6431 -0.7658 0.7658 0.6431 -253.7504 -71.8089)" class="st11" width="9.5" height="0.8"/>
			</g>
			<g>
				<path class="st10" d="M-223.9,233c-0.7-0.6-0.9-1.5-0.7-2.4c0.6-2.1,1.3-5.6,0.1-6.7c-0.4-0.4-0.9-0.7-1.5-0.8
					c-1-0.3-1.6-1.2-1.6-2.2l0,0c0-3.8-1.8-6.8-4-6.8s-4,3.1-4,6.8l0,0c0.1,1-0.6,1.9-1.5,2.2c-0.6,0.1-1.1,0.4-1.5,0.8
					c-1.1,1.2-0.4,4.6,0.1,6.7c0.3,0.9,0,1.8-0.7,2.4s-1.2,1.4-1.4,2.4c-0.5,2.6,3.3,8.3,9,13.3c5.7-5.1,9.5-10.7,9-13.3
					C-222.6,234.5-223.1,233.6-223.9,233L-223.9,233z"/>
				<polygon class="st11" points="-231.5,227.1 -234.5,224.8 -235,225.5 -231.5,228.1 -228.1,225.6 -228.6,224.9 				"/>
				<polygon class="st11" points="-231.5,240.2 -236.8,236.2 -237.3,236.9 -231.5,241.2 -225.6,236.9 -226.1,236.2 				"/>
				<polygon class="st11" points="-231.5,233.3 -236.6,229.5 -237.1,230.2 -231.5,234.3 -226.1,230.3 -226.6,229.6 				"/>
				<rect x="-231.9" y="219.4" class="st11" width="0.8" height="35.5"/>
			</g>
			<g>
				<path class="st10" d="M-175.6,222.1c-0.1-4.4-3.8-7.9-8.2-7.8c-4.4,0.1-7.9,3.8-7.8,8.2c0,1,0.2,2.1,0.7,3c1,2.1,1,4.5,0,6.5
					c-1.8,4-0.1,8.8,3.9,10.6c4,1.8,8.8,0.1,10.6-3.9c1-2.1,1-4.5,0-6.6s-1-4.5,0-6.5C-175.9,224.4-175.6,223.3-175.6,222.1z"/>
				<rect x="-183.9" y="225.5" class="st11" width="0.8" height="18.3"/>
				
					<rect x="-185.8" y="228.5" transform="matrix(0.7057 -0.7085 0.7085 0.7057 -218.366 -63.3107)" class="st11" width="0.8" height="5.3"/>
				
					<rect x="-184.7" y="236.3" transform="matrix(0.7082 -0.706 0.706 0.7082 -219.8207 -58.5018)" class="st11" width="8" height="0.8"/>
				<rect x="-183.9" y="221.5" class="st11" width="0.8" height="33.4"/>
				
					<rect x="-185.8" y="228.5" transform="matrix(0.7057 -0.7085 0.7085 0.7057 -218.366 -63.3107)" class="st11" width="0.8" height="5.3"/>
				
					<rect x="-184.4" y="230.7" transform="matrix(0.7082 -0.706 0.706 0.7082 -216.1813 -60.8459)" class="st11" width="5.3" height="0.8"/>
				
					<rect x="-185.2" y="224.7" transform="matrix(0.7056 -0.7086 0.7086 0.7056 -214.8782 -64.2535)" class="st11" width="0.8" height="3.6"/>
				
					<rect x="-184.1" y="225.9" transform="matrix(0.7082 -0.706 0.706 0.7082 -212.9907 -62.6956)" class="st11" width="3.6" height="0.8"/>
				
					<rect x="-184.7" y="236.3" transform="matrix(0.7082 -0.706 0.706 0.7082 -219.8207 -58.5018)" class="st11" width="8" height="0.8"/>
				
					<rect x="-186.8" y="232.7" transform="matrix(0.7056 -0.7086 0.7086 0.7056 -222.604 -62.4026)" class="st11" width="0.8" height="8"/>
			</g>
		</g>
	</g>
	<g id="yellowBuilds">
		<g id="phase2-4">
			<polygon class="st14" points="-446.4,148.1 -423.6,168.6 -362.3,168.9 -385.4,148.1 			"/>
			<polygon class="st15" points="-469.1,168.6 -469.1,209 -423.6,209 -423.6,168.6 -446.4,148.1 			"/>
			<polygon class="st15" points="-404.2,168.6 -392.9,158.6 -415.4,158.5 			"/>
			<polygon class="st16" points="-392.9,158.6 -404.2,168.6 -423.6,168.6 -423.6,209 -362.4,209 -362.4,168.7 -381.6,168.7 			"/>
			<rect x="-434.3" y="177.2" class="st14" width="2.2" height="2.3"/>
			<rect x="-434.3" y="184.1" class="st14" width="2.2" height="2.3"/>
			<rect x="-434.3" y="191" class="st14" width="2.2" height="2.3"/>
			<rect x="-434.3" y="197.8" class="st14" width="2.2" height="2.3"/>
			<rect x="-441" y="177.2" class="st14" width="2.2" height="2.3"/>
			<rect x="-441" y="184.1" class="st14" width="2.2" height="2.3"/>
			<rect x="-441" y="191" class="st14" width="2.2" height="2.3"/>
			<rect x="-441" y="197.8" class="st14" width="2.2" height="2.3"/>
			<rect x="-447.8" y="177.2" class="st14" width="2.2" height="2.3"/>
			<rect x="-447.8" y="184.1" class="st14" width="2.2" height="2.3"/>
			<rect x="-447.8" y="191" class="st14" width="2.2" height="2.3"/>
			<rect x="-447.8" y="197.8" class="st14" width="2.2" height="2.3"/>
			<rect x="-454.5" y="177.2" class="st14" width="2.2" height="2.3"/>
			<rect x="-454.5" y="184.1" class="st14" width="2.2" height="2.3"/>
			<rect x="-454.5" y="191" class="st14" width="2.2" height="2.3"/>
			<rect x="-454.5" y="197.8" class="st14" width="2.2" height="2.3"/>
			<rect x="-461.2" y="177.2" class="st14" width="2.2" height="2.3"/>
			<rect x="-461.2" y="184.1" class="st14" width="2.2" height="2.3"/>
			<rect x="-461.2" y="191" class="st14" width="2.2" height="2.3"/>
			<rect x="-461.2" y="197.8" class="st14" width="2.2" height="2.3"/>
			<rect x="-371.1" y="173.3" class="st14" width="2.9" height="7.9"/>
			<rect x="-382.8" y="173.3" class="st14" width="2.9" height="7.9"/>
			<rect x="-394.4" y="173.3" class="st14" width="2.9" height="7.9"/>
			<rect x="-406.1" y="173.3" class="st14" width="2.9" height="7.9"/>
			<rect x="-417.8" y="173.3" class="st14" width="2.9" height="7.9"/>
			<rect x="-371.1" y="187.2" class="st14" width="2.9" height="7.9"/>
			<rect x="-382.8" y="187.2" class="st14" width="2.9" height="7.9"/>
			<rect x="-394.4" y="187.2" class="st14" width="2.9" height="7.9"/>
			<rect x="-406.1" y="187.2" class="st14" width="2.9" height="7.9"/>
			<rect x="-417.8" y="187.2" class="st14" width="2.9" height="7.9"/>
			<path class="st14" d="M-259.8,44.2c-1,0-2.1,0.2-3,0.7c0-0.2,0-0.4,0-0.6c0.1-5.8-4.6-10.6-10.4-10.7c-1.1,0-2.1,0.2-3.1,0.5
				c-0.2-3.6-3.3-6.3-6.9-6.1c-3.3,0.2-6,2.8-6.1,6.1c-1.2-0.5-2.4-0.8-3.7-0.8c-5.1,0.1-9.3,4.3-9.2,9.4c0,0.3,0,0.5,0,0.8
				c-0.2,0-0.5,0-0.7,0c-3.7,0.1-6.6,3.1-6.6,6.8c0.1,3.2,2.3,5.8,5.4,6.4c2.1,2.8,11.1,4.9,21.9,4.9c9.9,0,18.2-1.8,21.2-4.3
				c0.4,0.1,0.8,0.1,1.1,0.1c3.7-0.1,6.5-3.2,6.4-6.9C-253.6,47.2-256.4,44.4-259.8,44.2L-259.8,44.2z"/>
			<g>
				<path class="st17" d="M-621.3,232.9c0,7.8,5.6,14.1,5.6,14.1s5.6-6.3,5.6-14.1s-5.6-14.1-5.6-14.1S-621.3,225.2-621.3,232.9z"/>
				<rect x="-616.1" y="231.2" class="st16" width="0.8" height="23.7"/>
			</g>
		</g>
		<g id="phase1-4">
			<g>
				<g>
					<polygon class="st14" points="-484.8,226.7 -454.8,226.7 -439,208.8 -469,208.8 					"/>
					<rect x="-484.8" y="226.7" class="st17" width="30" height="28.1"/>
					<polygon class="st16" points="-455,255.1 -438.8,255.1 -438.8,226.7 -438.8,208.8 -455,226.7 					"/>
					<rect x="-473.2" y="233.8" class="st14" width="6.4" height="4.5"/>
					<rect x="-473.2" y="244.1" class="st14" width="6.4" height="4.5"/>
				</g>
				<rect x="-439" y="208.8" class="st14" width="76.6" height="46.1"/>
				<path class="st16" d="M-383.7,228.9c-12.6,1.7-14.6,5.1-18.9,9.1s-7,2.2-13.3,3.5c-10.4,2-6.6,6.9-13.3,8.1
					c-2.7,0.5-6.2-0.3-9.7-0.5v5.9h76.5v-21.8C-368.9,229.6-376.4,228.1-383.7,228.9z"/>
				<g>
					<polygon class="st18" points="-362.4,211.5 -362.4,254.9 -270,254.9 -270,208.8 -362.4,208.8 					"/>
					<polygon class="st19" points="-362.4,208.8 -270,208.8 -257.4,182.2 -349.8,182.2 					"/>
					<polygon class="st20" points="-257.5,182.3 -270,208.8 -270,255.1 -244.9,255.1 -244.9,208.9 -244.9,209 -244.9,209 					"/>
					<polygon class="st20" points="-324.8,196 -312.2,208.8 -293.4,208.8 -306,196 					"/>
					<path class="st19" d="M-281.4,218c-1.4,0-2.5,1.1-2.5,2.5l0,0v4h5v-4C-278.9,219.1-280,218-281.4,218L-281.4,218L-281.4,218z"
						/>
					<path class="st19" d="M-349.1,218c-1.4,0-2.5,1.1-2.5,2.5l0,0v4h5v-4C-346.6,219.1-347.7,218-349.1,218L-349.1,218L-349.1,218z
						"/>
					<path class="st19" d="M-281.4,229.1c-1.4,0-2.5,1.1-2.5,2.5l0,0v4h5v-4C-278.9,230.2-280,229.1-281.4,229.1L-281.4,229.1
						L-281.4,229.1z"/>
					<path class="st19" d="M-349.1,229.1c-1.4,0-2.5,1.1-2.5,2.5l0,0v4h5v-4C-346.6,230.2-347.7,229.1-349.1,229.1L-349.1,229.1
						L-349.1,229.1z"/>
					<path class="st19" d="M-281.4,240.2c-1.4,0-2.5,1.1-2.5,2.5l0,0v4h5v-4C-278.9,241.4-280,240.2-281.4,240.2L-281.4,240.2
						L-281.4,240.2z"/>
					<path class="st19" d="M-349.1,240.2c-1.4,0-2.5,1.1-2.5,2.5l0,0v4h5v-4C-346.6,241.4-347.7,240.2-349.1,240.2L-349.1,240.2
						L-349.1,240.2z"/>
					<rect x="-312.2" y="208.8" class="st16" width="18.8" height="46"/>
					<polygon class="st1" points="-324.8,196 -337.4,208.9 -337,209 -337.3,209 -337.3,255.1 -312.2,255.1 -312.2,209 -312.2,208.9 
											"/>
					<path class="st19" d="M-324.7,218L-324.7,218c-1.4,0-2.5,1.1-2.5,2.5l0,0v4h5v-4C-322.2,219.1-323.4,218-324.7,218
						C-324.8,218-324.8,218-324.7,218L-324.7,218z"/>
					<path class="st19" d="M-324.7,229.1L-324.7,229.1c-1.4,0-2.5,1.1-2.5,2.5l0,0v4h5v-4C-322.2,230.2-323.4,229.1-324.7,229.1
						C-324.8,229.1-324.8,229.1-324.7,229.1L-324.7,229.1z"/>
					<path class="st19" d="M-324.7,240.2L-324.7,240.2c-1.4,0-2.5,1.1-2.5,2.5l0,0v4h5v-4C-322.2,241.4-323.4,240.2-324.7,240.2
						C-324.8,240.2-324.8,240.2-324.7,240.2L-324.7,240.2z"/>
				</g>
			</g>
			<g>
				<path class="st17" d="M-382.8,215.5c0,10.5,7.5,19,7.5,19s7.5-8.5,7.5-19s-7.5-19-7.5-19S-382.8,205-382.8,215.5z"/>
				<rect x="-375.6" y="212.2" class="st16" width="0.8" height="25.2"/>
			</g>
			<g>
				<path class="st17" d="M-415.5,217.8c0,10.5,7.5,19,7.5,19s7.5-8.5,7.5-19s-7.5-19-7.5-19S-415.5,207.3-415.5,217.8z"/>
				<rect x="-408.4" y="217.3" class="st16" width="0.8" height="25.2"/>
			</g>
			<g>
				<path class="st17" d="M-434.1,216.3c0,13.8,10.8,24.9,10.8,24.9s10.8-11.2,10.8-24.9c0-13.8-10.8-24.9-10.8-24.9
					S-434.1,202.5-434.1,216.3z"/>
				<rect x="-423.7" y="211.9" class="st16" width="0.8" height="33.1"/>
			</g>
		</g>
	</g>
</g>
<g id="cityBuilds_1_">
	<g id="greenBuilds_1_">
		<g id="phase4">
			<polygon class="st0" points="470.6,113.8 496.5,113.8 516.2,86.6 490.3,86.6 			"/>
			<polygon class="st0" points="483.2,101.2 509.1,101.2 528.8,73.9 502.9,73.9 			"/>
			<polygon class="st0" points="483.2,90.2 509.1,90.2 528.8,63 502.9,63 			"/>
			<polygon class="st1" points="509.2,90.4 509.1,90.4 509.1,90.2 			"/>
			<polygon class="st2" points="522.3,113.7 522.3,218.4 470.6,218.4 470.6,113.7 483.2,101.2 483.2,90.4 483.3,90.2 496.2,77.7 
				509.1,90.2 509.1,90.2 509.1,101.2 			"/>
			<polygon class="st2" points="483.2,90.2 483.3,90.2 483.2,90.4 			"/>
			<path class="st2" d="M509.1,90.2L509.1,90.2L509.1,90.2z"/>
			<rect x="500.4" y="98.9" class="st0" width="2.7" height="5.4"/>
			<rect x="489.3" y="98.9" class="st0" width="2.7" height="5.4"/>
			<rect x="500.4" y="108.4" class="st0" width="2.7" height="5.4"/>
			<rect x="489.3" y="108.4" class="st0" width="2.7" height="5.4"/>
			<rect x="500.4" y="118" class="st0" width="2.7" height="5.4"/>
			<rect x="489.3" y="118" class="st0" width="2.7" height="5.4"/>
			<rect x="500.4" y="127.5" class="st0" width="2.7" height="5.4"/>
			<rect x="489.3" y="127.5" class="st0" width="2.7" height="5.4"/>
			<rect x="500.4" y="136.9" class="st0" width="2.7" height="5.4"/>
			<rect x="489.3" y="136.9" class="st0" width="2.7" height="5.4"/>
			<rect x="500.4" y="146.6" class="st0" width="2.7" height="5.4"/>
			<rect x="489.3" y="146.6" class="st0" width="2.7" height="5.4"/>
			<rect x="511.5" y="118" class="st0" width="2.7" height="5.4"/>
			<rect x="511.5" y="127.5" class="st0" width="2.7" height="5.4"/>
			<rect x="511.5" y="136.9" class="st0" width="2.7" height="5.4"/>
			<rect x="511.5" y="146.6" class="st0" width="2.7" height="5.4"/>
			<rect x="478.1" y="118" class="st0" width="2.7" height="5.4"/>
			<rect x="478.1" y="127.5" class="st0" width="2.7" height="5.4"/>
			<rect x="478.1" y="136.9" class="st0" width="2.7" height="5.4"/>
			<rect x="478.1" y="146.6" class="st0" width="2.7" height="5.4"/>
			<polygon class="st0" points="515.9,50.3 502.9,63 483.2,90.2 496.2,77.7 			"/>
			<polygon class="st0" points="528.9,63 515.9,50.3 496.2,77.7 509.1,90.2 			"/>
			<polygon class="st3" points="528.9,63 528.9,74 509.1,101.2 509.1,90.2 			"/>
			<polygon class="st0" points="542.1,86.6 522.4,113.7 509.1,101.2 528.9,74 			"/>
			<polygon class="st3" points="542.1,191.1 542.1,86.6 522.4,113.7 522.4,218.4 			"/>
		</g>
		<g id="phase3_1_">
			<polygon class="st0" points="45.9,63.4 71.8,63.4 91.5,36.2 65.6,36.2 			"/>
			<polygon class="st0" points="58.5,50.8 84.4,50.8 104.1,23.5 78.2,23.5 			"/>
			<polygon class="st0" points="58.5,39.8 84.4,39.8 104.1,12.6 78.2,12.6 			"/>
			<polygon class="st1" points="84.5,40 84.4,40 84.4,39.9 			"/>
			<polygon class="st2" points="97.6,63.3 97.6,168 45.9,168 45.9,63.3 58.5,50.8 58.5,40 58.6,39.9 71.5,27.3 84.4,39.9 84.4,39.9 
				84.4,50.9 			"/>
			<polygon class="st2" points="58.5,39.9 58.6,39.9 58.5,40 			"/>
			<path class="st2" d="M84.4,39.9L84.4,39.9L84.4,39.9z"/>
			<rect x="75.7" y="48.5" class="st0" width="2.7" height="5.4"/>
			<rect x="64.6" y="48.5" class="st0" width="2.7" height="5.4"/>
			<rect x="75.7" y="58" class="st0" width="2.7" height="5.4"/>
			<rect x="64.6" y="58" class="st0" width="2.7" height="5.4"/>
			<rect x="75.7" y="67.6" class="st0" width="2.7" height="5.4"/>
			<rect x="64.6" y="67.6" class="st0" width="2.7" height="5.4"/>
			<rect x="75.7" y="77.1" class="st0" width="2.7" height="5.4"/>
			<rect x="64.6" y="77.1" class="st0" width="2.7" height="5.4"/>
			<rect x="75.7" y="86.6" class="st0" width="2.7" height="5.4"/>
			<rect x="64.6" y="86.6" class="st0" width="2.7" height="5.4"/>
			<rect x="75.7" y="96.2" class="st0" width="2.7" height="5.4"/>
			<rect x="64.6" y="96.2" class="st0" width="2.7" height="5.4"/>
			<rect x="86.8" y="67.6" class="st0" width="2.7" height="5.4"/>
			<rect x="86.8" y="77.1" class="st0" width="2.7" height="5.4"/>
			<rect x="86.8" y="86.6" class="st0" width="2.7" height="5.4"/>
			<rect x="86.8" y="96.2" class="st0" width="2.7" height="5.4"/>
			<rect x="53.4" y="67.6" class="st0" width="2.7" height="5.4"/>
			<rect x="53.4" y="77.1" class="st0" width="2.7" height="5.4"/>
			<rect x="53.4" y="86.6" class="st0" width="2.7" height="5.4"/>
			<rect x="53.4" y="96.2" class="st0" width="2.7" height="5.4"/>
			<polygon class="st0" points="91.2,0 78.2,12.6 58.5,39.8 71.5,27.3 			"/>
			<polygon class="st0" points="104.2,12.6 91.2,0 71.5,27.3 84.4,39.8 			"/>
			<polygon class="st3" points="104.2,12.6 104.2,23.6 84.4,50.9 84.4,39.8 			"/>
			<polygon class="st0" points="117.4,36.2 97.7,63.3 84.4,50.9 104.2,23.6 			"/>
			<polygon class="st3" points="117.4,140.7 117.4,36.2 97.7,63.3 97.7,168 			"/>
		</g>
		<g id="phase2_1_">
			<g>
				<polygon class="st0" points="245.1,77.9 271,77.9 290.7,50.6 264.8,50.6 				"/>
				<polygon class="st0" points="262.9,54.5 300,54.5 319.7,27.3 282.6,27.3 				"/>
				<polygon class="st4" points="262.7,77.9 245.1,77.9 245.1,177.5 300,177.5 300,54.5 262.7,54.5 				"/>
				<rect x="288.5" y="64.3" class="st0" width="5.1" height="6.8"/>
				<rect x="276" y="64.3" class="st0" width="5.1" height="6.8"/>
				<rect x="288.5" y="83.9" class="st0" width="5.1" height="6.8"/>
				<rect x="276" y="83.9" class="st0" width="5.1" height="6.8"/>
				<rect x="263.5" y="83.9" class="st0" width="5.1" height="6.8"/>
				<rect x="251" y="83.9" class="st0" width="5.1" height="6.8"/>
				<rect x="288.5" y="103.6" class="st0" width="5.1" height="6.8"/>
				<rect x="276" y="103.6" class="st0" width="5.1" height="6.8"/>
				<rect x="263.5" y="103.6" class="st0" width="5.1" height="6.8"/>
				<rect x="251" y="103.6" class="st0" width="5.1" height="6.8"/>
				<polygon class="st3" points="319.7,27.3 319.7,150.2 300,177.5 300,54.5 				"/>
			</g>
			<g>
				<g>
					<path class="st0" d="M297.3,118.3c0,0-5.7,5.6-5.7,12.6s5.7,12.6,5.7,12.6s5.7-5.6,5.7-12.6S297.3,118.3,297.3,118.3z"/>
					<rect x="296.9" y="129.4" class="st3" width="0.7" height="28.1"/>
				</g>
				<g>
					<path class="st4" d="M326,118.3c0,0-5.7,5.6-5.7,12.6s5.7,12.6,5.7,12.6s5.7-5.6,5.7-12.6S326,118.3,326,118.3z"/>
					<rect x="325.6" y="129.4" class="st3" width="0.7" height="28.1"/>
				</g>
				<g>
					<path class="st4" d="M311.6,118.3c0,0-5.7,5.6-5.7,12.6s5.7,12.6,5.7,12.6s5.7-5.6,5.7-12.6S311.6,118.3,311.6,118.3z"/>
					<rect x="311.3" y="129.4" class="st3" width="0.7" height="28.1"/>
				</g>
			</g>
			<g>
				<g>
					<path class="st4" d="M378.6,126.2c0,10.9,7.8,19.8,7.8,19.8s7.9-8.8,7.9-19.8s-7.9-19.8-7.9-19.8S378.6,115.3,378.6,126.2
						L378.6,126.2z"/>
					<rect x="386.1" y="115.4" class="st3" width="0.7" height="37.1"/>
				</g>
				<g>
					<path class="st0" d="M397.3,131.4c0,10.9,7.9,19.8,7.9,19.8s7.8-8.8,7.8-19.8c0-10.9-7.8-19.8-7.8-19.8
						S397.3,120.5,397.3,131.4z"/>
					<rect x="404.7" y="127.9" class="st3" width="0.7" height="32.1"/>
					<polygon class="st3" points="405.1,135.2 402.5,132.5 402,133 405.1,136.2 408.3,133 407.7,132.5 					"/>
				</g>
				<g>
					<path class="st4" d="M414.3,143.9c0,9.6,6.9,17.5,6.9,17.5s7-7.8,7-17.5c0-9.6-6.9-17.5-6.9-17.5S414.3,134.2,414.3,143.9
						L414.3,143.9z"/>
					<rect x="420.8" y="140.8" class="st3" width="0.7" height="25.4"/>
				</g>
			</g>
			<path class="st3" d="M308.4,154.2c-6.1,1.9-7.1-0.7-14.7,0.4c-5.9,0.9-7.5,5.4-12.8,4.4c-5.5-1.1-12.8-3.6-20.6,0.6
				c-8.5,4.5-6.4,18.8-6.4,18.8l39.9,21l32.1-6.2l0.3-42.4C317.4,145.7,312.7,152.9,308.4,154.2z"/>
			<g>
				<path class="st4" d="M216.2,122c0,9.4,6.7,17,6.7,17s6.7-7.6,6.7-17s-6.7-17-6.7-17S216.2,112.6,216.2,122z"/>
				<g>
					<path class="st0" d="M203.8,119.3c0,9.4,6.7,17,6.7,17s6.7-7.6,6.7-17s-6.7-17-6.7-17S203.8,109.9,203.8,119.3z"/>
					<rect x="210.2" y="119" class="st3" width="0.7" height="41.8"/>
				</g>
				<g>
					<path class="st4" d="M199,103.3c0,0-7.8,6.8-7.8,15.2s7.8,15.2,7.8,15.2s7.8-6.8,7.8-15.2S199,103.3,199,103.3z"/>
					<rect x="198.7" y="114.1" class="st3" width="0.7" height="43"/>
				</g>
			</g>
		</g>
		<g id="phase1_1_">
			<path class="st0" d="M225.3,134.9c-6.8-0.1-10.1,10.9-20,5.9c-12.2-6.3-15.8,5.4-23.1,1c-6.9-4.1-6-14.6-18.3-15.9
				c-5.9-0.6-8.3,2-14.4-0.4c-5.2-2.1-13.9,7.5-13.9,7.5v45.5l89.7-12.5C225.3,166,234.1,135,225.3,134.9L225.3,134.9z"/>
			<g>
				<polygon class="st0" points="225.3,134.9 244.5,134.9 259.1,114.7 239.9,114.7 				"/>
				<rect x="225.3" y="134.9" class="st4" width="19.2" height="49.9"/>
				<polygon class="st3" points="244.6,184.6 259.1,184.6 259.1,134.9 259.1,114.7 244.6,134.9 				"/>
				<rect x="250.7" y="148.3" class="st0" width="2.3" height="8.4"/>
			</g>
			<path class="st4" d="M418.1,166.1c-7.1-3.1-5-7.3-11.1-9.1c-7.3-2.2-10.8,5.1-14.4,1.4c-3.4-3.4-2.7-9.1-10.8-7.8v47.3h50.4
				v-29.4C427,162.9,422.5,168.1,418.1,166.1L418.1,166.1z"/>
			<g>
				<polygon class="st0" points="336.7,136.8 347.6,150.6 381.8,150.6 371,136.8 				"/>
				<polygon class="st4" points="325.9,150.6 325.9,194.5 347.5,194.5 347.5,150.6 336.7,136.8 				"/>
				<rect x="347.6" y="150.6" class="st3" width="34.2" height="43.9"/>
				<rect x="355.9" y="157.1" class="st0" width="2.5" height="2.1"/>
				<rect x="355.9" y="163.4" class="st0" width="2.5" height="2.1"/>
				<rect x="363.5" y="157.1" class="st0" width="2.5" height="2.1"/>
				<rect x="363.5" y="163.4" class="st0" width="2.5" height="2.1"/>
				<rect x="371" y="157.1" class="st0" width="2.5" height="2.1"/>
				<rect x="371" y="163.4" class="st0" width="2.5" height="2.1"/>
				<rect x="355.9" y="169.7" class="st0" width="2.5" height="2.1"/>
				<rect x="363.5" y="169.7" class="st0" width="2.5" height="2.1"/>
				<rect x="371" y="169.7" class="st0" width="2.5" height="2.1"/>
				<rect x="331.7" y="157.1" class="st0" width="2.5" height="2.1"/>
				<rect x="331.7" y="163.4" class="st0" width="2.5" height="2.1"/>
				<rect x="339.2" y="157.1" class="st0" width="2.5" height="2.1"/>
				<rect x="339.2" y="163.4" class="st0" width="2.5" height="2.1"/>
				<rect x="331.7" y="169.7" class="st0" width="2.5" height="2.1"/>
				<rect x="339.2" y="169.7" class="st0" width="2.5" height="2.1"/>
			</g>
			<polygon class="st0" points="103.3,197.1 113,195.7 135.6,195.7 135.6,143.7 103.3,143.7 			"/>
			<g>
				<polygon class="st0" points="103.3,116.1 121.6,116.1 135.6,95.9 117.2,95.9 				"/>
				<rect x="103.3" y="116.1" class="st4" width="18.3" height="27.6"/>
				<polygon class="st3" points="121.6,143.5 135.6,143.5 135.6,116.1 135.6,95.9 121.6,116.1 				"/>
				<rect x="127.5" y="116" class="st0" width="2.2" height="8.4"/>
				<rect x="127.5" y="129.5" class="st0" width="2.2" height="8.4"/>
			</g>
		</g>
	</g>
	<g id="blueBuilds_1_">
		<g id="phase4-2">
			<g>
				<polygon class="st7" points="497.5,181.7 469.9,181.7 469.9,272.7 510.6,272.7 510.6,199 497.5,199 				"/>
				<polygon class="st7" points="472.2,157.8 460.1,170.5 460.1,181.7 484.4,181.7 484.4,170.5 				"/>
				<polygon class="st5" points="444,157.8 432,170.5 460.2,170.5 472.2,157.8 				"/>
				<polygon class="st6" points="460.1,170.5 432,170.5 432,181.7 432,231.8 469.9,231.8 469.9,181.7 460.1,181.7 				"/>
				<rect x="435.3" y="174.4" class="st5" width="3.8" height="5"/>
				<rect x="444.5" y="174.4" class="st5" width="3.8" height="5"/>
				<rect x="453.8" y="174.4" class="st5" width="3.8" height="5"/>
				<rect x="435.3" y="188.9" class="st5" width="3.8" height="5"/>
				<rect x="444.5" y="188.9" class="st5" width="3.8" height="5"/>
				<rect x="453.8" y="188.9" class="st5" width="3.8" height="5"/>
				<rect x="463" y="188.9" class="st5" width="3.8" height="5"/>
				<rect x="435.3" y="203.5" class="st5" width="3.8" height="5"/>
				<rect x="444.5" y="203.5" class="st5" width="3.8" height="5"/>
				<rect x="453.8" y="203.5" class="st5" width="3.8" height="5"/>
				<rect x="463" y="203.5" class="st5" width="3.8" height="5"/>
				<rect x="474.6" y="188.9" class="st5" width="3.8" height="5"/>
				<rect x="483.9" y="188.9" class="st5" width="3.8" height="5"/>
				<rect x="474.6" y="203.5" class="st5" width="3.8" height="5"/>
				<rect x="483.9" y="203.5" class="st5" width="3.8" height="5"/>
				<rect x="493.1" y="203.5" class="st5" width="3.8" height="5"/>
				<rect x="502.4" y="203.5" class="st5" width="3.8" height="5"/>
				<rect x="474.6" y="218.1" class="st5" width="3.8" height="5"/>
				<rect x="483.9" y="218.1" class="st5" width="3.8" height="5"/>
				<rect x="493.1" y="218.1" class="st5" width="3.8" height="5"/>
				<rect x="502.4" y="218.1" class="st5" width="3.8" height="5"/>
			</g>
			<path class="st7" d="M96.6,123.6c-1.2,0-2.4,0.3-3.5,1c-0.2-3.7-3.4-6.6-7.1-6.4c-2.7,0.1-5,1.9-6,4.4c-1.2-1.1-2.8-1.8-4.5-1.8
				c-3.5,0-6.4,2.7-6.7,6.2c-1.2-0.9-2.6-1.4-4.1-1.4c-3.8,0-6.8,3.1-6.8,6.9l0,0c0,0,0,0.1,0,0.2c-0.9-0.4-1.9-0.7-2.9-0.6
				c-3.7,0-6.7,3-6.8,6.7c-1.3-1.4-3.1-2.2-5-2.2c-3.8,0-6.8,3.1-6.8,6.9l0,0h66.8v-12.9C103.4,126.8,100.4,123.7,96.6,123.6
				L96.6,123.6z"/>
		</g>
		<g id="phase3-2_1_">
			<g>
				<polygon class="st5" points="38.3,170.6 93.6,170.6 103.3,143.7 48,143.7 				"/>
				<polygon class="st6" points="86,170.6 89.4,170.6 99.1,143.7 95.7,143.7 				"/>
				<polygon class="st6" points="42.3,170.6 45.7,170.6 55.4,143.7 52,143.7 				"/>
				<polygon class="st6" points="77.3,170.6 80.7,170.6 90.4,143.7 87,143.7 				"/>
				<polygon class="st6" points="68.5,170.6 71.9,170.6 81.6,143.7 78.2,143.7 				"/>
				<polygon class="st6" points="59.8,170.6 63.2,170.6 72.9,143.7 69.5,143.7 				"/>
				<polygon class="st6" points="51,170.6 54.4,170.6 64.1,143.7 60.7,143.7 				"/>
				<polygon class="st6" points="93.6,170.6 93.6,223.9 113.2,223.9 113.2,170.6 103.4,143.7 				"/>
				<rect x="38.3" y="170.6" class="st7" width="55.3" height="53.1"/>
			</g>
			<polygon class="st7" points="78.2,231.6 163.9,231.6 163.9,195.7 113,195.7 			"/>
			<path class="st5" d="M353.6,187.3c-9.9,3-11.5-1.2-23.8,0.6c-9.5,1.4-12.2,8.6-20.7,6.9c-8.9-1.7-20.7-5.6-33.2,0.9
				c-13.8,7.2-10.3,29.8-10.3,29.8l22.9,6.3H382v-51.3C367.1,174.7,360.5,185.2,353.6,187.3z"/>
		</g>
		<g id="phase2-2_1_">
			<g>
				<polygon class="st5" points="267.5,159.5 275.8,168.1 302.2,168.1 293.8,159.5 				"/>
				<polygon class="st7" points="259.1,168.1 259.1,195.8 275.9,195.8 275.9,168.1 267.5,159.5 				"/>
				<rect x="275.8" y="168.1" class="st6" width="26.3" height="27.5"/>
				<g>
					<rect x="282.2" y="175" class="st5" width="1.9" height="2"/>
					<rect x="282.2" y="180.9" class="st5" width="1.9" height="2"/>
					<rect x="288" y="175" class="st5" width="1.9" height="2"/>
					<rect x="288" y="180.9" class="st5" width="1.9" height="2"/>
					<rect x="293.8" y="175" class="st5" width="1.9" height="2"/>
					<rect x="293.8" y="180.9" class="st5" width="1.9" height="2"/>
					<rect x="282.2" y="186.9" class="st5" width="1.9" height="2"/>
					<rect x="288" y="186.9" class="st5" width="1.9" height="2"/>
					<rect x="293.8" y="186.9" class="st5" width="1.9" height="2"/>
				</g>
			</g>
			<g>
				<polygon class="st5" points="135.6,143.7 149.7,132.2 149.7,114.5 135.6,125.9 				"/>
				<polygon class="st6" points="149.7,132.2 163.9,143.7 163.9,125.9 149.7,114.5 				"/>
				<polygon class="st7" points="135.6,143.7 135.6,195.8 163.9,195.7 163.9,143.7 149.7,132.2 				"/>
				<rect x="158.3" y="150.9" class="st5" width="1.6" height="1.6"/>
				<rect x="158.3" y="155.7" class="st5" width="1.6" height="1.6"/>
				<rect x="158.3" y="160.5" class="st5" width="1.6" height="1.6"/>
				<rect x="153.6" y="146.1" class="st5" width="1.6" height="1.6"/>
				<rect x="153.6" y="150.9" class="st5" width="1.6" height="1.6"/>
				<rect x="153.6" y="155.7" class="st5" width="1.6" height="1.6"/>
				<rect x="153.6" y="160.5" class="st5" width="1.6" height="1.6"/>
				<rect x="148.9" y="141.3" class="st5" width="1.6" height="1.6"/>
				<rect x="148.9" y="146.1" class="st5" width="1.6" height="1.6"/>
				<rect x="148.9" y="150.9" class="st5" width="1.6" height="1.6"/>
				<rect x="148.9" y="155.7" class="st5" width="1.6" height="1.6"/>
				<rect x="148.9" y="160.5" class="st5" width="1.6" height="1.6"/>
				<rect x="144.2" y="146.1" class="st5" width="1.6" height="1.6"/>
				<rect x="144.2" y="150.9" class="st5" width="1.6" height="1.6"/>
				<rect x="144.2" y="155.7" class="st5" width="1.6" height="1.6"/>
				<rect x="144.2" y="160.5" class="st5" width="1.6" height="1.6"/>
				<rect x="139.5" y="150.9" class="st5" width="1.6" height="1.6"/>
				<rect x="139.5" y="155.7" class="st5" width="1.6" height="1.6"/>
				<rect x="139.5" y="160.5" class="st5" width="1.6" height="1.6"/>
				<rect x="158.3" y="165.3" class="st5" width="1.6" height="1.6"/>
				<rect x="153.6" y="165.3" class="st5" width="1.6" height="1.6"/>
				<rect x="148.9" y="165.3" class="st5" width="1.6" height="1.6"/>
				<rect x="144.2" y="165.3" class="st5" width="1.6" height="1.6"/>
				<rect x="139.5" y="165.3" class="st5" width="1.6" height="1.6"/>
			</g>
			<g>
				<g>
					<path class="st5" d="M109.7,201.7c0,10.9,7.8,19.8,7.8,19.8s7.9-8.8,7.9-19.8c0-10.9-7.9-19.8-7.9-19.8
						S109.7,190.8,109.7,201.7z"/>
					<rect x="117.1" y="198.3" class="st7" width="0.7" height="26.2"/>
					<polygon class="st7" points="117.5,205.5 114.9,202.8 114.4,203.3 117.5,206.6 120.7,203.3 120.1,202.8 					"/>
				</g>
				<g>
					<path class="st5" d="M134.3,202.5c0,9.6,7,17.5,7,17.5s6.9-7.8,6.9-17.5c0-9.6-6.9-17.5-6.9-17.5S134.3,192.8,134.3,202.5
						L134.3,202.5z"/>
					<rect x="140.8" y="199.3" class="st7" width="0.7" height="25.4"/>
				</g>
				<g>
					<path class="st7" d="M122,194.5c0,10.9,7.9,19.8,7.9,19.8s7.9-8.8,7.9-19.8c0-10.9-7.9-19.8-7.9-19.8S122,183.6,122,194.5z"/>
					<rect x="129.4" y="192.1" class="st5" width="0.7" height="33.2"/>
				</g>
			</g>
		</g>
		<g id="phase1-2_1_">
			<g>
				<polygon class="st7" points="13.1,199.1 0,199.1 0,272.8 40.7,272.8 40.7,181.8 13.1,181.8 				"/>
				<polygon class="st7" points="26.2,170.6 26.2,181.8 50.5,181.8 50.5,170.6 38.4,157.9 				"/>
				<polygon class="st5" points="38.4,157.9 50.4,170.6 78.6,170.6 66.6,157.9 				"/>
				<polygon class="st6" points="50.5,181.8 40.7,181.8 40.7,231.9 78.6,231.9 78.6,181.8 78.6,170.6 50.5,170.6 				"/>
				<rect x="71.5" y="174.5" class="st5" width="3.8" height="5"/>
				<rect x="62.3" y="174.5" class="st5" width="3.8" height="5"/>
				<rect x="53" y="174.5" class="st5" width="3.8" height="5"/>
				<rect x="71.5" y="189" class="st5" width="3.8" height="5"/>
				<rect x="62.3" y="189" class="st5" width="3.8" height="5"/>
				<rect x="53" y="189" class="st5" width="3.8" height="5"/>
				<rect x="43.8" y="189" class="st5" width="3.8" height="5"/>
				<rect x="71.5" y="203.6" class="st5" width="3.8" height="5"/>
				<rect x="62.3" y="203.6" class="st5" width="3.8" height="5"/>
				<rect x="53" y="203.6" class="st5" width="3.8" height="5"/>
				<rect x="43.8" y="203.6" class="st5" width="3.8" height="5"/>
				<rect x="32.2" y="189" class="st5" width="3.8" height="5"/>
				<rect x="22.9" y="189" class="st5" width="3.8" height="5"/>
				<rect x="32.2" y="203.6" class="st5" width="3.8" height="5"/>
				<rect x="22.9" y="203.6" class="st5" width="3.8" height="5"/>
				<rect x="13.7" y="203.6" class="st5" width="3.8" height="5"/>
				<rect x="4.4" y="203.6" class="st5" width="3.8" height="5"/>
				<rect x="32.2" y="218.2" class="st5" width="3.8" height="5"/>
				<rect x="22.9" y="218.2" class="st5" width="3.8" height="5"/>
				<rect x="13.7" y="218.2" class="st5" width="3.8" height="5"/>
				<rect x="4.4" y="218.2" class="st5" width="3.8" height="5"/>
			</g>
			<g>
				<g>
					<polygon class="st8" points="381.8,188.4 403.6,188.6 403.6,180.4 381.8,180.5 					"/>
					<polygon class="st8" points="413.1,171.1 391.5,171.1 381.8,180.5 403.5,180.5 					"/>
					<polygon class="st8" points="372.2,197.8 372.2,197.8 372.2,231.7 393.9,231.7 393.9,197.8 393.9,197.8 403.6,188.6 
						381.8,188.4 					"/>
				</g>
				<polygon class="st9" points="422.7,188.5 422.7,180.5 422.8,180.5 422.7,180.5 422.7,180.4 422.6,180.4 413.1,171.1 
					403.6,180.4 403.6,180.4 403.6,180.4 403.5,180.5 403.6,180.5 403.6,188.6 393.8,197.8 393.8,231.9 403.7,231.9 422.8,231.9 
					432.1,231.9 432.1,197.8 				"/>
				<rect x="408" y="186.8" class="st5" width="2" height="4"/>
				<rect x="416.2" y="186.8" class="st5" width="2" height="4"/>
				<rect x="408" y="193.9" class="st5" width="2" height="4"/>
				<rect x="416.2" y="193.9" class="st5" width="2" height="4"/>
				<rect x="408" y="200.9" class="st5" width="2" height="4"/>
				<rect x="416.2" y="200.9" class="st5" width="2" height="4"/>
				<rect x="408" y="208" class="st5" width="2" height="4"/>
				<rect x="416.2" y="208" class="st5" width="2" height="4"/>
				<rect x="408" y="215.1" class="st5" width="2" height="4"/>
				<rect x="416.2" y="215.1" class="st5" width="2" height="4"/>
				<rect x="408" y="222.1" class="st5" width="2" height="4"/>
				<rect x="416.2" y="222.1" class="st5" width="2" height="4"/>
				<rect x="399.8" y="200.9" class="st5" width="2" height="4"/>
				<rect x="399.8" y="208" class="st5" width="2" height="4"/>
				<rect x="399.8" y="215.1" class="st5" width="2" height="4"/>
				<rect x="399.8" y="222.1" class="st5" width="2" height="4"/>
				<rect x="424.5" y="200.9" class="st5" width="2" height="4"/>
				<rect x="424.5" y="208" class="st5" width="2" height="4"/>
				<rect x="424.5" y="215.1" class="st5" width="2" height="4"/>
				<rect x="424.5" y="222.1" class="st5" width="2" height="4"/>
			</g>
		</g>
	</g>
	<g id="purpleBuilds_1_">
		<g id="phase4-3">
			<g>
				<polygon class="st12" points="495.1,191 518,191 529.9,178.8 507.1,178.8 				"/>
				<polygon class="st13" points="518,191 518,232.2 541.9,232.2 541.9,191 530,178.8 				"/>
				<rect x="495.1" y="191" class="st10" width="22.9" height="41.2"/>
				<rect x="512.5" y="195.4" class="st12" width="1.6" height="1.6"/>
				<rect x="512.5" y="200.2" class="st12" width="1.6" height="1.6"/>
				<rect x="512.5" y="205" class="st12" width="1.6" height="1.6"/>
				<rect x="512.5" y="209.8" class="st12" width="1.6" height="1.6"/>
				<rect x="512.5" y="214.6" class="st12" width="1.6" height="1.6"/>
				<rect x="507.8" y="195.4" class="st12" width="1.6" height="1.6"/>
				<rect x="507.8" y="200.2" class="st12" width="1.6" height="1.6"/>
				<rect x="507.8" y="205" class="st12" width="1.6" height="1.6"/>
				<rect x="507.8" y="209.8" class="st12" width="1.6" height="1.6"/>
				<rect x="507.8" y="214.6" class="st12" width="1.6" height="1.6"/>
				<rect x="503.1" y="195.4" class="st12" width="1.6" height="1.6"/>
				<rect x="503.1" y="200.2" class="st12" width="1.6" height="1.6"/>
				<rect x="503.1" y="205" class="st12" width="1.6" height="1.6"/>
				<rect x="503.1" y="209.8" class="st12" width="1.6" height="1.6"/>
				<rect x="503.1" y="214.6" class="st12" width="1.6" height="1.6"/>
				<rect x="498.5" y="195.4" class="st12" width="1.6" height="1.6"/>
				<rect x="498.5" y="200.2" class="st12" width="1.6" height="1.6"/>
				<rect x="498.5" y="205" class="st12" width="1.6" height="1.6"/>
				<rect x="498.5" y="209.8" class="st12" width="1.6" height="1.6"/>
				<rect x="498.5" y="214.6" class="st12" width="1.6" height="1.6"/>
				<rect x="512.5" y="219.4" class="st12" width="1.6" height="1.6"/>
				<rect x="507.8" y="219.4" class="st12" width="1.6" height="1.6"/>
				<rect x="503.1" y="219.4" class="st12" width="1.6" height="1.6"/>
				<rect x="498.5" y="219.4" class="st12" width="1.6" height="1.6"/>
				<polygon class="st13" points="498.6,191 499.8,191 511.8,178.8 510.6,178.8 				"/>
				<polygon class="st13" points="503.7,191 504.9,191 516.8,178.8 515.6,178.8 				"/>
				<polygon class="st13" points="508.7,191 509.9,191 521.8,178.8 520.6,178.8 				"/>
				<polygon class="st13" points="513.7,191 514.9,191 526.9,178.8 525.7,178.8 				"/>
			</g>
			<path class="st10" d="M108.1,47.2c0.9,0,1.9,0.2,2.7,0.7c0-0.2,0-0.3,0-0.5c-0.1-5.2,4.1-9.5,9.3-9.5c0.9,0,1.9,0.1,2.8,0.4
				c0.2-3.2,2.9-5.7,6.1-5.5c3,0.2,5.3,2.5,5.5,5.5c1-0.5,2.2-0.7,3.3-0.7c4.6,0.1,8.2,3.8,8.2,8.4c0,0.2,0,0.5,0,0.7
				c0.2,0,0.4,0,0.6,0c3.3,0.1,5.9,2.8,5.9,6.1c-0.1,2.8-2.1,5.2-4.8,5.7c-1.9,2.5-9.9,4.4-19.5,4.4c-8.8,0-16.3-1.6-18.9-3.8
				c-0.3,0.1-0.7,0.1-1,0.1c-3.3-0.1-5.9-2.9-5.7-6.2C102.6,49.8,105.1,47.3,108.1,47.2L108.1,47.2z"/>
		</g>
		<g id="phase3-3_1_">
			<g>
				<g>
					<path class="st11" d="M322.9,203.2c-21,0-20,4.7-39-5.8c-13.8-7.6-24.8-1.7-24.8-1.7v35.9h103.5
						C362.6,231.6,337.7,203.2,322.9,203.2L322.9,203.2z"/>
					<path class="st10" d="M384.9,225.5c-1.4,0-2.8,0.3-4.1,0.8c0-0.2,0-0.4,0-0.6c0-6.4-6.5-11.5-14.5-11.5c-1.5,0-2.9,0.2-4.3,0.5
						c-0.4-3.7-4.3-6.7-9-6.7v23.9h40.9C393.4,228.3,389.5,225.5,384.9,225.5L384.9,225.5z"/>
				</g>
				<g>
					<path class="st12" d="M251.1,172.4c-1.4,0-2.9,0.4-4.1,1.2c-0.2-4.4-4-7.7-8.3-7.5c-3.1,0.2-5.9,2.2-7,5.1
						c-1.4-1.3-3.3-2.1-5.3-2.1c-4.1,0-7.5,3.2-7.9,7.3c-1.4-1.1-3.1-1.6-4.8-1.6c-4.4,0-8,3.7-8,8.1l0,0c0,0.1,0,0.1,0,0.2
						c-1-0.5-2.2-0.8-3.4-0.8c-4.3,0-7.9,3.5-8,7.9c-1.5-1.7-3.6-2.7-5.9-2.7c-4.4,0-8,3.7-8,8.1l0,0h78.5v-15.1
						C259.1,176.2,255.6,172.5,251.1,172.4C251.1,172.5,251.1,172.5,251.1,172.4L251.1,172.4z"/>
					<g>
						<polygon class="st11" points="201.4,161.3 225.3,161.3 213.3,149.1 						"/>
						<polygon class="st12" points="163.9,161.3 201.4,161.3 213.3,149.1 175.8,149.1 						"/>
						<rect x="201.4" y="161.3" class="st11" width="23.8" height="34.4"/>
						<rect x="163.9" y="161.3" class="st10" width="37.6" height="34.4"/>
					</g>
				</g>
			</g>
			<g>
				<path class="st12" d="M15.3,253.2c0,7,5,12.6,5,12.6s5-5.6,5-12.6c0-7-5-12.6-5-12.6S15.3,246.3,15.3,253.2z"/>
				<rect x="19.9" y="251.7" class="st11" width="0.7" height="21.1"/>
			</g>
		</g>
		<g id="phase2-3_1_">
			<g>
				<path class="st10" d="M143.9,214.2c-15.7,10.5-20,2.8-37.3,2.8c-12.2,0-28.1,14.6-28.1,14.6l85.3,6.7v-28.2
					C163.8,210.1,155.3,206.5,143.9,214.2L143.9,214.2z"/>
				<path class="st12" d="M150.4,239.8c-6.2,0.6-5.2-6.7-14.8-5.9c-5.8,0.4-7.2,3.6-12.7-0.1s-11.6-9.7-22.9-7.9
					c-12.4,2-31.4,40.9-31.4,40.9l20.2-2.4l74.5-17.2l6.5-7.7C162.3,229.4,155.9,239.3,150.4,239.8L150.4,239.8z"/>
			</g>
			<g>
				<g>
					<path class="st11" d="M152.9,224.1l-7.2,29.6l18.5-2l-6.7-27.6c-0.3-1.3-1.5-2.1-2.8-1.8C153.8,222.5,153.1,223.2,152.9,224.1
						L152.9,224.1z"/>
					<path class="st11" d="M141.9,223.1l-7.2,29.6l18.5-2l-6.7-27.6c-0.3-1.3-1.5-2.1-2.8-1.8C142.8,221.5,142.1,222.2,141.9,223.1
						L141.9,223.1z"/>
				</g>
				<g>
					<rect x="154.8" y="229.4" class="st12" width="0.7" height="17.4"/>
					<polygon class="st12" points="154.8,237 154.8,240.2 151.9,237.2 151.4,237.7 155.5,242 155.5,237.2 158,233.4 157.3,233 					
						"/>
					<rect x="143.8" y="228.4" class="st12" width="0.7" height="25.1"/>
					<polygon class="st12" points="143.8,236 143.8,239.2 140.9,236.2 140.4,236.7 144.5,241 144.5,236.2 147,232.4 146.3,232 					
						"/>
				</g>
			</g>
			<polygon class="st12" points="364.3,231.7 446.4,231.7 432.2,272.8 364.3,272.8 			"/>
		</g>
		<g id="phase1-3_1_">
			<g>
				<path class="st10" d="M146.1,246.7c-3.7,4.8-6,0.3-10.6,2.1c-6,2.5-10.9,15.7-17.9,14.3c-7.1-1.3-11.4-2.5-11.4-2.5l-2.2,7.2
					l53.8,1.9l7.9-31.4C159.1,236.3,149.7,241.8,146.1,246.7L146.1,246.7z"/>
				<path class="st11" d="M140,261.4c-6-1.6-2.6-8-11.9-10.7c-5.6-1.6-8,0.8-11.9-4.5s-3-12.3-14.3-14.5c-12.3-2.4-52.7,30-52.7,30
					l-8.6,11.2h109.1l8.7-5C154.7,255.8,145.4,262.9,140,261.4z"/>
			</g>
			<g>
				<polygon class="st12" points="40.5,231.6 78.1,231.6 90,219.4 52.5,219.4 				"/>
				<polygon class="st13" points="78.1,231.6 78.1,273 102,273 102,231.6 90,219.4 				"/>
				<rect x="40.5" y="231.6" class="st10" width="37.6" height="41.2"/>
				<rect x="72.6" y="236" class="st12" width="1.6" height="1.6"/>
				<rect x="72.6" y="240.8" class="st12" width="1.6" height="1.6"/>
				<rect x="72.6" y="245.6" class="st12" width="1.6" height="1.6"/>
				<rect x="72.6" y="250.4" class="st12" width="1.6" height="1.6"/>
				<rect x="72.6" y="255.2" class="st12" width="1.6" height="1.6"/>
				<rect x="67.9" y="236" class="st12" width="1.6" height="1.6"/>
				<rect x="67.9" y="240.8" class="st12" width="1.6" height="1.6"/>
				<rect x="67.9" y="245.6" class="st12" width="1.6" height="1.6"/>
				<rect x="67.9" y="250.4" class="st12" width="1.6" height="1.6"/>
				<rect x="67.9" y="255.2" class="st12" width="1.6" height="1.6"/>
				<rect x="63.2" y="236" class="st12" width="1.6" height="1.6"/>
				<rect x="63.2" y="240.8" class="st12" width="1.6" height="1.6"/>
				<rect x="63.2" y="245.6" class="st12" width="1.6" height="1.6"/>
				<rect x="63.2" y="250.4" class="st12" width="1.6" height="1.6"/>
				<rect x="63.2" y="255.2" class="st12" width="1.6" height="1.6"/>
				<rect x="58.5" y="236" class="st12" width="1.6" height="1.6"/>
				<rect x="58.5" y="240.8" class="st12" width="1.6" height="1.6"/>
				<rect x="58.5" y="245.6" class="st12" width="1.6" height="1.6"/>
				<rect x="58.5" y="250.4" class="st12" width="1.6" height="1.6"/>
				<rect x="58.5" y="255.2" class="st12" width="1.6" height="1.6"/>
				<rect x="53.8" y="236" class="st12" width="1.6" height="1.6"/>
				<rect x="53.8" y="240.8" class="st12" width="1.6" height="1.6"/>
				<rect x="53.8" y="245.6" class="st12" width="1.6" height="1.6"/>
				<rect x="53.8" y="250.4" class="st12" width="1.6" height="1.6"/>
				<rect x="53.8" y="255.2" class="st12" width="1.6" height="1.6"/>
				<rect x="49.1" y="236" class="st12" width="1.6" height="1.6"/>
				<rect x="49.1" y="240.8" class="st12" width="1.6" height="1.6"/>
				<rect x="49.1" y="245.6" class="st12" width="1.6" height="1.6"/>
				<rect x="49.1" y="250.4" class="st12" width="1.6" height="1.6"/>
				<rect x="49.1" y="255.2" class="st12" width="1.6" height="1.6"/>
				<rect x="72.6" y="260" class="st12" width="1.6" height="1.6"/>
				<rect x="67.9" y="260" class="st12" width="1.6" height="1.6"/>
				<rect x="63.2" y="260" class="st12" width="1.6" height="1.6"/>
				<rect x="58.5" y="260" class="st12" width="1.6" height="1.6"/>
				<rect x="53.8" y="260" class="st12" width="1.6" height="1.6"/>
				<rect x="49.1" y="260" class="st12" width="1.6" height="1.6"/>
				<rect x="44.5" y="236" class="st12" width="1.6" height="1.6"/>
				<rect x="44.5" y="240.8" class="st12" width="1.6" height="1.6"/>
				<rect x="44.5" y="245.6" class="st12" width="1.6" height="1.6"/>
				<rect x="44.5" y="250.4" class="st12" width="1.6" height="1.6"/>
				<rect x="44.5" y="255.2" class="st12" width="1.6" height="1.6"/>
				<rect x="44.5" y="260" class="st12" width="1.6" height="1.6"/>
				<polygon class="st13" points="43.6,231.6 44.8,231.6 56.7,219.4 55.5,219.4 				"/>
				<polygon class="st13" points="48.7,231.6 49.9,231.6 61.8,219.4 60.6,219.4 				"/>
				<polygon class="st13" points="53.7,231.6 54.9,231.6 66.8,219.4 65.6,219.4 				"/>
				<polygon class="st13" points="58.7,231.6 59.9,231.6 71.8,219.4 70.7,219.4 				"/>
				<polygon class="st13" points="63.8,231.6 64.9,231.6 76.9,219.4 75.7,219.4 				"/>
				<polygon class="st13" points="68.8,231.6 70,231.6 81.9,219.4 80.7,219.4 				"/>
				<polygon class="st13" points="73.8,231.6 75,231.6 86.9,219.4 85.8,219.4 				"/>
			</g>
			<g>
				<rect x="397.8" y="244.2" class="st11" width="0.7" height="28.6"/>
				
					<rect x="396.8" y="251.1" transform="matrix(0.7659 -0.6429 0.6429 0.7659 -69.4559 314.4628)" class="st11" width="0.7" height="3"/>
				
					<rect x="397" y="251.1" transform="matrix(0.6431 -0.7658 0.7658 0.6431 -49.7285 396.163)" class="st11" width="6.2" height="0.7"/>
				
					<rect x="396.6" y="255.9" transform="matrix(0.6431 -0.7658 0.7658 0.6431 -53.1526 398.4299)" class="st11" width="8.5" height="0.7"/>
			</g>
			<g>
				<path class="st10" d="M383.1,253.3c-0.6-0.5-0.8-1.4-0.6-2.1c0.5-1.9,1.2-5,0.1-6c-0.4-0.4-0.8-0.6-1.4-0.7
					c-0.9-0.3-1.5-1.1-1.4-2l0,0c0-3.4-1.6-6.1-3.6-6.1s-3.6,2.7-3.6,6.1l0,0c0.1,0.9-0.5,1.7-1.4,2c-0.5,0.1-1,0.4-1.4,0.7
					c-1,1.1-0.4,4.2,0.1,6c0.2,0.8,0,1.6-0.6,2.1c-0.7,0.5-1.1,1.3-1.3,2.1c-0.4,2.3,3,7.4,8,11.9c5.1-4.5,8.5-9.6,8.1-11.9
					C384.2,254.6,383.8,253.8,383.1,253.3L383.1,253.3z"/>
				<polygon class="st11" points="376.2,248 373.6,246 373.1,246.6 376.2,248.9 379.3,246.6 378.9,246 				"/>
				<polygon class="st11" points="376.3,259.7 371.5,256.2 371.1,256.8 376.3,260.6 381.5,256.8 381.1,256.2 				"/>
				<polygon class="st11" points="376.2,253.5 371.7,250.2 371.3,250.8 376.2,254.4 381.1,250.8 380.7,250.2 				"/>
				<rect x="375.9" y="241.1" class="st11" width="0.7" height="31.7"/>
			</g>
			<g>
				<path class="st10" d="M426.2,243.5c-0.1-3.9-3.4-7.1-7.3-7s-7.1,3.4-7,7.3c0,0.9,0.2,1.8,0.6,2.7c0.9,1.9,0.9,4,0,5.8
					c-1.7,3.6-0.1,7.8,3.5,9.5s7.8,0.1,9.5-3.5c0.9-1.9,0.9-4,0-5.9s-0.9-4,0-5.8C426,245.6,426.2,244.6,426.2,243.5z"/>
				<rect x="418.8" y="246.5" class="st11" width="0.7" height="16.3"/>
				
					<rect x="417" y="249.3" transform="matrix(0.7057 -0.7085 0.7085 0.7057 -55.4309 369.7663)" class="st11" width="0.7" height="4.7"/>
				
					<rect x="418.1" y="256.2" transform="matrix(0.7082 -0.706 0.706 0.7082 -58.0612 372.5493)" class="st11" width="7.2" height="0.7"/>
				<rect x="418.8" y="243" class="st11" width="0.7" height="29.9"/>
				
					<rect x="417" y="249.3" transform="matrix(0.7057 -0.7085 0.7085 0.7057 -55.4309 369.7663)" class="st11" width="0.7" height="4.7"/>
				
					<rect x="418.4" y="251.3" transform="matrix(0.7082 -0.706 0.706 0.7082 -54.9102 370.4989)" class="st11" width="4.7" height="0.7"/>
				
					<rect x="417.6" y="245.8" transform="matrix(0.7056 -0.7086 0.7086 0.7056 -52.2912 368.9876)" class="st11" width="0.7" height="3.2"/>
				
					<rect x="418.7" y="247" transform="matrix(0.7082 -0.706 0.706 0.7082 -51.9631 368.8773)" class="st11" width="3.2" height="0.7"/>
				
					<rect x="418.1" y="256.2" transform="matrix(0.7082 -0.706 0.706 0.7082 -58.0612 372.5493)" class="st11" width="7.2" height="0.7"/>
				
					<rect x="416.2" y="253" transform="matrix(0.7056 -0.7086 0.7086 0.7056 -59.1997 370.7094)" class="st11" width="0.7" height="7.2"/>
			</g>
		</g>
	</g>
	<g id="yellowBuilds_1_">
		<g id="phase3-4">
			<g>
				<polygon class="st14" points="432.3,247.7 459.1,247.7 473.2,231.6 446.4,231.6 				"/>
				<rect x="432.3" y="247.7" class="st17" width="26.8" height="25.1"/>
				<polygon class="st16" points="458.9,273 473.4,273 473.4,247.7 473.4,231.6 458.9,247.7 				"/>
				<rect x="442.7" y="253.9" class="st14" width="5.8" height="4"/>
				<rect x="442.7" y="263.2" class="st14" width="5.8" height="4"/>
			</g>
			<rect x="473.4" y="231.6" class="st14" width="68.5" height="41.2"/>
			<path class="st16" d="M473.4,253.4v19.5h68.5v-5.2c-3.1,0.2-6.3,0.9-8.7,0.5c-6-1.1-2.6-5.5-11.9-7.3c-5.6-1.1-8.1,0.5-11.9-3.1
				c-3.8-3.6-5.7-6.6-16.9-8.1C485.9,248.9,479.2,250.3,473.4,253.4z"/>
		</g>
		<g id="phase2-4_1_">
			<polygon class="st14" points="184.2,177.4 204.5,195.7 259.4,195.9 238.7,177.4 			"/>
			<polygon class="st15" points="163.8,195.7 163.8,231.9 204.5,231.9 204.5,195.7 184.2,177.4 			"/>
			<polygon class="st15" points="221.9,195.7 232,186.8 211.8,186.7 			"/>
			<polygon class="st16" points="232,186.8 221.9,195.7 204.5,195.7 204.5,231.9 259.2,231.9 259.2,195.8 242.1,195.8 			"/>
			<rect x="195" y="203.4" class="st14" width="2" height="2"/>
			<rect x="195" y="209.6" class="st14" width="2" height="2"/>
			<rect x="195" y="215.7" class="st14" width="2" height="2"/>
			<rect x="195" y="221.8" class="st14" width="2" height="2"/>
			<rect x="189" y="203.4" class="st14" width="2" height="2"/>
			<rect x="189" y="209.6" class="st14" width="2" height="2"/>
			<rect x="189" y="215.7" class="st14" width="2" height="2"/>
			<rect x="189" y="221.8" class="st14" width="2" height="2"/>
			<rect x="183" y="203.4" class="st14" width="2" height="2"/>
			<rect x="183" y="209.6" class="st14" width="2" height="2"/>
			<rect x="183" y="215.7" class="st14" width="2" height="2"/>
			<rect x="183" y="221.8" class="st14" width="2" height="2"/>
			<rect x="177" y="203.4" class="st14" width="2" height="2"/>
			<rect x="177" y="209.6" class="st14" width="2" height="2"/>
			<rect x="177" y="215.7" class="st14" width="2" height="2"/>
			<rect x="177" y="221.8" class="st14" width="2" height="2"/>
			<rect x="171" y="203.4" class="st14" width="2" height="2"/>
			<rect x="171" y="209.6" class="st14" width="2" height="2"/>
			<rect x="171" y="215.7" class="st14" width="2" height="2"/>
			<rect x="171" y="221.8" class="st14" width="2" height="2"/>
			<rect x="251.5" y="199.9" class="st14" width="2.6" height="7"/>
			<rect x="241.1" y="199.9" class="st14" width="2.6" height="7"/>
			<rect x="230.6" y="199.9" class="st14" width="2.6" height="7"/>
			<rect x="220.2" y="199.9" class="st14" width="2.6" height="7"/>
			<rect x="209.8" y="199.9" class="st14" width="2.6" height="7"/>
			<rect x="251.5" y="212.4" class="st14" width="2.6" height="7"/>
			<rect x="241.1" y="212.4" class="st14" width="2.6" height="7"/>
			<rect x="230.6" y="212.4" class="st14" width="2.6" height="7"/>
			<rect x="220.2" y="212.4" class="st14" width="2.6" height="7"/>
			<rect x="209.8" y="212.4" class="st14" width="2.6" height="7"/>
			<path class="st14" d="M350.9,84.5c-0.9,0-1.9,0.2-2.7,0.7c0-0.2,0-0.3,0-0.5c0.1-5.2-4.1-9.5-9.3-9.5c-0.9,0-1.9,0.2-2.8,0.4
				c-0.2-3.2-2.9-5.7-6.1-5.5c-3,0.2-5.3,2.5-5.5,5.5c-1-0.5-2.2-0.7-3.3-0.7c-4.6,0.1-8.3,3.8-8.2,8.4c0,0.2,0,0.5,0,0.7
				c-0.2,0-0.4,0-0.6,0c-3.3,0.1-5.9,2.8-5.9,6.1c0,2.8,2.1,5.2,4.8,5.8c1.9,2.5,9.9,4.4,19.5,4.4c8.8,0,16.3-1.6,18.9-3.8
				c0.3,0.1,0.7,0.1,1,0.1c3.3-0.1,5.9-2.9,5.7-6.2C356.5,87.2,354,84.7,350.9,84.5L350.9,84.5z"/>
			<g>
				<path class="st17" d="M27.8,253.2c0,7,5,12.6,5,12.6s5-5.6,5-12.6c0-7-5-12.6-5-12.6S27.8,246.3,27.8,253.2z"/>
				<rect x="32.5" y="251.7" class="st16" width="0.7" height="21.1"/>
			</g>
		</g>
		<g id="phase1-4_1_">
			<g>
				<g>
					<polygon class="st14" points="149.8,247.7 176.6,247.7 190.8,231.6 164,231.6 					"/>
					<rect x="149.8" y="247.7" class="st17" width="26.8" height="25.1"/>
					<polygon class="st16" points="176.5,273 191,273 191,247.7 191,231.6 176.5,247.7 					"/>
					<rect x="160.2" y="254" class="st14" width="5.8" height="4"/>
					<rect x="160.2" y="263.2" class="st14" width="5.8" height="4"/>
				</g>
				<rect x="190.8" y="231.6" class="st14" width="68.5" height="41.2"/>
				<path class="st16" d="M240.2,249.6c-11.3,1.5-13.1,4.6-16.9,8.1c-3.8,3.5-6.3,2-11.9,3.1c-9.3,1.8-5.9,6.2-11.9,7.3
					c-2.4,0.4-5.6-0.3-8.7-0.5v5.2h68.5v-19.5C253.4,250.3,246.8,248.9,240.2,249.6z"/>
				<g>
					<polygon class="st18" points="259.2,234.1 259.2,272.8 341.8,272.8 341.8,231.6 259.2,231.6 					"/>
					<polygon class="st19" points="259.2,231.6 341.8,231.6 353.1,207.9 270.5,207.9 					"/>
					<polygon class="st20" points="353,208 341.8,231.6 341.8,273 364.3,273 364.3,231.7 364.3,231.9 364.2,231.9 					"/>
					<polygon class="st20" points="292.8,220.2 304.1,231.6 321,231.6 309.7,220.2 					"/>
					<path class="st19" d="M331.7,239.9c-1.2,0-2.2,1-2.2,2.2l0,0v3.6h4.5v-3.6C333.9,240.9,332.9,239.9,331.7,239.9
						C331.6,239.9,331.6,239.9,331.7,239.9L331.7,239.9z"/>
					<path class="st19" d="M271.2,239.9c-1.2,0-2.2,1-2.2,2.2l0,0v3.6h4.5v-3.6C273.4,240.9,272.4,239.9,271.2,239.9
						C271.2,239.9,271.1,239.9,271.2,239.9L271.2,239.9z"/>
					<path class="st19" d="M331.7,249.8c-1.2,0-2.2,1-2.2,2.2l0,0v3.6h4.5V252C333.9,250.8,332.9,249.8,331.7,249.8
						C331.6,249.8,331.6,249.8,331.7,249.8L331.7,249.8z"/>
					<path class="st19" d="M271.2,249.8c-1.2,0-2.2,1-2.2,2.2l0,0v3.6h4.5V252C273.4,250.8,272.4,249.8,271.2,249.8
						C271.2,249.8,271.1,249.8,271.2,249.8L271.2,249.8z"/>
					<path class="st19" d="M331.7,259.8c-1.2,0-2.2,1-2.2,2.2l0,0v3.6h4.5V262C333.9,260.8,332.9,259.8,331.7,259.8
						C331.6,259.8,331.6,259.8,331.7,259.8L331.7,259.8z"/>
					<path class="st19" d="M271.2,259.8c-1.2,0-2.2,1-2.2,2.2l0,0v3.6h4.5V262C273.4,260.8,272.4,259.8,271.2,259.8
						C271.2,259.8,271.1,259.8,271.2,259.8L271.2,259.8z"/>
					<rect x="304.1" y="231.7" class="st16" width="16.8" height="41.1"/>
					<polygon class="st1" points="292.8,220.2 281.6,231.7 281.9,231.9 281.7,231.9 281.7,273 304.1,273 304.1,231.9 304.1,231.7 
											"/>
					<path class="st19" d="M292.9,239.9L292.9,239.9c-1.2,0-2.2,1-2.2,2.2l0,0v3.6h4.5v-3.6C295.1,240.9,294.1,239.9,292.9,239.9
						L292.9,239.9L292.9,239.9z"/>
					<path class="st19" d="M292.9,249.8L292.9,249.8c-1.2,0-2.2,1-2.2,2.2l0,0v3.6h4.5V252C295.1,250.8,294.1,249.8,292.9,249.8
						L292.9,249.8L292.9,249.8z"/>
					<path class="st19" d="M292.9,259.8L292.9,259.8c-1.2,0-2.2,1-2.2,2.2l0,0v3.6h4.5V262C295.1,260.8,294.1,259.8,292.9,259.8
						L292.9,259.8L292.9,259.8z"/>
				</g>
			</g>
			<g>
				<path class="st17" d="M241,237.6c0,9.4,6.7,17,6.7,17s6.7-7.6,6.7-17s-6.7-17-6.7-17S241,228.3,241,237.6z"/>
				<rect x="247.4" y="234.7" class="st16" width="0.7" height="22.5"/>
			</g>
			<g>
				<path class="st17" d="M211.8,239.7c0,9.4,6.7,17,6.7,17s6.7-7.6,6.7-17s-6.7-17-6.7-17S211.8,230.3,211.8,239.7z"/>
				<rect x="218.2" y="239.3" class="st16" width="0.7" height="22.5"/>
			</g>
			<g>
				<path class="st17" d="M195.2,238.4c0,12.3,9.6,22.3,9.6,22.3s9.6-10,9.6-22.3s-9.6-22.3-9.6-22.3S195.2,226,195.2,238.4z"/>
				<rect x="204.5" y="234.4" class="st16" width="0.7" height="29.6"/>
			</g>
		</g>
	</g>
</g>
</svg>
