<svg version="1.1" id="pine-pineSpiral" xmlns="http://www.w3.org/2000/svg" xmlns:xlink="http://www.w3.org/1999/xlink" x="0px"
	 y="0px" viewBox="0 0 711.6 711.6" style="enable-background:new 0 0 711.6 711.6;" xml:space="preserve">
<style type="text/css">
	.st0{fill:url(#SVGID_1_);}
	.st1{fill:url(#SVGID_2_);}
	.st2{fill:url(#SVGID_3_);}
	.st3{fill:url(#SVGID_4_);}
	.st4{fill:#7B6CE6;}
	.st5{fill:#00A8F0;}
	.st6{fill:#2DD687;}
	.st7{fill:none;stroke:#FCC200;stroke-miterlimit:10;}
	.st8{fill:none;stroke:#00A8F0;stroke-miterlimit:10;}
	.st9{fill:none;stroke:#2DD687;stroke-miterlimit:10;}
	.st10{fill:none;stroke:#7B6CE6;stroke-miterlimit:10;}
	.st11{fill:none;stroke:#FCC200;stroke-width:0.25;stroke-miterlimit:10;}
	.st12{fill:none;stroke:#40BEF4;stroke-width:0.25;stroke-miterlimit:10;}
	.st13{fill:none;stroke:#2DD687;stroke-width:0.25;stroke-miterlimit:10;}
	.st14{fill:none;stroke:#7B6CE6;stroke-width:0.25;stroke-miterlimit:10;}
	.st15{fill:#FCC200;}
	.st16{fill:#FFFFFF;}
</style>
<title>captionsSpiral3</title>
<g>
	
		<radialGradient id="SVGID_1_" cx="355.2738" cy="354.9568" r="271.2032" gradientTransform="matrix(1 0 0 -1 0 711.89)" gradientUnits="userSpaceOnUse">
		<stop  offset="0.1835" style="stop-color:#FCDA00"/>
		<stop  offset="0.5338" style="stop-color:#FDE75C"/>
		<stop  offset="0.5742" style="stop-color:#FDE96C"/>
		<stop  offset="0.7157" style="stop-color:#FEF1A0"/>
		<stop  offset="0.839" style="stop-color:#FFF6C5"/>
		<stop  offset="0.9379" style="stop-color:#FFFADD"/>
		<stop  offset="1" style="stop-color:#FFFBE5"/>
	</radialGradient>
	<path class="st0" d="M355.8,89.8v184.9l0,0c-5.6,0-11,0.6-16.3,1.7c-36.9,7.6-64.7,40.2-64.7,79.4H137
		C130,221.7,224.7,106.5,355.8,89.8z"/>
	
		<radialGradient id="SVGID_2_" cx="356.4319" cy="356.1149" r="432.3786" gradientTransform="matrix(1 0 0 -1 0 711.89)" gradientUnits="userSpaceOnUse">
		<stop  offset="0" style="stop-color:#00A8F0"/>
		<stop  offset="0.3671" style="stop-color:#5CC7F5"/>
		<stop  offset="0.4384" style="stop-color:#77D0F7"/>
		<stop  offset="0.5578" style="stop-color:#9EDEF9"/>
		<stop  offset="0.6758" style="stop-color:#BDE8FB"/>
		<stop  offset="0.7905" style="stop-color:#D3F0FC"/>
		<stop  offset="0.9003" style="stop-color:#E0F4FD"/>
		<stop  offset="1" style="stop-color:#E5F6FD"/>
	</radialGradient>
	<path class="st1" d="M377.9,686.9c-6.3,0.3-15.8,0.5-22.1,0.5V436.9c44.8,0,81.1-36.3,81.1-81.1l0,0h238.8v0.1
		C684.9,529.5,551.5,677.7,377.9,686.9z"/>
	
		<radialGradient id="SVGID_3_" cx="349.6852" cy="349.8416" r="455.3205" gradientTransform="matrix(1 0 0 -1 0 711.89)" gradientUnits="userSpaceOnUse">
		<stop  offset="0.1199" style="stop-color:#00D9B5"/>
		<stop  offset="0.3452" style="stop-color:#5CE7D0"/>
		<stop  offset="0.4632" style="stop-color:#86EDDC"/>
		<stop  offset="0.6254" style="stop-color:#B9F5EB"/>
		<stop  offset="0.748" style="stop-color:#D9F9F4"/>
		<stop  offset="0.8157" style="stop-color:#E5FBF8"/>
	</radialGradient>
	<path class="st2" d="M355.8,436.9v250.5C171,687.3,19.8,542.5,9.9,355.8h264.8C274.7,400.6,311,436.9,355.8,436.9z"/>
	
		<radialGradient id="SVGID_4_" cx="356.4319" cy="356.1149" r="309.8187" gradientTransform="matrix(1 0 0 -1 0 711.89)" gradientUnits="userSpaceOnUse">
		<stop  offset="0.1663" style="stop-color:#7B6CE6"/>
		<stop  offset="0.6329" style="stop-color:#CDC7F5"/>
		<stop  offset="1" style="stop-color:#F2F0FC"/>
	</radialGradient>
	<path class="st3" d="M675.7,355.8L675.7,355.8h-21.5H541H436.9c0-44.8-36.3-81.1-81.1-81.1V89.8c6.3-0.8,15.8-1.4,22.2-1.8
		C534.1,79.8,667.4,199.7,675.7,355.8z"/>
	<path class="st4" d="M462.6,355.8L462.6,355.8h-25.7l0,0c0-44.8-36.3-81.1-81.1-81.1l0,0V249l0,0c56.8,0,103.6,44.5,106.6,101.2
		C462.5,352.1,462.6,353.9,462.6,355.8z"/>
	<path class="st5" d="M462.6,355.8c0,56.8-44.5,103.6-101.2,106.6c-1.9,0.1-3.8,0.2-5.6,0.2v-25.7c44.8,0,81.1-36.3,81.1-81.1H462.6
		z"/>
	<path class="st6" d="M355.8,436.9v25.7c-56.8,0-103.7-44.4-106.7-101.2c-0.1-1.9-0.2-3.8-0.2-5.6h25.7
		C274.7,400.6,311,436.9,355.8,436.9z"/>
	<path class="st7" d="M355.8,200.3C278.5,210.2,221.9,278,226,355.8"/>
	<path class="st8" d="M355.8,549.7c3.7,0,7.4-0.1,11-0.3c101.5-5.4,179.5-92,174.1-193.5l0,0l0,0"/>
	<path class="st9" d="M151.7,355.8c5.8,109.2,96.1,193.8,204.1,193.8"/>
	<path class="st10" d="M541,355.8c-4.8-91.3-82.8-161.4-174.1-156.6c-3.8,0.2-7.4,0.6-11.1,1.1"/>
	<path class="st11" d="M355.8,107.7c-122.3,15.6-210.7,123.1-204.1,248.1"/>
	<path class="st12" d="M355.8,665.1c5.9,0,14.7-0.1,20.6-0.4c162-8.5,286.3-146.8,277.8-308.7v-0.1"/>
	<path class="st13" d="M33.2,355.8C42.4,530,183.5,665,355.8,665.1"/>
	<path class="st14" d="M654.2,355.8c-7.7-145.6-132-257.5-277.7-249.8c-6,0.3-14.8,0.9-20.7,1.7"/>
	<path class="st15" d="M355.8,249v25.7l0,0c-5.6,0-11,0.6-16.3,1.7c-37,7.5-64.8,40.2-64.8,79.4H249c0-56.8,44.5-103.7,101.2-106.7
		C352.1,249,353.9,249,355.8,249z"/>
</g>
<g>
	<path class="st5" d="M565.7,483.3l-7.2-4.1L558,480l2.9,1.7c-0.7,0.2-1.3,0.7-1.6,1.3c-0.8,1.4-0.3,3.1,1.1,3.9h0.1l0,0
		c1.4,0.8,3.1,0.3,3.9-1.1c0.4-0.6,0.5-1.3,0.3-2l0.5,0.3L565.7,483.3z M563.7,485.4L563.7,485.4c-0.6,1-1.9,1.3-2.9,0.7l0,0l0,0
		c-1-0.6-1.3-1.8-0.8-2.8c0.4-0.7,1-1.1,1.8-1.1l2,1.1c0.2,0.3,0.2,0.6,0.2,1C564,484.6,563.9,485,563.7,485.4z"/>
	<path class="st5" d="M559.7,487.9c-1.4-0.8-3.3-0.4-4.1,1.1c-0.8,1.4-0.4,3.3,1.1,4.1h0.1c0.5,0.3,1,0.4,1.5,0.4
		c1,0,1.9-0.5,2.5-1.4c0,0,0,0,0-0.1C561.6,490.6,561.1,488.7,559.7,487.9z M559.8,491.5c-0.5,1-1.8,1.3-2.7,0.8c0,0-0.1,0-0.1-0.1
		c-0.9-0.6-1.2-1.8-0.6-2.8c0.6-0.9,1.7-1.2,2.7-0.7C560,489.3,560.4,490.5,559.8,491.5z"/>
	<path class="st5" d="M552.8,495.1c-0.5,0.7-0.5,1.4,0,1.7s0.8,0.1,1.2-0.3l0.9-0.9c0.6-0.7,1.4-1.1,2.2-0.6s0.9,1.7,0.2,2.8
		c-0.6,1-1.6,1.7-2.8,1.1l0.5-0.7c0.6,0.3,1.2,0,1.7-0.8s0.5-1.3,0-1.6s-0.8-0.1-1.3,0.4l-0.8,0.8c-0.5,0.7-1.5,1-2.2,0.5
		c-0.9-0.6-0.9-1.8-0.1-2.9s1.8-1.7,3-1.1l-0.5,0.7C554,494,553.3,494.2,552.8,495.1z"/>
	<path class="st5" d="M556.4,502.3L556.4,502.3c-0.3-0.2-0.7-0.1-0.8,0.1v0.1c-0.1,0.1-0.2,0.2-0.2,0.3c-0.1,0.3,0.1,0.7,0.4,0.8
		c0.1,0,0.1,0,0.2,0c0.3,0,0.5-0.2,0.6-0.4C556.7,502.9,556.7,502.5,556.4,502.3z M550,498.2l-0.5,0.8l4.6,3.1l0.5-0.8L550,498.2z"
		/>
	<path class="st5" d="M554.7,506.2l-7-4.9l0.5-0.8l7,4.9L554.7,506.2z"/>
	<path class="st5" d="M549,504.1c-1.4-0.9-3.2-0.6-4.2,0.8c-0.9,1.4-0.6,3.2,0.8,4.2h0.1c0.5,0.3,1.1,0.5,1.6,0.5
		c0.9,0,1.8-0.4,2.4-1.2c0,0,0,0,0-0.1C550.7,507,550.4,505.1,549,504.1z M548.9,507.8c-0.6,0.9-1.8,1.2-2.8,0.6c0,0-0.1,0-0.1-0.1
		c-0.9-0.7-1.1-1.9-0.4-2.8c0.6-0.8,1.8-1.1,2.7-0.5C549.3,505.6,549.5,506.9,548.9,507.8z"/>
	<path class="st5" d="M543.7,516.1l-2.8-5.5l0.5-0.7l6,1.3l-0.6,0.8l-4.8-1.1l2.2,4.3L543.7,516.1z"/>
	<path class="st5" d="M542.4,519.3l-0.5,0.7l0.6,2l0.7-0.8L542.4,519.3z M541.2,514.9c-1.2-1.1-3.1-1-4.1,0.2
		c-0.5,0.5-0.7,1.3-0.7,2l-0.5-0.4l-0.6,0.7l4.3,3.5l0.6-0.7l-0.4-0.4c0.7-0.1,1.4-0.5,1.8-1.1C542.5,517.7,542.3,516,541.2,514.9z
		 M541.2,517.5c-0.1,1.1-1.2,2-2.3,1.8l-1.8-1.5c-0.1-0.3-0.1-0.6-0.1-0.8c0.1-1.2,1.2-2,2.3-1.9
		C540.5,515.3,541.4,516.3,541.2,517.5z"/>
	<path class="st5" d="M533,525.1l-2.4-2.1l0.6-0.7l2.4,2.1c0.6,0.6,1.5,0.7,2.2,0.1c0.1-0.1,0.1-0.1,0.2-0.2c0.5-0.6,0.6-1.3,0.5-2
		l-3-2.6l0.6-0.7l4.2,3.7l-0.6,0.7l-0.5-0.4c0,0.7-0.2,1.5-0.7,2c-0.8,1-2.2,1.2-3.2,0.4C533.2,525.2,533.1,525.2,533,525.1z"/>
	<path class="st5" d="M534.2,528.8l-0.6,0.6l0.5,2l0.7-0.8L534.2,528.8z M529.3,524.3l-0.6,0.7l4.1,3.8l0.6-0.7L529.3,524.3z"/>
	<path class="st5" d="M524,530.9c-0.6,0.6-0.8,1.3-0.4,1.7s0.8,0.3,1.2-0.1l1-0.8c0.8-0.5,1.6-0.8,2.2-0.1s0.5,1.8-0.4,2.8
		s-1.9,1.3-3,0.5l0.6-0.6c0.6,0.4,1.2,0.2,1.8-0.4s0.7-1.2,0.3-1.5s-0.7-0.3-1.3,0.2l-0.9,0.7c-0.6,0.6-1.6,0.7-2.3,0.1
		c-0.8-0.8-0.5-1.9,0.4-2.9s2.1-1.3,3.2-0.5l-0.6,0.6C525.4,530.1,524.7,530.2,524,530.9z"/>
	<path class="st5" d="M518.2,535.9c0.2-0.4,0.4-0.7,0.7-1c1-1,2-0.9,3,0.2l1.9,2l1-1l0.5,0.6l-1,1l1.4,1.5l-0.7,0.6l-1.4-1.5
		l-1.5,1.5l-0.5-0.6l1.5-1.5l-1.9-2c-0.7-0.7-1.2-0.7-1.8-0.1c-0.2,0.2-0.4,0.5-0.5,0.8L518.2,535.9z"/>
	<path class="st5" d="M519.5,538.4c-1.1-1.2-3-1.2-4.1-0.2c-0.5,0.5-0.9,1.1-0.9,1.9l-0.4-0.4l-0.7,0.6l3.8,4.1l0.7-0.6l-0.4-0.4
		c0.7,0,1.4-0.3,1.9-0.8C520.6,541.4,520.6,539.6,519.5,538.4z M519.2,541c-0.3,1.1-1.4,1.8-2.5,1.5l-1.5-1.7c0-0.3,0-0.6,0-0.9
		c0.3-1.1,1.4-1.8,2.5-1.5C518.8,538.8,519.5,539.9,519.2,541z"/>
	<path class="st5" d="M513.4,547.9l-0.6-0.7c0.7-0.6,1-1.5,0.8-2.3l-2.4-2.7l0.7-0.6l3.7,4.2l-0.7,0.6l-0.6-0.7
		C514.4,546.5,514.1,547.3,513.4,547.9z"/>
	<path class="st5" d="M505.9,546.9c0.2-0.3,0.5-0.7,0.8-0.9c1-0.9,2-0.7,3,0.4l1.8,2.1l1.1-0.9l0.5,0.6l-1.1,0.9l1.3,1.6l-0.7,0.6
		l-1.3-1.6l-1.6,1.4l-0.5-0.6l1.6-1.4l-1.8-2c-0.6-0.7-1.2-0.8-1.8-0.3c-0.2,0.2-0.4,0.5-0.6,0.8L505.9,546.9z"/>
	<path class="st5" d="M504.3,555.3l-3.5-4.3l0.7-0.6l0.4,0.5c0.1-0.8,0.5-1.5,1.1-1.9c1-0.8,2.4-0.7,3.3,0.2l0,0
		c0.1,0.1,0.1,0.2,0.2,0.2l2,2.5l-0.7,0.6l-2-2.4c-0.5-0.7-1.4-1-2.2-0.5l0,0c-0.1,0-0.1,0.1-0.2,0.2c-0.6,0.5-0.9,1.2-0.8,1.9
		l2.4,3L504.3,555.3z"/>
	<path class="st5" d="M497.6,550l-0.7,0.5l2,2.7c-0.1,0-0.2,0-0.2,0c-0.6,0-1.2,0.2-1.8,0.6c-1.2,1-1.5,2.8-0.5,4v0.1
		c1,1.3,2.7,1.5,4,0.6c0.6-0.4,1-1,1.1-1.8l0.4,0.5l0.7-0.5L497.6,550z M500,557.7c-0.9,0.7-2.2,0.5-2.9-0.4l0,0
		c-0.7-0.9-0.5-2.2,0.4-2.9c0.6-0.5,1.4-0.6,2.1-0.3l1.3,1.9c0,0.1,0,0.1,0,0.2C500.9,556.7,500.5,557.3,500,557.7z"/>
	<path class="st5" d="M496.8,563.5L496.8,563.5c-0.3-0.4-0.6-0.5-1-0.5c-0.3,0-0.5,0.1-0.7,0.3c-0.3,0.2-0.5,0.6-0.5,1
		c0,0.3,0.1,0.5,0.2,0.7c0.4,0.5,1.2,0.6,1.7,0.2C497.1,564.8,497.2,564.1,496.8,563.5z M496.2,564.8c-0.3,0.2-0.6,0.1-0.8-0.2
		c-0.1-0.1-0.2-0.3-0.2-0.4c0-0.2,0.1-0.4,0.2-0.5c0.3-0.2,0.7-0.1,0.9,0.2l0,0C496.6,564.2,496.5,564.6,496.2,564.8z M495,558.4
		c0-0.1-0.1-0.2-0.2-0.3c-0.8-1-2.2-1.2-3.2-0.4c-0.6,0.4-1,1.1-1.2,1.8L490,559l-0.8,0.5l3.2,4.5l0.7-0.5l-2.2-3.2
		c0-0.7,0.3-1.4,0.9-1.8c0.1-0.1,0.2-0.1,0.2-0.2l0,0c0.8-0.4,1.7-0.1,2.1,0.6l1.8,2.6l0.8-0.5L495,558.4z"/>
</g>
<g>
	<path class="st6" d="M218.7,579.8l0.4-0.7c0.8,0.5,1.7,0.5,2.5,0.1l1.9-3.1l0.8,0.5l-2.9,4.7l-0.8-0.5l0.5-0.8
		C220.3,580.3,219.4,580.2,218.7,579.8z"/>
	<path class="st6" d="M218.7,572.6c-1.4-0.9-3.3-0.4-4.1,1c0,0,0,0,0,0.1l0,0c-0.3,0.5-0.4,1-0.4,1.5c0,1,0.5,1.9,1.4,2.5
		c0,0,0,0,0.1,0c1.4,0.9,3.3,0.4,4.1-1C220.6,575.3,220.1,573.5,218.7,572.6z M218.8,576.1c-0.6,1-1.8,1.3-2.7,0.7
		c-1-0.6-1.3-1.8-0.7-2.7c0,0,0-0.1,0.1-0.1c0.6-0.9,1.9-1.2,2.8-0.6C219.1,574.1,219.3,575.2,218.8,576.1z"/>
	<path class="st6" d="M208.5,572.2l5.3-1.6l-2.9-2l0.4-0.6l4,2.7l-0.3,0.4l-5.3,1.6l2.8,1.9l-0.4,0.7l-3.9-2.7L208.5,572.2z"/>
	<path class="st6" d="M202.4,568.5l5.4-3l0.7,0.5l-1.1,6l-0.8-0.6l0.9-4.8l-4.3,2.4L202.4,568.5z"/>
	<path class="st6" d="M203,561.6c-1.3-1-3.2-0.7-4.2,0.7v0.1c-0.4,0.5-0.5,1.1-0.5,1.7c0,0.9,0.4,1.8,1.2,2.3c0,0,0,0,0.1,0.1
		c1.3,1,3.2,0.7,4.2-0.7C204.7,564.5,204.3,562.6,203,561.6z M202.8,565.1c-0.6,0.9-1.9,1.1-2.8,0.5c-0.9-0.6-1.1-1.9-0.5-2.8l0,0
		l0,0c0.7-0.9,1.9-1,2.8-0.4C203.2,563.1,203.4,564.3,202.8,565.1z"/>
	<path class="st6" d="M198.8,558l-3.8,4.8l0.7,0.6l3.9-4.9c0.6-0.8,1.1-0.9,1.9-0.3l0.5-0.7C200.6,556.5,199.8,556.8,198.8,558z
		 M194.5,564.3L194.5,564.3c-0.3-0.2-0.6-0.2-0.8,0.1l0,0c-0.1,0.1-0.1,0.2-0.1,0.4s0.1,0.3,0.2,0.5l0,0c0.3,0.2,0.6,0.1,0.8-0.1
		C194.8,564.9,194.7,564.5,194.5,564.3z"/>
	<path class="st6" d="M193.5,554.4l-3.5,4.3l0.7,0.6l3.6-4.3L193.5,554.4z M189.3,560.1c-0.3-0.2-0.7-0.2-0.9,0.1l0,0
		c-0.1,0.1-0.1,0.2-0.1,0.4s0.1,0.4,0.2,0.5l0,0c0.3,0.2,0.6,0.2,0.8-0.1l0,0c0.1-0.1,0.1-0.2,0.1-0.4
		C189.6,560.4,189.5,560.3,189.3,560.1z"/>
	<path class="st6" d="M185.8,552.1l2.1-2.4l0.7,0.6l-2.1,2.4c-0.6,0.6-0.7,1.6-0.1,2.2l0.2,0.2c0.6,0.5,1.3,0.6,2,0.5l2.6-3l0.7,0.6
		l-3.6,4.2l-0.7-0.6l0.4-0.5c-0.7,0-1.5-0.2-2-0.7c-1-0.8-1.2-2.2-0.4-3.2L185.8,552.1z"/>
	<path class="st6" d="M184.8,546.5c-1.2-1.1-3.1-1-4.2,0.3l-0.1,0.1l0,0c-0.5,0.5-0.7,1.2-0.7,1.9c0,0.8,0.3,1.6,1,2.2
		c0,0,0,0,0.1,0c1.2,1.1,3.1,1,4.2-0.3C186.2,549.5,186.1,547.6,184.8,546.5z M184.3,550c-0.7,0.8-2,1-2.8,0.3c-0.9-0.7-1-2-0.2-2.8
		c0,0,0-0.1,0.1-0.1c0.8-0.8,2-0.8,2.8-0.1C185,548,185,549.2,184.3,550z"/>
	<path class="st6" d="M173.8,544.2l5.8-2.2l0.6,0.6l-2,5.8l-0.7-0.7l1.6-4.6l-4.6,1.8L173.8,544.2z"/>
	<path class="st6" d="M175.4,537.7c-0.5-0.5-1.2-0.8-1.9-0.9l0.4-0.4l-0.7-0.6l-4,3.9l0.6,0.7l0.4-0.4c0,0.7,0.4,1.4,0.9,1.9
		c1.1,1.2,3,1.2,4.1,0C176.5,540.7,176.5,538.8,175.4,537.7z M174.7,541.2c-0.5,0.5-1.2,0.7-1.9,0.5c-1.2-0.2-1.9-1.4-1.6-2.5
		l1.6-1.6l0,0l0,0l0,0c0.1,0,0.3,0,0.4,0c0.6,0,1.2,0.2,1.6,0.7l0,0C175.5,539,175.5,540.4,174.7,541.2z"/>
	<path class="st6" d="M170.3,532.4c-0.8-1-2.2-1.2-3.3-0.5l0.6,0.7c0.7-0.4,1.5-0.2,2,0.4c0.6,0.8,0.6,1.8-0.1,2.6
		c-0.7,0.9-2,1-2.9,0.3c-0.6-0.5-0.7-1.4-0.3-2.1l-0.7-0.7c-0.7,1-0.6,2.4,0.3,3.3c0.1,0.1,0.2,0.2,0.3,0.3c1.2,1.1,3,1,4.1-0.2
		S171.5,533.5,170.3,532.4z M165.1,536.7l-2.3,0.1l0.6,0.6h1.6l-0.1,1.6l0.6,0.6l0.3-2.3L165.1,536.7z"/>
	<path class="st6" d="M161.4,527.7l2.4-2.1l0.6,0.7l-2.3,2.1c-0.7,0.5-0.9,1.5-0.4,2.2l0,0c0.1,0.1,0.1,0.1,0.2,0.2
		c0.5,0.5,1.2,0.8,1.9,0.7l2.9-2.6l0.6,0.7l-4.1,3.7l-0.6-0.7l0.5-0.4c-0.7-0.1-1.4-0.4-1.9-1c-0.9-0.9-0.9-2.4,0-3.2
		C161.3,527.8,161.4,527.7,161.4,527.7L161.4,527.7z"/>
	<path class="st6" d="M162,523.5l-4.2,3.6l0.6,0.7l4.2-3.6L162,523.5z M157,527.8l-2,0.3l0.6,0.8l1.9-0.4L157,527.8z"/>
	<path class="st6" d="M154.8,519.8l2.5-2l0.6,0.7l-2.4,2c-0.7,0.5-0.9,1.4-0.5,2.1l0.2,0.2c0.5,0.6,1.2,0.8,1.9,0.8l3-2.5l0.6,0.7
		l-6.6,5.4l-0.6-0.7l2.8-2.3c-0.7-0.1-1.4-0.4-1.9-1c-0.8-0.9-0.8-2.4,0.2-3.2L154.8,519.8z"/>
	<path class="st6" d="M154.8,514.2c-1-1.3-2.9-1.5-4.2-0.4v0.1c-0.7,0.6-1,1.4-1,2.2c0,0.6,0.2,1.2,0.6,1.8c0,0,0,0.1,0.1,0.1
		c1,1.3,3,1.5,4.2,0.4C155.7,517.3,155.9,515.4,154.8,514.2z M153.8,517.5c-0.8,0.7-2.1,0.6-2.8-0.2s-0.6-2.1,0.2-2.8
		c0,0,0.1,0,0.1-0.1c0.9-0.7,2.1-0.5,2.8,0.4C154.7,515.6,154.6,516.8,153.8,517.5z"/>
	<path class="st6" d="M151.6,505.7l-2.7,2c0-0.1,0-0.2,0-0.3c0-0.6-0.2-1.2-0.6-1.7c-0.9-1.3-2.7-1.5-4-0.6h-0.1
		c-1.3,0.9-1.6,2.7-0.7,4c0.4,0.6,1,1,1.7,1.2l-0.5,0.3l0.5,0.7l6.8-4.9L151.6,505.7z M148,508.4l-1.9,1.3H146
		c-0.7,0-1.4-0.3-1.8-0.9c-0.7-0.9-0.4-2.2,0.5-2.9l0,0c0.9-0.7,2.2-0.5,2.9,0.5C148.2,506.9,148.3,507.7,148,508.4z"/>
	<path class="st6" d="M144.4,499.9c-1-1.4-2.8-1.7-4.2-0.7l-0.1,0.1c-0.8,0.6-1.2,1.5-1.2,2.4c0,0.6,0.2,1.1,0.5,1.6c0,0,0,0,0,0.1
		c1,1.4,2.8,1.7,4.2,0.7C145.1,503.1,145.4,501.2,144.4,499.9z M143.1,503.2c-0.9,0.7-2.1,0.5-2.8-0.4s-0.5-2.1,0.4-2.8
		c0,0,0.1,0,0.1-0.1c0.9-0.6,2.2-0.4,2.8,0.6C144.2,501.3,144,502.5,143.1,503.2z"/>
	<path class="st6" d="M140.4,494.1c-0.4-0.6-1-1.1-1.7-1.3l0.5-0.3l-0.5-0.8l-7.2,4.6l0.5,0.8l3-1.9c0,0.1,0,0.3,0,0.4
		c0,0.6,0.2,1.1,0.5,1.6c0.9,1.3,2.6,1.7,4,0.9C140.8,497.3,141.3,495.5,140.4,494.1z M139.8,496.3c-0.5,1-1.7,1.5-2.8,1
		c-1-0.5-1.5-1.7-1-2.8l1.9-1.2l0,0c0.3,0,0.6,0.1,0.8,0.2C139.8,494.1,140.3,495.3,139.8,496.3z"/>
	<path class="st6" d="M132.3,487.2l2.7-1.6l0.5,0.8l-2.7,1.6c-0.8,0.4-1.1,1.3-0.8,2l0,0c0,0.1,0.1,0.2,0.1,0.2c0.4,0.6,1,1,1.8,1.1
		l3.4-2l0.5,0.8L133,493l-0.5-0.8l0.5-0.3c-0.7-0.2-1.3-0.7-1.7-1.3c-0.7-1.1-0.4-2.5,0.6-3.2l0,0L132.3,487.2z"/>
	<path class="st6" d="M133.7,483.2l-4.8,2.8l0.5,0.8l4.8-2.8L133.7,483.2z M127.8,487.1L127.8,487.1c-0.2-0.3-0.6-0.4-0.8-0.2
		c-0.2,0.1-0.3,0.3-0.3,0.5c0,0.1,0,0.2,0.1,0.3c0.2,0.3,0.5,0.4,0.8,0.2l0,0c0.2-0.1,0.3-0.3,0.3-0.5
		C127.9,487.3,127.8,487.2,127.8,487.1z"/>
	<path class="st6" d="M129.4,480.8l1.5,0.5l1.3-0.7l0.4,0.8l-7.5,4.1l-0.4-0.8l5.1-2.8l-4-1.3l-0.6-1l3.2,1l1.5-4l0.6,1L129.4,480.8
		z"/>
	<path class="st6" d="M128.6,473.5c-0.3-0.7-0.9-1.2-1.5-1.4l0.5-0.3l-0.4-0.8l-5,2.6l0.5,0.8l0.5-0.3c-0.2,0.7-0.1,1.4,0.3,2.1
		c0.7,1.4,2.5,2,4,1.3C128.8,476.7,129.4,475,128.6,473.5z M127,476.4c-1,0.6-2.3,0.2-2.9-0.8c-0.4-0.6-0.4-1.4,0-2.1l2-1l0,0
		c0.7,0.1,1.3,0.5,1.6,1.1C128.3,474.6,128,475.9,127,476.4z M122.3,476.1l-2.1-0.2l0.5,0.9l2,0.1L122.3,476.1z"/>
	<path class="st6" d="M121.2,466l2.9-1.4l0.4,0.8l-2.8,1.4c-0.8,0.3-1.3,1.1-1,1.9c0,0,0,0,0,0.1s0.1,0.2,0.1,0.3
		c0.3,0.6,0.9,1.1,1.7,1.2l3.5-1.7l0.4,0.8l-5,2.4L121,471l0.6-0.3c-0.7-0.3-1.2-0.8-1.6-1.5c-0.6-1.1-0.2-2.5,0.9-3.1L121.2,466z"
		/>
	<path class="st6" d="M122.9,462l-5.1,2.3l0.4,0.8l5.1-2.3L122.9,462z M116.8,464.9l-2-0.3l0.4,0.9l2,0.2L116.8,464.9z"/>
</g>
<g>
	<path class="st15" d="M189.7,334.9c0.5-0.5,0.9-1.2,0.9-1.9c0.1-1.6-1-3-2.6-3.1l0,0c-1.6-0.2-3,1-3.2,2.6c-0.1,0.7,0.1,1.4,0.5,2
		l-0.6-0.1l-0.1,0.9l8.3,0.8l0.1-0.9L189.7,334.9z M188.7,334.8l-2.3-0.2c-0.5-0.4-0.8-1-0.8-1.7c0-0.1,0-0.2,0-0.3l0,0
		c0.1-1.1,1.2-1.9,2.3-1.8l0,0c1.1,0.1,2,1.1,1.9,2.3C189.8,333.8,189.3,334.4,188.7,334.8z"/>
	<path class="st15" d="M188.9,322.7h-0.1c-0.1,0-0.2,0-0.3,0c-1.4,0-2.7,1.1-2.9,2.6v0.1c-0.2,1.6,1,3.1,2.7,3.3
		c1.7,0.2,3.1-1,3.3-2.7S190.6,322.9,188.9,322.7z M188.3,327.6c-1.1-0.1-1.9-1.1-1.8-2.2v-0.1c0.2-1.1,1.2-1.9,2.2-1.7h0.1
		c1,0.2,1.8,1.1,1.7,2.2S189.4,327.7,188.3,327.6z"/>
	<path class="st15" d="M183.7,319.3l8.4,1.4l-0.1,0.9l-8.4-1.4L183.7,319.3z"/>
	<path class="st15" d="M188,312.1l7.5,5.3l-0.2,1l-2.3-1.6l-6.2,1.7l0.2-1l5.1-1.4l-4.3-3L188,312.1z"/>
	<path class="st15" d="M194.5,308.3c0,0.4,0,0.8-0.1,1.2c-0.3,1.3-1.2,1.8-2.6,1.5l-2.6-0.6l-0.3,1.4l-0.8-0.2l0.3-1.4l-2-0.5
		l0.2-0.9l2,0.5l0.5-2l0.8,0.2l-0.5,2l2.7,0.6c0.9,0.2,1.4-0.1,1.6-0.9c0.1-0.3,0.1-0.7,0-1L194.5,308.3z"/>
	<path class="st15" d="M194.7,301.9l-0.2,1c0.4,0.4,0.5,1.1,0.3,1.6c-0.2,1-1.2,1.7-2.3,1.5l1.2-4.5c-0.1-0.1-0.2-0.1-0.3-0.1
		l-0.2-0.1c-1.4-0.3-2.9,0.6-3.2,2c-0.3,1.5,0.6,2.9,2,3.4c1.5,0.5,3.2-0.4,3.6-2C196,303.7,195.6,302.6,194.7,301.9z M191.9,305.9
		L191.9,305.9L191.9,305.9L191.9,305.9c-0.9-0.3-1.5-1.3-1.2-2.3v-0.1c0.2-0.9,1.2-1.5,2.2-1.2L191.9,305.9z"/>
	<path class="st15" d="M195.9,296l0.3-0.9c1.1,0.6,1.6,1.9,1.2,3.1c-0.4,1.6-2,2.5-3.5,2.1c-1.6-0.4-2.5-2-2.1-3.5
		c0-0.1,0-0.2,0.1-0.3c0.3-1.2,1.5-2.1,2.7-1.9l-0.3,0.9c-0.8,0-1.5,0.5-1.6,1.3c-0.3,1.1,0.4,2.2,1.6,2.5c1,0.2,2.1-0.3,2.4-1.3
		C196.9,297.2,196.6,296.4,195.9,296z"/>
	<path class="st15" d="M197.1,288.2l3,1l-0.3,0.9l-3-1c-0.8-0.4-1.7,0-2.1,0.7l0,0c0,0.1-0.1,0.2-0.1,0.3c-0.2,0.7-0.1,1.4,0.3,2
		l3.7,1.2l-0.3,0.9l-8.1-2.7l0.3-0.9l3.4,1.1c-0.3-0.7-0.3-1.4-0.1-2.1c0.4-1.2,1.6-1.9,2.9-1.6C196.9,288.1,197,288.1,197.1,288.2z
		"/>
	<path class="st15" d="M199.6,281.5l3,1.1l-0.3,0.9l-2.9-1.1c-0.8-0.4-1.7-0.1-2.1,0.6c0,0.1-0.1,0.2-0.1,0.3
		c-0.2,0.7-0.1,1.4,0.2,2l3.7,1.4l-0.3,0.9l-5.2-2l0.3-0.9l0.6,0.2c-0.3-0.7-0.3-1.4,0-2.1c0.4-1.2,1.7-1.9,2.9-1.5l0,0
		C199.5,281.4,199.6,281.5,199.6,281.5z"/>
	<path class="st15" d="M198.5,278l-0.3,0.9l5.2,2.1l0.3-0.9L198.5,278z M196.7,277.2c-0.1,0-0.2-0.1-0.3-0.1c-0.2,0-0.4,0.1-0.5,0.3
		l0,0c-0.1,0.3,0,0.7,0.3,0.8l0,0c0.1,0,0.1,0,0.2,0c0.2,0,0.5-0.1,0.6-0.4C197,277.6,196.9,277.3,196.7,277.2z"/>
	<path class="st15" d="M204.4,273.6l0.4-0.9c1,0.7,1.4,2.1,0.8,3.2c-0.7,1.5-2.5,2.1-3.9,1.4s-2-2.3-1.4-3.7
		c0.4-1.2,1.7-1.9,2.9-1.6l-0.4,0.9c-0.8-0.1-1.5,0.3-1.8,1c-0.4,1.1,0.1,2.3,1.2,2.7c1,0.4,2.2,0,2.7-1
		C205.2,274.9,205,274.1,204.4,273.6z"/>
	<path class="st15" d="M205.7,269.1l0.5,1.5l1.3,0.6l-0.4,0.8l-7.7-3.7l0.4-0.8l5.2,2.5l-1.3-4l0.5-1.1l1.1,3.2l4.1-1.1l-0.5,1.1
		L205.7,269.1z"/>
	<path class="st15" d="M211,261.3l-0.5,0.9c0.3,0.5,0.3,1.2,0,1.7c-0.5,0.9-1.6,1.3-2.5,0.9l2.2-4.1l0,0c-0.1-0.1-0.2-0.1-0.3-0.2
		l-0.2-0.1l0,0c-1.3-0.6-3-0.1-3.6,1.2c-0.6,1.4-0.1,2.9,1.2,3.7c1.4,0.8,3.2,0.4,4-1C211.8,263.4,211.7,262.2,211,261.3z
		 M206.8,262L206.8,262c0.5-0.9,1.5-1.2,2.4-0.8l-1.7,3.3C206.6,264,206.3,262.9,206.8,262z M204.4,259.1l-0.5,0.9l1.1,1.6l0.4-0.8
		L204.4,259.1z"/>
	<path class="st15" d="M217.5,253l-4.8-2.9l-0.4,0.7l0.5,0.3c-0.7,0.2-1.3,0.7-1.6,1.3c-0.6,1.3-0.2,2.8,0.9,3.6
		c1.3,1,3.1,0.7,4.1-0.6c0.4-0.6,0.5-1.3,0.4-2l0.5,0.3L217.5,253z M213.9,255.9c-1.2,0.1-2.2-0.8-2.2-2c-0.1-1.2,0.8-2.2,2-2.2
		l2,1.2c0.1,0.2,0.2,0.5,0.2,0.8C215.9,254.9,215,255.9,213.9,255.9z"/>
	<path class="st15" d="M220.3,247.6c0.7-0.2,1.3-0.6,1.7-1.2l0,0c0.9-1.3,0.5-3.1-0.9-4l0,0c-1.3-0.9-3.1-0.6-4,0.8
		c-0.4,0.6-0.6,1.3-0.5,2l-0.5-0.3l-0.5,0.8l6.9,4.7l0.5-0.8L220.3,247.6z M217.5,245.7c-0.1-0.3-0.2-0.5-0.2-0.8
		c0-0.4,0.1-0.9,0.4-1.2c0.7-0.9,1.9-1.2,2.9-0.5l0,0c0.6,0.4,0.9,1.1,0.9,1.8c0,1.2-1,2.1-2.2,2.1L217.5,245.7z"/>
	<path class="st15" d="M222,239.8c-0.3-0.8-0.2-1.7,0.3-2.5l-0.7-0.5c-0.5,0.7-0.7,1.5-0.4,2.3l-0.7-0.5l-0.5,0.7l4.5,3.2l0.5-0.7
		L222,239.8z M219.6,235.1l-0.5,0.7l0.3,1.5l-1.6,0.2l-0.5,0.7l2.3-0.2l0.5-0.8L219.6,235.1z"/>
	<path class="st15" d="M223.1,235l-0.5,0.7l4.5,3.3l0.5-0.7L223.1,235z M221.5,232.5l-0.6,0.8l0.8,1.8l0.5-0.7L221.5,232.5z"/>
	<path class="st15" d="M226.2,230.8l0.7,0.5c-0.5,0.7-0.7,1.6-0.4,2.4l2.9,2.2l-0.6,0.7l-4.4-3.4l0.6-0.7l0.7,0.6
		C225.5,232.3,225.7,231.4,226.2,230.8z"/>
	<path class="st15" d="M232.8,227.4h-0.1c-0.5-0.4-1.2-0.6-1.8-0.6c-0.9,0-1.7,0.4-2.3,1.1c0,0,0,0,0,0.1c-1,1.3-0.8,3.2,0.5,4.2
		s3.2,0.8,4.2-0.5C234.3,230.3,234.1,228.4,232.8,227.4z M232.5,231c-0.7,0.8-1.9,0.9-2.7,0.3c-0.9-0.7-1.1-1.9-0.4-2.8
		c0.7-0.9,1.9-1.1,2.8-0.4c0,0,0.1,0,0.1,0.1C233.2,228.9,233.2,230.1,232.5,231z"/>
	<path class="st15" d="M233.2,218.3l-0.6,0.7l2.6,2.4c-0.7,0.1-1.4,0.4-1.8,1c-0.9,1.2-0.8,2.8,0.2,3.9c1.1,1.1,3,1.2,4.1,0
		c0.5-0.5,0.8-1.2,0.8-1.9l0.4,0.4l0.6-0.7L233.2,218.3z M237.3,225.4c-0.8,0.9-2.1,1-3,0.2c-0.5-0.5-0.8-1.2-0.7-1.9
		c0.2-1.2,1.3-2,2.4-1.8l1.7,1.5C237.9,224.2,237.8,224.9,237.3,225.4z"/>
	<path class="st15" d="M242.8,216.6L242.8,216.6c-0.7-0.6-1.4-0.8-2.1-0.8c-0.8,0-1.5,0.3-2.1,0.9c0,0,0,0-0.1,0.1
		c-1.1,1.2-1,3.1,0.2,4.2c1.2,1.1,3.1,1,4.2-0.2C244,219.6,244,217.7,242.8,216.6z M242.2,220.2c-0.8,0.8-2,0.8-2.7,0.1
		c-0.8-0.7-0.9-2-0.2-2.8s2-0.9,2.8-0.2l0,0C242.9,218.1,243,219.4,242.2,220.2z"/>
	<path class="st15" d="M245.6,209.9l2,5.8l-0.6,0.6l-5.8-2.2l0.7-0.7l4.6,1.7l-1.5-4.6L245.6,209.9z"/>
	<path class="st15" d="M253,209l-0.8,0.6c0.1,0.6-0.1,1.2-0.6,1.5c-0.8,0.7-2,0.7-2.7,0l3.4-3.1c0-0.1-0.1-0.2-0.2-0.2l-0.1-0.2
		c-1-1.1-2.7-1.1-3.8-0.1c-1.1,1.1-1.1,2.8-0.2,3.9c1,1.2,2.9,1.4,4.1,0.4C253,211.2,253.4,210,253,209z M248.7,208L248.7,208
		c0.8-0.7,1.9-0.6,2.5,0.1l-2.8,2.5C247.9,209.8,248,208.7,248.7,208z M252.4,208L252.4,208L252.4,208L252.4,208z M247.9,204.3
		l-0.7,0.6v1.6l-1.6-0.2l-0.7,0.6l2.3,0.3l0.7-0.6V204.3z"/>
	<path class="st15" d="M253.9,198.9l-0.6,0.6l2.3,2.7c-0.7,0-1.5,0.2-2,0.7c-1.1,1-1.2,2.7-0.3,3.9c1,1.3,2.8,1.6,4.1,0.6
		c0.5-0.5,0.9-1.1,1-1.8l0.4,0.4l0.7-0.6L253.9,198.9z M256.8,206.6c-0.8,0.6-2,0.5-2.7-0.2c-0.8-0.8-0.8-2.2,0-3
		c0.5-0.5,1.3-0.7,2-0.5l1.5,1.7l0,0C257.7,205.5,257.4,206.2,256.8,206.6z"/>
	<path class="st15" d="M263.1,198.4l2,2.5l-0.7,0.6l-1.9-2.5c-0.4-0.7-1.4-1-2.1-0.5l-0.2,0.2c-0.6,0.5-0.9,1.2-0.9,1.9l2.4,3.1
		l-0.7,0.6l-3.4-4.4l0.7-0.6l0.4,0.5c0.1-0.7,0.5-1.4,1.1-1.8c1-0.8,2.4-0.7,3.2,0.3C263,198.2,263,198.3,263.1,198.4z"/>
	<path class="st15" d="M264.8,190.8l-0.8,0.6l0.2,2l0.7-0.5L264.8,190.8z M269.8,195.8l-0.8,0.6c0,0.6-0.3,1.2-0.8,1.5
		c-0.8,0.6-2,0.5-2.7-0.3l3.8-2.7c0-0.1-0.1-0.2-0.2-0.3l-0.1-0.2c-0.5-0.7-1.3-1.1-2.2-1.1c-0.6,0-1.1,0.2-1.6,0.5
		c-1.3,1-1.6,2.8-0.6,4.1s2.8,1.6,4.1,0.6C269.5,198,270,196.9,269.8,195.8z M265.5,194.5L265.5,194.5c0.9-0.6,2-0.4,2.5,0.4l-3,2.2
		l0,0C264.5,196.2,264.7,195,265.5,194.5z"/>
	<path class="st15" d="M276.3,186.6l0.8,6.1l-0.7,0.4l-5.2-3.3l0.8-0.5l4.1,2.6l-0.6-4.8L276.3,186.6z"/>
	<path class="st15" d="M281.4,184.1l-0.8,5.4l3-1.8l0.4,0.7l-4.1,2.5l-0.2-0.4l0.8-5.5l-2.9,1.7l-0.4-0.7l4-2.4L281.4,184.1z"/>
	<path class="st15" d="M285.8,177.7l-0.8,0.4l1.7,3.1c-0.7-0.2-1.4-0.1-2.1,0.3c-1.2,0.8-1.7,2.4-1.1,3.7c0.7,1.5,2.4,2.1,3.9,1.4
		c0.6-0.3,1.1-0.9,1.4-1.6l0.3,0.5l0.8-0.4L285.8,177.7z M287.3,185.8c-1,0.6-2.3,0.3-2.9-0.7s-0.3-2.3,0.7-2.9
		c0.6-0.4,1.4-0.4,2.1-0.1l1.1,2C288.2,184.8,287.9,185.4,287.3,185.8z"/>
	<path class="st15" d="M294.6,181.2c-0.1,0.6-0.4,1.1-1,1.3c-0.9,0.5-2.1,0.2-2.6-0.8l4.2-2.1c0-0.1-0.1-0.2-0.1-0.3l-0.1-0.2
		c-0.7-1.3-2.3-1.8-3.7-1.1c-1.3,0.8-1.8,2.3-1.2,3.7c0.7,1.5,2.4,2.2,3.9,1.5c1-0.4,1.6-1.4,1.6-2.5L294.6,181.2z M290.7,181.2
		L290.7,181.2c-0.4-1,0-2,0.9-2.5h0.1c0.9-0.4,1.9-0.1,2.4,0.8L290.7,181.2z M291.1,175.3l-0.4,1.5l-1.5-0.6l-0.8,0.4l2.1,0.9
		l0.8-0.4l0.5-2.2L291.1,175.3z"/>
	<path class="st15" d="M294.9,173.2l3.6,7.7l-0.8,0.4l-3.6-7.7L294.9,173.2z"/>
	<path class="st15" d="M299.9,171.2l-0.2,2l0.8-0.3l0.3-2.1L299.9,171.2z M303,172.8l-0.8,0.4l0.2,0.5c-0.7-0.2-1.4-0.2-2.1,0.1
		c-1.4,0.7-2,2.3-1.5,3.8c0.6,1.5,2.3,2.2,3.8,1.6c0.7-0.3,1.2-0.8,1.5-1.4l0.2,0.5l0.8-0.4L303,172.8z M302.6,178.3
		c-1,0.5-2.3,0.1-2.8-0.9s-0.1-2.3,0.9-2.8c0.7-0.3,1.5-0.3,2.1,0.1l0.9,2.1l0,0C303.7,177.5,303.2,178,302.6,178.3z"/>
	<path class="st15" d="M310,170.1l-0.4,6.1l-0.8,0.3l-4.5-4.2l0.9-0.4l3.5,3.4l0.3-4.9L310,170.1z"/>
	<path class="st15" d="M313.1,166l-0.3,1.9l0.8-0.3l0.5-2L313.1,166z M316,167.9l-0.9,0.3l0.2,0.6c-0.7-0.3-1.4-0.3-2.1,0
		c-1.5,0.5-2.3,2.2-1.8,3.8c0.5,1.5,2.2,2.3,3.8,1.8c0.7-0.2,1.3-0.7,1.6-1.3l0.2,0.5l0.9-0.3L316,167.9z M316.4,171.9
		c-0.1,0.3-0.2,0.6-0.4,0.8c-0.7,0.9-2,1.1-3,0.4c-0.9-0.7-1.1-2-0.4-2.9s2-1.1,3-0.4L316.4,171.9L316.4,171.9z"/>
	<path class="st15" d="M323.8,168l0.9,3.1l-0.9,0.3l-0.9-3c-0.2-0.8-1-1.4-1.8-1.2l0,0c-0.1,0-0.2,0-0.3,0.1
		c-0.7,0.2-1.2,0.8-1.5,1.5l1.2,3.7l-0.9,0.3l-1.7-5.4l0.9-0.3l0.2,0.6c0.4-0.6,1-1.1,1.7-1.3c1.2-0.4,2.5,0.2,2.9,1.4l0,0
		C323.7,167.8,323.8,167.9,323.8,168z"/>
	<path class="st15" d="M325.9,164.9l-0.9,0.2l1.5,5.4l0.9-0.2L325.9,164.9z M325.2,162.2l-0.5,1.9l0.8-0.2l0.6-2L325.2,162.2z"/>
</g>
<g>
	<path class="st4" d="M471.4,168.1c-0.3-0.1-0.7,0-0.8,0.3l0,0l0,0c-0.1,0.3,0,0.6,0.3,0.8h0.1h0.1c0.3,0.1,0.7-0.1,0.7-0.5v-0.1
		C471.8,168.4,471.7,168.1,471.4,168.1z M469.9,170.4l-2.3,5.1l0.8,0.4l2.3-5.1L469.9,170.4z"/>
	<path class="st4" d="M476.4,176.1L475,179l-0.8-0.4l1.4-2.8c0.5-0.7,0.3-1.7-0.5-2.1l0,0l-0.2-0.1c-0.7-0.3-1.4-0.3-2.1,0.1
		l-1.7,3.5l-0.8-0.4l2.4-5l0.8,0.4l-0.3,0.6c0.7-0.2,1.5-0.2,2.1,0.2c1.1,0.5,1.7,1.8,1.2,3L476.4,176.1z"/>
	<path class="st4" d="M478.7,180.2c0.8,0.4,1.4,0.4,1.7-0.1s0-0.8-0.4-1.2l-1-0.8c-0.7-0.6-1.2-1.3-0.8-2.1s1.6-1,2.8-0.4
		c1,0.5,1.9,1.5,1.3,2.7l-0.8-0.4c0.2-0.7-0.1-1.2-0.9-1.6s-1.3-0.3-1.6,0.1s-0.1,0.8,0.5,1.2l0.9,0.7c0.6,0.5,1.2,1.2,0.7,2.2
		s-1.7,1.1-2.9,0.4s-1.9-1.6-1.4-2.9l0.8,0.4C477.5,179.1,477.8,179.7,478.7,180.2z"/>
	<path class="st4" d="M487.2,179c-0.6-0.4-1.4-0.5-2.1-0.3l0.3-0.5l-0.8-0.5l-4.1,7.3l0.8,0.5l1.7-2.9c0.2,0.7,0.7,1.2,1.4,1.6
		c1.4,0.8,3.1,0.2,3.9-1.2h0.1C489,181.5,488.5,179.8,487.2,179z M487.4,182.5c-0.6,1-1.8,1.4-2.8,0.8c-0.6-0.3-1.1-1-1.1-1.8l1.1-2
		c0.3-0.2,0.7-0.2,1-0.2c0.4,0,0.8,0.1,1.1,0.3C487.6,180.2,488,181.5,487.4,182.5L487.4,182.5z"/>
	<path class="st4" d="M492.9,179.4L492.9,179.4c-0.3-0.2-0.7-0.1-0.8,0.2l0,0c-0.1,0.1-0.1,0.2-0.1,0.3c0,0.2,0.1,0.4,0.3,0.5
		c0.2,0.1,0.4,0,0.6-0.1c0.1-0.1,0.2-0.3,0.2-0.4C493,179.6,493,179.5,492.9,179.4z M491.1,181.5l-2.9,4.8l0.8,0.5l2.9-4.8
		L491.1,181.5z"/>
	<path class="st4" d="M496.5,184.6l-0.5,0.7c-0.7-0.5-1.7-0.5-2.5-0.1l-1.9,3.1l-0.8-0.5l3-4.7l0.8,0.5l-0.5,0.8
		C494.9,184,495.8,184.1,496.5,184.6z"/>
	<path class="st4" d="M501.2,187.8l-0.3,0.5c-0.2-0.7-0.6-1.3-1.2-1.7c-0.1-0.1-0.2-0.1-0.2-0.2c-1.4-0.8-3.2-0.4-4,1s-0.3,3.2,1,4
		c0.6,0.4,1.3,0.6,2,0.5l-0.3,0.5l0.8,0.5l3.1-4.7L501.2,187.8z M499,191.1c-0.3,0.1-0.5,0.2-0.8,0.2c-0.4,0-0.9-0.1-1.2-0.4
		c-0.6-0.4-1-1.1-0.9-1.8c0-1.2,1-2.1,2.2-2c1.2,0,2.1,1,2,2.2L499,191.1z"/>
	<path class="st4" d="M505,195l0.8,0.6c-0.9,0.9-2.3,0.9-3.3,0.1c-1.3-0.9-1.6-2.8-0.7-4.1s2.8-1.6,4.1-0.7l0,0c1.1,0.7,1.5,2,1,3.2
		l-0.8-0.6c0.3-0.7,0-1.6-0.7-2c-0.9-0.7-2.2-0.4-2.9,0.5s-0.4,2.2,0.5,2.9l0,0C503.6,195.5,504.4,195.5,505,195z"/>
	<path class="st4" d="M511.4,194.9c-1.3-1-3.1-0.7-4.1,0.6s-0.7,3.1,0.6,4.1c0.8,0.7,2,0.8,2.9,0.3l-0.8-0.6
		c-0.6,0.2-1.2,0.1-1.6-0.3c-0.9-0.6-1.1-1.8-0.5-2.7l3.7,2.8c0.1-0.1,0.2-0.2,0.2-0.2l0.1-0.2l0,0
		C512.9,197.5,512.6,195.8,511.4,194.9z M511.3,198.1l-3-2.3c0.7-0.8,1.8-0.9,2.6-0.2h0.1l0,0C511.7,196.2,511.9,197.3,511.3,198.1z
		"/>
	<path class="st4" d="M517.1,203.5l-1.6,0.1l-1,1.1l-0.7-0.6l5.5-6.5l0.7,0.6l-3.7,4.5l4.2-0.3l0.9,0.8l-3.3,0.2l0.1,4.3l-0.9-0.8
		L517.1,203.5z"/>
	<path class="st4" d="M527.4,208.4c-0.5-0.5-1.2-0.8-1.9-0.8l0.4-0.4l-0.7-0.6l-5.7,6.1l0.7,0.6l2.3-2.5c0.1,0.7,0.4,1.4,1,1.9
		c1.2,1,3,0.9,4-0.2h0.1C528.7,211.3,528.6,209.5,527.4,208.4z M526.8,211.8L526.8,211.8c-0.8,0.9-2.1,1-3,0.2
		c-0.6-0.5-0.8-1.3-0.7-2l1.6-1.7c0.2-0.1,0.4-0.1,0.5-0.1c0.5,0,1.1,0.2,1.5,0.6l0,0C527.6,209.7,527.6,211,526.8,211.8z"/>
	<path class="st4" d="M532.6,213.3C532.5,213.3,532.5,213.3,532.6,213.3c-1.3-1.2-3.2-1.1-4.3,0.1s-1.1,3.1,0.1,4.2
		c1.2,1.1,3.1,1.1,4.2-0.1v-0.1l0,0c0.5-0.6,0.8-1.3,0.8-2C533.5,214.6,533.2,213.9,532.6,213.3z M532,216.8
		C532,216.9,531.9,216.9,532,216.8c-0.9,0.9-2.1,0.9-2.9,0.1c-0.7-0.8-0.8-2-0.1-2.7c0.7-0.8,2-0.9,2.8-0.2
		C532.7,214.7,532.7,216,532,216.8z"/>
	<path class="st4" d="M541.1,218l-2.6,2.4c0-0.7-0.3-1.4-0.8-1.9c-1.1-0.9-2.6-1-3.8-0.1c-1.3,1-1.5,2.8-0.5,4.1
		c0.5,0.5,1.2,0.9,1.9,0.9l-0.4,0.4l0.6,0.7l6.2-5.9L541.1,218z M537.7,221.1l-1.6,1.6l0,0c-0.1,0-0.3,0-0.4,0
		c-0.6,0-1.2-0.3-1.6-0.7c-0.5-0.5-0.7-1.3-0.5-2c0.3-1.1,1.5-1.8,2.6-1.5C537.4,218.9,538,220,537.7,221.1z"/>
	<path class="st4" d="M542.7,227.8l-2.4,2.1l-0.6-0.7l2.3-2.1c0.7-0.5,0.9-1.5,0.4-2.2l0,0c-0.1-0.1-0.1-0.2-0.2-0.2
		c-0.5-0.5-1.2-0.8-1.9-0.7l-2.9,2.6l-0.6-0.7l4.2-3.7l0.6,0.7l-0.5,0.4c0.7,0.1,1.4,0.4,1.9,1c0.9,0.9,0.9,2.4-0.1,3.2
		C542.8,227.6,542.7,227.7,542.7,227.8z"/>
	<path class="st4" d="M548.1,226.3c-0.2-0.2-0.6-0.3-0.9-0.1l0,0c-0.2,0.2-0.3,0.6-0.1,0.8c0.1,0.2,0.3,0.2,0.5,0.2
		c0.1,0,0.3,0,0.4-0.1c0.1-0.1,0.2-0.3,0.2-0.5C548.2,226.5,548.2,226.4,548.1,226.3z M545.7,227.7l-4.2,3.6l0.6,0.7l4.3-3.6
		L545.7,227.7z"/>
	<path class="st4" d="M546.7,233.6l-1.6-0.2l-1.2,0.9l-0.6-0.7l6.7-5.3l0.6,0.7l-4.5,3.6l4.1,0.6l0.7,0.9l-3.3-0.4l-0.8,4.2
		l-0.7-0.9L546.7,233.6z"/>
	<path class="st4" d="M555.9,236l-2,0.3l0.5,0.7l2-0.1L555.9,236z M554.5,238.7L554,239c0.1-0.7-0.1-1.4-0.6-2c-1-1.2-2.7-1.4-4-0.6
		c-1.3,0.9-1.7,2.8-0.7,4.1c0.4,0.6,1,1,1.8,1.1L550,242l0.5,0.7l4.5-3.3L554.5,238.7z M553.1,239.7l-1.8,1.4c-0.3,0-0.6,0-0.9-0.1
		c-1.1-0.4-1.6-1.6-1.2-2.7c0.4-1.1,1.6-1.6,2.7-1.2C553,237.4,553.5,238.6,553.1,239.7z"/>
	<path class="st4" d="M557.3,246.8l-2.6,1.8l-0.5-0.8l2.6-1.8c0.8-0.4,1-1.3,0.6-2.1l0,0c0-0.1-0.1-0.2-0.2-0.2
		c-0.4-0.6-1.1-0.9-1.8-0.9l-3.2,2.2l-0.5-0.7l4.6-3.2l0.5,0.7l-0.5,0.4c0.7,0.2,1.4,0.6,1.8,1.2c0.8,1,0.6,2.4-0.4,3.2l0,0
		C557.5,246.7,557.4,246.8,557.3,246.8z"/>
	<path class="st4" d="M563.3,246.3l-2,0.2l0.5,0.7h2L563.3,246.3z M560.4,247.2l-4.6,3.1l0.5,0.8l4.6-3.1L560.4,247.2z"/>
</g>
<g>
	<path class="st16" d="M268.7,327l0.6-1.9c1.9,0.8,2.7,2.7,2.1,4.7c-0.7,2.2-2.8,3.5-5.1,2.8s-3.4-2.9-2.7-5.1
		c0.6-2,2.4-3.1,4.4-2.8l-0.6,1.9c-1-0.1-1.8,0.4-2.1,1.4c-0.4,1.2,0.3,2.3,1.5,2.7c1.2,0.4,2.4-0.2,2.8-1.4
		C269.9,328.3,269.5,327.5,268.7,327z"/>
	<path class="st16" d="M272.6,319.3l-1.5,3.7c0.6,0.1,1.1-0.1,1.4-0.8c0.2-0.4,0.2-0.6,0-0.9l0.7-1.7c0.9,0.7,1.1,1.9,0.6,3.1
		c-0.7,1.7-2.3,2.4-3.9,1.7c-1.6-0.6-2.3-2.2-1.6-3.8C269.1,318.9,270.8,318.3,272.6,319.3z M270.1,322.6l0.9-2.1
		c-0.6-0.1-1,0.1-1.3,0.7C269.4,321.8,269.6,322.3,270.1,322.6z"/>
	<path class="st16" d="M274.7,312.9l2.9,1.4l-0.8,1.7l-2.6-1.3c-0.7-0.3-1.2-0.1-1.5,0.4c-0.1,0.3-0.1,0.7,0,1.1l3.1,1.5l-0.8,1.7
		l-5-2.4l0.8-1.7l0.3,0.2c-0.1-0.5-0.1-1.1,0.2-1.6C272,312.6,273.3,312.2,274.7,312.9z"/>
	<path class="st16" d="M280.2,309.5c-0.1,0.6-0.3,1.2-0.5,1.4c-0.8,1.3-2.1,1.6-3.4,0.9l-1.4-0.8l-0.5,0.9l-1.4-0.8l0.5-0.9
		l-1.6-0.9l0.9-1.6l1.6,0.9l0.9-1.6l1.4,0.8l-0.9,1.6l1.4,0.8c0.5,0.3,0.9,0.1,1.2-0.3c0.2-0.3,0.2-0.6,0.3-1L280.2,309.5z"/>
	<path class="st16" d="M279.6,303.6c-0.5,0.8-0.6,1.4-0.5,2l2.7,1.7l-1,1.6l-4.7-3l1-1.6l0.5,0.3c-0.1-0.6,0-1.3,0.5-2L279.6,303.6z
		"/>
	<path class="st16" d="M282.2,297.1l4.4,3.3l-1.1,1.5l-0.3-0.2c0,0.6-0.1,1.1-0.5,1.5c-0.8,1.1-2.2,1.3-3.5,0.4l-2.5-1.9l1.1-1.5
		l2.3,1.7c0.6,0.5,1.2,0.4,1.5-0.1c0.2-0.3,0.3-0.7,0.2-1.1l-2.8-2.1L282.2,297.1z"/>
	<path class="st16" d="M291.1,290.6l2.4,2.2l-1.3,1.4l-2.2-2c-0.6-0.5-1-0.4-1.4,0c-0.2,0.2-0.3,0.5-0.3,1c0.1,0.1,0.2,0.1,0.2,0.2
		l2.4,2.2l-1.3,1.4l-2.3-2.1c-0.6-0.5-1-0.4-1.3,0c-0.2,0.3-0.4,0.6-0.3,1l2.6,2.4l-1.3,1.4l-4.1-3.7l1.3-1.4l0.3,0.2
		c0-0.5,0.2-0.9,0.6-1.4c0.5-0.5,1-0.8,1.7-0.8c0-0.7,0.2-1.3,0.7-1.8C288.7,289.6,290,289.5,291.1,290.6z"/>
	<path class="st16" d="M305.2,279.8c1,1.4,0.7,3.1-0.8,4.2s-3.2,0.8-4.2-0.6s-0.7-3.1,0.8-4.2C302.5,278.1,304.2,278.4,305.2,279.8z
		 M303.8,280.8c-0.5-0.7-1.2-0.8-1.9-0.4c-0.6,0.5-0.7,1.2-0.3,1.9c0.5,0.7,1.2,0.8,1.9,0.3C304.1,282.2,304.3,281.5,303.8,280.8z"
		/>
	<path class="st16" d="M311.3,276c0.9,1.4,0.4,3.2-0.9,3.9c-0.5,0.3-1,0.4-1.5,0.4l0.1,0.2l-1.6,1l-4.2-7l1.6-1l1.5,2.5
		c0.2-0.4,0.6-0.8,1.1-1.1C308.7,274.2,310.5,274.6,311.3,276z M309.8,277c-0.4-0.6-1.2-0.9-1.8-0.5c-0.3,0.2-0.6,0.5-0.7,1l0.9,1.5
		c0.5,0.1,0.9,0,1.2-0.2C310,278.4,310.2,277.6,309.8,277z"/>
	<path class="st16" d="M317.5,272.9c0.8,1.5,0.2,3.2-1.4,4s-3.3,0.3-4-1.2c-0.8-1.5-0.2-3.2,1.4-4
		C315.1,270.8,316.7,271.4,317.5,272.9z M316,273.7c-0.4-0.7-1.1-1-1.8-0.6c-0.7,0.4-0.9,1.1-0.6,1.8c0.4,0.7,1.1,1,1.8,0.6
		C316.1,275.1,316.3,274.4,316,273.7z"/>
	<path class="st16" d="M323.6,273.2c-0.4,0.4-1,0.7-1.3,0.8c-1.4,0.6-2.6,0-3.2-1.3l-0.6-1.5l-1,0.4l-0.6-1.5l1-0.4l-0.7-1.7
		l1.7-0.7l0.7,1.7l1.7-0.7l0.6,1.5l-1.7,0.7l0.6,1.4c0.2,0.5,0.6,0.6,1.1,0.4c0.3-0.1,0.6-0.3,0.8-0.6L323.6,273.2z"/>
	<path class="st16" d="M321.9,266c-0.2-0.6,0.1-1.2,0.7-1.4c0.6-0.2,1.2,0,1.4,0.6c0.2,0.6-0.1,1.1-0.7,1.4
		C322.7,266.8,322.1,266.6,321.9,266z M324.4,267.1l1.9,5.2l-1.7,0.6l-1.9-5.2L324.4,267.1z"/>
	<path class="st16" d="M329.6,269.3l-0.5,1l0.3,1.1l-1.8,0.5l-2.4-7.8l1.8-0.5l1.3,4.5l1.2-2.5l2.1-0.6l-1.4,2.8l3.1,2.5l-2.1,0.6
		L329.6,269.3z"/>
	<path class="st16" d="M338.9,263.2l-1.6,8.8l-1.9,0.4l0.5-2.9l-3.8-4.7l1.9-0.4l2.3,3l0.7-3.7L338.9,263.2z"/>
</g>
<g>
	<path class="st16" d="M433.1,403.3c-1.1-0.6-1.4-2-0.5-3.5l1.9-3.4l6.8,3.8l-1.8,3.2c-0.8,1.5-2,1.9-3.1,1.3
		c-0.6-0.4-1.1-1.1-1-1.8C434.8,403.7,433.9,403.7,433.1,403.3z M434.3,401.8c0.4,0.2,0.9,0,1.2-0.6l0.9-1.5l-1.4-0.8l-0.8,1.5
		C433.7,401.1,433.9,401.5,434.3,401.8z M439,401.1l-1.4-0.8l-0.7,1.3c-0.4,0.6-0.2,1.2,0.2,1.4c0.4,0.2,0.8,0,1.2-0.6L439,401.1z"
		/>
	<path class="st16" d="M436.2,408.8l-6.6-4.2l1-1.6l6.6,4.2L436.2,408.8z"/>
	<path class="st16" d="M428.1,412.3l-1.2,1.6c-1.5-1.4-1.6-3.5-0.4-5.2c1.4-1.9,3.8-2.3,5.7-0.9c1.9,1.4,2.2,3.8,0.8,5.7
		c-1.3,1.7-3.3,2.1-5,1.1l1.2-1.6c0.9,0.4,1.8,0.2,2.4-0.6c0.8-1,0.5-2.3-0.5-3.1c-1-0.8-2.3-0.6-3.1,0.4
		C427.4,410.7,427.4,411.6,428.1,412.3z"/>
	<path class="st16" d="M420.9,423c-1.3-1.3-1.2-3,0.3-4.5l0.7-0.8l-1.4-1.4l1.3-1.4l5.6,5.4l-2.2,2.3
		C423.8,424.1,422.1,424.2,420.9,423z M422.2,421.6c0.5,0.5,1.2,0.4,1.8-0.2l0.8-0.8l-1.7-1.7l-0.8,0.8
		C421.7,420.4,421.6,421.1,422.2,421.6z"/>
	<path class="st16" d="M414.3,426c-1.1-1.3-1-3,0.3-4.2s3.1-1.1,4.2,0.1c1.1,1.3,1,3-0.3,4.2C417.2,427.3,415.4,427.3,414.3,426z
		 M415.6,424.8c0.5,0.6,1.3,0.7,1.9,0.2s0.6-1.3,0.1-1.9s-1.3-0.7-1.9-0.1C415.1,423.4,415.1,424.2,415.6,424.8z"/>
	<path class="st16" d="M411.2,429.8c0.7-0.6,1-1.1,1.1-1.7l-2-2.5l1.5-1.2l3.4,4.4l-1.5,1.2l-0.4-0.5c-0.1,0.6-0.4,1.2-1.1,1.7
		L411.2,429.8z"/>
	<path class="st16" d="M404.6,429.9c0.3-0.5,0.8-0.9,1.1-1.1c1.2-0.9,2.6-0.6,3.4,0.7l0.9,1.3l0.9-0.6l0.9,1.3l-0.9,0.6l1.1,1.6
		l-1.5,1.1l-1.1-1.6l-1.6,1.1l-0.9-1.3l1.6-1.1l-0.9-1.3c-0.3-0.5-0.8-0.5-1.2-0.2c-0.3,0.2-0.5,0.5-0.7,0.8L404.6,429.9z"/>
</g>
<g>
	<path class="st16" d="M292.3,420.6c0.9-1,2.2-0.9,3.5,0.3l2.9,2.6l-5.2,5.8l-2.7-2.5c-1.3-1.1-1.5-2.4-0.6-3.3
		c0.5-0.5,1.3-0.8,1.9-0.5C291.5,422.1,291.7,421.2,292.3,420.6z M293.1,426.8l1.1-1.2l-1.1-1c-0.5-0.5-1.1-0.5-1.4-0.1
		s-0.2,0.8,0.3,1.3L293.1,426.8z M293.5,422.1c-0.3,0.4-0.2,0.8,0.3,1.3l1.3,1.2l1.1-1.2l-1.3-1.2
		C294.3,421.7,293.8,421.7,293.5,422.1z"/>
	<path class="st16" d="M286.1,422.3l5.6-5.4l1.4,1.4l-5.6,5.4L286.1,422.3z"/>
	<path class="st16" d="M284.6,413.7l-1.3-1.5c1.7-1.1,3.7-0.8,5.1,0.8c1.5,1.8,1.4,4.2-0.4,5.8c-1.8,1.5-4.2,1.3-5.8-0.5
		c-1.4-1.6-1.3-3.7,0-5.2l1.3,1.5c-0.6,0.8-0.6,1.7,0.1,2.5c0.8,1,2.1,1,3.1,0.2s1.1-2.1,0.3-3.1
		C286.3,413.3,285.4,413.2,284.6,413.7z"/>
</g>
<g>
	<path class="st16" d="M408.8,278.2l-1.6-1c0.2-0.5,0.1-1.1-0.6-1.5c-0.6-0.4-1.1-0.4-1.4,0c-0.2,0.4-0.1,0.7,0.4,1.2l0.8,0.8
		c1.1,1,1.5,2,0.8,3.1c-0.8,1.3-2.4,1.4-4.1,0.4c-1.5-0.9-2.4-2.5-1.5-4.2l1.6,1c-0.3,0.6,0,1.3,0.8,1.8c0.6,0.4,1.1,0.4,1.3,0
		c0.1-0.2,0.2-0.6-0.3-1l-0.9-0.9c-1.1-1.1-1.4-2.1-0.7-3.1c0.8-1.3,2.4-1.5,4-0.5C408.4,275,409.8,276.4,408.8,278.2z"/>
	<path class="st16" d="M412.9,278.2l-4.6,6.3l-1.6-1.1l4.6-6.3L412.9,278.2z"/>
	<path class="st16" d="M418.2,284.6l-1.9-1.6l-3.8,4.7l-1.5-1.2l3.8-4.7l-1.9-1.6l1.1-1.3l5.4,4.4L418.2,284.6z"/>
	<path class="st16" d="M425.1,293c-1.3,1.3-3,1.1-4.5-0.4l-0.7-0.8l-1.4,1.4l-1.4-1.4l5.6-5.4l2.2,2.3
		C426.3,290.1,426.4,291.8,425.1,293z M423.8,291.6c0.5-0.5,0.4-1.2-0.2-1.8l-0.8-0.8l-1.7,1.7l0.8,0.8
		C422.5,292.1,423.2,292.2,423.8,291.6z"/>
	<path class="st16" d="M430.2,300.8c-1.8,1.4-4.3,1.2-5.7-0.7c-1.5-1.8-1.2-4.3,0.5-5.8c1.8-1.4,4.3-1.2,5.7,0.7
		C432.2,296.9,431.9,299.4,430.2,300.8z M428.9,299.3c1-0.8,1.2-2.1,0.4-3.1s-2.1-1-3.1-0.3c-1,0.8-1.2,2.1-0.4,3.1
		S428,300.1,428.9,299.3z"/>
	<path class="st16" d="M430.4,308.2l1.1-2.5l0,0l-0.8-1.2l-1.9,1.3l-1.1-1.6l6.5-4.3l1.9,2.8c1.1,1.6,0.9,3.3-0.5,4.2
		c-0.9,0.6-1.8,0.6-2.7,0.2l-1.3,3L430.4,308.2z M432.1,303.5l0.8,1.2c0.4,0.6,1.1,0.9,1.6,0.5c0.5-0.3,0.5-1.1,0.1-1.7l-0.8-1.2
		L432.1,303.5z"/>
	<path class="st16" d="M440.2,313l-1.2-2.2l-5.3,2.9l-0.9-1.7l5.3-2.9l-1.2-2.2l1.5-0.8l3.3,6L440.2,313z"/>
</g>
<g>
	<path class="st16" d="M299,283.3c-0.6,0.6-0.9,1.2-0.9,1.8l2.2,2.3l-1.3,1.3l-3.8-4l1.3-1.3l0.4,0.4c0.1-0.6,0.3-1.2,0.9-1.8
		L299,283.3z"/>
</g>
</svg>
