<svg id="Слой_1" data-name="Слой 1" xmlns="http://www.w3.org/2000/svg" viewBox="0 0 223.88 519.04"><defs><style>.cls-1{fill:#233862;}.cls-2{fill:#ffb27d;}.cls-3{fill:#ed985f;}.cls-4{fill:#2c3a64;}.cls-5{fill:#2b478b;}.cls-6{fill:#fff;}.cls-7{fill:#dfebfd;}.cls-8{fill:#ed7d2b;}.cls-9{fill:#f99746;}</style></defs><title>Krejčí - ThirdQuater</title><path class="cls-1" d="M57.56,519s0-8.16,1.16-10.88,5.43-13.77,5.43-13.77H80.83s3.11,10.09,3.3,13.39,0,11.26,0,11.26Z"/><path class="cls-1" d="M163.47,519s0-8.16-1.17-10.88-5.43-13.77-5.43-13.77H140.19s-3.1,10.09-3.29,13.39,0,11.26,0,11.26Z"/><path class="cls-2" d="M96.64,60.71S96.05,78.89,93.73,87L75.31,99.89l69.34,10.37L128.11,87.42s-5-24.38-2.37-33.4S96.64,60.71,96.64,60.71Z"/><path class="cls-3" d="M96.54,63.22s5.48,13.2,15.81,12.91,12.68-12,12.68-12Z"/><path class="cls-4" d="M90.38,52.53S87,35.88,84.71,30.84,80.45,3.3,106.24,2.13c0,0,9.9,1.17,15.33-2.13,0,0,0,3.3-1.36,4.46a17.14,17.14,0,0,1,15.9,5.63c7,7.75-4.65,34.91-4.07,41.31Z"/><path class="cls-2" d="M111.17,71c-7.48-.14-21.26-10.1-21.26-22.44V29.33c0-4.5,3.14-8.19,7-8.19h28.55c3.84,0,7,3.69,7,8.19V47.5C132.43,60.44,119.75,71.18,111.17,71Z"/><path class="cls-4" d="M89.91,39.62s0-11.57,9.2-13.35,29.68,5.64,32.59-2.8-39.65-8.29-41.79-2.91S89.91,39.62,89.91,39.62Z"/><path class="cls-5" d="M59.65,236.25s2.92,89.11-1.44,140,0,121.61,0,121.61,13.95,7.7,29.08,0c0,0,16.59-98.23,16.49-121.61-.11-24.9,18.06-136.08,18.06-136.08Z"/><path class="cls-5" d="M162.86,497.82s-14,7.7-29.08,0c0,0-16.59-98.23-16.48-121.61,0-10.52-3.17-36.43-6.9-62.84-5.1-36.14-11.16-73.24-11.16-73.24l64.62-4s-5.33,89.27-1,140.12S162.86,497.82,162.86,497.82Z"/><path class="cls-6" d="M163.09,251.07s-27.55,5.34-52.69,5.34a254.38,254.38,0,0,1-32.35-2.48c-10.49-1.39-18-2.86-18-2.86s-5.58.49-2.28-27c2.5-21,1.72-39.88,1.16-59.35-.06-2.16,0-4.72.12-7.58C60.11,134.4,67,93.53,72.2,91.34c0,0,7.78-2.89,21.53-4.3,0,.27,8,11.93,17.44,13.23,5.88-2.32,10.5-4.31,16.94-12.85a182.67,182.67,0,0,1,26.55,5.12s1,4.33,4.72,79.43C160.87,201.72,171,251.17,163.09,251.07Z"/><path class="cls-7" d="M78.05,253.93c-10.49-1.39-18-2.86-18-2.86s-5.58.49-2.28-27c2.5-21,1.72-39.88,1.16-59.35-.06-2.16,0-4.72.12-7.58,1.6,2.58,19.5,31.48,24.32,53C86.87,225.73,81.58,244.18,78.05,253.93Z"/><path class="cls-1" d="M117.3,376.21c0-10.52-3.17-36.43-6.9-62.84,3.87-15.78,13.3-31,13.3-31C135.63,315.86,117.3,376.21,117.3,376.21Z"/><path class="cls-6" d="M33.46,180.74c-.66.55,1.63,6.23,5,13.63C45.41,209.57,57,232,57,232a67,67,0,0,1-3.5,10.25C34,227,21.52,214.05,13.53,204.1c-11.23-14-13.53-22-13.53-22,43.22-88,73.64-91.23,73.64-91.23L70,149S35.46,179.08,33.46,180.74Z"/><path class="cls-2" d="M54.65,233.13s10.47-9.69,14.74-4.26,5,14,1.75,13.38-10.09-3.69-11.06-2.13-5.31,4.51-6.63,2.16S54.65,233.13,54.65,233.13Z"/><path class="cls-2" d="M57,232a67,67,0,0,1-3.5,10.25C34,227,21.52,214.05,13.53,204.1c6-.45,14.82-2.6,24.94-9.73C45.41,209.57,57,232,57,232Z"/><path class="cls-6" d="M223.88,182.09s-2.3,8-13.53,22c-8,10-20.5,22.93-39.92,38.18a67,67,0,0,1-3.5-10.25s11.54-22.46,18.49-37.66c3.37-7.4,5.66-13.08,5-13.63-1.56-1.29-22.68-19.65-32.11-27.84L153.84,149l-2.16-57.28S180.66,94.11,223.88,182.09Z"/><path class="cls-2" d="M169.23,233.13s-10.47-9.69-14.74-4.26-5,14-1.74,13.38,10.08-3.69,11.05-2.13,5.32,4.51,6.63,2.16S169.23,233.13,169.23,233.13Z"/><path class="cls-2" d="M166.93,232a67,67,0,0,0,3.5,10.25c19.41-15.25,31.93-28.23,39.92-38.18-6-.45-14.82-2.6-24.93-9.73C178.47,209.57,166.93,232,166.93,232Z"/><path class="cls-8" d="M94.69,82.6a7.38,7.38,0,0,0-4,4.78s12.35,12.7,20.43,12.89Z"/><path class="cls-8" d="M111.17,100.27,127.11,82s3.29,2.17,3.25,5.73C130.36,87.69,118,100.76,111.17,100.27Z"/><path class="cls-9" d="M108.3,98.93s-12.17,105-7.93,117.83A87.46,87.46,0,0,0,107.79,233a4.31,4.31,0,0,0,7.46,0c3.23-5.61,7.45-13.72,7.45-17.84,0-6.68-9.23-116.33-9.23-116.33Z"/><path class="cls-8" d="M105.11,93.78a76.06,76.06,0,0,1,11.83-.28,1.23,1.23,0,0,1,1,1.84c-1.25,2.26-3.81,6.17-6.49,6.17C107.64,101.51,101.78,94,105.11,93.78Z"/><path class="cls-6" d="M105.21,58.62a8.16,8.16,0,0,0,6.4,3,7.59,7.59,0,0,0,6-3S110.72,57.5,105.21,58.62Z"/></svg>