<svg id="Слой_1" data-name="Слой 1" xmlns="http://www.w3.org/2000/svg" viewBox="0 0 127.06 375.44"><defs><style>.cls-1{fill:#233862;}.cls-2{fill:#ffb27d;}.cls-3{fill:#fff;}.cls-4{fill:#2b478b;}.cls-5{fill:#f99746;}.cls-6{fill:#ed975d;}.cls-7{fill:#2c3a64;}.cls-8{fill:#ed7d2b;}.cls-9{fill:#d7e9ff;}</style></defs><title>Krejčí - firstQuater</title><path class="cls-1" d="M60.51,85.78s-23.73-9.49-42.67.48S-18.07,184.63,40,195.87h0S94.4,255.26,60.51,85.78Z"/><path class="cls-2" d="M125.42,225.09,124,219.85s-7-.7-7-.56l.62,15.82s3.59-.79,4.9-2.3l2.55-4.25C125.63,227.57,125.42,225.09,125.42,225.09Z"/><path class="cls-3" d="M107.37,89.62s8.5-.44,13.27,10.77c9.87,23.23,5.58,73.37,5,80.55,0,0,3.39,14.26-1.65,38.91l-6.28-.35s-10.39-93.18-9.15-102.8S107.37,89.62,107.37,89.62Z"/><path class="cls-1" d="M36.44,363.83l3.22,11.61H66.84S74.94,360.59,36.44,363.83Z"/><path class="cls-1" d="M94.73,363.83,98,375.44h27.18S133.23,360.59,94.73,363.83Z"/><path class="cls-2" d="M95.91,88.83l-25.5,13L67.06,85a72.91,72.91,0,0,0,3.32-16.67,89.16,89.16,0,0,0,.17-14.85L91.33,64.1a41.14,41.14,0,0,0-1,12.65C90.79,81.2,92.23,85.84,95.91,88.83Z"/><path class="cls-1" d="M116.88,192.85l-51.57,4.07s-6.37,90.33,27.51,170.36l30.43-2Z"/><path class="cls-4" d="M36.85,197.81s-10.13,51.84-3,168.06H65.7L85.64,224.63c.64-4.13,8.78-9.88,8.78-9.88l.31-15.93Z"/><path class="cls-5" d="M37.11,129.75l3,21-8.18,42a6.33,6.33,0,0,0,5.78,7.52c15.52,1.05,53.05,2.61,78.52-4.6a7.39,7.39,0,0,0,5.37-7.69l-4.48-56.24L115.52,112,113.9,91.7S106.13,86.9,92.64,85c.2,3.13-.85,6-7.29,6.69-7.56.87-13.25-2.55-17.44-5.77a7.12,7.12,0,0,0-.85-.92c-4.6.44-9.9,1.24-14.45,2.15-.71.14-16.93,32.36-16.93,32.36Z"/><path class="cls-4" d="M31.9,192.83s72.17-36.93,36.73-97.24c-1.7-2.89-4.54-8.17-8.12-9.81a35.53,35.53,0,0,0-6.68,1.12c3.68,1,9,9.66,11.8,17.49C70.89,119,83.91,146.77,32.85,183.3Z"/><path class="cls-2" d="M55.33,149c.8-.06,7.5.19,7.5.19s3.34-12.55,12.59-12.55c0,0,4.32-.43,3,3.08-.56,1.48-1.48,1-2.89,6s-2.93,6.42-7.67,9.11l-4,1.08S53.23,149.1,55.33,149Z"/><path class="cls-6" d="M90.52,78.66c-7.8,1-19.84-10.11-20.14-10.34,0,0,14.43.12,20.14.37A60.18,60.18,0,0,0,90.52,78.66Z"/><path class="cls-2" d="M98.67,73.82S63.18,78.15,62.42,53.14s14-41.2,23.91-41c19.69.37,22.94,8.32,25.23,16.61S115,72.06,98.67,73.82Z"/><path class="cls-3" d="M91.63,60.11s.65,2.61,7.16,2.13c0,0,5.47-.4,5.27-3.28C104.06,59,98.73,57,91.63,60.11Z"/><path class="cls-7" d="M70.14,68.32s-3-8.9-2.64-13.9c0,0-7.1-9.05-3-11.29s6.36,3.12,7.31,2.07,2.43-18.83,7.45-18.27,27.75,7,35.9,0S99.43-8.24,65.94,2.36,39.13,49.73,70.14,68.32Z"/><path class="cls-7" d="M49.42,17s-1.51-4.53.12-7.76c0,0,.08,4.45,1.82,6.44S49.42,17,49.42,17Z"/><path class="cls-7" d="M50.12,13.8S46,13.33,44,16.51a5.33,5.33,0,0,1,5.87.12Z"/><path class="cls-3" d="M52.61,87.14s-6.07-.34-16.93,17.77c-5.8,9.69-30.54,55.67-17.8,60.66s38.38,0,45-7l-3.71-10.7s-17.78.81-17.67-.14,4-10.05,9.06-17.2C67.86,106.06,52.61,87.14,52.61,87.14Z"/><path class="cls-3" d="M85.35,91.68S72.87,86.06,68.48,80c0,0-4.53,2.62-5,5.85S78.81,94.68,85.35,91.68Z"/><path class="cls-3" d="M91.2,81.3s-.87,8.76-5.85,10.38c0,0,9.1.66,12.15-5.89C97.5,85.79,94.36,81.21,91.2,81.3Z"/><path class="cls-8" d="M92.07,125.86A1.57,1.57,0,1,1,90.52,124,1.74,1.74,0,0,1,92.07,125.86Z"/><path class="cls-8" d="M92.07,151a1.57,1.57,0,1,1-1.55-1.88A1.74,1.74,0,0,1,92.07,151Z"/><path class="cls-8" d="M92.07,178.16a1.57,1.57,0,1,1-1.55-1.88A1.74,1.74,0,0,1,92.07,178.16Z"/><polygon class="cls-3" points="123.97 219.85 125.64 215.1 117.54 214.62 117.69 219.5 123.97 219.85"/><path class="cls-2" d="M62.59,146.77s1.3-6.05,1-7.46,2.48-.34,2.48,2.59a3.3,3.3,0,0,1-.78,1.8l-1.45,5.8Z"/><path class="cls-9" d="M62.59,146.77l-7.25,1.58,1.32,8.8H62L59,161.52l1.37.58,7.52-7.28S63.85,150.62,62.59,146.77Z"/></svg>