<svg xmlns="http://www.w3.org/2000/svg" xmlns:xlink="http://www.w3.org/1999/xlink" viewBox="0 0 291.72 480.53"><defs><style>.cls-1{mask:url(#mask);filter:url(#luminosity-noclip-3);}.cls-17,.cls-2,.cls-4{mix-blend-mode:multiply;}.cls-2{fill:url(#linear-gradient);}.cls-3{mask:url(#mask-2);filter:url(#luminosity-noclip-4);}.cls-4{fill:url(#linear-gradient-2);}.cls-5{isolation:isolate;}.cls-6{fill:#ffcfcd;}.cls-7{fill:url(#New_Gradient_Swatch_copy_11);}.cls-8{fill:url(#New_Gradient_Swatch_copy_36);}.cls-9{fill:#3f8f1d;}.cls-10{fill:url(#New_Gradient_Swatch_copy_11-2);}.cls-11{fill:#f49fa5;}.cls-12{fill:url(#New_Gradient_Swatch_copy_11-3);}.cls-13{fill:#bf6817;}.cls-14{fill:#fb8a24;}.cls-15{fill:url(#New_Gradient_Swatch_copy_11-4);}.cls-16{fill:url(#linear-gradient-3);}.cls-17{fill:#aad9f0;}.cls-18{fill:url(#New_Gradient_Swatch_copy_11-5);}.cls-19{mask:url(#mask-3);}.cls-20{fill:url(#linear-gradient-4);}.cls-21{fill:#a82648;}.cls-22{fill:#e63462;}.cls-23{fill:#4d1725;}.cls-24{fill:url(#linear-gradient-5);}.cls-25{fill:#a32546;}.cls-26{fill:#f7faf1;}.cls-27{fill:#c1e3f4;}.cls-28{fill:#631e30;}.cls-29{fill:url(#linear-gradient-6);}.cls-30{fill:url(#linear-gradient-7);}.cls-31{fill:url(#New_Gradient_Swatch_copy_36-2);}.cls-32{fill:url(#New_Gradient_Swatch_copy_38);}.cls-33{fill:url(#New_Gradient_Swatch_copy_38-2);}.cls-34{fill:url(#New_Gradient_Swatch_copy_11-6);}.cls-35{fill:url(#New_Gradient_Swatch_copy_11-7);}.cls-36{fill:url(#New_Gradient_Swatch_copy_36-3);}.cls-37{fill:url(#New_Gradient_Swatch_copy_38-3);}.cls-38{fill:url(#New_Gradient_Swatch_copy_38-4);}.cls-39{fill:url(#New_Gradient_Swatch_copy_36-4);}.cls-40{fill:url(#New_Gradient_Swatch_copy_11-8);}.cls-41{fill:#a14c50;}.cls-42{fill:#733639;}.cls-43{fill:#ffd640;}.cls-44{fill:#feb42b;}.cls-45{fill:url(#New_Gradient_Swatch_copy_38-5);}.cls-46{fill:url(#New_Gradient_Swatch_copy_36-5);}.cls-47{fill:#0c59c4;}.cls-48{fill:url(#linear-gradient-8);}.cls-49{fill:url(#linear-gradient-9);}.cls-50{fill:#fff;}.cls-51{fill:url(#linear-gradient-10);}.cls-52{fill:#005995;}.cls-53{fill:url(#linear-gradient-11);}.cls-54{fill:url(#New_Gradient_Swatch_copy_11-9);}.cls-55{fill:url(#New_Gradient_Swatch_copy_11-10);}.cls-56{mask:url(#mask-4);}.cls-57{fill:url(#linear-gradient-12);}.cls-58{fill:url(#New_Gradient_Swatch_copy_11-11);}.cls-59{filter:url(#luminosity-noclip-2);}.cls-60{filter:url(#luminosity-noclip);}</style><filter id="luminosity-noclip" x="129.29" y="-7873.67" width="64.02" height="32766" filterUnits="userSpaceOnUse" color-interpolation-filters="sRGB"><feFlood flood-color="#fff" result="bg"/><feBlend in="SourceGraphic" in2="bg"/></filter><mask id="mask" x="129.29" y="-7873.67" width="64.02" height="32766" maskUnits="userSpaceOnUse"><g class="cls-60"/></mask><linearGradient id="linear-gradient" x1="-6250.79" y1="319.87" x2="-6186.76" y2="319.87" gradientTransform="matrix(-1, 0, 0, 1, -6057.48, 0)" gradientUnits="userSpaceOnUse"><stop offset="0" stop-color="#fafafa"/><stop offset="1" stop-color="#fff"/></linearGradient><filter id="luminosity-noclip-2" x="148.6" y="-7873.67" width="9.71" height="32766" filterUnits="userSpaceOnUse" color-interpolation-filters="sRGB"><feFlood flood-color="#fff" result="bg"/><feBlend in="SourceGraphic" in2="bg"/></filter><mask id="mask-2" x="148.6" y="-7873.67" width="9.71" height="32766" maskUnits="userSpaceOnUse"><g class="cls-59"/></mask><linearGradient id="linear-gradient-2" x1="-6215.79" y1="238.99" x2="-6206.08" y2="238.99" xlink:href="#linear-gradient"/><linearGradient id="New_Gradient_Swatch_copy_11" x1="-4277.56" y1="193.19" x2="-4352.88" y2="199.78" gradientTransform="translate(4390.56)" gradientUnits="userSpaceOnUse"><stop offset="0" stop-color="#ed7d88"/><stop offset="1" stop-color="#ffcfcd"/></linearGradient><linearGradient id="New_Gradient_Swatch_copy_36" x1="-6197.86" y1="177.38" x2="-6158.26" y2="177.38" gradientTransform="matrix(-1, 0, 0, 1, -6057.48, 0)" gradientUnits="userSpaceOnUse"><stop offset="0" stop-color="#10c7a2"/><stop offset="1" stop-color="#51fae3"/></linearGradient><linearGradient id="New_Gradient_Swatch_copy_11-2" x1="-6068.19" y1="177.55" x2="-6096.71" y2="182.68" gradientTransform="matrix(-1, 0, 0, 1, -6057.48, 0)" xlink:href="#New_Gradient_Swatch_copy_11"/><linearGradient id="New_Gradient_Swatch_copy_11-3" x1="-4205.36" y1="17.06" x2="-4229.69" y2="42.93" xlink:href="#New_Gradient_Swatch_copy_11"/><linearGradient id="New_Gradient_Swatch_copy_11-4" x1="-5897.79" y1="335.55" x2="-5908.92" y2="392.29" gradientTransform="matrix(-1, 0, 0, 1, -5770.16, 0)" xlink:href="#New_Gradient_Swatch_copy_11"/><linearGradient id="linear-gradient-3" x1="-6204.3" y1="310.79" x2="-6165.88" y2="310.79" gradientTransform="matrix(-1, 0, 0, 1, -6057.48, 0)" gradientUnits="userSpaceOnUse"><stop offset="0" stop-color="#8c203c"/><stop offset="1" stop-color="#7a253b"/></linearGradient><linearGradient id="New_Gradient_Swatch_copy_11-5" x1="-6234.62" y1="367.35" x2="-6246.94" y2="425.28" gradientTransform="matrix(-1, 0, 0, 1, -6057.48, 0)" xlink:href="#New_Gradient_Swatch_copy_11"/><filter id="luminosity-noclip-3" x="129.29" y="271.19" width="64.02" height="97.37" filterUnits="userSpaceOnUse" color-interpolation-filters="sRGB"><feFlood flood-color="#fff" result="bg"/><feBlend in="SourceGraphic" in2="bg"/></filter><mask id="mask-3" x="129.29" y="271.19" width="64.02" height="97.37" maskUnits="userSpaceOnUse"><g class="cls-1"><path class="cls-2" d="M136.63,298.68A303.51,303.51,0,0,0,158,365.83a28.44,28.44,0,0,0,22.47.8h0a49,49,0,0,0,12.79-7.3c-.07-.47-4.13-24.41-4.34-24.83-2.64-14.22-4.16-21.18-8-37-.75-2.76-.11-2.26-1.54-6.36v0c-1-2.95-1-2.29-2.1-6.08,0-.06,0-.09,0-.15-.2-.52-.59-2.43-.71-2.87a2.81,2.81,0,0,0-.12-.59c-2.58-12.47-5.6-11.54-32.51-7.51-.19,0-12.56,2.07-12.68,2.19a16.75,16.75,0,0,0-1.77.3C128.62,282.37,130.66,291.11,136.63,298.68Z"/></g></mask><linearGradient id="linear-gradient-4" x1="-6250.79" y1="319.87" x2="-6186.76" y2="319.87" xlink:href="#linear-gradient-3"/><linearGradient id="linear-gradient-5" x1="-5916.56" y1="419.97" x2="-5865.61" y2="419.97" gradientTransform="matrix(-1, 0, 0, 1, -5770.16, 0)" xlink:href="#linear-gradient-3"/><linearGradient id="linear-gradient-6" x1="-5915.85" y1="409.61" x2="-5894.88" y2="409.61" gradientTransform="matrix(-1, 0, 0, 1, -5770.16, 0)" xlink:href="#linear-gradient-3"/><linearGradient id="linear-gradient-7" x1="-5970.38" y1="455.49" x2="-5938.93" y2="455.49" gradientTransform="matrix(-1, 0, 0, 1, -5770.16, 0)" xlink:href="#linear-gradient-3"/><linearGradient id="New_Gradient_Swatch_copy_36-2" x1="-6241.96" y1="266.54" x2="-6174.34" y2="185.94" xlink:href="#New_Gradient_Swatch_copy_36"/><linearGradient id="New_Gradient_Swatch_copy_38" x1="-6241.37" y1="247.35" x2="-6176.57" y2="152.32" gradientTransform="matrix(-1, 0, 0, 1, -6057.48, 0)" gradientUnits="userSpaceOnUse"><stop offset="0" stop-color="#097660"/><stop offset="1" stop-color="#37a999"/></linearGradient><linearGradient id="New_Gradient_Swatch_copy_38-2" x1="-6179.38" y1="190.93" x2="-6186.64" y2="167.11" xlink:href="#New_Gradient_Swatch_copy_38"/><linearGradient id="New_Gradient_Swatch_copy_11-6" x1="-6202.29" y1="142.58" x2="-6198.66" y2="175.71" gradientTransform="matrix(-1, 0, 0, 1, -6057.48, 0)" xlink:href="#New_Gradient_Swatch_copy_11"/><linearGradient id="New_Gradient_Swatch_copy_11-7" x1="-6193.15" y1="177.76" x2="-6177.39" y2="210.17" gradientTransform="matrix(-1, 0, 0, 1, -6057.48, 0)" xlink:href="#New_Gradient_Swatch_copy_11"/><linearGradient id="New_Gradient_Swatch_copy_36-3" x1="-6195.82" y1="149.42" x2="-6185.24" y2="165.39" xlink:href="#New_Gradient_Swatch_copy_36"/><linearGradient id="New_Gradient_Swatch_copy_38-3" x1="-6192.14" y1="170.42" x2="-6204.09" y2="185.02" xlink:href="#New_Gradient_Swatch_copy_38"/><linearGradient id="New_Gradient_Swatch_copy_38-4" x1="-6253.12" y1="239.34" x2="-6188.31" y2="144.32" xlink:href="#New_Gradient_Swatch_copy_38"/><linearGradient id="New_Gradient_Swatch_copy_36-4" x1="-6213.82" y1="161.35" x2="-6203.23" y2="177.32" xlink:href="#New_Gradient_Swatch_copy_36"/><linearGradient id="New_Gradient_Swatch_copy_11-8" x1="-6187.81" y1="125.33" x2="-6204.07" y2="155.44" gradientTransform="matrix(-1, 0, 0, 1, -6057.48, 0)" xlink:href="#New_Gradient_Swatch_copy_11"/><linearGradient id="New_Gradient_Swatch_copy_38-5" x1="-6263.95" y1="216.46" x2="-6237.95" y2="216.46" xlink:href="#New_Gradient_Swatch_copy_38"/><linearGradient id="New_Gradient_Swatch_copy_36-5" x1="-6274.61" y1="239.15" x2="-6206.98" y2="158.55" xlink:href="#New_Gradient_Swatch_copy_36"/><linearGradient id="linear-gradient-8" x1="-6183.84" y1="241.08" x2="-6222.9" y2="199.07" gradientTransform="matrix(-1, 0, 0, 1, -6057.48, 0)" gradientUnits="userSpaceOnUse"><stop offset="0" stop-color="#17c5e6"/><stop offset="1" stop-color="#2172e2"/></linearGradient><linearGradient id="linear-gradient-9" x1="-6183.69" y1="240.94" x2="-6222.75" y2="198.93" xlink:href="#linear-gradient-8"/><linearGradient id="linear-gradient-10" x1="-6180.62" y1="196.12" x2="-6243.7" y2="187.28" xlink:href="#linear-gradient-8"/><linearGradient id="linear-gradient-11" x1="-6189.71" y1="181.09" x2="-6180.15" y2="208.07" xlink:href="#linear-gradient-8"/><linearGradient id="New_Gradient_Swatch_copy_11-9" x1="-6219.84" y1="243.38" x2="-6188.52" y2="232.39" gradientTransform="matrix(-1, 0, 0, 1, -6057.48, 0)" xlink:href="#New_Gradient_Swatch_copy_11"/><linearGradient id="New_Gradient_Swatch_copy_11-10" x1="-6204.4" y1="237.14" x2="-6228.6" y2="242.78" gradientTransform="matrix(-1, 0, 0, 1, -6057.48, 0)" xlink:href="#New_Gradient_Swatch_copy_11"/><filter id="luminosity-noclip-4" x="148.6" y="230.42" width="9.71" height="17.13" filterUnits="userSpaceOnUse" color-interpolation-filters="sRGB"><feFlood flood-color="#fff" result="bg"/><feBlend in="SourceGraphic" in2="bg"/></filter><mask id="mask-4" x="148.6" y="230.42" width="9.71" height="17.13" maskUnits="userSpaceOnUse"><g class="cls-3"><path class="cls-4" d="M151.83,230.57a14.34,14.34,0,0,1-3.23,15.27,4.33,4.33,0,0,0,5.79,1,15.42,15.42,0,0,0,3.09-15.27A7.79,7.79,0,0,0,151.83,230.57Z"/></g></mask><linearGradient id="linear-gradient-12" x1="-6215.79" y1="238.99" x2="-6206.08" y2="238.99" xlink:href="#linear-gradient-3"/><linearGradient id="New_Gradient_Swatch_copy_11-11" x1="-6252.03" y1="213.06" x2="-6257" y2="241.51" gradientTransform="matrix(-1, 0, 0, 1, -6057.48, 0)" xlink:href="#New_Gradient_Swatch_copy_11"/></defs><title>manPhase1</title><g class="cls-5"><g id="Layer_1" data-name="Layer 1"><path class="cls-6" d="M138.08,173.66c-7.69,12.14-20,21.83-27,27.92C90.93,219.75,94.3,218.29,43,192.31a11.06,11.06,0,0,0,4.31-3.41c8.08-10.78-12.22-10.5,41.19,4.37,15.47-12,34.24-49.48,49.65-26A5.88,5.88,0,0,1,138.08,173.66Z"/><path class="cls-7" d="M127,187.19c-2.28,2.48-4.43,4.23-6.17,6-24.34,20.6-24.86,25.66-45.2,16.19,0,0-.05,0-.11,0-7.88-3.63-19.27-9.46-32.55-17,2.37-3.65,4.77-7.28,7.17-10.93v0A15.25,15.25,0,0,1,49.34,192c9.86,5.57,18.32,9.69,24.58,12.55,11.42,5.22,14.91,6,18.82,5.06,8.43-2,15.36-11.16,13.72-15.58-.46-1.22-.95-1-2.89-3.27-2.65-3.14-5.07-7.14-2.56-10.36l.19-.25c.65-.51,1.09-.92,1.14-1.2l3.14-3.92C112.65,179.06,119.85,183.12,127,187.19Z"/><path class="cls-8" d="M135.48,161.75c-5.53-2.48-5.81-3.63-8.09-3.54a17.75,17.75,0,0,0-7.12,1.93c-2,1-2.24,1.57-10.92,9.43-5.83,5.27-8.19,7.6-8.49,9.65-1,7,9,15.08,16.47,17.34,14.77-17,20.73-17.47,22.64-25.16a15.62,15.62,0,0,0-.22-7.9C138.75,163.13,137.26,162.55,135.48,161.75Z"/><path class="cls-9" d="M117.33,196.56a29.5,29.5,0,0,1-13-8.53c1.22-1.57,3-3.94,4.93-6.93,5.18-7.94,5.35-10.41,7.87-11.23,4.89-1.58,8.78,6.25,14.2,5.24,2.69-.5,5.77-3.17,8.39-11.61,2.6,7.45-1.68,14.48-7.38,19.93S120.94,193.65,117.33,196.56Z"/><path class="cls-10" d="M50.16,181.38c0,2.62-.6,7.76-2.11,9.63a6.31,6.31,0,0,1-2.84,2,23,23,0,0,0-4.69-1A11.83,11.83,0,0,1,36.13,191h0c-.92-.31-8.41-1.79-9.32-2-2.78-.14-4.45-2.46-4.09-3.11.25-.46,1.45,0,4.34.36,5.48.71,6.67.41-3.06-.9-2.94-.44-3.46-.63-3.95-1-.85-.68-1.72-2-1.36-2.56.49-.82,2.86.24,8.12.46,5.17.4.85-.66-3.9-1.12-2.86-.27-4.44-.16-5.07-1.25a1.58,1.58,0,0,1,0-1.61c.5-.66,3.95-.48,4.8-.38,1.88,0,3.76,0,5.64,0a29.28,29.28,0,0,0-4.36-.57c-1.39,0-2.51,0-2.89-.65a1.61,1.61,0,0,1,0-1.34c.41-1,1.78-1.39,3-1.55a12.46,12.46,0,0,1,2.62-.06c9.11-1,6.66.25,8.53.25a.86.86,0,0,0,.44-.19c.46-.38,2.86-1.53,6.32.87,1.47,1,1.5.52,3.44,2.15C49.35,180.16,50.16,181.38,50.16,181.38Z"/><path class="cls-11" d="M35.75,173.41c.19,0-.1,1.1.39,2.51a18.06,18.06,0,0,0,1.57,2.64,14,14,0,0,0,1,1.7c.91,1,1.92,1,2.37,2.07.12.28.08.4.18.64.89,2.11,4,2.91,3.86,3.64-.09.45-1.44.07-2.36,1.07a4.47,4.47,0,0,0-.89,2c-.15.79,0,1-.17,1.15-.63.43-4.44-2.1-4.28-4.63.08-1.17,1-2.28.52-3.78-.33-1.14-.92-1-1.89-2.62a7.28,7.28,0,0,1-1-4C35.07,174.63,35.5,173.38,35.75,173.41Z"/><path class="cls-12" d="M35.28,170.8a14.82,14.82,0,0,1-4.24.59c-1.66,0-2.67-.3-3,.24s.19,2.1,1.3,2.66c1.4.72,3.66.65,4.89,1C37,176.18,36.66,180,40,181c2.59.77,4.46-1.18,5.46-3.64A14.73,14.73,0,0,0,35.28,170.8Z"/><path class="cls-13" d="M141.74,153.37c11.9-6.36,33-1.07,44.58,11.82,18.78,20.92,7.71,43.7,4.5,63.09-1.19,7.18-.73,9.84-2.42,16.33-1.27,4.91-1.7,4.3-3.07,9.74-1.69,6.71-1.37,9-3.44,12.31-7.31,11.77-19.13,7.49-30.54-.24C127.44,250.23,114.18,168.1,141.74,153.37Z"/><path class="cls-14" d="M125,154.11c.49-4,6.73-6.37,9.36-7.39,4-1.53,9.74-2.55,29.8,4.12,23.38,7.76,27.41,13.09,28.77,15.09.8,1.18,7.26,10.65,4.11,15.2C189.08,192.62,123.35,167.55,125,154.11Z"/><path class="cls-6" d="M118.47,349.77c7.44,37.18,8.42,42.5,8.42,56.78,4.7,9.4,14,5.43,15.64,2.17.65-1.39.09-2-.28-4.21-.86-4.56.43-12.46.22-18-.43-11.27,2.69-21.25,1-34.92C142.9,352.13,118.84,348.89,118.47,349.77Z"/><path class="cls-15" d="M138.27,371c.74,7.36,1.44,17.22-4.12,20.13-5,2.64-7.68,0-8.14-.46.14.93.23,1.85.32,2.87,2.18.46,11,2.08,15.83.92a51.94,51.94,0,0,0,.31-8.05c-.4-11.2,2.68-21.14,1-34.75-.55.51-24.61-2.73-25-1.85.41,2.08.83,4.17,1.2,6.16a55.22,55.22,0,0,0,8.24,1.62C134.25,358.47,137.58,363.65,138.27,371Z"/><path class="cls-16" d="M109.32,304.53c2.24,13.61,4.11,43.06,4.11,46a41.74,41.74,0,0,0,33.39.09c-.88-16.94.47-3.54-1.44-35-1.26-24.74,2.94-22.28-.24-30.53-4.48-12.12-22.9-16.21-35.7-17.59C108.08,278.33,108.09,297,109.32,304.53Z"/><path class="cls-17" d="M131.78,348.86c-6.74,1.39-17.67,1.66-18.35,1.66v0a44.4,44.4,0,0,0,6.11,2.16h0a42.5,42.5,0,0,0,27.25-2v0c-.87-16.74.46-3.62-1.44-35-1.31-25.67,3-21.18-.36-30.68-4.31-12-23-16.08-35.58-17.44-.06.47-.12,1-.15,1.51.83,4.76,11.53,14,17.11,25.21,3.58,7,5.26,3.9,7.57,24.53C136.12,338.28,137.57,347.62,131.78,348.86Z"/><path class="cls-6" d="M162.07,366s0,0,0,.08c8,20.13,14.72,41.7,16.2,63.9.16.33.49,8.91.5,9.28,1.31,1.31,1.64,1.81,4.55,2.63,5.32,1.78,11.85-.77,13.63-3.75-.18-1.92-.33-3.76-.42-5.44-.15-.32-.45-8.48-.47-8.84-.15-5.76-.47-5.85-.62-9.57-.82-18.77,4.1-34.84-10-56.3a41.12,41.12,0,0,1-20.63,7.83v.06C163.88,366,163,366,162.07,366Z"/><path class="cls-18" d="M162.1,366.12c.62,1.57,1.24,3.14,1.84,4.7a1.37,1.37,0,0,1,.17.3c19.15,9.78,22.14-3.11,24.36,14.13,1.39,10.07-1.72,18.91-.68,26.51s.41,12.32-2.37,11.88c-1.91-.3-7.73-.92-7.86-.92s.55,4.44.74,7.3c0,.06.14,1.63.15,1.69,5.46,1.36,16.93,3.1,16.93,3.1s.48-.95,1.13-2.45c0-.08-1.08-19.8-1.07-20-.55-18,3.72-33.45-9.93-54.29a41.12,41.12,0,0,1-20.63,7.83v.06C164.53,366.54,163.26,366.33,162.1,366.12Z"/><g class="cls-19"><path class="cls-20" d="M136.63,298.68A303.51,303.51,0,0,0,158,365.83a28.44,28.44,0,0,0,22.47.8h0a49,49,0,0,0,12.79-7.3c-.07-.47-4.13-24.41-4.34-24.83-2.64-14.22-4.16-21.18-8-37-.75-2.76-.11-2.26-1.54-6.36v0c-1-2.95-1-2.29-2.1-6.08,0-.06,0-.09,0-.15-.2-.52-.59-2.43-.71-2.87a2.81,2.81,0,0,0-.12-.59c-2.58-12.47-5.6-11.54-32.51-7.51-.19,0-12.56,2.07-12.68,2.19a16.75,16.75,0,0,0-1.77.3C128.62,282.37,130.66,291.11,136.63,298.68Z"/></g><path class="cls-17" d="M160.37,316.9A55.38,55.38,0,0,0,162.43,327c2.07,6.85,4.39,14.46,9.23,15.52,1.44.37,8.7-2.94,10.08-3.53,5-2.11,6.44-3,7.25-4.08A53,53,0,0,0,183.8,308c-.2-.4-.35-.8-.55-1.16A152.71,152.71,0,0,1,160.37,316.9Z"/><path class="cls-21" d="M163.09,316.9c.82,6.56,4.35,22.85,10.43,25.35a79.08,79.08,0,0,0,8.11-3.22h.05l.06-.06c5-2.11,6.44-3,7.25-4.08a53.8,53.8,0,0,0-1.41-16.22,1.81,1.81,0,0,0-.1-.56A54.18,54.18,0,0,0,183.8,308c-.1,0-.15.1-.25.1-2.82,1.52-6.1,3.08-9.47,4.54H174C170.45,314.18,166.72,315.64,163.09,316.9Z"/><path class="cls-22" d="M160.36,316.92a15.29,15.29,0,0,1,3.55,6.08.26.26,0,0,0,.17-.06,52.88,52.88,0,0,0,6.54-1.27,49.52,49.52,0,0,0,15.69-7.47h0v0c.32-.18.59-.42.89-.59a6.9,6.9,0,0,0-3.94-6.74h0A149.28,149.28,0,0,1,160.36,316.92Z"/><path class="cls-17" d="M179.39,291.08s3.84,15.75,3.85,15.76h0a6.9,6.9,0,0,1,3.94,6.74c-.3.17-.57.41-.89.59v0A53.7,53.7,0,0,1,189,327.94s0,.06,0,.12a39.55,39.55,0,0,1,0,6.44,1.15,1.15,0,0,0,0,.38c1.07,5.64,3.24,17.91,4.31,24.45a49,49,0,0,1-12.79,7.3h0a28.44,28.44,0,0,1-22.47-.8c8,1.71,19.51,1.86,24-4.64a5.08,5.08,0,0,0,1-1.8c.5-2.13-1.27-4.35-2.07-9.93-1.06-7.19-4-8.43-4-8.43,2.42-.6,2.59-9.34,2-11.73-1.48-5.88-3.1-5.2-14.81-6.27h0V323c2.3,0,10.19-1.94,15.82-4.87-1.45-2.46-3.37-3.61-5.86-5.47a11.53,11.53,0,0,1-1.06-.71.1.1,0,0,0,0-.06c-5.3-13.86-6.76-18.52-13.51-25.49a218.67,218.67,0,0,1-21.92-2.71c-2.77-.5-6.51-1.23-8.37-4.19-1.34-2.13-1.8-5.55-.49-6.4.3-.2,13.35,1,23.22-.37,11-1.54,18-2.66,21.28.62,2,1.78,2.54,4.64,3.25,8.07a2.81,2.81,0,0,1,.12.59l.73,3A59,59,0,0,0,179.39,291.08Z"/><path class="cls-23" d="M144.78,412.45c1.87,5,2.59,11.35-1.55,14.74-1.62,1.34-3.81,2.12-11.25,2.33a23.8,23.8,0,0,0-3.3.05,41,41,0,0,0-11.45,3.83c-11.14,5.78-25.88-.86-21.14-10.87Q120.24,416.65,144.78,412.45Z"/><path class="cls-24" d="M117.43,431.5a41.5,41.5,0,0,1,11.44-3.83c1-.15.76.05,3.33-.05,3.43-.16,8.61-.08,11.24-2.32,4.1-3.34,3.32-10.48,1.41-15.27-.1,0-.21-.15-.31-.2-6.3-3.93-10.93-3.78-14.11-3.38-6.92.89-8.77,6.83-18,8.37-6.55,1.36-9.82-.4-13.45,3C88.2,428.06,104.49,438.28,117.43,431.5Z"/><path class="cls-25" d="M96,422.33a.34.34,0,0,0,.11.2c5.88,9.94,19.61,5.34,20.83.26.66-2.73-1.15-6-4.51-8-6.55,1.36-9.82-.4-13.45,3A11.71,11.71,0,0,0,96,422.33Z"/><path class="cls-26" d="M125.09,392.39c.75,2.64,1.82,12.39,1.41,15.68a2.33,2.33,0,0,0,.25,1.46v.05a7,7,0,0,0,2.07,3,17.94,17.94,0,0,0,5.64,2.42,3.49,3.49,0,0,0,.86.05c4.34.36,8.07-1.87,9.07-3.88,1.06-2.17-.7-2.67-.6-9.22.05-2.19.16-6.65.35-9.07a4.72,4.72,0,0,0-1.66.15s-.1.05-.15.1a14.48,14.48,0,0,1-10.23,1.46A28.42,28.42,0,0,1,125.09,392.39Z"/><path class="cls-27" d="M126,397.94a33,33,0,0,0-.71-4.39c.1-.05.15-.1.2-.1a13.25,13.25,0,0,0,18.65-.55c-.19,2.42-.3,6.88-.35,9.07-.1,6.55,1.66,7,.6,9.22s-5.09,3.93-7.46,3.93c-.09,0-2.4,0-2.47-.1a17.94,17.94,0,0,1-5.64-2.42,7,7,0,0,1-2.07-3v-.05a11.1,11.1,0,0,1-.35-3,.62.62,0,0,0,.15.1h0c1.06.66,7,3.83,9.48,1.92,1.61-1.25,2.15-5.9,0-7.78-1.27-1.1-2.48-.42-5.63-1.13A17.29,17.29,0,0,1,126,397.94Z"/><path class="cls-26" d="M129.85,397.42c-5.71-1.14-6.73-5-3.9-7.05,0,0,.16.71.21,1.22a13.26,13.26,0,0,0,8.36,2.94c3.81-.1,7.54-2.08,7.78-3.57,0-.18.21-1.6.21-1.6C149.06,390.67,141.37,399.72,129.85,397.42Z"/><path class="cls-28" d="M135.12,427.52c5.14-.36,6.95-1.06,8.32-2.22,4-3.27,3.22-9.48,1.71-14.46l-4.94,2.87c2.52,1.06,1.46,8.42.2,10.48C139.45,425.8,136.68,426.71,135.12,427.52Z"/><path class="cls-28" d="M124,409.17c2.71,6.9,15.13,9,21.52,3.23a12.91,12.91,0,0,0-.7-2.37c-.1,0-.21-.15-.31-.2-5.45,4.12-14.1,4.41-18.74-1.87A20.63,20.63,0,0,0,124,409.17Z"/><path class="cls-29" d="M126.22,405.35s-1.33-.57-1.44,1a5,5,0,0,0,.11,2c1,3.4,5.35,6.61,12.9,5.3.75-.13,7.6-1.33,7.89-3.95.12-1.16-.5-3.09-1.32-2.15-.68.78-4.46,3-10.55,2.57S126.22,405.35,126.22,405.35Z"/><path class="cls-30" d="M170.55,476.2c4,5.32,17.73,5.66,24.74-4.49a2,2,0,0,1,.25-.45c6.25-9,1.81-16.81,2.82-27.16a8.68,8.68,0,0,0,1.36-8.22c-3.2-7.65-28.78-6.61-23.63,6.91,0,.27,1.26,4.82,1.26,5A12.8,12.8,0,0,1,176,457.2c-.05.05-.05.15-.1.2a8.7,8.7,0,0,1-.51.81c-1.25,2.52-2.58,3-4.13,5C167.9,467.81,168.25,473.08,170.55,476.2Z"/><path class="cls-25" d="M191.42,468.62c.11-1.66-1.85-3-3.26-4-4.31-3-11.43-4.07-15.53-.42-5.69,5-1.15,8.85,6.51,9.34C184.65,473.91,191.22,471.54,191.42,468.62Z"/><path class="cls-28" d="M173.42,460.93c4.81-1.35,8.37-2.23,13.61-.71,2.41.71,5.24,1.57,7,4.29a9.93,9.93,0,0,1,1.26,7.2,2,2,0,0,1,.25-.45c2-4.05,2.86-4.73,3.28-8.92.53-5.3-1-12.35-.46-18.24-5.83,5.19-13.68,5.53-18.29,3-1.76-1-3.27-3.43-4-4.33C178.56,451.75,178.53,453.9,173.42,460.93Z"/><path class="cls-23" d="M198.73,464c-.26,6.47-5.65,12.72-12.54,15s-18.14,1.85-17.34-7.66c.53,6.44,13.32,6.49,17.5,5.08,5.78-1.93,11.27-8,12.47-14.11C198.8,462.88,198.75,463.44,198.73,464Z"/><path class="cls-28" d="M177.55,439c.64,3.29,2.76,4.62,5.78,5.57a13.68,13.68,0,0,0,8,.21c.35-.11,7.44-2.25,7.76-6.74a5.42,5.42,0,0,0-1.26-3.72c-2.82-2.37-17.33-3.1-19.35,1C178.12,435.48,177.55,439,177.55,439Z"/><path class="cls-26" d="M177.65,427.77c0,.25.15,2.41.15,2.63.17,6.53-1,9.71,5,11.7,4.5,1.68,10.93.77,14.77-3.06a3.09,3.09,0,0,0,1-2.56l-1.11-10.34a14.45,14.45,0,0,1-8.12,3.28s0,0-.1,0a16,16,0,0,1-9.42-1C179.63,428.39,177.76,427.84,177.65,427.77Z"/><path class="cls-27" d="M177.65,427.77c0,.34.15,2.36.15,2.56a14.26,14.26,0,0,0,2.07.6c5.44,1.44,9.07.08,10.48,1.59.51.52.4,1.32.2,3-.1,1.47-.2,2.6-1.31,3.65-2.5,3-9.57,1.81-11.34-2.64,0,6.88,13.24,8.93,19.66,2.53a3.09,3.09,0,0,0,1-2.56l-1.11-10.34a14.45,14.45,0,0,1-8.12,3.28s0,0-.1,0a16,16,0,0,1-9.42-1C179.63,428.39,177.76,427.84,177.65,427.77Z"/><path class="cls-26" d="M196.09,422.58c1.62.5,3.36,2.65,1.9,4.14-4.55,4.66-18.24,5-21.46.77a3.22,3.22,0,0,1,1.15-3.85c.06.65.11,1.29.17,1.94a18.22,18.22,0,0,0,18.15-.46A17.92,17.92,0,0,0,196.09,422.58Z"/><path class="cls-31" d="M110.87,244.47c-1,8.89-3.49,16.92-1.68,23,1.14,4.1,5.45,6,8.77,7.17,17.25,8.65,32,7.42,41.84,7.42,4.92-.57,9.84-1.8,13.16-5.33a10.62,10.62,0,0,0,2.37-4c1.07-2.42,0-6.27-.78-8.82-.08-.24-.81-17.5-.49-21.47.7-8,3.12-15.21,6.07-22.3.24-.61.49-1.18.74-1.8a13.78,13.78,0,0,0,1.84-1.06,15.69,15.69,0,0,0,4.3-3.41c3.65-4,3.36-8.68,3.77-13.85a59.61,59.61,0,0,0-1.14-16.84,11.48,11.48,0,0,0-2.71-5.45,27.46,27.46,0,0,0-5.2-4c-15.21-10.16-32.5-18-50.74-18.36-11.68-.37-13,5.29-17.58,16.44a80.44,80.44,0,0,0-6.11,29.26c0,2.21.53,8.48,1.68,21C110.83,242.66,111.15,241.8,110.87,244.47Z"/><path class="cls-32" d="M151.91,222c.52,6.3,1.16,13.79,5.05,22.54,3.35,7.54,6.24,9.55,7.51,15.34,1.67,7.61-.87,15.26-5,22.17,0,0,0,0,.06,0s.15,0,.24,0c4.93-.56,9.84-1.8,13.15-5.32a10.71,10.71,0,0,0,2.39-4c1-2.3.07-6.5-.79-8.81,0,0-.06-.59-.09-1.47-.09-1.81-.21-5.06-.33-8.46,0-.65,0-1.3-.06-2v0c-.21-7.17-.85-15.63,6-31.8-2.45-4.7-3.93-10.62-6.41-15.29-1.44,2.84-4.19,7-5.13,6.71-1.43-.42-.51-8.11.39-12.54,1.25-6.16,4.34-15.28,12.87-25.4a144,144,0,0,0-16.26-9.42c-1.8,2.42-7,14.06-9.16,22.25C153.53,197.37,150.75,208,151.91,222Z"/><path class="cls-33" d="M132.49,178.27l-6.54-3-5.59,3.79c-.36-9.52,3.35-18.35,12.34-23.18C136,163.14,135.56,171,132.49,178.27Z"/><path class="cls-34" d="M135.18,178c14.54-7.27,22.93-8.64,22.93-13.48-.11-.93-2.52-15.05-3.16-15.78-2.84-3.22-8.33-1.45-17.32-2.75-2.53-.38-6.18-1.05-8.72-1.68,1.3,3.63,2.6,7.53,3.79,11.64C134.32,161.72,133.94,178.24,135.18,178Z"/><path class="cls-35" d="M128,172.05c1.57,1.8,3.2,4.48,4.5,6.22.24-.11,5-1.5,5-1.5,5.43-1.64,12.26-4.29,16.32-8.25,1.82-1.78,3.26-3.83,3-4.05s-1.26,1-3.39,2.08a15.87,15.87,0,0,1-4.56,1.35c-12.38,2.24-11.29,3.73-15.64-9.73l-2.09-1.35S127.89,161.25,128,172.05Z"/><path class="cls-36" d="M132.69,155.89C126,158.79,122,168.52,121.47,176c1.56.14,4.4-4.32,6-4.17.19-.67,1.11-4.3,1.37-4.93a18.76,18.76,0,0,1,.9-1.8c1.31-2.25,3.29-6.77,3.53-7A12.4,12.4,0,0,0,132.69,155.89Z"/><path class="cls-37" d="M127.44,171.86c8.75,10,3.33,7.6,4.05-2.11.32-4.32.78-9.81,1.75-11.58C128.79,161.14,127.68,167.4,127.44,171.86Z"/><path class="cls-38" d="M132.49,178.27c.21-.11,1.45,0,2.69-.32.15,0,.27-.09.41-.12,2.6,3.64,4.55,6.65,5.44,8.13,6.89-6.27,13.33-8.19,18.32-11.14,3.05-1.84,5.62-6.42,6.15-10.52,0-.51-.2-1.69-2.84-3.91-1.77-1.5-3.57,1.87-4.55,4.08v0a5.31,5.31,0,0,1-2,2.31c-3.21,3.21-20.2,8.86-20.6,8.36Z"/><path class="cls-39" d="M135.48,175.18c.87,1.18,3.84,5.5,5.73,8.52C153,173,160.29,177.07,165.58,164c-.1-4-4.37-5.8-8.6-6,.76,2.4-.22,5.06-.83,6.46-2,4.69-6.07,2.33-20.47,10.55C135.63,175.08,135.53,175.13,135.48,175.18Z"/><path class="cls-6" d="M121.29,130.45c1.09,3.52,2.42,3.37,3.46,7.72,1.1,4.55,0,6,5.52,8.66a6.58,6.58,0,0,0,5.56.44c8.14,7.82,20.43,11.46,28.08,3.64s4.49-24.74-2.37-35.2l-2.39-3.64c-8.14-6.8-24.43-11.26-31.95-4.25-2.68,2.48-3.61,6.14-4.67,9.84C121.2,122.24,120,126.14,121.29,130.45Z"/><path class="cls-40" d="M121.29,130.45c1.09,3.52,2.42,3.37,3.46,7.72,1.1,4.55,0,6,5.52,8.66a6.58,6.58,0,0,0,5.56.44c.74.71,10,9.58,20.07,7.77,0-.17-.18-.29-.51-.26-2.21.15-11.61-4.05-17.52-13.48s1.27-25.86,1.27-25.86-10.2-3.6-14.66-3.66a48.05,48.05,0,0,0-2,5.88C121.2,122.24,120,126.14,121.29,130.45Z"/><path class="cls-41" d="M128.14,150.46l4.56,5.44c-.8-3-1.6-6-2.43-9.07-3.48-3.84-5.58-10.49-1-13.09.56-.33,2.24-1.3,3.52-.65,1.74.88.94,4,2.86,4.87a1.55,1.55,0,0,0,1.57,0c.83-.71-.77-2.84-.89-5.76a18.41,18.41,0,0,1,.74-6.18c.35-1.26,3-10.27,8.19-10.93.87-.12,2.58-.17,3,.66a1.73,1.73,0,0,1-3.3,1,3.21,3.21,0,0,0,1.55,2.27c1.72.84,4.5-.68,5.46-2.58a11.56,11.56,0,0,1,1.24-2.57c1.25-1.74,2.86-2.73,6-1.83q2.79,4,5.5,8.54c-.31-16.23-14.45-27.88-32.34-22.37C108.3,105.86,108.29,134,128.14,150.46Z"/><path class="cls-42" d="M128.14,150.46l4.56,5.44c-.8-3-1.6-6-2.43-9.07-3.48-3.84-5.58-10.49-1-13.09.56-.33,2.24-1.3,3.52-.65,1.74.88.94,4,2.86,4.87a1.55,1.55,0,0,0,1.57,0,40.45,40.45,0,0,0-5.82-10.45c-2.44-3.11-3.51-3.39-4.68-4.93-3.91-5.14-1.84-16.36,5.41-22.83.83-.74,1.6-1.45,2.37-2.1-7.18,1.5-15,6.65-18.62,14.48C109.88,125.14,116.86,141.12,128.14,150.46Z"/><path class="cls-14" d="M131,155.38h-.07c-8.1,6.12-12.94,14.17-15.77,23.59-7.2,24-4,59.9-3.94,60.1l-.74,9.36a116.87,116.87,0,0,1-4.92-23.15c-.9-8.46-1.22-23.64.92-36,2.09-12.05,4.26-24.43,16.81-34.24C125.76,153.46,129.18,152.9,131,155.38Z"/><path class="cls-43" d="M129.87,154.28h-.06c-8.41,6.33-12.73,14.07-15.78,23.59-6.31,19.73-5.13,49.2-3.57,70.56-3-9.42-5.42-18.5-6-24.26-.9-8.46-1.21-23.64.92-36,2.09-12.05,4.27-24.42,16.81-34.23A7.7,7.7,0,0,1,129.87,154.28Z"/><path class="cls-14" d="M155.13,217.49c.38,11,.38,31.15,19.65,47.23a17.25,17.25,0,0,1-.32-2.24l-.33-8.46c-15.65-22.62-15.73-56,6.12-81a10.14,10.14,0,0,0,0-1.83c-.44-.09-.89-.18-1.33-.24A12.23,12.23,0,0,0,168,166.33C159.5,180.17,154.45,198.46,155.13,217.49Z"/><path class="cls-43" d="M155.13,215.66c.64,20.8,4,33.23,19.33,46.82-.23-4.68-.28-8.14-.39-10.41v0c-16.74-24.23-14.3-58.3,6.18-80.8a12.3,12.3,0,0,0-10.85-6.8,2.49,2.49,0,0,0-2.07,1.18C158.62,180.37,154.54,198.4,155.13,215.66Z"/><path class="cls-44" d="M167.34,165.62c-1.42,2.4-2.72,4.91-3.93,7.51,5-3.25,11.11-3.33,16.85-1.89a12.3,12.3,0,0,0-10.85-6.8A2.46,2.46,0,0,0,167.34,165.62Z"/><path class="cls-44" d="M156.58,232c.17,1.24.38,1.65.59,2.74,1.52,8.06,7.45,20.05,17.61,30a47.21,47.21,0,0,0-.71-12.65,64.16,64.16,0,0,1-8.72-18.82,65.21,65.21,0,0,1-2.3-16.17c-.25-10.68,2.1-10.67-3.31,1.95C158.41,222.1,156.1,228.52,156.58,232Z"/><path class="cls-45" d="M206.14,212.14s3,4.56-9,9.6-16.7-.73-16.7-.73C181.88,210.87,195.62,205.28,206.14,212.14Z"/><path class="cls-46" d="M168.9,199.1A172.07,172.07,0,0,1,180.5,221c3.93-9.26,16.2-11.21,25.65-8.85-5-13.19-12.61-30.7-24.38-38.4-.16,0-6.87,8.52-9.22,13.69A48,48,0,0,0,168.9,199.1Z"/><g class="cls-5"><path class="cls-47" d="M146.16,253.41l-13.91-52.34-35.8-9.56-1.28,1.28c.33,1.25,13.34,50.17,13.44,50.58C113.63,244.78,134.7,250.34,146.16,253.41Z"/><polygon class="cls-48" points="132.25 201.07 146.16 253.41 147.21 252.34 133.3 200 132.25 201.07"/><path class="cls-49" d="M141.84,257.76l.64-.64-13.85-52.4-.7.71Z"/><polygon class="cls-50" points="142.03 255.44 145 252.44 131.62 201.71 128.63 204.72 142.03 255.44"/><polygon class="cls-51" points="127.93 205.43 133.3 200.01 95.75 189.97 90.38 195.4 127.93 205.43"/><path class="cls-52" d="M95.8,192.16l35.82,9.55.63-.64-35.8-9.56Z"/><path class="cls-27" d="M128.69,204.73l2.93-3L95.8,192.16c-.81.82,1.6-1.6-2.93,2.9C99.82,197,126.57,204.16,128.69,204.73Z"/><path class="cls-47" d="M141.84,257.76l-13.91-52.33-37.53-10c.12.53,13.76,51.79,13.9,52.32Z"/><path class="cls-53" d="M137.43,253.35l-30.58-8.18c-.46-1.75-8.58-32.27-12-45.35L125.37,208Z"/></g><path class="cls-6" d="M139.46,223.11l1.45,5.65a26.87,26.87,0,0,0,6.81,0S142.56,224.31,139.46,223.11Z"/><path class="cls-6" d="M125,233c.19.47.74,1,1.26,1,.79-.08.94-1.21,2-2.18a4.5,4.5,0,0,1,3.76-1.09c0,.2-2.08.55-3.78,2.23-1.3,1.29-2.88,4.27-2,5.88,0,.1.52.94,1,.89s.74-1.16,1.16-1.93a4.76,4.76,0,0,1,5-2.52c-3.66,1.34-5.59,4-5.59,5.12,0,.2.57.77,1.38,1.39a10.47,10.47,0,0,1,7.74-2.55c-3.5.77-9.58,2.87-6.72,5,.57.42,1.28.37,3.31,0,.89-.18,2-.42,3.29-.72a4.66,4.66,0,0,1,2.42-.67c1.39,0,1.71.79,3.34,1.46,2.3.94,3.68.3,5.59.79,3.93,1.09.86.67,11.2,2.38,2.45.39,4.27.64,4.37.64,4.26.79,29.72,6.5,34,6.5a15.4,15.4,0,0,0,13.23-7.66c3.43-6.21-.15-15.51-.15-15.51s-6.26-15.94-7.15-16.66c-.56-.42-7.68-1.68-13.54-.17-3.65,1.21-6.43,2.64-7.42,6.35.31.86,4.13,11.27,4.47,12.12-11.15-2-27.65,1.36-35.08-2.35-.05,0-.08,0-.1,0-5-3.21-9.2-4.13-15-4.77a15.79,15.79,0,0,0-4.33-.2C128,226.47,124.23,231,125,233Z"/><path class="cls-54" d="M136.74,243.48a3.76,3.76,0,0,1,2.32-.67c1.4,0,2,.89,3.44,1.46,2.3.94,3.68.3,5.59.79.88.25,2.19.74,3,.89.6.11,1.16.27,1.16.27v0c3-4,4.3-11.13,3.86-11.79a36.92,36.92,0,0,0-3.86-3.54c0-.05-.05-.05-.07-.07h0a.56.56,0,0,0-.15-.1c-.05,0-.1-.1-.12-.1s0,.05,0,.07c.15.57,1.34,4.9-.72,7.74-2.17,3.09-2.79,3.14-5.63,3.14S138.82,241.06,136.74,243.48Z"/><path class="cls-55" d="M184.41,252.33c-3.9-2.07-18.34-9.44-21.23-12.28s-2.41-6.6-2.69-7.61a36.79,36.79,0,0,1-4.19-.43c-.5,1.48-4.22,12.56-4.48,14.11,1.76.57,8.53,1.44,10.35,1.73C172,249.63,176.2,250.91,184.41,252.33Z"/><g class="cls-56"><path class="cls-57" d="M151.83,230.57a14.34,14.34,0,0,1-3.23,15.27,4.33,4.33,0,0,0,5.79,1,15.42,15.42,0,0,0,3.09-15.27A7.79,7.79,0,0,0,151.83,230.57Z"/></g><path class="cls-58" d="M182.58,220.93c.31.86,4.14,11.29,4.47,12.12a24.31,24.31,0,0,1,4.73.66c2,.47,2.91.94,3.21.6.77-.92-4.8-5-3.81-7.74.72-1.95,5.1-2.5,8.36-1.83a15.3,15.3,0,0,1,2,29.3,15.12,15.12,0,0,0,9.3-7.12c3.43-6.21-.15-15.51-.15-15.51s-6.26-15.94-7.15-16.66c-.56-.42-7.68-1.68-13.54-.17a15.24,15.24,0,0,0-2.55.91C185.08,216.77,183.33,218.12,182.58,220.93Z"/></g></g></svg>