<svg id="Layer_1" data-name="Layer 1" xmlns="http://www.w3.org/2000/svg" viewBox="0 0 264.65 108.36"><defs><style>.cls-1,.cls-11{fill:#2dd687;}.cls-10,.cls-2{fill:#00a8f0;}.cls-3,.cls-8{fill:#fcda00;}.cls-4,.cls-7{fill:#fcc200;}.cls-5,.cls-9{fill:#7b6ce6;}.cls-6{fill:#fffbf7;}.cls-10,.cls-11,.cls-7,.cls-8,.cls-9{fill-rule:evenodd;}</style></defs><title>pine map - pineCity</title><path class="cls-1" d="M231.78,18.51c0,6.68,4.81,12.09,4.81,12.09s4.8-5.41,4.8-12.09-4.8-12.1-4.8-12.1-4.81,5.42-4.81,12.1Z"/><rect class="cls-2" x="236.36" y="11.89" width="0.46" height="22.7"/><path class="cls-1" d="M182.05,13.71s-3.51,3.45-3.51,7.71,3.51,7.71,3.51,7.71,3.5-3.45,3.5-7.71-3.5-7.71-3.5-7.71Z"/><rect class="cls-2" x="181.82" y="20.48" width="0.46" height="17.22"/><path class="cls-2" d="M173.27,13.71s-3.5,3.45-3.5,7.71,3.5,7.71,3.5,7.71,3.51-3.45,3.51-7.71-3.51-7.71-3.51-7.71Z"/><rect class="cls-2" x="173.04" y="20.48" width="0.46" height="17.22"/><path class="cls-3" d="M164.5,13.71S161,17.16,161,21.42s3.51,7.71,3.51,7.71,3.5-3.45,3.5-7.71-3.5-7.71-3.5-7.71Z"/><rect class="cls-2" x="164.27" y="20.48" width="0.46" height="17.22"/><path class="cls-1" d="M199.59,13.71s-3.5,3.45-3.5,7.71,3.5,7.71,3.5,7.71,3.51-3.45,3.51-7.71-3.51-7.71-3.51-7.71Z"/><rect class="cls-2" x="199.36" y="20.48" width="0.46" height="17.22"/><path class="cls-1" d="M190.82,13.71s-3.51,3.45-3.51,7.71,3.51,7.71,3.51,7.71,3.5-3.45,3.5-7.71-3.5-7.71-3.5-7.71Z"/><rect class="cls-2" x="190.59" y="20.48" width="0.46" height="17.22"/><path class="cls-3" d="M132.41,16c0,5.74,4.12,10.39,4.12,10.39s4.13-4.65,4.13-10.39-4.13-10.38-4.13-10.38-4.12,4.65-4.12,10.38Z"/><path class="cls-1" d="M138,23.85c-4.19-.06-6.2,6.68-12.23,3.61-7.5-3.82-9.7,3.26-14.15.61-4.2-2.5-3.65-8.91-11.22-9.71-3.6-.39-5.11,1.23-8.81-.28-3.2-1.31-8.51,4.58-8.51,4.58V50.5L138,42.87s5.41-18.94,0-19Z"/><path class="cls-3" d="M243.22,21.69c0,6.68,4.81,12.1,4.81,12.1s4.8-5.42,4.8-12.1S248,9.6,248,9.6s-4.81,5.41-4.81,12.09Z"/><rect class="cls-2" x="247.8" y="19.56" width="0.46" height="19.64"/><polygon class="cls-2" points="248.03 24 246.42 22.35 246.09 22.67 248.03 24.65 249.96 22.67 249.63 22.35 248.03 24"/><path class="cls-1" d="M253.63,29.33c0,5.91,4.25,10.69,4.25,10.69s4.24-4.78,4.24-10.69-4.24-10.68-4.24-10.68-4.25,4.78-4.25,10.68Z"/><rect class="cls-1" x="257.65" y="27.43" width="0.46" height="15.56"/><path class="cls-1" d="M256,43c-4.31-1.9-3-4.49-6.78-5.6-4.49-1.34-6.59,3.09-8.79.87s-1.65-5.56-6.61-4.8V62.37h30.85v-18C261.42,41,258.7,44.14,256,43Z"/><path class="cls-1" d="M188.85,35.68c-3.76,1.15-4.34-.46-9,.22-3.61.52-4.62,3.32-7.84,2.67s-7.82-2.17-12.57.36c-5.22,2.77-3.89,11.52-3.89,11.52l8.65,2.44,35.4,6.62.16-26c-5.44-3.11-8.29,1.32-10.89,2.13Z"/><polygon class="cls-4" points="206.17 24.99 212.83 33.46 233.78 33.46 227.13 24.99 206.17 24.99"/><polygon class="cls-5" points="199.58 33.47 199.58 60.28 212.74 60.28 212.74 33.47 206.16 24.99 199.58 33.47"/><rect class="cls-3" x="212.83" y="33.46" width="20.95" height="26.89"/><rect class="cls-6" x="217.93" y="37.41" width="1.54" height="1.29"/><rect class="cls-6" x="217.93" y="41.29" width="1.54" height="1.29"/><rect class="cls-6" x="222.54" y="37.41" width="1.54" height="1.29"/><rect class="cls-6" x="222.54" y="41.29" width="1.54" height="1.29"/><rect class="cls-6" x="227.14" y="37.41" width="1.54" height="1.29"/><rect class="cls-6" x="227.14" y="41.29" width="1.54" height="1.29"/><rect class="cls-6" x="217.93" y="45.17" width="1.54" height="1.29"/><rect class="cls-6" x="222.54" y="45.17" width="1.54" height="1.29"/><rect class="cls-6" x="227.14" y="45.17" width="1.54" height="1.29"/><rect class="cls-2" x="203.1" y="37.41" width="1.54" height="1.29"/><rect class="cls-2" x="203.1" y="41.29" width="1.54" height="1.29"/><rect class="cls-2" x="207.71" y="37.41" width="1.54" height="1.29"/><rect class="cls-2" x="207.71" y="41.29" width="1.54" height="1.29"/><rect class="cls-2" x="203.1" y="45.17" width="1.54" height="1.29"/><rect class="cls-2" x="207.71" y="45.17" width="1.54" height="1.29"/><path class="cls-3" d="M195.45,40.33a4.06,4.06,0,0,0-3.07,1.4,4.18,4.18,0,0,0-4.14-4.1,4,4,0,0,0-1.75.4v-.1a4.19,4.19,0,0,0-4.15-4.23,4.07,4.07,0,0,0-2.49.85,4.19,4.19,0,0,0-4.14-3.8A4.07,4.07,0,0,0,173,31.83a4.16,4.16,0,0,0-3.86-2.68,4.2,4.2,0,0,0-4.15,3.92,4.06,4.06,0,0,0-2.12-.6,4.2,4.2,0,0,0-4.17,4.23v7.84h22.61V62h18.32V44.57a4.18,4.18,0,0,0-4.13-4.24Z"/><polygon class="cls-2" points="163.78 38.87 168.9 44.18 185.02 44.18 179.9 38.87 163.78 38.87"/><polygon class="cls-4" points="158.65 44.18 158.65 61.14 168.96 61.14 168.96 44.18 163.81 38.87 158.65 44.18"/><rect class="cls-3" x="168.9" y="44.18" width="16.12" height="16.86"/><rect class="cls-6" x="172.82" y="48.38" width="1.18" height="1.21"/><rect class="cls-6" x="172.82" y="52.01" width="1.18" height="1.21"/><rect class="cls-6" x="176.37" y="48.38" width="1.18" height="1.21"/><rect class="cls-6" x="176.37" y="52.01" width="1.18" height="1.21"/><rect class="cls-6" x="179.92" y="48.38" width="1.18" height="1.21"/><rect class="cls-6" x="179.92" y="52.01" width="1.18" height="1.21"/><rect class="cls-6" x="172.82" y="55.63" width="1.18" height="1.21"/><rect class="cls-6" x="176.37" y="55.63" width="1.18" height="1.21"/><rect class="cls-6" x="179.92" y="55.63" width="1.18" height="1.21"/><path class="cls-3" d="M124.83,14.31c0,5.74,4.13,10.39,4.13,10.39s4.12-4.65,4.12-10.39S129,3.93,129,3.93s-4.13,4.65-4.13,10.38Z"/><rect class="cls-2" x="128.73" y="14.08" width="0.46" height="25.61"/><path class="cls-1" d="M121.91,4.48s-4.8,4.18-4.8,9.32,4.8,9.33,4.8,9.33S126.7,19,126.7,13.8s-4.79-9.32-4.79-9.32Z"/><rect class="cls-2" x="121.68" y="11.14" width="0.46" height="26.29"/><polygon class="cls-3" points="137.97 23.85 149.74 23.85 158.66 11.51 146.9 11.51 137.97 23.85"/><rect class="cls-1" x="137.97" y="23.85" width="11.77" height="30.56"/><polygon class="cls-2" points="149.78 54.27 158.65 54.27 158.65 23.86 158.65 11.51 149.78 23.86 149.78 54.27"/><rect class="cls-3" x="153.51" y="32.05" width="1.39" height="5.15"/><path class="cls-3" d="M153.79,46.81a4.73,4.73,0,0,0-2.5.71,4.85,4.85,0,0,0-9.39-1.46,4.76,4.76,0,0,0-3.24-1.27,4.92,4.92,0,0,0-4.85,4.47,4.78,4.78,0,0,0-2.93-1,4.93,4.93,0,0,0-4.87,5v.11a4.71,4.71,0,0,0-2.05-.47,4.92,4.92,0,0,0-4.87,4.82,4.83,4.83,0,0,0-3.61-1.64,4.93,4.93,0,0,0-4.88,5h48.06V51.8a4.93,4.93,0,0,0-4.87-5Z"/><path class="cls-4" d="M38.73,41.74a3.45,3.45,0,0,0-1.62.41c0-.11,0-.21,0-.31A5.78,5.78,0,0,0,31.42,36a5.42,5.42,0,0,0-1.71.27,3.56,3.56,0,0,0-7.1,0A5,5,0,0,0,15.54,41a3,3,0,0,0,0,.43l-.38,0a3.65,3.65,0,0,0-.62,7.23c1.17,1.55,6.07,2.71,12,2.71,5.39,0,10-1,11.58-2.34a3.36,3.36,0,0,0,.63.06,3.65,3.65,0,0,0,0-7.3Z"/><rect class="cls-2" y="83.04" width="24.91" height="25.22"/><polygon class="cls-3" points="62.49 108.26 91.71 108.26 100.37 83.04 62.49 83.04 62.49 108.26"/><polygon class="cls-4" points="63.31 61.92 69.24 61.04 83.05 61.04 83.05 29.21 63.31 29.21 63.31 61.92"/><polygon class="cls-3" points="23.53 45.66 57.38 45.66 63.31 29.21 29.46 29.21 23.53 45.66"/><polygon class="cls-4" points="52.73 45.66 54.82 45.66 60.74 29.21 58.66 29.21 52.73 45.66"/><polygon class="cls-4" points="25.98 45.66 28.06 45.66 33.99 29.21 31.91 29.21 25.98 45.66"/><polygon class="cls-4" points="47.38 45.66 49.47 45.66 55.39 29.21 53.31 29.21 47.38 45.66"/><polygon class="cls-4" points="42.03 45.66 44.11 45.66 50.04 29.21 47.96 29.21 42.03 45.66"/><polygon class="cls-4" points="36.68 45.66 38.76 45.66 44.69 29.21 42.61 29.21 36.68 45.66"/><polygon class="cls-4" points="31.33 45.66 33.41 45.66 39.34 29.21 37.26 29.21 31.33 45.66"/><polygon class="cls-1" points="57.35 45.66 57.35 78.31 69.37 78.31 69.37 45.66 63.36 29.21 57.35 45.66"/><rect class="cls-5" x="23.53" y="45.66" width="33.85" height="32.52"/><polygon class="cls-5" points="123.36 40.01 137.95 40.01 130.66 32.55 123.36 40.01"/><polygon class="cls-4" points="100.37 40.01 123.36 40.01 130.66 32.55 107.67 32.55 100.37 40.01"/><rect class="cls-5" x="123.36" y="40.01" width="14.6" height="21.04"/><rect class="cls-3" x="100.37" y="40.01" width="22.98" height="21.04"/><polygon class="cls-2" points="8.13 63.15 0.11 63.15 0.11 83.18 8.21 83.18 9.31 83.18 25.01 83.18 25.01 52.56 8.13 52.56 8.13 63.15"/><polygon class="cls-4" points="16.14 45.66 16.14 52.56 31.02 52.56 31.02 45.66 23.58 37.91 16.14 45.66"/><polygon class="cls-2" points="23.6 37.91 30.93 45.66 48.17 45.66 40.84 37.91 23.6 37.91"/><polygon class="cls-3" points="31.02 52.56 25.01 52.56 25.01 83.18 48.19 83.18 48.19 52.55 48.19 45.69 31.02 45.69 31.02 52.56"/><rect class="cls-4" x="43.87" y="48.07" width="2.33" height="3.08"/><rect class="cls-4" x="38.21" y="48.07" width="2.33" height="3.08"/><rect class="cls-4" x="32.55" y="48.07" width="2.33" height="3.08"/><rect class="cls-4" x="43.87" y="56.97" width="2.33" height="3.08"/><rect class="cls-4" x="38.21" y="56.97" width="2.33" height="3.08"/><rect class="cls-4" x="32.55" y="56.97" width="2.33" height="3.08"/><rect class="cls-4" x="26.88" y="56.97" width="2.33" height="3.08"/><rect class="cls-4" x="43.87" y="65.88" width="2.33" height="3.08"/><rect class="cls-4" x="38.21" y="65.88" width="2.33" height="3.08"/><rect class="cls-4" x="32.55" y="65.88" width="2.33" height="3.08"/><rect class="cls-4" x="26.88" y="65.88" width="2.33" height="3.08"/><rect class="cls-4" x="19.79" y="56.97" width="2.33" height="3.08"/><rect class="cls-4" x="14.12" y="56.97" width="2.33" height="3.08"/><rect class="cls-4" x="19.79" y="65.88" width="2.33" height="3.08"/><rect class="cls-4" x="14.12" y="65.88" width="2.33" height="3.08"/><rect class="cls-4" x="8.46" y="65.88" width="2.33" height="3.08"/><rect class="cls-4" x="2.79" y="65.88" width="2.33" height="3.08"/><rect class="cls-4" x="19.79" y="74.79" width="2.33" height="3.08"/><rect class="cls-4" x="14.12" y="74.79" width="2.33" height="3.08"/><rect class="cls-4" x="8.46" y="74.79" width="2.33" height="3.08"/><rect class="cls-4" x="2.79" y="74.79" width="2.33" height="3.08"/><polygon class="cls-4" points="112.84 49.86 125.3 61.04 158.66 61.04 146.2 49.86 112.84 49.86"/><polygon class="cls-1" points="100.27 61.04 100.27 83.18 125.17 83.18 125.17 61.04 112.72 49.86 100.27 61.04"/><polygon class="cls-2" points="135.82 61.04 141.98 55.51 129.65 55.51 135.82 61.04"/><polygon class="cls-5" points="141.98 55.61 135.82 61.14 125.17 61.14 125.17 83.18 158.65 83.18 158.65 61.14 148.15 61.14 141.98 55.61"/><rect class="cls-2" x="119.33" y="65.78" width="1.23" height="1.25"/><rect class="cls-2" x="119.33" y="69.54" width="1.23" height="1.25"/><rect class="cls-2" x="119.33" y="73.29" width="1.23" height="1.25"/><rect class="cls-2" x="119.33" y="77.05" width="1.23" height="1.25"/><rect class="cls-2" x="115.65" y="65.78" width="1.23" height="1.25"/><rect class="cls-2" x="115.65" y="69.54" width="1.23" height="1.25"/><rect class="cls-2" x="115.65" y="73.29" width="1.23" height="1.25"/><rect class="cls-2" x="115.65" y="77.05" width="1.23" height="1.25"/><rect class="cls-2" x="111.98" y="65.78" width="1.23" height="1.25"/><rect class="cls-2" x="111.98" y="69.54" width="1.23" height="1.25"/><rect class="cls-2" x="111.98" y="73.29" width="1.23" height="1.25"/><rect class="cls-2" x="111.98" y="77.05" width="1.23" height="1.25"/><rect class="cls-2" x="108.3" y="65.78" width="1.23" height="1.25"/><rect class="cls-2" x="108.3" y="69.54" width="1.23" height="1.25"/><rect class="cls-2" x="108.3" y="73.29" width="1.23" height="1.25"/><rect class="cls-2" x="108.3" y="77.05" width="1.23" height="1.25"/><rect class="cls-2" x="104.63" y="65.78" width="1.23" height="1.25"/><rect class="cls-2" x="104.63" y="69.54" width="1.23" height="1.25"/><rect class="cls-2" x="104.63" y="73.29" width="1.23" height="1.25"/><rect class="cls-2" x="104.63" y="77.05" width="1.23" height="1.25"/><polygon class="cls-1" points="63.31 12.35 74.53 12.35 83.05 0 71.83 0 63.31 12.35"/><rect class="cls-3" x="63.31" y="12.35" width="11.23" height="16.87"/><polygon class="cls-2" points="74.52 29.09 83.1 29.09 83.1 12.35 83.1 0 74.52 12.35 74.52 29.09"/><rect class="cls-3" x="78.13" y="12.26" width="1.32" height="5.15"/><rect class="cls-3" x="78.13" y="20.54" width="1.32" height="5.15"/><rect class="cls-3" x="153.92" y="63.64" width="1.57" height="4.31"/><rect class="cls-3" x="147.54" y="63.64" width="1.57" height="4.31"/><rect class="cls-3" x="141.15" y="63.64" width="1.57" height="4.31"/><rect class="cls-3" x="134.76" y="63.64" width="1.57" height="4.31"/><rect class="cls-3" x="128.38" y="63.64" width="1.57" height="4.31"/><rect class="cls-3" x="153.92" y="71.25" width="1.57" height="4.31"/><rect class="cls-3" x="147.54" y="71.25" width="1.57" height="4.31"/><rect class="cls-3" x="141.15" y="71.25" width="1.57" height="4.31"/><rect class="cls-3" x="134.76" y="71.25" width="1.57" height="4.31"/><rect class="cls-3" x="128.38" y="71.25" width="1.57" height="4.31"/><polygon class="cls-4" points="83.05 29.21 91.71 22.18 91.71 11.32 83.05 18.36 83.05 29.21"/><polygon class="cls-3" points="91.71 22.18 100.37 29.21 100.37 18.36 91.71 11.32 91.71 22.18"/><polygon class="cls-2" points="83.1 29.21 83.1 61.14 100.27 61.14 100.27 29.21 91.69 22.18 83.1 29.21"/><rect class="cls-4" x="96.98" y="33.66" width="0.96" height="0.98"/><rect class="cls-4" x="96.98" y="36.6" width="0.96" height="0.98"/><rect class="cls-4" x="96.98" y="39.54" width="0.96" height="0.98"/><rect class="cls-4" x="94.11" y="30.72" width="0.96" height="0.98"/><rect class="cls-4" x="94.11" y="33.66" width="0.96" height="0.98"/><rect class="cls-4" x="94.11" y="36.6" width="0.96" height="0.98"/><rect class="cls-4" x="94.11" y="39.54" width="0.96" height="0.98"/><rect class="cls-4" x="91.23" y="27.79" width="0.96" height="0.98"/><rect class="cls-4" x="91.23" y="30.72" width="0.96" height="0.98"/><rect class="cls-4" x="91.23" y="33.66" width="0.96" height="0.98"/><rect class="cls-4" x="91.23" y="36.6" width="0.96" height="0.98"/><rect class="cls-4" x="91.23" y="39.54" width="0.96" height="0.98"/><rect class="cls-4" x="88.36" y="30.72" width="0.96" height="0.98"/><rect class="cls-4" x="88.36" y="33.66" width="0.96" height="0.98"/><rect class="cls-4" x="88.36" y="36.6" width="0.96" height="0.98"/><rect class="cls-4" x="88.36" y="39.54" width="0.96" height="0.98"/><rect class="cls-4" x="85.49" y="33.66" width="0.96" height="0.98"/><rect class="cls-4" x="85.49" y="36.6" width="0.96" height="0.98"/><rect class="cls-4" x="85.49" y="39.54" width="0.96" height="0.98"/><rect class="cls-4" x="96.98" y="42.47" width="0.96" height="0.98"/><rect class="cls-4" x="94.11" y="42.47" width="0.96" height="0.98"/><rect class="cls-4" x="91.23" y="42.47" width="0.96" height="0.98"/><rect class="cls-4" x="88.36" y="42.47" width="0.96" height="0.98"/><rect class="cls-4" x="85.49" y="42.47" width="0.96" height="0.98"/><polygon class="cls-4" points="47.93 83.04 100.37 83.04 100.37 61.04 69.24 61.04 47.93 83.04"/><path class="cls-2" d="M67.21,64.75c0,6.68,4.81,12.1,4.81,12.1s4.8-5.42,4.8-12.1S72,52.66,72,52.66s-4.81,5.41-4.81,12.09Z"/><rect class="cls-2" x="71.79" y="62.62" width="0.46" height="16.05"/><polygon class="cls-2" points="72.02 67.06 70.41 65.41 70.08 65.73 72.02 67.71 73.95 65.73 73.63 65.41 72.02 67.06"/><path class="cls-1" d="M82.27,65.18c0,5.9,4.25,10.69,4.25,10.69s4.24-4.79,4.24-10.69-4.24-10.69-4.24-10.69-4.25,4.79-4.25,10.69Z"/><path class="cls-1" d="M74.74,60.33c0,6.68,4.81,12.1,4.81,12.1s4.8-5.42,4.8-12.1-4.8-12.1-4.8-12.1-4.81,5.42-4.81,12.1Z"/><rect class="cls-2" x="79.32" y="58.85" width="0.46" height="20.31"/><rect class="cls-1" x="86.29" y="63.28" width="0.46" height="15.56"/><path class="cls-1" d="M17.12,96.26A13.12,13.12,0,0,0,20.19,104a13.14,13.14,0,0,0,3.06-7.71,13.15,13.15,0,0,0-3.06-7.72,13.13,13.13,0,0,0-3.07,7.72Z"/><rect class="cls-1" x="19.96" y="95.32" width="0.46" height="12.94"/><path class="cls-1" d="M9.46,96.26A13.14,13.14,0,0,0,12.52,104a13.14,13.14,0,0,0,3.06-7.71,13.15,13.15,0,0,0-3.06-7.72,13.15,13.15,0,0,0-3.06,7.72Z"/><rect class="cls-1" x="12.29" y="95.32" width="0.46" height="12.94"/><path class="cls-3" d="M1.79,96.26A13.14,13.14,0,0,0,4.85,104a13.14,13.14,0,0,0,3.06-7.71,13.15,13.15,0,0,0-3.06-7.72,13.15,13.15,0,0,0-3.06,7.72Z"/><rect class="cls-1" x="4.62" y="95.32" width="0.46" height="12.94"/><path class="cls-3" d="M88.2,72.37C78.61,78.79,76,74.09,65.37,74.09c-7.45,0-17.2,9-17.2,9h52.2V69.87s-5.2-2.17-12.17,2.5Z"/><path class="cls-1" d="M92.13,88c-3.8.36-3.16-4.07-9-3.62-3.57.28-4.43,2.16-7.78-.08s-7.1-6-14-4.84c-7.6,1.22-19.22,25.06-19.22,25.06l12.33-1.48L100,92.55l4-4.72c-4.56-6.15-8.47-.11-11.85.2Z"/><path class="cls-1" d="M216.52,55.89c-6.08,1.83-7-.72-14.6.36-5.84.82-7.47,5.25-12.68,4.23C183.8,59.41,176.6,57,168.9,61c-8.44,4.39-6.29,18.24-6.29,18.24l14,3.86h57.18V51.77c-9-3.57-13.05,2.85-17.26,4.12Z"/><path class="cls-4" d="M93.66,78.44,89.28,96.56l11.3-1.23L96.45,78.44a1.43,1.43,0,0,0-2.79,0Z"/><rect class="cls-1" x="94.82" y="81.7" width="0.46" height="10.68"/><polygon class="cls-1" points="94.82 86.33 94.82 88.26 93.05 86.45 92.73 86.77 95.28 89.38 95.28 86.47 96.78 84.1 96.39 83.86 94.82 86.33"/><path class="cls-4" d="M86.93,77.83,82.55,96l11.3-1.23-4.13-16.9a1.43,1.43,0,0,0-2.79,0Z"/><rect class="cls-1" x="88.09" y="81.09" width="0.46" height="15.35"/><polygon class="cls-1" points="88.09 85.72 88.09 87.65 86.32 85.84 86 86.16 88.55 88.77 88.55 85.85 90.05 83.49 89.66 83.24 88.09 85.72"/><path class="cls-1" d="M89.48,92.26c-2.24,2.95-3.68.17-6.49,1.31-3.69,1.51-6.65,9.58-11,8.76s-7-1.55-7-1.55l-1.36,4.42,32.92,1.15,4.81-19.25c-3.93-1.22-9.7,2.22-11.94,5.16Z"/><path class="cls-2" d="M85.8,101.27c-3.69-1-1.62-4.93-7.29-6.55-3.45-1-4.89.49-7.29-2.78S69.37,84.4,62.49,83c-7.56-1.5-32.32,18.35-32.32,18.35l-5.26,6.87h66.8L97,105.2c-2.24-7.37-7.92-3-11.21-3.93Z"/><polygon class="cls-2" points="91.71 92.87 108.1 92.87 116.77 83.04 100.37 83.04 91.71 92.87"/><rect class="cls-3" x="91.71" y="92.87" width="16.39" height="15.39"/><polygon class="cls-5" points="108 108.36 116.87 108.36 116.87 92.87 116.87 83.04 108 92.87 108 108.36"/><rect class="cls-4" x="98.07" y="96.72" width="3.52" height="2.47"/><rect class="cls-4" x="98.07" y="102.38" width="3.52" height="2.47"/><polygon class="cls-4" points="24.91 83.04 47.89 83.04 55.19 75.58 32.21 75.58 24.91 83.04"/><polygon class="cls-5" points="47.9 83.04 47.9 108.36 62.5 108.36 62.5 83.04 55.2 75.58 47.9 83.04"/><rect class="cls-3" x="24.91" y="83.04" width="22.99" height="25.22"/><rect class="cls-2" x="44.54" y="85.72" width="0.96" height="0.98"/><rect class="cls-2" x="44.54" y="88.66" width="0.96" height="0.98"/><rect class="cls-2" x="44.54" y="91.6" width="0.96" height="0.98"/><rect class="cls-2" x="44.54" y="94.54" width="0.96" height="0.98"/><rect class="cls-2" x="44.54" y="97.47" width="0.96" height="0.98"/><rect class="cls-2" x="41.67" y="85.72" width="0.96" height="0.98"/><rect class="cls-2" x="41.67" y="88.66" width="0.96" height="0.98"/><rect class="cls-2" x="41.67" y="91.6" width="0.96" height="0.98"/><rect class="cls-2" x="41.67" y="94.54" width="0.96" height="0.98"/><rect class="cls-2" x="41.67" y="97.47" width="0.96" height="0.98"/><rect class="cls-2" x="38.8" y="85.72" width="0.96" height="0.98"/><rect class="cls-2" x="38.8" y="88.66" width="0.96" height="0.98"/><rect class="cls-2" x="38.8" y="91.6" width="0.96" height="0.98"/><rect class="cls-2" x="38.8" y="94.54" width="0.96" height="0.98"/><rect class="cls-2" x="38.8" y="97.47" width="0.96" height="0.98"/><rect class="cls-2" x="35.92" y="85.72" width="0.96" height="0.98"/><rect class="cls-2" x="35.92" y="88.66" width="0.96" height="0.98"/><rect class="cls-2" x="35.92" y="91.6" width="0.96" height="0.98"/><rect class="cls-2" x="35.92" y="94.54" width="0.96" height="0.98"/><rect class="cls-2" x="35.92" y="97.47" width="0.96" height="0.98"/><rect class="cls-2" x="33.05" y="85.72" width="0.96" height="0.98"/><rect class="cls-2" x="33.05" y="88.66" width="0.96" height="0.98"/><rect class="cls-2" x="33.05" y="91.6" width="0.96" height="0.98"/><rect class="cls-2" x="33.05" y="94.54" width="0.96" height="0.98"/><rect class="cls-2" x="33.05" y="97.47" width="0.96" height="0.98"/><rect class="cls-2" x="30.17" y="85.72" width="0.96" height="0.98"/><rect class="cls-2" x="30.17" y="88.66" width="0.96" height="0.98"/><rect class="cls-2" x="30.17" y="91.6" width="0.96" height="0.98"/><rect class="cls-2" x="30.17" y="94.54" width="0.96" height="0.98"/><rect class="cls-2" x="30.17" y="97.47" width="0.96" height="0.98"/><rect class="cls-2" x="27.3" y="85.72" width="0.96" height="0.98"/><rect class="cls-2" x="27.3" y="88.66" width="0.96" height="0.98"/><rect class="cls-2" x="27.3" y="91.6" width="0.96" height="0.98"/><rect class="cls-2" x="27.3" y="94.54" width="0.96" height="0.98"/><rect class="cls-2" x="27.3" y="97.47" width="0.96" height="0.98"/><rect class="cls-2" x="44.54" y="100.41" width="0.96" height="0.98"/><rect class="cls-2" x="41.67" y="100.41" width="0.96" height="0.98"/><rect class="cls-2" x="38.8" y="100.41" width="0.96" height="0.98"/><rect class="cls-2" x="35.92" y="100.41" width="0.96" height="0.98"/><rect class="cls-2" x="33.05" y="100.41" width="0.96" height="0.98"/><rect class="cls-2" x="30.17" y="100.41" width="0.96" height="0.98"/><rect class="cls-2" x="27.3" y="100.41" width="0.96" height="0.98"/><polygon class="cls-3" points="26.79 83.04 27.52 83.04 34.82 75.58 34.09 75.58 26.79 83.04"/><polygon class="cls-3" points="29.87 83.04 30.6 83.04 37.9 75.58 37.17 75.58 29.87 83.04"/><polygon class="cls-3" points="32.95 83.04 33.68 83.04 40.98 75.58 40.25 75.58 32.95 83.04"/><polygon class="cls-3" points="36.04 83.04 36.76 83.04 44.06 75.58 43.33 75.58 36.04 83.04"/><polygon class="cls-3" points="39.12 83.04 39.85 83.04 47.14 75.58 46.41 75.58 39.12 83.04"/><polygon class="cls-3" points="42.2 83.04 42.93 83.04 50.23 75.58 49.5 75.58 42.2 83.04"/><polygon class="cls-3" points="45.28 83.04 46.01 83.04 53.31 75.58 52.58 75.58 45.28 83.04"/><rect class="cls-4" x="116.77" y="83.04" width="41.9" height="25.22"/><path class="cls-1" d="M147.53,86.72c0,5.73,4.12,10.38,4.12,10.38s4.13-4.65,4.13-10.38-4.13-10.38-4.13-10.38-4.12,4.65-4.12,10.38Z"/><rect class="cls-5" x="151.43" y="84.89" width="0.46" height="13.78"/><path class="cls-1" d="M129.62,88c0,5.73,4.13,10.38,4.13,10.38s4.12-4.65,4.12-10.38-4.12-10.38-4.12-10.38-4.13,4.65-4.13,10.38Z"/><rect class="cls-2" x="133.52" y="87.72" width="0.46" height="13.78"/><path class="cls-3" d="M119.47,87.15c0,7.53,5.9,13.64,5.9,13.64s5.9-6.11,5.9-13.64-5.9-13.64-5.9-13.64-5.9,6.11-5.9,13.64Z"/><rect class="cls-5" x="125.14" y="84.75" width="0.46" height="18.09"/><path class="cls-1" d="M147,94.05c-6.89.92-8,2.78-10.35,5s-3.85,1.22-7.29,1.89c-5.68,1.1-3.61,3.78-7.29,4.45-1.46.27-3.4-.17-5.3-.29v3.2h41.89V96.35A20.26,20.26,0,0,0,147,94.05Z"/><path class="cls-2" d="M59.16,17.12a4.06,4.06,0,0,0-2.12.6,4.12,4.12,0,0,0-8-1.24A4.07,4.07,0,0,0,46.3,15.4a4.18,4.18,0,0,0-4.12,3.8,4,4,0,0,0-2.48-.85,4.19,4.19,0,0,0-4.15,4.23v.09a4.07,4.07,0,0,0-1.74-.39,4.18,4.18,0,0,0-4.14,4.1A4.08,4.08,0,0,0,26.6,25a4.19,4.19,0,0,0-4.15,4.23H63.31V21.35a4.19,4.19,0,0,0-4.15-4.23Z"/><path class="cls-2" d="M197.74,65.64c-12.86,0-12.25,2.88-23.89-3.54C165.4,57.43,158.66,61,158.66,61V83H222s-15.21-17.4-24.24-17.4Z"/><rect class="cls-3" x="223.03" y="83.11" width="41.59" height="25.15"/><rect class="cls-4" x="233.78" y="51.77" width="13.25" height="4.81"/><polygon class="cls-7" points="233.78 51.77 247.03 51.77 252.93 46.01 239.68 46.01 233.78 51.77"/><rect class="cls-4" x="227.88" y="62.33" width="13.25" height="20.76"/><polygon class="cls-7" points="227.88 62.33 241.13 62.33 247.03 56.58 233.78 56.58 227.88 62.33"/><polygon class="cls-8" points="247.03 51.77 258.82 51.77 252.93 46.01 247.03 51.77"/><polygon class="cls-8" points="258.81 51.7 247.08 51.7 247.08 56.71 241.07 62.33 241.07 83.18 247.13 83.18 258.86 83.18 264.54 83.18 264.54 62.33 258.81 56.64 258.81 51.7"/><rect class="cls-1" x="249.79" y="55.6" width="1.24" height="2.45"/><rect class="cls-1" x="254.83" y="55.6" width="1.24" height="2.45"/><rect class="cls-1" x="249.79" y="59.93" width="1.24" height="2.45"/><rect class="cls-1" x="254.83" y="59.93" width="1.24" height="2.45"/><rect class="cls-1" x="249.79" y="64.25" width="1.24" height="2.45"/><rect class="cls-1" x="254.83" y="64.25" width="1.24" height="2.45"/><rect class="cls-1" x="249.79" y="68.58" width="1.24" height="2.45"/><rect class="cls-1" x="254.83" y="68.58" width="1.24" height="2.45"/><rect class="cls-1" x="249.79" y="72.9" width="1.24" height="2.45"/><rect class="cls-1" x="254.83" y="72.9" width="1.24" height="2.45"/><rect class="cls-1" x="249.79" y="77.23" width="1.24" height="2.45"/><rect class="cls-1" x="254.83" y="77.23" width="1.24" height="2.45"/><rect class="cls-1" x="244.75" y="64.25" width="1.24" height="2.45"/><rect class="cls-1" x="244.75" y="68.58" width="1.24" height="2.45"/><rect class="cls-1" x="244.75" y="72.9" width="1.24" height="2.45"/><rect class="cls-1" x="244.75" y="77.23" width="1.24" height="2.45"/><rect class="cls-1" x="259.87" y="64.25" width="1.24" height="2.45"/><rect class="cls-1" x="259.87" y="68.58" width="1.24" height="2.45"/><rect class="cls-1" x="259.87" y="72.9" width="1.24" height="2.45"/><rect class="cls-1" x="259.87" y="77.23" width="1.24" height="2.45"/><rect class="cls-5" x="243.53" y="90.74" width="0.46" height="17.52"/><rect class="cls-5" x="242.94" y="94.93" width="0.46" height="1.84" transform="translate(-4.71 178.76) rotate(-40.01)"/><rect class="cls-5" x="243.08" y="94.88" width="3.8" height="0.46" transform="translate(14.61 221.57) rotate(-49.98)"/><rect class="cls-5" x="242.83" y="97.84" width="5.21" height="0.46" transform="translate(12.51 222.97) rotate(-49.98)"/><path class="cls-4" d="M234.54,96.3a1.23,1.23,0,0,1-.36-1.29c.32-1.15.71-3,.08-3.69a1.59,1.59,0,0,0-.83-.45,1.17,1.17,0,0,1-.86-1.21h0c0-2.06-1-3.73-2.21-3.73s-2.21,1.67-2.21,3.73h0a1.18,1.18,0,0,1-.85,1.21,1.61,1.61,0,0,0-.84.45c-.63.65-.23,2.54.09,3.69a1.25,1.25,0,0,1-.36,1.29,2.19,2.19,0,0,0-.78,1.31c-.26,1.42,1.82,4.51,5,7.29,3.14-2.78,5.22-5.87,4.95-7.29a2.13,2.13,0,0,0-.77-1.31Z"/><polygon class="cls-5" points="230.35 93.03 228.72 91.83 228.44 92.19 230.35 93.6 232.23 92.22 231.96 91.85 230.35 93.03"/><polygon class="cls-5" points="230.37 100.23 227.45 98.07 227.18 98.43 230.37 100.79 233.58 98.43 233.31 98.06 230.37 100.23"/><polygon class="cls-5" points="230.35 96.43 227.59 94.39 227.32 94.75 230.35 97 233.34 94.8 233.06 94.43 230.35 96.43"/><rect class="cls-5" x="230.13" y="88.85" width="0.46" height="19.41"/><path class="cls-1" d="M260.94,90.31a4.4,4.4,0,1,0-8.39,1.85,4.23,4.23,0,0,1,0,3.58,4.35,4.35,0,0,0-.42,1.88,4.4,4.4,0,1,0,8.79,0,4.35,4.35,0,0,0-.41-1.84,4.19,4.19,0,0,1,0-3.58,4.39,4.39,0,0,0,.42-1.88Z"/><rect class="cls-5" x="256.38" y="92.16" width="0.46" height="9.99"/><rect class="cls-5" x="255.35" y="93.86" width="0.46" height="2.9" transform="translate(7.69 209.11) rotate(-45.11)"/><rect class="cls-5" x="255.96" y="98.09" width="4.39" height="0.46" transform="translate(5.91 210.93) rotate(-44.91)"/><rect class="cls-5" x="256.38" y="89.98" width="0.46" height="18.28"/><rect class="cls-5" x="255.35" y="93.86" width="0.46" height="2.9" transform="translate(7.69 209.11) rotate(-45.11)"/><rect class="cls-5" x="256.18" y="95.08" width="2.9" height="0.46" transform="translate(7.88 209.67) rotate(-44.91)"/><rect class="cls-5" x="255.69" y="91.7" width="0.46" height="1.95" transform="translate(9.67 208.64) rotate(-45.12)"/><rect class="cls-5" x="256.32" y="92.45" width="1.95" height="0.46" transform="translate(9.63 208.67) rotate(-44.91)"/><rect class="cls-5" x="255.96" y="98.09" width="4.39" height="0.46" transform="translate(5.91 210.93) rotate(-44.91)"/><rect class="cls-5" x="254.82" y="96.12" width="0.46" height="4.39" transform="translate(5.41 209.66) rotate(-45.12)"/><path class="cls-4" d="M235.67,79.26a6.8,6.8,0,0,0-2.51.48c0-.12,0-.24,0-.37,0-3.9-4-7.06-8.86-7.06a10.93,10.93,0,0,0-2.65.33c-.22-2.28-2.6-4.07-5.52-4.07v14.6h25c-.31-2.2-2.65-3.91-5.5-3.91Z"/><polygon class="cls-9" points="158.66 84.52 158.66 108.26 209.21 108.26 209.21 83.04 158.66 83.04 158.66 84.52"/><polygon class="cls-10" points="158.66 83.04 209.21 83.04 216.11 68.48 165.57 68.48 158.66 83.04"/><polygon class="cls-11" points="216.16 68.55 209.31 83.04 209.31 108.36 223.04 108.36 223.04 83.11 223.04 83.18 223.01 83.18 216.16 68.55"/><rect class="cls-1" x="186.13" y="83.08" width="10.3" height="25.18"/><polygon class="cls-9" points="179.23 76.03 186.13 83.04 196.43 83.04 189.53 76.03 179.23 76.03"/><polygon class="cls-8" points="179.23 76.03 172.33 83.09 172.55 83.18 172.39 83.18 172.39 108.36 186.13 108.36 186.13 83.18 185.91 83.18 186.13 83.09 179.23 76.03"/><path class="cls-11" d="M216.12,88.07a1.38,1.38,0,0,0-1.38,1.38v2.2h2.75v-2.2a1.37,1.37,0,0,0-1.37-1.38Z"/><path class="cls-11" d="M203,88.07a1.38,1.38,0,0,0-1.38,1.38v2.2h2.76v-2.2A1.38,1.38,0,0,0,203,88.07Z"/><path class="cls-11" d="M179.27,88.07h0a1.38,1.38,0,0,0-1.38,1.38v2.2h2.76v-2.2a1.38,1.38,0,0,0-1.38-1.38Z"/><path class="cls-11" d="M166,88.07a1.37,1.37,0,0,0-1.37,1.38v2.2h2.75v-2.2A1.38,1.38,0,0,0,166,88.07Z"/><path class="cls-11" d="M191.58,88.07a1.37,1.37,0,0,0-1.37,1.38v2.2H193v-2.2a1.38,1.38,0,0,0-1.38-1.38Z"/><path class="cls-11" d="M216.12,94.16a1.38,1.38,0,0,0-1.38,1.38v2.2h2.75v-2.2a1.37,1.37,0,0,0-1.37-1.38Z"/><path class="cls-11" d="M203,94.16a1.38,1.38,0,0,0-1.38,1.38v2.2h2.76v-2.2A1.38,1.38,0,0,0,203,94.16Z"/><path class="cls-11" d="M179.27,94.16h0a1.38,1.38,0,0,0-1.38,1.38v2.2h2.76v-2.2a1.38,1.38,0,0,0-1.38-1.38Z"/><path class="cls-11" d="M166,94.16a1.37,1.37,0,0,0-1.37,1.38v2.2h2.75v-2.2A1.38,1.38,0,0,0,166,94.16Z"/><path class="cls-11" d="M191.58,94.16a1.37,1.37,0,0,0-1.37,1.38v2.2H193v-2.2a1.38,1.38,0,0,0-1.38-1.38Z"/><path class="cls-11" d="M216.12,100.25a1.38,1.38,0,0,0-1.38,1.38v2.2h2.75v-2.2a1.37,1.37,0,0,0-1.37-1.38Z"/><path class="cls-11" d="M203,100.25a1.38,1.38,0,0,0-1.38,1.38v2.2h2.76v-2.2a1.38,1.38,0,0,0-1.38-1.38Z"/><path class="cls-11" d="M179.27,100.25h0a1.38,1.38,0,0,0-1.38,1.38v2.2h2.76v-2.2a1.38,1.38,0,0,0-1.38-1.38Z"/><path class="cls-11" d="M166,100.25a1.37,1.37,0,0,0-1.37,1.38v2.2h2.75v-2.2a1.38,1.38,0,0,0-1.38-1.38Z"/><path class="cls-11" d="M191.58,100.25a1.37,1.37,0,0,0-1.37,1.38v2.2H193v-2.2a1.38,1.38,0,0,0-1.38-1.38Z"/></svg>