<svg id="Layer_1" data-name="Layer 1" xmlns="http://www.w3.org/2000/svg" xmlns:xlink="http://www.w3.org/1999/xlink" viewBox="0 0 665.78 599.75"><defs><style>.cls-1,.cls-14,.cls-15,.cls-16,.cls-72,.cls-73,.cls-74,.cls-75,.cls-76{fill:none;}.cls-2{clip-path:url(#clip-path);}.cls-3{fill:url(#radial-gradient);}.cls-4{clip-path:url(#clip-path-2);}.cls-5{fill:url(#radial-gradient-2);}.cls-6{clip-path:url(#clip-path-3);}.cls-7{fill:url(#radial-gradient-3);}.cls-8{clip-path:url(#clip-path-4);}.cls-9{fill:url(#radial-gradient-4);}.cls-10{clip-path:url(#clip-path-5);}.cls-11{fill:#7b6ce6;}.cls-12{fill:#00a8f0;}.cls-13{fill:#2dd687;}.cls-14,.cls-73{stroke:#fcc200;}.cls-14,.cls-15,.cls-16,.cls-72,.cls-73,.cls-74,.cls-75,.cls-76{stroke-miterlimit:10;}.cls-15{stroke:#00a8f0;}.cls-16,.cls-75{stroke:#2dd687;}.cls-17,.cls-52,.cls-53,.cls-54,.cls-78,.cls-79,.cls-80,.cls-81,.cls-82,.cls-83,.cls-84,.cls-85,.cls-86,.cls-87,.cls-88,.cls-89,.cls-90,.cls-91{fill:#fff;}.cls-18,.cls-27,.cls-40{font-size:10px;}.cls-18,.cls-27,.cls-40,.cls-52,.cls-53,.cls-54,.cls-55,.cls-56,.cls-57,.cls-58,.cls-59,.cls-60,.cls-61,.cls-62,.cls-63,.cls-64,.cls-65,.cls-66,.cls-67,.cls-68,.cls-69,.cls-70,.cls-71,.cls-78,.cls-79,.cls-80,.cls-81,.cls-82,.cls-83,.cls-84,.cls-85,.cls-86,.cls-87,.cls-88,.cls-89,.cls-90,.cls-91{font-family:Campton-Bold, Campton;font-weight:700;}.cls-19{letter-spacing:-0.11em;}.cls-20{letter-spacing:0em;}.cls-21{letter-spacing:-0.11em;}.cls-22{letter-spacing:-0.03em;}.cls-23{letter-spacing:-0.03em;}.cls-24{letter-spacing:-0.01em;}.cls-25,.cls-40{letter-spacing:-0.01em;}.cls-26{letter-spacing:0em;}.cls-27,.cls-31{letter-spacing:-0.01em;}.cls-28{letter-spacing:0em;}.cls-29{letter-spacing:-0.01em;}.cls-30{letter-spacing:-0.02em;}.cls-32{letter-spacing:-0.01em;}.cls-33{letter-spacing:0em;}.cls-34{letter-spacing:-0.01em;}.cls-35{letter-spacing:-0.01em;}.cls-36{letter-spacing:0em;}.cls-37{letter-spacing:-0.03em;}.cls-38{letter-spacing:-0.04em;}.cls-39{letter-spacing:0.01em;}.cls-41{letter-spacing:0em;}.cls-42{letter-spacing:-0.03em;}.cls-43{letter-spacing:-0.04em;}.cls-44{letter-spacing:-0.04em;}.cls-45{letter-spacing:0em;}.cls-46{letter-spacing:-0.01em;}.cls-47{letter-spacing:-0.08em;}.cls-48{letter-spacing:-0.01em;}.cls-49{letter-spacing:-0.01em;}.cls-50{letter-spacing:0.01em;}.cls-51{letter-spacing:-0.02em;}.cls-52{font-size:13px;}.cls-53{font-size:13px;}.cls-54{font-size:13px;}.cls-55{font-size:10px;}.cls-56{font-size:10px;}.cls-57{font-size:10px;}.cls-58{font-size:10px;}.cls-59{font-size:10px;}.cls-60{font-size:10px;}.cls-61{font-size:10px;}.cls-62{font-size:10px;}.cls-63{font-size:10px;}.cls-64{font-size:10px;}.cls-65{font-size:10px;}.cls-66{font-size:10px;}.cls-67{font-size:10px;}.cls-68{font-size:10px;}.cls-69{font-size:10px;}.cls-70{font-size:10px;}.cls-71{font-size:10px;}.cls-72,.cls-76{stroke:#7b6ce6;}.cls-73,.cls-74,.cls-75,.cls-76{stroke-width:0.25px;}.cls-74{stroke:#40bef4;}.cls-77{fill:#fcc200;}.cls-78{font-size:13px;}.cls-79{font-size:13px;}.cls-80{font-size:13px;}.cls-81{font-size:13px;}.cls-82{font-size:13px;}.cls-83{font-size:13px;}.cls-84{font-size:13px;}.cls-85{font-size:13px;}.cls-86{font-size:13px;}.cls-87{font-size:13px;}.cls-88{font-size:13px;}.cls-89{font-size:13px;}.cls-90{font-size:13px;}.cls-91{font-size:12px;}.cls-92{letter-spacing:-0.01em;}.cls-93{letter-spacing:0.01em;}</style><clipPath id="clip-path"><path class="cls-1" d="M127.1,268.19H345.88V2.19C214.81,18.88,120,134.12,127.1,268.19"/></clipPath><radialGradient id="radial-gradient" cx="-57" cy="657.97" r="1" gradientTransform="matrix(0, -266.27, -219.13, 0, 144529.29, -14909.79)" gradientUnits="userSpaceOnUse"><stop offset="0" stop-color="#fcda00"/><stop offset="0.41" stop-color="#fde75c"/><stop offset="1" stop-color="#fffbe5"/></radialGradient><clipPath id="clip-path-2"><path class="cls-1" d="M345.88,268.19V599.75c6.27,0,15.76-.14,22.09-.48,173.64-9.16,307-157.35,297.82-331a.28.28,0,0,1,0-.09Z"/></clipPath><radialGradient id="radial-gradient-2" cx="-57" cy="657.97" r="1" gradientTransform="matrix(0, 331.43, 322.21, 0, -211663.66, 19159.38)" gradientUnits="userSpaceOnUse"><stop offset="0" stop-color="#00a8f0"/><stop offset="0.41" stop-color="#5cc7f5"/><stop offset="1" stop-color="#e5f6fd"/></radialGradient><clipPath id="clip-path-3"><path class="cls-1" d="M0,268.19c9.85,186.7,161.11,331.47,345.88,331.56V268.19Z"/></clipPath><radialGradient id="radial-gradient-3" cx="-57" cy="657.97" r="1" gradientTransform="matrix(-345.59, 0, 0, 331.88, -19354.93, -218101.34)" gradientUnits="userSpaceOnUse"><stop offset="0" stop-color="#00d9b5"/><stop offset="0.41" stop-color="#5ce7d0"/><stop offset="1" stop-color="#e5fbf8"/></radialGradient><clipPath id="clip-path-4"><path class="cls-1" d="M368.06.4c-6.41.34-15.91,1-22.18,1.79v266h319.9C657.76,117.14,532.74,0,383.22,0c-5,0-10.07.13-15.16.4"/></clipPath><radialGradient id="radial-gradient-4" cx="-57" cy="657.97" r="1" gradientTransform="matrix(320.35, 0.07, 0.06, -264.9, 18568.61, 174566.19)" gradientUnits="userSpaceOnUse"><stop offset="0" stop-color="#7b6ce6"/><stop offset="0.7" stop-color="#cdc7f6"/><stop offset="1" stop-color="#f2f0fd"/></radialGradient><clipPath id="clip-path-5"><rect class="cls-1" x="-57" y="-72.76" width="1063.48" height="730.73"/></clipPath></defs><title>pineMapEmpty</title><g class="cls-2"><rect class="cls-3" x="120.03" y="2.19" width="225.85" height="266"/></g><g class="cls-4"><rect class="cls-5" x="345.65" y="267.96" width="329.54" height="332.03" transform="translate(-0.62 0.73) rotate(-0.08)"/></g><g class="cls-6"><rect class="cls-7" y="268.19" width="345.88" height="331.56"/></g><g class="cls-8"><rect class="cls-9" x="345.85" y="-0.03" width="319.95" height="268.26"/></g><g class="cls-10"><path class="cls-11" d="M452.51,262.56A106.78,106.78,0,0,0,345.88,161.42V268.19H452.66c0-1.87-.05-3.74-.15-5.63"/><path class="cls-12" d="M345.88,375c1.87,0,3.74,0,5.63-.14A106.79,106.79,0,0,0,452.66,268.19H345.88Z"/><path class="cls-13" d="M239.11,268.19c0,1.87,0,3.74.15,5.63A106.76,106.76,0,0,0,345.88,375V268.19Z"/><path class="cls-14" d="M345.88,112.68A148.9,148.9,0,0,0,216.11,268.19"/><path class="cls-15" d="M345.88,462c3.67,0,7.35-.08,11.06-.28,101.51-5.36,179.46-92,174.11-193.51a.11.11,0,0,0,0-.05"/><path class="cls-16" d="M141.81,268.19C147.57,377.34,237.86,462,345.88,462"/><path class="cls-17" d="M264.81,268.19a81.08,81.08,0,1,1,81.07,81.07,81.08,81.08,0,0,1-81.07-81.07"/></g><text class="cls-18" transform="matrix(0.98, -0.18, 0.18, 0.98, 175.46, 320.83)"><tspan class="cls-19">T</tspan><tspan x="5.42" y="0">e</tspan><tspan class="cls-20" x="11.15" y="0">c</tspan><tspan class="cls-19" x="16.93" y="0">h</tspan><tspan class="cls-21" x="21.93" y="0">T</tspan><tspan class="cls-22" x="27.34" y="0">o</tspan><tspan class="cls-23" x="33.03" y="0">w</tspan><tspan class="cls-24" x="40.77" y="0">e</tspan><tspan x="46.42" y="0">r</tspan></text><text class="cls-18" transform="translate(288.19 419.1) rotate(-61.34)">V<tspan class="cls-25" x="7.8" y="0">T</tspan><tspan x="14.21" y="0">P</tspan></text><text class="cls-18" transform="matrix(0.68, -0.73, 0.73, 0.68, 228.59, 382.95)">HI<tspan class="cls-25" x="10.23" y="0">V</tspan><tspan class="cls-26" x="17.96" y="0">E</tspan></text><text class="cls-27" transform="translate(419.78 441.55) rotate(-117.83)">P<tspan class="cls-28" x="6.33" y="0">o</tspan><tspan class="cls-29" x="12.3" y="0">l</tspan><tspan class="cls-30" x="14.9" y="0">y</tspan><tspan class="cls-20" x="20.96" y="0">g</tspan><tspan x="27.18" y="0">o</tspan><tspan class="cls-26" x="33.09" y="0">n</tspan></text><text class="cls-18" transform="translate(430.39 435.95) rotate(-117.83)"><tspan class="cls-31">p</tspan><tspan class="cls-32" x="6.16" y="0">r</tspan><tspan class="cls-33" x="10.12" y="0">o au</tspan><tspan class="cls-34" x="30.98" y="0">t</tspan><tspan class="cls-35" x="35.53" y="0">o</tspan><tspan class="cls-36" x="41.43" y="0">n</tspan><tspan class="cls-31" x="47.45" y="0">o</tspan><tspan x="53.36" y="0">mní</tspan></text><text class="cls-18" transform="translate(441.01 430.35) rotate(-117.83)">t<tspan class="cls-34" x="4.7" y="0">r</tspan><tspan x="8.65" y="0">a</tspan><tspan class="cls-37" x="14.89" y="0">m</tspan><tspan class="cls-38" x="23.72" y="0">v</tspan><tspan class="cls-39" x="29.26" y="0">a</tspan><tspan class="cls-33" x="35.57" y="0">j</tspan></text><text class="cls-40" transform="translate(500.99 304.11) rotate(-168.14)">V<tspan class="cls-33" x="7.73" y="0">R Lab</tspan></text><text class="cls-18" transform="matrix(-0.83, -0.55, 0.55, -0.83, 483.65, 378.14)">M<tspan class="cls-41" x="8.54" y="0">o</tspan><tspan class="cls-20" x="14.5" y="0">b</tspan><tspan class="cls-33" x="20.72" y="0">ili</tspan><tspan class="cls-42" x="29.47" y="0">t</tspan><tspan class="cls-26" x="33.91" y="0">y</tspan></text><text class="cls-18" transform="matrix(-0.83, -0.55, 0.55, -0.83, 490.28, 368.13)">In<tspan class="cls-36" x="8.95" y="0">n</tspan><tspan class="cls-43" x="14.97" y="0">o</tspan><tspan class="cls-44" x="20.56" y="0">v</tspan><tspan class="cls-33" x="26.11" y="0">at</tspan><tspan class="cls-28" x="37.05" y="0">i</tspan><tspan class="cls-24" x="40.04" y="0">o</tspan><tspan x="45.95" y="0">n</tspan></text><text class="cls-18" transform="matrix(-0.83, -0.55, 0.55, -0.83, 496.91, 358.13)">HUB</text><text class="cls-18" transform="translate(388.63 129.85) rotate(108.18)"><tspan class="cls-42">n</tspan><tspan x="5.8" y="0">v</tspan><tspan class="cls-45" x="11.74" y="0">i</tspan><tspan x="14.73" y="0">as</tspan></text><text class="cls-18" transform="translate(456 151.3) rotate(131.39)">D<tspan class="cls-46" x="7.44" y="0">r</tspan><tspan class="cls-24" x="11.4" y="0">o</tspan><tspan class="cls-37" x="17.31" y="0">n</tspan><tspan class="cls-47" x="23.11" y="0">y</tspan><tspan x="28.6" y="0"> </tspan><tspan class="cls-36" x="31.17" y="0">S</tspan><tspan class="cls-48" x="37.89" y="0">I</tspan><tspan x="40.72" y="0">T</tspan></text><text class="cls-18" transform="matrix(-0.89, 0.45, -0.45, -0.89, 497.05, 213.79)"><tspan class="cls-36">S</tspan><tspan class="cls-48" x="6.72" y="0">I</tspan><tspan x="9.55" y="0">T </tspan><tspan class="cls-24" x="18.6" y="0">P</tspan><tspan class="cls-49" x="24.93" y="0">o</tspan><tspan class="cls-50" x="30.83" y="0">r</tspan><tspan x="35" y="0">t</tspan></text><text class="cls-18" transform="matrix(-0.89, 0.45, -0.45, -0.89, 491.6, 203.1)">Ga<tspan class="cls-51" x="14.33" y="0">r</tspan><tspan x="18.28" y="0">a</tspan><tspan class="cls-41" x="24.52" y="0">g</tspan><tspan x="30.73" y="0">e</tspan></text><text class="cls-52" transform="translate(387.4 191.31) rotate(31.13)">S</text><text class="cls-53" transform="translate(394.72 195.82) rotate(35.1)">I</text><text class="cls-54" transform="matrix(0.78, 0.63, -0.63, 0.78, 397.66, 197.79)">T</text><text class="cls-55" transform="translate(238.18 237.08) rotate(-79.11)"> </text><text class="cls-56" transform="translate(293.85 106.37) rotate(62.77)">e</text><text class="cls-57" transform="matrix(0.49, 0.87, -0.87, 0.49, 291.22, 101.76)">T</text><text class="cls-58" transform="translate(296.45 111.4) rotate(65.54)">c</text><text class="cls-18" transform="translate(298.81 116.58) rotate(68.41)">h</text><text class="cls-59" transform="translate(301.06 122.11) rotate(72.15)">m</text><text class="cls-60" transform="translate(303.75 130.62) rotate(75.97)">a</text><text class="cls-61" transform="translate(305.25 136.6) rotate(79.1)">n</text><text class="cls-62" transform="translate(306.35 142.49) rotate(81.41)">i</text><text class="cls-63" transform="matrix(0.11, 0.99, -0.99, 0.11, 306.82, 145.37)">a</text><text class="cls-64" transform="translate(245.74 126.87) rotate(40.5)">R</text><text class="cls-65" transform="translate(250.66 131.07) rotate(43.92)">a</text><text class="cls-66" transform="matrix(0.68, 0.74, -0.74, 0.68, 255.03, 135.28)">d</text><text class="cls-67" transform="matrix(0.63, 0.78, -0.78, 0.63, 259.17, 139.77)">o</text><text class="cls-61" transform="matrix(0.58, 0.81, -0.81, 0.58, 262.65, 144.05)">v</text><text class="cls-68" transform="translate(265.85 148.45) rotate(57.66)">á</text><text class="cls-69" transform="matrix(0.48, 0.88, -0.88, 0.48, 269.12, 153.62)">n</text><text class="cls-70" transform="translate(271.97 158.83) rotate(64.99)">e</text><text class="cls-71" transform="matrix(0.37, 0.93, -0.93, 0.37, 274.32, 163.87)">k</text><g class="cls-10"><path class="cls-72" d="M531,268.19A165.56,165.56,0,0,0,357,111.63c-3.75.2-7.44.58-11.11,1.05"/><path class="cls-73" d="M345.88,20.08C223.63,35.64,135.22,143.13,141.81,268.19"/><path class="cls-74" d="M345.88,577.45c5.85,0,14.7-.13,20.61-.44,162-8.55,286.33-146.77,277.78-308.73a.28.28,0,0,0,0-.09"/><path class="cls-75" d="M23.26,268.19c9.19,174.15,150.27,309.18,322.62,309.26"/><path class="cls-76" d="M644.27,268.19c-7.74-145.64-132-257.47-277.7-249.78-6,.32-14.84.92-20.69,1.67"/><rect class="cls-11" x="243.08" y="254.73" width="3.8" height="0.46" transform="translate(-107.8 278.63) rotate(-49.98)"/><rect class="cls-11" x="242.83" y="257.69" width="5.21" height="0.46" transform="translate(-109.91 280.03) rotate(-49.98)"/><rect class="cls-11" x="255.35" y="253.7" width="0.46" height="2.9" transform="translate(-105.56 256.24) rotate(-45.13)"/><rect class="cls-11" x="255.96" y="257.94" width="4.39" height="0.46" transform="translate(-106.94 257.57) rotate(-44.91)"/><rect class="cls-11" x="255.35" y="253.7" width="0.46" height="2.9" transform="translate(-105.56 256.24) rotate(-45.13)"/><rect class="cls-11" x="256.18" y="254.92" width="2.9" height="0.46" transform="translate(-104.96 256.32) rotate(-44.91)"/><rect class="cls-11" x="255.96" y="257.94" width="4.39" height="0.46" transform="translate(-106.94 257.57) rotate(-44.91)"/><rect class="cls-11" x="254.82" y="255.97" width="0.46" height="4.39" transform="translate(-107.85 256.72) rotate(-45.12)"/><path class="cls-77" d="M345.88,187.11V161.42c-1.86,0-3.74,0-5.62.14A106.78,106.78,0,0,0,239.11,268.19h25.7a81.08,81.08,0,0,1,81.07-81.08"/></g><text class="cls-78" transform="matrix(0.21, -0.98, 0.98, 0.21, 258.78, 254.65)">C</text><text class="cls-79" transform="translate(260.9 245.01) rotate(-72.37)">e</text><text class="cls-80" transform="matrix(0.38, -0.92, 0.92, 0.38, 263.04, 238.2)">n</text><text class="cls-81" transform="translate(265.97 231.17) rotate(-63.16)">t</text><text class="cls-82" transform="translate(268.67 225.85) rotate(-59.54)">r</text><text class="cls-52" transform="translate(271.25 221.36) rotate(-55.36)">u</text><text class="cls-83" transform="matrix(0.65, -0.76, 0.76, 0.65, 275.51, 214.99)">m</text><text class="cls-84" transform="matrix(0.71, -0.7, 0.7, 0.71, 283.26, 206.29)"> </text><text class="cls-85" transform="matrix(0.75, -0.66, 0.66, 0.75, 285.56, 204.01)">r</text><text class="cls-83" transform="translate(289.24 200.66) rotate(-37.63)">o</text><text class="cls-86" transform="matrix(0.84, -0.54, 0.54, 0.84, 295.22, 196.03)">b</text><text class="cls-87" transform="translate(301.87 191.77) rotate(-27.6)">o</text><text class="cls-88" transform="translate(308.65 188.25) rotate(-23.17)">t</text><text class="cls-88" transform="matrix(0.94, -0.34, 0.34, 0.94, 314.16, 185.93)">i</text><text class="cls-89" transform="translate(317.71 184.57) rotate(-16.23)">k</text><text class="cls-90" transform="translate(324.74 182.49) rotate(-11.32)">y</text><text class="cls-91" transform="translate(295.03 341.87) rotate(-136.84)">BIC</text><text class="cls-91" transform="translate(424.86 311.26) rotate(133.16)">BIC <tspan class="cls-92" x="24.19" y="0">Po</tspan><tspan class="cls-93" x="38.88" y="0">r</tspan><tspan x="43.88" y="0">t</tspan></text></svg>