<svg id="Layer_1" data-name="Layer 1" xmlns="http://www.w3.org/2000/svg" xmlns:xlink="http://www.w3.org/1999/xlink" viewBox="0 0 291.72 480.53"><defs><style>.cls-1{mask:url(#mask);filter:url(#luminosity-noclip-6);}.cls-10,.cls-2,.cls-4,.cls-6,.cls-8{mix-blend-mode:multiply;}.cls-2{fill:url(#linear-gradient);}.cls-3{mask:url(#mask-2);filter:url(#luminosity-noclip-7);}.cls-4{fill:url(#linear-gradient-2);}.cls-5{mask:url(#mask-3);filter:url(#luminosity-noclip-8);}.cls-6{fill:url(#linear-gradient-3);}.cls-7{mask:url(#mask-4);filter:url(#luminosity-noclip-9);}.cls-8{fill:url(#linear-gradient-4);}.cls-9{mask:url(#mask-5);filter:url(#luminosity-noclip-10);}.cls-10{fill:url(#linear-gradient-5);}.cls-11{fill:#ffcfcd;}.cls-12{fill:url(#linear-gradient-6);}.cls-13{fill:url(#linear-gradient-7);}.cls-14{fill:url(#New_Gradient_Swatch_copy_67);}.cls-15{fill:#05646b;}.cls-16{fill:#08a2ad;}.cls-17{fill:#17cbe3;}.cls-18{mask:url(#mask-6);}.cls-19{fill:url(#linear-gradient-8);}.cls-20{mask:url(#mask-7);}.cls-21{fill:url(#linear-gradient-9);}.cls-22{fill:url(#New_Gradient_Swatch_copy_11);}.cls-23{fill:url(#linear-gradient-10);}.cls-24{fill:url(#New_Gradient_Swatch_copy_67-2);}.cls-25{fill:url(#linear-gradient-11);}.cls-26{fill:#f7aaae;}.cls-27{fill:#0a6a77;}.cls-28{fill:url(#New_Gradient_Swatch_copy_67-3);}.cls-29{fill:#ef294f;}.cls-30{fill:url(#New_Gradient_Swatch_copy_67-4);}.cls-31{fill:url(#New_Gradient_Swatch_copy_67-5);}.cls-32{fill:#bf1c3c;}.cls-33{fill:#fff1f1;}.cls-34{fill:#c1e3f4;}.cls-35{fill:url(#New_Gradient_Swatch_copy_11-2);}.cls-36{fill:url(#New_Gradient_Swatch_copy_67-6);}.cls-37{fill:url(#New_Gradient_Swatch_copy_11-3);}.cls-38{fill:url(#New_Gradient_Swatch_copy_11-4);}.cls-39{fill:url(#New_Gradient_Swatch_copy_11-5);}.cls-40{fill:url(#linear-gradient-12);}.cls-41{mask:url(#mask-8);}.cls-42{fill:url(#linear-gradient-13);}.cls-43{mask:url(#mask-9);}.cls-44{fill:url(#linear-gradient-14);}.cls-45{mask:url(#mask-10);}.cls-46{fill:url(#linear-gradient-15);}.cls-47{filter:url(#luminosity-noclip-5);}.cls-48{filter:url(#luminosity-noclip-4);}.cls-49{filter:url(#luminosity-noclip-3);}.cls-50{filter:url(#luminosity-noclip-2);}.cls-51{filter:url(#luminosity-noclip);}</style><filter id="luminosity-noclip" x="119.87" y="-8431.89" width="13.02" height="32766" filterUnits="userSpaceOnUse" color-interpolation-filters="sRGB"><feFlood flood-color="#fff" result="bg"/><feBlend in="SourceGraphic" in2="bg"/></filter><mask id="mask" x="119.87" y="-8431.89" width="13.02" height="32766" maskUnits="userSpaceOnUse"><g class="cls-51"/></mask><linearGradient id="linear-gradient" x1="1576.87" y1="-834.94" x2="1593.03" y2="-834.94" gradientTransform="matrix(0.74, 0.28, -0.82, 1.04, -1734.55, 864.01)" gradientUnits="userSpaceOnUse"><stop offset="0" stop-color="#fff"/><stop offset="0.77" stop-color="#fefefe"/><stop offset="1" stop-color="#fff"/></linearGradient><filter id="luminosity-noclip-2" x="115.63" y="-8431.89" width="13.02" height="32766" filterUnits="userSpaceOnUse" color-interpolation-filters="sRGB"><feFlood flood-color="#fff" result="bg"/><feBlend in="SourceGraphic" in2="bg"/></filter><mask id="mask-2" x="115.63" y="-8431.89" width="13.02" height="32766" maskUnits="userSpaceOnUse"><g class="cls-50"/></mask><linearGradient id="linear-gradient-2" x1="1577.34" y1="-829.32" x2="1593.5" y2="-829.32" xlink:href="#linear-gradient"/><filter id="luminosity-noclip-3" x="142.35" y="-8431.89" width="47.95" height="32766" filterUnits="userSpaceOnUse" color-interpolation-filters="sRGB"><feFlood flood-color="#fff" result="bg"/><feBlend in="SourceGraphic" in2="bg"/></filter><mask id="mask-3" x="142.35" y="-8431.89" width="47.95" height="32766" maskUnits="userSpaceOnUse"><g class="cls-49"/></mask><linearGradient id="linear-gradient-3" x1="187.12" y1="104.59" x2="151.55" y2="29.24" gradientUnits="userSpaceOnUse"><stop offset="0" stop-color="#fafafa"/><stop offset="1" stop-color="#fff"/></linearGradient><filter id="luminosity-noclip-4" x="203.41" y="-8431.89" width="16.2" height="32766" filterUnits="userSpaceOnUse" color-interpolation-filters="sRGB"><feFlood flood-color="#fff" result="bg"/><feBlend in="SourceGraphic" in2="bg"/></filter><mask id="mask-4" x="203.41" y="-8431.89" width="16.2" height="32766" maskUnits="userSpaceOnUse"><g class="cls-48"/></mask><linearGradient id="linear-gradient-4" x1="203.41" y1="447.57" x2="219.6" y2="447.57" gradientTransform="matrix(1, 0, 0, 1, 0, 0)" xlink:href="#linear-gradient"/><filter id="luminosity-noclip-5" x="203.88" y="-8431.89" width="16.2" height="32766" filterUnits="userSpaceOnUse" color-interpolation-filters="sRGB"><feFlood flood-color="#fff" result="bg"/><feBlend in="SourceGraphic" in2="bg"/></filter><mask id="mask-5" x="203.88" y="-8431.89" width="16.2" height="32766" maskUnits="userSpaceOnUse"><g class="cls-47"/></mask><linearGradient id="linear-gradient-5" x1="203.88" y1="453.19" x2="220.07" y2="453.19" gradientTransform="matrix(1, 0, 0, 1, 0, 0)" xlink:href="#linear-gradient"/><linearGradient id="linear-gradient-6" x1="176.09" y1="337.96" x2="106.1" y2="349.29" gradientUnits="userSpaceOnUse"><stop offset="0" stop-color="#ed7d88"/><stop offset="0.43" stop-color="#f6a8ac"/><stop offset="0.79" stop-color="#fdc4c4"/><stop offset="1" stop-color="#ffcfcd"/></linearGradient><linearGradient id="linear-gradient-7" x1="127.41" y1="227.95" x2="134.04" y2="517.04" gradientUnits="userSpaceOnUse"><stop offset="0" stop-color="#14c7a9"/><stop offset="0.14" stop-color="#15c0ad"/><stop offset="1" stop-color="#1c99c3"/></linearGradient><linearGradient id="New_Gradient_Swatch_copy_67" x1="128.09" y1="242.84" x2="111.53" y2="469.81" gradientUnits="userSpaceOnUse"><stop offset="0" stop-color="#096976"/><stop offset="1" stop-color="#37a999"/></linearGradient><filter id="luminosity-noclip-6" x="119.87" y="440.28" width="13.02" height="5.13" filterUnits="userSpaceOnUse" color-interpolation-filters="sRGB"><feFlood flood-color="#fff" result="bg"/><feBlend in="SourceGraphic" in2="bg"/></filter><mask id="mask-6" x="119.87" y="440.28" width="13.02" height="5.13" maskUnits="userSpaceOnUse"><g class="cls-1"><path class="cls-2" d="M125.11,444.58c-8.47-2.43-6-5.91,2.54-3.47S133.64,447,125.11,444.58Z"/></g></mask><linearGradient id="linear-gradient-8" x1="1576.87" y1="-834.94" x2="1593.03" y2="-834.94" gradientTransform="matrix(0.74, 0.28, -0.82, 1.04, -1734.55, 864.01)" gradientUnits="userSpaceOnUse"><stop offset="0" stop-color="#c1e3f4"/><stop offset="0.77" stop-color="#e0f1f9"/><stop offset="1" stop-color="#e9f5fb"/></linearGradient><filter id="luminosity-noclip-7" x="115.63" y="446.28" width="13.02" height="5.13" filterUnits="userSpaceOnUse" color-interpolation-filters="sRGB"><feFlood flood-color="#fff" result="bg"/><feBlend in="SourceGraphic" in2="bg"/></filter><mask id="mask-7" x="115.63" y="446.28" width="13.02" height="5.13" maskUnits="userSpaceOnUse"><g class="cls-3"><path class="cls-4" d="M120.87,450.57c-8.47-2.42-6-5.9,2.54-3.46S129.39,453,120.87,450.57Z"/></g></mask><linearGradient id="linear-gradient-9" x1="1577.34" y1="-829.32" x2="1593.5" y2="-829.32" xlink:href="#linear-gradient-8"/><linearGradient id="New_Gradient_Swatch_copy_11" x1="203.13" y1="355.48" x2="213.41" y2="472.16" gradientUnits="userSpaceOnUse"><stop offset="0" stop-color="#ed7d88"/><stop offset="1" stop-color="#ffcfcd"/></linearGradient><linearGradient id="linear-gradient-10" x1="167.26" y1="227.04" x2="173.89" y2="516.13" xlink:href="#linear-gradient-7"/><linearGradient id="New_Gradient_Swatch_copy_67-2" x1="174.34" y1="246.22" x2="157.77" y2="473.18" xlink:href="#New_Gradient_Swatch_copy_67"/><linearGradient id="linear-gradient-11" x1="339.05" y1="-368.31" x2="251.52" y2="-360.35" gradientTransform="matrix(0.98, 0.22, -0.22, 0.98, -265.51, 456.39)" xlink:href="#New_Gradient_Swatch_copy_11"/><linearGradient id="New_Gradient_Swatch_copy_67-3" x1="128.71" y1="133.47" x2="127.89" y2="203.47" xlink:href="#New_Gradient_Swatch_copy_67"/><linearGradient id="New_Gradient_Swatch_copy_67-4" x1="138.8" y1="133.59" x2="137.98" y2="203.59" xlink:href="#New_Gradient_Swatch_copy_67"/><linearGradient id="New_Gradient_Swatch_copy_67-5" x1="183.3" y1="132.55" x2="127.8" y2="236.09" xlink:href="#New_Gradient_Swatch_copy_67"/><linearGradient id="New_Gradient_Swatch_copy_11-2" x1="181.11" y1="211.59" x2="220.54" y2="211.59" xlink:href="#New_Gradient_Swatch_copy_11"/><linearGradient id="New_Gradient_Swatch_copy_67-6" x1="198.36" y1="140.62" x2="142.86" y2="244.16" xlink:href="#New_Gradient_Swatch_copy_67"/><linearGradient id="New_Gradient_Swatch_copy_11-3" x1="129.01" y1="136.47" x2="171.87" y2="116.21" xlink:href="#New_Gradient_Swatch_copy_11"/><linearGradient id="New_Gradient_Swatch_copy_11-4" x1="169.45" y1="95.59" x2="148.46" y2="136.02" xlink:href="#New_Gradient_Swatch_copy_11"/><linearGradient id="New_Gradient_Swatch_copy_11-5" x1="183.68" y1="123.99" x2="148.66" y2="64.73" xlink:href="#New_Gradient_Swatch_copy_11"/><linearGradient id="linear-gradient-12" x1="203.68" y1="102.8" x2="74.62" y2="26.82" gradientUnits="userSpaceOnUse"><stop offset="0" stop-color="#8c203c"/><stop offset="1" stop-color="#7a253b"/></linearGradient><filter id="luminosity-noclip-8" x="142.35" y="45.11" width="47.95" height="75.73" filterUnits="userSpaceOnUse" color-interpolation-filters="sRGB"><feFlood flood-color="#fff" result="bg"/><feBlend in="SourceGraphic" in2="bg"/></filter><mask id="mask-8" x="142.35" y="45.11" width="47.95" height="75.73" maskUnits="userSpaceOnUse"><g class="cls-5"><path class="cls-6" d="M190.26,117.67c-.4,2-4,2.6-6.1,3.17a10.14,10.14,0,0,1-3.16-.56c-4.26-1.5-8.58-7-9.34-10.22a22.94,22.94,0,0,1,.53-11.74c1.09-.8,1.92-1.09,2.78-2.6,1.46-2.59,1.88-6.72-.39-9.35-.86-1-2.54-2.24-3.77-2.09,8.66-15.18-2.87-36-28.46-32.8,14.71-12.7,43.84-6.55,46.64,19.64,2,18.27-9.33,22.82-8.84,34.27a5.72,5.72,0,0,0,.27,1.48C182.35,113.15,190.93,114.44,190.26,117.67Z"/></g></mask><linearGradient id="linear-gradient-13" x1="187.12" y1="104.59" x2="151.55" y2="29.24" gradientUnits="userSpaceOnUse"><stop offset="0" stop-color="#631e30"/><stop offset="1" stop-color="#4d1725"/></linearGradient><filter id="luminosity-noclip-9" x="203.41" y="445.87" width="16.2" height="3.42" filterUnits="userSpaceOnUse" color-interpolation-filters="sRGB"><feFlood flood-color="#fff" result="bg"/><feBlend in="SourceGraphic" in2="bg"/></filter><mask id="mask-9" x="203.41" y="445.87" width="16.2" height="3.42" maskUnits="userSpaceOnUse"><g class="cls-7"><path class="cls-8" d="M211.6,449.21c-10.81.6-11-2.67-.19-3.27S222.39,448.6,211.6,449.21Z"/></g></mask><linearGradient id="linear-gradient-14" x1="203.41" y1="447.57" x2="219.6" y2="447.57" gradientTransform="matrix(1, 0, 0, 1, 0, 0)" xlink:href="#linear-gradient-8"/><filter id="luminosity-noclip-10" x="203.88" y="451.48" width="16.2" height="3.42" filterUnits="userSpaceOnUse" color-interpolation-filters="sRGB"><feFlood flood-color="#fff" result="bg"/><feBlend in="SourceGraphic" in2="bg"/></filter><mask id="mask-10" x="203.88" y="451.48" width="16.2" height="3.42" maskUnits="userSpaceOnUse"><g class="cls-9"><path class="cls-10" d="M212.07,454.82c-10.81.61-11-2.66-.19-3.27S222.85,454.22,212.07,454.82Z"/></g></mask><linearGradient id="linear-gradient-15" x1="203.88" y1="453.19" x2="220.07" y2="453.19" gradientTransform="matrix(1, 0, 0, 1, 0, 0)" xlink:href="#linear-gradient-8"/></defs><title>womanPhase2</title><path class="cls-11" d="M154.13,255.45c-.14,1.18-3.71,30.06-3.88,31.25-7.71,38.22-17.05,45-12.74,60.42,1,3.75,4.89,7.52,8.07,14.81,6.78,16.94,2.41,30.9,2.41,35.88-.82,5.21-.7,12.77-1.12,36.75,0,0-5.5,7.39-9.63,8.51-.26,0-2.72-4-4.27-4.62-4.06-1.63-3.62-2.55-3.12-10.66,1.48-19.43-2-27.79-3.6-33.53-1.83-6.48-2.21-8.16-3.29-11.83-1.89-6.39-2.1-6-3.57-11-2.94-10-2-11.36-4.79-19.6-1.7-5.06-2.3-5.25-3.59-9.86-3-10.74-2.66-20-2.86-30.17-.46-23.13-1.33-23-3.54-38.91-1.28-9.21-3.49-19.19,2.45-31.68,7.35-15.48,27.25-18.42,38.15-20.72,2.33-.49,6.16,7.64,8.16,17.64A50.92,50.92,0,0,1,154.13,255.45Z"/><path class="cls-12" d="M154.13,255.45c-.67,12.7-2.61,22.37-3.88,31.25-.4,2.83-2.31,10.36-3,13.18-6.78,26.6-13.53,33.75-9.76,47.24,1,3.85,5.9,8.95,8.57,16a1.6,1.6,0,0,0,.09.2c0,.09.07.17.09.26,6.53,17.41.63,29.05,1,50.73l-.35,20.24s-5.5,7.39-9.63,8.51c-.26,0-2.72-4-4.27-4.62-4.06-1.63-3.62-2.55-3.12-10.66,1.52,0,5.07.81,6.21,3.62,1.29,3.24,4.89,1,6.95-2.46s1.63-22.31,1.63-22.31a94.66,94.66,0,0,0-2.09-31.91c-3-12.06-5.52-10.48-9-24.56-3.62-14.49,3.15-103.93,6.16-105.08C143.61,243.58,149.68,249.94,154.13,255.45Z"/><path class="cls-13" d="M154.86,253.09c-.69,9.23-1.62,17-2.46,23-6.18,43.35-15.52,45.87-15,65-.57,9.66,4.79,10.45,8.66,22.07-7.43,11.63-22.27,11.57-27.32,6.42C116.35,367.1,117.14,365,114,354c-3.87-13.74-5.9-14.4-10-58.87-2.84-30.49-3-27.83-3-32.5-.28-17.77,1.7-38.23,1.7-38.23,3.09,1.38,35.63-15.45,35.63-15.45C151.24,220.12,156.26,236.35,154.86,253.09Z"/><path class="cls-14" d="M142.59,266.65c4,17.67,6.41,28.13,3.25,40.63-2.48,9.8-7.71,21.45-8.42,33.79-.57,9.66,4.79,10.45,8.66,22.07a21.51,21.51,0,0,1-5.1,5.56c-9.7-18-10.91-32.24-10.19-41.94,1.23-16.6,8.05-18.8,5.8-32.3s-10.53-19.55-12.84-36.66c-2.56-19-17.71-9.27-21.08-33.41,7.18,1.55,23.18,6.13,32.47,20.37C138.92,250.55,140.14,255.92,142.59,266.65Z"/><path class="cls-15" d="M134.65,439.81s-.78-6.47-4.39-7.52-5,.76-9.65,8.37-3.17,7.95-10,13.41-9.3,7.29-10.34,10.9-1.76,5.42,1.14,7.19,15.88,3.1,22,.89,9.68-4.77,12.16-9.84,6-9.41,10.34-11.61,1.64-12.82.58-15.14c-1.47-3.22,2.52-.74-5.73,2.94S134.65,439.81,134.65,439.81Z"/><path class="cls-16" d="M145.89,448.71c-4.3,2.18-7.86,6.56-10.33,11.63s-6.08,7.62-12.17,9.81-19.06.9-22-.87-2.17-3.58-1.13-7.21a9.48,9.48,0,0,1,1.7-3.29c2.27-2.87,9.25-7.81,12.41-10.92,2.69-2.77,2.74-4.38,6.19-10.08,4.62-7.61,6-9.41,9.66-8.38s4.38,7.53,4.38,7.53a2.45,2.45,0,0,0,1.06,1.35c.79.4,1.57,0,5-1.78,4.27-2.22,4.75-3,5.46-3.95s.87-1.12,1.67.64C148.89,435.48,150.18,446.5,145.89,448.71Z"/><path class="cls-17" d="M125,459.77c-7.47,3.31-19,1.81-23-1,2.27-2.87,9.25-7.81,12.41-10.92,6.44.38,12.4,4.83,16.54,2.94C136.18,448.39,134.66,455.49,125,459.77Z"/><path class="cls-15" d="M132.78,444.68c-.26,1.31-4.8,2-8.39.67-1.73-.65-5.68-3-4.41-4.34a13.8,13.8,0,0,1,7.64.09C129.85,441.81,133,443.51,132.78,444.68Z"/><g class="cls-18"><path class="cls-19" d="M125.11,444.58c-8.47-2.43-6-5.91,2.54-3.47S133.64,447,125.11,444.58Z"/></g><path class="cls-15" d="M128.54,450.67c-.25,1.24-4.25,1.63-7.25,1.11-3.86-.66-6-2.78-6-3.43a2.31,2.31,0,0,1,.43-1.34,14.66,14.66,0,0,1,7.64.09C125.57,447.78,128.77,449.5,128.54,450.67Z"/><g class="cls-20"><path class="cls-21" d="M120.87,450.57c-8.47-2.42-6-5.9,2.54-3.46S129.39,453,120.87,450.57Z"/></g><path class="cls-11" d="M219.3,441.37c-1.08,3.28-3.89,9.29-7.05,10.73-.35,0-3.63-3.53-5.42-3.82-2.83-.55-3.78-1.15-4.33-3.53-.38-1.17-.88-5.61-1-6.86-3.63-32.85-14.86-39.76-20.18-54.57-10.23-27.19-12.87-25.25-15.3-31.21-5.12-12.53-4.87-15.06-9.35-29.28-8.7-27.33-13.27-32.5-18.19-52.28-5.22-21.37-3.53-28.58-2-32.75,4-11.23,13-17.84,18.24-21,1.25-.1,17-2.43,26.79,23.36s7.85,42.05,8.3,50.05c.4,8.3,1.15,57.4,3.88,62.87,3,5.76,13.36,11.28,17.59,29.67,1.54,5.56,1.82,10.69,2.14,15.66C214,409.4,214.69,410.37,219.3,441.37Z"/><path class="cls-22" d="M219.3,441.37c-1.08,3.28-3.89,9.29-7.05,10.73-.35,0-3.63-3.53-5.42-3.82-2.44-.8-3.78-2-4.33-3.53C201,440.05,207.56,433,215.78,434a3,3,0,0,0,.89-3.13c-.35-1.44-2.14-8.35-4.77-17.84a96.07,96.07,0,0,0-7.66-30.67,23.5,23.5,0,0,0,5.12-5.71c3.11,7.92,3.36,13.93,4,21.77C214,409.34,214.82,411.29,219.3,441.37Z"/><path class="cls-23" d="M161.75,343.49c-3.08-8.85-2.89-11.67-6-19.82C137.82,276.75,136.5,267,136.5,267a23.2,23.2,0,0,1-6.8-22c2.28-9.61,14.19-20.76,21.72-27.1,0,0,0,0,0,0,11.2-4.62,17.94,2.12,25.64,11.59,6.93,8.44,9.34,16.16,11.14,31.15,2.3,16.79,3.5,30.52,3,46.82-.69,24.86-1.23,41.42,7,48.92,5.91,5.38,9.86,11.18,11.15,20.18a23.77,23.77,0,0,1-26.67,10.09,201.87,201.87,0,0,0-10.12-21.49A95.78,95.78,0,0,1,161.75,343.49Z"/><path class="cls-24" d="M182.69,386.69a23.8,23.8,0,0,0,26.67-10.09.08.08,0,0,1,0-.07c-1.34-8.88-5.08-14.6-11.15-20.11-8.18-7.5-7.64-24.06-7-48.92.48-17.18-1-26.34-2.19-38.85-1.92-18.72-3.27-28.49-12-39.12-10.79-13.29-18-14.93-25.23-11.76l-.41.17A129.07,129.07,0,0,1,130,244c7,4.89,15.84,9,24,6.52,7.78-2.37,10.77-9.43,16-8.59,5.85.95,8.83,11.1,10.25,16.46,10.14,38.33,6.2,79.22,6.18,79.22s0-.09,0-.63c1.88,10.33,2.82,15.5,5.59,21.74,4.3,9.69,8.82,13.51,7.46,18.33C198.55,380.23,195.05,384.17,182.69,386.69Z"/><path class="cls-11" d="M139.5,124.72c-3.41,6.41-2.46,16.47-3.65,20.08-1,3.12-.68,1.4-4.6,10.47-9.86,23.13-7.21,14.4-11.73,23.64-2.52,5.22-6.59,11.4-11.75,14.23-8.41,4.57-26.43-3.67-38.8-11.07a134.72,134.72,0,0,1-22-16.53c1.91-3.68,3.9-7.37,6-10.93A189.18,189.18,0,0,0,84,166.9c5.35,1.6,10.57,4.57,14.1,5.4,6.87-20.6,15.17-29.85,17.11-34.82,2.07-5.28,5-11.32,9.09-14.91,6.82-6,11.42-7.84,11.42-7.84.59-.09,7.85-.09,8.84,2C145.36,118.43,142.11,119.81,139.5,124.72Z"/><path class="cls-25" d="M129.73,158.8c-2.1,4.45-4.13,9.85-6.25,13.32a49.86,49.86,0,0,0-4,6.79c-2.52,5.22-6.59,11.4-11.75,14.23-11.31,6.15-39.47-10.49-50.68-19.08-4.19-3.21-8.44-6.65-8.26-6.9.54-.73,39.4,25.64,51,21.26a12.45,12.45,0,0,0,7.14-6.95c3.15-7.87,6.37-15,8.45-20.14,1.53-3.74,2.67-4.64,5.85-10.13,4.64-8,9-13.82,11.84-13,1.92.57,4,4.92,4,5.35C137.85,148.38,134,149.78,129.73,158.8Z"/><path class="cls-26" d="M53,154.61a17.88,17.88,0,0,1-3.27-5.42c-1.61-6.26-1.87-10.33-6.55-14.19a2.33,2.33,0,0,0-2,0,2.93,2.93,0,0,0-2.68,1.18c-2.1,3-1.07,5.1-2.81,8.41-4.07,5-5.39,6.73-6.56,8v.11l-.72.89.83.6h0c.66.48,1.34.95,2,1.43,1.93,2.62,2.63,2.36,13.3,7.78a6.63,6.63,0,0,1-.89.43c1.45.93,3.1,2,5.12,3.32A10.79,10.79,0,0,0,53,154.61Z"/><path class="cls-11" d="M47.82,166.08c-.78.07-.19-1.13-2.27-1.92-3.94-1.51-9.42-1.9-12.58-6.7a17.48,17.48,0,0,1-1.73-1.88c-.39-.49-.29-.59,1.33.7a6.63,6.63,0,0,0,3,1.55c1.06.17,1.42-.28,2.51-.62,3.38-1.06,9.61.22,10.94,3.66C49.9,163.17,48.73,166,47.82,166.08Z"/><path class="cls-11" d="M38.14,134c-1.79,0-4,2.13-3.64,6.31-2.63,0-3.63,2.51-2.87,4.94a2.93,2.93,0,0,0-2.19,4.1c-3.48,1.09-1.17,7.27,5,8.93a1.65,1.65,0,0,0,1-3c-1.85-2.61-2.28-3.36-2.21-3.42s2.25,2.69,3.86,2.52A2,2,0,0,0,38.64,153c.06-.25-.52-1.22-2.32-3.45-1.33-1.62-1.82-2.18-1.8-2.2s3.86,4.2,5.87,3.66a1.71,1.71,0,0,0,1.31-1.21c.07-.57-1.74-2.44-2.38-3.13-1.31-1.45-2.13-3.15-1.94-3.32s2.61,4.2,4.71,3.41a2.57,2.57,0,0,0,1.25-2.66c-.17-1.16.15-.88-1.19-2.21-1.56-1.56-3.55-4.42-2.78-5.84.15-.28.69-1,3-1A9.84,9.84,0,0,0,38.14,134Z"/><path class="cls-11" d="M51.49,155.58a25,25,0,0,1-2,4.27,3.87,3.87,0,0,1-3.63-1c-1.8-1.43-4.22-3.1-3.23-8.28.59-3,2.23-3.91,1.82-6.29a7.47,7.47,0,0,0-.74-2c-1-2.08-1.84-2.36-2.55-4.19-.32-.82-.92-2.33-.24-3s2-.17,2.19-.09A15.93,15.93,0,0,1,51,150.8,20.9,20.9,0,0,0,51.49,155.58Z"/><path class="cls-27" d="M43.34,163.9a7,7,0,0,0,1.2-.54,15.32,15.32,0,0,0,5-4.31,13.1,13.1,0,0,0,1.66-6.87l0-.49C62.59,156.84,48.36,175.41,43.34,163.9Z"/><path class="cls-28" d="M145.41,112.93c.83,6.54-15.43,24-20.94,28.45-5.13,4.21-10.25.62-12.32-1.26.6-1.46,1.28-3.16,2-5.34,1.59-4.83,1.83-7.19,2.81-9.61v0C122.92,113.36,134.09,109.28,145.41,112.93Z"/><path class="cls-29" d="M187.5,164.61s.07,0,.15,0v0h0l0,0v0c-.5.42-2.49,2.61-2.78,2.91v0c-.21.24-10.85,11.77-13.32,14.2a.34.34,0,0,0-.12.12c-3.68,3.78-3.68,3.28-7.58,8.79a4.08,4.08,0,0,0-.59,1c-9.72,16.61,9.35,27.78,9.35,27.78s2.71,2.86-3.67,13.09c-16.22,26.22-66.72,6.68-66.22-8.19.07-5,5.87-6.11,4.09-23.58-1.18-12.15-5-18.11-3.27-25.44.09-.42.59-2.41,1.4-5v0a27.47,27.47,0,0,0,2.29-5.56,9.79,9.79,0,0,0,.49-2.19h0c-.78-.79-3-3.37-3.69-4.21-2-2.31-2.63-8.39-2.26-11a1,1,0,0,0,0-.24l0,0v0c5.61-11.22,15.87-15.11,20.45-19.81a28.48,28.48,0,0,0,3.37-4.4c1.12-1.59,3-4,3.17-4.11a58.05,58.05,0,0,1,6.55-6.6c.91-.76,6.94-.09,14.3,1.23,8.19,1.46,23,4.6,31.1,8,2.66,1,4.33,2.09,6.23,2.93a11.76,11.76,0,0,0,1.25.54h.08c.1.29,2.65,1.45,3,1.82l.05,0a29.23,29.23,0,0,0-4.3,2.63c-.37.22-1.55,1.55-1.85,1.82a11.71,11.71,0,0,0-1.8,2.27c-3.88,5.51-8,10.27-7.92,14.15.07,2.46.1,7.76,2.17,12.08a6,6,0,0,0,.34.59,6.49,6.49,0,0,0,3.4,3.3s.05,0,.07.05h.05a19.75,19.75,0,0,0,3.12.86s.08,0,.08,0a.31.31,0,0,1,.17,0l.17,0a.74.74,0,0,0,.25,0,4.08,4.08,0,0,0,.61,0,7.83,7.83,0,0,0,1.53,0A.21.21,0,0,1,187.5,164.61Z"/><path class="cls-30" d="M149.58,113.4c-1.38,1.31-4.09,2.24-9.33,2.49-9,.47-11.34,2.73-11.81,3.35a2.07,2.07,0,0,0,.24-.4.5.5,0,0,0,.08-.12,53.52,53.52,0,0,1,6.52-6.55C136.19,111.41,142.22,112.08,149.58,113.4Z"/><path class="cls-31" d="M177.61,121.72a2.07,2.07,0,0,0-.08-1.2.08.08,0,0,0,0,0,.87.87,0,0,0-.13-.32c5.05,1.51,8.79,4.07,10.78,4.7h.08s0,.07.07.12.05,0,.07,0c.64.22,1.43.52,2.32.91l.05,0c3.84,1.75,7,4.77,8,6.5a1.31,1.31,0,0,1-.35,0c-5.53.69-17,.67-17.1.74-4.5-.82-5.75-1.82-10.9-5.19.09-.09,4.44-3,4.55-3.1Z"/><path class="cls-32" d="M187.65,164.61c-1.12,1.12-10.77,11.29-11.45,12.31-.08.07-1.38,1.53-1.67,1.82a23.41,23.41,0,0,0-3,3,.34.34,0,0,0-.12.12c-3.68,3.78-3.68,3.28-7.58,8.79a4.08,4.08,0,0,0-.59,1c-9.72,16.61,9.35,27.78,9.35,27.78s2.71,2.86-3.67,13.09c-15.46,25-62.23,8.41-65.95-6.15,3.57,3.62,17.11,16.34,34.58,14.37,11.1-1.25,24.71-8.83,22.42-13.8-3.25-7.07-10-5.24-15.8-14.82-3.15-5.17-1.63-8.51-3.25-11.66a8.76,8.76,0,0,0-1.57-2c-3.3-3.62-13.19-13.88-16.37-17.42a20.09,20.09,0,0,0-7-3.32s0,0,0,0c-2.41-.71-4.33-1.11-6.72-2.88a17,17,0,0,1-4.28-4.48v0a22.71,22.71,0,0,0,2.75-7.75c-.78-.79-3-3.37-3.69-4.21-2-2.31-2.59-8.35-2.26-11v-.19l0,0v0l0,0c3.49,7.85,7.41,10.49,10.58,11.32,5.34,1.36,8.37-2.43,13.53-.19,4,1.74,3.5,4.47,10,9.67a26.13,26.13,0,0,0,8.22,4.87c6.48,2.12,12.78,0,16.25-1.62A39.31,39.31,0,0,0,173.3,164a18.87,18.87,0,0,1-.71-16.82c4.75,11.91,4.79,12.76,5,12.49a9.27,9.27,0,0,0,3.74,3.89s.05,0,.07.05h.05A9.2,9.2,0,0,0,187.65,164.61Z"/><path class="cls-33" d="M177.61,121.72a3.84,3.84,0,0,1-1.51,2.17,14.18,14.18,0,0,1-1.13.91c-.59.4-5.31,3.57-5.85,4h0c-11.59,8.69-9.85,11.89-16.12,13.74-7.46,2.49-17.27-1.5-19.88-7.49-3.67-8.41,6.74-24.43,20.1-24.85,7.24,5.24,14.47,6.37,24.17,9.87,0,0,0,0,0,.05a.87.87,0,0,1,.13.32.08.08,0,0,1,0,0A2.16,2.16,0,0,1,177.61,121.72Z"/><path class="cls-34" d="M148.18,111.1a5.11,5.11,0,0,1-.93,2.16,22.77,22.77,0,0,1-3.75,2.23,16.83,16.83,0,0,1-3.25.41l0-.12A22.51,22.51,0,0,1,148.18,111.1Z"/><path class="cls-34" d="M177.6,121.73c-.26,1.55-2.31,2.82-3.59,3.74-1,.71-2.24,1.5-3.6,2.43a11.37,11.37,0,0,1-1.44-1.5,21.16,21.16,0,0,0,5.46-4.57c.77-1.18.31-1.87-2.37-3.55,1.6.52,3.32,1.11,5.29,1.82a1,1,0,0,1,.15.37s0,0,0,0A2.17,2.17,0,0,1,177.6,121.73Z"/><path class="cls-34" d="M175.48,149.28c0-.24,0-.52,0-.76C175.47,148.78,175.47,149,175.48,149.28Z"/><path class="cls-11" d="M213.44,246l-9.08,14.74a70.18,70.18,0,0,0-5.78-15.18c-2.62-5.37-8.76-20.76-14.15-45.21a193.05,193.05,0,0,1-2.68-36.71c-9.42-9.45-6.53-24.58.54-32.22,4,0,6.67.13,10.75,1.73,7.38,2.88,10.26,21.33,10.53,31.86.16,4.86-1,14.35,1.09,30.22,0,.05,0,.1.05.18C209.73,215.52,206.1,214.26,213.44,246Z"/><path class="cls-11" d="M228,275.57a12.49,12.49,0,0,1,2.93,4.48,10.24,10.24,0,0,1,.3,4.19c-.3.81-.49,1.37-.81,1.42-1.28.2-1.5-2.36-2.12-3.66a5.82,5.82,0,0,0-2.14-2.56,42,42,0,0,1,3.32,7,9,9,0,0,1,0,3.93c-1.75,1.89-2.24-.53-3.15-2.93a29.73,29.73,0,0,0-4.63-8.21,35,35,0,0,1,3.2,6.52c1.17,3.18,2.52,7-.76,6.89-.27-.37-3.84-7.63-5.64-10.24a40.45,40.45,0,0,0-6.17-7.07.72.72,0,0,0-1.15.41c-.51,2.66,0,7.48-2.66,7.27s-3.84-20.77-4.09-22.32c-.71-4.63-1.77-8.66-2.85-10.41,3.5-6.68,4.79-9.1,8-15.28.05,0,.6,2.51.62,2.46.53,9.9,3.81,11.76,8.93,19.27a13.07,13.07,0,0,0,1.45,1.38c1.06.81,6.58,6.76,7.76,9,.56,1,1.93,3.45,2.67,5.05,2.12,4.58.64,7.43.32,7.28-.76-.32-.81-1.28-1.6-2.41A5.64,5.64,0,0,0,228,275.57Z"/><path class="cls-35" d="M220.5,258.15c-.42.6-3.4-2.68-6.89-1.78-2.47.64-8.13,3.92-8.49,3.9-.16,0-.27-.06-.17-.18,2.63-3,4.94-7.24,4.55-11.29-.71-7.53-6-22.62-7.38-43.07-.65-10,.55-20.3-4.92-23.18-1.15-.6-2.07-.6-5.13-1.75a49.39,49.39,0,0,1-10.2-5.24c-.17-3.84-.2-7.77-.12-11.93-.2-.2-.42-.47-.64-.72,6.12.3,17.35.94,22.46,2.09.18,4.85-1,14.35,1.09,30.22,0,.05,0,.1.05.18,4.69,18.81,1.84,19,7.29,44.22,2,9.19,3.16,12.13,5.56,14.79C218.76,255.73,220.86,257.65,220.5,258.15Z"/><path class="cls-36" d="M203,175.05c-1.4,1.52-6,5-21.95-.62.43-3.2-.83-8.1-4.11-11.69A15.82,15.82,0,0,1,173,157c-3.05-7.63,1.94-21.43,15.35-32,.64.22,1.43.52,2.32.91l.05,0c10.95,5,13.25,16.44,13.63,28.47C204.75,166.76,204.9,172.93,203,175.05Z"/><path class="cls-37" d="M166.66,128c-9,6.62-8.22,10.3-13.72,11.53-7.22,1.9-14.69-1.88-16.73-6.55-3.1-7.1,5.44-20.07,15.9-21.31,5.81-.63,11.55,2.17,17.53,5C179.35,121.36,172.93,123.41,166.66,128Z"/><path class="cls-11" d="M165.35,124s1.45,1.09,3.62,2.39c-12,8.34-10.17,11.86-16,13.17-6.91.81-12.94-3-14.64-6.92-3-6.84,4.67-18.57,13.81-20.94,5.61-.62,11.16,2,16.92,4.76-2.73,2.21-5.23,4.42-5.23,4.42Z"/><path class="cls-38" d="M169,126.4h0c-2.17-1.3-3.62-2.39-3.62-2.39l-.06-.14c-8.27,5.45-17.84,3.84-19.8.79-1.12-1.74.17-3,.27-7.4a24.33,24.33,0,0,0-1.56-9,81.81,81.81,0,0,0,9.35-3.11c12.08-4.85,18.7-10.86,20.25-9.35.82.81-.67,3-2,6.62A34.92,34.92,0,0,0,170,116.92C178.33,121,173.75,123.17,169,126.4Z"/><path class="cls-11" d="M176.52,96.89c-1.94,1.37-3.1.6-6.62,2.46-3.81,2-3.78,3.58-8.18,6.62-5.05,3.48-12.41,6.39-18.1,4.09-8.68-3.51-14.27-22.2-6.82-41.6,3.89-10.13,3.51-7.79,14.41-14.41S175,53.66,176.13,56c-.78,3.51-5.62,26.24-2.72,28.43,3.11,2.34,7-1.55,7-1.55C180.93,91.85,178.7,95.36,176.52,96.89Z"/><path class="cls-39" d="M176.52,96.89c-1.94,1.37-3.1.6-6.62,2.46-3.81,2-3.78,3.58-8.18,6.62a29.36,29.36,0,0,1-9.31,4.34c12.67-4.75,15.82-18.51,10.75-26.15-2.69-4-6.64-3-9.88-7.53a56.13,56.13,0,0,1-6.48-12.72S165,65.12,173.8,68c-1.17,7.18-2,15.14-.39,16.38,3.11,2.34,7-1.55,7-1.55C180.93,91.85,178.7,95.36,176.52,96.89Z"/><path class="cls-40" d="M190.26,117.67c-.44,2.2-4.76,2.71-6.73,3.36-9.34,3.12-14.8-.78-16.74-5.06-1.08-2.39-.66-4.86-.14-7.65.71-3.88,2.46-7.81,5.54-10,1.09-.8,1.92-1.09,2.78-2.6,1.46-2.59,1.88-6.72-.39-9.35-.86-1-2.54-2.24-3.77-2.09-3.11.26-2.26,11.21-3.63,15.33C166.4,102,166,91.82,166.4,86c.34-5.09-3.79-5.79-6.62-7-3.55-1.54-6.92-5.75-13.63-14.16-.58-.73-1.78-2.34-3.38-2.34s-4.3,2.16-5.68,5.6a45.68,45.68,0,0,0-2,6.35c-2.23,9.13-.94,15.89-1.56,16s-2.68-6-2.54-13.37c.29-14.63,8.4-25.35,17.52-29.47,14.37-6.54,38-.23,40.51,23.57,2,18.27-9.33,22.82-8.84,34.27a5.72,5.72,0,0,0,.27,1.48C182.35,113.15,190.93,114.44,190.26,117.67Z"/><g class="cls-41"><path class="cls-42" d="M190.26,117.67c-.4,2-4,2.6-6.1,3.17a10.14,10.14,0,0,1-3.16-.56c-4.26-1.5-8.58-7-9.34-10.22a22.94,22.94,0,0,1,.53-11.74c1.09-.8,1.92-1.09,2.78-2.6,1.46-2.59,1.88-6.72-.39-9.35-.86-1-2.54-2.24-3.77-2.09,8.66-15.18-2.87-36-28.46-32.8,14.71-12.7,43.84-6.55,46.64,19.64,2,18.27-9.33,22.82-8.84,34.27a5.72,5.72,0,0,0,.27,1.48C182.35,113.15,190.93,114.44,190.26,117.67Z"/></g><path class="cls-15" d="M227.41,477.06c-1.62,3.22-29.95,10-29.53-14.58l3.42-17.9s18.8-3.13,19.07,2.4C220.77,458.93,232.72,468.13,227.41,477.06Z"/><path class="cls-17" d="M227.51,472.77c-1.52,2.89-24.58,9.82-29-6.54a23.18,23.18,0,0,1-.75-6.53,109.51,109.51,0,0,1,2.27-15.58c.19-1,1.23-2.79,1.47-3.75.66,1.61.46,2.74.91,2.74.95,0,1-2.1,3.05-3.91,2.39-2.05,6.22-2.47,8.19-1.62,3,1.32,2.36,2.9,3.85,2.93,1.19,0,1.72-2.24,2.57-2.15C224.45,462.4,231.22,466.64,227.51,472.77Z"/><path class="cls-16" d="M227.51,472.77c-1.52,2.89-24.58,9.82-29-6.54a12.68,12.68,0,0,0,6.39,6.63c3,1.27,5.59.87,7.87.51C223,471.79,224.61,467.22,223,463c-.95-2.55-4-4.32-4-4.32-5-2.87-10.25-1.64-10.88-3.86-1-3.6,8-.41,9.85-3.32.62-1-.34-3.61-2.3-8.86-1.06-2.85-2-2.62-4.26-4.6-.4-.35-.71-.65-.92-.85a6.26,6.26,0,0,1,3.18.37c2.5,1.1,2.47,2.38,3.26,2.79a1.27,1.27,0,0,0,1.75-.7c.26-.67-.29-1.34.08-1.78a.46.46,0,0,1,.12-.11c.34-.14.9.55,1.21.58C224.46,462.41,231.22,466.64,227.51,472.77Z"/><path class="cls-15" d="M219.64,448.15c0,1-3.51,1.67-4.86,1.94a18.93,18.93,0,0,1-6,.23c-1.86-.18-5.2-.44-5.4-2.29a18.4,18.4,0,0,1,8-2.09C215.28,445.85,219.65,447.09,219.64,448.15Z"/><g class="cls-43"><path class="cls-44" d="M211.6,449.21c-10.81.6-11-2.67-.19-3.27S222.39,448.6,211.6,449.21Z"/></g><path class="cls-15" d="M220.11,453.77c0,1-3.51,1.66-4.86,1.93a19.06,19.06,0,0,1-6,.24c-1.85-.18-5.2-.45-5.39-2.3a18.26,18.26,0,0,1,8-2.08C215.75,451.47,220.11,452.7,220.11,453.77Z"/><g class="cls-45"><path class="cls-46" d="M212.07,454.82c-10.81.61-11-2.66-.19-3.27S222.85,454.22,212.07,454.82Z"/></g></svg>