<svg id="Layer_1" data-name="Layer 1" xmlns="http://www.w3.org/2000/svg" xmlns:xlink="http://www.w3.org/1999/xlink" viewBox="0 0 291.72 480.53"><defs><style>.cls-1{fill:#a9dcfd;}.cls-2{fill:#e0eafb;}.cls-3{fill:url(#linear-gradient);}.cls-4{fill:#70bfe6;}.cls-5{fill:#c1e3f4;}.cls-6{fill:url(#linear-gradient-2);}.cls-7{fill:#ffcfcd;}.cls-8{fill:url(#linear-gradient-3);}.cls-9{fill:url(#linear-gradient-4);}.cls-10{fill:url(#linear-gradient-5);}.cls-11{fill:url(#linear-gradient-6);}.cls-12{fill:#ed7d88;}.cls-13{fill:url(#linear-gradient-7);}.cls-14{fill:#1b2f6b;}.cls-15{fill:url(#linear-gradient-8);}.cls-16{fill:url(#linear-gradient-9);}.cls-17{fill:url(#linear-gradient-10);}.cls-18{fill:url(#linear-gradient-11);}.cls-19{fill:#fff;}.cls-20{fill:url(#New_Gradient_Swatch_copy_11);}.cls-21{fill:url(#New_Gradient_Swatch_copy_11-2);}.cls-22{fill:url(#linear-gradient-12);}.cls-23{fill:url(#linear-gradient-13);}.cls-24{fill:url(#linear-gradient-14);}.cls-25{fill:url(#linear-gradient-15);}.cls-26{fill:url(#linear-gradient-16);}.cls-27{fill:url(#linear-gradient-17);}.cls-28{fill:url(#linear-gradient-18);}.cls-29{fill:url(#linear-gradient-19);}</style><linearGradient id="linear-gradient" x1="95.73" y1="501.26" x2="127.55" y2="377.13" gradientUnits="userSpaceOnUse"><stop offset="0" stop-color="#005995"/><stop offset="1" stop-color="#068be5"/></linearGradient><linearGradient id="linear-gradient-2" x1="148.83" y1="514.87" x2="180.65" y2="390.74" xlink:href="#linear-gradient"/><linearGradient id="linear-gradient-3" x1="336.71" y1="336.52" x2="233.05" y2="321.6" gradientUnits="userSpaceOnUse"><stop offset="0" stop-color="#9dc959"/><stop offset="1" stop-color="#3f9e3c"/></linearGradient><linearGradient id="linear-gradient-4" x1="114.99" y1="238.71" x2="113.22" y2="405.19" xlink:href="#linear-gradient-3"/><linearGradient id="linear-gradient-5" x1="-5825.81" y1="294.02" x2="-5827.57" y2="460.76" gradientTransform="matrix(-1, 0, 0, 1, -5678.49, 0)" xlink:href="#linear-gradient-3"/><linearGradient id="linear-gradient-6" x1="335.05" y1="348.69" x2="231.35" y2="333.76" xlink:href="#linear-gradient-3"/><linearGradient id="linear-gradient-7" x1="114.99" y1="138.43" x2="44.95" y2="144.79" gradientUnits="userSpaceOnUse"><stop offset="0" stop-color="#ed7d88"/><stop offset="1" stop-color="#ffcfcd"/></linearGradient><linearGradient id="linear-gradient-8" x1="133.5" y1="141.57" x2="102.78" y2="113.33" gradientUnits="userSpaceOnUse"><stop offset="0" stop-color="#001440"/><stop offset="1" stop-color="#005995"/></linearGradient><linearGradient id="linear-gradient-9" x1="171.65" y1="232.59" x2="101.98" y2="113.47" xlink:href="#linear-gradient"/><linearGradient id="linear-gradient-10" x1="165.71" y1="74.86" x2="153.82" y2="119.07" xlink:href="#linear-gradient-8"/><linearGradient id="linear-gradient-11" x1="232.15" y1="203.44" x2="142.66" y2="182.54" xlink:href="#linear-gradient-8"/><linearGradient id="New_Gradient_Swatch_copy_11" x1="124.66" y1="92.49" x2="136.44" y2="157.7" xlink:href="#linear-gradient-7"/><linearGradient id="New_Gradient_Swatch_copy_11-2" x1="121.13" y1="116.31" x2="122.98" y2="49.9" xlink:href="#linear-gradient-7"/><linearGradient id="linear-gradient-12" x1="135.61" y1="118.06" x2="104.97" y2="-8.42" gradientUnits="userSpaceOnUse"><stop offset="0" stop-color="#a14c50"/><stop offset="1" stop-color="#c29ea9"/></linearGradient><linearGradient id="linear-gradient-13" x1="109" y1="83.12" x2="165.94" y2="120.6" xlink:href="#linear-gradient-12"/><linearGradient id="linear-gradient-14" x1="141.57" y1="72.64" x2="87.86" y2="72.09" xlink:href="#linear-gradient-12"/><linearGradient id="linear-gradient-15" x1="242.42" y1="161.14" x2="233.49" y2="165.63" xlink:href="#linear-gradient-7"/><linearGradient id="linear-gradient-16" x1="155.75" y1="202.52" x2="236.16" y2="125.05" xlink:href="#linear-gradient-7"/><linearGradient id="linear-gradient-17" x1="277.06" y1="126.33" x2="218.87" y2="176.12" xlink:href="#linear-gradient-7"/><linearGradient id="linear-gradient-18" x1="181.05" y1="157.75" x2="150.62" y2="105.84" xlink:href="#linear-gradient"/><linearGradient id="linear-gradient-19" x1="181.57" y1="81.66" x2="175.29" y2="121.33" xlink:href="#linear-gradient-8"/></defs><title>womanPhase5</title><path class="cls-1" d="M144.54,422.78c-.75,3.11-.85,6.22-6.88,9.52-4.9,2.5-6.5.43-12.68,2.12-5.14,1.51-5.14,3.3-12.44,5.89a37,37,0,0,1-7.36,2c-5.75.66-16.31,0-19.28-6.22-1.41-2.83-.94-6.74.1-8V428c3.2-6.31,13.29-4.52,25.88-13.48,3.53-2.45,3.86-2.73,6.93-5.14,0,0,0,0,.09,0,.17-.17.39-.11.52-.24,2-.54,7.8-.47,9.8-.33,3.8.33,7.37-.26,11.88-3.39.05.09.24.66.52,1.55C143.66,413.24,145.57,418,144.54,422.78Z"/><path class="cls-2" d="M112.4,430.2c-.23,2.29-7.57,3.3-11.3,3.53-4.47.27-8.47.47-11.93-2.25A11.25,11.25,0,0,1,86,428.06v0c2.68-5.28,10-4.86,19.73-9.79a6.26,6.26,0,0,0,.16,4.74C106.67,424.48,112.61,428.45,112.4,430.2Z"/><path class="cls-3" d="M143.57,426.52a12.87,12.87,0,0,1-5.92,5.79c-4.88,2.5-6.49.41-12.64,2.13-5.2,1.5-5.15,3.27-12.48,5.86a33.38,33.38,0,0,1-7.38,1.95c-5.72.69-16.29.07-19.25-6.17a9.56,9.56,0,0,1-.52-6.56c.34,9.06,11.68,11,20.13,9.93a33.38,33.38,0,0,0,7.38-1.95c7.33-2.59,7.28-4.37,12.48-5.86,6.15-1.72,7.76.37,12.64-2.14a12.53,12.53,0,0,0,5.92-5.78,28.1,28.1,0,0,0,.84-3.43A24.58,24.58,0,0,1,143.57,426.52Z"/><path class="cls-4" d="M141.62,406.94c-1.27,6-13.1,11.22-22.72,2.41q.46-.8.93-1.65c.32-.59.63-1.18.91-1.75l.09.1h0a19.27,19.27,0,0,0,4.29,2.64h0a5.52,5.52,0,0,0,.7.33c2.5,1.08,4.67,1.32,8.21.23a10.76,10.76,0,0,0,3.58-1.7v0a3.36,3.36,0,0,0,.37-.38,18.3,18.3,0,0,0,3-1.74C141.15,405.48,141.34,406.05,141.62,406.94Z"/><path class="cls-1" d="M175.83,454.74c-.24,7.66-.36,11.5-1.31,13.44C169.25,479,151,482.78,146.93,478c-2-2.44-1.31-8-1.09-8.93.31-1.33.86-2.92,1.56-5.21,3.91-12.1,3.6-9.56,4.27-18.22,1-13.32.54-14.68,2.17-16.42,3.31-3.58,12.9-4.16,19.93,4.89C174.88,438,176.16,444.19,175.83,454.74Z"/><path class="cls-2" d="M170.82,460.1c-3.79,11.36-15.14,14.51-25,8.94.86-3.63,4.41-13.37,5-16.16a24.45,24.45,0,0,0,9.75,1.59C167.57,454.11,174.42,450,170.82,460.1Z"/><path class="cls-4" d="M169.61,438.71c-3.64,2.93-8.23,2.24-10.38,1.92-6.18-.93-8.52-6.26-6-10.3,1.85-2.95,6.19-3.65,19.93,1.57C173.84,435.31,170,438.36,169.61,438.71Z"/><path class="cls-5" d="M168.35,435.48c-4.57,3.33-13.48,3-14.62-3.6-.73-5.61,4.61-5.8,9.42-6.08C170.45,425.38,174.69,430.88,168.35,435.48Z"/><path class="cls-6" d="M146.91,478a6.9,6.9,0,0,1-1.4-5.1c6.92,3.92,16.59,3.24,22.34-.95,2.78-2,6.59-6.57,7.72-9.64C176.49,479.6,153,483.7,146.91,478Z"/><path class="cls-7" d="M155,432.17v0S155,432.17,155,432.17Z"/><path class="cls-8" d="M141.62,406.94c-9.06,4.82-10.51,5.54-15.27,4.43a9.59,9.59,0,0,1-7-5.75c-.54-7.58.29-14.09.29-18.81a100.46,100.46,0,0,0,.09-10.56c-2.21-22.57-3.35-34.55-4.19-41.52a57.46,57.46,0,0,0-1.7-9.34l0,0c-1.87-4.72-13.26-26.38-17.49-66.84-.09-.62-.14-1.23-.18-1.84-1.39-18.25-2-42.43,6.83-59,6.93,3.4.71.38,35.73,17.63-.42,30.41-1.6,61-3.49,90.5,3.49,7.78,8,21.5,8.25,30C144.07,358.53,140.49,378.09,141.62,406.94Z"/><path class="cls-9" d="M133.28,363.53c0,22.25-1.46,44.31-1.7,48.08a11.17,11.17,0,0,1-5.23-.24,9.59,9.59,0,0,1-7-5.75c-.72-10.11,1.23-21.37,0-33.32-2.06-20.54-3.5-36.59-4.2-40.78-.18-1.77-.67-5.29-1.6-6.83-1.18-4.72-14.2-26.47-17.39-68-1-12.5-1.46-32.69,1.6-44.73,0,0,0,0,.09,0,6.27,2.88,17.07,6.79,17.07,6.79-1.63,26.56-6.29,22.93,1.18,47.14a69.56,69.56,0,0,1,2.78,10.23c4.29,20.12,2.07,26.53,6.22,40.82,2.83,9.75,4.29,8.1,6.6,17.15C133.75,342.6,133.23,348.68,133.28,363.53Z"/><path class="cls-10" d="M120.71,243.67l10.45,9.58a6.3,6.3,0,0,1,.61,1.67c1.62,8,7.64,69.42,11.48,80.41v0A83.19,83.19,0,0,1,151,358.9c3.44,20.05,1.24,74.19,1.24,74.19a4.77,4.77,0,0,0,.84,3.39c.93,1.14,4.44,2.14,5.91,2.32,2.53.3,9.43-2.65,14.5-8.58a.42.42,0,0,1,0-.12c5.41-42.62,8.45-49.33,8.16-58-.27-7.94-3.82-23.62-7.2-33.48-4.58-13.34-3.91-5.29-1.26-37.88,2.17-24.24,9.69-51.9,8.31-70.12-1.32-14.86-8.63-20.24-8.63-20.24-21.13-3.91-9.59-1.77-52.86-9.81C109.36,213.44,107.94,232.8,120.71,243.67Z"/><path class="cls-11" d="M175.2,340.88c5.41,14.92,8.22,31.51,5.28,47.16-1.39,8-6.8,39.93-7,42.36-.66,6.37-8.35,8.92-14.49,8.39,12.27-28.52,11.67-55.73,8.36-67.55-1.39-5-13.55-44.28-15.07-51.39-7.53-36.09,12.36-48.11-2.39-101.46,0,0,2.59-4.71,6.52-10.86l16.47,3.07c2.18,1.6,6.23,6.77,7.93,15.37,3.78,18.54-6.12,51.55-7.93,79C171.07,332.88,169.07,323.26,175.2,340.88Z"/><path class="cls-12" d="M32.28,127.58a19.68,19.68,0,0,0-3.42-6A4.44,4.44,0,0,0,26,120.34c-3.35-.28-4.05-1.35-8.1.11s-8.09,5.51-3.84,5.4c3.13-.09,4.09-2.57,8.12-1.54-1.6.32-2.75.51-3.93,1.87a11.65,11.65,0,0,0-2.55,9.62c3,3.75,2-5.09,6.06-7.41-1,3.05-2.64,8.93-1.68,9.29,1.3.49,1.54.8,1.84.17s.84-1.44,1.42-2.35a4,4,0,0,1,1.08,2.31c.42,4.75,11.8,1.05,11.33.82C34.12,133.84,33,130.17,32.28,127.58Z"/><path class="cls-7" d="M14.74,131.38c.32,1.8,4,2.8,6.71,4.64.25.17,1.89,1.93,5.14,5.43a23.58,23.58,0,0,0,5.14,4.1s3.76,1.22,7.12,2.58a9.88,9.88,0,0,0,1.28-12c-5.13-3.73-4.37-6.47-7.65-11.18-1.44-2.08-2.36-2.59-4.43-4.57-1.66-1.6-3.41-3.82-7.64-7.6l-2.7-3.12c-3.76.79-1.4,3.56.71,6.09,7.07,8.5,8.18,8.89,7,13.84-.87,3.58-7.44-1.92-9.67-.69A2.5,2.5,0,0,0,14.74,131.38Z"/><path class="cls-7" d="M108.8,95.78c-1,8.22-.2,12.22-.82,18.25-.3,3-.33,1.38-2,10.27-4.25,22.63-3.6,14.29-5.81,23.45-.87,3.64-1.2,6.11-3.11,9.13-6.14,9.74-16,7.67-37.16.64a122.39,122.39,0,0,1-22.93-10.44c1-3.66,2-7.35,3.2-11a78.73,78.73,0,0,0,43,5.4,67.34,67.34,0,0,1,2.29-12.26h0c1.2-3.57,3.61-11.29,4.27-14.17,1.78-7.64.5-11.91,5.13-18.22s9.2-12.33,13.12-6.16A7.65,7.65,0,0,1,108.8,95.78Z"/><path class="cls-13" d="M105.27,127.75c-3.1,16.91-3.18,11.86-5.14,20-.87,3.64-1.2,6.11-3.11,9.13-6.19,9.8-16.25,7.59-37.16.64a112.5,112.5,0,0,1-20.94-9.36c2.13,1,44.46,15.12,49.58,11.41s1-11.62-.2-18.46c-1.13-6.25-2.44-7.84-3.62-9,.49-2.24,3-9.82,4.09-13.62a37.53,37.53,0,0,1,4.71-.42C106.89,117.69,100,120.73,105.27,127.75Z"/><path class="cls-14" d="M37.94,133.88s.83,2.08-.62,6.64-4,5.82-4,5.82c.35.46,2.05,2.66,4.16,2.49,2.67-.22,3.91-4.09,4.47-5.86.62-1.94,1.44-4.48,0-6.64A6.22,6.22,0,0,0,37.94,133.88Z"/><path class="cls-15" d="M108.79,97.44c-1.44,3.87-3.62,8.13-5.33,11.93-3.39,7.49-4.09,17.26-8.65,18.11-1.06.19-5.7-.59-9.55-2.71,6.92-18.71,5.71-21.61,9.68-28.42s9.42-12,13-5.09C108.49,92.35,108.76,94.53,108.79,97.44Z"/><path class="cls-16" d="M136.4,236.6c-18.72-1.15-41-13.57-39.36-25a207.06,207.06,0,0,0,5.24-29.22,29.82,29.82,0,0,0-.52-14.88c-1.77-5.72-4.49-7.5-8-15a49.32,49.32,0,0,1-4.32-13c-2.25-13.83,5.7-18.78,6.15-32.36a23.82,23.82,0,0,1,3.68-12.87,14,14,0,0,1,.89-1.22c6.93-8.06,43,4.95,67.08,21.4.06.17,7.82,20.18,7.82,20.36a63.86,63.86,0,0,0-8.48,19.28c-3.37,15.16-3.72,27.27,9.61,55.06a15.09,15.09,0,0,1,1.14,2.73C179.26,221.4,161.32,238.28,136.4,236.6Z"/><path class="cls-17" d="M170.44,122.72a14.09,14.09,0,0,0-3.93-3.62c-2.23-1.35-4.7-1.46-6.68-2-6.6-1.78-7.82-8.32-11.23-7.59-1.34.29-1.06,1.27-4.23,4-1.78,1.55-5.32,4.25-6.18,3.53-.34-.28-.4-1.19,1.08-4.17q.87-5.84,1.75-11.68a7.84,7.84,0,0,1,1.61-.62,160.27,160.27,0,0,1,24.65,13.91C168.5,117.72,169.59,120.41,170.44,122.72Z"/><path class="cls-18" d="M177.13,216.1a8.57,8.57,0,0,1-.38,1.18c-6.6,13.19-24,20.42-40.35,19.32,19.94-7.11,24.56-13.76,24.94-18.66.33-3.77-2.08-5.19-3.58-16.08-.65-4.71-1.38-16.33-7.21-21.68-3.4-3.06-6.84-2.69-12.45-3.77-11.78-2.26-21.68-8.58-21.21-10.32.19-.8,3.77-.76,10.89-.57,10.41.19,13,1.08,15.6-.89,3.35-2.55,4.19-6.6,4.71-9.15,1.94-9.24-3.2-14-.33-20.79a14.1,14.1,0,0,1,4.34-5.46c36,30.77-4.7,18.93,22.48,76.55a66.19,66.19,0,0,1,2.79,6.17A19.71,19.71,0,0,1,177.13,216.1Z"/><path class="cls-19" d="M111.55,98.75c-5.6,8.46-2.94,20.87,11,23.25,9.88,1.7,17-5.78,18.47-7.47,3.47-3.93,5.35-8.23,3.33-13.08s-2.91-5.4-5.19-7.06-23.26.21-25.54,1.45c0,0,0,0-2.08,2.91Z"/><path class="cls-20" d="M112.22,105.82c1.31-8.2,3.51-17.57,7.92-24.15S132,69.13,134.91,70.52c3.62,1.7-.82,9.53,3.88,21a32.55,32.55,0,0,1,2.21,9.69c.29,4.42-.76,6.25-2.94,8.55C128.28,120.1,110.67,115.49,112.22,105.82Z"/><path class="cls-7" d="M151.16,57.06s-.38,11.59-4.43,20.22c-3.82,7.92-9.34,9.66-9.34,9.66a18.76,18.76,0,0,1-3.3,4.53c-4.13,3.93-11.6,9.49-17.3,8.86-6.88-.9-13.81-10.18-16-20.74-.43-2-.52-4.67-.71-10.09-.33-10.32.47-12.72,1.37-14.47A15.9,15.9,0,0,1,106,49.75c7.87-2.26,15.7-4.52,23.57-6.83Z"/><path class="cls-21" d="M125.18,98.07c2-2,6.42-7.54,7.5-14.33a25.42,25.42,0,0,0-3.39-16v2.5C120,72.05,109,66.63,105.06,56.4,133.85,41.25,155.79,82.79,125.18,98.07Z"/><path class="cls-22" d="M152.94,67.19a70.76,70.76,0,0,1-5.18,23.89c-3.69,9.81-7.66,17.64-19.1,21.37.09-.15.21-.29.31-.44,5.74-8,9.25-18.74,8.19-28.21-1.41-11.88-10.1-22.65-11.21-22-.32.18-.17,1.49,2.07,6.64A25.56,25.56,0,0,1,105.6,57.51c-3.12,3.51-4.33,7.18-4.63,11.83-.47,7.32,2.62,17.33,5.46,23.55-.65,5.24-2.79,6.14-6.64,9.18,1.93-3.34,2.61-6.79.7-10.15-1.32-2.29-3.76-10-4.19-19.61v0C95.85,61.4,97.71,50,105.07,42c11.29-12.3,32-13.48,42.89,2C153.37,51.6,153.05,63.44,152.94,67.19Z"/><path class="cls-23" d="M106.43,92.89c-.57,4.6-2.31,5.73-5.51,8.29-.12-.22-.23-.44-.33-.65a9.07,9.07,0,0,0-.1-8.61c-1.32-2.29-3.76-10-4.19-19.61v0c.38-1.36.88-3,1.55-5.1,2.77-8.85,7.75-9.68,7.75-9.68A18.26,18.26,0,0,0,101,69.34C100.51,76.66,103.59,86.68,106.43,92.89Z"/><path class="cls-24" d="M152.94,67.19c-.58,18-9.31,35.42-15.15,40.28a27.88,27.88,0,0,1-9.13,5c0-.08.06-.21.31-.44,2.67-2.37,18-11.33,19-36.79.35-8.81-1.83-23.95-8-30.17-8.2-8.22-22.4-9.71-34.86-3.09,11.29-12.3,32-13.48,42.89,2C153.37,51.6,153.05,63.44,152.94,67.19Z"/><path class="cls-7" d="M241.33,160.81v0c-1,.64-8,6.59-8.86,7.36,0,0,0,0-.05,0-9.31,8-20.72,18.16-26.77,20.79a30.51,30.51,0,0,1-6.37,2c-1.46.25-4.5.5-5.84,0-4.53-.76-4.66-2.13-8.06-5-4.83-4.58-18.25-25.41-21.87-31.07,4.88-3.25,22.35-9.9,23.57-9.9a111,111,0,0,0,12.11,23.38h.09c15.88-8.38,22.89-10.13,32.86-18.95C237,156,241.33,160.81,241.33,160.81Z"/><path class="cls-25" d="M241.33,160.84c-.75.47-3.2,2.6-5.23,4.34a13.4,13.4,0,0,1-1.37-.1C238.5,162.59,240.81,161,241.33,160.84Z"/><path class="cls-7" d="M262.24,157.75a5.46,5.46,0,0,1-2.21,1.32,25.94,25.94,0,0,1-4.56,1.51,17.4,17.4,0,0,1-6.7-.38c0,.17,2.35,1.68,5.51,1.6,3.36-.08,5.64-1.9,6.11-1.26.28.38-.34,1.36-.88,2-1.85,2.18-4.65,2.54-8.63,3-2.91.33-12.37-.12-15.29-.26l-3.86,3.31a4.91,4.91,0,0,1-3.8.29,5.23,5.23,0,0,1-3.19-5.16h0c-1.21-4.22-.47-7.92,3-10.26,3.88-2.6,2.67-3.82,5.57-6.16a13.41,13.41,0,0,1,5.59-3.09c2.24-.51,2.76.15,5.09-.55,2.57-.79,3.62-2.1,4.47-1.54s.87,2.85.11,3.88c-1.44,2.09-6.29,1.52-6.38,1.76s7,1.4,12.32-.29a26.58,26.58,0,0,0,4.39-1.87c1.82-1,2.63-1.84,3.49-1.49a1.64,1.64,0,0,1,1,1.4,4.66,4.66,0,0,1-2.38,2.73c-3.88,2.18-3.61,2.39-5.61,3.17A23.65,23.65,0,0,1,249,153a15.32,15.32,0,0,0,5.76-.24,32,32,0,0,0,7.32-3.4c.89-.53,2.2-1.36,2.9-.88a1.42,1.42,0,0,1,.46,1.17c0,1.12-1.21,1.89-2.7,2.82-3.24,2-4.86,3.07-5.29,3.23-4.12,1.55-7.67.71-7.69,1s2.49,1.15,5.52.74c4.5-.6,7.22-3.75,8-3C263.63,154.76,263.58,156.42,262.24,157.75Z"/><path class="cls-26" d="M236.1,165.19c-1.11.83-2.62,2.13-3.63,3,0,0,0,0-.05,0-20.1,17.34-27.17,24-38.51,22.91-.14,0-.33,0-.47,0-5.68-1.08-10-4.93-29.93-36.16,6.2-4.13,21.71-9.9,23.57-9.9a111,111,0,0,0,12.11,23.38c-3.87,4.61-5.37,5.34-6,5-.83-.47.36-2.74-.17-6.47-.16-1.16-.47-2.28-3.39-7.95-2.44-4.76-3.68-7.14-4.41-7.22-2.92-.34-7.92,7.61-7.2,15.32.38,4.1,1.93,7.08,5,10.89,10.91,13.57,12.76,12.69,47.33-10-5.54-2-10.4-10.84-.47-16.36l0,.05a14.38,14.38,0,0,0-1.32,3.44c-.56,2.07-.61,4.43-.14,4.57.29.1.47-.75,1.51-1.51s2.55-.94,2.69-.66c.23.48-2.83,1.56-2.92,3.49C229.65,162.52,232.28,165.19,236.1,165.19Z"/><path class="cls-27" d="M244.18,155.25a5.25,5.25,0,0,0-2.78-.92c2.1-2,2.74-2.47,3.47-4a5.29,5.29,0,0,1,1.52-1.93c-2.55-.09-4.21-.48-4.21-.62s-2,5.64-4.84,7.37c-.12.07-1,.68-.86.89s1.48-.55,3.18-.52a6.52,6.52,0,0,1,4.09,1.73,8.29,8.29,0,0,1,2.14,4.2C245.94,161.05,246.3,156.75,244.18,155.25Z"/><path class="cls-28" d="M187.55,145.77a28.85,28.85,0,0,0-20.74,14.57c-14.28-20.39-23.91-40.93.47-45.82A54.22,54.22,0,0,1,187.55,145.77Z"/><path class="cls-29" d="M187.55,145.77a30.56,30.56,0,0,0-5.75,1.56c-.05-.1-.05-.15-.1-.24a4.17,4.17,0,0,1-.47.47,28.6,28.6,0,0,0-14.42,12.78c1.36-8.28,4.46-12.52,7.22-14.88,1.48-1.26,3.54-2.55,3.83-4.86s-1.54-3.61-3.83-7.07c-4.48-6.75-2.79-10-6.66-13.4a13.25,13.25,0,0,0-7.54-3,27.76,27.76,0,0,1,7.45-2.59A54.22,54.22,0,0,1,187.55,145.77Z"/></svg>